<?xml version="1.0" encoding="UTF-8" standalone="no"?>
<svg
   xmlns:dc="http://purl.org/dc/elements/1.1/"
   xmlns:cc="http://creativecommons.org/ns#"
   xmlns:rdf="http://www.w3.org/1999/02/22-rdf-syntax-ns#"
   xmlns:svg="http://www.w3.org/2000/svg"
   xmlns="http://www.w3.org/2000/svg"
   xmlns:sodipodi="http://sodipodi.sourceforge.net/DTD/sodipodi-0.dtd"
   xmlns:inkscape="http://www.inkscape.org/namespaces/inkscape"
   width="1920"
   height="291"
   viewBox="0 0 1920 291"
   fill="none"
   version="1.1"
   id="svg306"
   sodipodi:docname="bgFooter.svg"
   inkscape:version="0.92.5 (2060ec1f9f, 2020-04-08)">
  <metadata
     id="metadata312">
    <rdf:RDF>
      <cc:Work
         rdf:about="">
        <dc:format>image/svg+xml</dc:format>
        <dc:type
           rdf:resource="http://purl.org/dc/dcmitype/StillImage" />
      </cc:Work>
    </rdf:RDF>
  </metadata>
  <defs
     id="defs310" />
  <sodipodi:namedview
     pagecolor="#ffffff"
     bordercolor="#666666"
     borderopacity="1"
     objecttolerance="10"
     gridtolerance="10"
     guidetolerance="10"
     inkscape:pageopacity="0"
     inkscape:pageshadow="2"
     inkscape:window-width="1920"
     inkscape:window-height="1017"
     id="namedview308"
     showgrid="false"
     inkscape:zoom="0.42604167"
     inkscape:cx="1253.8482"
     inkscape:cy="322.27752"
     inkscape:window-x="1672"
     inkscape:window-y="-8"
     inkscape:window-maximized="1"
     inkscape:current-layer="svg306" />
  <path
     d="M 1148.2721,0.00268555 1096.9851,6.62832 1052.9811,2.12289 970.65058,0.00268555 912.61302,17.7594 836.75761,0.00268555 737.4181,7.4234 670.20131,0.00268555 641,0 628.09046,291 H 1281.09 V 0.00268555 L 1221.4285,12.1939 Z"
     id="path2"
     inkscape:connector-curvature="0"
     style="fill:#9a745b;stroke-width:1.00996435"
     sodipodi:nodetypes="cccccccccccccc" />
  <path
     d="M660 27.6966L668.469 61.6198C668.469 61.6198 689.376 55.2592 690.699 53.9341C692.022 52.609 694.139 32.467 694.139 32.467L677.202 11L660 27.6966Z"
     fill="#603813"
     id="path4" />
  <path
     d="M655.675 236.795L648 252.167C648 252.167 657.792 256.407 658.586 256.407C659.644 256.407 666.79 249.516 666.79 249.516L667.319 236L655.675 236.795Z"
     fill="#603813"
     id="path6" />
  <path
     d="M979.675 81.7951L972 97.1665C972 97.1665 981.792 101.407 982.586 101.407C983.644 101.407 990.79 94.5163 990.79 94.5163L991.319 81L979.675 81.7951Z"
     fill="#603813"
     id="path8" />
  <path
     d="M858.45 71.5593L872.476 81.3652C872.476 81.3652 878.034 72.3544 878.298 71.2943C878.298 70.2342 872.741 62.2834 872.741 62.2834L859.509 59.8982L858.45 71.5593Z"
     fill="#603813"
     id="path10" />
  <path
     d="M1177.06 68.3005L1176 85.2621C1176 85.2621 1186.59 85.2621 1187.38 84.9971C1188.17 84.4671 1192.14 75.4562 1192.14 75.4562L1187.38 63L1177.06 68.3005Z"
     fill="#603813"
     id="path12" />
  <path
     d="M1095 218.276L1101.35 234.177C1101.35 234.177 1111.14 229.672 1111.67 228.877C1112.2 228.082 1111.94 218.276 1111.94 218.276L1102.41 209L1095 218.276Z"
     fill="#603813"
     id="path14" />
  <path
     d="M1013.27 76.3299L1024.91 88.7861C1024.91 88.7861 1032.32 81.1004 1032.59 80.0403C1032.85 79.2452 1028.88 69.9693 1028.88 69.9693L1016.44 64.9338L1013.27 76.3299Z"
     fill="#603813"
     id="path16" />
  <path
     d="M1237.16 253.367L1248.27 266.353C1248.27 266.353 1255.95 258.932 1256.21 258.137C1256.48 257.342 1252.77 248.066 1252.77 248.066L1240.6 242.501L1237.16 253.367Z"
     fill="#603813"
     id="path18" />
  <path
     d="M1069.88 91.9015L1086.82 90.8414C1086.82 90.8414 1085.49 80.2404 1084.97 79.4453C1084.44 78.6503 1074.91 76 1074.91 76L1063 82.3606L1069.88 91.9015Z"
     fill="#603813"
     id="path20" />
  <path
     d="M1024.65 33.926L1031.26 23.325C1031.26 23.325 1023.06 16.9644 1022.27 16.6993C1021.47 16.4343 1015.38 20.1447 1015.38 20.1447L1014.86 31.2757L1024.65 33.926Z"
     fill="#603813"
     id="path22" />
  <path
     d="M699.663 260.257L700.457 247.801C700.457 247.801 690.136 245.946 689.342 246.211C688.548 246.476 684.843 252.572 684.843 252.572L689.607 262.643L699.663 260.257Z"
     fill="#603813"
     id="path24" />
  <path
     d="M734.596 32.8658L727.451 22.5298C727.451 22.5298 718.188 27.3002 717.659 28.0953C717.129 28.6254 718.188 35.7811 718.188 35.7811L728.245 40.8165L734.596 32.8658Z"
     fill="#603813"
     id="path26" />
  <path
     d="M1069 175.322L1093.61 200.235C1093.61 200.235 1108.43 184.068 1108.96 182.213C1109.49 180.358 1101.02 161.806 1101.02 161.806L1075.35 152L1069 175.322Z"
     fill="#603813"
     id="path28" />
  <path
     d="M1187.14 225.804L1204.08 237.996C1204.08 237.996 1220.22 224.214 1221.01 222.889C1221.81 221.564 1217.84 210.698 1217.84 210.698L1196.93 208.843L1187.14 225.804Z"
     fill="#603813"
     id="path30" />
  <path
     d="M1216.25 80.04L1245.36 90.376C1245.36 90.376 1259.39 65.4637 1258.06 64.6686C1253.56 62.2834 1231.86 49.2971 1231.86 49.2971L1214.13 60.4282L1216.25 80.04Z"
     fill="#603813"
     id="path32" />
  <path
     d="M741.529 188.481L741 219.224C741 219.224 769.052 224.524 769.317 222.934C770.111 217.899 775.404 193.251 775.404 193.251L759.261 180L741.529 188.481Z"
     fill="#603813"
     id="path34" />
  <path
     d="M1008 176.746L1046.9 168L1052.2 194.768L1041.35 224.45L1008 211.464V176.746Z"
     fill="#754C24"
     id="path36" />
  <path
     d="M779 123.694L787.998 85L814.462 91.6256L836.428 114.153L810.228 138.8L779 123.694Z"
     fill="#754C24"
     id="path38" />
  <path
     d="M1136.59 87.991L1105.1 63.6087L1122.3 42.4067L1151.94 31.8057L1163.32 65.7289L1136.59 87.991Z"
     fill="#754C24"
     id="path40" />
  <path
     d="M1229 195.647L1236.15 171L1252.82 176.301L1266.05 191.407L1248.32 206.248L1229 195.647Z"
     fill="#754C24"
     id="path42" />
  <path
     d="M800.757 217.058L790.966 200.096L802.61 193.736L817.959 194.266L816.901 211.758L800.757 217.058Z"
     fill="#754C24"
     id="path44" />
  <path
     d="M748.093 76.8601L753.651 95.4119L740.948 99.1222L726.128 94.8818L731.156 78.1852L748.093 76.8601Z"
     fill="#754C24"
     id="path46" />
  <path
     d="M983.098 29.6855L988.656 48.2373L975.952 51.9477L961.132 47.7073L966.161 31.0107L983.098 29.6855Z"
     fill="#754C24"
     id="path48" />
  <path
     d="M1153.91 206L1170.32 216.601L1162.91 227.732L1149.15 234.093L1142 218.191L1153.91 206Z"
     fill="#754C24"
     id="path50" />
  <path
     d="M1043.17 32.3356L1055.88 17.4941L1065.93 26.24L1070.43 40.8164L1053.49 45.8519L1043.17 32.3356Z"
     fill="#754C24"
     id="path52" />
  <path
     d="M884.121 46.3819L884.65 36.0459L891.795 36.5759L898.411 41.3464L892.854 49.0321L884.121 46.3819Z"
     fill="#754C24"
     id="path54" />
  <path
     d="M1198.52 47.9722L1190.31 41.6115L1194.81 36.046L1202.49 33.3958L1205.4 42.4066L1198.52 47.9722Z"
     fill="#754C24"
     id="path56" />
  <path
     d="M1266.2 96.8414L1258 90.2158L1262.5 84.9153L1270.44 82L1273.08 91.0108L1266.2 96.8414Z"
     fill="#754C24"
     id="path58" />
  <path
     d="M802.081 58.8385L799.434 40.8167L811.872 39.2266L824.84 45.0571L817.959 59.8986L802.081 58.8385Z"
     fill="#754C24"
     id="path60" />
  <path
     d="M933.588 87.1311L932 77.0601L939.145 76L946.555 79.4453L942.586 87.9261L933.588 87.1311Z"
     fill="#754C24"
     id="path62" />
  <path
     d="M1146.38 191.616L1152.47 183.135L1158.03 187.375L1161.2 195.061L1152.47 198.241L1146.38 191.616Z"
     fill="#754C24"
     id="path64" />
  <path
     d="M510.838 0L460.205 6.62568L417.26 2.12022L336.141 0L279.145 17.7568L204.653 0L107.364 7.42077L41.0897 0H0V291H641V0L582.414 12.1913L510.838 0Z"
     fill="#9A745B"
     id="path66" />
  <path
     d="M26.4059 49.0322L34.8746 82.9554C34.8746 82.9554 55.7815 76.5948 57.1048 75.2697C58.428 73.9446 60.5451 53.8026 60.5451 53.8026L43.3432 32.0706L26.4059 49.0322Z"
     fill="#603813"
     id="path68" />
  <path
     d="M48.6361 113.168L40.9614 128.54C40.9614 128.54 50.7533 132.78 51.5472 132.78C52.6058 132.78 59.7512 125.89 59.7512 125.89L60.2805 112.373L48.6361 113.168Z"
     fill="#603813"
     id="path70" />
  <path
     d="M78.5351 176.17L87.9341 190.552C87.9341 190.552 96.5357 184.238 96.9363 183.552C97.4704 182.638 95.1265 172.992 95.1265 172.992L83.724 165.715L78.5351 176.17Z"
     fill="#603813"
     id="path72" />
  <path
     d="M179.9 244.886L172.225 260.257C172.225 260.257 182.017 264.498 182.811 264.498C183.87 264.498 191.015 257.607 191.015 257.607L191.544 244.091L179.9 244.886Z"
     fill="#603813"
     id="path74" />
  <path
     d="M213.245 63.6086L227.272 73.4146C227.272 73.4146 232.829 64.4037 233.094 63.3436C233.094 62.2835 227.536 54.3327 227.536 54.3327L214.304 51.9475L213.245 63.6086Z"
     fill="#603813"
     id="path76" />
  <path
     d="M318.045 141.261L332.071 151.067C332.071 151.067 337.629 142.056 337.893 140.996C337.893 139.936 332.336 131.985 332.336 131.985L319.103 129.6L318.045 141.261Z"
     fill="#603813"
     id="path78" />
  <path
     d="M455.925 239.321L462.276 255.222C462.276 255.222 472.068 250.717 472.598 249.922C473.127 249.127 472.862 239.321 472.862 239.321L463.335 230.045L455.925 239.321Z"
     fill="#603813"
     id="path80" />
  <path
     d="M250.031 147.622L248.972 164.583C248.972 164.583 259.558 164.848 260.352 164.318C261.146 163.788 265.116 154.777 265.116 154.777L260.617 142.321L250.031 147.622Z"
     fill="#603813"
     id="path82" />
  <path
     d="M326.729 207.265L336.052 193.055C336.052 193.055 326.988 187.581 326.035 187.648C325.083 187.715 317.171 193.576 317.171 193.576L314.908 206.625L326.729 207.265Z"
     fill="#603813"
     id="path84" />
  <path
     d="M606.243 261.582L617.358 274.569C617.358 274.569 625.033 267.148 625.298 266.353C625.562 265.558 621.857 256.282 621.857 256.282L609.684 250.716L606.243 261.582Z"
     fill="#603813"
     id="path86" />
  <path
     d="M459.101 128.01L476.038 126.95C476.038 126.95 474.715 116.349 474.185 115.554C473.656 114.759 464.129 112.108 464.129 112.108L452.22 118.469L459.101 128.01Z"
     fill="#603813"
     id="path88" />
  <path
     d="M384.471 33.926L391.087 23.325C391.087 23.325 382.883 16.9644 382.089 16.6993C381.295 16.4343 375.208 20.1447 375.208 20.1447L374.679 31.2757L384.471 33.926Z"
     fill="#603813"
     id="path90" />
  <path
     d="M48.1068 261.318L48.9008 248.862C48.9008 248.862 38.5796 247.006 37.7857 247.272C36.9917 247.537 33.2867 253.632 33.2867 253.632L38.0503 263.703L48.1068 261.318Z"
     fill="#603813"
     id="path92" />
  <path
     d="M137.82 239.072L138.614 226.616C138.614 226.616 128.293 224.761 127.499 225.026C126.705 225.291 123 231.387 123 231.387L127.764 241.457L137.82 239.072Z"
     fill="#603813"
     id="path94" />
  <path
     d="M94.6844 32.8658L87.539 22.5298C87.539 22.5298 78.2764 27.3002 77.7471 28.0953C77.2178 28.6254 78.2764 35.7811 78.2764 35.7811L88.3329 40.8165L94.6844 32.8658Z"
     fill="#603813"
     id="path96" />
  <path
     d="M98.9457 145.923L98.8287 133.358C98.8287 133.358 88.4848 132.111 87.6006 132.472C86.8651 132.614 83.7272 139.132 83.7272 139.132L89.2275 148.942L98.9457 145.923Z"
     fill="#603813"
     id="path98" />
  <path
     d="M374.679 91.9663L399.291 116.879C399.291 116.879 414.111 100.712 414.64 98.8569C415.17 97.0018 406.701 78.45 406.701 78.45L381.03 68.644L374.679 91.9663Z"
     fill="#603813"
     id="path100" />
  <path
     d="M71.3956 222.624L70.8663 253.367C70.8663 253.367 98.9187 258.668 99.1833 257.077C99.9772 252.042 105.27 227.395 105.27 227.395L89.1268 214.143L71.3956 222.624Z"
     fill="#603813"
     id="path102" />
  <path
     d="M299.52 105.748L302.96 75.0046C302.96 75.0046 275.702 67.0538 275.172 68.379C273.849 73.4144 266.174 97.2667 266.174 97.2667L280.995 112.108L299.52 105.748Z"
     fill="#603813"
     id="path104" />
  <path
     d="M258.237 183.83L240.018 208.831C240.018 208.831 259.758 229.241 260.874 228.352C264.518 224.633 283.001 207.716 283.001 207.716L277.48 187.482L258.237 183.83Z"
     fill="#603813"
     id="path106" />
  <path
     d="M156.342 207.204L173.894 232.678C173.894 232.678 199.692 220.817 199.223 219.469C196.922 214.799 187.085 191.754 187.085 191.754L166.165 190.258L156.342 207.204Z"
     fill="#603813"
     id="path108" />
  <path
     d="M372.562 221.034L411.465 212.553L416.757 239.321L406.172 268.738L372.562 255.752V221.034Z"
     fill="#754C24"
     id="path110" />
  <path
     d="M496.68 87.991L465.187 63.6087L482.125 42.4067L511.765 31.8057L523.145 65.7289L496.68 87.991Z"
     fill="#754C24"
     id="path112" />
  <path
     d="M422.315 185.255L385 198.772L376.267 172.799L383.147 142.056L418.081 150.802L422.315 185.255Z"
     fill="#754C24"
     id="path114" />
  <path
     d="M243.673 100.407L235.817 139.309L209.091 133.265L186.407 111.403L212.041 86.1105L243.673 100.407Z"
     fill="#754C24"
     id="path116" />
  <path
     d="M171.571 178.691L134.594 193.107L125.235 167.354L131.369 136.453L166.504 144.35L171.571 178.691Z"
     fill="#754C24"
     id="path118" />
  <path
     d="M23.7595 178.364L43.0786 175.979L44.4018 189.231L37.7857 203.012L22.1716 195.326L23.7595 178.364Z"
     fill="#754C24"
     id="path120" />
  <path
     d="M107.917 76.8601L113.739 95.4119L100.771 99.1222L85.9511 94.8818L90.9793 78.1852L107.917 76.8601Z"
     fill="#754C24"
     id="path122" />
  <path
     d="M161.233 96.4649L146.195 108.791L137.913 98.1449L136.315 82.8131L153.682 81.2462L161.233 96.4649Z"
     fill="#754C24"
     id="path124" />
  <path
     d="M342.921 29.6855L348.479 48.2373L335.776 51.9477L320.956 47.7073L325.984 31.0107L342.921 29.6855Z"
     fill="#754C24"
     id="path126" />
  <path
     d="M517.587 245.681L533.995 256.282L526.85 267.413L512.824 273.774L505.678 257.872L517.587 245.681Z"
     fill="#754C24"
     id="path128" />
  <path
     d="M244.738 260.523L257.441 245.681L267.233 254.427L271.997 269.003L255.059 274.039L244.738 260.523Z"
     fill="#754C24"
     id="path130" />
  <path
     d="M403.26 32.3356L415.699 17.4941L425.755 26.24L430.254 40.8164L413.582 45.8519L403.26 32.3356Z"
     fill="#754C24"
     id="path132" />
  <path
     d="M243.944 46.3819L244.473 36.0459L251.619 36.5759L258.235 41.3464L252.677 49.0321L243.944 46.3819Z"
     fill="#754C24"
     id="path134" />
  <path
     d="M558.343 47.9722L550.138 41.6115L554.637 36.046L562.577 33.3958L565.488 42.4066L558.343 47.9722Z"
     fill="#754C24"
     id="path136" />
  <path
     d="M648.939 92.8414L641 86.2158L645.499 80.9153L653.174 78L656.085 87.0108L648.939 92.8414Z"
     fill="#754C24"
     id="path138" />
  <path
     d="M162.169 58.8385L159.522 40.8167L171.696 39.2266L184.928 45.0571L178.048 59.8986L162.169 58.8385Z"
     fill="#754C24"
     id="path140" />
  <path
     d="M342.921 252.837L341.334 242.766L348.479 241.706L355.889 245.151L351.919 253.632L342.921 252.837Z"
     fill="#754C24"
     id="path142" />
  <path
     d="M468.892 175.184L474.979 166.703L480.537 170.944L483.713 178.629L474.979 181.81L468.892 175.184Z"
     fill="#754C24"
     id="path144" />
  <path
     d="M321.221 94.3517L323.338 84.2808L330.218 85.6059L336.305 91.4364L329.689 98.0621L321.221 94.3517Z"
     fill="#754C24"
     id="path146" />
  <path
     d="M 1791.06,0.00268555 1740.51,6.62832 1697.64,2.12289 1616.66,0.00268555 1559.76,17.7594 1485.39,0.00268555 1388.27,7.4234 1322.11,0.00268555 h -41.02 L 1260.5521,291 H 1921 V 0.00268555 L 1862.51,12.1939 Z"
     id="path148"
     inkscape:connector-curvature="0"
     style="fill:#9a745b"
     sodipodi:nodetypes="cccccccccccccc" />
  <path
     d="M1306.49 49.0323L1314.96 82.9555C1314.96 82.9555 1335.87 76.5949 1337.19 75.2698C1338.52 73.9447 1340.63 53.8027 1340.63 53.8027L1323.7 32.3357L1306.49 49.0323Z"
     fill="#603813"
     id="path150" />
  <path
     d="M1328.72 89.1684L1321.05 104.54C1321.05 104.54 1330.84 108.78 1331.64 108.78C1332.69 108.78 1339.84 101.89 1339.84 101.89L1340.37 88.3733L1328.72 89.1684Z"
     fill="#603813"
     id="path152" />
  <path
     d="M1459.99 244.886L1452.31 260.257C1452.31 260.257 1462.11 264.498 1462.9 264.498C1463.96 264.498 1471.1 257.607 1471.1 257.607L1471.63 244.091L1459.99 244.886Z"
     fill="#603813"
     id="path154" />
  <path
     d="M1493.07 63.6086L1507.1 73.4146C1507.1 73.4146 1512.65 64.4037 1512.92 63.3436C1512.92 62.2835 1507.36 54.3327 1507.36 54.3327L1494.13 51.9475L1493.07 63.6086Z"
     fill="#603813"
     id="path156" />
  <path
     d="M1598.13 141.261L1612.16 151.067C1612.16 151.067 1617.72 142.056 1617.98 140.996C1617.98 139.936 1612.42 131.985 1612.42 131.985L1599.19 129.6L1598.13 141.261Z"
     fill="#603813"
     id="path158" />
  <path
     d="M1635.51 175.101L1651.89 170.158C1651.89 170.158 1648.26 160.215 1647.59 159.351C1646.76 158.694 1637.07 158.135 1637.07 158.135L1627.01 167.049L1635.51 175.101Z"
     fill="#603813"
     id="path160" />
  <path
     d="M1800.85 124.565L1799.79 141.526C1799.79 141.526 1810.38 141.526 1811.17 141.261C1811.97 140.996 1815.94 131.72 1815.94 131.72L1811.17 119.264L1800.85 124.565Z"
     fill="#603813"
     id="path162" />
  <path
     d="M1736.01 239.321L1742.36 255.222C1742.36 255.222 1752.16 250.717 1752.69 249.922C1753.22 249.127 1752.95 239.321 1752.95 239.321L1743.42 230.045L1736.01 239.321Z"
     fill="#603813"
     id="path164" />
  <path
     d="M1720.38 206.295L1737.33 208.745C1737.33 208.745 1738.32 198.012 1737.9 197.157C1737.47 196.301 1728.85 191.627 1728.85 191.627L1716.05 195.24L1720.38 206.295Z"
     fill="#603813"
     id="path166" />
  <path
     d="M1530.12 147.622L1529.06 164.583C1529.06 164.583 1539.65 164.848 1540.44 164.318C1541.23 163.788 1545.2 154.777 1545.2 154.777L1540.44 142.321L1530.12 147.622Z"
     fill="#603813"
     id="path168" />
  <path
     d="M1886.33 261.583L1897.45 274.569C1897.45 274.569 1905.12 267.148 1905.39 266.353C1905.65 265.558 1901.95 256.282 1901.95 256.282L1889.77 250.717L1886.33 261.583Z"
     fill="#603813"
     id="path170" />
  <path
     d="M1739.19 128.01L1756.13 126.95C1756.13 126.95 1754.8 116.349 1754.27 115.554C1753.74 114.759 1744.22 112.109 1744.22 112.109L1732.31 118.469L1739.19 128.01Z"
     fill="#603813"
     id="path172" />
  <path
     d="M1808.62 93.4278L1820.6 105.443C1820.6 105.443 1827.69 97.4469 1827.93 96.5244C1828.18 95.6018 1823.88 86.6985 1823.88 86.6985L1811.24 81.9595L1808.62 93.4278Z"
     fill="#603813"
     id="path174" />
  <path
     d="M1664.56 33.926L1671.18 23.325C1671.18 23.325 1662.97 16.9644 1662.18 16.6993C1661.38 16.4343 1655.3 20.1447 1655.3 20.1447L1654.77 31.2757L1664.56 33.926Z"
     fill="#603813"
     id="path176" />
  <path
     d="M1328.2 261.318L1328.99 248.862C1328.99 248.862 1318.67 247.006 1317.87 247.272C1317.08 247.537 1313.37 253.632 1313.37 253.632L1318.14 263.703L1328.2 261.318Z"
     fill="#603813"
     id="path178" />
  <path
     d="M1374.77 32.8658L1367.63 22.5298C1367.63 22.5298 1358.36 27.3002 1357.84 28.0953C1357.31 28.6254 1358.36 35.7811 1358.36 35.7811L1368.42 40.8165L1374.77 32.8658Z"
     fill="#603813"
     id="path180" />
  <path
     d="M1512.65 192.676L1495.98 223.419C1495.98 223.419 1515.56 232.695 1517.68 232.695C1519.53 232.695 1534.62 218.914 1534.62 218.914L1536.47 191.351L1512.65 192.676Z"
     fill="#603813"
     id="path182" />
  <path
     d="M1597.71 251.501L1577.07 240.933C1577.07 240.933 1571.6 254.667 1571.66 256.123C1571.72 257.397 1581.2 267.367 1581.2 267.367L1599.31 267.838L1597.71 251.501Z"
     fill="#603813"
     id="path184" />
  <path
     d="M1654.77 91.9663L1679.38 116.879C1679.38 116.879 1694.2 100.712 1694.73 98.8569C1695.26 97.0018 1686.79 78.45 1686.79 78.45L1661.12 68.644L1654.77 91.9663Z"
     fill="#603813"
     id="path186" />
  <path
     d="M1837.9 231.37L1854.84 243.561C1854.84 243.561 1870.98 229.78 1871.78 228.455C1872.57 227.129 1868.6 216.263 1868.6 216.263L1847.69 214.408L1837.9 231.37Z"
     fill="#603813"
     id="path188" />
  <path
     d="M1856.43 80.04L1885.54 90.376C1885.54 90.376 1899.56 65.4637 1898.24 64.6686C1893.74 62.2834 1872.04 49.2971 1872.04 49.2971L1854.31 60.4282L1856.43 80.04Z"
     fill="#603813"
     id="path190" />
  <path
     d="M1579.61 105.748L1583.05 75.0046C1583.05 75.0046 1555.79 67.0538 1555.26 68.379C1553.94 73.4144 1546.26 97.2667 1546.26 97.2667L1561.08 112.108L1579.61 105.748Z"
     fill="#603813"
     id="path192" />
  <path
     d="M1652.65 221.034L1691.55 212.553L1696.85 239.321L1686.26 268.738L1652.65 255.752V221.034Z"
     fill="#754C24"
     id="path194" />
  <path
     d="M1406.53 144.441L1415.53 105.748L1441.99 112.373L1463.96 134.9L1437.76 159.548L1406.53 144.441Z"
     fill="#754C24"
     id="path196" />
  <path
     d="M1776.77 87.991L1745.28 63.6087L1762.21 42.4067L1791.85 31.8057L1803.23 65.7289L1776.77 87.991Z"
     fill="#754C24"
     id="path198" />
  <path
     d="M1858.81 171.739L1865.95 147.357L1882.63 152.392L1895.86 167.764L1878.13 182.34L1858.81 171.739Z"
     fill="#754C24"
     id="path200" />
  <path
     d="M1462.11 205.397L1452.31 188.436L1463.96 182.075L1479.31 182.605L1477.98 200.097L1462.11 205.397Z"
     fill="#754C24"
     id="path202" />
  <path
     d="M1388 76.8601L1393.83 95.4119L1380.86 99.1222L1366.04 94.8818L1371.07 78.1852L1388 76.8601Z"
     fill="#754C24"
     id="path204" />
  <path
     d="M1623.01 29.6855L1628.57 48.2373L1615.86 51.9477L1601.04 47.7073L1606.07 31.0107L1623.01 29.6855Z"
     fill="#754C24"
     id="path206" />
  <path
     d="M1797.68 245.681L1814.08 256.282L1806.94 267.413L1792.91 273.774L1785.77 257.872L1797.68 245.681Z"
     fill="#754C24"
     id="path208" />
  <path
     d="M1524.83 260.523L1537.53 245.681L1547.32 254.427L1551.82 269.003L1535.15 274.039L1524.83 260.523Z"
     fill="#754C24"
     id="path210" />
  <path
     d="M1683.35 32.3356L1695.79 17.4941L1705.84 26.24L1710.34 40.8164L1693.67 45.8519L1683.35 32.3356Z"
     fill="#754C24"
     id="path212" />
  <path
     d="M1524.03 46.3819L1524.56 36.0459L1531.71 36.5759L1538.32 41.3464L1532.77 49.0321L1524.03 46.3819Z"
     fill="#754C24"
     id="path214" />
  <path
     d="M1838.43 47.9722L1830.23 41.6115L1834.73 36.046L1842.67 33.3958L1845.58 42.4066L1838.43 47.9722Z"
     fill="#754C24"
     id="path216" />
  <path
     d="M1898.51 143.381L1890.57 136.756L1895.06 131.455L1902.74 128.54L1905.65 137.551L1898.51 143.381Z"
     fill="#754C24"
     id="path218" />
  <path
     d="M1442.26 58.8385L1439.35 40.8167L1451.78 39.2266L1465.02 45.0571L1457.87 59.8986L1442.26 58.8385Z"
     fill="#754C24"
     id="path220" />
  <path
     d="M1623.01 252.837L1621.42 242.766L1628.57 241.706L1635.98 245.151L1632.01 253.632L1623.01 252.837Z"
     fill="#754C24"
     id="path222" />
  <path
     d="M1638.03 195.492L1647.53 191.815L1650.08 198.576L1648.27 206.546L1639.15 204.455L1638.03 195.492Z"
     fill="#754C24"
     id="path224" />
  <path
     d="M1748.98 175.184L1755.07 166.704L1760.63 170.944L1763.8 178.63L1755.07 181.81L1748.98 175.184Z"
     fill="#754C24"
     id="path226" />
  <path
     d="M1601.31 94.3517L1603.43 84.2808L1610.31 85.6059L1616.39 91.4364L1609.78 98.0621L1601.31 94.3517Z"
     fill="#754C24"
     id="path228" />
  <path
     d="M1578.02 199.21L1568.26 181.15C1567.52 181.446 1566.78 181.89 1566.19 182.63L1552.74 200.986C1552.3 201.578 1552 202.318 1552 203.058L1572.55 206.167L1578.02 199.21Z"
     fill="#F39200"
     id="path230" />
  <path
     d="M1593.09 195.065C1593.09 194.177 1592.8 193.436 1592.21 192.696L1584.67 183.666C1584.08 182.926 1583.04 182.482 1582.15 182.334L1569.74 181.002C1569.29 181.002 1568.7 181.002 1568.26 181.15L1578.02 199.062L1593.09 195.065Z"
     fill="#F8BE66"
     id="path232" />
  <path
     d="M1577.72 199.358L1572.4 206.167C1573.29 209.276 1575.5 216.973 1576.54 221.118C1577.13 220.97 1577.72 220.526 1578.16 220.082L1588.51 208.535C1588.81 208.091 1589.1 207.647 1589.25 207.203L1589.4 206.907L1577.72 199.358Z"
     fill="#F8BE66"
     id="path234" />
  <path
     d="M1572.55 206.167L1552 203.058C1552 203.65 1552.15 204.39 1552.44 204.834L1560.43 221.562C1561.16 223.19 1562.94 224.078 1564.71 223.634L1576.24 221.266C1576.39 221.266 1576.54 221.118 1576.83 221.118C1575.5 216.973 1573.43 209.275 1572.55 206.167Z"
     fill="#F5A833"
     id="path236" />
  <path
     d="M1577.87 199.061L1578.02 199.21L1577.87 199.358L1589.55 206.907L1592.95 196.397C1593.09 195.953 1593.09 195.509 1593.09 195.065L1577.87 199.061Z"
     fill="#F5A833"
     id="path238" />
  <path
     d="M1421.55 193.955L1424.18 176.165C1423.85 176.165 1423.52 176.165 1423.2 176.33L1411.35 180.612C1411.02 180.777 1410.7 180.942 1410.37 181.106L1418.43 193.46L1421.55 193.955Z"
     fill="#F8BE66"
     id="path240" />
  <path
     d="M1437.18 188.354L1421.72 192.637L1421.55 193.79L1425.66 211.085C1425.99 210.921 1426.32 210.591 1426.49 210.262L1437.01 189.672C1437.18 189.342 1437.18 188.848 1437.18 188.354Z"
     fill="#F8BE66"
     id="path242" />
  <path
     d="M1418.59 193.46L1403.62 202.19C1403.79 202.355 1403.95 202.355 1404.12 202.52L1423.69 211.415C1424.35 211.744 1425.01 211.579 1425.5 211.415L1421.39 194.119L1418.59 193.46Z"
     fill="#F5A833"
     id="path244" />
  <path
     d="M1436.68 187.53L1425.5 176.659C1425.17 176.329 1424.68 176.165 1424.35 176L1421.88 192.472L1437.34 188.189C1437.01 188.025 1436.85 187.86 1436.68 187.53Z"
     fill="#F39200"
     id="path246" />
  <path
     d="M1418.59 193.46L1410.53 181.106C1410.2 181.436 1410.04 181.765 1409.87 182.095L1403.13 199.884C1402.8 200.708 1403.13 201.532 1403.79 202.026L1418.59 193.46Z"
     fill="#F39200"
     id="path248" />
  <path
     d="M1690.57 162.6L1677.5 149.511C1677.33 149.681 1676.99 150.021 1676.99 150.361L1673.26 162.77C1673.09 163.109 1673.09 163.449 1673.09 163.789L1688.19 164.469L1690.57 162.6Z"
     fill="#F8BE66"
     id="path250" />
  <path
     d="M1695.66 146.112L1689.72 161.58L1690.57 162.429L1707.37 169.569C1707.37 169.059 1707.37 168.719 1707.2 168.209L1696.51 146.791C1696.34 146.622 1696 146.282 1695.66 146.112Z"
     fill="#F8BE66"
     id="path252" />
  <path
     d="M1688.36 164.639L1686.5 182.487C1686.67 182.487 1686.83 182.317 1687 182.317L1706.35 171.438C1707.03 171.098 1707.37 170.589 1707.37 169.909L1690.57 162.77L1688.36 164.639Z"
     fill="#F5A833"
     id="path254" />
  <path
     d="M1694.64 146.112L1678.86 148.831C1678.35 148.831 1678.01 149.171 1677.67 149.511L1689.89 161.75L1695.83 146.282C1695.32 145.942 1694.98 145.942 1694.64 146.112Z"
     fill="#F39200"
     id="path256" />
  <path
     d="M1688.36 164.639L1673.26 163.959C1673.26 164.299 1673.43 164.809 1673.6 165.149L1684.29 181.637C1684.8 182.317 1685.65 182.657 1686.5 182.487L1688.36 164.639Z"
     fill="#F39200"
     id="path258" />
  <path
     d="M1496.03 115.172L1479 117.986C1479.17 118.483 1479.33 118.814 1479.83 119.145L1497.51 134.539C1498.34 135.367 1499.66 135.367 1500.49 134.705L1502.31 121.628L1496.03 115.172Z"
     fill="#F5A833"
     id="path260" />
  <path
     d="M1497.51 116.496L1511.73 104.413C1511.4 103.916 1510.9 103.585 1510.24 103.419L1498.01 100.109C1497.35 99.9432 1496.69 99.9432 1496.19 100.274L1496.36 115.338L1497.51 116.496Z"
     fill="#F39200"
     id="path262" />
  <path
     d="M1502.14 121.297L1502.31 121.462L1500.49 134.539C1500.49 134.539 1500.65 134.539 1500.65 134.374L1516.36 122.125C1516.69 121.959 1516.85 121.628 1517.02 121.462L1502.14 121.297Z"
     fill="#F39200"
     id="path264" />
  <path
     d="M1517.18 121.462C1517.51 120.8 1517.68 119.973 1517.35 119.31L1511.89 104.909C1511.89 104.744 1511.73 104.578 1511.56 104.413L1497.35 116.496L1501.98 121.297L1517.18 121.462Z"
     fill="#F8BE66"
     id="path266" />
  <path
     d="M1496.36 115.503L1496.19 100.44C1496.03 100.605 1495.86 100.605 1495.53 100.771L1479.83 115.338C1479 116 1478.83 116.993 1479.17 117.986L1496.19 115.172L1496.36 115.503Z"
     fill="#F8BE66"
     id="path268" />
  <path
     d="M1862.53 116.102L1873.47 114.94C1873.47 114.608 1873.31 114.442 1872.97 114.111L1862.37 103.655C1861.87 103.157 1861.04 102.991 1860.38 103.323L1858.72 111.621L1862.53 116.102Z"
     fill="#F5A833"
     id="path270" />
  <path
     d="M1861.7 115.106L1852.26 122.243C1852.42 122.575 1852.75 122.907 1853.09 122.907L1860.71 125.396C1861.04 125.562 1861.54 125.562 1861.87 125.396L1862.37 115.77L1861.7 115.106Z"
     fill="#F39200"
     id="path272" />
  <path
     d="M1858.89 111.787L1860.38 103.323H1860.21L1849.61 110.625C1849.44 110.791 1849.27 110.957 1849.11 111.123L1858.89 111.787Z"
     fill="#F39200"
     id="path274" />
  <path
     d="M1849.27 111.123C1848.94 111.455 1848.94 111.953 1849.11 112.451L1852.09 121.745C1852.09 121.911 1852.26 121.911 1852.26 122.077L1861.7 114.94L1858.89 111.621L1849.27 111.123Z"
     fill="#F8BE66"
     id="path276" />
  <path
     d="M1862.37 115.936L1861.87 125.562C1862.04 125.562 1862.2 125.396 1862.2 125.396L1872.81 116.766C1873.31 116.268 1873.47 115.77 1873.31 115.106L1862.37 116.268V115.936Z"
     fill="#F8BE66"
     id="path278" />
  <path
     d="M1436.07 237.723L1445.12 236.761C1445.12 236.486 1444.98 236.349 1444.71 236.074L1435.93 227.418C1435.52 227.006 1434.83 226.868 1434.28 227.143L1432.91 234.013L1436.07 237.723Z"
     fill="#F5A833"
     id="path280" />
  <path
     d="M1435.38 236.898L1427.56 242.807C1427.7 243.081 1427.97 243.356 1428.25 243.356L1434.56 245.417C1434.83 245.555 1435.24 245.555 1435.52 245.417L1435.93 237.448L1435.38 236.898Z"
     fill="#F39200"
     id="path282" />
  <path
     d="M1433.19 234.15L1434.42 227.143H1434.28L1425.5 233.188C1425.36 233.326 1425.23 233.463 1425.09 233.601L1433.19 234.15Z"
     fill="#F39200"
     id="path284" />
  <path
     d="M1425.23 233.601C1424.95 233.875 1424.95 234.288 1425.09 234.7L1427.56 242.394C1427.56 242.532 1427.7 242.532 1427.7 242.669L1435.52 236.761L1433.19 234.013L1425.23 233.601Z"
     fill="#F8BE66"
     id="path286" />
  <path
     d="M1435.93 237.448L1435.52 245.417C1435.65 245.417 1435.79 245.28 1435.79 245.28L1444.57 238.135C1444.98 237.723 1445.12 237.311 1444.98 236.761L1435.93 237.723V237.448Z"
     fill="#F8BE66"
     id="path288" />
  <path
     d="M1795.78 197.256L1779.45 209.437C1779.78 209.771 1780.28 210.105 1780.95 210.272L1807.94 216.779C1809.27 217.113 1810.61 216.446 1811.27 215.277L1805.94 200.593L1795.78 197.256Z"
     fill="#F5A833"
     id="path290" />
  <path
     d="M1798.11 197.924L1806.27 177.399C1805.61 177.065 1804.94 176.899 1804.11 177.065L1789.44 180.403C1788.78 180.57 1788.11 181.07 1787.61 181.571L1796.11 197.423L1798.11 197.924Z"
     fill="#F39200"
     id="path292" />
  <path
     d="M1805.61 200.426L1805.94 200.593L1811.27 215.277L1811.44 215.11L1821.27 193.418C1821.44 193.084 1821.44 192.751 1821.6 192.25L1805.61 200.426Z"
     fill="#F39200"
     id="path294" />
  <path
     d="M1821.44 192.25C1821.44 191.416 1821.1 190.415 1820.44 189.914L1806.77 177.9C1806.61 177.733 1806.44 177.566 1806.11 177.566L1797.94 198.091L1805.44 200.594L1821.44 192.25Z"
     fill="#F8BE66"
     id="path296" />
  <path
     d="M1796.28 197.423L1787.78 181.571C1787.61 181.738 1787.44 182.071 1787.44 182.238L1778.95 206.267C1778.61 207.435 1778.78 208.603 1779.61 209.437L1795.94 197.256L1796.28 197.423Z"
     fill="#F8BE66"
     id="path298" />
  <path
     d="M743.204 147.841L735 141.216L739.499 135.915L747.174 133L750.085 142.011L743.204 147.841Z"
     fill="#754C24"
     id="path300" />
  <path
     d="M494.117 118.743L523.228 129.079C523.228 129.079 537.254 104.167 535.931 103.371C531.432 100.986 509.731 88 509.731 88L492 99.1311L494.117 118.743Z"
     fill="#603813"
     id="path302" />
  <path
     d="M547.588 233.385L566.907 231L568.23 244.251L561.879 258.033L546 250.347L547.588 233.385Z"
     fill="#754C24"
     id="path304" />
</svg>
