<?xml version="1.0" encoding="UTF-8" standalone="no"?>
<svg
   xmlns:dc="http://purl.org/dc/elements/1.1/"
   xmlns:cc="http://creativecommons.org/ns#"
   xmlns:rdf="http://www.w3.org/1999/02/22-rdf-syntax-ns#"
   xmlns:svg="http://www.w3.org/2000/svg"
   xmlns="http://www.w3.org/2000/svg"
   xmlns:sodipodi="http://sodipodi.sourceforge.net/DTD/sodipodi-0.dtd"
   xmlns:inkscape="http://www.inkscape.org/namespaces/inkscape"
   width="318"
   height="80"
   viewBox="0 0 318 80"
   version="1.1"
   id="svg166"
   sodipodi:docname="diamond.svg"
   style="fill:none"
   inkscape:version="0.92.5 (2060ec1f9f, 2020-04-08)">
  <metadata
     id="metadata170">
    <rdf:RDF>
      <cc:Work
         rdf:about="">
        <dc:format>image/svg+xml</dc:format>
        <dc:type
           rdf:resource="http://purl.org/dc/dcmitype/StillImage" />
        <dc:title></dc:title>
      </cc:Work>
    </rdf:RDF>
  </metadata>
  <sodipodi:namedview
     pagecolor="#ffffff"
     bordercolor="#666666"
     borderopacity="1"
     objecttolerance="10"
     gridtolerance="10"
     guidetolerance="10"
     inkscape:pageopacity="0"
     inkscape:pageshadow="2"
     inkscape:window-width="1920"
     inkscape:window-height="1017"
     id="namedview168"
     showgrid="false"
     inkscape:zoom="2.441791"
     inkscape:cx="59.410163"
     inkscape:cy="58.794814"
     inkscape:window-x="1672"
     inkscape:window-y="-8"
     inkscape:window-maximized="1"
     inkscape:current-layer="svg166" />
  <g
     style="mix-blend-mode:overlay;filter:url(#filter0_i)"
     id="g10"
     transform="translate(-4,-4)">
    <path
       d="M 99.6405,30.6934 C 94.5517,24.4056 89.1207,18.1968 82.9418,12.8089 82.9735,12.4773 82.7841,12.1245 82.2419,11.9611 73.635,9.79962 64.385,9.69644 55.5196,9.07218 46.2119,8.40566 37.0042,7.86026 27.7388,6.75152 27.2966,6.70925 26.9438,6.89865 26.7016,7.09863 26.591,7.08806 26.4699,7.18805 26.3593,7.17748 19.1612,11.2867 12.3995,16.6649 5.9801,21.9642 c -0.24225,0.2 -0.37393,0.4105 -0.39507,0.6316 -0.58447,0.2788 -0.64787,0.9422 -0.36904,1.5266 -0.02114,0.2211 0.06828,0.4528 0.1577,0.6845 10.51171,20.7516 24.81471,39.188 41.35071,55.2719 0.0683,0.4527 0.4788,0.8267 0.9316,0.7584 0.4317,0.1528 1.0161,-0.126 1.0584,-0.5682 19.2835,-12.6602 36.9411,-28.1533 51.0724,-46.4379 0.3842,-0.521 0.4272,-0.9632 0.1374,-1.4372 0.7158,-0.4893 0.5898,-1.5054 -0.2837,-1.7005 z m -6.6779,6.8365 c -5.0384,0.1878 -9.9767,0.4967 -14.9834,0.3528 -0.5527,-0.0528 -0.6373,0.8316 -0.0739,0.7739 4.6538,0.3333 9.4393,0.456 14.1883,-0.2057 -0.869,0.921 -1.738,1.842 -2.6175,2.8736 -4.5856,0.1195 -9.2028,0.5707 -13.8567,0.2374 -0.5527,-0.0528 -0.6373,0.8316 -0.0845,0.8845 3.9694,0.4909 8.6232,0.8242 12.8088,0.2202 -0.6267,0.721 -1.2429,1.3315 -1.8696,2.0526 -4.2539,0.1512 -8.529,0.5235 -12.8511,0.2219 -0.5528,-0.0528 -0.6373,0.8316 -0.0846,0.8845 3.7589,0.3593 7.8705,0.5291 11.7139,0.004 -1.0113,1.2421 -2.0014,2.2631 -2.9915,3.2841 -3.4905,0.3357 -6.8283,0.2398 -10.4871,0.0017 -0.5528,-0.0529 -0.6268,0.721 -0.0846,0.8844 2.8639,0.3853 6.1594,0.9234 9.1971,0.656 -0.8584,0.8104 -1.6062,1.6315 -2.4646,2.4419 -2.8956,-0.0536 -5.7017,0.1244 -8.5867,-0.0398 -0.5527,-0.0528 -0.6373,0.8316 -0.0845,0.8845 2.4322,0.2324 5.0855,0.4861 7.5599,0.2763 -0.7373,0.7105 -1.4851,1.5315 -2.333,2.2314 -1.3266,-0.1268 -2.6744,-0.0325 -4.0116,-0.0487 -1.5583,-0.0374 -2.985,-0.2853 -4.5327,-0.4333 3.9929,-6.7584 7.5647,-13.7802 10.7155,-21.0654 0,0 -1e-4,0 0.1105,0.0105 5.9911,0.3495 12.1032,0.5991 17.9683,-0.0675 -0.7479,0.821 -1.5063,1.7526 -2.2647,2.6842 z m -21.5189,22.041 c -2.3322,-0.1114 -4.6856,-0.0016 -7.1072,-0.3447 0.3845,-0.521 0.669,-1.1632 1.0535,-1.6843 0.2528,-0.3105 0.3951,-0.6316 0.5479,-1.0633 2.4111,0.4536 5.2538,1.06 7.8388,0.8608 -0.7479,0.8211 -1.4852,1.5315 -2.333,2.2315 z m -8.9053,7.9623 c -0.9844,-0.2056 -2.0899,-0.3113 -3.0743,-0.517 0.769,-1.0421 1.4274,-2.0948 2.0858,-3.1475 1.5267,0.369 2.9533,0.617 4.5116,0.6544 -1.2112,0.9998 -2.3118,2.0103 -3.5231,3.0101 z m -13.3542,8.9875 c 0.8397,-7.6177 1.0161,-15.2987 1.6241,-22.827 0.5397,-7.981 1.3005,-15.9409 2.2825,-23.8796 7.8599,0.6397 15.6198,1.1583 23.4902,1.6874 -3.6092,8.5802 -7.7606,16.9969 -12.6436,24.8975 -4.3669,7.1689 -8.9442,14.2062 -14.7532,20.1217 z m 6.9511,-5.0254 c 0.3211,0.1423 0.7633,0.1845 1.2055,0.2268 -1.4429,1.0893 -2.7752,2.1892 -4.2181,3.2784 1.0007,-1.1315 2.0119,-2.3736 3.0126,-3.5052 z M 41.0354,12.3734 c 2.3989,5.2497 5.6351,9.91 8.9923,14.4704 -6.7438,-0.6446 -13.4875,-1.2892 -20.3419,-1.9444 -0.5528,-0.0528 -0.995,-0.0951 -1.5478,-0.1479 4.6921,-3.5678 9.1264,-7.9413 12.8974,-12.3781 z m 26.2013,2.5044 c 2.7517,5.0603 6.2878,10.084 10.0085,14.3443 C 70.0486,28.6458 62.852,28.0695 55.666,27.3827 59.8264,23.5409 63.7762,19.5674 67.2367,14.8778 Z M 50.9902,29.6133 C 49.1686,45.1697 46.8519,61.2366 47.5836,76.9255 42.6794,69.8745 39.4391,61.7553 36.52,53.7783 33.4326,45.2275 30.9296,36.3978 28.99,27.5105 c 7.286,0.8079 14.6931,1.5159 22.0002,2.1028 z m 44.9849,4.4113 c -6.1016,-0.36 -12.156,-0.0462 -18.2682,-0.2958 0.2951,-0.7527 0.5902,-1.5054 0.8747,-2.1476 6.2121,0.3706 12.3137,0.7307 18.5259,1.1013 -0.3739,0.4106 -0.7584,0.9316 -1.1324,1.3421 z M 80.1196,29.4969 c 1.2648,-3.8954 2.8353,-8.6541 2.463,-12.9291 4.4628,4.666 9.0467,9.232 13.499,14.0085 -5.3172,-0.3966 -10.6449,-0.6827 -15.962,-1.0794 z m 0.1527,-15.6044 c -0.0106,0.1106 -0.0211,0.2211 -0.0317,0.3317 1.1251,4.5701 -0.6088,9.871 -1.4948,14.472 -3.4045,-5.2342 -6.93,-10.3685 -10.4662,-15.3921 0.0106,-0.1106 0.0106,-0.1106 0.0212,-0.2212 3.9799,0.3805 7.9704,0.6503 11.9715,0.8096 z m -14.4037,-1.042 c -3.6239,5.2318 -7.9688,9.8369 -12.4137,14.3208 -0.2211,-0.0211 -0.4422,-0.0422 -0.6633,-0.0634 -0.2211,-0.0211 -0.3317,-0.0317 -0.5528,-0.0528 -3.4044,-5.2342 -6.8089,-10.4684 -9.276,-16.1709 3.8694,0.3698 7.7493,0.6291 11.7398,0.899 3.6483,0.3487 7.4071,0.708 11.166,1.0673 z M 40.1884,10.7306 C 35.7646,14.9934 31.3303,19.3668 27.117,23.7614 27.0081,19.0653 26.4203,13.5425 28.2802,9.25767 32.239,9.85919 36.2084,10.3502 40.1884,10.7306 Z M 25.6059,24.3979 C 20.0887,23.759 14.6927,23.0201 9.15446,22.6023 14.5521,18.6556 20.0391,14.9407 25.5473,11.0046 c -1.0755,4.2482 -0.4454,9.3288 0.0586,13.3933 z M 8.91142,25.145 c 5.92768,1.0129 11.90818,1.4729 17.86748,2.1541 2.0079,9.3402 4.6003,18.4015 7.8666,27.4157 2.3826,6.5869 5.0969,13.2055 8.6485,19.2347 C 30.0006,58.9565 18.7451,42.4849 8.91142,25.145 Z M 58.4309,70.8222 c -0.1106,-0.0105 -0.2211,-0.0211 -0.3317,-0.0317 -0.4422,-0.0422 -0.995,-0.0951 -1.4266,-0.2479 0.7584,-0.9316 1.5274,-1.9737 2.1753,-2.9159 0,0 0,0 0.1105,0.0106 0.7528,0.2951 1.5055,0.5902 2.3794,0.7852 -0.8584,0.8105 -1.8274,1.6104 -2.9069,2.3997 z m 8.8418,-7.299 c -1.8005,0.1626 -3.4483,-0.1065 -5.2066,-0.3861 0.6585,-1.0527 1.3063,-1.9949 1.9648,-3.0476 2.0899,0.3114 4.2905,0.6332 6.5332,0.5129 -1.2112,0.9999 -2.3013,1.8998 -3.2914,2.9208 z"
       id="path2"
       inkscape:connector-curvature="0"
       style="fill:#261f19" />
    <path
       d="m 83.7264,27.9449 c 2.6428,0.3642 5.5066,0.7495 8.1022,0.4397 0.3422,-0.0788 0.395,-0.6316 -0.0472,-0.6739 -2.6533,-0.2536 -5.3383,-0.1755 -7.981,-0.5397 -0.4422,-0.0422 -0.5162,0.7316 -0.074,0.7739 z"
       id="path4"
       inkscape:connector-curvature="0"
       style="fill:#261f19" />
    <path
       d="m 84.9433,25.7187 c 1.5267,0.369 3.3955,0.6592 5.0067,0.1439 0.4528,-0.0683 0.395,-0.6317 -0.0366,-0.7845 -1.6478,-0.2691 -3.2166,-0.1959 -4.8644,-0.4649 -0.6633,-0.0634 -0.769,1.0421 -0.1057,1.1055 z"
       id="path6"
       inkscape:connector-curvature="0"
       style="fill:#261f19" />
    <path
       d="m 85.3863,23.4179 c 0.4527,-0.0682 1.0055,-0.0154 1.4583,-0.0837 0.4528,-0.0683 0.4056,-0.7422 -0.0366,-0.7844 -0.5528,-0.0529 -1.0055,0.0154 -1.5689,0.0731 -0.2211,-0.0211 -0.3633,0.3 -0.3845,0.5211 0.1,0.1211 0.3105,0.2528 0.5317,0.2739 z"
       id="path8"
       inkscape:connector-curvature="0"
       style="fill:#261f19" />
  </g>
  <g
     style="mix-blend-mode:overlay;filter:url(#filter1_i)"
     id="g20"
     transform="translate(-6,-4)">
    <path
       d="M 213.413,23.3645 C 207.415,17.9378 201.09,12.6418 194.154,8.2724 c -0.02,-0.33258 -0.262,-0.6519 -0.823,-0.72963 -8.837,-0.8068 -17.992,0.51925 -26.848,1.27111 -9.299,0.77838 -18.48,1.66102 -27.806,1.99592 -0.443,0.0265 -0.762,0.2681 -0.971,0.5031 -0.111,0.0066 -0.215,0.1241 -0.326,0.1307 -6.477,5.1712 -12.328,11.5288 -17.852,17.7556 -0.208,0.2349 -0.306,0.4633 -0.293,0.685 -0.534,0.3657 -0.494,1.0309 -0.129,1.5653 0.014,0.2217 0.138,0.4368 0.262,0.6519 13.589,18.88 30.567,34.8873 49.388,48.2256 0.137,0.4368 0.6,0.7429 1.037,0.6055 0.45,0.0844 0.985,-0.2813 0.958,-0.7248 17.098,-15.4853 32.152,-33.5187 43.291,-53.7656 0.3,-0.5742 0.273,-1.0176 -0.086,-1.4412 0.632,-0.594 0.351,-1.5785 -0.543,-1.6364 z m -5.542,7.7855 c -4.949,0.9634 -9.781,2.031 -14.749,2.6618 -0.555,0.0331 -0.502,0.92 0.046,0.776 4.65,-0.3892 9.397,-1.0067 13.986,-2.3937 -0.716,1.0442 -1.432,2.0883 -2.142,3.2433 -4.512,0.826 -9.004,1.9845 -13.654,2.3737 -0.554,0.0332 -0.501,0.9201 0.053,0.8869 3.998,-0.1277 8.647,-0.5169 12.689,-1.7598 -0.508,0.8091 -1.022,1.5074 -1.53,2.3166 -4.18,0.8061 -8.346,1.834 -12.663,2.2033 -0.554,0.0331 -0.501,0.92 0.053,0.8868 3.77,-0.2253 7.858,-0.6922 11.574,-1.8044 -0.807,1.3834 -1.628,2.545 -2.448,3.7066 -3.397,0.8706 -6.71,1.2911 -10.361,1.6206 -0.555,0.0332 -0.508,0.8092 0.053,0.8869 2.889,-0.0614 6.228,-0.0385 9.188,-0.7717 -0.723,0.9332 -1.335,1.8599 -2.058,2.7932 -2.87,0.394 -5.615,1.0031 -8.49,1.2862 -0.555,0.0332 -0.502,0.9201 0.053,0.8869 2.439,-0.1458 5.099,-0.3048 7.512,-0.894 -0.619,0.8157 -1.231,1.7424 -1.961,2.5648 -1.33,0.0795 -2.647,0.3808 -3.971,0.5711 -1.545,0.2037 -2.993,0.179 -4.545,0.2717 2.901,-7.2938 5.346,-14.7829 7.335,-22.4671 0,0 0,0 0.111,-0.0067 5.973,-0.5795 12.05,-1.2766 17.742,-2.8406 -0.612,0.9266 -1.218,1.9641 -1.823,3.0016 z m -17.858,25.0988 c -2.322,0.25 -4.63,0.7218 -7.076,0.7567 0.3,-0.5742 0.482,-1.2526 0.781,-1.8268 0.202,-0.3458 0.293,-0.685 0.377,-1.1351 2.453,0.076 5.355,0.2362 7.878,-0.3596 -0.612,0.9266 -1.231,1.7424 -1.96,2.5648 z m -7.57,9.2417 c -1.004,-0.0512 -2.113,0.0151 -3.117,-0.0361 0.599,-1.1484 1.087,-2.2901 1.575,-3.4319 1.565,0.129 3.013,0.1537 4.558,-0.05 -1.042,1.1749 -1.973,2.3432 -3.016,3.518 z m -11.806,10.9413 c -0.347,-7.6559 -1.358,-15.2721 -1.92,-22.804 -0.699,-7.9686 -1.176,-15.9506 -1.431,-23.9457 7.864,-0.5814 15.611,-1.267 23.469,-1.9592 -2.241,9.0344 -5.044,17.9912 -8.648,26.5509 -3.208,7.7571 -6.644,15.4167 -11.47,22.158 z m 6.092,-6.0382 c 0.339,0.091 0.782,0.0645 1.226,0.038 -1.258,1.299 -2.404,2.5913 -3.662,3.8903 0.814,-1.2725 1.622,-2.6558 2.436,-3.9283 z m -24.046,-56.082 c 3.18,4.8164 7.097,8.9213 11.118,12.9086 -6.762,0.4043 -13.525,0.8085 -20.398,1.2194 -0.555,0.0331 -0.998,0.0596 -1.552,0.0927 4.085,-4.2494 7.791,-9.2549 10.832,-14.2207 z m 26.273,-1.5705 c 3.5,4.5748 7.77,8.9923 12.103,12.6272 -7.199,0.5416 -14.398,1.0832 -21.604,1.514 3.517,-4.438 6.806,-8.9736 9.501,-14.1412 z M 165.18,29.808 c 0.601,15.6511 0.793,31.8831 3.938,47.2709 -5.934,-6.2094 -10.389,-13.731 -14.505,-21.1617 -4.37,-7.9717 -8.206,-16.3091 -11.495,-24.7905 7.324,-0.3265 14.751,-0.7705 22.062,-1.3187 z m 45.126,-2.5863 c -6.084,0.5862 -12.017,1.8309 -18.095,2.528 0.176,-0.7893 0.351,-1.5785 0.533,-2.257 6.195,-0.5928 12.279,-1.179 18.474,-1.7718 -0.306,0.4633 -0.606,1.0375 -0.912,1.5008 z M 193.942,25.196 c 0.648,-4.044 1.465,-8.9881 0.437,-13.1544 5.13,3.9211 10.364,7.7248 15.5,11.7567 -5.315,0.429 -10.623,0.9688 -15.937,1.3977 z M 191.684,9.75514 c 0.006,0.11086 0.013,0.22172 0.019,0.33256 1.818,4.3416 0.923,9.8467 0.758,14.5293 -4.172,-4.6459 -8.448,-9.1743 -12.717,-13.5919 -0.007,-0.1108 -0.007,-0.1108 -0.013,-0.2217 3.991,-0.2385 7.975,-0.588 11.953,-1.04826 z m -14.392,1.19406 c -2.773,5.7286 -6.355,10.9492 -10.054,16.0656 -0.222,0.0133 -0.444,0.0265 -0.665,0.0398 -0.222,0.0132 -0.333,0.0198 -0.555,0.0331 -4.171,-4.6459 -8.343,-9.2918 -11.661,-14.545 3.88,-0.232 7.754,-0.5748 11.738,-0.9242 3.658,-0.2187 7.427,-0.444 11.197,-0.6693 z m -25.7,1.87 c -3.713,4.8947 -7.419,9.9002 -10.903,14.8925 -0.832,-4.623 -2.266,-9.9888 -1.09,-14.5094 4.005,-0.0168 8.002,-0.1445 11.993,-0.3831 z m -12.298,15.7547 c -5.549,0.2205 -10.995,0.3235 -16.531,0.7657 4.724,-4.7326 9.571,-9.2501 14.406,-13.9894 -0.407,4.3633 1,9.2858 2.125,13.2237 z m -16.379,3.3155 c 6.013,0.0855 11.993,-0.3832 17.986,-0.6301 3.426,8.9182 7.386,17.4707 12.005,25.8726 3.371,6.1401 7.074,12.2603 11.514,17.6689 -15.449,-12.761 -29.112,-27.2976 -41.505,-42.9114 z m 55.978,37.4848 c -0.111,0.0066 -0.222,0.0133 -0.333,0.0199 -0.443,0.0265 -0.998,0.0596 -1.448,-0.0247 0.606,-1.0375 1.205,-2.1859 1.699,-3.2168 0,0 0,0 0.111,-0.0066 0.79,0.1753 1.579,0.3507 2.472,0.4085 -0.723,0.9333 -1.556,1.8732 -2.501,2.8197 z m 7.609,-8.5765 c -1.754,0.4386 -3.424,0.4271 -5.204,0.4223 0.488,-1.1417 0.983,-2.1726 1.471,-3.3143 2.113,-0.0151 4.337,-0.0368 6.534,-0.5019 -1.042,1.1749 -1.981,2.2323 -2.801,3.3939 z"
       id="path12"
       inkscape:connector-curvature="0"
       style="fill:#261f19" />
    <path
       d="m 197.266,23.106 c 2.667,-0.0482 5.556,-0.1096 8.073,-0.8163 0.325,-0.1307 0.292,-0.685 -0.151,-0.6585 -2.661,0.159 -5.301,0.6506 -7.969,0.6988 -0.443,0.0265 -0.397,0.8025 0.047,0.776 z"
       id="path14"
       inkscape:connector-curvature="0"
       style="fill:#261f19" />
    <path
       d="m 198.124,20.718 c 1.566,0.1289 3.457,0.1271 4.969,-0.6308 0.437,-0.1374 0.293,-0.6851 -0.157,-0.7694 -1.67,-0.0115 -3.208,0.303 -4.878,0.2916 -0.665,0.0397 -0.599,1.1483 0.066,1.1086 z"
       id="path16"
       inkscape:connector-curvature="0"
       style="fill:#261f19" />
    <path
       d="m 198.207,18.3767 c 0.437,-0.1374 0.991,-0.1705 1.428,-0.3079 0.437,-0.1373 0.286,-0.7959 -0.157,-0.7693 -0.555,0.0331 -0.992,0.1705 -1.539,0.3144 -0.222,0.0133 -0.313,0.3525 -0.3,0.5742 0.118,0.1043 0.346,0.2019 0.568,0.1886 z"
       id="path18"
       inkscape:connector-curvature="0"
       style="fill:#261f19" />
  </g>
  <g
     style="mix-blend-mode:overlay;filter:url(#filter2_i)"
     id="g30"
     transform="translate(-6,-2)">
    <path
       d="m 323.484,17.5901 c -6.653,-4.601 -13.612,-9.03002 -21.058,-12.46068 -0.063,-0.32717 -0.344,-0.61238 -0.91,-0.61654 -8.868,0.34878 -17.772,2.85358 -26.455,4.75015 -9.119,1.98047 -18.108,4.04907 -27.311,5.59337 -0.436,0.0839 -0.721,0.3649 -0.897,0.625 -0.109,0.021 -0.198,0.151 -0.307,0.172 -5.75,5.9693 -10.724,13.0334 -15.392,19.9254 -0.176,0.2601 -0.244,0.4992 -0.202,0.7173 -0.482,0.4321 -0.356,1.0865 0.076,1.5688 0.042,0.2181 0.193,0.4153 0.344,0.6124 15.928,16.9534 34.842,30.6181 55.237,41.3968 0.193,0.4152 0.693,0.6585 1.108,0.4655 0.457,0.0251 0.939,-0.4069 0.855,-0.8432 14.94,-17.5764 27.523,-37.4135 35.936,-58.9366 0.222,-0.6082 0.138,-1.0445 -0.273,-1.4178 0.549,-0.6711 0.142,-1.6107 -0.751,-1.5519 z M 319,26.0299 c -4.781,1.5985 -9.433,3.2851 -14.278,4.5564 -0.545,0.1049 -0.377,0.9773 0.147,0.7634 4.56,-0.9903 9.186,-2.2196 13.557,-4.1914 -0.575,1.1284 -1.149,2.2568 -1.703,3.4942 -4.366,1.4055 -8.67,3.1382 -13.229,4.1285 -0.546,0.1049 -0.378,0.9773 0.167,0.8724 3.948,-0.6462 8.507,-1.6365 12.353,-3.3943 -0.398,0.8683 -0.817,1.6276 -1.216,2.4959 -4.039,1.3425 -8.037,2.9032 -12.269,3.8305 -0.545,0.1049 -0.377,0.9774 0.168,0.8725 3.708,-0.7134 7.701,-1.7078 11.241,-3.2936 -0.62,1.4766 -1.283,2.735 -1.946,3.9934 -3.255,1.3048 -6.484,2.1523 -10.062,2.9537 -0.546,0.1049 -0.399,0.8683 0.167,0.8725 2.857,-0.4364 6.171,-0.8477 9.01,-1.9595 -0.595,1.0193 -1.082,2.0177 -1.677,3.037 -2.794,0.7636 -5.436,1.7244 -8.251,2.3789 -0.545,0.1049 -0.377,0.9774 0.168,0.8725 2.399,-0.4616 5.017,-0.9651 7.332,-1.8629 -0.507,0.8893 -0.994,1.8876 -1.611,2.7979 -1.308,0.2517 -2.575,0.7216 -3.863,1.0824 -1.506,0.4028 -2.944,0.5665 -4.471,0.8603 1.929,-7.6092 3.38,-15.3525 4.352,-23.23 0,0 0,0 0.109,-0.021 5.848,-1.3511 11.783,-2.8322 17.223,-5.1228 -0.487,0.9983 -0.952,2.1057 -1.418,3.2131 z m -14.444,27.2072 c -2.269,0.5497 -4.496,1.3174 -6.917,1.6699 0.223,-0.6082 0.315,-1.3045 0.537,-1.9127 0.155,-0.3692 0.201,-0.7173 0.227,-1.1745 2.441,-0.2435 5.339,-0.4618 7.764,-1.3806 -0.487,0.9983 -0.994,1.8876 -1.611,2.7979 z m -6.304,10.1472 c -1.002,0.0798 -2.093,0.2896 -3.095,0.3693 0.444,-1.2164 0.78,-2.4119 1.115,-3.6074 1.569,-0.0756 3.008,-0.2393 4.514,-0.6421 -0.881,1.3004 -1.653,2.5798 -2.534,3.8802 z m -10.284,12.3832 c -1.338,-7.546 -3.331,-14.9661 -4.867,-22.3611 -1.729,-7.8102 -3.24,-15.6624 -4.532,-23.5565 7.722,-1.5987 15.314,-3.2855 23.015,-4.9932 -1.048,9.2491 -2.662,18.4941 -5.123,27.4498 -2.173,8.1083 -4.584,16.1495 -8.493,23.461 z m 5.255,-6.7789 c 0.349,0.0461 0.785,-0.0378 1.221,-0.1217 -1.078,1.4514 -2.047,2.8818 -3.125,4.3332 0.642,-1.3674 1.263,-2.844 1.904,-4.2115 z M 262.092,16.508 c 3.779,4.3621 8.196,7.923 12.702,11.3539 -6.653,1.2798 -13.305,2.5596 -20.067,3.8604 -0.545,0.1049 -0.981,0.1889 -1.527,0.2938 3.498,-4.7444 6.522,-10.1892 8.892,-15.5081 z m 25.846,-4.9724 c 4.065,4.081 8.873,7.9062 13.642,10.9469 -7.068,1.4728 -14.136,2.9456 -21.224,4.3094 2.91,-4.8576 5.582,-9.7822 7.582,-15.2563 z m -11.441,18.7129 c 2.631,15.4401 4.931,31.5095 10.049,46.358 -6.691,-5.3854 -12.085,-12.2642 -17.132,-19.0968 -5.369,-7.336 -10.257,-15.104 -14.62,-23.086 7.219,-1.2757 14.526,-2.6814 21.703,-4.1752 z m 44.408,-8.4301 c -5.957,1.3721 -11.678,3.3775 -17.613,4.8586 0.071,-0.8054 0.142,-1.6107 0.234,-2.307 6.066,-1.3931 12.022,-2.7651 18.087,-4.1582 -0.243,0.4992 -0.465,1.1074 -0.708,1.6066 z m -16.489,0.1186 c 0.117,-4.0939 0.284,-9.1023 -1.277,-13.0996 5.596,3.2211 11.28,6.3121 16.897,9.6422 -5.214,1.1161 -10.407,2.3413 -15.62,3.4574 z M 300.17,6.92067 c 0.021,0.10906 0.042,0.21812 0.062,0.32718 2.367,4.06855 2.195,9.64325 2.64,14.30755 -4.74,-4.0642 -9.569,-7.9984 -14.376,-11.82352 -0.021,-0.10906 -0.021,-0.10906 -0.042,-0.21812 3.926,-0.7553 7.831,-1.61967 11.716,-2.59309 z m -14.115,3.05467 c -2.005,6.04036 -4.878,11.68226 -7.88,17.23616 -0.219,0.042 -0.437,0.0839 -0.655,0.1259 -0.218,0.0419 -0.327,0.0629 -0.545,0.1049 -4.74,-4.0642 -9.48,-8.1285 -13.453,-12.9058 3.817,-0.7344 7.613,-1.5778 11.518,-2.4421 3.599,-0.6924 7.307,-1.4057 11.015,-2.11906 z M 260.816,15.17 c -3.044,5.3358 -6.068,10.7806 -8.874,16.1834 -1.427,-4.4755 -3.545,-9.6096 -2.967,-14.2446 3.968,-0.5372 7.915,-1.1835 11.841,-1.9388 z m -10.145,17.2196 c -5.474,0.9399 -10.86,1.7499 -16.292,2.908 4.069,-5.3065 8.288,-10.4158 12.466,-15.7432 0.163,4.3791 2.198,9.0769 3.826,12.8352 z m -15.809,5.4163 c 5.973,-0.6967 11.841,-1.9387 17.751,-2.9626 4.556,8.3972 9.594,16.3624 15.266,24.0927 4.14,5.6498 8.608,11.2367 13.713,16.0224 -16.976,-10.6447 -32.413,-23.282 -46.73,-37.1525 z m 60.375,29.8906 c -0.109,0.021 -0.218,0.042 -0.327,0.063 -0.437,0.0839 -0.982,0.1888 -1.439,0.1637 0.465,-1.1074 0.91,-2.3239 1.266,-3.4103 0,0 0,0 0.109,-0.021 0.806,0.0713 1.611,0.1425 2.505,0.0837 -0.596,1.0193 -1.301,2.0597 -2.114,3.1209 z m 6.429,-9.4928 c -1.682,0.6629 -3.338,0.8685 -5.104,1.0952 0.335,-1.1955 0.692,-2.2819 1.027,-3.4774 2.093,-0.2896 4.295,-0.6002 6.414,-1.3469 -0.881,1.3003 -1.674,2.4707 -2.337,3.7291 z"
       id="path22"
       inkscape:connector-curvature="0"
       style="fill:#261f19" />
    <path
       d="m 307.44,19.4327 c 2.638,-0.3944 5.495,-0.8309 7.898,-1.8587 0.306,-0.172 0.201,-0.7173 -0.235,-0.6334 -2.617,0.5035 -5.172,1.3343 -7.81,1.7287 -0.436,0.084 -0.29,0.8474 0.147,0.7634 z"
       id="path24"
       inkscape:connector-curvature="0"
       style="fill:#261f19" />
    <path
       d="m 307.981,16.9534 c 1.568,-0.0756 3.443,-0.3232 4.844,-1.2713 0.416,-0.193 0.202,-0.7173 -0.256,-0.7424 -1.656,0.2057 -3.141,0.7175 -4.798,0.9232 -0.654,0.1258 -0.445,1.2164 0.21,1.0905 z"
       id="path26"
       inkscape:connector-curvature="0"
       style="fill:#261f19" />
    <path
       d="m 307.758,14.6215 c 0.415,-0.193 0.961,-0.2979 1.376,-0.4909 0.415,-0.193 0.18,-0.8263 -0.256,-0.7424 -0.545,0.1049 -0.961,0.2979 -1.485,0.5118 -0.218,0.042 -0.264,0.3902 -0.222,0.6083 0.13,0.0881 0.369,0.1552 0.587,0.1132 z"
       id="path28"
       inkscape:connector-curvature="0"
       style="fill:#261f19" />
  </g>
  <g
     style="mix-blend-mode:multiply;filter:url(#filter3_i)"
     id="g40"
     transform="translate(-4,-4)">
    <path
       d="M 99.6405,30.6934 C 94.5517,24.4056 89.1207,18.1968 82.9418,12.8089 82.9735,12.4773 82.7841,12.1245 82.2419,11.9611 73.635,9.79962 64.385,9.69644 55.5196,9.07218 46.2119,8.40566 37.0042,7.86026 27.7388,6.75152 27.2966,6.70925 26.9438,6.89865 26.7016,7.09863 26.591,7.08806 26.4699,7.18805 26.3593,7.17748 19.1612,11.2867 12.3995,16.6649 5.9801,21.9642 c -0.24225,0.2 -0.37393,0.4105 -0.39507,0.6316 -0.58447,0.2788 -0.64787,0.9422 -0.36904,1.5266 -0.02114,0.2211 0.06828,0.4528 0.1577,0.6845 10.51171,20.7516 24.81471,39.188 41.35071,55.2719 0.0683,0.4527 0.4788,0.8267 0.9316,0.7584 0.4317,0.1528 1.0161,-0.126 1.0584,-0.5682 19.2835,-12.6602 36.9411,-28.1533 51.0724,-46.4379 0.3842,-0.521 0.4272,-0.9632 0.1374,-1.4372 0.7158,-0.4893 0.5898,-1.5054 -0.2837,-1.7005 z m -6.6779,6.8365 c -5.0384,0.1878 -9.9767,0.4967 -14.9834,0.3528 -0.5527,-0.0528 -0.6373,0.8316 -0.0739,0.7739 4.6538,0.3333 9.4393,0.456 14.1883,-0.2057 -0.869,0.921 -1.738,1.842 -2.6175,2.8736 -4.5856,0.1195 -9.2028,0.5707 -13.8567,0.2374 -0.5527,-0.0528 -0.6373,0.8316 -0.0845,0.8845 3.9694,0.4909 8.6232,0.8242 12.8088,0.2202 -0.6267,0.721 -1.2429,1.3315 -1.8696,2.0526 -4.2539,0.1512 -8.529,0.5235 -12.8511,0.2219 -0.5528,-0.0528 -0.6373,0.8316 -0.0846,0.8845 3.7589,0.3593 7.8705,0.5291 11.7139,0.004 -1.0113,1.2421 -2.0014,2.2631 -2.9915,3.2841 -3.4905,0.3357 -6.8283,0.2398 -10.4871,0.0017 -0.5528,-0.0529 -0.6268,0.721 -0.0846,0.8844 2.8639,0.3853 6.1594,0.9234 9.1971,0.656 -0.8584,0.8104 -1.6062,1.6315 -2.4646,2.4419 -2.8956,-0.0536 -5.7017,0.1244 -8.5867,-0.0398 -0.5527,-0.0528 -0.6373,0.8316 -0.0845,0.8845 2.4322,0.2324 5.0855,0.4861 7.5599,0.2763 -0.7373,0.7105 -1.4851,1.5315 -2.333,2.2314 -1.3266,-0.1268 -2.6744,-0.0325 -4.0116,-0.0487 -1.5583,-0.0374 -2.985,-0.2853 -4.5327,-0.4333 3.9929,-6.7584 7.5647,-13.7802 10.7155,-21.0654 0,0 -1e-4,0 0.1105,0.0105 5.9911,0.3495 12.1032,0.5991 17.9683,-0.0675 -0.7479,0.821 -1.5063,1.7526 -2.2647,2.6842 z m -21.5189,22.041 c -2.3322,-0.1114 -4.6856,-0.0016 -7.1072,-0.3447 0.3845,-0.521 0.669,-1.1632 1.0535,-1.6843 0.2528,-0.3105 0.3951,-0.6316 0.5479,-1.0633 2.4111,0.4536 5.2538,1.06 7.8388,0.8608 -0.7479,0.8211 -1.4852,1.5315 -2.333,2.2315 z m -8.9053,7.9623 c -0.9844,-0.2056 -2.0899,-0.3113 -3.0743,-0.517 0.769,-1.0421 1.4274,-2.0948 2.0858,-3.1475 1.5267,0.369 2.9533,0.617 4.5116,0.6544 -1.2112,0.9998 -2.3118,2.0103 -3.5231,3.0101 z m -13.3542,8.9875 c 0.8397,-7.6177 1.0161,-15.2987 1.6241,-22.827 0.5397,-7.981 1.3005,-15.9409 2.2825,-23.8796 7.8599,0.6397 15.6198,1.1583 23.4902,1.6874 -3.6092,8.5802 -7.7606,16.9969 -12.6436,24.8975 -4.3669,7.1689 -8.9442,14.2062 -14.7532,20.1217 z m 6.9511,-5.0254 c 0.3211,0.1423 0.7633,0.1845 1.2055,0.2268 -1.4429,1.0893 -2.7752,2.1892 -4.2181,3.2784 1.0007,-1.1315 2.0119,-2.3736 3.0126,-3.5052 z M 41.0354,12.3734 c 2.3989,5.2497 5.6351,9.91 8.9923,14.4704 -6.7438,-0.6446 -13.4875,-1.2892 -20.3419,-1.9444 -0.5528,-0.0528 -0.995,-0.0951 -1.5478,-0.1479 4.6921,-3.5678 9.1264,-7.9413 12.8974,-12.3781 z m 26.2013,2.5044 c 2.7517,5.0603 6.2878,10.084 10.0085,14.3443 C 70.0486,28.6458 62.852,28.0695 55.666,27.3827 59.8264,23.5409 63.7762,19.5674 67.2367,14.8778 Z M 50.9902,29.6133 C 49.1686,45.1697 46.8519,61.2366 47.5836,76.9255 42.6794,69.8745 39.4391,61.7553 36.52,53.7783 33.4326,45.2275 30.9296,36.3978 28.99,27.5105 c 7.286,0.8079 14.6931,1.5159 22.0002,2.1028 z m 44.9849,4.4113 c -6.1016,-0.36 -12.156,-0.0462 -18.2682,-0.2958 0.2951,-0.7527 0.5902,-1.5054 0.8747,-2.1476 6.2121,0.3706 12.3137,0.7307 18.5259,1.1013 -0.3739,0.4106 -0.7584,0.9316 -1.1324,1.3421 z M 80.1196,29.4969 c 1.2648,-3.8954 2.8353,-8.6541 2.463,-12.9291 4.4628,4.666 9.0467,9.232 13.499,14.0085 -5.3172,-0.3966 -10.6449,-0.6827 -15.962,-1.0794 z m 0.1527,-15.6044 c -0.0106,0.1106 -0.0211,0.2211 -0.0317,0.3317 1.1251,4.5701 -0.6088,9.871 -1.4948,14.472 -3.4045,-5.2342 -6.93,-10.3685 -10.4662,-15.3921 0.0106,-0.1106 0.0106,-0.1106 0.0212,-0.2212 3.9799,0.3805 7.9704,0.6503 11.9715,0.8096 z m -14.4037,-1.042 c -3.6239,5.2318 -7.9688,9.8369 -12.4137,14.3208 -0.2211,-0.0211 -0.4422,-0.0422 -0.6633,-0.0634 -0.2211,-0.0211 -0.3317,-0.0317 -0.5528,-0.0528 -3.4044,-5.2342 -6.8089,-10.4684 -9.276,-16.1709 3.8694,0.3698 7.7493,0.6291 11.7398,0.899 3.6483,0.3487 7.4071,0.708 11.166,1.0673 z M 40.1884,10.7306 C 35.7646,14.9934 31.3303,19.3668 27.117,23.7614 27.0081,19.0653 26.4203,13.5425 28.2802,9.25767 32.239,9.85919 36.2084,10.3502 40.1884,10.7306 Z M 25.6059,24.3979 C 20.0887,23.759 14.6927,23.0201 9.15446,22.6023 14.5521,18.6556 20.0391,14.9407 25.5473,11.0046 c -1.0755,4.2482 -0.4454,9.3288 0.0586,13.3933 z M 8.91142,25.145 c 5.92768,1.0129 11.90818,1.4729 17.86748,2.1541 2.0079,9.3402 4.6003,18.4015 7.8666,27.4157 2.3826,6.5869 5.0969,13.2055 8.6485,19.2347 C 30.0006,58.9565 18.7451,42.4849 8.91142,25.145 Z M 58.4309,70.8222 c -0.1106,-0.0105 -0.2211,-0.0211 -0.3317,-0.0317 -0.4422,-0.0422 -0.995,-0.0951 -1.4266,-0.2479 0.7584,-0.9316 1.5274,-1.9737 2.1753,-2.9159 0,0 0,0 0.1105,0.0106 0.7528,0.2951 1.5055,0.5902 2.3794,0.7852 -0.8584,0.8105 -1.8274,1.6104 -2.9069,2.3997 z m 8.8418,-7.299 c -1.8005,0.1626 -3.4483,-0.1065 -5.2066,-0.3861 0.6585,-1.0527 1.3063,-1.9949 1.9648,-3.0476 2.0899,0.3114 4.2905,0.6332 6.5332,0.5129 -1.2112,0.9999 -2.3013,1.8998 -3.2914,2.9208 z"
       id="path32"
       inkscape:connector-curvature="0"
       style="fill:#914f00" />
    <path
       d="m 83.7264,27.9449 c 2.6428,0.3642 5.5066,0.7495 8.1022,0.4397 0.3422,-0.0788 0.395,-0.6316 -0.0472,-0.6739 -2.6533,-0.2536 -5.3383,-0.1755 -7.981,-0.5397 -0.4422,-0.0422 -0.5162,0.7316 -0.074,0.7739 z"
       id="path34"
       inkscape:connector-curvature="0"
       style="fill:#914f00" />
    <path
       d="m 84.9433,25.7187 c 1.5267,0.369 3.3955,0.6592 5.0067,0.1439 0.4528,-0.0683 0.395,-0.6317 -0.0366,-0.7845 -1.6478,-0.2691 -3.2166,-0.1959 -4.8644,-0.4649 -0.6633,-0.0634 -0.769,1.0421 -0.1057,1.1055 z"
       id="path36"
       inkscape:connector-curvature="0"
       style="fill:#914f00" />
    <path
       d="m 85.3863,23.4179 c 0.4527,-0.0682 1.0055,-0.0154 1.4583,-0.0837 0.4528,-0.0683 0.4056,-0.7422 -0.0366,-0.7844 -0.5528,-0.0529 -1.0055,0.0154 -1.5689,0.0731 -0.2211,-0.0211 -0.3633,0.3 -0.3845,0.5211 0.1,0.1211 0.3105,0.2528 0.5317,0.2739 z"
       id="path38"
       inkscape:connector-curvature="0"
       style="fill:#914f00" />
  </g>
  <g
     style="mix-blend-mode:multiply;filter:url(#filter4_i)"
     id="g50"
     transform="translate(-6,-4)">
    <path
       d="M 213.413,23.3645 C 207.415,17.9378 201.09,12.6418 194.154,8.2724 c -0.02,-0.33258 -0.262,-0.6519 -0.823,-0.72963 -8.837,-0.8068 -17.992,0.51925 -26.848,1.27111 -9.299,0.77838 -18.48,1.66102 -27.806,1.99592 -0.443,0.0265 -0.762,0.2681 -0.971,0.5031 -0.111,0.0066 -0.215,0.1241 -0.326,0.1307 -6.477,5.1712 -12.328,11.5288 -17.852,17.7556 -0.208,0.2349 -0.306,0.4633 -0.293,0.685 -0.534,0.3657 -0.494,1.0309 -0.129,1.5653 0.014,0.2217 0.138,0.4368 0.262,0.6519 13.589,18.88 30.567,34.8873 49.388,48.2256 0.137,0.4368 0.6,0.7429 1.037,0.6055 0.45,0.0844 0.985,-0.2813 0.958,-0.7248 17.098,-15.4853 32.152,-33.5187 43.291,-53.7656 0.3,-0.5742 0.273,-1.0176 -0.086,-1.4412 0.632,-0.594 0.351,-1.5785 -0.543,-1.6364 z m -5.542,7.7855 c -4.949,0.9634 -9.781,2.031 -14.749,2.6618 -0.555,0.0331 -0.502,0.92 0.046,0.776 4.65,-0.3892 9.397,-1.0067 13.986,-2.3937 -0.716,1.0442 -1.432,2.0883 -2.142,3.2433 -4.512,0.826 -9.004,1.9845 -13.654,2.3737 -0.554,0.0332 -0.501,0.9201 0.053,0.8869 3.998,-0.1277 8.647,-0.5169 12.689,-1.7598 -0.508,0.8091 -1.022,1.5074 -1.53,2.3166 -4.18,0.8061 -8.346,1.834 -12.663,2.2033 -0.554,0.0331 -0.501,0.92 0.053,0.8868 3.77,-0.2253 7.858,-0.6922 11.574,-1.8044 -0.807,1.3834 -1.628,2.545 -2.448,3.7066 -3.397,0.8706 -6.71,1.2911 -10.361,1.6206 -0.555,0.0332 -0.508,0.8092 0.053,0.8869 2.889,-0.0614 6.228,-0.0385 9.188,-0.7717 -0.723,0.9332 -1.335,1.8599 -2.058,2.7932 -2.87,0.394 -5.615,1.0031 -8.49,1.2862 -0.555,0.0332 -0.502,0.9201 0.053,0.8869 2.439,-0.1458 5.099,-0.3048 7.512,-0.894 -0.619,0.8157 -1.231,1.7424 -1.961,2.5648 -1.33,0.0795 -2.647,0.3808 -3.971,0.5711 -1.545,0.2037 -2.993,0.179 -4.545,0.2717 2.901,-7.2938 5.346,-14.7829 7.335,-22.4671 0,0 0,0 0.111,-0.0067 5.973,-0.5795 12.05,-1.2766 17.742,-2.8406 -0.612,0.9266 -1.218,1.9641 -1.823,3.0016 z m -17.858,25.0988 c -2.322,0.25 -4.63,0.7218 -7.076,0.7567 0.3,-0.5742 0.482,-1.2526 0.781,-1.8268 0.202,-0.3458 0.293,-0.685 0.377,-1.1351 2.453,0.076 5.355,0.2362 7.878,-0.3596 -0.612,0.9266 -1.231,1.7424 -1.96,2.5648 z m -7.57,9.2417 c -1.004,-0.0512 -2.113,0.0151 -3.117,-0.0361 0.599,-1.1484 1.087,-2.2901 1.575,-3.4319 1.565,0.129 3.013,0.1537 4.558,-0.05 -1.042,1.1749 -1.973,2.3432 -3.016,3.518 z m -11.806,10.9413 c -0.347,-7.6559 -1.358,-15.2721 -1.92,-22.804 -0.699,-7.9686 -1.176,-15.9506 -1.431,-23.9457 7.864,-0.5814 15.611,-1.267 23.469,-1.9592 -2.241,9.0344 -5.044,17.9912 -8.648,26.5509 -3.208,7.7571 -6.644,15.4167 -11.47,22.158 z m 6.092,-6.0382 c 0.339,0.091 0.782,0.0645 1.226,0.038 -1.258,1.299 -2.404,2.5913 -3.662,3.8903 0.814,-1.2725 1.622,-2.6558 2.436,-3.9283 z m -24.046,-56.082 c 3.18,4.8164 7.097,8.9213 11.118,12.9086 -6.762,0.4043 -13.525,0.8085 -20.398,1.2194 -0.555,0.0331 -0.998,0.0596 -1.552,0.0927 4.085,-4.2494 7.791,-9.2549 10.832,-14.2207 z m 26.273,-1.5705 c 3.5,4.5748 7.77,8.9923 12.103,12.6272 -7.199,0.5416 -14.398,1.0832 -21.604,1.514 3.517,-4.438 6.806,-8.9736 9.501,-14.1412 z M 165.18,29.808 c 0.601,15.6511 0.793,31.8831 3.938,47.2709 -5.934,-6.2094 -10.389,-13.731 -14.505,-21.1617 -4.37,-7.9717 -8.206,-16.3091 -11.495,-24.7905 7.324,-0.3265 14.751,-0.7705 22.062,-1.3187 z m 45.126,-2.5863 c -6.084,0.5862 -12.017,1.8309 -18.095,2.528 0.176,-0.7893 0.351,-1.5785 0.533,-2.257 6.195,-0.5928 12.279,-1.179 18.474,-1.7718 -0.306,0.4633 -0.606,1.0375 -0.912,1.5008 z M 193.942,25.196 c 0.648,-4.044 1.465,-8.9881 0.437,-13.1544 5.13,3.9211 10.364,7.7248 15.5,11.7567 -5.315,0.429 -10.623,0.9688 -15.937,1.3977 z M 191.684,9.75514 c 0.006,0.11086 0.013,0.22172 0.019,0.33256 1.818,4.3416 0.923,9.8467 0.758,14.5293 -4.172,-4.6459 -8.448,-9.1743 -12.717,-13.5919 -0.007,-0.1108 -0.007,-0.1108 -0.013,-0.2217 3.991,-0.2385 7.975,-0.588 11.953,-1.04826 z m -14.392,1.19406 c -2.773,5.7286 -6.355,10.9492 -10.054,16.0656 -0.222,0.0133 -0.444,0.0265 -0.665,0.0398 -0.222,0.0132 -0.333,0.0198 -0.555,0.0331 -4.171,-4.6459 -8.343,-9.2918 -11.661,-14.545 3.88,-0.232 7.754,-0.5748 11.738,-0.9242 3.658,-0.2187 7.427,-0.444 11.197,-0.6693 z m -25.7,1.87 c -3.713,4.8947 -7.419,9.9002 -10.903,14.8925 -0.832,-4.623 -2.266,-9.9888 -1.09,-14.5094 4.005,-0.0168 8.002,-0.1445 11.993,-0.3831 z m -12.298,15.7547 c -5.549,0.2205 -10.995,0.3235 -16.531,0.7657 4.724,-4.7326 9.571,-9.2501 14.406,-13.9894 -0.407,4.3633 1,9.2858 2.125,13.2237 z m -16.379,3.3155 c 6.013,0.0855 11.993,-0.3832 17.986,-0.6301 3.426,8.9182 7.386,17.4707 12.005,25.8726 3.371,6.1401 7.074,12.2603 11.514,17.6689 -15.449,-12.761 -29.112,-27.2976 -41.505,-42.9114 z m 55.978,37.4848 c -0.111,0.0066 -0.222,0.0133 -0.333,0.0199 -0.443,0.0265 -0.998,0.0596 -1.448,-0.0247 0.606,-1.0375 1.205,-2.1859 1.699,-3.2168 0,0 0,0 0.111,-0.0066 0.79,0.1753 1.579,0.3507 2.472,0.4085 -0.723,0.9333 -1.556,1.8732 -2.501,2.8197 z m 7.609,-8.5765 c -1.754,0.4386 -3.424,0.4271 -5.204,0.4223 0.488,-1.1417 0.983,-2.1726 1.471,-3.3143 2.113,-0.0151 4.337,-0.0368 6.534,-0.5019 -1.042,1.1749 -1.981,2.2323 -2.801,3.3939 z"
       id="path42"
       inkscape:connector-curvature="0"
       style="fill:#914f00" />
    <path
       d="m 197.266,23.106 c 2.667,-0.0482 5.556,-0.1096 8.073,-0.8163 0.325,-0.1307 0.292,-0.685 -0.151,-0.6585 -2.661,0.159 -5.301,0.6506 -7.969,0.6988 -0.443,0.0265 -0.397,0.8025 0.047,0.776 z"
       id="path44"
       inkscape:connector-curvature="0"
       style="fill:#914f00" />
    <path
       d="m 198.124,20.718 c 1.566,0.1289 3.457,0.1271 4.969,-0.6308 0.437,-0.1374 0.293,-0.6851 -0.157,-0.7694 -1.67,-0.0115 -3.208,0.303 -4.878,0.2916 -0.665,0.0397 -0.599,1.1483 0.066,1.1086 z"
       id="path46"
       inkscape:connector-curvature="0"
       style="fill:#914f00" />
    <path
       d="m 198.207,18.3767 c 0.437,-0.1374 0.991,-0.1705 1.428,-0.3079 0.437,-0.1373 0.286,-0.7959 -0.157,-0.7693 -0.555,0.0331 -0.992,0.1705 -1.539,0.3144 -0.222,0.0133 -0.313,0.3525 -0.3,0.5742 0.118,0.1043 0.346,0.2019 0.568,0.1886 z"
       id="path48"
       inkscape:connector-curvature="0"
       style="fill:#914f00" />
  </g>
  <g
     style="mix-blend-mode:multiply;filter:url(#filter5_i)"
     id="g60"
     transform="translate(-6,-2)">
    <path
       d="m 323.484,17.5901 c -6.653,-4.601 -13.612,-9.03002 -21.058,-12.46068 -0.063,-0.32717 -0.344,-0.61238 -0.91,-0.61654 -8.868,0.34878 -17.772,2.85358 -26.455,4.75015 -9.119,1.98047 -18.108,4.04907 -27.311,5.59337 -0.436,0.0839 -0.721,0.3649 -0.897,0.625 -0.109,0.021 -0.198,0.151 -0.307,0.172 -5.75,5.9693 -10.724,13.0334 -15.392,19.9254 -0.176,0.2601 -0.244,0.4992 -0.202,0.7173 -0.482,0.4321 -0.356,1.0865 0.076,1.5688 0.042,0.2181 0.193,0.4153 0.344,0.6124 15.928,16.9534 34.842,30.6181 55.237,41.3968 0.193,0.4152 0.693,0.6585 1.108,0.4655 0.457,0.0251 0.939,-0.4069 0.855,-0.8432 14.94,-17.5764 27.523,-37.4135 35.936,-58.9366 0.222,-0.6082 0.138,-1.0445 -0.273,-1.4178 0.549,-0.6711 0.142,-1.6107 -0.751,-1.5519 z M 319,26.0299 c -4.781,1.5985 -9.433,3.2851 -14.278,4.5564 -0.545,0.1049 -0.377,0.9773 0.147,0.7634 4.56,-0.9903 9.186,-2.2196 13.557,-4.1914 -0.575,1.1284 -1.149,2.2568 -1.703,3.4942 -4.366,1.4055 -8.67,3.1382 -13.229,4.1285 -0.546,0.1049 -0.378,0.9773 0.167,0.8724 3.948,-0.6462 8.507,-1.6365 12.353,-3.3943 -0.398,0.8683 -0.817,1.6276 -1.216,2.4959 -4.039,1.3425 -8.037,2.9032 -12.269,3.8305 -0.545,0.1049 -0.377,0.9774 0.168,0.8725 3.708,-0.7134 7.701,-1.7078 11.241,-3.2936 -0.62,1.4766 -1.283,2.735 -1.946,3.9934 -3.255,1.3048 -6.484,2.1523 -10.062,2.9537 -0.546,0.1049 -0.399,0.8683 0.167,0.8725 2.857,-0.4364 6.171,-0.8477 9.01,-1.9595 -0.595,1.0193 -1.082,2.0177 -1.677,3.037 -2.794,0.7636 -5.436,1.7244 -8.251,2.3789 -0.545,0.1049 -0.377,0.9774 0.168,0.8725 2.399,-0.4616 5.017,-0.9651 7.332,-1.8629 -0.507,0.8893 -0.994,1.8876 -1.611,2.7979 -1.308,0.2517 -2.575,0.7216 -3.863,1.0824 -1.506,0.4028 -2.944,0.5665 -4.471,0.8603 1.929,-7.6092 3.38,-15.3525 4.352,-23.23 0,0 0,0 0.109,-0.021 5.848,-1.3511 11.783,-2.8322 17.223,-5.1228 -0.487,0.9983 -0.952,2.1057 -1.418,3.2131 z m -14.444,27.2072 c -2.269,0.5497 -4.496,1.3174 -6.917,1.6699 0.223,-0.6082 0.315,-1.3045 0.537,-1.9127 0.155,-0.3692 0.201,-0.7173 0.227,-1.1745 2.441,-0.2435 5.339,-0.4618 7.764,-1.3806 -0.487,0.9983 -0.994,1.8876 -1.611,2.7979 z m -6.304,10.1472 c -1.002,0.0798 -2.093,0.2896 -3.095,0.3693 0.444,-1.2164 0.78,-2.4119 1.115,-3.6074 1.569,-0.0756 3.008,-0.2393 4.514,-0.6421 -0.881,1.3004 -1.653,2.5798 -2.534,3.8802 z m -10.284,12.3832 c -1.338,-7.546 -3.331,-14.9661 -4.867,-22.3611 -1.729,-7.8102 -3.24,-15.6624 -4.532,-23.5565 7.722,-1.5987 15.314,-3.2855 23.015,-4.9932 -1.048,9.2491 -2.662,18.4941 -5.123,27.4498 -2.173,8.1083 -4.584,16.1495 -8.493,23.461 z m 5.255,-6.7789 c 0.349,0.0461 0.785,-0.0378 1.221,-0.1217 -1.078,1.4514 -2.047,2.8818 -3.125,4.3332 0.642,-1.3674 1.263,-2.844 1.904,-4.2115 z M 262.092,16.508 c 3.779,4.3621 8.196,7.923 12.702,11.3539 -6.653,1.2798 -13.305,2.5596 -20.067,3.8604 -0.545,0.1049 -0.981,0.1889 -1.527,0.2938 3.498,-4.7444 6.522,-10.1892 8.892,-15.5081 z m 25.846,-4.9724 c 4.065,4.081 8.873,7.9062 13.642,10.9469 -7.068,1.4728 -14.136,2.9456 -21.224,4.3094 2.91,-4.8576 5.582,-9.7822 7.582,-15.2563 z m -11.441,18.7129 c 2.631,15.4401 4.931,31.5095 10.049,46.358 -6.691,-5.3854 -12.085,-12.2642 -17.132,-19.0968 -5.369,-7.336 -10.257,-15.104 -14.62,-23.086 7.219,-1.2757 14.526,-2.6814 21.703,-4.1752 z m 44.408,-8.4301 c -5.957,1.3721 -11.678,3.3775 -17.613,4.8586 0.071,-0.8054 0.142,-1.6107 0.234,-2.307 6.066,-1.3931 12.022,-2.7651 18.087,-4.1582 -0.243,0.4992 -0.465,1.1074 -0.708,1.6066 z m -16.489,0.1186 c 0.117,-4.0939 0.284,-9.1023 -1.277,-13.0996 5.596,3.2211 11.28,6.3121 16.897,9.6422 -5.214,1.1161 -10.407,2.3413 -15.62,3.4574 z M 300.17,6.92067 c 0.021,0.10906 0.042,0.21812 0.062,0.32718 2.367,4.06855 2.195,9.64325 2.64,14.30755 -4.74,-4.0642 -9.569,-7.9984 -14.376,-11.82352 -0.021,-0.10906 -0.021,-0.10906 -0.042,-0.21812 3.926,-0.7553 7.831,-1.61967 11.716,-2.59309 z m -14.115,3.05467 c -2.005,6.04036 -4.878,11.68226 -7.88,17.23616 -0.219,0.042 -0.437,0.0839 -0.655,0.1259 -0.218,0.0419 -0.327,0.0629 -0.545,0.1049 -4.74,-4.0642 -9.48,-8.1285 -13.453,-12.9058 3.817,-0.7344 7.613,-1.5778 11.518,-2.4421 3.599,-0.6924 7.307,-1.4057 11.015,-2.11906 z M 260.816,15.17 c -3.044,5.3358 -6.068,10.7806 -8.874,16.1834 -1.427,-4.4755 -3.545,-9.6096 -2.967,-14.2446 3.968,-0.5372 7.915,-1.1835 11.841,-1.9388 z m -10.145,17.2196 c -5.474,0.9399 -10.86,1.7499 -16.292,2.908 4.069,-5.3065 8.288,-10.4158 12.466,-15.7432 0.163,4.3791 2.198,9.0769 3.826,12.8352 z m -15.809,5.4163 c 5.973,-0.6967 11.841,-1.9387 17.751,-2.9626 4.556,8.3972 9.594,16.3624 15.266,24.0927 4.14,5.6498 8.608,11.2367 13.713,16.0224 -16.976,-10.6447 -32.413,-23.282 -46.73,-37.1525 z m 60.375,29.8906 c -0.109,0.021 -0.218,0.042 -0.327,0.063 -0.437,0.0839 -0.982,0.1888 -1.439,0.1637 0.465,-1.1074 0.91,-2.3239 1.266,-3.4103 0,0 0,0 0.109,-0.021 0.806,0.0713 1.611,0.1425 2.505,0.0837 -0.596,1.0193 -1.301,2.0597 -2.114,3.1209 z m 6.429,-9.4928 c -1.682,0.6629 -3.338,0.8685 -5.104,1.0952 0.335,-1.1955 0.692,-2.2819 1.027,-3.4774 2.093,-0.2896 4.295,-0.6002 6.414,-1.3469 -0.881,1.3003 -1.674,2.4707 -2.337,3.7291 z"
       id="path52"
       inkscape:connector-curvature="0"
       style="fill:#914f00" />
    <path
       d="m 307.44,19.4327 c 2.638,-0.3944 5.495,-0.8309 7.898,-1.8587 0.306,-0.172 0.201,-0.7173 -0.235,-0.6334 -2.617,0.5035 -5.172,1.3343 -7.81,1.7287 -0.436,0.084 -0.29,0.8474 0.147,0.7634 z"
       id="path54"
       inkscape:connector-curvature="0"
       style="fill:#914f00" />
    <path
       d="m 307.981,16.9534 c 1.568,-0.0756 3.443,-0.3232 4.844,-1.2713 0.416,-0.193 0.202,-0.7173 -0.256,-0.7424 -1.656,0.2057 -3.141,0.7175 -4.798,0.9232 -0.654,0.1258 -0.445,1.2164 0.21,1.0905 z"
       id="path56"
       inkscape:connector-curvature="0"
       style="fill:#914f00" />
    <path
       d="m 307.758,14.6215 c 0.415,-0.193 0.961,-0.2979 1.376,-0.4909 0.415,-0.193 0.18,-0.8263 -0.256,-0.7424 -0.545,0.1049 -0.961,0.2979 -1.485,0.5118 -0.218,0.042 -0.264,0.3902 -0.222,0.6083 0.13,0.0881 0.369,0.1552 0.587,0.1132 z"
       id="path58"
       inkscape:connector-curvature="0"
       style="fill:#914f00" />
  </g>
  <defs
     id="defs164">
    <filter
       id="filter0_i"
       x="5.05615"
       y="6.7456102"
       width="95.332397"
       height="78.133797"
       filterUnits="userSpaceOnUse"
       style="color-interpolation-filters:sRGB">
      <feFlood
         flood-opacity="0"
         result="BackgroundImageFix"
         id="feFlood62" />
      <feBlend
         mode="normal"
         in="SourceGraphic"
         in2="BackgroundImageFix"
         result="shape"
         id="feBlend64" />
      <feColorMatrix
         in="SourceAlpha"
         type="matrix"
         values="0 0 0 0 0 0 0 0 0 0 0 0 0 0 0 0 0 0 127 0"
         result="hardAlpha"
         id="feColorMatrix66" />
      <feOffset
         dy="4"
         id="feOffset68" />
      <feGaussianBlur
         stdDeviation="2"
         id="feGaussianBlur70" />
      <feComposite
         in2="hardAlpha"
         operator="arithmetic"
         k2="-1"
         k3="1"
         id="feComposite72"
         k1="0"
         k4="0" />
      <feColorMatrix
         type="matrix"
         values="0 0 0 0 0 0 0 0 0 0 0 0 0 0 0 0 0 0 1 0"
         id="feColorMatrix74" />
      <feBlend
         mode="normal"
         in2="shape"
         result="effect1_innerShadow"
         id="feBlend76" />
    </filter>
    <filter
       id="filter1_i"
       x="118.833"
       y="7.2912598"
       width="95.465302"
       height="77.6745"
       filterUnits="userSpaceOnUse"
       style="color-interpolation-filters:sRGB">
      <feFlood
         flood-opacity="0"
         result="BackgroundImageFix"
         id="feFlood79" />
      <feBlend
         mode="normal"
         in="SourceGraphic"
         in2="BackgroundImageFix"
         result="shape"
         id="feBlend81" />
      <feColorMatrix
         in="SourceAlpha"
         type="matrix"
         values="0 0 0 0 0 0 0 0 0 0 0 0 0 0 0 0 0 0 127 0"
         result="hardAlpha"
         id="feColorMatrix83" />
      <feOffset
         dy="4"
         id="feOffset85" />
      <feGaussianBlur
         stdDeviation="2"
         id="feGaussianBlur87" />
      <feComposite
         in2="hardAlpha"
         operator="arithmetic"
         k2="-1"
         k3="1"
         id="feComposite89"
         k1="0"
         k4="0" />
      <feColorMatrix
         type="matrix"
         values="0 0 0 0 0 0 0 0 0 0 0 0 0 0 0 0 0 0 1 0"
         id="feColorMatrix91" />
      <feBlend
         mode="normal"
         in2="shape"
         result="effect1_innerShadow"
         id="feBlend93" />
    </filter>
    <filter
       id="filter2_i"
       x="230.64301"
       y="4.5129399"
       width="93.984398"
       height="79.893898"
       filterUnits="userSpaceOnUse"
       style="color-interpolation-filters:sRGB">
      <feFlood
         flood-opacity="0"
         result="BackgroundImageFix"
         id="feFlood96" />
      <feBlend
         mode="normal"
         in="SourceGraphic"
         in2="BackgroundImageFix"
         result="shape"
         id="feBlend98" />
      <feColorMatrix
         in="SourceAlpha"
         type="matrix"
         values="0 0 0 0 0 0 0 0 0 0 0 0 0 0 0 0 0 0 127 0"
         result="hardAlpha"
         id="feColorMatrix100" />
      <feOffset
         dy="4"
         id="feOffset102" />
      <feGaussianBlur
         stdDeviation="2"
         id="feGaussianBlur104" />
      <feComposite
         in2="hardAlpha"
         operator="arithmetic"
         k2="-1"
         k3="1"
         id="feComposite106"
         k1="0"
         k4="0" />
      <feColorMatrix
         type="matrix"
         values="0 0 0 0 0 0 0 0 0 0 0 0 0 0 0 0 0 0 1 0"
         id="feColorMatrix108" />
      <feBlend
         mode="normal"
         in2="shape"
         result="effect1_innerShadow"
         id="feBlend110" />
    </filter>
    <filter
       id="filter3_i"
       x="5.05615"
       y="6.7456102"
       width="95.332397"
       height="78.133797"
       filterUnits="userSpaceOnUse"
       style="color-interpolation-filters:sRGB">
      <feFlood
         flood-opacity="0"
         result="BackgroundImageFix"
         id="feFlood113" />
      <feBlend
         mode="normal"
         in="SourceGraphic"
         in2="BackgroundImageFix"
         result="shape"
         id="feBlend115" />
      <feColorMatrix
         in="SourceAlpha"
         type="matrix"
         values="0 0 0 0 0 0 0 0 0 0 0 0 0 0 0 0 0 0 127 0"
         result="hardAlpha"
         id="feColorMatrix117" />
      <feOffset
         dy="4"
         id="feOffset119" />
      <feGaussianBlur
         stdDeviation="2"
         id="feGaussianBlur121" />
      <feComposite
         in2="hardAlpha"
         operator="arithmetic"
         k2="-1"
         k3="1"
         id="feComposite123"
         k1="0"
         k4="0" />
      <feColorMatrix
         type="matrix"
         values="0 0 0 0 0 0 0 0 0 0 0 0 0 0 0 0 0 0 1 0"
         id="feColorMatrix125" />
      <feBlend
         mode="normal"
         in2="shape"
         result="effect1_innerShadow"
         id="feBlend127" />
    </filter>
    <filter
       id="filter4_i"
       x="118.833"
       y="7.2912598"
       width="95.465302"
       height="77.6745"
       filterUnits="userSpaceOnUse"
       style="color-interpolation-filters:sRGB">
      <feFlood
         flood-opacity="0"
         result="BackgroundImageFix"
         id="feFlood130" />
      <feBlend
         mode="normal"
         in="SourceGraphic"
         in2="BackgroundImageFix"
         result="shape"
         id="feBlend132" />
      <feColorMatrix
         in="SourceAlpha"
         type="matrix"
         values="0 0 0 0 0 0 0 0 0 0 0 0 0 0 0 0 0 0 127 0"
         result="hardAlpha"
         id="feColorMatrix134" />
      <feOffset
         dy="4"
         id="feOffset136" />
      <feGaussianBlur
         stdDeviation="2"
         id="feGaussianBlur138" />
      <feComposite
         in2="hardAlpha"
         operator="arithmetic"
         k2="-1"
         k3="1"
         id="feComposite140"
         k1="0"
         k4="0" />
      <feColorMatrix
         type="matrix"
         values="0 0 0 0 0 0 0 0 0 0 0 0 0 0 0 0 0 0 1 0"
         id="feColorMatrix142" />
      <feBlend
         mode="normal"
         in2="shape"
         result="effect1_innerShadow"
         id="feBlend144" />
    </filter>
    <filter
       id="filter5_i"
       x="230.64301"
       y="4.5129399"
       width="93.984398"
       height="79.893898"
       filterUnits="userSpaceOnUse"
       style="color-interpolation-filters:sRGB">
      <feFlood
         flood-opacity="0"
         result="BackgroundImageFix"
         id="feFlood147" />
      <feBlend
         mode="normal"
         in="SourceGraphic"
         in2="BackgroundImageFix"
         result="shape"
         id="feBlend149" />
      <feColorMatrix
         in="SourceAlpha"
         type="matrix"
         values="0 0 0 0 0 0 0 0 0 0 0 0 0 0 0 0 0 0 127 0"
         result="hardAlpha"
         id="feColorMatrix151" />
      <feOffset
         dy="4"
         id="feOffset153" />
      <feGaussianBlur
         stdDeviation="2"
         id="feGaussianBlur155" />
      <feComposite
         in2="hardAlpha"
         operator="arithmetic"
         k2="-1"
         k3="1"
         id="feComposite157"
         k1="0"
         k4="0" />
      <feColorMatrix
         type="matrix"
         values="0 0 0 0 0 0 0 0 0 0 0 0 0 0 0 0 0 0 1 0"
         id="feColorMatrix159" />
      <feBlend
         mode="normal"
         in2="shape"
         result="effect1_innerShadow"
         id="feBlend161" />
    </filter>
  </defs>
</svg>
