<svg width="335" height="90" viewBox="0 0 335 90" fill="none" xmlns="http://www.w3.org/2000/svg">
<g style="mix-blend-mode:overlay" filter="url(#filter0_i)">
<path d="M99.6405 30.6934C94.5517 24.4056 89.1207 18.1968 82.9418 12.8089C82.9735 12.4773 82.7841 12.1245 82.2419 11.9611C73.635 9.79962 64.385 9.69644 55.5196 9.07218C46.2119 8.40566 37.0042 7.86026 27.7388 6.75152C27.2966 6.70925 26.9438 6.89865 26.7016 7.09863C26.591 7.08806 26.4699 7.18805 26.3593 7.17748C19.1612 11.2867 12.3995 16.6649 5.9801 21.9642C5.73785 22.1642 5.60617 22.3747 5.58503 22.5958C5.00056 22.8746 4.93716 23.538 5.21599 24.1224C5.19485 24.3435 5.28427 24.5752 5.37369 24.8069C15.8854 45.5585 30.1884 63.9949 46.7244 80.0788C46.7927 80.5315 47.2032 80.9055 47.656 80.8372C48.0877 80.99 48.6721 80.7112 48.7144 80.269C67.9979 67.6088 85.6555 52.1157 99.7868 33.8311C100.171 33.3101 100.214 32.8679 99.9242 32.3939C100.64 31.9046 100.514 30.8885 99.6405 30.6934ZM92.9626 37.5299C87.9242 37.7177 82.9859 38.0266 77.9792 37.8827C77.4265 37.8299 77.3419 38.7143 77.9053 38.6566C82.5591 38.9899 87.3446 39.1126 92.0936 38.4509C91.2246 39.3719 90.3556 40.2929 89.4761 41.3245C84.8905 41.444 80.2733 41.8952 75.6194 41.5619C75.0667 41.5091 74.9821 42.3935 75.5349 42.4464C79.5043 42.9373 84.1581 43.2706 88.3437 42.6666C87.717 43.3876 87.1008 43.9981 86.4741 44.7192C82.2202 44.8704 77.9451 45.2427 73.623 44.9411C73.0702 44.8883 72.9857 45.7727 73.5384 45.8256C77.2973 46.1849 81.4089 46.3547 85.2523 45.8296C84.241 47.0717 83.2509 48.0927 82.2608 49.1137C78.7703 49.4494 75.4325 49.3535 71.7737 49.1154C71.2209 49.0625 71.1469 49.8364 71.6891 49.9998C74.553 50.3851 77.8485 50.9232 80.8862 50.6558C80.0278 51.4662 79.28 52.2873 78.4216 53.0977C75.526 53.0441 72.7199 53.2221 69.8349 53.0579C69.2822 53.0051 69.1976 53.8895 69.7504 53.9424C72.1826 54.1748 74.8359 54.4285 77.3103 54.2187C76.573 54.9292 75.8252 55.7502 74.9773 56.4501C73.6507 56.3233 72.3029 56.4176 70.9657 56.4014C69.4074 56.364 67.9807 56.1161 66.433 55.9681C70.4259 49.2097 73.9977 42.1879 77.1485 34.9027C77.1485 34.9027 77.1484 34.9027 77.259 34.9132C83.2501 35.2627 89.3622 35.5123 95.2273 34.8457C94.4794 35.6667 93.721 36.5983 92.9626 37.5299ZM71.4437 59.5709C69.1115 59.4595 66.7581 59.5693 64.3365 59.2262C64.721 58.7052 65.0055 58.063 65.39 57.5419C65.6428 57.2314 65.7851 56.9103 65.9379 56.4786C68.349 56.9322 71.1917 57.5386 73.7767 57.3394C73.0288 58.1605 72.2915 58.8709 71.4437 59.5709ZM62.5384 67.5332C61.554 67.3276 60.4485 67.2219 59.4641 67.0162C60.2331 65.9741 60.8915 64.9214 61.5499 63.8687C63.0766 64.2377 64.5032 64.4857 66.0615 64.5231C64.8503 65.5229 63.7497 66.5334 62.5384 67.5332ZM49.1842 76.5207C50.0239 68.903 50.2003 61.222 50.8083 53.6937C51.348 45.7127 52.1088 37.7528 53.0908 29.8141C60.9507 30.4538 68.7106 30.9724 76.581 31.5015C72.9718 40.0817 68.8204 48.4984 63.9374 56.399C59.5705 63.5679 54.9932 70.6052 49.1842 76.5207ZM56.1353 71.4953C56.4564 71.6376 56.8986 71.6798 57.3408 71.7221C55.8979 72.8114 54.5656 73.9113 53.1227 75.0005C54.1234 73.869 55.1346 72.6269 56.1353 71.4953ZM41.0354 12.3734C43.4343 17.6231 46.6705 22.2834 50.0277 26.8438C43.2839 26.1992 36.5402 25.5546 29.6858 24.8994C29.133 24.8466 28.6908 24.8043 28.138 24.7515C32.8301 21.1837 37.2644 16.8102 41.0354 12.3734ZM67.2367 14.8778C69.9884 19.9381 73.5245 24.9618 77.2452 29.2221C70.0486 28.6458 62.852 28.0695 55.666 27.3827C59.8264 23.5409 63.7762 19.5674 67.2367 14.8778ZM50.9902 29.6133C49.1686 45.1697 46.8519 61.2366 47.5836 76.9255C42.6794 69.8745 39.4391 61.7553 36.52 53.7783C33.4326 45.2275 30.9296 36.3978 28.99 27.5105C36.276 28.3184 43.6831 29.0264 50.9902 29.6133ZM95.9751 34.0246C89.8735 33.6646 83.8191 33.9784 77.7069 33.7288C78.002 32.9761 78.2971 32.2234 78.5816 31.5812C84.7937 31.9518 90.8953 32.3119 97.1075 32.6825C96.7336 33.0931 96.3491 33.6141 95.9751 34.0246ZM80.1196 29.4969C81.3844 25.6015 82.9549 20.8428 82.5826 16.5678C87.0454 21.2338 91.6293 25.7998 96.0816 30.5763C90.7644 30.1797 85.4367 29.8936 80.1196 29.4969ZM80.2723 13.8925C80.2617 14.0031 80.2512 14.1136 80.2406 14.2242C81.3657 18.7943 79.6318 24.0952 78.7458 28.6962C75.3413 23.462 71.8158 18.3277 68.2796 13.3041C68.2902 13.1935 68.2902 13.1935 68.3008 13.0829C72.2807 13.4634 76.2712 13.7332 80.2723 13.8925ZM65.8686 12.8505C62.2447 18.0823 57.8998 22.6874 53.4549 27.1713C53.2338 27.1502 53.0127 27.1291 52.7916 27.1079C52.5705 27.0868 52.4599 27.0762 52.2388 27.0551C48.8344 21.8209 45.4299 16.5867 42.9628 10.8842C46.8322 11.254 50.7121 11.5133 54.7026 11.7832C58.3509 12.1319 62.1097 12.4912 65.8686 12.8505ZM40.1884 10.7306C35.7646 14.9934 31.3303 19.3668 27.117 23.7614C27.0081 19.0653 26.4203 13.5425 28.2802 9.25767C32.239 9.85919 36.2084 10.3502 40.1884 10.7306ZM25.6059 24.3979C20.0887 23.759 14.6927 23.0201 9.15446 22.6023C14.5521 18.6556 20.0391 14.9407 25.5473 11.0046C24.4718 15.2528 25.1019 20.3334 25.6059 24.3979ZM8.91142 25.145C14.8391 26.1579 20.8196 26.6179 26.7789 27.2991C28.7868 36.6393 31.3792 45.7006 34.6455 54.7148C37.0281 61.3017 39.7424 67.9203 43.294 73.9495C30.0006 58.9565 18.7451 42.4849 8.91142 25.145ZM58.4309 70.8222C58.3203 70.8117 58.2098 70.8011 58.0992 70.7905C57.657 70.7483 57.1042 70.6954 56.6726 70.5426C57.431 69.611 58.2 68.5689 58.8479 67.6267C58.8479 67.6267 58.8479 67.6267 58.9584 67.6373C59.7112 67.9324 60.4639 68.2275 61.3378 68.4225C60.4794 69.233 59.5104 70.0329 58.4309 70.8222ZM67.2727 63.5232C65.4722 63.6858 63.8244 63.4167 62.0661 63.1371C62.7246 62.0844 63.3724 61.1422 64.0309 60.0895C66.1208 60.4009 68.3214 60.7227 70.5641 60.6024C69.3529 61.6023 68.2628 62.5022 67.2727 63.5232Z" fill="#261F19"/>
<path d="M83.7264 27.9449C86.3692 28.3091 89.233 28.6944 91.8286 28.3846C92.1708 28.3058 92.2236 27.753 91.7814 27.7107C89.1281 27.4571 86.4431 27.5352 83.8004 27.171C83.3582 27.1288 83.2842 27.9026 83.7264 27.9449Z" fill="#261F19"/>
<path d="M84.9433 25.7187C86.47 26.0877 88.3388 26.3779 89.95 25.8626C90.4028 25.7943 90.345 25.2309 89.9134 25.0781C88.2656 24.809 86.6968 24.8822 85.049 24.6132C84.3857 24.5498 84.28 25.6553 84.9433 25.7187Z" fill="#261F19"/>
<path d="M85.3863 23.4179C85.839 23.3497 86.3918 23.4025 86.8446 23.3342C87.2974 23.2659 87.2502 22.592 86.808 22.5498C86.2552 22.4969 85.8025 22.5652 85.2391 22.6229C85.018 22.6018 84.8758 22.9229 84.8546 23.144C84.9546 23.2651 85.1651 23.3968 85.3863 23.4179Z" fill="#261F19"/>
</g>
<g style="mix-blend-mode:overlay" filter="url(#filter1_i)">
<path d="M213.413 23.3645C207.415 17.9378 201.09 12.6418 194.154 8.2724C194.134 7.93982 193.892 7.6205 193.331 7.54277C184.494 6.73597 175.339 8.06202 166.483 8.81388C157.184 9.59226 148.003 10.4749 138.677 10.8098C138.234 10.8363 137.915 11.0779 137.706 11.3129C137.595 11.3195 137.491 11.437 137.38 11.4436C130.903 16.6148 125.052 22.9724 119.528 29.1992C119.32 29.4341 119.222 29.6625 119.235 29.8842C118.701 30.2499 118.741 30.9151 119.106 31.4495C119.12 31.6712 119.244 31.8863 119.368 32.1014C132.957 50.9814 149.935 66.9887 168.756 80.327C168.893 80.7638 169.356 81.0699 169.793 80.9325C170.243 81.0169 170.778 80.6512 170.751 80.2077C187.849 64.7224 202.903 46.689 214.042 26.4421C214.342 25.8679 214.315 25.4245 213.956 25.0009C214.588 24.4069 214.307 23.4224 213.413 23.3645ZM207.871 31.15C202.922 32.1134 198.09 33.181 193.122 33.8118C192.567 33.8449 192.62 34.7318 193.168 34.5878C197.818 34.1986 202.565 33.5811 207.154 32.1941C206.438 33.2383 205.722 34.2824 205.012 35.4374C200.5 36.2634 196.008 37.4219 191.358 37.8111C190.804 37.8443 190.857 38.7312 191.411 38.698C195.409 38.5703 200.058 38.1811 204.1 36.9382C203.592 37.7473 203.078 38.4456 202.57 39.2548C198.39 40.0609 194.224 41.0888 189.907 41.4581C189.353 41.4912 189.406 42.3781 189.96 42.3449C193.73 42.1196 197.818 41.6527 201.534 40.5405C200.727 41.9239 199.906 43.0855 199.086 44.2471C195.689 45.1177 192.376 45.5382 188.725 45.8677C188.17 45.9009 188.217 46.6769 188.778 46.7546C191.667 46.6932 195.006 46.7161 197.966 45.9829C197.243 46.9161 196.631 47.8428 195.908 48.7761C193.038 49.1701 190.293 49.7792 187.418 50.0623C186.863 50.0955 186.916 50.9824 187.471 50.9492C189.91 50.8034 192.57 50.6444 194.983 50.0552C194.364 50.8709 193.752 51.7976 193.022 52.62C191.692 52.6995 190.375 53.0008 189.051 53.1911C187.506 53.3948 186.058 53.3701 184.506 53.4628C187.407 46.169 189.852 38.6799 191.841 30.9957C191.841 30.9957 191.841 30.9957 191.952 30.989C197.925 30.4095 204.002 29.7124 209.694 28.1484C209.082 29.075 208.476 30.1125 207.871 31.15ZM190.013 56.2488C187.691 56.4988 185.383 56.9706 182.937 57.0055C183.237 56.4313 183.419 55.7529 183.718 55.1787C183.92 54.8329 184.011 54.4937 184.095 54.0436C186.548 54.1196 189.45 54.2798 191.973 53.684C191.361 54.6106 190.742 55.4264 190.013 56.2488ZM182.443 65.4905C181.439 65.4393 180.33 65.5056 179.326 65.4544C179.925 64.306 180.413 63.1643 180.901 62.0225C182.466 62.1515 183.914 62.1762 185.459 61.9725C184.417 63.1474 183.486 64.3157 182.443 65.4905ZM170.637 76.4318C170.29 68.7759 169.279 61.1597 168.717 53.6278C168.018 45.6592 167.541 37.6772 167.286 29.6821C175.15 29.1007 182.897 28.4151 190.755 27.7229C188.514 36.7573 185.711 45.7141 182.107 54.2738C178.899 62.0309 175.463 69.6905 170.637 76.4318ZM176.729 70.3936C177.068 70.4846 177.511 70.4581 177.955 70.4316C176.697 71.7306 175.551 73.0229 174.293 74.3219C175.107 73.0494 175.915 71.6661 176.729 70.3936ZM152.683 14.3116C155.863 19.128 159.78 23.2329 163.801 27.2202C157.039 27.6245 150.276 28.0287 143.403 28.4396C142.848 28.4727 142.405 28.4992 141.851 28.5323C145.936 24.2829 149.642 19.2774 152.683 14.3116ZM178.956 12.7411C182.456 17.3159 186.726 21.7334 191.059 25.3683C183.86 25.9099 176.661 26.4515 169.455 26.8823C172.972 22.4443 176.261 17.9087 178.956 12.7411ZM165.18 29.808C165.781 45.4591 165.973 61.6911 169.118 77.0789C163.184 70.8695 158.729 63.3479 154.613 55.9172C150.243 47.9455 146.407 39.6081 143.118 31.1267C150.442 30.8002 157.869 30.3562 165.18 29.808ZM210.306 27.2217C204.222 27.8079 198.289 29.0526 192.211 29.7497C192.387 28.9604 192.562 28.1712 192.744 27.4927C198.939 26.8999 205.023 26.3137 211.218 25.7209C210.912 26.1842 210.612 26.7584 210.306 27.2217ZM193.942 25.196C194.59 21.152 195.407 16.2079 194.379 12.0416C199.509 15.9627 204.743 19.7664 209.879 23.7983C204.564 24.2273 199.256 24.7671 193.942 25.196ZM191.684 9.75514C191.69 9.866 191.697 9.97686 191.703 10.0877C193.521 14.4293 192.626 19.9344 192.461 24.617C188.289 19.9711 184.013 15.4427 179.744 11.0251C179.737 10.9143 179.737 10.9143 179.731 10.8034C183.722 10.5649 187.706 10.2154 191.684 9.75514ZM177.292 10.9492C174.519 16.6778 170.937 21.8984 167.238 27.0148C167.016 27.0281 166.794 27.0413 166.573 27.0546C166.351 27.0678 166.24 27.0744 166.018 27.0877C161.847 22.4418 157.675 17.7959 154.357 12.5427C158.237 12.3107 162.111 11.9679 166.095 11.6185C169.753 11.3998 173.522 11.1745 177.292 10.9492ZM151.592 12.8192C147.879 17.7139 144.173 22.7194 140.689 27.7117C139.857 23.0887 138.423 17.7229 139.599 13.2023C143.604 13.1855 147.601 13.0578 151.592 12.8192ZM139.294 28.5739C133.745 28.7944 128.299 28.8974 122.763 29.3396C127.487 24.607 132.334 20.0895 137.169 15.3502C136.762 19.7135 138.169 24.636 139.294 28.5739ZM122.915 31.8894C128.928 31.9749 134.908 31.5062 140.901 31.2593C144.327 40.1775 148.287 48.73 152.906 57.1319C156.277 63.272 159.98 69.3922 164.42 74.8008C148.971 62.0398 135.308 47.5032 122.915 31.8894ZM178.893 69.3742C178.782 69.3808 178.671 69.3875 178.56 69.3941C178.117 69.4206 177.562 69.4537 177.112 69.3694C177.718 68.3319 178.317 67.1835 178.811 66.1526C178.811 66.1526 178.811 66.1526 178.922 66.146C179.712 66.3213 180.501 66.4967 181.394 66.5545C180.671 67.4878 179.838 68.4277 178.893 69.3742ZM186.502 60.7977C184.748 61.2363 183.078 61.2248 181.298 61.22C181.786 60.0783 182.281 59.0474 182.769 57.9057C184.882 57.8906 187.106 57.8689 189.303 57.4038C188.261 58.5787 187.322 59.6361 186.502 60.7977Z" fill="#261F19"/>
<path d="M197.266 23.106C199.933 23.0578 202.822 22.9964 205.339 22.2897C205.664 22.159 205.631 21.6047 205.188 21.6312C202.527 21.7902 199.887 22.2818 197.219 22.33C196.776 22.3565 196.822 23.1325 197.266 23.106Z" fill="#261F19"/>
<path d="M198.124 20.718C199.69 20.8469 201.581 20.8451 203.093 20.0872C203.53 19.9498 203.386 19.4021 202.936 19.3178C201.266 19.3063 199.728 19.6208 198.058 19.6094C197.393 19.6491 197.459 20.7577 198.124 20.718Z" fill="#261F19"/>
<path d="M198.207 18.3767C198.644 18.2393 199.198 18.2062 199.635 18.0688C200.072 17.9315 199.921 17.2729 199.478 17.2995C198.923 17.3326 198.486 17.47 197.939 17.6139C197.717 17.6272 197.626 17.9664 197.639 18.1881C197.757 18.2924 197.985 18.39 198.207 18.3767Z" fill="#261F19"/>
</g>
<g style="mix-blend-mode:overlay" filter="url(#filter2_i)">
<path d="M323.484 17.5901C316.831 12.9891 309.872 8.56008 302.426 5.12942C302.363 4.80225 302.082 4.51704 301.516 4.51288C292.648 4.86166 283.744 7.36646 275.061 9.26303C265.942 11.2435 256.953 13.3121 247.75 14.8564C247.314 14.9403 247.029 15.2213 246.853 15.4814C246.744 15.5024 246.655 15.6324 246.546 15.6534C240.796 21.6227 235.822 28.6868 231.154 35.5788C230.978 35.8389 230.91 36.078 230.952 36.2961C230.47 36.7282 230.596 37.3826 231.028 37.8649C231.07 38.083 231.221 38.2802 231.372 38.4773C247.3 55.4307 266.214 69.0954 286.609 79.8741C286.802 80.2893 287.302 80.5326 287.717 80.3396C288.174 80.3647 288.656 79.9327 288.572 79.4964C303.512 61.92 316.095 42.0829 324.508 20.5598C324.73 19.9516 324.646 19.5153 324.235 19.142C324.784 18.4709 324.377 17.5313 323.484 17.5901ZM319 26.0299C314.219 27.6284 309.567 29.315 304.722 30.5863C304.177 30.6912 304.345 31.5636 304.869 31.3497C309.429 30.3594 314.055 29.1301 318.426 27.1583C317.851 28.2867 317.277 29.4151 316.723 30.6525C312.357 32.058 308.053 33.7907 303.494 34.781C302.948 34.8859 303.116 35.7583 303.661 35.6534C307.609 35.0072 312.168 34.0169 316.014 32.2591C315.616 33.1274 315.197 33.8867 314.798 34.755C310.759 36.0975 306.761 37.6582 302.529 38.5855C301.984 38.6904 302.152 39.5629 302.697 39.458C306.405 38.7446 310.398 37.7502 313.938 36.1644C313.318 37.641 312.655 38.8994 311.992 40.1578C308.737 41.4626 305.508 42.3101 301.93 43.1115C301.384 43.2164 301.531 43.9798 302.097 43.984C304.954 43.5476 308.268 43.1363 311.107 42.0245C310.512 43.0438 310.025 44.0422 309.43 45.0615C306.636 45.8251 303.994 46.7859 301.179 47.4404C300.634 47.5453 300.802 48.4178 301.347 48.3129C303.746 47.8513 306.364 47.3478 308.679 46.45C308.172 47.3393 307.685 48.3376 307.068 49.2479C305.76 49.4996 304.493 49.9695 303.205 50.3303C301.699 50.7331 300.261 50.8968 298.734 51.1906C300.663 43.5814 302.114 35.8381 303.086 27.9606C303.086 27.9606 303.086 27.9606 303.195 27.9396C309.043 26.5885 314.978 25.1074 320.418 22.8168C319.931 23.8151 319.466 24.9225 319 26.0299ZM304.556 53.2371C302.287 53.7868 300.06 54.5545 297.639 54.907C297.862 54.2988 297.954 53.6025 298.176 52.9943C298.331 52.6251 298.377 52.277 298.403 51.8198C300.844 51.5763 303.742 51.358 306.167 50.4392C305.68 51.4375 305.173 52.3268 304.556 53.2371ZM298.252 63.3843C297.25 63.4641 296.159 63.6739 295.157 63.7536C295.601 62.5372 295.937 61.3417 296.272 60.1462C297.841 60.0706 299.28 59.9069 300.786 59.5041C299.905 60.8045 299.133 62.0839 298.252 63.3843ZM287.968 75.7675C286.63 68.2215 284.637 60.8014 283.101 53.4064C281.372 45.5962 279.861 37.744 278.569 29.8499C286.291 28.2512 293.883 26.5644 301.584 24.8567C300.536 34.1058 298.922 43.3508 296.461 52.3065C294.288 60.4148 291.877 68.456 287.968 75.7675ZM293.223 68.9886C293.572 69.0347 294.008 68.9508 294.444 68.8669C293.366 70.3183 292.397 71.7487 291.319 73.2001C291.961 71.8327 292.582 70.3561 293.223 68.9886ZM262.092 16.508C265.871 20.8701 270.288 24.431 274.794 27.8619C268.141 29.1417 261.489 30.4215 254.727 31.7223C254.182 31.8272 253.746 31.9112 253.2 32.0161C256.698 27.2717 259.722 21.8269 262.092 16.508ZM287.938 11.5356C292.003 15.6166 296.811 19.4418 301.58 22.4825C294.512 23.9553 287.444 25.4281 280.356 26.7919C283.266 21.9343 285.938 17.0097 287.938 11.5356ZM276.497 30.2485C279.128 45.6886 281.428 61.758 286.546 76.6065C279.855 71.2211 274.461 64.3423 269.414 57.5097C264.045 50.1737 259.157 42.4057 254.794 34.4237C262.013 33.148 269.32 31.7423 276.497 30.2485ZM320.905 21.8184C314.948 23.1905 309.227 25.1959 303.292 26.677C303.363 25.8716 303.434 25.0663 303.526 24.37C309.592 22.9769 315.548 21.6049 321.613 20.2118C321.37 20.711 321.148 21.3192 320.905 21.8184ZM304.416 21.937C304.533 17.8431 304.7 12.8347 303.139 8.8374C308.735 12.0585 314.419 15.1495 320.036 18.4796C314.822 19.5957 309.629 20.8209 304.416 21.937ZM300.17 6.92067C300.191 7.02973 300.212 7.13879 300.232 7.24785C302.599 11.3164 302.427 16.8911 302.872 21.5554C298.132 17.4912 293.303 13.557 288.496 9.73188C288.475 9.62282 288.475 9.62282 288.454 9.51376C292.38 8.75846 296.285 7.89409 300.17 6.92067ZM286.055 9.97534C284.05 16.0157 281.177 21.6576 278.175 27.2115C277.956 27.2535 277.738 27.2954 277.52 27.3374C277.302 27.3793 277.193 27.4003 276.975 27.4423C272.235 23.3781 267.495 19.3138 263.522 14.5365C267.339 13.8021 271.135 12.9587 275.04 12.0944C278.639 11.402 282.347 10.6887 286.055 9.97534ZM260.816 15.17C257.772 20.5058 254.748 25.9506 251.942 31.3534C250.515 26.8779 248.397 21.7438 248.975 17.1088C252.943 16.5716 256.89 15.9253 260.816 15.17ZM250.671 32.3896C245.197 33.3295 239.811 34.1395 234.379 35.2976C238.448 29.9911 242.667 24.8818 246.845 19.5544C247.008 23.9335 249.043 28.6313 250.671 32.3896ZM234.862 37.8059C240.835 37.1092 246.703 35.8672 252.613 34.8433C257.169 43.2405 262.207 51.2057 267.879 58.936C272.019 64.5858 276.487 70.1727 281.592 74.9584C264.616 64.3137 249.179 51.6764 234.862 37.8059ZM295.237 67.6965C295.128 67.7175 295.019 67.7385 294.91 67.7595C294.473 67.8434 293.928 67.9483 293.471 67.9232C293.936 66.8158 294.381 65.5993 294.737 64.5129C294.737 64.5129 294.737 64.5129 294.846 64.4919C295.652 64.5632 296.457 64.6344 297.351 64.5756C296.755 65.5949 296.05 66.6353 295.237 67.6965ZM301.666 58.2037C299.984 58.8666 298.328 59.0722 296.562 59.2989C296.897 58.1034 297.254 57.017 297.589 55.8215C299.682 55.5319 301.884 55.2213 304.003 54.4746C303.122 55.7749 302.329 56.9453 301.666 58.2037Z" fill="#261F19"/>
<path d="M307.44 19.4327C310.078 19.0383 312.935 18.6018 315.338 17.574C315.644 17.402 315.539 16.8567 315.103 16.9406C312.486 17.4441 309.931 18.2749 307.293 18.6693C306.857 18.7533 307.003 19.5167 307.44 19.4327Z" fill="#261F19"/>
<path d="M307.981 16.9534C309.549 16.8778 311.424 16.6302 312.825 15.6821C313.241 15.4891 313.027 14.9648 312.569 14.9397C310.913 15.1454 309.428 15.6572 307.771 15.8629C307.117 15.9887 307.326 17.0793 307.981 16.9534Z" fill="#261F19"/>
<path d="M307.758 14.6215C308.173 14.4285 308.719 14.3236 309.134 14.1306C309.549 13.9376 309.314 13.3043 308.878 13.3882C308.333 13.4931 307.917 13.6861 307.393 13.9C307.175 13.942 307.129 14.2902 307.171 14.5083C307.301 14.5964 307.54 14.6635 307.758 14.6215Z" fill="#261F19"/>
</g>
<g style="mix-blend-mode:multiply" filter="url(#filter3_i)">
<path d="M99.6405 30.6934C94.5517 24.4056 89.1207 18.1968 82.9418 12.8089C82.9735 12.4773 82.7841 12.1245 82.2419 11.9611C73.635 9.79962 64.385 9.69644 55.5196 9.07218C46.2119 8.40566 37.0042 7.86026 27.7388 6.75152C27.2966 6.70925 26.9438 6.89865 26.7016 7.09863C26.591 7.08806 26.4699 7.18805 26.3593 7.17748C19.1612 11.2867 12.3995 16.6649 5.9801 21.9642C5.73785 22.1642 5.60617 22.3747 5.58503 22.5958C5.00056 22.8746 4.93716 23.538 5.21599 24.1224C5.19485 24.3435 5.28427 24.5752 5.37369 24.8069C15.8854 45.5585 30.1884 63.9949 46.7244 80.0788C46.7927 80.5315 47.2032 80.9055 47.656 80.8372C48.0877 80.99 48.6721 80.7112 48.7144 80.269C67.9979 67.6088 85.6555 52.1157 99.7868 33.8311C100.171 33.3101 100.214 32.8679 99.9242 32.3939C100.64 31.9046 100.514 30.8885 99.6405 30.6934ZM92.9626 37.5299C87.9242 37.7177 82.9859 38.0266 77.9792 37.8827C77.4265 37.8299 77.3419 38.7143 77.9053 38.6566C82.5591 38.9899 87.3446 39.1126 92.0936 38.4509C91.2246 39.3719 90.3556 40.2929 89.4761 41.3245C84.8905 41.444 80.2733 41.8952 75.6194 41.5619C75.0667 41.5091 74.9821 42.3935 75.5349 42.4464C79.5043 42.9373 84.1581 43.2706 88.3437 42.6666C87.717 43.3876 87.1008 43.9981 86.4741 44.7192C82.2202 44.8704 77.9451 45.2427 73.623 44.9411C73.0702 44.8883 72.9857 45.7727 73.5384 45.8256C77.2973 46.1849 81.4089 46.3547 85.2523 45.8296C84.241 47.0717 83.2509 48.0927 82.2608 49.1137C78.7703 49.4494 75.4325 49.3535 71.7737 49.1154C71.2209 49.0625 71.1469 49.8364 71.6891 49.9998C74.553 50.3851 77.8485 50.9232 80.8862 50.6558C80.0278 51.4662 79.28 52.2873 78.4216 53.0977C75.526 53.0441 72.7199 53.2221 69.8349 53.0579C69.2822 53.0051 69.1976 53.8895 69.7504 53.9424C72.1826 54.1748 74.8359 54.4285 77.3103 54.2187C76.573 54.9292 75.8252 55.7502 74.9773 56.4501C73.6507 56.3233 72.3029 56.4176 70.9657 56.4014C69.4074 56.364 67.9807 56.1161 66.433 55.9681C70.4259 49.2097 73.9977 42.1879 77.1485 34.9027C77.1485 34.9027 77.1484 34.9027 77.259 34.9132C83.2501 35.2627 89.3622 35.5123 95.2273 34.8457C94.4794 35.6667 93.721 36.5983 92.9626 37.5299ZM71.4437 59.5709C69.1115 59.4595 66.7581 59.5693 64.3365 59.2262C64.721 58.7052 65.0055 58.063 65.39 57.5419C65.6428 57.2314 65.7851 56.9103 65.9379 56.4786C68.349 56.9322 71.1917 57.5386 73.7767 57.3394C73.0288 58.1605 72.2915 58.8709 71.4437 59.5709ZM62.5384 67.5332C61.554 67.3276 60.4485 67.2219 59.4641 67.0162C60.2331 65.9741 60.8915 64.9214 61.5499 63.8687C63.0766 64.2377 64.5032 64.4857 66.0615 64.5231C64.8503 65.5229 63.7497 66.5334 62.5384 67.5332ZM49.1842 76.5207C50.0239 68.903 50.2003 61.222 50.8083 53.6937C51.348 45.7127 52.1088 37.7528 53.0908 29.8141C60.9507 30.4538 68.7106 30.9724 76.581 31.5015C72.9718 40.0817 68.8204 48.4984 63.9374 56.399C59.5705 63.5679 54.9932 70.6052 49.1842 76.5207ZM56.1353 71.4953C56.4564 71.6376 56.8986 71.6798 57.3408 71.7221C55.8979 72.8114 54.5656 73.9113 53.1227 75.0005C54.1234 73.869 55.1346 72.6269 56.1353 71.4953ZM41.0354 12.3734C43.4343 17.6231 46.6705 22.2834 50.0277 26.8438C43.2839 26.1992 36.5402 25.5546 29.6858 24.8994C29.133 24.8466 28.6908 24.8043 28.138 24.7515C32.8301 21.1837 37.2644 16.8102 41.0354 12.3734ZM67.2367 14.8778C69.9884 19.9381 73.5245 24.9618 77.2452 29.2221C70.0486 28.6458 62.852 28.0695 55.666 27.3827C59.8264 23.5409 63.7762 19.5674 67.2367 14.8778ZM50.9902 29.6133C49.1686 45.1697 46.8519 61.2366 47.5836 76.9255C42.6794 69.8745 39.4391 61.7553 36.52 53.7783C33.4326 45.2275 30.9296 36.3978 28.99 27.5105C36.276 28.3184 43.6831 29.0264 50.9902 29.6133ZM95.9751 34.0246C89.8735 33.6646 83.8191 33.9784 77.7069 33.7288C78.002 32.9761 78.2971 32.2234 78.5816 31.5812C84.7937 31.9518 90.8953 32.3119 97.1075 32.6825C96.7336 33.0931 96.3491 33.6141 95.9751 34.0246ZM80.1196 29.4969C81.3844 25.6015 82.9549 20.8428 82.5826 16.5678C87.0454 21.2338 91.6293 25.7998 96.0816 30.5763C90.7644 30.1797 85.4367 29.8936 80.1196 29.4969ZM80.2723 13.8925C80.2617 14.0031 80.2512 14.1136 80.2406 14.2242C81.3657 18.7943 79.6318 24.0952 78.7458 28.6962C75.3413 23.462 71.8158 18.3277 68.2796 13.3041C68.2902 13.1935 68.2902 13.1935 68.3008 13.0829C72.2807 13.4634 76.2712 13.7332 80.2723 13.8925ZM65.8686 12.8505C62.2447 18.0823 57.8998 22.6874 53.4549 27.1713C53.2338 27.1502 53.0127 27.1291 52.7916 27.1079C52.5705 27.0868 52.4599 27.0762 52.2388 27.0551C48.8344 21.8209 45.4299 16.5867 42.9628 10.8842C46.8322 11.254 50.7121 11.5133 54.7026 11.7832C58.3509 12.1319 62.1097 12.4912 65.8686 12.8505ZM40.1884 10.7306C35.7646 14.9934 31.3303 19.3668 27.117 23.7614C27.0081 19.0653 26.4203 13.5425 28.2802 9.25767C32.239 9.85919 36.2084 10.3502 40.1884 10.7306ZM25.6059 24.3979C20.0887 23.759 14.6927 23.0201 9.15446 22.6023C14.5521 18.6556 20.0391 14.9407 25.5473 11.0046C24.4718 15.2528 25.1019 20.3334 25.6059 24.3979ZM8.91142 25.145C14.8391 26.1579 20.8196 26.6179 26.7789 27.2991C28.7868 36.6393 31.3792 45.7006 34.6455 54.7148C37.0281 61.3017 39.7424 67.9203 43.294 73.9495C30.0006 58.9565 18.7451 42.4849 8.91142 25.145ZM58.4309 70.8222C58.3203 70.8117 58.2098 70.8011 58.0992 70.7905C57.657 70.7483 57.1042 70.6954 56.6726 70.5426C57.431 69.611 58.2 68.5689 58.8479 67.6267C58.8479 67.6267 58.8479 67.6267 58.9584 67.6373C59.7112 67.9324 60.4639 68.2275 61.3378 68.4225C60.4794 69.233 59.5104 70.0329 58.4309 70.8222ZM67.2727 63.5232C65.4722 63.6858 63.8244 63.4167 62.0661 63.1371C62.7246 62.0844 63.3724 61.1422 64.0309 60.0895C66.1208 60.4009 68.3214 60.7227 70.5641 60.6024C69.3529 61.6023 68.2628 62.5022 67.2727 63.5232Z" fill="#914F00"/>
<path d="M83.7264 27.9449C86.3692 28.3091 89.233 28.6944 91.8286 28.3846C92.1708 28.3058 92.2236 27.753 91.7814 27.7107C89.1281 27.4571 86.4431 27.5352 83.8004 27.171C83.3582 27.1288 83.2842 27.9026 83.7264 27.9449Z" fill="#914F00"/>
<path d="M84.9433 25.7187C86.47 26.0877 88.3388 26.3779 89.95 25.8626C90.4028 25.7943 90.345 25.2309 89.9134 25.0781C88.2656 24.809 86.6968 24.8822 85.049 24.6132C84.3857 24.5498 84.28 25.6553 84.9433 25.7187Z" fill="#914F00"/>
<path d="M85.3863 23.4179C85.839 23.3497 86.3918 23.4025 86.8446 23.3342C87.2974 23.2659 87.2502 22.592 86.808 22.5498C86.2552 22.4969 85.8025 22.5652 85.2391 22.6229C85.018 22.6018 84.8758 22.9229 84.8546 23.144C84.9546 23.2651 85.1651 23.3968 85.3863 23.4179Z" fill="#914F00"/>
</g>
<g style="mix-blend-mode:multiply" filter="url(#filter4_i)">
<path d="M213.413 23.3645C207.415 17.9378 201.09 12.6418 194.154 8.2724C194.134 7.93982 193.892 7.6205 193.331 7.54277C184.494 6.73597 175.339 8.06202 166.483 8.81388C157.184 9.59226 148.003 10.4749 138.677 10.8098C138.234 10.8363 137.915 11.0779 137.706 11.3129C137.595 11.3195 137.491 11.437 137.38 11.4436C130.903 16.6148 125.052 22.9724 119.528 29.1992C119.32 29.4341 119.222 29.6625 119.235 29.8842C118.701 30.2499 118.741 30.9151 119.106 31.4495C119.12 31.6712 119.244 31.8863 119.368 32.1014C132.957 50.9814 149.935 66.9887 168.756 80.327C168.893 80.7638 169.356 81.0699 169.793 80.9325C170.243 81.0169 170.778 80.6512 170.751 80.2077C187.849 64.7224 202.903 46.689 214.042 26.4421C214.342 25.8679 214.315 25.4245 213.956 25.0009C214.588 24.4069 214.307 23.4224 213.413 23.3645ZM207.871 31.15C202.922 32.1134 198.09 33.181 193.122 33.8118C192.567 33.8449 192.62 34.7318 193.168 34.5878C197.818 34.1986 202.565 33.5811 207.154 32.1941C206.438 33.2383 205.722 34.2824 205.012 35.4374C200.5 36.2634 196.008 37.4219 191.358 37.8111C190.804 37.8443 190.857 38.7312 191.411 38.698C195.409 38.5703 200.058 38.1811 204.1 36.9382C203.592 37.7473 203.078 38.4456 202.57 39.2548C198.39 40.0609 194.224 41.0888 189.907 41.4581C189.353 41.4912 189.406 42.3781 189.96 42.3449C193.73 42.1196 197.818 41.6527 201.534 40.5405C200.727 41.9239 199.906 43.0855 199.086 44.2471C195.689 45.1177 192.376 45.5382 188.725 45.8677C188.17 45.9009 188.217 46.6769 188.778 46.7546C191.667 46.6932 195.006 46.7161 197.966 45.9829C197.243 46.9161 196.631 47.8428 195.908 48.7761C193.038 49.1701 190.293 49.7792 187.418 50.0623C186.863 50.0955 186.916 50.9824 187.471 50.9492C189.91 50.8034 192.57 50.6444 194.983 50.0552C194.364 50.8709 193.752 51.7976 193.022 52.62C191.692 52.6995 190.375 53.0008 189.051 53.1911C187.506 53.3948 186.058 53.3701 184.506 53.4628C187.407 46.169 189.852 38.6799 191.841 30.9957C191.841 30.9957 191.841 30.9957 191.952 30.989C197.925 30.4095 204.002 29.7124 209.694 28.1484C209.082 29.075 208.476 30.1125 207.871 31.15ZM190.013 56.2488C187.691 56.4988 185.383 56.9706 182.937 57.0055C183.237 56.4313 183.419 55.7529 183.718 55.1787C183.92 54.8329 184.011 54.4937 184.095 54.0436C186.548 54.1196 189.45 54.2798 191.973 53.684C191.361 54.6106 190.742 55.4264 190.013 56.2488ZM182.443 65.4905C181.439 65.4393 180.33 65.5056 179.326 65.4544C179.925 64.306 180.413 63.1643 180.901 62.0225C182.466 62.1515 183.914 62.1762 185.459 61.9725C184.417 63.1474 183.486 64.3157 182.443 65.4905ZM170.637 76.4318C170.29 68.7759 169.279 61.1597 168.717 53.6278C168.018 45.6592 167.541 37.6772 167.286 29.6821C175.15 29.1007 182.897 28.4151 190.755 27.7229C188.514 36.7573 185.711 45.7141 182.107 54.2738C178.899 62.0309 175.463 69.6905 170.637 76.4318ZM176.729 70.3936C177.068 70.4846 177.511 70.4581 177.955 70.4316C176.697 71.7306 175.551 73.0229 174.293 74.3219C175.107 73.0494 175.915 71.6661 176.729 70.3936ZM152.683 14.3116C155.863 19.128 159.78 23.2329 163.801 27.2202C157.039 27.6245 150.276 28.0287 143.403 28.4396C142.848 28.4727 142.405 28.4992 141.851 28.5323C145.936 24.2829 149.642 19.2774 152.683 14.3116ZM178.956 12.7411C182.456 17.3159 186.726 21.7334 191.059 25.3683C183.86 25.9099 176.661 26.4515 169.455 26.8823C172.972 22.4443 176.261 17.9087 178.956 12.7411ZM165.18 29.808C165.781 45.4591 165.973 61.6911 169.118 77.0789C163.184 70.8695 158.729 63.3479 154.613 55.9172C150.243 47.9455 146.407 39.6081 143.118 31.1267C150.442 30.8002 157.869 30.3562 165.18 29.808ZM210.306 27.2217C204.222 27.8079 198.289 29.0526 192.211 29.7497C192.387 28.9604 192.562 28.1712 192.744 27.4927C198.939 26.8999 205.023 26.3137 211.218 25.7209C210.912 26.1842 210.612 26.7584 210.306 27.2217ZM193.942 25.196C194.59 21.152 195.407 16.2079 194.379 12.0416C199.509 15.9627 204.743 19.7664 209.879 23.7983C204.564 24.2273 199.256 24.7671 193.942 25.196ZM191.684 9.75514C191.69 9.866 191.697 9.97686 191.703 10.0877C193.521 14.4293 192.626 19.9344 192.461 24.617C188.289 19.9711 184.013 15.4427 179.744 11.0251C179.737 10.9143 179.737 10.9143 179.731 10.8034C183.722 10.5649 187.706 10.2154 191.684 9.75514ZM177.292 10.9492C174.519 16.6778 170.937 21.8984 167.238 27.0148C167.016 27.0281 166.794 27.0413 166.573 27.0546C166.351 27.0678 166.24 27.0744 166.018 27.0877C161.847 22.4418 157.675 17.7959 154.357 12.5427C158.237 12.3107 162.111 11.9679 166.095 11.6185C169.753 11.3998 173.522 11.1745 177.292 10.9492ZM151.592 12.8192C147.879 17.7139 144.173 22.7194 140.689 27.7117C139.857 23.0887 138.423 17.7229 139.599 13.2023C143.604 13.1855 147.601 13.0578 151.592 12.8192ZM139.294 28.5739C133.745 28.7944 128.299 28.8974 122.763 29.3396C127.487 24.607 132.334 20.0895 137.169 15.3502C136.762 19.7135 138.169 24.636 139.294 28.5739ZM122.915 31.8894C128.928 31.9749 134.908 31.5062 140.901 31.2593C144.327 40.1775 148.287 48.73 152.906 57.1319C156.277 63.272 159.98 69.3922 164.42 74.8008C148.971 62.0398 135.308 47.5032 122.915 31.8894ZM178.893 69.3742C178.782 69.3808 178.671 69.3875 178.56 69.3941C178.117 69.4206 177.562 69.4537 177.112 69.3694C177.718 68.3319 178.317 67.1835 178.811 66.1526C178.811 66.1526 178.811 66.1526 178.922 66.146C179.712 66.3213 180.501 66.4967 181.394 66.5545C180.671 67.4878 179.838 68.4277 178.893 69.3742ZM186.502 60.7977C184.748 61.2363 183.078 61.2248 181.298 61.22C181.786 60.0783 182.281 59.0474 182.769 57.9057C184.882 57.8906 187.106 57.8689 189.303 57.4038C188.261 58.5787 187.322 59.6361 186.502 60.7977Z" fill="#914F00"/>
<path d="M197.266 23.106C199.933 23.0578 202.822 22.9964 205.339 22.2897C205.664 22.159 205.631 21.6047 205.188 21.6312C202.527 21.7902 199.887 22.2818 197.219 22.33C196.776 22.3565 196.822 23.1325 197.266 23.106Z" fill="#914F00"/>
<path d="M198.124 20.718C199.69 20.8469 201.581 20.8451 203.093 20.0872C203.53 19.9498 203.386 19.4021 202.936 19.3178C201.266 19.3063 199.728 19.6208 198.058 19.6094C197.393 19.6491 197.459 20.7577 198.124 20.718Z" fill="#914F00"/>
<path d="M198.207 18.3767C198.644 18.2393 199.198 18.2062 199.635 18.0688C200.072 17.9315 199.921 17.2729 199.478 17.2995C198.923 17.3326 198.486 17.47 197.939 17.6139C197.717 17.6272 197.626 17.9664 197.639 18.1881C197.757 18.2924 197.985 18.39 198.207 18.3767Z" fill="#914F00"/>
</g>
<g style="mix-blend-mode:multiply" filter="url(#filter5_i)">
<path d="M323.484 17.5901C316.831 12.9891 309.872 8.56008 302.426 5.12942C302.363 4.80225 302.082 4.51704 301.516 4.51288C292.648 4.86166 283.744 7.36646 275.061 9.26303C265.942 11.2435 256.953 13.3121 247.75 14.8564C247.314 14.9403 247.029 15.2213 246.853 15.4814C246.744 15.5024 246.655 15.6324 246.546 15.6534C240.796 21.6227 235.822 28.6868 231.154 35.5788C230.978 35.8389 230.91 36.078 230.952 36.2961C230.47 36.7282 230.596 37.3826 231.028 37.8649C231.07 38.083 231.221 38.2802 231.372 38.4773C247.3 55.4307 266.214 69.0954 286.609 79.8741C286.802 80.2893 287.302 80.5326 287.717 80.3396C288.174 80.3647 288.656 79.9327 288.572 79.4964C303.512 61.92 316.095 42.0829 324.508 20.5598C324.73 19.9516 324.646 19.5153 324.235 19.142C324.784 18.4709 324.377 17.5313 323.484 17.5901ZM319 26.0299C314.219 27.6284 309.567 29.315 304.722 30.5863C304.177 30.6912 304.345 31.5636 304.869 31.3497C309.429 30.3594 314.055 29.1301 318.426 27.1583C317.851 28.2867 317.277 29.4151 316.723 30.6525C312.357 32.058 308.053 33.7907 303.494 34.781C302.948 34.8859 303.116 35.7583 303.661 35.6534C307.609 35.0072 312.168 34.0169 316.014 32.2591C315.616 33.1274 315.197 33.8867 314.798 34.755C310.759 36.0975 306.761 37.6582 302.529 38.5855C301.984 38.6904 302.152 39.5629 302.697 39.458C306.405 38.7446 310.398 37.7502 313.938 36.1644C313.318 37.641 312.655 38.8994 311.992 40.1578C308.737 41.4626 305.508 42.3101 301.93 43.1115C301.384 43.2164 301.531 43.9798 302.097 43.984C304.954 43.5476 308.268 43.1363 311.107 42.0245C310.512 43.0438 310.025 44.0422 309.43 45.0615C306.636 45.8251 303.994 46.7859 301.179 47.4404C300.634 47.5453 300.802 48.4178 301.347 48.3129C303.746 47.8513 306.364 47.3478 308.679 46.45C308.172 47.3393 307.685 48.3376 307.068 49.2479C305.76 49.4996 304.493 49.9695 303.205 50.3303C301.699 50.7331 300.261 50.8968 298.734 51.1906C300.663 43.5814 302.114 35.8381 303.086 27.9606C303.086 27.9606 303.086 27.9606 303.195 27.9396C309.043 26.5885 314.978 25.1074 320.418 22.8168C319.931 23.8151 319.466 24.9225 319 26.0299ZM304.556 53.2371C302.287 53.7868 300.06 54.5545 297.639 54.907C297.862 54.2988 297.954 53.6025 298.176 52.9943C298.331 52.6251 298.377 52.277 298.403 51.8198C300.844 51.5763 303.742 51.358 306.167 50.4392C305.68 51.4375 305.173 52.3268 304.556 53.2371ZM298.252 63.3843C297.25 63.4641 296.159 63.6739 295.157 63.7536C295.601 62.5372 295.937 61.3417 296.272 60.1462C297.841 60.0706 299.28 59.9069 300.786 59.5041C299.905 60.8045 299.133 62.0839 298.252 63.3843ZM287.968 75.7675C286.63 68.2215 284.637 60.8014 283.101 53.4064C281.372 45.5962 279.861 37.744 278.569 29.8499C286.291 28.2512 293.883 26.5644 301.584 24.8567C300.536 34.1058 298.922 43.3508 296.461 52.3065C294.288 60.4148 291.877 68.456 287.968 75.7675ZM293.223 68.9886C293.572 69.0347 294.008 68.9508 294.444 68.8669C293.366 70.3183 292.397 71.7487 291.319 73.2001C291.961 71.8327 292.582 70.3561 293.223 68.9886ZM262.092 16.508C265.871 20.8701 270.288 24.431 274.794 27.8619C268.141 29.1417 261.489 30.4215 254.727 31.7223C254.182 31.8272 253.746 31.9112 253.2 32.0161C256.698 27.2717 259.722 21.8269 262.092 16.508ZM287.938 11.5356C292.003 15.6166 296.811 19.4418 301.58 22.4825C294.512 23.9553 287.444 25.4281 280.356 26.7919C283.266 21.9343 285.938 17.0097 287.938 11.5356ZM276.497 30.2485C279.128 45.6886 281.428 61.758 286.546 76.6065C279.855 71.2211 274.461 64.3423 269.414 57.5097C264.045 50.1737 259.157 42.4057 254.794 34.4237C262.013 33.148 269.32 31.7423 276.497 30.2485ZM320.905 21.8184C314.948 23.1905 309.227 25.1959 303.292 26.677C303.363 25.8716 303.434 25.0663 303.526 24.37C309.592 22.9769 315.548 21.6049 321.613 20.2118C321.37 20.711 321.148 21.3192 320.905 21.8184ZM304.416 21.937C304.533 17.8431 304.7 12.8347 303.139 8.8374C308.735 12.0585 314.419 15.1495 320.036 18.4796C314.822 19.5957 309.629 20.8209 304.416 21.937ZM300.17 6.92067C300.191 7.02973 300.212 7.13879 300.232 7.24785C302.599 11.3164 302.427 16.8911 302.872 21.5554C298.132 17.4912 293.303 13.557 288.496 9.73188C288.475 9.62282 288.475 9.62282 288.454 9.51376C292.38 8.75846 296.285 7.89409 300.17 6.92067ZM286.055 9.97534C284.05 16.0157 281.177 21.6576 278.175 27.2115C277.956 27.2535 277.738 27.2954 277.52 27.3374C277.302 27.3793 277.193 27.4003 276.975 27.4423C272.235 23.3781 267.495 19.3138 263.522 14.5365C267.339 13.8021 271.135 12.9587 275.04 12.0944C278.639 11.402 282.347 10.6887 286.055 9.97534ZM260.816 15.17C257.772 20.5058 254.748 25.9506 251.942 31.3534C250.515 26.8779 248.397 21.7438 248.975 17.1088C252.943 16.5716 256.89 15.9253 260.816 15.17ZM250.671 32.3896C245.197 33.3295 239.811 34.1395 234.379 35.2976C238.448 29.9911 242.667 24.8818 246.845 19.5544C247.008 23.9335 249.043 28.6313 250.671 32.3896ZM234.862 37.8059C240.835 37.1092 246.703 35.8672 252.613 34.8433C257.169 43.2405 262.207 51.2057 267.879 58.936C272.019 64.5858 276.487 70.1727 281.592 74.9584C264.616 64.3137 249.179 51.6764 234.862 37.8059ZM295.237 67.6965C295.128 67.7175 295.019 67.7385 294.91 67.7595C294.473 67.8434 293.928 67.9483 293.471 67.9232C293.936 66.8158 294.381 65.5993 294.737 64.5129C294.737 64.5129 294.737 64.5129 294.846 64.4919C295.652 64.5632 296.457 64.6344 297.351 64.5756C296.755 65.5949 296.05 66.6353 295.237 67.6965ZM301.666 58.2037C299.984 58.8666 298.328 59.0722 296.562 59.2989C296.897 58.1034 297.254 57.017 297.589 55.8215C299.682 55.5319 301.884 55.2213 304.003 54.4746C303.122 55.7749 302.329 56.9453 301.666 58.2037Z" fill="#914F00"/>
<path d="M307.44 19.4327C310.078 19.0383 312.935 18.6018 315.338 17.574C315.644 17.402 315.539 16.8567 315.103 16.9406C312.486 17.4441 309.931 18.2749 307.293 18.6693C306.857 18.7533 307.003 19.5167 307.44 19.4327Z" fill="#914F00"/>
<path d="M307.981 16.9534C309.549 16.8778 311.424 16.6302 312.825 15.6821C313.241 15.4891 313.027 14.9648 312.569 14.9397C310.913 15.1454 309.428 15.6572 307.771 15.8629C307.117 15.9887 307.326 17.0793 307.981 16.9534Z" fill="#914F00"/>
<path d="M307.758 14.6215C308.173 14.4285 308.719 14.3236 309.134 14.1306C309.549 13.9376 309.314 13.3043 308.878 13.3882C308.333 13.4931 307.917 13.6861 307.393 13.9C307.175 13.942 307.129 14.2902 307.171 14.5083C307.301 14.5964 307.54 14.6635 307.758 14.6215Z" fill="#914F00"/>
</g>
<defs>
<filter id="filter0_i" x="5.05615" y="6.74561" width="95.3324" height="78.1338" filterUnits="userSpaceOnUse" color-interpolation-filters="sRGB">
<feFlood flood-opacity="0" result="BackgroundImageFix"/>
<feBlend mode="normal" in="SourceGraphic" in2="BackgroundImageFix" result="shape"/>
<feColorMatrix in="SourceAlpha" type="matrix" values="0 0 0 0 0 0 0 0 0 0 0 0 0 0 0 0 0 0 127 0" result="hardAlpha"/>
<feOffset dy="4"/>
<feGaussianBlur stdDeviation="2"/>
<feComposite in2="hardAlpha" operator="arithmetic" k2="-1" k3="1"/>
<feColorMatrix type="matrix" values="0 0 0 0 0 0 0 0 0 0 0 0 0 0 0 0 0 0 1 0"/>
<feBlend mode="normal" in2="shape" result="effect1_innerShadow"/>
</filter>
<filter id="filter1_i" x="118.833" y="7.29126" width="95.4653" height="77.6745" filterUnits="userSpaceOnUse" color-interpolation-filters="sRGB">
<feFlood flood-opacity="0" result="BackgroundImageFix"/>
<feBlend mode="normal" in="SourceGraphic" in2="BackgroundImageFix" result="shape"/>
<feColorMatrix in="SourceAlpha" type="matrix" values="0 0 0 0 0 0 0 0 0 0 0 0 0 0 0 0 0 0 127 0" result="hardAlpha"/>
<feOffset dy="4"/>
<feGaussianBlur stdDeviation="2"/>
<feComposite in2="hardAlpha" operator="arithmetic" k2="-1" k3="1"/>
<feColorMatrix type="matrix" values="0 0 0 0 0 0 0 0 0 0 0 0 0 0 0 0 0 0 1 0"/>
<feBlend mode="normal" in2="shape" result="effect1_innerShadow"/>
</filter>
<filter id="filter2_i" x="230.643" y="4.51294" width="93.9844" height="79.8939" filterUnits="userSpaceOnUse" color-interpolation-filters="sRGB">
<feFlood flood-opacity="0" result="BackgroundImageFix"/>
<feBlend mode="normal" in="SourceGraphic" in2="BackgroundImageFix" result="shape"/>
<feColorMatrix in="SourceAlpha" type="matrix" values="0 0 0 0 0 0 0 0 0 0 0 0 0 0 0 0 0 0 127 0" result="hardAlpha"/>
<feOffset dy="4"/>
<feGaussianBlur stdDeviation="2"/>
<feComposite in2="hardAlpha" operator="arithmetic" k2="-1" k3="1"/>
<feColorMatrix type="matrix" values="0 0 0 0 0 0 0 0 0 0 0 0 0 0 0 0 0 0 1 0"/>
<feBlend mode="normal" in2="shape" result="effect1_innerShadow"/>
</filter>
<filter id="filter3_i" x="5.05615" y="6.74561" width="95.3324" height="78.1338" filterUnits="userSpaceOnUse" color-interpolation-filters="sRGB">
<feFlood flood-opacity="0" result="BackgroundImageFix"/>
<feBlend mode="normal" in="SourceGraphic" in2="BackgroundImageFix" result="shape"/>
<feColorMatrix in="SourceAlpha" type="matrix" values="0 0 0 0 0 0 0 0 0 0 0 0 0 0 0 0 0 0 127 0" result="hardAlpha"/>
<feOffset dy="4"/>
<feGaussianBlur stdDeviation="2"/>
<feComposite in2="hardAlpha" operator="arithmetic" k2="-1" k3="1"/>
<feColorMatrix type="matrix" values="0 0 0 0 0 0 0 0 0 0 0 0 0 0 0 0 0 0 1 0"/>
<feBlend mode="normal" in2="shape" result="effect1_innerShadow"/>
</filter>
<filter id="filter4_i" x="118.833" y="7.29126" width="95.4653" height="77.6745" filterUnits="userSpaceOnUse" color-interpolation-filters="sRGB">
<feFlood flood-opacity="0" result="BackgroundImageFix"/>
<feBlend mode="normal" in="SourceGraphic" in2="BackgroundImageFix" result="shape"/>
<feColorMatrix in="SourceAlpha" type="matrix" values="0 0 0 0 0 0 0 0 0 0 0 0 0 0 0 0 0 0 127 0" result="hardAlpha"/>
<feOffset dy="4"/>
<feGaussianBlur stdDeviation="2"/>
<feComposite in2="hardAlpha" operator="arithmetic" k2="-1" k3="1"/>
<feColorMatrix type="matrix" values="0 0 0 0 0 0 0 0 0 0 0 0 0 0 0 0 0 0 1 0"/>
<feBlend mode="normal" in2="shape" result="effect1_innerShadow"/>
</filter>
<filter id="filter5_i" x="230.643" y="4.51294" width="93.9844" height="79.8939" filterUnits="userSpaceOnUse" color-interpolation-filters="sRGB">
<feFlood flood-opacity="0" result="BackgroundImageFix"/>
<feBlend mode="normal" in="SourceGraphic" in2="BackgroundImageFix" result="shape"/>
<feColorMatrix in="SourceAlpha" type="matrix" values="0 0 0 0 0 0 0 0 0 0 0 0 0 0 0 0 0 0 127 0" result="hardAlpha"/>
<feOffset dy="4"/>
<feGaussianBlur stdDeviation="2"/>
<feComposite in2="hardAlpha" operator="arithmetic" k2="-1" k3="1"/>
<feColorMatrix type="matrix" values="0 0 0 0 0 0 0 0 0 0 0 0 0 0 0 0 0 0 1 0"/>
<feBlend mode="normal" in2="shape" result="effect1_innerShadow"/>
</filter>
</defs>
</svg>
