<svg width="218" height="342" viewBox="0 0 218 342" fill="none" xmlns="http://www.w3.org/2000/svg">
<mask id="path-1-inside-1" fill="white">
<path d="M208.989 84.1009L193.199 100.333L166.007 116.716L151.805 132.084L120.031 149.353L102.914 169.35L83.9723 178.575L73.1867 182.587L69.3923 180.454L141.172 14.7276L155.868 13.8961L164.664 25.0734L164.939 33.1493L172.26 36.6963L209 84"/>
</mask>
<path d="M208.989 84.1009L193.199 100.333L166.007 116.716L151.805 132.084L120.031 149.353L102.914 169.35L83.9723 178.575L73.1867 182.587L69.3923 180.454L141.172 14.7276L155.868 13.8961L164.664 25.0734L164.939 33.1493L172.26 36.6963L209 84" fill="#936037"/>
<path d="M193.199 100.333L194.633 101.727L194.453 101.912L194.231 102.046L193.199 100.333ZM166.007 116.716L164.538 115.358L164.731 115.149L164.974 115.003L166.007 116.716ZM151.805 132.084L153.274 133.441L153.05 133.684L152.76 133.841L151.805 132.084ZM120.031 149.353L118.512 148.053L118.752 147.772L119.076 147.596L120.031 149.353ZM102.914 169.35L104.433 170.651L104.163 170.966L103.789 171.148L102.914 169.35ZM83.9723 178.575L84.8481 180.373L84.7606 180.416L84.6695 180.45L83.9723 178.575ZM73.1867 182.587L73.8839 184.461L73.0149 184.784L72.2067 184.33L73.1867 182.587ZM69.3923 180.454L68.4124 182.197L66.8404 181.314L67.5571 179.659L69.3923 180.454ZM141.172 14.7276L139.337 13.9327L139.827 12.8005L141.059 12.7308L141.172 14.7276ZM155.868 13.8961L155.755 11.8993L156.796 11.8405L157.44 12.6593L155.868 13.8961ZM164.664 25.0734L166.235 23.8366L166.64 24.351L166.662 25.0053L164.664 25.0734ZM164.939 33.1493L164.067 34.9492L162.981 34.4232L162.94 33.2174L164.939 33.1493ZM172.26 36.6963L173.132 34.8964L173.553 35.1003L173.84 35.4695L172.26 36.6963ZM210.423 85.4955L194.633 101.727L191.766 98.9379L207.555 82.7063L210.423 85.4955ZM194.231 102.046L167.039 118.429L164.974 115.003L192.167 98.6194L194.231 102.046ZM167.475 118.073L153.274 133.441L150.337 130.727L164.538 115.358L167.475 118.073ZM152.76 133.841L120.987 151.11L119.076 147.596L150.85 130.327L152.76 133.841ZM121.551 150.654L104.433 170.651L101.394 168.049L118.512 148.053L121.551 150.654ZM103.789 171.148L84.8481 180.373L83.0966 176.777L102.038 167.552L103.789 171.148ZM84.6695 180.45L73.8839 184.461L72.4895 180.712L83.2752 176.701L84.6695 180.45ZM72.2067 184.33L68.4124 182.197L70.3723 178.71L74.1667 180.843L72.2067 184.33ZM67.5571 179.659L139.337 13.9327L143.007 15.5225L71.2276 181.249L67.5571 179.659ZM141.059 12.7308L155.755 11.8993L155.981 15.8929L141.285 16.7244L141.059 12.7308ZM157.44 12.6593L166.235 23.8366L163.092 26.3102L154.297 15.1329L157.44 12.6593ZM166.662 25.0053L166.938 33.0812L162.94 33.2174L162.665 25.1415L166.662 25.0053ZM165.811 31.3494L173.132 34.8964L171.388 38.4962L164.067 34.9492L165.811 31.3494ZM173.84 35.4695L210.58 82.7732L207.421 85.2268L170.681 37.9231L173.84 35.4695Z" fill="black" mask="url(#path-1-inside-1)"/>
<path d="M254.849 320.196C217.357 232.561 159.387 172.858 124.8 138.481L139.5 129C172.101 162.647 232.465 230.369 265.554 316.704" fill="#54371C"/>
<path d="M254.849 320.196C217.357 232.561 159.387 172.858 124.8 138.481L139.5 129C172.101 162.647 232.465 230.369 265.554 316.704" stroke="black" stroke-width="2"/>
<mask id="path-5-inside-2" fill="white">
<path d="M255.674 302.364C229.335 241.114 192.722 191.018 162.031 161.018C157.174 156.794 131.766 134.161 131.766 134.161C139.338 128.661 139.294 127.934 141.766 130.161C181.838 167.161 240.92 250.175 266.774 315.276"/>
</mask>
<path d="M255.674 302.364C229.335 241.114 192.722 191.018 162.031 161.018C157.174 156.794 131.766 134.161 131.766 134.161C139.338 128.661 139.294 127.934 141.766 130.161C181.838 167.161 240.92 250.175 266.774 315.276" fill="#936037"/>
<path d="M162.031 161.018L162.687 160.263L162.709 160.282L162.73 160.303L162.031 161.018ZM131.766 134.161L131.1 134.908L130.173 134.082L131.178 133.352L131.766 134.161ZM141.766 130.161L142.435 129.418L142.444 129.426L141.766 130.161ZM254.755 302.759C228.465 241.624 191.926 191.638 161.332 161.733L162.73 160.303C193.518 190.398 230.204 240.604 256.593 301.969L254.755 302.759ZM161.375 161.772C158.941 159.656 151.369 152.937 144.413 146.753C140.933 143.66 137.605 140.698 135.147 138.51C133.918 137.417 132.906 136.516 132.202 135.889C131.85 135.575 131.574 135.33 131.387 135.163C131.293 135.08 131.222 135.016 131.173 134.973C131.149 134.951 131.131 134.935 131.119 134.924C131.113 134.919 131.108 134.915 131.105 134.912C131.104 134.911 131.102 134.91 131.102 134.909C131.101 134.909 131.101 134.908 131.101 134.908C131.101 134.908 131.1 134.908 131.766 134.161C132.431 133.414 132.431 133.414 132.431 133.415C132.431 133.415 132.431 133.415 132.432 133.415C132.433 133.416 132.434 133.417 132.435 133.419C132.438 133.421 132.443 133.425 132.449 133.431C132.461 133.442 132.48 133.458 132.504 133.479C132.552 133.522 132.624 133.586 132.717 133.67C132.904 133.836 133.18 134.082 133.532 134.395C134.236 135.022 135.248 135.923 136.476 137.017C138.934 139.204 142.262 142.165 145.741 145.258C152.703 151.447 160.264 158.156 162.687 160.263L161.375 161.772ZM131.178 133.352C133.078 131.972 134.458 130.923 135.583 130.097C136.671 129.299 137.527 128.703 138.249 128.36C139.017 127.996 139.76 127.855 140.551 128.128C141.235 128.363 141.84 128.882 142.435 129.418L141.096 130.904C140.456 130.327 140.139 130.101 139.9 130.019C139.767 129.973 139.585 129.94 139.107 130.167C138.585 130.415 137.878 130.893 136.767 131.709C135.693 132.496 134.239 133.6 132.353 134.97L131.178 133.352ZM142.444 129.426C182.626 166.528 241.794 249.667 267.704 314.907L265.845 315.645C240.045 250.684 181.049 167.794 141.087 130.896L142.444 129.426Z" fill="black" mask="url(#path-5-inside-2)"/>
<path d="M191.949 84.7435L140.271 17.3469L68.6475 73.1463L59.1855 86.0836L59.0086 86.3254L58.7525 86.4807L18.2741 111.027L30.0815 127.752L40.8533 126.26L43.3096 125.92L42.4705 128.254L39.1219 137.566L52.5986 155.648L60.1309 159.666L60.5383 159.883L60.753 160.292L70.1555 178.205L118.893 134.656L119.019 134.544L119.166 134.462L147.576 118.734L191.949 84.7435Z" fill="#AD7634" stroke="black" stroke-width="3"/>
<path d="M189.627 73.6183L183.761 68.2762L176.557 75.2873L189.627 73.6183Z" fill="#936037" stroke="black"/>
<path d="M162.711 36.8949L156.28 32.3947L127.711 59.18L162.711 36.8949Z" fill="#936037" stroke="black"/>
</svg>
