<svg width="72" height="72" viewBox="0 0 72 72" fill="none" xmlns="http://www.w3.org/2000/svg">
<path d="M27.3417 17.4546C17.033 22.3704 12.6641 34.7041 17.5799 45.0128C22.4956 55.3215 34.8294 59.6905 45.138 54.7747C55.4467 49.8589 59.8157 37.5252 54.8999 27.2165C49.8537 16.97 37.5199 12.6011 27.3417 17.4546ZM43.2713 50.86C35.0504 54.7802 25.222 51.2987 21.3641 43.2083C17.4439 34.9874 20.9254 25.159 29.1463 21.2388C37.3671 17.3187 47.1956 20.8002 51.1157 29.021C54.8432 37.1736 51.3617 47.0021 43.2713 50.86Z" fill="#FAB523"/>
<path d="M31.286 24.3829L33.3129 37.0301L38.161 37.1207L39.7576 24.3472L31.286 24.3829Z" fill="#FAB523"/>
<path d="M33.6137 41.6916L34.4064 47.7201L39.5957 46.8471C39.1142 41.471 33.6137 41.6916 33.6137 41.6916Z" fill="#FAB523"/>
</svg>
