<?xml version="1.0" encoding="UTF-8" standalone="no"?>
<svg
   xmlns:dc="http://purl.org/dc/elements/1.1/"
   xmlns:cc="http://creativecommons.org/ns#"
   xmlns:rdf="http://www.w3.org/1999/02/22-rdf-syntax-ns#"
   xmlns:svg="http://www.w3.org/2000/svg"
   xmlns="http://www.w3.org/2000/svg"
   xmlns:sodipodi="http://sodipodi.sourceforge.net/DTD/sodipodi-0.dtd"
   xmlns:inkscape="http://www.inkscape.org/namespaces/inkscape"
   width="31"
   height="31"
   viewBox="0 0 31 31"
   fill="none"
   version="1.1"
   id="svg30"
   sodipodi:docname="googleAuth.svg"
   inkscape:version="1.0.1 (3bc2e813f5, 2020-09-07)">
  <metadata
     id="metadata36">
    <rdf:RDF>
      <cc:Work
         rdf:about="">
        <dc:format>image/svg+xml</dc:format>
        <dc:type
           rdf:resource="http://purl.org/dc/dcmitype/StillImage" />
        <dc:title></dc:title>
      </cc:Work>
    </rdf:RDF>
  </metadata>
  <defs
     id="defs34" />
  <sodipodi:namedview
     pagecolor="#ffffff"
     bordercolor="#666666"
     borderopacity="1"
     objecttolerance="10"
     gridtolerance="10"
     guidetolerance="10"
     inkscape:pageopacity="0"
     inkscape:pageshadow="2"
     inkscape:window-width="1920"
     inkscape:window-height="1017"
     id="namedview32"
     showgrid="false"
     inkscape:zoom="5.2886179"
     inkscape:cx="123"
     inkscape:cy="29"
     inkscape:window-x="1672"
     inkscape:window-y="-8"
     inkscape:window-maximized="1"
     inkscape:current-layer="svg30" />
  <path
     d="M 15.5,31 C 24.0604,31 31,24.0604 31,15.5 31,6.9396 24.0604,0 15.5,0 6.93959,0 0,6.9396 0,15.5 0,24.0604 6.93959,31 15.5,31 Z"
     fill="#616161"
     id="path2" />
  <path
     d="m 15.5,25.3633 c -5.4481,0 -9.8633,-4.4152 -9.8633,-9.8633 0,-5.4481 4.4152,-9.8633 9.8633,-9.8633 2.7228,0 5.1883,1.1041 6.9744,2.8889 L 26.4599,4.54009 C 23.6547,1.73485 19.7791,0 15.5,0 6.9394,0 0,6.9394 0,15.5 0,24.0606 6.9394,31 15.5,31 c 4.2803,0 8.1547,-1.7348 10.9612,-4.5388 l -3.9856,-3.9856 c -1.7873,1.7836 -4.2528,2.8877 -6.9756,2.8877 z"
     fill="#9e9e9e"
     id="path4" />
  <path
     d="m 25.3629,15.4999 h -4.9322 c 0,-2.7228 -2.2083,-4.9323 -4.9323,-4.9323 -2.7241,0 -4.931,2.2082 -4.931,4.9323 0,1.3264 0.5246,2.5292 1.3776,3.4172 l -0.0037,0.0038 6.1063,6.1063 0.0012,0.0013 c 4.2116,-1.1241 7.3141,-4.9635 7.3141,-9.5286 z"
     fill="#424242"
     id="path6" />
  <path
     d="m 30.9984,15.5 h -5.6367 c 0,4.5651 -3.1038,8.4045 -7.3129,9.5286 l 4.3528,4.3527 C 27.4975,26.8421 30.9984,21.5801 30.9984,15.5 Z"
     fill="#616161"
     id="path8" />
  <path
     d="M 15.5,30.8227 C 6.96938,30.8227 0.0499597,23.9307 0.001249,15.4114 0.001249,15.4414 0,15.4701 0,15.5001 0,24.0606 6.9394,31 15.5,31 24.0606,31 31,24.0606 31,15.5001 31,15.4701 30.9988,15.4414 30.9988,15.4114 30.95,23.9307 24.0294,30.8227 15.5,30.8227 Z"
     fill="#212121"
     fill-opacity="0.1"
     id="path10" />
  <path
     d="m 18.0498,25.0286 0.1374,0.1374 c 4.1391,-1.1691 7.1754,-4.9735 7.1754,-9.4899 V 15.5 c 0,4.5651 -3.1037,8.4045 -7.3128,9.5286 z"
     fill="#ffffff"
     fill-opacity="0.05"
     id="path12" />
  <path
     d="M 28.1819,14.0906 H 15.4997 c -0.7781,0 -1.4089,0.6307 -1.4089,1.4088 0,0.7782 0.6308,1.4089 1.4089,1.4089 h 12.681 c 0.7781,0 1.4088,-0.6307 1.4088,-1.4089 0.0013,-0.7781 -0.6294,-1.4088 -1.4076,-1.4088 z"
     fill="#9e9e9e"
     id="path14" />
  <path
     opacity="0.5"
     d="M 28.1819,14.0906 H 15.4997 c -0.7781,0 -1.4089,0.6307 -1.4089,1.4088 0,0.7782 0.6308,1.4089 1.4089,1.4089 h 12.681 c 0.7781,0 1.4088,-0.6307 1.4088,-1.4089 0.0013,-0.7781 -0.6294,-1.4088 -1.4076,-1.4088 z"
     fill="#bdbdbd"
     id="path16" />
  <path
     d="m 2.81739,16.5567 c 0.58357,0 1.05665,-0.4731 1.05665,-1.0567 0,-0.5836 -0.47308,-1.0566 -1.05665,-1.0566 -0.58357,0 -1.05665,0.473 -1.05665,1.0566 0,0.5836 0.47308,1.0567 1.05665,1.0567 z"
     fill="#bdbdbd"
     id="path18" />
  <path
     d="m 15.5,3.87428 c 0.5836,0 1.0567,-0.47308 1.0567,-1.05665 0,-0.58357 -0.4731,-1.05664 -1.0567,-1.05664 -0.5836,0 -1.0566,0.47307 -1.0566,1.05664 0,0.58357 0.473,1.05665 1.0566,1.05665 z"
     fill="#bdbdbd"
     id="path20" />
  <path
     d="m 15.5,29.2376 c 0.5836,0 1.0567,-0.4731 1.0567,-1.0567 0,-0.5836 -0.4731,-1.0566 -1.0567,-1.0566 -0.5836,0 -1.0566,0.473 -1.0566,1.0566 0,0.5836 0.473,1.0567 1.0566,1.0567 z"
     fill="#bdbdbd"
     id="path22" />
  <path
     d="m 6.51758,7.5889 c 0.58357,0 1.05665,-0.4731 1.05665,-1.0567 0,-0.5835 -0.47308,-1.0566 -1.05665,-1.0566 -0.58357,0 -1.05664,0.4731 -1.05664,1.0566 0,0.5836 0.47307,1.0567 1.05664,1.0567 z"
     fill="#bdbdbd"
     id="path24" />
  <path
     d="m 6.51758,25.5391 c 0.58357,0 1.05665,-0.4731 1.05665,-1.0567 0,-0.5835 -0.47308,-1.0566 -1.05665,-1.0566 -0.58357,0 -1.05664,0.4731 -1.05664,1.0566 0,0.5836 0.47307,1.0567 1.05664,1.0567 z"
     fill="#bdbdbd"
     id="path26" />
  <path
     d="m 15.5007,14.2672 h 12.681 c 0.7481,0 1.3601,0.5845 1.4038,1.3214 0.0013,-0.03 0.005,-0.0587 0.005,-0.0887 0,-0.7781 -0.6307,-1.4088 -1.4088,-1.4088 h -12.681 c -0.7782,0 -1.4089,0.6307 -1.4089,1.4088 0,0.03 0.0012,0.0587 0.005,0.0887 0.0437,-0.7369 0.6545,-1.3214 1.4039,-1.3214 z"
     fill="#ffffff"
     fill-opacity="0.2"
     id="path28" />
</svg>
