<?xml version="1.0" encoding="UTF-8" standalone="no"?>
<svg
   xmlns:dc="http://purl.org/dc/elements/1.1/"
   xmlns:cc="http://creativecommons.org/ns#"
   xmlns:rdf="http://www.w3.org/1999/02/22-rdf-syntax-ns#"
   xmlns:svg="http://www.w3.org/2000/svg"
   xmlns="http://www.w3.org/2000/svg"
   xmlns:sodipodi="http://sodipodi.sourceforge.net/DTD/sodipodi-0.dtd"
   xmlns:inkscape="http://www.inkscape.org/namespaces/inkscape"
   width="31"
   height="31"
   viewBox="0 0 31 31"
   fill="none"
   version="1.1"
   id="svg30"
   sodipodi:docname="googleAuth.svg"
   inkscape:version="1.0.1 (3bc2e813f5, 2020-09-07)">
  <metadata
     id="metadata36">
    <rdf:RDF>
      <cc:Work
         rdf:about="">
        <dc:format>image/svg+xml</dc:format>
        <dc:type
           rdf:resource="http://purl.org/dc/dcmitype/StillImage" />
        <dc:title />
      </cc:Work>
    </rdf:RDF>
  </metadata>
  <defs
     id="defs34" />
  <sodipodi:namedview
     pagecolor="#ffffff"
     bordercolor="#666666"
     borderopacity="1"
     objecttolerance="10"
     gridtolerance="10"
     guidetolerance="10"
     inkscape:pageopacity="0"
     inkscape:pageshadow="2"
     inkscape:window-width="1920"
     inkscape:window-height="1017"
     id="namedview32"
     showgrid="false"
     inkscape:zoom="3.7396176"
     inkscape:cx="4.6605515"
     inkscape:cy="33.726133"
     inkscape:window-x="-8"
     inkscape:window-y="-8"
     inkscape:window-maximized="1"
     inkscape:current-layer="svg30"
     inkscape:document-rotation="0" />
  <path
     d="m 16.034814,28.32593 c 7.083554,0 12.82593,-5.742376 12.82593,-12.82593 0,-7.0835542 -5.742376,-12.8259298 -12.82593,-12.8259298 -7.0835623,0 -12.8259297,5.7423756 -12.8259297,12.8259298 0,7.083554 5.7423674,12.82593 12.8259297,12.82593 z"
     fill="#616161"
     id="path2"
     style="stroke-width:1" />
  <path
     d="m 16.034814,23.661677 c -4.50819,0 -8.1616769,-3.653487 -8.1616769,-8.161677 0,-4.50819 3.6534869,-8.1616772 8.1616769,-8.1616772 2.253061,0 4.293211,0.91362 5.771172,2.390505 L 25.103905,6.4309009 C 22.78266,4.1096227 19.575681,2.6740702 16.034814,2.6740702 8.9510944,2.6740702 3.2088843,8.4162808 3.2088843,15.5 c 0,7.08372 5.7422101,12.82593 12.8259297,12.82593 3.54186,0 6.747846,-1.435511 9.070166,-3.755763 l -3.298001,-3.298002 c -1.478954,1.475892 -3.519104,2.389512 -5.772165,2.389512 z"
     fill="#9e9e9e"
     id="path4"
     style="stroke-width:1" />
  <path
     d="m 24.19616,15.499917 h -4.081294 c 0,-2.25306 -1.827322,-4.081376 -4.081376,-4.081376 -2.254137,0 -4.080301,1.82724 -4.080301,4.081376 0,1.097569 0.434096,2.092861 1.139936,2.827663 l -0.0031,0.0031 5.052837,5.052837 9.93e-4,0.0011 c 3.485012,-0.930169 6.052267,-4.107194 6.052267,-7.88472 z"
     fill="#424242"
     id="path6"
     style="stroke-width:1" />
  <path
     d="m 28.85942,15.5 h -4.664253 c 0,3.777526 -2.568331,6.95455 -6.051274,7.88472 l 3.601852,3.601769 C 25.962497,24.885354 28.85942,20.531157 28.85942,15.5 Z"
     fill="#616161"
     id="path8"
     style="stroke-width:1" />
  <path
     d="m 16.034814,28.179218 c -7.0589117,0 -12.7845891,-5.702988 -12.8248962,-12.752532 0,0.02482 -0.00103,0.04857 -0.00103,0.0734 0,7.083637 5.7422101,12.825847 12.8259297,12.825847 7.083719,0 12.82593,-5.74221 12.82593,-12.825847 0,-0.02482 -9.93e-4,-0.04857 -9.93e-4,-0.0734 -0.04038,7.049544 -5.767035,12.752532 -12.824937,12.752532 z"
     fill="#212121"
     fill-opacity="0.1"
     id="path10"
     style="stroke-width:1" />
  <path
     d="m 18.144721,23.38472 0.113695,0.113695 c 3.42502,-0.967406 5.937496,-4.115468 5.937496,-7.852696 V 15.5 c 0,3.777526 -2.568248,6.95455 -6.051191,7.88472 z"
     fill="#ffffff"
     fill-opacity="0.05"
     id="path12"
     style="stroke-width:1" />
  <path
     d="M 26.528824,14.333751 H 16.034566 c -0.643862,0 -1.165836,0.521891 -1.165836,1.165753 0,0.643944 0.521974,1.165835 1.165836,1.165835 h 10.493265 c 0.643862,0 1.165753,-0.521891 1.165753,-1.165835 0.0011,-0.643862 -0.520816,-1.165753 -1.16476,-1.165753 z"
     fill="#9e9e9e"
     id="path14"
     style="stroke-width:1" />
  <path
     opacity="0.5"
     d="M 26.528824,14.333751 H 16.034566 c -0.643862,0 -1.165836,0.521891 -1.165836,1.165753 0,0.643944 0.521974,1.165835 1.165836,1.165835 h 10.493265 c 0.643862,0 1.165753,-0.521891 1.165753,-1.165835 0.0011,-0.643862 -0.520816,-1.165753 -1.16476,-1.165753 z"
     fill="#bdbdbd"
     id="path16"
     style="stroke-width:1" />
  <path
     d="m 5.5402163,16.374398 c 0.4828921,0 0.8743561,-0.391481 0.8743561,-0.874398 0,-0.482917 -0.391464,-0.874315 -0.8743561,-0.874315 -0.4828921,0 -0.874356,0.391398 -0.874356,0.874315 0,0.482917 0.3914639,0.874398 0.874356,0.874398 z"
     fill="#bdbdbd"
     id="path18"
     style="stroke-width:1" />
  <path
     d="m 16.034814,5.8799569 c 0.482917,0 0.874397,-0.391464 0.874397,-0.8743561 0,-0.4828921 -0.39148,-0.8743478 -0.874397,-0.8743478 -0.482917,0 -0.874315,0.3914557 -0.874315,0.8743478 0,0.4828921 0.391398,0.8743561 0.874315,0.8743561 z"
     fill="#bdbdbd"
     id="path20"
     style="stroke-width:1" />
  <path
     d="m 16.034814,26.86758 c 0.482917,0 0.874397,-0.39148 0.874397,-0.874397 0,-0.482917 -0.39148,-0.874315 -0.874397,-0.874315 -0.482917,0 -0.874315,0.391398 -0.874315,0.874315 0,0.482917 0.391398,0.874397 0.874315,0.874397 z"
     fill="#bdbdbd"
     id="path22"
     style="stroke-width:1" />
  <path
     d="m 8.6020471,8.9537278 c 0.4828921,0 0.874356,-0.39148 0.874356,-0.874397 0,-0.482834 -0.3914639,-0.8743147 -0.874356,-0.8743147 -0.4828921,0 -0.8743478,0.3914807 -0.8743478,0.8743147 0,0.482917 0.3914557,0.874397 0.8743478,0.874397 z"
     fill="#bdbdbd"
     id="path24"
     style="stroke-width:1" />
  <path
     d="m 8.6020471,23.807148 c 0.4828921,0 0.874356,-0.39148 0.874356,-0.874397 0,-0.482835 -0.3914639,-0.874315 -0.874356,-0.874315 -0.4828921,0 -0.8743478,0.39148 -0.8743478,0.874315 0,0.482917 0.3914557,0.874397 0.8743478,0.874397 z"
     fill="#bdbdbd"
     id="path26"
     style="stroke-width:1" />
  <path
     d="m 16.035393,14.479884 h 10.493266 c 0.619037,0 1.125454,0.483661 1.161615,1.093431 0.0011,-0.02482 0.0041,-0.04857 0.0041,-0.0734 0,-0.643861 -0.521891,-1.165752 -1.165752,-1.165752 H 16.035393 c -0.643944,0 -1.165836,0.521891 -1.165836,1.165752 0,0.02482 9.93e-4,0.04857 0.0041,0.0734 0.03616,-0.60977 0.541585,-1.093431 1.161698,-1.093431 z"
     fill="#ffffff"
     fill-opacity="0.2"
     id="path28"
     style="stroke-width:1" />
</svg>
