<svg width="45" height="34" viewBox="0 0 45 34" fill="none" xmlns="http://www.w3.org/2000/svg">
<path fill-rule="evenodd" clip-rule="evenodd" d="M40.4786 3.04211H4.18744C3.81725 3.04211 3.46222 3.18917 3.20045 3.45094C2.93868 3.7127 2.79163 4.06773 2.79163 4.43793V29.5626C2.79163 29.9328 2.93868 30.2878 3.20045 30.5496C3.46222 30.8113 3.81725 30.9584 4.18744 30.9584H40.4786C40.8488 30.9584 41.2038 30.8113 41.4656 30.5496C41.7273 30.2878 41.8744 29.9328 41.8744 29.5626V4.43793C41.8744 4.06773 41.7273 3.7127 41.4656 3.45094C41.2038 3.18917 40.8488 3.04211 40.4786 3.04211ZM4.18744 0.250488C3.07686 0.250488 2.01177 0.691664 1.22647 1.47696C0.441175 2.26226 0 3.32735 0 4.43793L0 29.5626C0 30.6731 0.441175 31.7382 1.22647 32.5235C2.01177 33.3088 3.07686 33.75 4.18744 33.75H40.4786C41.5891 33.75 42.6542 33.3088 43.4395 32.5235C44.2248 31.7382 44.666 30.6731 44.666 29.5626V4.43793C44.666 3.32735 44.2248 2.26226 43.4395 1.47696C42.6542 0.691664 41.5891 0.250488 40.4786 0.250488H4.18744Z" fill="#400800"/>
<path d="M29.7249 16.0115C29.9322 15.8047 30.1993 15.6684 30.4884 15.6218C30.7775 15.5752 31.0739 15.6207 31.3357 15.7518L41.8796 21.1871V30.9578H2.79688V28.1662L10.1835 21.5947C10.4117 21.3674 10.7115 21.2259 11.032 21.1944C11.3525 21.1628 11.6741 21.2431 11.9422 21.4216L19.368 26.3712L29.7249 16.0142V16.0115Z" fill="#400800"/>
<path fill-rule="evenodd" clip-rule="evenodd" d="M12.5683 14.2081C13.1182 14.2081 13.6627 14.0998 14.1708 13.8894C14.6788 13.6789 15.1404 13.3705 15.5293 12.9817C15.9181 12.5928 16.2265 12.1312 16.437 11.6232C16.6474 11.1151 16.7557 10.5706 16.7557 10.0207C16.7557 9.47079 16.6474 8.92627 16.437 8.41823C16.2265 7.91018 15.9181 7.44856 15.5293 7.05972C15.1404 6.67088 14.6788 6.36244 14.1708 6.152C13.6627 5.94156 13.1182 5.83325 12.5683 5.83325C11.4577 5.83325 10.3926 6.27443 9.60733 7.05972C8.82203 7.84502 8.38086 8.91011 8.38086 10.0207C8.38086 11.1313 8.82203 12.1964 9.60733 12.9817C10.3926 13.767 11.4577 14.2081 12.5683 14.2081Z" fill="#400800"/>
</svg>
