<svg width="66" height="20" viewBox="0 0 66 20" fill="none" xmlns="http://www.w3.org/2000/svg">
<rect x="0.25" y="0.25" width="27.5" height="19.5" rx="1.75" fill="white" stroke="#F5F5F5" stroke-width="0.5"/>
<mask id="mask0" mask-type="alpha" maskUnits="userSpaceOnUse" x="0" y="0" width="28" height="20">
<rect x="0.25" y="0.25" width="27.5" height="19.5" rx="1.75" fill="white" stroke="white" stroke-width="0.5"/>
</mask>
<g mask="url(#mask0)">
<path fill-rule="evenodd" clip-rule="evenodd" d="M0 13.3334H28V6.66675H0V13.3334Z" fill="#0C47B7"/>
<path fill-rule="evenodd" clip-rule="evenodd" d="M0 19.9999H28V13.3333H0V19.9999Z" fill="#E53B35"/>
</g>
<rect x="38" width="28" height="20" rx="2" fill="white"/>
<mask id="mask1" mask-type="alpha" maskUnits="userSpaceOnUse" x="38" y="0" width="28" height="20">
<rect x="38" width="28" height="20" rx="2" fill="white"/>
</mask>
<g mask="url(#mask1)">
<rect x="38" width="28" height="20" fill="#0A17A7"/>
<path fill-rule="evenodd" clip-rule="evenodd" d="M36.7175 -1.9165L48.6666 6.14329V-1.33339H55.3333V6.14329L67.2824 -1.9165L68.7736 0.294263L59.3262 6.66661H66V13.3333H59.3262L68.7736 19.7056L67.2824 21.9164L55.3333 13.8566V21.3333H48.6666V13.8566L36.7175 21.9164L35.2263 19.7056L44.6737 13.3333H38V6.66661H44.6737L35.2263 0.294263L36.7175 -1.9165Z" fill="white"/>
<path d="M56.668 6.33219L69.3333 -2" stroke="#DB1F35" stroke-width="0.666667" stroke-linecap="round"/>
<path d="M58.0128 13.6975L69.3667 21.3503" stroke="#DB1F35" stroke-width="0.666667" stroke-linecap="round"/>
<path d="M46.0055 6.31055L34.1625 -1.6709" stroke="#DB1F35" stroke-width="0.666667" stroke-linecap="round"/>
<path d="M47.29 13.605L34.1625 22.3105" stroke="#DB1F35" stroke-width="0.666667" stroke-linecap="round"/>
<path fill-rule="evenodd" clip-rule="evenodd" d="M38 12H50V20H54V12H66V8H54V0H50V8H38V12Z" fill="#E6273E"/>
</g>
</svg>
