<svg width="502" height="257" viewBox="0 0 502 257" fill="none" xmlns="http://www.w3.org/2000/svg">
<path d="M99.2809 75.2075L99.2851 75.2616C99.4062 76.8454 99.5314 78.1 99.7887 79.37C100.828 85.535 102.455 90.5589 104.017 95.3781C104.444 96.6972 104.866 98.001 105.27 99.3086C105.215 99.4407 105.139 99.61 105.042 99.8158C104.767 100.398 104.367 101.178 103.91 102.036C102.996 103.751 101.891 105.704 101.184 106.86L100.884 107.349L101.009 107.909C101.94 112.097 102.215 117.898 102.185 123.867C102.156 129.592 101.848 135.369 101.609 139.858L101.582 140.368L101.582 140.369M99.2809 75.2075L101.549 160.23C102.154 153.899 102.638 147.172 103 140.445L101.582 140.369M99.2809 75.2075V75.1533V41.5184V39.8247L100.949 40.1195C112.86 42.2251 124.775 41.489 136.886 40.7407C138.225 40.658 139.566 40.5752 140.909 40.496L140.919 40.4954C148.589 40.0973 156.29 40.0955 164.008 40.8968L164.676 40.9663C172.068 41.734 179.309 42.4862 186.66 42.8685C194.448 43.0291 202.207 41.7524 210.106 40.4528C211.607 40.206 213.112 39.9583 214.623 39.7195C224.024 38.2343 233.608 37.1066 243.241 38.9328C247.88 39.7098 252.515 40.0978 257.027 40.0978H257.204L257.376 40.1414C272.782 44.0472 288.208 44.4437 303.673 42.4833L303.689 42.4813L303.705 42.4797C308.874 41.9414 314.087 41.2493 319.328 40.5536C333.145 38.7194 347.153 36.8599 361.035 37.7254C364.314 37.8614 367.549 38.0853 370.756 38.3073C377.058 38.7435 383.251 39.1721 389.457 38.912L389.487 38.9107H389.516C394.332 38.9107 399.069 38.4247 403.844 37.929L404.012 37.9115C408.707 37.424 413.444 36.9322 418.192 36.9322C420.899 36.9322 423.666 37.0863 426.385 37.2377C428.052 37.3305 429.702 37.4224 431.308 37.4771C435.618 37.6239 439.832 37.5212 444.012 36.5718L444.032 36.5674L444.051 36.5636C445.263 36.3234 446.527 36.0352 447.819 35.7407C450.598 35.1073 453.504 34.4449 456.286 34.1692L457.828 34.0164L457.847 35.5651C458.089 54.9605 458.09 74 456.755 93.4477C456.646 95.2267 456.526 96.9981 456.406 98.7638C455.989 104.909 455.576 110.986 455.669 117.076C455.789 124.896 456.625 131.532 457.938 137.778L458.125 138.668L457.395 139.21C455.781 140.41 454.17 140.75 452.764 140.959C452.506 140.998 452.262 141.031 452.027 141.064C451.136 141.187 450.389 141.29 449.655 141.54C450.798 144.525 452.164 146.777 453.595 149.118C454.529 150.263 455.54 151.51 456.431 153.158C456.775 153.675 456.949 154.265 457.046 154.804C457.15 155.384 457.182 156.009 457.182 156.619C457.182 157.431 457.121 158.35 457.065 159.201C457.041 159.582 457.016 159.949 456.999 160.286C456.755 168.791 456.621 177.11 456.486 185.501C456.42 189.59 456.353 193.696 456.274 197.849L456.274 197.851C456.213 200.818 456.153 203.884 456.092 206.95L456.092 206.951L456.092 206.952C456.032 210.013 455.972 213.075 455.911 216.039C455.911 219.223 455.914 222.285 456.262 224.941H456.262L456.264 224.953C456.538 227.193 456.87 229.533 457.21 231.924C457.754 235.743 458.315 239.694 458.688 243.588L458.756 244.308L458.215 244.787C452.065 250.234 445.632 251.477 439.324 251.426C436.476 251.403 433.626 251.115 430.867 250.836C430.603 250.81 430.34 250.783 430.078 250.757C427.051 250.454 424.133 250.193 421.279 250.287L421.08 250.298C413.906 250.689 406.759 251.078 399.482 250.682C392.18 250.284 384.756 249.488 377.453 248.295L377.443 248.294C365.195 246.707 353.336 245.171 341.389 247.492L341.374 247.495L341.359 247.498C336.623 248.313 331.889 249.467 327.1 250.635C326.139 250.869 325.176 251.104 324.209 251.337C318.457 252.723 312.63 254.029 306.781 254.633L306.778 254.634C294.924 255.833 283.221 253.859 271.622 251.904L271.31 251.851L271.289 251.848L271.267 251.843C259.497 249.487 247.709 248.305 235.759 247.515L235.75 247.515L235.741 247.514C228.614 246.951 221.459 246.518 214.285 246.084C176.228 243.779 137.632 241.442 99.87 219.628L99.16 219.218V218.398V189.908V189.574L99.3084 189.275C100.094 187.695 101.362 185.128 102.432 182.91C102.968 181.799 103.45 180.783 103.798 180.024C103.972 179.642 104.107 179.337 104.196 179.122C104.197 179.121 104.197 179.12 104.198 179.118C103.503 175.413 102.697 172.41 101.776 169.394C101.426 168.452 100.963 166.497 100.622 164.699C100.444 163.765 100.29 162.828 100.196 162.036C100.15 161.641 100.115 161.266 100.102 160.936C100.091 160.663 100.091 160.337 100.14 160.037M99.2809 75.2075L100.14 160.037M101.582 140.369C101.221 147.059 100.74 153.745 100.14 160.037M101.582 140.369L100.14 160.037" fill="#AD7634" stroke="black" stroke-width="2.84118"/>
<path d="M298.892 254.803C301.675 254.803 304.337 254.803 306.877 254.407C313.774 253.616 320.671 252.033 327.447 250.45C332.044 249.263 336.763 248.076 341.361 247.285C345.475 246.493 349.831 246.098 354.67 246.098C362.535 246.098 370.642 247.285 377.901 248.076H378.748C385.645 248.868 392.784 249.659 399.801 250.055C401.253 250.055 402.705 250.055 404.157 250.055C407.666 250.055 411.296 250.055 414.805 249.659C416.983 249.659 419.282 249.263 421.46 249.263C424.726 249.263 427.993 249.659 431.26 249.659C434.043 250.055 437.068 250.055 439.972 250.055C447.231 250.055 452.797 248.076 457.758 243.723L458 243.328L457.879 242.536C457.516 238.184 456.911 234.226 456.427 230.269C456.064 227.895 455.822 225.917 455.58 223.542C455.217 221.168 455.217 218.398 455.217 214.837C455.217 211.276 455.338 208.11 455.459 204.549C455.459 201.779 455.58 199.404 455.58 196.635C455.58 194.26 455.701 191.886 455.701 189.512C455.822 179.619 455.943 168.935 456.306 159.043C456.306 158.647 456.306 157.855 456.427 157.46C456.548 155.481 456.669 153.107 455.822 151.524C455.217 150.733 454.612 149.941 454.007 149.15C453.644 148.754 453.402 148.359 453.039 147.963C451.345 145.589 450.135 143.214 448.925 140.445C450.014 140.049 451.103 140.049 452.192 139.653C453.765 139.653 455.338 139.257 456.911 138.07L457.274 137.675L457.032 136.487C455.58 129.76 454.975 123.033 454.854 115.911C454.733 109.58 455.217 103.248 455.701 96.917C455.822 95.3342 455.943 94.1471 456.064 92.5642C457.395 71.9876 457.395 51.8067 457.153 34.7914V34H456.911C453.644 34.3957 450.256 35.1871 447.11 35.5828C446.384 35.5828 445.538 35.9785 444.812 35.9785C441.666 36.7699 438.399 37.1656 434.406 37.1656C431.623 37.1656 428.84 37.1656 426.057 36.7699C423.637 36.7699 421.097 36.3742 418.677 36.3742H417.951C412.748 36.3742 407.545 37.1656 402.463 37.5613C398.471 37.9571 394.357 38.3527 390.243 38.7484C388.67 38.7484 387.097 38.7484 385.524 38.7484C379.716 38.7484 373.788 38.3527 368.101 37.957C365.923 37.957 363.745 37.5613 361.567 37.5613C359.268 37.5613 356.848 37.1656 354.307 37.1656C342.692 37.1656 330.834 38.7484 319.34 40.3313C314.379 41.1227 309.418 41.5184 304.337 42.3098C298.045 43.1012 292.237 43.4969 286.671 43.4969C276.266 43.4969 266.707 42.3098 257.511 39.9356C252.43 39.9356 247.832 39.5399 243.476 38.7484C240.088 37.957 236.579 37.5613 232.708 37.5613C225.327 37.5613 217.825 38.7485 210.565 39.9356C202.822 41.1227 194.836 42.7055 187.092 42.3098C181.769 42.3098 176.324 41.5184 171 41.1227C168.822 40.727 166.523 40.727 164.345 40.3313C160.595 39.9356 156.602 39.9356 152.367 39.9356C149.1 39.9356 145.47 39.9356 141.477 40.3313C139.541 40.3313 137.606 40.727 135.67 40.727C130.104 41.1227 124.296 41.5184 118.609 41.5184C112.076 41.5184 106.389 41.1227 101.186 40.3313H100.944V75.1533C101.186 76.7361 101.307 77.9232 101.428 79.1103C102.638 86.6287 104.574 92.1685 106.51 97.7084L106.873 98.4998C106.268 99.6869 104.695 102.853 103.727 104.435C103.364 105.227 103.122 105.622 102.88 106.018L102.638 106.414L102.88 107.205C104.695 114.724 103.969 128.573 103.485 137.675L103.364 139.257C103.001 145.984 102.517 152.711 101.912 159.043C101.67 161.021 103.243 167.352 103.606 168.935C104.453 171.705 105.3 174.871 106.026 178.432C105.421 180.015 103.243 184.368 101.186 188.325L101.065 188.72V218.398H101.307C138.936 239.766 177.776 242.536 215.405 244.515C222.423 244.91 229.562 245.306 236.7 246.098C250.494 247.285 261.867 248.472 272.273 250.45C280.38 253.22 289.575 254.803 298.892 254.803ZM354.67 244.119C349.831 244.119 345.475 244.515 341.24 245.306C336.642 246.098 331.802 247.285 327.326 248.472C320.55 250.055 313.653 251.637 306.756 252.429C304.216 252.825 301.554 252.825 298.892 252.825C289.696 252.825 280.38 251.242 271.668 249.659C261.141 247.68 249.768 246.098 235.974 245.306C228.836 244.91 221.697 244.119 214.679 243.723C177.171 241.349 138.453 238.975 100.944 217.607V190.303C105.905 180.411 105.905 180.015 106.026 179.224V178.828L105.905 178.432C105.179 174.475 104.332 170.914 103.364 167.748C102.759 165.77 101.791 160.625 101.791 159.834C102.396 153.503 102.88 146.776 103.243 139.653L103.364 138.07C103.848 128.969 104.574 115.515 102.88 107.205C103.122 106.81 103.243 106.414 103.485 106.018C106.873 99.6869 107.115 99.2912 107.115 98.4998V98.1041L106.994 97.7084L106.51 96.1256C104.574 90.5857 102.638 85.0459 101.549 77.9232C101.428 76.7361 101.186 75.9447 101.065 74.3618V41.9141C106.147 42.7055 111.834 43.1012 118.246 43.1012C123.933 43.1012 129.741 42.7055 135.307 42.3098C137.243 42.3098 139.178 41.9141 141.114 41.9141C145.107 41.5184 148.737 41.5184 152.004 41.5184C156.36 41.5184 160.232 41.5184 163.982 41.9141C166.16 42.3098 168.459 42.3098 170.637 42.7055C175.84 43.1012 181.285 43.8926 186.729 43.8926C194.594 43.8926 202.58 42.7055 210.323 41.5184C217.583 40.3313 225.085 39.1441 232.466 39.1441C236.337 39.1441 239.846 39.5399 243.234 40.3313C247.711 41.1227 252.309 41.5184 257.39 41.5184C266.586 43.8926 276.145 45.0797 286.55 45.0797C292.237 45.0797 297.924 44.684 304.216 43.8926C309.176 43.4969 314.258 42.7055 319.219 41.9141C330.713 40.3313 342.45 38.7484 354.186 38.7484C356.606 38.7484 359.026 38.7484 361.446 39.1441C363.624 39.1441 365.802 39.5399 367.98 39.5399C373.667 39.9356 379.595 40.3313 385.403 40.3313C386.976 40.3313 388.549 40.3313 390.122 40.3313C394.236 40.3313 398.35 39.5398 402.342 39.1441C407.424 38.7484 412.627 37.957 417.83 37.957H418.556C420.976 37.957 423.516 37.957 425.936 38.3527C428.719 38.3527 431.502 38.7484 434.285 38.7484C438.278 38.7484 441.666 38.3528 444.691 37.5613C445.417 37.5613 446.263 37.1656 446.989 37.1656C450.135 36.3742 453.281 35.5828 456.548 35.5828C456.79 52.2024 456.79 71.9876 455.459 92.1685C455.338 93.7514 455.217 94.9385 455.096 96.5213C454.612 102.853 454.128 109.58 454.249 115.911C454.37 123.033 454.975 129.365 456.306 136.092C454.975 136.883 453.523 137.279 452.071 137.279C450.982 137.279 449.893 137.675 448.804 138.07C448.562 138.07 448.32 138.862 448.32 139.653C448.32 140.444 448.32 140.84 448.562 141.236C449.772 144.402 451.103 146.776 452.797 149.15C453.16 149.546 453.402 149.941 453.765 150.337C454.37 151.129 454.975 151.92 455.58 152.711C456.064 153.503 456.064 154.294 455.822 156.668C455.822 157.064 455.701 157.855 455.701 158.251C455.338 168.54 455.217 178.828 455.096 189.116C455.096 191.49 454.975 193.865 454.975 196.239C454.975 199.009 454.854 201.383 454.854 204.153C454.733 207.714 454.733 210.88 454.612 214.441C454.612 218.398 454.733 221.168 455.096 223.938C455.338 225.917 455.701 228.291 455.943 230.665C456.427 234.226 456.911 238.183 457.274 241.745C452.434 245.702 447.11 247.68 439.972 247.68C437.068 247.68 434.164 247.285 431.381 247.285C428.114 246.889 424.847 246.493 421.581 246.889C419.403 246.889 417.104 246.889 414.926 247.285C411.417 247.285 407.908 247.68 404.399 247.68C402.947 247.68 401.495 247.68 400.043 247.68C393.026 247.285 385.887 246.493 378.99 245.702H378.143C370.642 245.306 362.535 244.119 354.67 244.119Z" fill="#B37052"/>
<path opacity="0.5" d="M247.831 231.457C249.283 229.478 250.856 229.083 252.428 228.291C254.364 227.5 256.179 226.708 258.115 226.313C262.108 224.73 266.222 223.543 270.215 223.147C274.208 222.751 278.079 220.377 282.072 220.377C286.307 219.981 290.421 218.399 294.656 218.399C302.762 218.399 310.869 220.773 318.976 221.168C322.606 221.168 325.993 223.147 329.623 224.334C331.317 224.73 333.011 225.917 334.705 225.917C335.552 225.917 336.399 226.313 336.883 228.291C336.883 228.291 337.004 229.083 337.004 229.478C336.278 231.457 335.31 231.457 334.342 231.457C333.132 231.457 331.801 232.248 330.591 232.248C327.566 232.644 324.662 235.81 321.759 236.205C315.467 236.997 309.175 239.767 302.883 239.767C300.1 239.767 297.318 240.954 294.535 240.558C291.752 240.558 288.848 240.162 286.065 239.371C283.161 238.579 280.257 238.579 277.353 237.788C274.329 236.997 271.425 235.414 268.4 235.018C268.279 235.018 267.795 233.435 268.037 233.435C271.183 230.27 274.571 230.27 277.716 231.061C279.289 231.457 280.741 231.457 282.314 230.665C284.008 229.874 285.581 229.083 287.275 229.083C290.542 229.083 293.688 227.5 296.834 228.291C297.56 228.291 298.165 229.083 298.891 229.083C299.616 229.083 300.342 228.291 301.189 228.291C302.883 228.291 304.577 228.687 306.271 228.687C306.392 228.687 306.392 229.083 306.392 229.083C304.94 229.083 303.488 229.083 301.915 229.478C300.584 229.478 299.253 231.061 297.802 230.27C294.414 228.291 290.905 230.665 287.396 230.665C285.944 230.665 284.492 231.457 283.04 231.852C281.346 232.644 279.652 232.644 277.837 232.644C275.176 232.248 272.393 232.248 269.852 233.831C271.667 234.227 273.482 235.018 275.417 235.81C278.321 236.601 281.346 236.997 284.25 237.788C287.154 238.579 290.058 238.975 293.083 239.371C296.108 239.767 299.012 238.975 302.036 238.58C308.207 238.184 314.257 236.205 320.428 235.018C323.21 234.622 325.993 233.04 328.897 231.457C330.228 230.665 331.559 230.665 332.89 230.27C334.1 229.874 335.552 230.665 336.52 228.291C335.673 226.708 333.979 227.895 333.132 227.5C331.559 227.5 329.865 226.313 328.413 225.521C324.783 223.543 321.154 223.147 317.524 223.147C313.652 223.147 309.901 221.564 306.029 221.168C302.036 220.773 298.044 220.377 293.93 219.981C286.307 219.586 278.684 223.543 271.062 224.334C267.19 224.73 263.318 225.917 259.567 227.104C257.631 227.895 255.574 228.291 253.638 229.478C251.944 230.27 250.251 230.665 248.557 233.04C249.283 234.622 250.372 233.831 251.219 234.622C252.791 235.414 254.364 236.205 256.058 236.601C259.567 237.392 262.955 238.579 266.343 239.767C269.852 240.954 273.482 241.745 276.99 242.537C280.62 243.328 284.371 243.724 288.001 244.119C291.389 244.515 294.535 244.119 297.923 243.724C301.431 243.328 304.94 244.119 308.449 243.724C311.958 243.328 315.467 242.537 318.855 241.745C320.549 241.349 322.243 240.954 323.936 240.558C325.267 240.162 326.84 240.558 327.929 238.975L328.05 239.371C327.082 240.954 325.872 240.558 324.904 241.349C323.21 242.141 321.396 242.537 319.702 242.932C316.072 243.724 312.442 244.515 308.812 245.306C305.182 246.098 301.431 244.911 297.802 245.702C296.108 246.098 294.293 246.494 292.599 246.889C290.663 246.889 288.727 246.494 286.791 246.098C279.531 245.306 272.272 243.328 265.012 241.349C261.382 240.162 257.873 239.371 254.243 238.184C252.912 237.788 251.581 236.997 250.251 236.601C249.404 236.205 248.678 235.414 248.073 233.435C247.831 232.248 247.71 231.457 247.831 231.457Z" fill="black"/>
<path opacity="0.5" d="M352.248 233.831C361.081 233.435 369.792 235.018 378.625 235.018C382.981 235.018 387.337 235.414 391.813 235.018C393.991 235.018 396.169 234.622 398.468 234.227C400.646 233.831 402.824 232.248 404.881 232.248C405.849 232.248 406.817 232.248 407.785 232.248C408.632 232.248 409.6 231.457 410.447 231.457C412.503 231.061 414.56 231.457 416.617 231.457C418.674 231.457 420.731 231.457 422.788 231.852C424.845 232.248 426.902 233.04 428.959 233.04C431.016 233.04 433.073 233.831 435.129 233.831C437.065 233.831 439.001 233.04 441.058 233.831C443.115 234.227 445.172 234.622 447.229 235.018C448.197 235.414 449.286 235.81 450.254 236.601C451.343 236.997 452.553 238.579 453.642 236.997L453.763 237.392C452.553 239.371 450.738 237.392 449.407 236.997C447.35 236.205 445.414 236.205 443.357 235.809C441.058 235.414 438.88 235.414 436.581 235.414C434.525 235.81 432.468 234.622 430.411 234.622C426.297 234.622 422.183 233.435 418.069 233.435C416.012 233.435 413.955 233.435 411.898 233.435C409.842 233.435 407.906 234.227 405.97 234.227C403.913 234.227 401.735 235.81 399.557 236.205C397.379 236.601 395.201 236.997 392.902 236.997C388.546 237.392 384.191 236.997 379.714 236.997C370.397 236.601 361.323 234.622 352.248 233.831C352.248 234.227 352.127 233.831 352.248 233.831Z" fill="black"/>
<path opacity="0.5" d="M109.051 218.794C113.648 220.377 118.367 221.564 122.965 221.96C127.079 222.355 131.193 221.564 135.428 222.751C139.904 223.938 144.381 225.917 148.858 227.104C153.577 228.291 158.296 228.687 163.014 229.874C167.612 231.457 172.21 233.831 176.808 235.018C179.228 235.809 181.648 235.414 184.067 235.809C186.487 236.205 188.786 236.601 191.206 236.601C200.523 235.414 209.718 235.809 219.035 235.809C222.423 235.809 225.69 233.831 229.078 234.227C230.771 234.227 232.586 234.227 234.28 234.227C235.974 234.227 237.547 235.809 239.241 234.227C239.241 234.227 239.362 234.622 239.241 234.622C237.426 236.601 235.127 234.622 233.191 234.622C230.772 234.622 228.473 234.622 226.053 235.018C223.996 235.414 221.818 236.205 219.761 236.997C217.462 237.788 215.042 236.997 212.864 236.997C208.145 236.997 203.306 236.997 198.587 236.997C193.989 236.997 189.512 238.184 185.035 237.392C180.559 236.601 176.082 236.205 171.605 234.622C166.765 232.644 162.046 231.061 157.207 229.874C152.73 229.082 148.253 228.291 143.776 226.313C139.299 224.334 134.702 223.147 130.104 222.751C126.716 222.356 123.449 222.751 120.061 221.96C116.189 221.564 112.681 220.377 109.051 218.794C109.051 219.19 108.93 218.794 109.051 218.794Z" fill="black"/>
<path opacity="0.5" d="M104.45 191.491C107.959 191.491 111.468 193.073 114.977 193.865C118.849 194.656 122.721 194.656 126.471 194.656C133.731 195.052 141.112 195.052 148.372 197.03C152.364 198.218 156.236 199.009 160.35 199.405C164.343 199.405 168.215 200.592 172.086 201.383C176.079 202.175 179.951 204.153 183.944 205.34C186.001 206.132 187.937 206.132 189.994 207.319C191.325 208.11 192.535 207.319 193.745 209.693C193.866 210.089 194.108 210.484 193.987 211.276C193.624 212.463 193.382 212.859 192.898 213.254C192.293 213.65 191.688 214.046 190.962 214.441C189.268 215.629 187.453 215.629 185.638 215.629C181.766 216.024 177.773 216.024 173.901 216.024C166.158 215.629 158.293 214.441 150.549 213.254C142.685 212.463 134.941 211.276 127.076 210.484C123.205 210.089 119.454 210.089 115.582 209.297C112.194 208.902 108.685 212.067 105.418 208.902C105.297 208.902 105.176 208.11 105.297 208.11C108.685 211.276 112.436 207.714 115.945 208.11C119.575 208.506 123.205 208.902 126.955 208.902C134.578 209.297 142.201 210.88 149.823 211.672C157.446 212.463 165.069 213.65 172.691 214.046C176.442 214.441 180.193 214.441 183.944 214.046C185.759 214.046 187.574 213.254 189.51 213.254C190.236 213.254 191.083 212.463 191.809 211.672C192.414 211.276 193.14 211.276 193.624 210.089C192.414 208.506 191.083 208.902 189.873 208.11C187.937 206.923 185.88 206.923 183.823 206.132C179.83 204.945 175.958 202.966 171.966 202.175C167.852 201.383 163.859 200.196 159.745 200.196C156.115 200.196 152.485 199.009 148.734 197.822C141.354 195.448 133.852 195.843 126.35 195.448C122.842 195.052 119.333 195.052 115.824 194.261C111.952 194.261 108.201 192.282 104.45 191.491C104.45 191.886 104.329 191.491 104.45 191.491Z" fill="black"/>
<path opacity="0.5" d="M113.284 113.537C115.704 115.12 118.124 116.702 120.665 116.702C123.206 117.098 125.625 118.285 128.166 118.681C133.127 118.681 137.967 121.055 142.807 123.429C148.13 126.199 153.454 130.156 158.899 132.531C164.344 134.905 169.789 137.279 175.233 139.258C186.244 143.215 197.254 142.819 208.386 143.215C219.275 143.61 230.165 144.797 241.055 145.984C252.186 147.172 263.318 148.754 274.449 150.337C285.339 151.92 296.349 153.107 307.239 155.481C329.381 159.834 351.402 165.77 373.423 172.101C386.49 175.662 399.558 179.619 412.625 183.181C419.159 185.159 425.814 186.742 432.347 189.908C435.614 191.49 439.002 193.073 442.269 193.865C443.963 194.26 445.536 194.26 447.23 193.865C448.077 193.865 448.924 193.469 449.771 193.073C450.013 193.073 451.586 192.678 450.497 192.678L450.376 192.282C450.618 192.282 450.739 192.282 450.981 192.282L451.102 192.678C446.262 196.635 441.18 194.656 436.34 192.678C430.895 190.303 425.572 187.929 420.248 186.346C409.358 183.576 398.348 180.411 387.458 177.245C365.558 171.31 343.537 164.978 321.637 159.834C299.253 154.69 276.748 151.92 254.364 148.754C243.353 147.172 232.343 146.38 221.332 145.193C210.443 144.402 199.674 144.797 188.785 143.61C175.838 142.027 162.892 136.092 150.187 128.178C144.017 124.616 137.725 121.055 131.433 119.472C128.529 118.681 125.625 119.472 122.722 117.889C119.576 116.307 116.551 115.911 113.526 113.141C113.284 113.932 113.163 113.141 113.284 113.537Z" fill="black"/>
<path opacity="0.5" d="M387.943 131.739C391.331 126.199 395.203 125.012 398.954 123.429C403.551 121.451 408.149 120.659 412.868 118.681C419.16 116.307 425.451 113.932 431.743 112.35C434.889 111.558 438.035 111.558 441.06 111.558C443.722 111.558 446.988 111.954 449.529 108.788C448.198 110.767 446.504 111.558 444.932 111.954C442.633 112.745 440.213 112.35 437.914 112.35C433.316 112.745 428.597 114.328 423.999 115.911C414.804 119.077 405.487 121.847 396.292 125.804C394.235 126.595 392.299 127.386 390.363 129.761C389.637 130.552 388.79 131.739 388.064 132.531C387.701 132.926 387.459 133.718 387.217 134.113C386.249 136.488 387.58 138.862 388.185 139.258C391.815 142.423 395.566 142.819 399.316 144.797C403.793 147.172 408.149 148.359 412.626 147.567C416.861 146.776 420.975 146.38 425.209 149.15C429.686 151.92 434.163 153.503 438.64 154.69C440.818 155.086 442.996 155.877 445.174 156.669C447.472 157.46 449.771 155.086 452.07 157.064C452.07 157.064 452.191 157.46 452.07 157.46C450.013 155.877 447.956 157.856 445.779 157.46C443.359 157.064 441.06 155.877 438.64 155.481C434.163 154.294 429.686 153.107 425.209 150.337C420.733 147.567 416.256 148.359 411.658 149.15C407.544 149.942 403.43 148.359 399.316 146.38C395.566 144.402 391.936 143.61 388.185 140.84C387.459 140.445 386.854 139.258 386.37 137.279C386.128 134.905 387.217 132.926 387.943 131.739Z" fill="black"/>
<path opacity="0.5" d="M428.233 128.178C428.596 126.595 429.08 125.804 429.685 125.408C430.653 124.616 431.742 123.825 432.71 123.429C434.887 122.242 437.065 122.638 439.243 123.034C441.663 123.429 443.962 123.034 446.382 122.638C447.35 122.638 448.318 122.242 449.286 121.846C450.012 121.451 450.617 120.264 451.343 121.055C451.343 121.055 451.464 121.451 451.343 121.451C450.617 121.055 450.012 122.242 449.407 122.638C448.56 123.034 447.834 123.429 446.987 123.429C445.293 123.825 443.72 124.616 442.026 124.616C438.396 124.221 434.887 123.034 431.258 125.804C430.532 126.199 429.564 126.595 428.959 127.782C427.628 130.156 429.564 133.322 430.048 133.718C431.621 135.696 433.314 136.883 435.129 137.675C436.823 138.466 438.517 138.862 440.09 140.445C441.784 142.027 443.599 143.215 445.293 144.402L445.414 144.797C443.357 143.61 441.3 142.027 439.364 140.445C437.307 138.862 435.008 138.862 432.951 137.279C432.105 137.279 427.023 133.718 428.233 128.178Z" fill="black"/>
<path opacity="0.5" d="M359.75 123.429C361.686 120.264 363.38 118.285 365.558 117.098C368.099 115.911 370.761 115.911 373.302 115.12C377.779 113.933 382.256 111.558 386.611 109.184C383.344 111.163 379.957 112.745 376.569 114.328C374.633 115.12 372.697 116.307 370.64 116.703C368.341 117.098 366.163 117.89 363.985 119.077C362.291 120.264 360.839 123.034 359.266 125.408C357.573 127.782 359.629 133.322 360.597 135.301C361.444 136.883 362.533 137.279 363.501 138.071C367.252 140.445 370.882 143.61 374.512 147.567C374.512 147.567 374.633 148.359 374.633 147.963C372.334 145.985 370.156 144.006 367.857 142.028C365.8 140.445 363.622 139.653 361.686 137.675C360.597 136.488 359.266 134.509 358.541 130.948C357.694 126.595 358.541 125.012 359.75 123.429Z" fill="black"/>
<path opacity="0.5" d="M236.457 60.1169C241.176 62.0954 245.895 61.6997 250.614 61.6997C255.091 61.6997 259.688 59.7212 264.165 60.1169C268.763 60.5126 273.24 61.6997 277.838 62.0954C282.436 62.4911 286.912 63.6782 291.51 64.8653C310.748 69.6137 329.987 70.4051 349.225 70.8008C366.527 70.8008 383.95 70.0095 401.252 70.0095C405.487 70.0095 409.722 70.8008 413.957 70.8008C418.192 71.1966 422.306 70.8008 426.54 70.8008C430.654 71.1966 435.01 70.8009 439.003 68.4266C441.181 67.2395 443.359 66.4481 445.537 66.0524C447.352 65.6567 449.166 66.0524 450.981 64.0739C450.981 64.0739 451.102 64.0739 450.981 64.4696C449.287 66.8438 447.473 66.4481 445.658 67.2395C443.359 68.0309 440.939 68.8223 438.64 70.4052C434.284 73.1751 429.565 72.7794 425.088 72.7794C420.612 72.3837 416.014 73.1751 411.537 72.7794C406.939 72.3837 402.22 71.988 397.623 71.988C388.306 71.988 378.989 73.1751 369.673 73.1751C360.114 73.1751 350.556 73.1751 340.997 73.1751C323.453 72.7794 305.909 71.1966 288.364 66.8438C283.887 65.6567 279.411 65.261 274.813 64.8653C270.457 64.4696 266.101 62.8868 261.866 62.8868C257.632 62.8868 253.518 64.0739 249.283 64.0739C245.048 64.0739 240.813 63.6782 236.578 61.6997C236.457 60.5126 236.457 60.1169 236.457 60.1169Z" fill="black"/>
<path opacity="0.5" d="M320.911 51.8067C322 52.9938 323.089 52.5981 324.178 52.9938C325.146 52.9938 326.114 53.7852 327.203 53.7852C329.502 53.7852 331.8 53.3895 334.099 52.9938C338.455 52.2024 342.932 52.5981 347.288 53.3895C351.886 54.1809 356.604 55.7637 361.202 57.3466C365.921 58.5337 370.64 58.9294 375.359 58.9294C379.835 58.9294 384.312 58.5337 388.91 58.138C393.387 57.7423 397.864 56.1594 402.461 56.1594C406.938 56.1594 411.294 54.9723 415.65 55.368C417.344 55.368 419.038 56.9509 420.732 57.3466C421.7 57.7423 422.547 58.1379 423.515 58.9294C424.604 59.7208 425.813 59.3251 426.902 59.7208C429.201 60.5122 431.5 60.9079 433.799 60.9079C435.009 60.9079 436.219 60.1165 437.308 60.1165C438.518 60.1165 439.728 60.1165 440.938 59.7208C442.148 59.3251 443.358 58.138 444.568 57.3466C445.778 56.5551 447.109 56.5551 448.319 56.1594C449.528 55.7637 450.617 54.9723 451.827 54.1809C453.037 53.3895 454.368 54.1809 455.578 54.1809L455.699 54.5766C454.731 54.5766 453.642 54.5766 452.674 54.9723C451.706 55.368 450.738 56.9509 449.649 57.3466C447.351 58.138 445.052 58.5337 442.753 60.1165C440.696 61.6993 438.639 61.3036 436.582 61.6993C435.493 61.6993 434.525 62.4907 433.557 62.095C432.347 62.095 431.258 61.3036 430.048 61.3036C428.233 60.9079 426.418 60.9079 424.604 60.1165C423.757 59.7208 422.789 59.3251 421.942 58.5337C420.853 58.138 419.885 58.138 418.796 57.3466C414.44 54.5766 409.842 57.3466 405.365 57.3466C403.308 57.3466 401.252 57.3466 399.195 57.3466C396.775 57.3466 394.476 58.9294 392.056 59.3251C387.579 59.7208 382.981 60.1165 378.504 60.1165C374.149 60.1165 369.793 60.5122 365.437 59.3251C360.839 58.138 356.12 56.5551 351.523 55.368C346.199 53.7852 340.875 53.3895 335.551 53.7852C333.01 53.7852 330.47 54.1809 327.929 54.1809C326.961 54.1809 325.872 53.7852 324.904 53.3895C323.452 52.5981 322.242 52.9938 320.911 51.8067Z" fill="black"/>
<path opacity="0.5" d="M152.366 55.3683C155.875 57.7425 159.263 54.9726 162.772 53.3898C166.159 52.2027 169.668 52.2027 173.056 51.807C176.444 51.807 179.711 51.807 183.099 51.4113C186.366 51.4113 189.511 50.2241 192.657 50.6198C199.07 51.4113 205.483 52.9941 212.017 53.7855C213.589 53.7855 215.162 53.7855 216.735 53.3898C218.55 52.9941 220.486 53.3898 222.301 52.9941C224.116 52.9941 225.81 52.2027 227.625 52.2027C229.198 52.2027 230.771 52.9941 232.344 53.7855C232.344 53.7855 232.465 54.1812 232.344 54.1812C230.65 53.7855 228.956 52.9941 227.262 52.9941C225.447 52.9941 223.753 54.1812 221.938 54.5769C220.244 54.9726 218.671 54.5769 216.977 54.9726C215.283 55.3683 213.589 55.764 211.775 55.3683C205.12 54.5769 198.586 52.9941 191.931 52.2027C188.907 51.807 185.882 52.9941 182.857 52.9941C179.469 52.9941 176.081 52.9941 172.814 52.9941C169.426 52.9941 165.917 52.9941 162.53 54.1812C159.021 55.764 155.754 58.1382 152.366 55.3683C152.366 55.764 152.366 55.3683 152.366 55.3683Z" fill="black"/>
<path opacity="0.5" d="M217.22 89.0031C219.156 89.0031 221.092 89.3988 222.906 89.3988C224.721 89.3988 226.536 89.3987 228.351 90.1902C230.287 90.9816 232.344 90.5859 234.28 91.3773C236.337 92.1687 238.757 91.3773 240.814 90.9816C242.871 90.5859 244.807 90.1902 246.863 90.1902C248.92 90.1902 250.856 90.9816 252.913 90.9816C254.728 91.3773 256.664 90.5859 258.479 91.3773C259.447 91.773 260.536 92.1687 261.504 92.1687C262.23 92.1687 263.198 92.9601 263.803 92.1687C263.44 92.5644 263.077 93.3558 262.714 92.9601C261.867 91.773 260.778 92.5644 259.931 92.5644C257.995 92.5644 256.059 91.773 254.123 91.773C252.187 91.773 250.13 91.3773 248.194 90.9816C246.016 90.5859 243.839 90.9816 241.661 91.773C233.554 93.3558 225.447 89.7945 217.341 89.0031C217.22 89.7945 217.099 89.0031 217.22 89.0031Z" fill="black"/>
<path opacity="0.5" d="M105.299 143.61C105.904 144.797 106.872 144.402 107.598 144.797C108.566 145.193 109.413 145.193 110.381 145.589C112.68 145.984 115.1 147.172 117.399 148.359C121.996 150.337 126.594 149.942 131.071 151.129C140.388 153.503 149.825 157.064 159.142 161.417C163.74 163.395 168.216 165.374 172.814 167.748C174.871 168.935 177.049 170.122 179.106 171.705C180.074 172.497 181.163 172.101 182.131 172.497C182.978 172.892 183.946 173.684 184.793 173.684C185.64 173.684 186.608 174.475 187.334 176.058C187.697 176.849 187.939 178.828 187.334 179.224C185.882 180.806 184.067 179.619 182.494 179.619C180.074 179.619 177.654 178.037 175.355 177.641C169.305 176.849 163.256 176.849 157.206 176.849C154.302 176.849 151.519 177.641 148.615 177.641C145.711 177.641 142.808 176.849 139.904 176.849C137.121 176.849 134.459 176.058 131.676 176.454C130.466 176.849 129.135 176.849 127.925 176.849C126.594 176.849 125.747 178.037 124.416 176.849C123.206 176.058 121.633 176.849 120.303 176.849C118.972 176.849 117.762 176.454 116.431 175.662C114.858 174.871 113.285 173.684 111.591 173.684C110.865 173.684 109.897 173.288 109.171 171.705C109.171 171.705 109.05 170.914 109.171 171.31C109.897 172.892 111.47 172.892 112.438 172.892C113.406 172.892 114.132 172.892 115.1 173.684C117.52 175.662 119.94 175.267 122.359 175.267C123.085 175.267 123.932 175.267 124.658 175.662C125.747 176.454 126.594 175.267 127.683 175.267C129.861 175.267 131.918 174.079 134.096 174.475C136.153 174.475 138.21 175.267 140.267 175.267C142.566 175.267 144.743 176.058 146.921 176.058C151.398 176.454 155.875 175.267 160.352 175.267C164.95 175.267 169.547 175.267 174.145 176.058C178.259 176.454 182.494 179.619 186.608 178.037C187.092 178.037 187.576 176.454 186.85 175.662C186.608 175.267 186.245 175.267 186.003 174.871C185.519 174.475 185.035 174.475 184.551 174.08C182.373 172.497 180.195 172.497 178.017 170.914C173.661 168.144 169.063 166.165 164.708 163.791C154.302 159.043 143.776 154.294 133.249 151.524C128.167 150.337 122.964 150.337 117.762 147.963C115.221 146.776 112.68 145.589 110.139 144.797C109.05 144.402 108.082 144.006 107.114 143.61C106.267 144.797 105.783 145.193 105.299 143.61C105.299 144.006 105.178 143.61 105.299 143.61Z" fill="black"/>
<path opacity="0.5" d="M103 154.294C103.605 156.668 105.42 157.064 106.388 157.855C107.718 158.647 109.049 158.647 110.38 159.438C113.405 161.021 116.551 162.604 119.576 164.187C122.48 165.374 125.505 165.374 128.409 166.165C129.982 166.561 131.433 166.957 133.006 166.957C134.095 166.957 135.063 167.352 136.031 166.561C135.184 165.769 134.337 165.374 133.611 164.978C132.28 164.187 131.071 162.208 129.861 161.417C126.957 159.042 123.932 157.064 121.028 155.481C118.124 153.898 115.099 153.107 112.074 152.316C110.743 151.92 109.291 151.524 107.96 151.128C106.509 150.733 105.057 150.733 103.726 149.546C103.726 149.546 103.605 149.15 103.726 149.15C104.936 150.337 106.267 149.941 107.476 150.337C109.049 150.733 110.501 151.128 112.074 151.524C114.978 152.316 118.003 153.107 120.907 154.294C123.811 155.481 126.836 157.855 129.74 159.834C131.07 161.021 132.401 162.604 133.853 163.791C134.821 164.582 135.789 164.582 136.757 166.165C136.878 166.165 137.12 167.352 136.999 167.748C135.91 169.331 134.7 168.935 133.49 168.539C132.159 168.144 130.708 168.144 129.377 167.748C125.868 166.957 122.359 166.957 118.85 165.374C117.156 164.582 115.583 163.395 114.01 162.604C112.316 161.812 110.501 159.834 108.686 159.834C107.597 159.834 106.267 159.042 105.299 157.855C104.331 156.273 103.484 156.273 103 154.294C103 153.898 103 153.898 103 154.294Z" fill="black"/>
<path opacity="0.5" d="M295.987 185.951C297.076 188.325 298.165 188.721 299.496 188.721C300.585 188.721 301.795 189.116 302.884 189.512C305.182 189.908 307.602 190.304 309.901 190.699C314.983 191.886 320.065 195.052 325.026 195.843C329.623 196.635 334.342 196.635 338.94 198.218C340.15 198.613 341.36 199.009 342.57 199.801C343.901 200.592 345.353 202.175 346.684 202.175C348.862 202.57 351.281 204.549 353.459 203.362C353.58 203.362 353.822 204.549 353.701 204.549C351.765 206.132 349.467 204.549 347.41 204.153C344.99 203.362 342.57 201.383 340.15 200.592C334.826 198.218 329.502 198.613 324.179 197.426C321.88 197.031 319.46 195.448 317.161 194.261C314.257 193.074 311.232 191.886 308.328 191.491C306.029 191.095 303.61 190.304 301.311 189.512C299.496 189.116 297.56 189.512 295.987 185.951C295.987 185.951 295.866 185.951 295.987 185.951Z" fill="black"/>
<path d="M13.9082 -50.7701C9.40833 -52.7973 4.54846 -54.1488 1.12854 -58.2033C-0.311401 -59.78 -0.671448 -63.384 1.84851 -63.8345C7.42834 -64.9607 13.1882 -60.681 18.0481 -58.2033C26.8679 -53.6983 35.8677 -50.0943 44.5074 -45.5894C54.0472 -40.6339 63.227 -34.5522 72.5868 -28.921C82.4865 -23.2898 92.5663 -20.5868 103.366 -18.3343C122.806 -14.5051 141.705 -11.5768 161.685 -12.7031C172.124 -13.1536 182.744 -14.2798 193.184 -15.8566C198.224 -16.5323 203.263 -17.208 208.483 -17.4333C210.643 -17.6585 212.803 -17.6585 215.143 -17.4333C217.303 -17.4333 218.383 -18.109 218.923 -19.4605C215.503 -24.8665 211.723 -30.0472 207.943 -35.0027C196.604 -50.5448 182.384 -71.2677 165.104 -75.9979C148.725 -80.2776 130.545 -76.8989 113.806 -73.0697C113.086 -72.8444 112.366 -72.8444 111.826 -72.6192C122.625 -80.5029 134.325 -86.8098 146.565 -91.54C151.785 -91.3148 157.005 -91.0895 162.224 -91.3148C164.924 -91.54 167.804 -90.639 170.324 -90.4138C179.684 -89.2875 172.664 -94.9188 168.704 -98.0722C173.924 -99.1985 179.144 -100.099 184.544 -100.775C194.984 -91.7653 205.063 -82.0796 215.323 -72.3939C225.943 -62.483 234.583 -49.6438 245.202 -39.5076C257.262 -27.7947 271.662 -22.3888 286.781 -19.4605C292.181 -18.3343 297.581 -17.6586 303.161 -16.9828C308.561 -16.0818 314.141 -15.4061 319.541 -14.7303C324.04 -14.2798 328.54 -13.1536 333.04 -12.7031C337.36 -12.2526 341.86 -11.8021 346.18 -11.5768C355.18 -11.1263 364.359 -11.1264 373.539 -11.3516C376.959 -11.3516 380.379 -11.5768 383.799 -11.5768C396.039 -10.9011 408.458 -10.4506 420.518 -10.9011C421.778 -10.9011 423.218 -10.9011 424.478 -10.9011C425.738 -10.6758 426.998 -10.6758 428.078 -10.4506C462.637 -5.94563 497.376 -5.72038 532.115 -7.7476C551.195 -9.5496 570.634 -11.3516 590.074 -14.0546C590.254 -13.8293 590.254 -13.8293 590.434 -13.8293C594.574 -9.09911 598.174 -0.990158 597.994 5.99254C597.814 12.9752 594.574 17.9307 591.154 22.8862C574.954 23.5619 558.575 24.2377 542.375 24.4629C519.875 24.9134 497.196 23.1114 474.697 21.9852C451.837 20.8589 429.158 21.0842 406.298 21.9852C383.259 22.8862 360.22 23.7872 337.18 23.1114C314.501 22.4357 291.821 19.7327 269.142 17.4802C230.443 13.4257 191.564 12.5247 152.865 6.89354C135.225 4.41581 117.766 -0.0891647 99.946 -2.11639C78.1666 -4.59413 56.0272 -2.5669 33.8878 -1.44067C25.608 -0.990166 16.9682 -1.66591 8.86841 -2.79215C4.90851 -3.4679 4.00848 -8.64861 3.6485 -12.7031C3.6485 -14.0546 4.36847 -15.6313 5.44843 -16.0818C8.68835 -17.4333 11.9283 -17.8838 15.1682 -17.6585C22.548 -17.208 29.7478 -18.7848 37.1276 -19.2353C42.5275 -19.4605 47.7474 -19.911 53.1472 -19.6858C54.4072 -19.6858 59.8071 -18.5595 63.407 -18.5595C54.9472 -26.8937 44.1475 -32.9754 34.7877 -38.8319C28.1279 -43.1116 21.288 -47.3913 13.9082 -50.7701Z" fill="#AA5D3F"/>
<path opacity="0.5" d="M13.9079 -50.7698C9.40802 -52.797 4.5481 -54.1485 1.12817 -58.203C-0.311768 -59.7797 -0.671753 -63.3837 1.84814 -63.8342C7.42804 -64.9604 13.1879 -60.6807 18.0477 -58.203C26.8675 -53.698 35.8673 -50.094 44.5071 -45.5891C50.9869 -42.2103 57.2868 -38.1559 63.5867 -34.3266C63.4066 -34.1014 63.2266 -33.8761 63.5867 -33.6509C73.8464 -23.5147 86.626 -17.433 99.2257 -13.6038C113.265 -9.0988 127.665 -6.62107 142.065 -5.04433C157.364 -3.24234 172.664 -2.11609 187.964 0.136391C207.403 3.06462 226.843 6.44334 246.462 8.47057C271.121 10.9483 295.961 10.4978 320.8 10.9483C345.82 11.1736 370.839 11.3988 395.858 11.6241C445.177 11.8493 494.496 11.6241 543.815 13.6513C560.914 14.327 578.374 15.6785 595.653 15.6785C594.393 18.3815 592.773 20.634 591.153 23.1117C574.954 23.7875 558.574 24.4632 542.375 24.6885C519.875 25.139 497.196 23.337 474.696 22.2107C451.837 21.0845 429.157 21.3097 406.298 22.2107C383.259 23.1117 360.219 24.0127 337.18 23.337C314.5 22.6612 291.821 19.9582 269.142 17.7058C230.442 13.6513 191.563 12.7503 152.864 7.11909C135.225 4.64136 117.765 0.136391 99.9457 -1.89085C78.1663 -4.36858 56.0269 -2.34134 33.8874 -1.21509C25.6076 -0.764595 16.9678 -1.44036 8.86798 -2.5666C4.90808 -3.24234 4.00812 -8.42305 3.64813 -12.4775C3.64813 -13.829 4.36804 -15.4058 5.44806 -15.8563C8.68799 -17.2077 11.9279 -17.6582 15.1678 -17.433C22.5477 -16.9825 29.7475 -18.5592 37.1273 -19.0097C42.5272 -19.235 47.747 -19.6855 53.1469 -19.4602C54.4069 -19.4602 59.8067 -18.334 63.4066 -18.334C54.9468 -26.6682 44.1472 -32.7499 34.7874 -38.6063C28.1275 -43.1113 21.2877 -47.391 13.9079 -50.7698Z" fill="#995336"/>
<path opacity="0.4" d="M476.977 13.9992C484.331 12.7921 491.807 11.4342 499.162 10.2271C499.162 10.5289 499.282 10.9815 499.282 11.2833C491.927 12.4904 484.573 13.6975 477.218 14.4519C477.097 14.4519 476.856 13.9992 476.977 13.9992Z" fill="#5F4323"/>
<path opacity="0.4" d="M409.336 21.3924C412.953 20.4871 416.57 20.638 420.308 20.3363C424.286 20.1854 428.265 19.7327 432.365 19.2801C436.344 18.9783 440.443 19.5818 444.542 19.7327C448.401 19.8836 452.38 20.0345 456.238 19.8836C460.217 19.7327 464.075 19.8836 468.054 20.0345C472.153 20.3363 476.132 19.7327 480.111 19.431C485.898 18.9783 491.806 19.431 497.594 18.9783C497.473 19.2801 497.353 19.431 497.232 19.7327C492.168 20.1854 486.983 20.0345 481.799 20.638C477.82 21.0907 473.841 21.8451 469.862 21.6942C465.884 21.5433 462.025 21.2416 458.046 21.3924C450.089 21.6942 442.252 21.0907 434.294 20.7889C430.315 20.638 426.095 20.7889 422.116 21.3924C418.017 21.996 413.917 20.9398 409.697 21.6942C409.456 21.8451 409.095 21.3924 409.336 21.3924Z" fill="#5F4323"/>
<path opacity="0.4" d="M327.831 17.6204C335.307 16.2625 342.903 15.5081 350.499 14.4519C358.336 13.3957 366.293 13.9992 374.131 13.8483C378.23 13.6974 382.45 13.9992 386.549 13.8483C391.131 13.6974 395.592 12.943 400.174 12.4904C408.855 11.5851 417.416 10.5289 426.097 9.77445C434.416 9.02003 442.736 8.41649 451.055 7.96384C455.034 7.81295 459.013 7.51119 462.992 7.51119C467.212 7.51119 471.432 7.05853 475.652 6.90765C483.006 6.60588 490.482 6.00235 497.837 5.24792C498.078 5.85146 498.198 6.455 498.439 6.90765C490.241 7.66207 481.921 8.11473 473.722 8.86915C465.524 9.62357 457.204 9.47268 449.005 9.92534C440.686 10.378 432.246 10.9815 423.926 11.7359C415.245 12.4904 406.564 13.5466 397.883 14.301C393.663 14.7536 389.564 15.2063 385.344 15.3572C380.883 15.5081 376.542 14.9045 372.081 15.3572C368.825 15.6589 365.57 15.2063 362.194 15.0554C358.095 15.0554 354.116 15.0554 350.137 15.6589C342.782 16.7151 335.548 17.1678 328.193 18.0731C327.952 18.224 327.59 17.6204 327.831 17.6204Z" fill="#5F4323"/>
<path opacity="0.4" d="M256.211 15.6591C262.602 15.8099 269.112 17.1679 275.503 17.017C282.014 16.8661 288.645 18.0732 295.156 18.8276C298.773 19.1294 302.27 20.6382 306.007 20.7891C309.383 20.94 312.639 21.2418 316.015 21.2418C322.284 21.2418 329.277 22.1471 335.306 20.0347C335.427 20.0347 335.547 20.1856 335.427 20.3365C329.639 22.7506 322.767 22.298 316.618 22.5997C310.107 22.7506 304.078 22.1471 297.688 20.6382C294.553 19.8838 291.177 19.8838 288.042 19.4312C284.063 18.9785 280.084 18.2241 276.106 18.2241C269.474 18.0732 262.963 16.5644 256.332 15.8099C256.211 15.9608 256.091 15.6591 256.211 15.6591Z" fill="#5F4323"/>
<path opacity="0.4" d="M242.346 5.70053C244.878 4.64434 247.651 4.34258 250.303 3.88993C253.921 3.28639 257.538 2.53197 261.155 2.38108C264.29 2.2302 267.425 2.23021 270.559 2.07932C273.333 1.92844 276.588 2.83373 279.361 3.28639C285.872 4.49346 292.262 3.28639 298.773 5.097C302.028 6.00231 305.525 6.15319 308.78 6.75673C309.866 7.0585 311.071 7.36026 312.036 7.81291C313.242 8.41645 314.688 8.56733 315.774 9.32175C316.015 9.47264 316.376 9.9253 316.256 10.378C315.894 11.4341 314.568 11.585 313.724 11.8868C311.554 12.943 309.263 13.6974 307.092 14.3009C302.149 15.508 296.844 15.8098 291.78 15.508C295.638 16.4133 299.496 17.0168 303.475 16.866C310.83 16.5642 318.547 15.6589 325.66 13.2447C327.107 12.7921 328.554 12.3394 329.88 11.7359C332.774 10.5288 327.59 8.71822 326.625 8.56733C323.128 7.81291 319.632 6.45496 316.135 6.30407C313 6.15319 309.624 5.39876 306.369 4.94611C302.752 4.34257 299.255 3.88993 295.638 2.98462C291.901 1.92843 288.283 1.02313 284.425 0.721361C281.17 0.570477 278.035 0.570477 274.779 -0.03306C271.283 -0.636597 267.907 -1.39102 264.41 -0.938368C262.722 -0.787484 260.914 -0.636598 259.226 -0.334829C257.899 -0.183945 256.935 0.268707 255.609 -0.334829C255.488 -0.334829 255.367 -0.787483 255.488 -0.636599C257.055 -0.0330621 258.382 -0.6366 259.829 -0.938368C261.517 -1.24014 263.205 -1.39102 264.893 -1.69279C268.027 -2.14544 271.283 -1.54191 274.418 -0.938368C278.155 -0.183947 282.014 -0.787485 285.751 -0.485717C289.489 -0.183949 293.227 0.872238 296.844 1.92843C304.44 3.88992 312.639 2.98462 320.114 5.70053C323.49 6.90761 330.604 6.15318 331.81 11.7359C331.81 11.8868 331.81 12.0377 331.689 12.0377C323.972 15.2062 315.653 16.4133 307.695 17.6204C299.135 18.8275 291.177 17.4695 282.737 15.0554C274.538 12.7921 266.098 12.0377 257.779 10.9815C254.523 10.5288 250.545 11.2833 247.41 9.77441C245.963 9.01999 242.707 7.9638 241.743 6.15319C242.225 6.30407 242.105 5.85142 242.346 5.70053ZM251.268 9.32175C254.523 9.32175 257.658 9.77441 260.793 10.0762C267.907 10.9815 274.9 12.0377 281.893 13.3956C282.375 13.5465 282.978 13.5465 283.461 13.6974C281.893 13.0939 280.326 12.3394 278.758 11.7359C277.311 11.1324 273.935 10.9815 273.815 8.26557C273.815 8.11469 273.815 8.11469 273.935 8.11469C275.985 6.90761 278.397 7.0585 280.687 6.75673C283.461 6.30408 286.354 6.45496 289.127 6.15319C294.432 5.54965 299.738 6.45496 304.44 9.32175C304.56 9.47264 305.163 10.2271 304.802 10.378C301.667 11.7359 298.652 12.4903 295.397 12.4903C292.744 12.4903 290.574 12.943 288.163 11.585C287.922 11.4341 287.319 10.5288 287.56 10.2271C288.766 9.17087 290.333 9.17087 291.659 9.17087C292.142 9.17087 292.744 10.5288 292.383 10.5288C291.418 10.5288 290.333 10.5288 289.368 10.9815C291.418 11.585 293.588 11.2833 295.638 11.2833C298.291 11.2833 300.823 10.6797 303.355 9.62353C301.064 8.41646 298.773 7.9638 296.241 7.51115C293.106 7.0585 290.212 7.66203 287.078 7.66203C284.063 7.66203 281.29 8.11469 278.276 8.26557C277.794 8.26557 277.311 8.26557 276.829 8.41645C276.829 8.41645 274.779 9.17087 275.141 9.32175C275.865 9.62352 276.829 9.77441 277.553 10.0762C284.063 13.3956 290.454 14.6027 297.567 14.4518C300.943 14.3009 304.199 13.8483 307.454 13.0939C308.901 12.6412 310.468 12.1886 311.915 11.585C312.277 11.4341 313.965 10.8306 314.93 10.2271C314.206 10.0762 313.603 10.0762 312.88 9.62353C311.433 8.71822 309.624 8.41646 308.178 8.11469C305.163 7.51115 302.028 7.36026 299.014 6.45495C295.759 5.54965 292.503 4.94611 289.127 4.94611C286.234 4.94611 283.34 5.24788 280.567 4.64435C277.553 4.04081 274.056 3.1355 271.042 3.28639C267.907 3.43727 264.893 3.58816 261.758 3.73904C258.502 3.88993 255.126 4.49347 251.871 5.097C249.218 5.54966 246.325 5.85142 243.672 6.90761C244.154 7.05849 244.878 7.36026 245.119 7.51115C247.169 8.71822 249.098 9.32175 251.268 9.32175Z" fill="#5F4323"/>
<path opacity="0.4" d="M329.519 3.73915C332.172 4.49357 335.065 4.34268 337.718 4.94622C341.215 5.54975 344.711 5.70064 348.208 6.30417C355.804 7.66213 363.52 10.0763 371.237 8.71832C374.854 8.11478 378.592 8.41656 382.209 8.26567C386.188 8.11479 390.166 7.9639 394.025 7.9639C401.982 7.9639 409.82 7.9639 417.657 7.05859C417.777 7.05859 417.898 7.36037 417.777 7.36037C410.061 8.41656 402.224 8.86921 394.507 9.17097C390.649 9.32186 386.79 9.62363 382.932 9.92539C378.953 10.2272 374.974 10.2272 371.116 10.9816C364.002 12.3395 356.768 9.62363 349.775 8.26567C346.158 7.66214 342.541 7.0586 338.924 6.60595C336.874 6.30418 334.945 5.54976 333.016 5.39887C331.81 5.39887 330.725 5.09711 329.519 4.49357C329.519 4.1918 329.278 3.58827 329.519 3.73915Z" fill="#5F4323"/>
<path opacity="0.4" d="M458.048 5.54963C460.58 4.94609 463.233 4.34256 465.765 4.04079C468.417 3.58814 471.07 2.38107 473.843 2.53195C479.028 2.68283 484.092 2.0793 489.276 2.0793C491.567 2.0793 493.858 1.92842 496.149 1.62665C496.39 2.0793 496.631 2.38107 496.872 2.83372C494.581 3.13549 492.29 3.43725 490 3.43725C485.177 3.58813 480.233 4.04079 475.41 3.88991C469.744 3.73902 464.077 5.54963 458.41 6.00228C458.169 5.8514 457.928 5.54963 458.048 5.54963Z" fill="#5F4323"/>
<path opacity="0.4" d="M158.548 5.09705C168.435 4.6444 178.08 5.24792 187.847 7.05853C190.017 7.51119 192.308 7.81296 194.478 8.26561C197.01 8.71826 199.301 9.92533 201.833 10.2271C206.776 11.1324 211.84 13.0939 216.784 13.3957L216.904 13.5466C212.805 13.3957 208.826 12.0377 204.727 11.5851C199.783 10.9815 194.96 9.47268 190.017 8.71826C184.953 7.96384 179.889 7.20942 174.825 6.30411C169.399 5.39881 163.974 5.39881 158.548 5.24793C158.668 5.39881 158.427 5.09705 158.548 5.09705Z" fill="#5F4323"/>
<path opacity="0.4" d="M129.732 2.23033C135.519 1.77768 141.427 1.02325 147.215 1.02325C152.399 1.02325 157.463 2.07945 162.648 2.07945C162.768 2.07945 163.01 2.5321 162.889 2.5321C157.825 3.13563 153.002 2.68298 148.059 2.68298C145.165 2.68298 142.03 1.92856 139.136 2.5321C136.243 3.13563 133.108 2.98475 130.214 2.98475C129.852 2.83387 129.611 2.23033 129.732 2.23033Z" fill="#5F4323"/>
<path d="M505.676 24.2566C490.513 22.9098 458.786 20.4855 453.188 21.563C450.271 22.1243 441.368 21.4353 428.155 21.563C409.669 21.7415 382.747 22.6574 351.98 23.2465C330.069 23.666 315.687 22.4036 305.952 21.5631C292.247 20.3799 287.751 19.3627 284.419 19.2059C280.841 19.0377 263.709 16.9807 242.428 15.1656C223.587 13.5586 201.494 12.2942 182.673 10.4516C168.816 9.09503 156.732 7.21027 149.026 6.41097C136.47 5.10853 125.77 1.97884 116.457 0.350283C101.512 -2.26312 90.2923 -2.93866 84.1566 -3.35354C74.1973 -4.02697 33.8219 -0.996678 29.7844 -0.996678C27.5994 -0.996678 21.5665 -1.10679 16.0568 -1.66999C12.511 -2.03243 8.48595 -2.37185 6.90501 -3.69025C3.67498 -6.3839 3.58526 -10.8735 3.67498 -12.7815C3.58526 -14.4651 5.29 -17.7649 12.8267 -17.4955C20.3635 -17.2261 34.0911 -18.6178 40.0128 -19.5157C47.3701 -19.4035 62.3001 -19.3136 63.1614 -18.5055C64.2381 -17.4954 53.7405 -27.5968 52.6638 -27.26" stroke="#6B2D1F" stroke-width="2.69369"/>
<ellipse rx="4.34302" ry="2.60581" transform="matrix(-1 0 0 1 144.403 54.3942)" fill="#52402C"/>
<path d="M147.74 40.9775L147.489 50.1609C146.985 49.7527 146.482 49.3446 145.978 48.9364C144.216 47.9161 142.958 47.3038 141.951 46.4875L142.203 37.3042C143.209 38.1205 144.72 38.7327 146.23 39.7531C146.733 40.1613 147.237 40.5694 147.74 40.9775Z" fill="#EEA75D"/>
<path d="M147.488 50.5687C147.74 50.5687 147.991 50.3646 147.991 50.1606L148.243 40.9773V40.7732C147.74 40.365 147.236 39.7528 146.733 39.5487C145.978 39.1406 145.223 38.7325 144.719 38.3243C143.964 37.9162 143.209 37.508 142.705 37.0999C142.454 37.0999 142.454 36.8958 142.202 37.0999C141.95 37.0999 141.95 37.3039 141.95 37.508L141.699 46.6913C141.699 46.8954 141.699 46.8954 141.95 46.8954C142.454 47.3035 143.209 47.7117 143.964 48.1198C144.719 48.528 145.223 48.9361 145.978 49.3443C146.481 49.7524 146.985 50.1606 147.488 50.5687C147.236 50.3646 147.236 50.5687 147.488 50.5687ZM147.236 41.1813L146.985 49.3443C146.733 49.1402 146.481 48.9361 146.229 48.732C145.474 48.3239 144.719 47.9158 144.216 47.5076C143.461 47.0995 142.957 46.6913 142.454 46.4872L142.705 38.3243C143.209 38.5284 143.461 38.7324 143.964 39.1406C144.719 39.5487 145.223 39.9569 145.978 40.365C146.481 40.365 146.985 40.7732 147.236 41.1813Z" fill="#BF692D"/>
<path d="M141.699 53.2216L141.951 46.4872C142.957 47.3035 144.468 47.9157 145.978 48.9361C146.481 49.3442 146.985 49.7524 147.488 50.1605C147.488 50.1605 147.488 52.2013 147.488 54.4461C145.475 55.4664 142.957 54.8542 141.699 53.2216Z" fill="#EEA75D"/>
<path d="M145.224 55.2628C146.231 55.2628 146.986 55.0587 147.741 54.6506L147.993 54.4465V50.1609V49.9569C147.49 49.5487 146.986 48.9365 146.483 48.7324C145.728 48.3243 144.973 47.9161 144.469 47.508C143.714 47.0998 142.959 46.6917 142.455 46.2835C142.204 46.2835 142.204 46.0795 141.952 46.2835C141.7 46.2835 141.7 46.4876 141.7 46.6917L141.449 53.4261V53.6302C142.204 54.6506 143.714 55.2628 145.224 55.2628ZM146.986 54.2424C145.476 55.0587 143.211 54.6506 142.204 53.222L142.455 47.3039C142.959 47.508 143.211 47.7121 143.714 48.1202C144.469 48.5284 144.973 48.9365 145.728 49.3446C146.231 49.5487 146.735 49.9569 146.986 50.365V54.2424Z" fill="#BF692D"/>
<path d="M148.243 13.4265V22.6098C147.74 22.2017 147.236 21.7935 146.733 21.3854C144.971 20.365 143.712 19.7528 142.454 18.9365C142.454 18.9365 142.454 16.6917 142.454 14.4469C142.454 12.2021 142.454 9.95728 142.454 9.95728C143.461 10.5695 144.971 11.3858 146.733 12.2021C147.236 12.6102 147.74 13.0184 148.243 13.4265Z" fill="#EEA75D"/>
<path d="M147.991 23.0188C148.242 23.0188 148.242 22.8148 147.991 23.0188C148.242 23.0188 148.494 22.8148 148.494 22.6107V13.4274V13.2233C147.991 12.8152 147.487 12.203 146.732 11.9989C145.977 11.5907 145.222 11.1826 144.467 10.7744C143.712 10.3663 142.956 9.95813 142.453 9.54999C142.201 9.54999 142.201 9.54999 141.95 9.54999C141.698 9.54999 141.698 9.75407 141.698 9.95814C141.698 9.95814 141.698 12.2029 141.698 14.4478V18.9374C141.698 19.1414 141.698 19.1414 141.95 19.1414C142.453 19.5496 143.208 19.9577 143.963 20.3659C144.718 20.774 145.222 21.1822 145.977 21.5903C146.48 21.9985 146.984 22.2025 147.487 22.8148C147.739 22.8148 147.991 23.0188 147.991 23.0188ZM147.739 13.6315V21.7944C147.487 21.5903 147.236 21.3863 146.984 21.1822C146.229 20.774 145.474 20.3659 144.97 19.9577C144.215 19.5496 143.712 19.3455 143.208 18.9374V14.6518C143.208 13.2233 143.208 11.5907 143.208 10.7744C143.712 10.9785 143.963 11.1826 144.467 11.5907C145.222 11.9989 145.725 12.407 146.48 12.8152C146.984 12.8152 147.236 13.2233 147.739 13.6315Z" fill="#BF692D"/>
<path d="M148.242 -4.93911V4.44828C147.739 4.04013 147.235 3.63199 146.732 3.22384C144.97 2.20347 143.711 1.59125 142.453 0.979033C142.453 0.979033 142.453 -1.26578 142.453 -3.71467C142.453 -5.95948 142.453 -8.40836 142.453 -8.40836C143.46 -7.79613 144.97 -6.97984 146.732 -6.16355C147.235 -5.7554 147.739 -5.34726 148.242 -4.93911Z" fill="#EEA75D"/>
<path d="M148.243 4.65222C148.494 4.65222 148.746 4.44813 148.746 4.24406V-5.14332V-5.34739C148.243 -5.75554 147.739 -6.16368 146.984 -6.57183C146.229 -6.97998 145.474 -7.38814 144.719 -7.79628C143.963 -8.20443 143.208 -8.61258 142.705 -8.81665C142.453 -8.81665 142.453 -8.81665 142.201 -8.81665C141.95 -8.81665 141.95 -8.61257 141.95 -8.40849V0.978885C141.95 1.18296 141.95 1.18296 142.201 1.18296C142.705 1.5911 143.46 1.99925 144.215 2.40739C144.97 2.81554 145.474 3.01963 146.229 3.63185C146.732 4.03999 147.236 4.24406 147.739 4.85629C147.991 4.65221 147.991 4.65222 148.243 4.65222ZM147.739 -4.93925V3.42776C147.487 3.22369 147.236 3.01962 146.984 2.81555C146.229 2.4074 145.474 1.99926 144.719 1.59111C143.963 1.18296 143.46 0.978891 142.957 0.570745V-7.79628C143.46 -7.59221 143.963 -7.38813 144.467 -6.97999C145.222 -6.57184 145.725 -6.36777 146.732 -5.75555C146.732 -5.55147 147.236 -5.3474 147.739 -4.93925Z" fill="#BF692D"/>
<path d="M147.991 22.6106V31.7939C147.488 31.3858 146.984 30.9776 146.481 30.5695C144.719 29.5491 143.46 28.9369 142.202 28.1206V18.9373C143.209 19.5495 144.719 20.3658 146.481 21.3862C147.236 21.7943 147.739 22.2025 147.991 22.6106Z" fill="#EEA75D"/>
<path d="M147.991 31.9981C148.242 31.9981 148.494 31.794 148.494 31.59V22.4066V22.2026C147.991 21.7944 147.487 21.1822 146.732 20.9781C145.977 20.57 145.222 20.1618 144.718 19.7537C143.963 19.3455 143.208 18.9374 142.705 18.5292C142.453 18.5292 142.453 18.3252 142.201 18.5292C141.95 18.5292 141.949 18.7333 141.949 18.9374V28.1207C141.949 28.3248 141.95 28.3248 142.201 28.3248C142.705 28.7329 143.46 29.1411 144.215 29.5492C144.97 29.9574 145.474 30.3655 146.229 30.7737C146.732 31.1818 147.236 31.3859 147.739 31.9981C147.739 31.9981 147.739 31.9981 147.991 31.9981ZM147.739 22.6107V30.7737C147.487 30.5696 147.236 30.3655 146.984 30.1614C146.229 29.7533 145.474 29.3451 144.97 28.937C144.215 28.5288 143.712 28.1207 143.208 27.9166V19.7537C143.712 19.9577 143.963 20.1618 144.467 20.57C145.222 20.9781 145.725 21.3863 146.48 21.7944C146.732 21.9985 147.236 22.2026 147.739 22.6107Z" fill="#BF692D"/>
<path d="M148.242 4.24411V13.4274C147.739 13.0193 147.235 12.6111 146.732 12.203C144.97 11.1826 143.711 10.5704 142.453 9.95817V0.774872C143.46 1.38709 144.97 2.20338 146.732 3.01968C147.235 3.42782 147.739 3.83597 148.242 4.24411Z" fill="#EEA75D"/>
<path d="M148.243 13.8354C148.494 13.8354 148.746 13.6313 148.746 13.4273V4.24395V4.03988C148.243 3.63173 147.739 3.01951 146.984 2.81544C146.229 2.40729 145.474 1.99915 144.719 1.591C143.963 1.18285 143.208 0.774694 142.705 0.366547C142.453 0.366547 142.453 0.366547 142.201 0.366547C141.95 0.366547 141.95 0.57063 141.95 0.774703V9.95802C141.95 10.1621 141.95 10.1621 142.201 10.1621C142.705 10.5702 143.46 10.9784 144.215 11.3865C144.97 11.7947 145.474 12.2028 146.229 12.611C146.732 13.0191 147.236 13.2232 147.739 13.8354C147.991 13.8354 147.991 13.8354 148.243 13.8354ZM147.739 4.44802V12.611C147.487 12.4069 147.236 12.2028 146.984 11.9988C146.229 11.5906 145.474 11.1825 144.719 10.7743C143.963 10.3662 143.46 10.1621 142.957 9.75395V1.591C143.46 1.79507 143.963 1.99914 144.467 2.40728C145.222 2.81543 145.725 3.22359 146.481 3.63174C146.732 3.63174 147.236 4.03987 147.739 4.44802Z" fill="#BF692D"/>
<path d="M147.991 31.5898C147.991 31.5898 147.991 32.202 147.991 33.0183C147.991 33.8346 147.991 35.0591 147.991 36.2835C147.991 38.5283 147.739 40.9772 147.739 40.9772C147.236 40.5691 146.733 40.1609 146.229 39.7528C144.467 38.7324 143.209 38.1202 142.202 37.3039C142.202 37.3039 142.202 35.0591 142.454 32.6102C142.454 30.3654 142.454 27.9165 142.454 27.9165C143.46 28.5287 144.971 29.345 146.733 30.3654C146.984 30.7735 147.488 31.1817 147.991 31.5898Z" fill="#EEA75D"/>
<path d="M147.739 41.3858C147.991 41.3858 148.242 41.1817 148.242 40.9776L148.494 31.5902V31.3862C147.991 30.978 147.487 30.3658 146.732 30.1617C145.977 29.7536 145.222 29.3454 144.718 28.9373C143.963 28.5291 143.208 28.121 142.705 27.7128C142.453 27.7128 142.453 27.7128 142.201 27.7128C141.95 27.7128 141.949 27.9169 141.949 28.121V32.8147V37.5084C141.949 37.7125 141.95 37.7125 142.201 37.7125C142.705 38.1206 143.46 38.5287 144.215 38.9369C144.97 39.345 145.474 39.7532 146.229 40.1613C146.732 40.5695 147.236 40.9776 147.739 41.3858C147.487 41.3858 147.487 41.3858 147.739 41.3858ZM147.487 31.7943V36.2839V39.9573C147.236 39.7532 146.984 39.5491 146.732 39.3451C145.977 38.9369 145.222 38.5287 144.718 38.1206C143.963 37.7125 143.46 37.3043 142.956 37.1002V32.6106V28.7332C143.46 28.9373 143.711 29.1414 144.215 29.5495C144.97 29.9576 145.474 30.3658 146.229 30.7739C146.732 30.978 147.236 31.3862 147.487 31.7943Z" fill="#BF692D"/>
<path d="M145.221 27.3059C145.221 29.3467 145.221 31.5915 145.221 33.6322C145.221 35.6729 145.221 37.9177 144.969 39.9585C144.718 44.8562 144.718 49.9581 144.466 54.6518C143.459 54.4477 142.2 53.8355 141.697 53.0192C141.949 48.5296 141.949 44.04 142.2 39.3463C142.2 37.3055 142.2 35.2648 142.452 33.02C142.452 30.9792 142.452 28.9385 142.452 26.8978C142.452 22.8163 142.452 18.7348 142.704 14.8574C142.704 7.10265 142.704 -0.243999 142.704 -6.57028C142.704 -12.8966 142.452 -17.9984 142.452 -21.6717C142.452 -21.8758 142.452 -22.0799 142.452 -22.2839C143.207 -23.3043 143.962 -23.9165 145.221 -23.7125C145.221 -20.0391 145.473 -14.121 145.473 -6.97843C145.473 -0.652157 145.473 6.89857 145.473 14.8574C145.221 19.143 145.221 23.2245 145.221 27.3059Z" fill="#EEA75D"/>
<path d="M147.991 27.5085C147.991 29.5492 147.991 31.59 147.991 33.8348C147.991 35.8755 147.991 38.1203 147.74 40.1611C147.488 45.0588 147.488 49.7525 147.236 54.4462C146.733 54.6503 146.229 54.8544 145.726 55.0584C145.978 50.1607 145.978 45.2629 146.229 40.3651C146.229 38.3244 146.229 36.0796 146.481 34.0389C146.481 31.9981 146.481 29.7533 146.481 27.7126C146.481 23.427 146.481 19.3456 146.733 15.4682C146.733 7.5093 146.733 -0.0414104 146.733 -6.36769C146.733 -13.3062 146.481 -19.0202 146.481 -22.8976C146.985 -22.6936 147.488 -22.2854 147.991 -21.8773C147.991 -21.6732 147.991 -21.4691 147.991 -21.2651C148.243 -17.5917 148.243 -12.2858 148.243 -5.95955C148.243 0.36673 148.243 7.71338 148.243 15.4682C148.243 19.3456 147.991 23.427 147.991 27.5085Z" fill="#EEA75D"/>
<path d="M141.338 0.381264C141.602 0.381264 141.866 0.131692 141.866 0.131692C141.866 0.131692 142.13 -0.367464 142.394 -0.866616L143.45 -2.86323C143.714 -3.11281 143.714 -3.36237 143.978 -3.61195C144.242 -4.1111 144.506 -4.61025 144.77 -4.85983L145.298 -5.85814C145.298 -6.10771 145.298 -6.35728 145.298 -6.35728C145.034 -6.85643 144.506 -7.60517 144.242 -8.10432C143.978 -8.60347 143.45 -8.85305 143.186 -9.3522C142.394 -10.3505 141.602 -11.3488 141.074 -12.0975C141.074 -12.3471 140.81 -12.3471 140.546 -12.3471C140.282 -12.3471 140.018 -12.3471 140.018 -12.0975L137.906 -8.85305C137.642 -8.3539 137.114 -7.60517 136.85 -7.10602C136.85 -6.85644 136.586 -6.60686 136.586 -6.35728L136.058 -5.35899C136.058 -5.10942 136.058 -4.85983 136.058 -4.61026C136.85 -3.86153 137.642 -2.86323 138.698 -1.86492C138.962 -1.61535 139.49 -1.11619 139.754 -0.866616C140.282 -0.367464 140.546 0.131684 141.074 0.630836C140.81 0.131684 141.074 0.381264 141.338 0.381264ZM143.978 -6.35728L143.45 -5.85814C143.186 -5.35898 142.922 -5.10941 142.658 -4.61026C142.394 -4.36068 142.394 -4.1111 142.13 -3.86152L141.074 -1.86492C140.81 -2.1145 140.546 -2.36406 140.282 -2.61364C139.754 -3.11279 139.49 -3.36237 139.226 -3.61195C138.434 -4.36068 137.642 -5.10941 137.114 -5.85814L137.378 -6.60687C137.378 -6.85645 137.642 -7.10601 137.642 -7.35559C137.906 -7.85474 138.17 -8.3539 138.434 -8.85305L140.018 -11.3488C140.546 -10.6001 141.074 -10.1009 141.602 -9.10262C141.866 -8.60347 142.394 -8.3539 142.658 -7.85475C143.45 -7.10602 143.714 -6.85643 143.978 -6.35728Z" fill="#BF692D"/>
<path d="M134.473 -1.86604C134.473 -2.11562 134.737 -2.11561 134.737 -2.36519C135.001 -3.11391 135.529 -4.11222 135.793 -4.61137C136.057 -5.11052 136.321 -5.60968 136.321 -5.60968C137.113 -4.61138 138.433 -3.3635 140.017 -1.86604C140.545 -1.36689 141.073 -0.867743 141.337 -0.36859C141.337 -0.36859 141.337 -0.119007 141.073 0.380145C138.697 1.62802 135.001 0.629717 134.473 -1.86604Z" fill="#EEA75D"/>
<path d="M138.698 1.37942C139.49 1.37942 140.546 1.12984 141.074 0.88026L141.338 0.630687L141.602 -0.118032C141.602 -0.36761 141.602 -0.617198 141.602 -0.617198C141.074 -1.11635 140.81 -1.6155 140.282 -2.36423C139.754 -2.86338 139.49 -3.11296 139.226 -3.36254C138.17 -4.36085 137.378 -5.10958 136.85 -5.85831C136.85 -6.10788 136.586 -6.10788 136.322 -6.10788C136.058 -6.10788 136.058 -5.85831 135.794 -5.85831L135.002 -4.36085C134.738 -3.8617 134.21 -3.11296 133.946 -2.36423L133.682 -1.86508V-1.61551C134.474 0.381106 136.85 1.37942 138.698 1.37942ZM140.546 -0.118032C140.018 0.131544 139.49 0.13154 138.962 0.13154C137.378 0.13154 135.794 -0.617198 135.266 -1.86508V-2.11465C135.53 -2.86338 135.794 -3.36253 136.058 -3.86168L136.322 -4.61042C136.85 -4.11127 137.642 -3.36253 138.17 -2.6138C138.434 -2.36422 138.962 -1.86509 139.226 -1.61551C140.018 -1.11635 140.282 -0.617186 140.546 -0.118032Z" fill="#BF692D"/>
<path d="M135.793 -4.36105C136.585 -5.8585 137.377 -7.10638 138.169 -8.60383C138.961 -9.85171 140.017 -11.0996 140.809 -12.3475C141.601 -13.5954 142.657 -14.5937 143.448 -15.8415C143.976 -16.3407 144.24 -16.8398 144.768 -17.339C145.296 -17.8381 145.56 -18.3373 145.824 -18.8365C146.88 -20.0843 147.672 -21.0826 148.464 -22.0809C149.256 -22.8297 150.312 -23.0793 151.368 -23.0793C152.16 -23.0793 152.688 -22.8297 153.216 -22.3305C152.424 -21.3322 150.84 -19.5852 149.256 -17.5886C147.672 -15.8415 146.088 -13.5954 144.24 -11.3492C143.448 -10.1013 142.657 -8.85341 141.601 -7.60553C140.809 -6.35765 140.017 -4.86019 139.225 -3.61231C138.433 -2.36443 137.905 -0.866978 137.377 0.380901C136.057 -0.11825 135.001 -0.866978 134.737 -2.11486C134.737 -2.61401 135.265 -3.61232 135.793 -4.36105Z" fill="#EEA75D"/>
<path d="M140.544 -2.61373C141.336 -3.86162 141.864 -5.35909 142.656 -6.60697C143.448 -7.85485 144.24 -9.10273 145.032 -10.3506C146.88 -12.5968 148.464 -14.843 150.048 -16.59C151.632 -18.5866 152.951 -20.0841 153.743 -21.0824C154.007 -20.0841 154.007 -19.3354 153.743 -18.3371C152.951 -17.3388 152.16 -16.3404 150.84 -15.0926C147.936 -11.5985 144.504 -7.35569 141.864 -2.11459C141.6 -1.36586 141.072 -0.866697 140.808 -0.117968C140.808 0.131609 140.808 0.131601 140.544 0.381178C140.016 0.630754 139.224 0.880323 138.432 0.880323C139.488 -0.367559 140.016 -1.61543 140.544 -2.61373Z" fill="#EEA75D"/>
<path d="M152.489 -5.945C152.489 -5.945 152.736 -5.4528 152.982 -4.96059C153.229 -4.22227 153.475 -3.48396 153.721 -2.49954C153.968 -1.51512 154.214 -0.776806 154.461 -0.0384912C154.707 0.699823 154.707 1.19203 154.707 1.19203C154.214 0.945928 153.475 0.699831 152.736 0.699831C150.764 0.453726 149.039 0.453733 147.807 0.207628C147.807 0.207628 147.314 -1.26901 146.822 -2.99174C146.082 -4.46837 145.59 -5.945 145.59 -5.945C146.822 -5.945 148.547 -6.1911 150.518 -6.1911C151.257 -6.1911 151.996 -6.1911 152.489 -5.945Z" fill="#EEA75D"/>
<path d="M154.709 1.68411C154.956 1.68411 154.956 1.68412 154.956 1.43801C155.202 1.19191 155.202 1.1919 155.202 0.945792L154.956 -0.284729C154.709 -0.776937 154.709 -1.26914 154.463 -1.76135L153.477 -5.20681C152.984 -6.43733 152.984 -6.68343 152.491 -6.68343C151.999 -6.92954 151.259 -6.92953 150.52 -6.92953H150.274C149.042 -6.92953 147.81 -6.68343 146.824 -6.68343C146.331 -6.68343 145.838 -6.68343 145.345 -6.68343C145.099 -6.68343 145.099 -6.68344 144.852 -6.43733C144.852 -6.19123 144.852 -6.19123 144.852 -5.94512L146.085 -2.99187C146.577 -1.51525 147.07 -0.0386286 147.07 -0.0386286C147.07 0.207475 147.317 0.453591 147.563 0.453591C148.056 0.453591 148.549 0.453591 149.288 0.453591C150.274 0.453591 151.506 0.453587 152.738 0.699691C153.477 1.1919 153.97 1.43801 154.709 1.68411ZM152.245 -5.45291C152.245 -5.20681 152.491 -4.9607 152.491 -4.71459L153.477 -1.51525C153.724 -1.02304 153.724 -0.530837 153.97 -0.0386286C153.724 -0.0386286 153.231 -0.284729 152.984 -0.284729C151.752 -0.530833 150.52 -0.530829 149.534 -0.530829C149.042 -0.530829 148.795 -0.530829 148.302 -0.530829C148.056 -1.02304 147.809 -2.25356 147.317 -3.23797L146.331 -5.45291C146.577 -5.45291 146.824 -5.45291 147.07 -5.45291C148.056 -5.45291 149.288 -5.69901 150.52 -5.69901H150.767C151.259 -5.69901 151.752 -5.69902 152.245 -5.45291Z" fill="#BF692D"/>
<path d="M153.231 4.39135C151.259 4.88356 149.534 3.89914 148.549 2.42251C148.549 1.9303 148.302 1.43809 148.302 1.19198C148.056 0.699775 148.056 0.207581 148.056 0.207581C149.288 0.453685 151.013 0.453678 152.984 0.699782C153.724 0.699782 154.463 0.945879 154.956 1.19198C154.956 1.19198 154.956 1.68419 155.202 2.42251C154.956 3.16082 154.463 4.14525 153.231 4.39135Z" fill="#EEA75D"/>
<path d="M152.244 4.88365C152.491 4.88365 152.984 4.88365 153.23 4.88365C154.462 4.63755 155.201 3.89923 155.694 2.4226V2.1765L155.448 0.945978C155.448 0.699874 155.202 0.699881 155.202 0.453776C154.462 0.207671 153.969 -0.0384448 153.23 -0.0384448C151.998 -0.28455 150.766 -0.284546 149.78 -0.284546C149.287 -0.284546 148.795 -0.284546 148.302 -0.284546C148.055 -0.284546 147.809 -0.28455 147.809 -0.0384448C147.809 0.20766 147.562 0.207671 147.809 0.453776L148.055 1.4382C148.055 1.6843 148.302 2.17651 148.302 2.66872V2.91482C149.041 4.14535 150.52 4.88365 152.244 4.88365ZM154.462 2.4226C154.216 3.16092 153.723 3.65314 152.984 3.89925C151.505 4.14535 150.027 3.65313 149.041 2.1765C149.041 1.68429 148.795 1.43819 148.795 0.945978V0.699877C149.041 0.699877 149.287 0.699877 149.534 0.699877C150.519 0.699877 151.752 0.699874 152.984 0.945978C153.477 0.945978 153.969 1.19208 154.462 1.19208V2.4226Z" fill="#BF692D"/>
<path d="M134.501 -23.6644C136.226 -22.68 137.705 -21.2034 139.43 -19.7267C140.415 -18.7423 141.647 -17.7579 142.387 -16.5274C142.88 -16.0352 143.372 -15.2969 143.865 -14.8047L145.097 -12.8358C146.083 -11.6053 146.822 -10.1287 147.562 -8.89815C148.054 -8.15984 148.301 -7.42152 148.547 -6.92931C148.794 -6.191 149.04 -5.45269 149.533 -4.96049C150.519 -2.25333 151.504 0.453831 151.751 2.66877C151.751 3.16098 151.997 3.65319 151.997 4.1454C150.519 4.1454 149.04 3.40707 148.301 2.17655C148.054 1.43824 148.054 0.699921 147.808 -0.038393C147.315 -1.26892 147.069 -2.49942 146.576 -3.48384C146.083 -4.71437 145.59 -5.9449 144.851 -7.17542C144.604 -7.66763 144.112 -8.40594 143.865 -8.89815C143.619 -9.39036 143.126 -10.1287 142.88 -10.6209C139.923 -15.0508 135.98 -18.7423 132.53 -20.9573C132.53 -22.1878 133.023 -23.1722 134.501 -23.6644Z" fill="#EEA75D"/>
<path d="M138.938 -23.6645C139.678 -23.4184 140.171 -23.1723 140.663 -22.6801C143.128 -20.4652 145.838 -17.5119 148.056 -14.3126C149.781 -11.6054 151.259 -8.89827 152.492 -6.19112C153.231 -4.9606 153.477 -3.48397 153.97 -2.25345C154.216 -1.51513 154.463 -1.02294 154.463 -0.284622C154.709 0.207586 154.709 0.945911 154.956 1.43812C154.956 1.68423 155.202 2.17642 155.202 2.42252C154.956 3.16084 154.709 3.89916 153.97 4.14527C153.97 3.65306 153.724 3.16084 153.724 2.42252C153.477 1.192 153.231 -0.0385208 152.738 -1.26904C152.492 -2.00736 152.245 -2.49955 151.999 -3.23787C151.752 -3.97618 151.506 -4.7145 151.259 -5.20671C150.027 -7.91386 148.795 -10.8671 146.824 -13.3282L145.345 -15.297C144.853 -16.0353 144.36 -16.5275 143.867 -17.0197C142.881 -18.2502 141.895 -19.2347 140.663 -20.4652C140.171 -20.9574 139.678 -21.4496 138.938 -21.9418C138.446 -22.434 137.953 -22.9262 137.213 -23.1723C136.967 -23.4184 136.721 -23.4184 136.474 -23.6645C137.46 -23.9106 138.199 -23.9106 138.938 -23.6645Z" fill="#EEA75D"/>
<path d="M426.648 8.02044C426.648 8.02044 426.989 10.1119 427.365 11.9143C427.552 12.8155 427.706 14.0058 427.639 14.5841C427.538 15.4515 427.793 15.7744 427.793 15.7744C427.249 15.4177 426.415 15.0273 425.548 14.9261C423.27 14.3669 421.28 13.8415 419.546 13.639C419.546 13.639 419.171 11.8366 419.084 10.068C418.896 9.16684 418.709 8.26565 418.776 7.68737C418.555 7.07534 418.622 6.49707 418.622 6.49707C420.356 6.69959 422.38 6.93586 424.692 7.20589C425.27 7.2734 426.103 7.66379 426.648 8.02044Z" fill="#EEA75D"/>
<path d="M427.692 16.6415C427.981 16.6753 427.981 16.6753 428.015 16.3862C428.338 16.1308 428.338 16.1308 428.372 15.8416L428.285 14.073C428.353 13.4947 428.165 12.5936 427.977 11.6924L427.26 7.79855C427.294 7.50941 427.005 7.47564 426.75 7.15275C425.916 6.76234 425.049 6.66109 424.182 6.55983C423.026 6.42482 422.159 6.32356 421.003 6.18854L419.269 5.98602C418.691 5.91852 418.402 5.88476 417.824 5.81726C417.535 5.7835 417.246 5.74975 417.212 6.03889C417.178 6.32803 416.889 6.29429 417.144 6.61718L417.91 7.58585C418.132 8.19789 418.064 8.77619 418.285 9.38822L418.969 13.5712C418.935 13.8603 419.19 14.1832 419.479 14.217C420.024 14.5736 420.891 14.6749 421.758 14.7762C422.914 14.9112 424.036 15.3353 425.481 15.5041C426.026 15.8607 426.859 16.2511 427.692 16.6415C427.403 16.6078 427.403 16.6078 427.692 16.6415ZM426.003 8.53094L426.465 12.1019C426.686 12.7139 426.585 13.5814 426.806 14.1934L426.739 14.7717C426.45 14.7379 425.906 14.3813 425.328 14.3138C423.916 13.8559 422.76 13.7208 421.604 13.5858C421.026 13.5183 420.448 13.4508 419.903 13.0942L419.475 9.23407C419.254 8.62204 419.355 7.75462 419.1 7.43173L419.389 7.46548L421.123 7.668C421.99 7.76926 423.146 7.90427 424.013 8.00553C424.88 8.10679 425.459 8.1743 426.003 8.53094Z" fill="#BF692D"/>
<path d="M422.042 -7.75804C422.042 -7.75804 422.707 -5.92195 423.627 -3.76295C424.103 -2.82802 424.257 -1.6377 424.479 -1.02567C424.7 -0.413633 424.922 0.198405 424.922 0.198405C424.344 0.130898 423.511 -0.259502 422.61 -0.071622C420.297 -0.341649 418.207 0.000349934 416.472 -0.20217C416.472 -0.20217 416.217 -0.525069 416.029 -1.42624C415.808 -2.03828 415.331 -2.97319 415.143 -3.87437C414.956 -4.77554 414.445 -5.42134 414.224 -6.03338C414.002 -6.64541 413.747 -6.96829 413.747 -6.96829C415.226 -7.08867 417.317 -7.43067 419.696 -7.73893C420.597 -7.92681 421.464 -7.82554 422.042 -7.75804Z" fill="#EEA75D"/>
<path d="M416.44 0.0873667C417.018 0.154873 417.885 0.256139 418.497 0.034504C419.653 0.169517 420.843 0.0153927 422.577 0.217913C423.444 0.319173 424.022 0.386679 424.889 0.48794C425.178 0.521693 425.468 0.555451 425.501 0.26631C425.824 0.0109221 425.858 -0.278232 425.569 -0.311986L425.126 -1.53604C425.16 -1.82518 424.904 -2.14808 424.938 -2.43723C424.717 -3.04926 424.495 -3.66129 424.274 -4.27333L422.689 -8.26845C422.723 -8.55759 422.434 -8.59134 422.145 -8.62509C421.278 -8.72635 420.411 -8.82761 419.51 -8.63973C418.031 -8.51936 416.552 -8.39898 415.362 -8.24485C414.75 -8.02321 414.172 -8.09073 413.561 -7.86909C413.272 -7.90285 413.238 -7.61371 412.949 -7.64746C412.915 -7.35832 412.881 -7.06917 412.881 -7.06917L413.613 -5.81134C413.579 -5.5222 413.869 -5.48845 413.835 -5.19931C414.056 -4.58728 414.312 -4.26438 414.533 -3.65235L415.419 -1.20419C415.64 -0.592158 415.896 -0.269277 415.896 -0.269277C415.862 0.0198645 416.151 0.0536134 416.44 0.0873667ZM423.29 -0.871149C423.001 -0.904903 423.001 -0.904903 422.712 -0.938656C421.267 -1.10742 419.788 -0.987052 418.632 -1.12207C418.054 -1.18957 417.476 -1.25706 417.153 -1.00167C417.187 -1.29082 416.898 -1.32458 416.932 -1.61372L416.046 -4.06185C415.824 -4.67389 415.603 -5.28594 415.381 -5.89798C415.415 -6.18712 415.126 -6.22086 415.16 -6.51001L415.193 -6.79914C415.482 -6.76539 415.805 -7.02077 416.094 -6.98702C417.284 -7.14115 418.763 -7.26153 420.242 -7.3819C420.82 -7.3144 421.432 -7.53603 422.299 -7.43477L423.662 -4.0517C423.883 -3.43966 424.105 -2.82763 424.326 -2.2156C424.292 -1.92645 424.548 -1.60355 424.514 -1.31441C423.579 -0.837387 423.579 -0.837396 423.29 -0.871149Z" fill="#BF692D"/>
<path d="M425.548 14.9256C426.415 15.0268 427.248 15.4172 427.793 15.7739C427.793 15.7739 427.98 16.6751 427.845 17.8316C427.643 19.5665 427.151 21.2676 426.66 22.9687C426.37 22.9349 426.115 22.612 425.826 22.5783C423.581 21.73 421.592 21.2045 420.181 20.7466C420.181 20.7466 420.248 20.1683 420.027 19.5563C420.094 18.978 419.907 18.0769 419.719 17.1757C419.632 15.4071 419.546 13.6385 419.546 13.6385C421.246 14.1301 422.981 14.3327 425.548 14.9256Z" fill="#EEA75D"/>
<path d="M426.559 23.8374L426.848 23.8712C427.137 23.9049 427.171 23.6158 427.171 23.6158C427.952 21.9484 428.154 20.2136 428.646 18.5125C428.492 17.3222 428.593 16.4547 428.593 16.4547C428.627 16.1656 428.338 16.1318 428.372 15.8427C427.539 15.4523 426.994 15.0957 426.127 14.9944C424.716 14.5365 423.56 14.4015 422.404 14.2665C421.536 14.1652 420.992 13.8085 420.125 13.7073C419.836 13.6735 419.836 13.6735 419.513 13.9289C419.19 14.1843 419.19 14.1843 419.157 14.4735L419.416 19.7793L419.281 20.9358C419.247 21.225 419.502 21.5479 419.791 21.5816C420.336 21.9383 421.203 22.0395 422.036 22.4299C423.158 22.8541 424.315 22.9891 425.437 23.4133C425.726 23.447 426.015 23.4808 426.559 23.8374C426.27 23.8037 426.27 23.8037 426.559 23.8374ZM427.235 18.0546C427.066 19.5003 426.608 20.9122 426.15 22.3242C424.739 21.8663 423.616 21.4421 422.749 21.3409C422.171 21.2734 421.627 20.9167 421.049 20.8492L421.116 20.2709L420.568 14.9314C420.857 14.9651 421.435 15.0326 422.013 15.1001C423.169 15.2351 424.292 15.6593 425.737 15.8281C426.315 15.8956 426.859 16.2522 427.437 16.3197C427.114 16.5751 427.047 17.1534 427.235 18.0546Z" fill="#BF692D"/>
<path d="M424.924 0.198903C424.924 0.198903 425.146 0.810945 425.367 1.42298C425.589 2.03502 425.743 3.22532 425.93 4.1265C426.118 5.02768 426.272 6.21801 426.494 6.83005C426.715 7.44209 426.648 8.02038 426.648 8.02038C426.103 7.66373 425.236 7.56247 424.369 7.46121C422.057 7.19118 420.034 6.95491 418.299 6.75239C418.299 6.75239 418.044 6.42949 418.145 5.56206C417.924 4.95003 417.736 4.04884 417.549 3.14766C417.173 1.3453 416.475 -0.201669 416.475 -0.201669C417.92 -0.0329016 419.977 -0.0857618 422.612 -0.0711235C423.513 -0.259005 424.091 -0.191499 424.924 0.198903Z" fill="#EEA75D"/>
<path d="M426.58 8.59825C426.869 8.63201 426.869 8.63201 427.192 8.37662C427.514 8.12124 427.514 8.12124 427.105 6.60802L426.354 3.00332C426.133 2.39129 426.2 1.81299 425.979 1.20095L425.536 -0.0231066C425.57 -0.312248 425.281 -0.346019 424.992 -0.379773C424.158 -0.770174 423.291 -0.871429 422.424 -0.972689C420.979 -1.14146 419.5 -1.02109 418.344 -1.1561C417.477 -1.25736 416.865 -1.03571 416.287 -1.10321C415.998 -1.13697 415.998 -1.13697 415.675 -0.881582C415.641 -0.59244 415.641 -0.592449 415.608 -0.303308L416.681 3.04601C416.903 3.65805 416.835 4.23633 417.091 4.55922C417.057 4.84837 417.312 5.17127 417.278 5.46041L417.432 6.65074C417.398 6.93988 417.654 7.26276 417.943 7.29652C418.521 7.36402 418.81 7.39778 419.388 7.46528L421.122 7.6678C421.989 7.76906 423.145 7.90408 424.012 8.00534C425.168 8.14035 425.747 8.20785 426.58 8.59825ZM424.278 0.709292L424.5 1.32134C424.755 1.64424 424.688 2.22252 424.909 2.83456L425.66 6.43926C425.371 6.4055 424.793 6.338 424.249 5.98135C423.093 5.84634 422.226 5.74508 421.069 5.61007L419.335 5.40755C419.046 5.3738 418.757 5.34004 418.468 5.30629L418.247 4.69424C418.28 4.4051 418.025 4.08222 418.059 3.79307C417.837 3.18104 417.905 2.60276 417.683 1.99072L416.797 -0.457432C417.086 -0.423679 417.665 -0.356172 417.954 -0.322418C419.11 -0.187405 420.3 -0.34153 422.034 -0.13901C423.156 0.285145 423.734 0.352644 424.278 0.709292Z" fill="#BF692D"/>
<path d="M425.792 22.8676C426.081 22.9013 426.37 22.9351 426.626 23.258C426.558 23.8363 426.235 24.0917 425.879 24.6362C425.522 25.1807 424.91 25.4024 424.01 25.5902C422.531 25.7106 421.119 25.2527 420.031 24.5394L420.113 21.3251C421.558 21.4939 423.548 22.0193 425.792 22.8676Z" fill="#EEA75D"/>
<path d="M422.786 26.0335C423.364 26.101 423.653 26.1348 424.265 25.9131C425.166 25.7252 425.778 25.5036 426.457 24.7037C426.457 24.7037 426.457 24.7037 426.491 24.4146C426.847 23.87 426.915 23.2917 427.238 23.0364C427.271 22.7472 427.305 22.4581 426.761 22.1014C426.472 22.0677 426.217 21.7448 425.928 21.711C424.516 21.2531 423.394 20.829 422.527 20.7277C421.693 20.3373 420.826 20.2361 420.282 19.8794C419.993 19.8456 419.704 19.8119 419.67 20.101C419.347 20.3564 419.347 20.3564 419.314 20.6456L419.231 23.8599C419.198 24.149 419.487 24.1828 419.453 24.4719C420.797 25.5081 421.63 25.8985 422.786 26.0335ZM425.368 23.9904C425.046 24.2458 424.723 24.5012 424.111 24.7228C423.822 24.6891 423.244 24.6216 422.955 24.5878C422.088 24.4865 421.544 24.1299 420.71 23.7395L420.658 21.6818C421.236 21.7493 421.491 22.0721 422.069 22.1397C423.191 22.5638 424.347 22.6988 425.47 23.123C425.402 23.7013 425.368 23.9904 425.368 23.9904Z" fill="#BF692D"/>
<path d="M404.605 -21.5176C404.639 -21.8068 404.962 -22.0622 405.285 -22.3176C405.608 -22.573 405.897 -22.5392 406.508 -22.7608C406.764 -22.4379 407.019 -22.1151 407.563 -21.7584C408.618 -20.756 410.183 -19.1077 411.715 -17.1704C413.247 -15.233 415 -12.6836 416.43 -9.8788C417.128 -8.33184 417.86 -7.07403 418.558 -5.52706C419.257 -3.9801 419.955 -2.43312 420.33 -0.630761C421.404 2.71856 422.189 6.03412 422.718 9.02679C422.839 10.5062 423.248 12.0195 423.368 13.4989C423.488 14.9784 423.608 16.4578 423.762 17.6482C424.036 20.3179 423.8 22.3419 423.92 23.8214C423.819 24.6888 424.04 25.3008 424.007 25.59C422.528 25.7104 421.116 25.2525 420.028 24.5392C420.062 24.25 420.095 23.9609 420.163 23.3826C420.043 21.9031 420.245 20.1683 419.937 17.7876C419.783 16.5973 419.629 15.407 419.509 13.9276C419.355 12.7372 419.235 11.2578 418.826 9.74457C418.706 8.26511 418.296 6.75189 417.887 5.23868C417.478 3.72547 417.069 2.21225 416.66 0.699043C414.7 -5.09842 412.128 -10.6743 409.32 -14.2261C408.078 -16.1297 406.768 -17.455 405.679 -18.1683C404.913 -19.137 404.369 -19.4937 404.369 -19.4937C404.437 -20.072 404.538 -20.9394 404.605 -21.5176Z" fill="#EEA75D"/>
<path d="M414.212 -20.9819C414.723 -20.3361 415.233 -19.6904 415.744 -19.0446C416.51 -18.0759 417.242 -16.818 418.263 -15.5265C418.995 -14.2686 419.727 -13.0108 420.714 -11.4301C422.144 -8.62531 423.507 -5.24224 424.614 -2.18206C426.796 4.22744 427.753 11.0802 428.046 16.0969C427.979 16.6751 428.2 17.2872 428.133 17.8655C427.896 19.8895 427.337 22.1688 426.234 24.0916C426.267 23.8024 426.301 23.5133 426.335 23.2241C426.215 21.7447 426.451 19.7207 426.177 17.0509C425.884 12.0343 424.926 5.18149 422.779 -1.51715C422.403 -3.3195 421.705 -4.86646 421.007 -6.41343C420.309 -7.9604 419.61 -9.50736 418.912 -11.0543C417.193 -13.8929 415.729 -16.4085 413.942 -18.6688C412.41 -20.6062 411.1 -21.9315 410.046 -22.9339C411.134 -22.2206 412.835 -21.729 414.212 -20.9819Z" fill="#EEA75D"/>
<ellipse rx="4.34302" ry="2.60581" transform="matrix(-1 0 0 1 422.49 50.9197)" fill="#52402C"/>
<path d="M423.598 52.205C422.308 52.4309 421.017 51.5275 420.372 50.3984V49.7209C421.232 50.3984 422.523 51.0759 423.598 52.205C423.813 52.205 423.598 52.205 423.598 52.205Z" fill="#EEA75D"/>
<path d="M423.168 52.6571C423.383 52.6571 423.598 52.6571 423.598 52.6571H423.813C424.028 52.6571 424.028 52.4312 424.028 52.4312C424.028 52.2054 424.028 52.2054 423.813 51.9796C423.168 51.5279 422.738 51.0763 422.093 50.8504C421.448 50.3988 420.803 49.9471 420.373 49.4955C420.158 49.4955 420.158 49.4955 419.943 49.4955C419.728 49.4955 419.728 49.7213 419.728 49.9471V50.6246V50.8504C420.803 51.7537 421.878 52.6571 423.168 52.6571ZM421.018 50.6246C421.233 50.8504 421.663 51.0763 422.093 51.3021C422.308 51.5279 422.523 51.5279 422.738 51.7537C422.093 51.5279 421.448 51.0763 421.018 50.6246Z" fill="#BF692D"/>
<path d="M425.322 23.2996V33.236C424.892 32.7843 424.462 32.3327 424.032 31.881C422.527 30.7519 421.452 30.0744 420.376 29.3969C420.376 29.3969 420.376 26.9128 420.376 24.4287C420.376 21.9446 420.376 19.4605 420.376 19.4605C421.237 20.138 422.527 20.8155 424.032 21.9446C424.677 22.3963 425.107 22.8479 425.322 23.2996Z" fill="#EEA75D"/>
<path d="M425.32 33.6878C425.535 33.6878 425.535 33.6878 425.32 33.6878C425.535 33.6878 425.75 33.462 425.75 33.2361V23.2998V23.0739C425.32 22.6223 424.89 22.1706 424.245 21.719C423.6 21.2673 422.955 20.8157 422.309 20.364C421.664 19.9123 421.019 19.4607 420.589 19.2349C420.374 19.2349 420.374 19.2349 420.159 19.2349C419.944 19.2349 419.944 19.4607 419.944 19.6865C419.944 19.6865 419.944 22.1706 419.944 24.6547V29.6229C419.944 29.8487 419.944 29.8487 420.159 29.8487C420.589 30.3004 421.234 30.752 421.879 31.2037C422.524 31.6553 422.955 31.8812 423.6 32.5586C424.03 33.0103 424.46 33.2361 424.89 33.9136C425.105 33.6878 425.32 33.6878 425.32 33.6878ZM425.105 23.5256V32.3328C424.89 32.107 424.675 31.8812 424.46 31.6553C423.815 31.2037 423.17 30.752 422.524 30.3004C421.879 29.8487 421.449 29.6229 421.019 29.1712V24.4289C421.019 22.8481 421.019 21.2673 421.019 20.1382C421.449 20.364 421.879 20.5898 422.309 21.0415C422.955 21.4931 423.385 21.719 424.245 22.3964C424.245 22.6223 424.675 23.0739 425.105 23.5256Z" fill="#BF692D"/>
<path d="M425.107 3.20104L425.322 13.3632C424.892 12.9116 424.462 12.4599 424.032 12.0083C422.527 10.8791 421.452 10.2017 420.376 9.52419C420.376 9.52419 420.376 7.04009 420.376 4.33017C420.376 1.84608 420.161 -0.863831 420.161 -0.863831C421.022 -0.186351 422.312 0.491125 423.817 1.62026C424.247 2.29774 424.677 2.74938 425.107 3.20104Z" fill="#EEA75D"/>
<path d="M425.32 13.8148C425.535 13.8148 425.75 13.589 425.75 13.3632L425.535 3.20098V2.97516C425.105 2.5235 424.675 2.07185 424.03 1.6202C423.385 1.16855 422.739 0.716895 422.094 0.265242C421.449 -0.186412 420.804 -0.638065 420.374 -0.863892C420.159 -0.863892 420.159 -0.863892 419.944 -0.863892C419.729 -0.863892 419.729 -0.638072 419.729 -0.412245L419.944 4.78178V9.97578C419.944 10.2016 419.944 10.2016 420.159 10.2016C420.589 10.6533 421.234 11.1049 421.879 11.5566C422.524 12.0082 422.955 12.2341 423.815 12.9115C424.245 13.3632 424.675 13.589 425.105 14.0407C425.105 13.8148 425.105 13.8148 425.32 13.8148ZM424.675 3.4268L424.89 12.4599C424.675 12.234 424.46 12.0082 424.03 11.7824C423.385 11.3307 422.739 10.8791 422.094 10.4274C421.449 9.97579 421.019 9.74996 420.589 9.29831L420.374 0.0394014C420.804 0.265228 421.234 0.491062 421.664 0.716888C422.309 1.16854 422.955 1.39437 423.6 1.84602C424.03 2.5235 424.46 2.97515 424.675 3.4268Z" fill="#BF692D"/>
<path d="M424.888 -6.73551L425.104 3.20088C424.673 2.74922 424.243 2.29757 423.813 1.84592C422.308 0.716785 421.018 0.0393076 420.158 -0.638172L419.943 -10.5746C420.803 -9.89707 422.093 -9.2196 423.598 -8.09046C424.028 -7.63881 424.458 -7.18716 424.888 -6.73551Z" fill="#EEA75D"/>
<path d="M425.104 3.65274C425.104 3.65274 425.319 3.65274 425.104 3.65274C425.319 3.65274 425.534 3.4269 425.534 3.20107L425.319 -6.73532V-6.96114C424.889 -7.4128 424.459 -7.86445 423.814 -8.3161C423.169 -8.76776 422.524 -9.21941 421.879 -9.44524C421.233 -9.89689 420.588 -10.3485 420.158 -10.5744C419.943 -10.5744 419.943 -10.5744 419.728 -10.5744C419.513 -10.5744 419.513 -10.3486 419.513 -10.1227L419.728 -0.186332C419.728 0.0394955 419.728 0.0394917 419.943 0.0394917C420.373 0.491146 421.018 0.716973 421.664 1.16863C422.309 1.62028 422.954 1.84611 423.599 2.29776C424.029 2.52359 424.459 2.97524 424.889 3.4269L425.104 3.65274ZM424.459 -6.73532L424.674 2.07194C424.459 1.84611 424.244 1.62029 423.814 1.39447C423.169 0.942814 422.524 0.491146 421.879 0.0394917C421.233 -0.412162 420.803 -0.637989 420.158 -1.08964L419.943 -10.1227C420.373 -9.8969 420.803 -9.67106 421.233 -9.44524C421.879 -8.99358 422.524 -8.76776 423.169 -8.3161C423.814 -7.41279 424.029 -7.18697 424.459 -6.73532Z" fill="#BF692D"/>
<path d="M425.318 33.4617V43.3981C424.888 42.9464 424.458 42.4948 424.028 42.0431C422.523 40.914 421.448 40.2365 420.373 39.559V29.6227C421.233 30.3001 422.523 31.2034 424.028 32.1067C424.673 32.5584 425.103 33.01 425.318 33.4617Z" fill="#EEA75D"/>
<path d="M425.534 43.8498C425.749 43.8498 425.964 43.624 425.964 43.3981V33.4617V33.2359C425.534 32.7843 425.104 32.3326 424.459 31.881C423.813 31.4293 423.168 30.9776 422.523 30.526C421.878 30.0743 421.233 29.6227 420.803 29.3969C420.588 29.3969 420.588 29.3969 420.373 29.3969C420.158 29.3969 420.158 29.6227 420.158 29.8485V39.7849C420.158 40.0107 420.158 40.0107 420.373 40.0107C420.803 40.4624 421.448 40.914 422.093 41.3657C422.738 41.8173 423.168 42.269 423.813 42.7206C424.244 43.1723 424.674 43.3981 425.104 44.0756C425.319 43.8498 425.319 43.8498 425.534 43.8498ZM425.104 33.4617V42.269C424.889 42.0432 424.674 41.8173 424.459 41.5915C423.813 41.1399 423.168 40.6882 422.523 40.2366C421.878 39.7849 421.448 39.5591 421.018 39.1074V30.0743C421.448 30.3002 421.878 30.526 422.093 30.9777C422.738 31.4293 423.168 31.6551 423.813 32.3326C424.244 32.7843 424.674 33.0101 425.104 33.4617Z" fill="#BF692D"/>
<path d="M425.322 13.3635C425.322 13.3635 425.322 15.8476 425.322 18.3317C425.322 19.6866 425.322 20.8158 425.322 21.7191C425.322 22.6224 425.322 23.2999 425.322 23.2999C424.892 22.8482 424.462 22.3966 424.032 21.9449C422.527 20.8158 421.452 20.1383 420.376 19.4608L420.161 9.52441C421.022 10.2019 422.312 10.8794 423.817 12.0085C424.462 12.4602 424.892 12.9118 425.322 13.3635Z" fill="#EEA75D"/>
<path d="M425.32 23.7514C425.535 23.7514 425.535 23.7514 425.32 23.7514C425.535 23.7514 425.75 23.5256 425.75 23.2998V18.3316V13.3634V13.1376C425.32 12.6859 424.89 12.2343 424.245 11.7826C423.6 11.331 422.955 10.8793 422.309 10.4277C421.664 9.976 421.019 9.52435 420.589 9.29852C420.374 9.29852 420.374 9.29852 420.159 9.29852C419.944 9.29852 419.944 9.52434 419.944 9.75017L420.159 19.6866C420.159 19.9124 420.159 19.9124 420.374 19.9124C420.804 20.364 421.449 20.8157 422.094 21.2673C422.739 21.719 423.17 21.9448 424.03 22.6223C424.46 22.8481 424.89 23.2998 425.32 23.7514C425.105 23.7514 425.32 23.7514 425.32 23.7514ZM424.89 13.5892L425.105 22.3965C424.89 22.1706 424.675 21.9448 424.46 21.719C423.815 21.2674 423.17 20.8157 422.524 20.364C421.879 19.9124 421.449 19.6865 421.019 19.2349L420.804 10.2018C421.234 10.4276 421.664 10.6535 422.094 11.1051C422.739 11.5568 423.17 11.7826 424.03 12.4601C424.245 12.6859 424.46 13.1376 424.89 13.5892Z" fill="#BF692D"/>
<path d="M425.322 48.5922C425.322 49.2696 425.322 49.9471 425.322 50.3988C425.107 51.3021 424.462 51.9796 423.817 52.2054C422.527 51.3021 421.237 50.3988 420.376 49.7213C420.376 49.7213 420.376 47.2372 420.376 44.5273C420.376 42.0432 420.376 39.3333 420.376 39.3333C421.237 40.0108 422.527 40.9141 424.032 41.8174C424.677 42.269 425.107 42.7207 425.322 43.1723C425.322 43.1723 425.322 43.8498 425.322 44.7531C425.322 45.8823 425.322 47.2372 425.322 48.5922Z" fill="#EEA75D"/>
<path d="M423.815 52.4312C424.675 52.2054 425.32 51.5279 425.75 50.3988C425.75 50.3988 425.75 50.3988 425.75 50.1729V43.1723V42.9465C425.32 42.4948 424.89 42.0432 424.245 41.5915C423.6 41.1399 422.955 40.6882 422.309 40.2366C421.664 39.7849 421.019 39.3333 420.589 38.8816C420.374 38.8816 420.374 38.8816 420.159 38.8816C419.944 38.8816 419.944 39.1074 419.944 39.3333V44.5273V49.7213C419.944 49.9471 419.944 49.9471 420.159 49.9471C420.589 50.3988 421.234 50.8504 421.879 51.3021C422.309 51.7537 422.955 51.9796 423.385 52.4312C423.6 52.4312 423.815 52.4312 423.815 52.4312ZM424.89 50.1729C424.675 50.6246 424.245 51.3021 423.815 51.5279C423.385 51.0762 422.739 50.8504 422.309 50.3988C421.664 49.9471 421.234 49.7213 420.804 49.2696V44.3015V40.0108C421.234 40.2366 421.664 40.4624 422.094 40.9141C422.739 41.3657 423.17 41.8174 423.815 42.269C424.245 42.4948 424.675 42.9465 425.105 43.3982L424.89 50.1729Z" fill="#BF692D"/>
<path d="M422.955 52.2055C421.88 51.9797 421.02 51.3022 420.59 50.3989C420.59 48.5922 420.59 47.0114 420.59 45.2048C420.59 42.9466 420.59 40.6883 420.59 38.43C420.59 33.9135 420.59 29.397 420.59 25.3321C420.59 21.0414 420.59 16.9765 420.375 12.9116C420.375 9.07256 420.375 5.2335 420.16 1.84609C419.945 -4.92871 419.945 -10.8002 419.73 -14.6393C419.73 -17.1234 419.514 -18.93 419.514 -20.0591C420.16 -20.9624 421.02 -21.4141 421.88 -21.4141C422.095 -18.93 422.31 -10.5744 422.525 1.16861C422.74 4.78184 422.74 8.39507 422.74 12.4599C422.74 16.5248 422.955 20.8156 422.955 25.1063C422.955 29.397 422.955 33.9135 422.955 38.6559C422.955 40.9141 422.955 43.1724 422.955 45.6565C422.955 47.9148 422.955 49.9472 422.955 52.2055Z" fill="#EEA75D"/>
<path d="M425.317 50.3985C425.102 51.076 424.672 51.7535 424.027 52.2051C424.242 43.1721 424.027 34.139 424.027 25.5576C424.027 21.2669 424.027 16.9762 423.812 12.9113C423.812 8.8464 423.812 5.00735 423.597 1.61995C423.382 -9.67139 422.952 -18.027 422.952 -20.7369C423.382 -20.5111 423.812 -20.0594 424.242 -19.382C424.242 -18.2528 424.242 -16.672 424.457 -14.4138C424.672 -10.3489 424.672 -4.70321 424.887 2.29741C424.887 5.68482 425.102 9.52387 425.102 13.3629C425.102 17.202 425.317 21.4927 425.317 25.7834C425.317 30.0741 425.317 34.5906 425.317 39.1072C425.317 41.3655 425.317 43.6237 425.317 45.882C425.317 47.2369 425.317 48.8177 425.317 50.3985Z" fill="#EEA75D"/>
<path d="M421.076 11.5568C421.076 11.5568 420.492 13.3099 420.2 15.0629C419.908 15.9394 419.616 16.816 419.616 17.4003C419.324 17.9847 419.324 18.569 419.324 18.569C418.74 17.9847 418.156 17.6925 417.571 17.1081C415.527 15.6473 413.775 14.7707 412.606 13.8942C412.606 13.8942 413.19 12.1412 413.483 10.0959C413.775 9.2194 414.067 8.34287 414.067 7.46635C414.359 6.88199 414.359 6.29764 414.359 6.29764C415.527 7.46634 417.279 8.34286 419.032 9.80374C419.908 10.6803 420.492 10.9725 421.076 11.5568Z" fill="#EEA75D"/>
<path d="M419.322 19.4457C419.614 19.4457 419.906 19.1535 419.906 18.8613L420.782 15.3552L421.658 11.8491C421.658 11.5569 421.658 11.2647 421.366 11.2647C420.782 10.6804 420.198 10.096 419.614 9.51168C419.03 8.92732 418.446 8.63514 417.861 8.34297C416.693 7.46644 415.525 6.8821 414.941 6.00557C414.649 5.71339 414.649 5.71339 414.357 6.00557C414.065 6.00557 414.065 6.29774 413.772 6.58991L413.188 8.63516L411.728 13.8943C411.728 14.1865 411.728 14.4787 412.02 14.4787C412.896 15.063 413.773 15.6474 414.941 16.5239C415.525 16.8161 416.401 17.4004 416.985 17.9848C417.569 18.5691 418.153 18.8613 418.738 19.4457C418.738 19.4457 419.03 19.4457 419.322 19.4457ZM420.198 11.8491L418.738 17.4004C418.446 17.1083 418.153 16.8161 417.861 16.5239C416.985 15.9396 416.401 15.6474 415.817 15.063C414.941 14.4787 414.065 13.8943 413.48 13.31L414.941 7.17428C415.525 7.75863 416.401 8.34298 417.277 8.92733C417.861 9.21951 418.446 9.80387 419.03 10.096C419.322 10.9726 419.906 11.2647 420.198 11.8491Z" fill="#BF692D"/>
<path d="M425.749 -1.88298C425.749 -1.88298 425.457 -1.5908 425.165 -1.00644C424.873 -0.422091 424.581 0.454447 424.289 1.33098C423.997 2.2075 423.705 3.08402 423.413 3.66837C423.12 4.25273 423.12 4.83708 423.12 4.83708C422.828 4.25273 422.244 3.66838 421.368 3.08403C419.616 1.62315 418.155 0.162261 416.987 -1.00644C416.987 -1.00644 417.279 -1.5908 417.571 -2.17515C417.863 -2.75951 418.155 -3.92822 418.739 -4.80475C419.616 -6.5578 420.492 -8.31085 420.492 -8.31085C421.368 -7.14215 422.828 -5.68127 424.581 -3.63604C424.873 -3.05168 425.457 -2.46733 425.749 -1.88298Z" fill="#EEA75D"/>
<path d="M423.12 5.42143H423.412C423.704 5.42143 423.704 5.12926 423.704 4.83709C423.704 4.83709 423.704 4.25273 423.996 3.96055L424.873 1.62316C424.873 1.33098 425.165 1.0388 425.165 0.74662C425.457 0.162269 425.457 -0.129908 425.749 -0.714259L426.333 -1.59077C426.333 -1.88295 426.333 -2.17514 426.333 -2.17514C426.041 -2.75949 425.457 -3.34383 424.873 -4.22036L423.704 -5.38907C422.536 -6.55777 421.66 -7.72647 420.784 -8.603C420.784 -8.89518 420.492 -8.89517 420.2 -8.89517C419.908 -8.89517 419.616 -8.603 419.616 -8.603L417.863 -5.0969C417.571 -4.51255 417.279 -3.9282 416.987 -3.34385C416.987 -3.05167 416.695 -2.75949 416.695 -2.46731L416.111 -1.2986C416.111 -1.00643 416.111 -0.714259 416.403 -0.714259C417.279 0.162269 418.447 1.0388 419.616 2.2075L421.076 3.37621C421.66 3.96056 422.244 4.54491 422.536 4.83709C422.536 5.12926 422.828 5.42143 423.12 5.42143ZM424.873 -1.88297L424.581 -1.2986C424.289 -1.00643 424.289 -0.422074 423.996 0.162277C423.996 0.454453 423.704 0.746616 423.704 1.03879L422.828 3.37621C422.536 3.08403 422.244 2.79185 421.952 2.49967L420.784 1.62316C419.616 0.74663 418.739 -0.129903 417.863 -1.00643L418.155 -1.88297C418.155 -2.17514 418.447 -2.46731 418.447 -2.75948C418.739 -3.34383 419.031 -3.92818 419.031 -4.51253L420.492 -7.14212C421.076 -6.26559 421.952 -5.38906 422.828 -4.51253L423.704 -3.34385C424.289 -2.7595 424.581 -2.46732 424.873 -1.88297Z" fill="#BF692D"/>
<path d="M419.324 18.8616L417.572 26.166C416.988 25.5816 416.404 25.2895 415.819 24.7051C413.775 23.5364 412.023 22.3677 410.854 21.4912C410.854 21.4912 411.146 19.7381 411.731 17.6929C412.023 15.9398 412.607 13.8946 412.607 13.8946C413.775 14.7711 415.527 15.9398 417.572 17.1085C418.156 17.6929 418.74 18.2772 419.324 18.8616Z" fill="#EEA75D"/>
<path d="M417.568 26.7503C417.568 26.7503 417.86 26.7503 417.568 26.7503C417.86 26.7503 418.152 26.4581 418.152 26.1659L419.904 18.8615C419.904 18.5693 419.904 18.2771 419.612 18.2771C419.028 17.6928 418.444 17.1084 417.568 16.8163C416.692 16.2319 416.107 15.9397 415.523 15.3554C414.355 14.771 413.479 14.1867 412.895 13.6023C412.603 13.6023 412.603 13.3102 412.311 13.6023C412.019 13.6023 412.019 13.8945 411.727 14.1867C411.727 14.1867 411.142 16.2319 410.85 17.985L409.974 21.7833C409.974 22.0755 409.974 22.3676 410.266 22.3676C411.142 22.952 412.019 23.5363 412.895 24.1207C413.771 24.705 414.355 24.9972 415.231 25.5816C415.815 25.8737 416.4 26.4581 416.984 27.0424C417.276 26.7503 417.276 26.7503 417.568 26.7503ZM418.444 18.8615L417.276 24.705C416.984 24.4129 416.692 24.1207 416.107 23.8285C415.231 23.2442 414.355 22.6598 413.771 22.3676C412.895 21.7833 412.311 21.4911 411.434 20.9067L412.019 17.6928C412.311 16.8163 412.603 15.6476 412.603 15.0632C413.187 15.3554 413.771 15.9397 414.647 16.5241C415.231 16.8163 416.107 17.4006 416.692 17.985C417.568 18.2772 418.152 18.5693 418.444 18.8615Z" fill="#BF692D"/>
<path d="M423.12 4.54476C423.12 4.54476 422.536 6.29781 421.952 8.05087C421.368 9.80393 421.076 11.557 421.076 11.557C420.492 10.9726 419.907 10.3883 419.323 10.0961C417.279 8.63524 415.819 7.46652 414.65 6.58999C414.65 6.58999 415.234 4.83694 415.819 2.79171C416.111 1.91518 416.403 1.03865 416.695 0.162118C416.987 -0.422235 417.279 -1.00659 417.279 -1.00659C418.447 0.162114 419.907 1.33082 421.66 3.08388C421.952 3.66823 422.536 4.25259 423.12 4.54476Z" fill="#EEA75D"/>
<path d="M421.076 12.4336C421.076 12.4336 421.076 12.1414 421.076 12.4336C421.368 12.4336 421.66 12.1414 421.66 11.8493C421.66 11.8493 421.952 10.0962 422.536 8.34313L423.704 4.83702C423.704 4.54485 423.704 4.25268 423.704 4.25268C423.12 3.66833 422.536 3.08396 421.952 2.4996L420.783 1.62309C419.615 0.454381 418.447 -0.422149 417.571 -1.29868C417.279 -1.59086 417.279 -1.59085 416.987 -1.59085C416.695 -1.59085 416.695 -1.29868 416.403 -1.29868L415.818 -0.129968C415.526 0.454385 415.234 1.3309 414.942 2.20743L413.774 6.00574C413.774 6.29791 413.774 6.59008 414.066 6.59008C414.942 7.17443 415.818 8.05097 417.279 8.9275C417.863 9.21968 418.447 9.80404 419.031 10.0962C419.615 10.6806 420.199 10.9727 420.783 11.5571C420.491 12.1414 420.783 12.4336 421.076 12.4336ZM422.244 4.83702L421.368 8.05096C421.076 8.92749 420.783 9.80403 420.783 10.3884C420.491 10.0962 420.199 9.80402 419.907 9.51184C419.323 8.92749 418.739 8.63531 418.155 8.34313C417.279 7.4666 416.11 6.88226 415.526 6.29791L416.695 2.7918C416.987 1.91527 417.279 1.03873 417.571 0.454376V0.162204C418.447 0.746557 419.323 1.62307 420.199 2.4996L421.076 3.37614C421.368 3.96049 421.952 4.25267 422.244 4.83702Z" fill="#BF692D"/>
<path d="M409.684 25.8737L410.56 21.4911C411.728 22.3676 413.481 23.5363 415.525 24.705C416.401 25.2894 416.985 25.5816 417.277 26.1659V26.7503C415.525 27.919 411.728 27.3346 409.684 25.8737Z" fill="#EEA75D"/>
<path d="M414.651 27.9191C415.819 27.9191 416.987 27.6269 417.863 27.0426C418.155 27.0426 418.155 26.7504 418.155 26.4582V25.8739C418.155 25.5817 418.155 25.2895 417.863 25.2895C417.279 24.7052 416.695 24.1208 415.819 23.8286C414.943 23.2443 414.066 22.6599 413.482 22.3677C412.606 21.7834 411.73 21.199 410.854 20.6147C410.562 20.6147 410.562 20.3225 410.27 20.6147C409.978 20.6147 409.978 20.9069 409.978 21.199L409.101 25.5817C409.101 25.8739 409.101 26.166 409.393 26.166C410.562 27.3347 412.606 27.9191 414.651 27.9191ZM416.695 26.166C416.111 26.4582 415.235 26.4582 414.358 26.4582C412.898 26.4582 411.438 26.166 410.27 25.2895L410.854 22.3677C411.438 22.6599 412.022 23.2443 412.606 23.5365C413.482 24.1208 414.066 24.413 414.943 24.9973C415.819 25.5817 416.403 25.8739 416.695 26.166Z" fill="#BF692D"/>
<path d="M411.44 17.9852C412.609 13.3103 414.069 6.88247 416.405 0.454594C416.99 -1.00629 417.574 -2.75934 418.158 -4.22022C419.034 -5.6811 419.618 -7.14198 420.202 -8.60287C421.663 -11.2325 423.123 -13.862 424.291 -15.9073C425.167 -17.3682 425.752 -18.5369 426.336 -19.4134C428.088 -20.5821 429.84 -21.4586 431.593 -20.8743C431.009 -19.7056 429.548 -17.3681 428.088 -14.7386C425.751 -10.3559 421.955 -4.80457 419.91 1.6233C417.574 8.05118 416.113 14.4791 414.945 19.4461C413.777 24.413 413.193 27.627 413.193 27.627C411.732 27.3348 410.564 27.0426 409.688 26.1661C409.688 25.8739 410.564 22.66 411.44 17.9852Z" fill="#EEA75D"/>
<path d="M416.988 19.1541C418.156 14.4793 419.617 8.05141 421.661 1.91571C423.706 -4.21999 427.21 -9.47916 429.547 -13.8618C430.715 -15.907 431.883 -17.6601 432.467 -19.121C432.759 -19.7053 433.052 -19.9975 433.052 -20.2897C433.344 -19.9975 433.636 -19.7053 433.636 -19.4132C433.636 -19.121 433.928 -18.8288 433.928 -18.2444C433.928 -17.9523 433.636 -17.6601 433.344 -17.3679C432.759 -16.1992 431.591 -14.4462 430.423 -12.4009C429.255 -10.3557 427.794 -8.01827 426.626 -5.68086C426.042 -4.51216 425.458 -3.05129 424.874 -1.88259C424.29 -0.713882 423.706 0.747004 423.121 2.20788L422.829 3.37659L422.537 4.5453C422.245 5.12965 421.953 6.00617 421.953 6.59053C421.661 8.05141 421.077 9.51229 420.785 10.681C420.201 13.6028 419.325 16.2323 418.74 18.2776C417.864 22.9524 416.988 25.8741 416.988 25.8741C416.404 26.1663 415.528 26.4585 414.944 26.4585C415.236 27.335 416.112 24.1211 416.988 19.1541Z" fill="#EEA75D"/>
</svg>
