<svg width="11" height="75" viewBox="0 0 11 75" fill="none" xmlns="http://www.w3.org/2000/svg">
<ellipse cx="5.14407" cy="70.1542" rx="5.08011" ry="4.20838" fill="#52402C"/>
<path d="M3.84617 72.2296C5.35536 72.5943 6.86456 71.1355 7.61915 69.3119V68.2178C6.61302 69.3119 5.10383 70.4061 3.84617 72.2296C3.59463 72.2296 3.84617 72.2296 3.84617 72.2296Z" fill="#EEA75D"/>
<path d="M4.34988 72.9597C4.09835 72.9597 3.84682 72.9597 3.84682 72.9597H3.59529C3.34376 72.9597 3.34375 72.595 3.34375 72.595C3.34375 72.2303 3.34376 72.2303 3.59529 71.8656C4.34989 71.1361 4.85295 70.4067 5.60755 70.042C6.36215 69.3126 7.11674 68.5832 7.61981 67.8538C7.87134 67.8538 7.87134 67.8538 8.12288 67.8538C8.37441 67.8538 8.3744 68.2185 8.3744 68.5832V69.6773V70.042C7.11674 71.5008 5.85908 72.9597 4.34988 72.9597ZM6.86521 69.6773C6.61368 70.042 6.11061 70.4067 5.60755 70.7714C5.35602 71.1362 5.10449 71.1361 4.85295 71.5009C5.60755 71.1361 6.36215 70.4067 6.86521 69.6773Z" fill="#BF692D"/>
<path d="M1.83472 25.5475V41.5947C2.33778 40.8653 2.84084 40.1359 3.34391 39.4064C5.10463 37.5829 6.3623 36.4887 7.61996 35.3946C7.61996 35.3946 7.61996 31.3828 7.61996 27.371C7.61996 23.3592 7.61996 19.3474 7.61996 19.3474C6.61383 20.4415 5.10463 21.5357 3.34391 23.3592C2.58931 24.0886 2.08625 24.818 1.83472 25.5475Z" fill="#EEA75D"/>
<path d="M1.83473 42.3243C1.5832 42.3243 1.5832 42.3243 1.83473 42.3243C1.5832 42.3243 1.33167 41.9596 1.33167 41.5949V25.5477V25.183C1.83473 24.4536 2.3378 23.7242 3.09239 22.9947C3.84699 22.2653 4.60159 21.5359 5.35619 20.8065C6.11079 20.077 6.86538 19.3476 7.36845 18.9829C7.61998 18.9829 7.61998 18.9829 7.87151 18.9829C8.12305 18.9829 8.12304 19.3476 8.12304 19.7123C8.12304 19.7123 8.12304 23.7241 8.12304 27.7359V35.7596C8.12304 36.1243 8.12305 36.1243 7.87151 36.1243C7.36845 36.8537 6.61384 37.5831 5.85925 38.3125C5.10465 39.042 4.60159 39.4067 3.84699 40.5008C3.34392 41.2302 2.84086 41.5949 2.3378 42.689C2.08627 42.3243 1.83473 42.3243 1.83473 42.3243ZM2.08626 25.9124V40.1361C2.33779 39.7714 2.58933 39.4067 2.84087 39.0419C3.59546 38.3125 4.35005 37.5831 5.10465 36.8537C5.85925 36.1243 6.36232 35.7596 6.86538 35.0301V27.3712C6.86538 24.8183 6.86538 22.2653 6.86538 20.4418C6.36232 20.8065 5.85925 21.1712 5.35619 21.9006C4.60159 22.63 4.09852 22.9947 3.09239 24.0889C3.09239 24.4536 2.58933 25.183 2.08626 25.9124Z" fill="#BF692D"/>
<path d="M2.08625 -6.91181L1.83472 9.50011C2.33778 8.77069 2.84084 8.04128 3.34391 7.31186C5.10463 5.48831 6.36229 4.39419 7.61995 3.30006C7.61995 3.30006 7.61995 -0.711753 7.61995 -5.08827C7.61995 -9.10007 7.87149 -13.4766 7.87149 -13.4766C6.86536 -12.3824 5.35617 -11.2883 3.59544 -9.46477C3.09238 -8.37064 2.58931 -7.64123 2.08625 -6.91181Z" fill="#EEA75D"/>
<path d="M1.83473 10.2296C1.5832 10.2296 1.33167 9.86483 1.33167 9.50012L1.5832 -6.91181V-7.27651C2.08627 -8.00593 2.58933 -8.73534 3.34392 -9.46476C4.09852 -10.1942 4.85312 -10.9236 5.60772 -11.653C6.36232 -12.3824 7.11691 -13.1119 7.61998 -13.4766C7.87151 -13.4766 7.87151 -13.4766 8.12305 -13.4766C8.37458 -13.4766 8.37457 -13.1119 8.37457 -12.7472L8.12305 -4.35882V4.02948C8.12305 4.39419 8.12305 4.39418 7.87152 4.39418C7.36845 5.1236 6.61385 5.85304 5.85925 6.58246C5.10465 7.31188 4.60159 7.67659 3.59546 8.77071C3.0924 9.50013 2.58933 9.86484 2.08626 10.5943C2.08626 10.2296 2.08626 10.2296 1.83473 10.2296ZM2.58933 -6.5471L2.3378 8.04128C2.58933 7.67657 2.84086 7.31188 3.34392 6.94717C4.09852 6.21775 4.85312 5.48833 5.60772 4.75891C6.36232 4.0295 6.86539 3.66479 7.36845 2.93537L7.61998 -12.0177C7.11691 -11.653 6.61385 -11.2883 6.11079 -10.9236C5.35619 -10.1942 4.60159 -9.82948 3.84699 -9.10006C3.34393 -8.00593 2.84086 -7.27652 2.58933 -6.5471Z" fill="#BF692D"/>
<path d="M1.83472 41.9596V58.0068C2.33778 57.2774 2.84084 56.548 3.34391 55.8185C5.10463 53.995 6.3623 52.9008 7.61996 51.8067V35.7595C6.61383 36.8536 5.10463 38.3125 3.34391 39.7713C2.58931 40.5007 2.08625 41.2302 1.83472 41.9596Z" fill="#EEA75D"/>
<path d="M1.58314 58.7365C1.33161 58.7365 1.08008 58.3718 1.08008 58.0071V41.9598V41.5951C1.58314 40.8657 2.08621 40.1363 2.84081 39.4069C3.5954 38.6774 4.35 37.948 5.10459 37.2186C5.85919 36.4891 6.61379 35.7597 7.11685 35.395C7.36838 35.395 7.36839 35.395 7.61992 35.395C7.87145 35.395 7.87146 35.7597 7.87146 36.1245V52.1717C7.87146 52.5364 7.87145 52.5364 7.61992 52.5364C7.11685 53.2658 6.36226 53.9952 5.60766 54.7247C4.85306 55.4541 4.35 56.1835 3.5954 56.9129C3.09234 57.6423 2.58927 58.007 2.0862 59.1012C1.83467 58.7365 1.83468 58.7365 1.58314 58.7365ZM2.0862 41.9598V56.1835C2.33773 55.8188 2.58927 55.4541 2.84081 55.0894C3.5954 54.3599 4.35 53.6305 5.10459 52.9011C5.85919 52.1717 6.36226 51.807 6.86532 51.0776V36.4892C6.36226 36.8539 5.85919 37.2186 5.60766 37.948C4.85306 38.6774 4.35 39.0421 3.5954 40.1363C3.09234 40.8657 2.58927 41.2304 2.0862 41.9598Z" fill="#BF692D"/>
<path d="M1.83472 9.50061C1.83472 9.50061 1.83472 13.5124 1.83472 17.5243C1.83472 19.7125 1.83472 21.5361 1.83472 22.9949C1.83472 24.4538 1.83472 25.5479 1.83472 25.5479C2.33778 24.8185 2.84084 24.089 3.34391 23.3596C5.10463 21.5361 6.36229 20.4419 7.61995 19.3478L7.87149 3.30054C6.86536 4.39467 5.35617 5.48879 3.59544 7.31235C2.84085 8.04177 2.33778 8.77118 1.83472 9.50061Z" fill="#EEA75D"/>
<path d="M1.83473 26.2772C1.5832 26.2772 1.5832 26.2772 1.83473 26.2772C1.5832 26.2772 1.33167 25.9125 1.33167 25.5478V17.5242V9.50055V9.13585C1.83473 8.40643 2.3378 7.67701 3.09239 6.94759C3.84699 6.21817 4.60159 5.48876 5.35619 4.75934C6.11079 4.02992 6.86538 3.3005 7.36845 2.93579C7.61998 2.93579 7.61998 2.93579 7.87151 2.93579C8.12305 2.93579 8.12304 3.30049 8.12304 3.6652L7.87151 19.7124C7.87151 20.0772 7.87151 20.0771 7.61998 20.0771C7.11691 20.8066 6.36232 21.536 5.60772 22.2654C4.85312 22.9948 4.35005 23.3595 3.34392 24.4537C2.84086 24.8184 2.3378 25.5478 1.83473 26.2772C2.08626 26.2772 1.83473 26.2772 1.83473 26.2772ZM2.3378 9.86526L2.08626 24.0889C2.33779 23.7242 2.58933 23.3595 2.84087 22.9948C3.59546 22.2654 4.35005 21.536 5.10465 20.8066C5.85925 20.0771 6.36232 19.7124 6.86538 18.983L7.11691 4.39461C6.61384 4.75932 6.11078 5.12403 5.60772 5.85345C4.85312 6.58287 4.35005 6.94758 3.34392 8.04171C3.09239 8.40642 2.84086 9.13584 2.3378 9.86526Z" fill="#BF692D"/>
<path d="M1.83472 66.3947C1.83472 67.4889 1.83472 68.583 1.83472 69.3124C2.08625 70.7712 2.84085 71.8654 3.59544 72.2301C5.10464 70.7713 6.61383 69.3124 7.61996 68.2183C7.61996 68.2183 7.61996 64.2065 7.61996 59.83C7.61996 55.8182 7.61996 51.4417 7.61996 51.4417C6.61383 52.5358 5.10463 53.9946 3.34391 55.4534C2.58931 56.1829 2.08625 56.9123 1.83472 57.6417C1.83472 57.6417 1.83472 58.7358 1.83472 60.1947C1.83472 62.0182 1.83472 64.2065 1.83472 66.3947Z" fill="#EEA75D"/>
<path d="M3.59546 72.5952C2.58933 72.2305 1.83473 71.1364 1.33167 69.3128C1.33167 69.3128 1.33167 69.3128 1.33167 68.9481V57.6421V57.2774C1.83473 56.548 2.3378 55.8186 3.09239 55.0891C3.84699 54.3597 4.60159 53.6303 5.35619 52.9009C6.11079 52.1715 6.86538 51.4421 7.36845 50.7126C7.61998 50.7126 7.61998 50.7126 7.87151 50.7126C8.12305 50.7126 8.12304 51.0773 8.12304 51.4421V59.8304V68.2187C8.12304 68.5834 8.12305 68.5834 7.87151 68.5834C7.36845 69.3128 6.61384 70.0422 5.85925 70.7716C5.35618 71.5011 4.60159 71.8658 4.09853 72.5952C3.847 72.5952 3.59546 72.5952 3.59546 72.5952ZM2.3378 68.9481C2.58933 69.6775 3.0924 70.7716 3.59546 71.1364C4.09853 70.4069 4.85312 70.0422 5.35619 69.3128C6.11079 68.5834 6.61384 68.2187 7.11691 67.4893V59.4657V52.5362C6.61384 52.9009 6.11078 53.2656 5.60772 53.995C4.85312 54.7245 4.35006 55.4539 3.59546 56.1833C3.0924 56.548 2.58933 57.2774 2.08626 58.0068L2.3378 68.9481Z" fill="#BF692D"/>
<path d="M4.60144 72.2308C5.8591 71.8661 6.86523 70.772 7.3683 69.3131C7.3683 66.3954 7.3683 63.8425 7.3683 60.9248C7.3683 57.2777 7.3683 53.6306 7.3683 49.9835C7.3683 42.6893 7.3683 35.3951 7.3683 28.8304C7.3683 21.9009 7.36829 15.3361 7.61983 8.77132C7.61983 2.57126 7.61983 -3.62881 7.87136 -9.09946C8.1229 -20.0407 8.12289 -29.5232 8.37442 -35.7233C8.37442 -39.7351 8.62596 -42.6528 8.62596 -44.4763C7.87136 -45.9351 6.86523 -46.6646 5.8591 -46.6646C5.60757 -42.6527 5.35604 -29.1585 5.10451 -10.1936C4.85297 -4.35824 4.85298 1.47712 4.85298 8.04189C4.85298 14.6067 4.60144 21.5362 4.60144 28.4657C4.60144 35.3951 4.60144 42.6893 4.60144 50.3482C4.60144 53.9953 4.60144 57.6424 4.60144 61.6542C4.60144 65.3013 4.60144 68.5837 4.60144 72.2308Z" fill="#EEA75D"/>
<path d="M1.83459 69.3125C2.08613 70.4066 2.58919 71.5008 3.34378 72.2302C3.09225 57.6418 3.34378 43.0534 3.34378 29.1944C3.34378 22.265 3.34379 15.3355 3.59532 8.7707C3.59532 2.20593 3.59532 -3.99414 3.84685 -9.46478C4.09838 -27.7003 4.60145 -41.1945 4.60145 -45.571C4.09838 -45.2063 3.59532 -44.4769 3.09226 -43.3828C3.09226 -41.5592 3.09226 -39.0063 2.84073 -35.3592C2.5892 -28.7944 2.58919 -19.6767 2.33766 -8.37067C2.33766 -2.90002 2.08612 3.30005 2.08612 9.50011C2.08612 15.7002 1.83459 22.6297 1.83459 29.5591C1.83459 36.4886 1.83459 43.7828 1.83459 51.077C1.83459 54.7241 1.83459 58.3712 1.83459 62.0183C1.83459 64.2066 1.83459 66.7595 1.83459 69.3125Z" fill="#EEA75D"/>
</svg>
