<svg width="133" height="31" viewBox="0 0 133 31" fill="none" xmlns="http://www.w3.org/2000/svg">
<path d="M31 27.5556V3.44444C31 1.55 29.4448 0 27.5469 0H3.45306C1.4725 0 0 1.46906 0 3.44444V27.5556C0 29.5327 1.4725 31 3.45306 31H27.5469C28.4608 30.9986 29.337 30.6356 29.9841 29.9902C30.6311 29.3447 30.9964 28.4694 31 27.5556ZM24.428 18.2676C24.428 18.2676 26.3776 20.1913 26.8581 21.0834C26.8718 21.1024 26.877 21.1196 26.8822 21.1265C27.0768 21.4537 27.1267 21.7121 27.0286 21.9015C26.8667 22.2167 26.3156 22.3751 26.1278 22.3889H22.6851C22.444 22.3889 21.9446 22.3269 21.3383 21.9084C20.8733 21.5846 20.4135 21.049 19.9657 20.5272C19.2975 19.7522 18.7188 19.0805 18.1367 19.0805C18.0629 19.0803 17.9895 19.0925 17.9197 19.1167C17.4771 19.2579 16.9157 19.8865 16.9157 21.5657C16.9157 22.0909 16.5023 22.3906 16.2096 22.3906H14.632C14.0947 22.3906 11.2961 22.2029 8.81778 19.5868C5.77633 16.3835 3.04489 9.95789 3.02078 9.90106C2.84856 9.486 3.20506 9.26039 3.59256 9.26039H7.07144C7.53817 9.26039 7.688 9.54283 7.79478 9.796C7.91533 10.0836 8.37 11.2444 9.114 12.5498C10.3247 14.6733 11.0704 15.5379 11.6646 15.5379C11.7757 15.5373 11.8848 15.5082 11.9815 15.4535C12.7582 15.0247 12.6136 12.2553 12.5791 11.6836C12.5791 11.5751 12.5774 10.4453 12.1813 9.90278C11.8954 9.51011 11.4114 9.36028 11.1187 9.30344C11.2381 9.13894 11.3951 9.00547 11.5768 8.91422C12.1089 8.649 13.0682 8.61111 14.0223 8.61111H14.5528C15.5878 8.62489 15.8565 8.69206 16.2302 8.78678C16.9863 8.96761 17.0018 9.45844 16.9346 11.129C16.9157 11.6043 16.895 12.1434 16.895 12.7754C16.895 12.9115 16.8898 13.0613 16.8898 13.2163C16.8657 14.0706 16.8382 15.0367 17.4409 15.4328C17.519 15.4816 17.609 15.5079 17.701 15.5086C17.9111 15.5086 18.5397 15.5086 20.243 12.586C20.9922 11.2961 21.5691 9.77361 21.6087 9.65994C21.6689 9.53705 21.756 9.42932 21.8636 9.34478C21.9518 9.29896 22.0501 9.27587 22.1495 9.27761H26.2398C26.6876 9.27761 26.9907 9.34478 27.0475 9.51528C27.1457 9.78911 27.0286 10.6244 25.1599 13.1492L24.3281 14.2514C22.6334 16.4696 22.6334 16.5833 24.428 18.2676Z" fill="#EAEAEA"/>
<path d="M66.5 11.8091C65.7701 11.8093 65.0566 12.026 64.4498 12.4318C63.843 12.8375 63.3702 13.414 63.091 14.0885C62.8119 14.763 62.739 15.505 62.8815 16.2209C63.0241 16.9368 63.3757 17.5943 63.892 18.1104C64.4082 18.6264 65.0659 18.9778 65.7818 19.1201C66.4978 19.2624 67.2398 19.1892 67.9142 18.9098C68.5885 18.6304 69.1649 18.1574 69.5704 17.5504C69.9759 16.9435 70.1923 16.2299 70.1923 15.5C70.1916 14.5211 69.8023 13.5825 69.11 12.8904C68.4176 12.1984 67.4789 11.8094 66.5 11.8091ZM75.1295 8.97201C74.9416 8.49583 74.6578 8.06334 74.2959 7.70136C73.9339 7.33938 73.5014 7.05564 73.0252 6.86775C71.5721 6.29411 68.1123 6.42281 66.5 6.42281C64.8877 6.42281 61.4314 6.28926 59.9741 6.86775C59.4979 7.05564 59.0654 7.33938 58.7034 7.70136C58.3415 8.06334 58.0577 8.49583 57.8698 8.97201C57.2969 10.4251 57.4249 13.8884 57.4249 15.4993C57.4249 17.1102 57.2969 20.5693 57.8726 22.0273C58.0605 22.5035 58.3442 22.936 58.7062 23.2979C59.0682 23.6599 59.5007 23.9437 59.9769 24.1316C61.43 24.7052 64.8898 24.5765 66.5028 24.5765C68.1157 24.5765 71.5707 24.71 73.028 24.1316C73.5042 23.9437 73.9367 23.6599 74.2986 23.2979C74.6606 22.936 74.9444 22.5035 75.1323 22.0273C75.71 20.5742 75.5772 17.1109 75.5772 15.5C75.5772 13.8891 75.71 10.4307 75.1323 8.9727L75.1295 8.97201ZM66.5 21.1741C65.3778 21.1741 64.2807 20.8413 63.3476 20.2178C62.4145 19.5944 61.6873 18.7082 61.2578 17.6714C60.8283 16.6346 60.716 15.4937 60.9349 14.393C61.1539 13.2924 61.6943 12.2813 62.4878 11.4878C63.2813 10.6943 64.2924 10.1539 65.393 9.93492C66.4937 9.71598 67.6346 9.82835 68.6714 10.2578C69.7082 10.6873 70.5944 11.4145 71.2178 12.3476C71.8413 13.2807 72.1741 14.3778 72.1741 15.5C72.175 16.2454 72.0289 16.9836 71.744 17.6725C71.4592 18.3613 71.0413 18.9872 70.5142 19.5142C69.9872 20.0413 69.3613 20.4592 68.6725 20.744C67.9836 21.0289 67.2454 21.175 66.5 21.1741ZM72.408 10.9123C72.146 10.9124 71.8899 10.8349 71.672 10.6894C71.4541 10.544 71.2842 10.3372 71.1839 10.0952C71.0835 9.85318 71.0572 9.58686 71.1082 9.3299C71.1593 9.07294 71.2854 8.83689 71.4705 8.6516C71.6557 8.4663 71.8917 8.34009 72.1487 8.28894C72.4056 8.23778 72.6719 8.26396 72.914 8.36419C73.156 8.46441 73.3629 8.63416 73.5085 8.85198C73.654 9.06979 73.7317 9.32588 73.7317 9.58786C73.7324 9.76183 73.6988 9.93423 73.6328 10.0952C73.5667 10.2561 73.4695 10.4024 73.3468 10.5257C73.2241 10.649 73.0782 10.7469 72.9176 10.8137C72.757 10.8805 72.5847 10.915 72.4108 10.915L72.408 10.9123ZM78.6786 0H54.3214C53.4405 0 52.5957 0.349935 51.9728 0.972824C51.3499 1.59571 51 2.44053 51 3.32143V27.6786C51 28.5595 51.3499 29.4043 51.9728 30.0272C52.5957 30.6501 53.4405 31 54.3214 31H78.6786C79.5595 31 80.4043 30.6501 81.0272 30.0272C81.6501 29.4043 82 28.5595 82 27.6786V3.32143C82 2.44053 81.6501 1.59571 81.0272 0.972824C80.4043 0.349935 79.5595 0 78.6786 0ZM77.4939 20.067C77.4047 21.8405 76.9999 23.4119 75.7052 24.7031C74.4105 25.9943 72.8405 26.4074 71.069 26.4919C69.2416 26.595 63.7626 26.595 61.9351 26.4919C60.1616 26.4026 58.5957 25.9971 57.299 24.7031C56.0022 23.4091 55.5946 21.837 55.5102 20.067C55.4071 18.2388 55.4071 12.7591 55.5102 10.933C55.5995 9.15953 55.9994 7.58808 57.299 6.29687C58.5985 5.00567 60.1685 4.59741 61.9351 4.51299C63.7626 4.40989 69.2416 4.40989 71.069 4.51299C72.8425 4.60225 74.4133 5.00774 75.7052 6.30172C76.9971 7.59569 77.4095 9.16783 77.4939 10.9413C77.597 12.7626 77.597 18.2374 77.4939 20.067Z" fill="#EAEAEA"/>
<path fill-rule="evenodd" clip-rule="evenodd" d="M105.3 0C103.477 0 102 1.47746 102 3.3V27.7C102 29.5225 103.477 31 105.3 31H129.7C131.523 31 133 29.5225 133 27.7V3.3C133 1.47746 131.523 0 129.7 0H105.3ZM111.454 17.2523L107.316 15.6799C106.895 15.5369 106.895 14.8937 107.316 14.7507L124.36 8.03227C124.71 7.88933 125.061 8.24669 124.991 8.60405L121.905 23.6134C121.835 23.9707 121.414 24.1137 121.133 23.8993L116.995 20.8259C116.714 20.6115 116.364 20.6115 116.153 20.8259L113.839 22.7557C113.558 22.9701 113.137 22.8986 113.067 22.5413L111.454 17.2523ZM120.993 11.3915L112.857 16.4661C112.506 16.609 112.366 17.0379 112.576 17.3952L113.418 20.54C113.488 20.8259 113.839 20.7544 113.839 20.54L114.049 18.8247C114.049 18.4673 114.26 18.1814 114.47 17.967L121.133 11.6059C121.274 11.5344 121.133 11.32 120.993 11.3915Z" fill="#EAEAEA"/>
</svg>
