<svg width="313" height="318" viewBox="0 0 313 318" fill="none" xmlns="http://www.w3.org/2000/svg">
<g clip-path="url(#clip0)">
<path d="M1.20007 167.7C1.20007 170.3 1.20007 172.9 1.20007 175.5C1.20007 177.6 0.600069 182.5 1.50007 184.3C3.20007 187.6 14.3001 186.8 17.7001 187.1C40.2001 188.8 62.9001 189.5 85.5001 189.6C130.8 189.9 176.1 188.1 221.4 187.9C246.9 187.8 272.7 187.7 298.1 190C298.3 190 298.4 190.1 298.5 190.3L298.6 190.2C298.4 189.9 298.7 189.5 299 189.5C298.8 176.9 298.9 164.2 299 151.6C299 145.7 300.1 138.7 299.1 132.9C298.7 130.8 299.1 130.1 296.7 129.4C295.4 129 293.1 129.2 291.7 129.1C288.4 128.9 285.1 128.7 281.8 128.5C281.2 128.5 280.9 127.5 281.6 127.3C286.4 126.5 291.2 125.7 296.1 124.9C299.2 124.4 300.1 124.2 300.7 121C301.4 117.4 299.4 113.7 295.4 113.9C294.9 113.9 294.6 113.3 295 112.9C296.8 111 298.9 111.3 300.9 109.9C304.1 107.7 302.8 97.8999 302.8 94.5999L303.2 69.2999C303.5 51.6999 304.2 33.9999 302.6 16.3999V16.2999C283.9 18.4999 265.2 14.0999 246.4 14.0999C227.3 14.0999 208.3 16.2999 189.2 16.5999C172.2 16.8999 155.2 16.9999 138.2 16.9999C138.1 17.5999 137.2 17.5999 137.1 16.9999C115.9 17.0999 94.7001 17.0999 73.5001 17.1999C68.0001 17.1999 62.1001 16.5999 56.6001 17.2999C53.1001 17.6999 46.4001 17.8999 46.3001 21.3999C46.3001 23.8999 46.4001 18.8999 46.3001 21.3999C46.0001 31.4999 45.8001 23.2999 44.3001 33.3999C44.2001 34.0999 49.1001 60.7999 49.1001 60.0999L49.8001 35.0999C49.9001 31.5999 50.3001 27.9999 50.0001 24.4999C50.1001 21.5999 48.8001 19.3999 46.1001 17.7999C44.6001 18.6999 43.1001 19.4999 41.6001 20.3999C40.4001 21.6999 36.5001 15.0999 35.9001 16.6999C29.1001 18.3999 38.2001 27.1999 38.1001 26.4999C37.8001 24.2999 38.2001 19.9999 36.5001 18.4999C34.8001 16.9999 29.1001 17.8999 26.9001 17.8999C20.7001 17.8999 14.4001 17.8999 8.20007 17.8999C8.10007 17.8999 8.10007 17.8999 8.10007 17.8999C8.00007 17.9999 7.90007 17.9999 7.80007 17.9999C4.50007 18.3999 4.40007 18.3999 3.80007 21.7999C3.40007 24.2999 3.70007 27.1999 3.60007 29.6999C3.50007 34.2999 3.30007 38.8999 3.20007 43.4999C2.90007 53.3999 2.70007 63.2999 2.40007 73.1999C2.40007 83.1999 2.20007 93.0999 1.90007 103C1.80007 107.6 1.70007 112.2 1.50007 116.8C1.40007 121.3 -1.19993 136.2 6.80007 135.9C7.50007 135.9 7.50007 136.8 7.00007 137C5.40007 137.6 4.20007 138.5 3.30007 139.7C3.30007 139.8 3.20007 139.9 3.10007 139.9C1.80007 141.7 1.30007 144 1.70007 146.4C7.50007 145.6 13.3001 145.4 19.1001 145.6C19.7001 145.6 20.0001 146.7 19.3001 146.8L11.4001 148.1C9.10007 148.5 4.40007 148.5 2.70007 150.2C1.10007 151.9 1.50007 155.6 1.40007 157.9C1.30007 161.2 1.20007 164.5 1.20007 167.7Z" fill="#AD7634"/>
<path d="M135.4 194.4C137 229.4 137.2 250.1 137 262.9C136.9 272 137.4 281 136.9 290.1C136.9 291 136 306.4 137.3 314.6C137.5 315.9 137.7 316.8 137.7 318.3C137.7 322.9 136 325.5 137.5 327.9C137.9 328.5 138.3 328.9 138.6 329.1C139.1 329.9 141 332.9 144.1 333.3C144.6 333.4 145.9 333.5 146.6 332.8C147.1 332.3 147.1 331.3 147.2 329.6C148.2 318.1 148 315.4 148.5 314.8C148.7 314.6 148.8 314.5 149 314.5C150.5 314.6 147.8 326.7 152.4 331.2C154.4 333.1 158.5 334.5 168.4 331.4C168.3 331.3 168.1 331.2 168 331.1C167.5 330.7 168.1 330 168.6 330.2C167.1 307.7 167.5 284.9 167.4 262.3C167.3 239.2 167.2 216 168.2 192.9C157.2 193.3 146.3 193.8 135.4 194.4Z" fill="#7D4E24"/>
<path d="M138.3 5.89993C137.5 8.59993 138.1 12.6999 138.3 15.8999C148.7 15.7999 159.1 15.7999 169.5 15.6999C169.2 11.7999 168.6 7.19993 169.1 3.29993C164.1 2.69993 159.1 1.89993 154.1 1.69993C152.2 1.59993 148.4 0.899934 147.1 2.19993C145.8 3.59993 146.6 8.09993 146.6 9.99993C146.6 10.6999 145.6 10.7999 145.4 10.1999C145.1 8.69993 144.9 6.59993 144.3 5.19993C143.7 2.39993 142.4 1.79993 140.4 3.29993C138.4 3.19993 137.7 4.09993 138.3 5.89993Z" fill="#7D4E24"/>
<path d="M181.9 188.7C142.1 188.9 137.5 190.1 104.8 189.9C91.8 189.9 82.5 189.6 66.7 189.3C40.6 188.7 18.7 187.8 2.5 187.1C3.6 188.8 4.2 190.2 4.5 191.3C4.8 192.4 5 193.4 5.8 193.9C6.6 194.4 7.6 194.1 7.9 194C10.3 193.4 15.7 194.6 30 195.3C40.9 195.8 50.5 195.6 55.8 195.5C89.5 195 87.8 197.1 111 196.1C127.3 195.4 137.4 194.1 169.4 193C187.7 192.4 210.2 191.6 237.3 192.5C255.9 193.1 271.9 194.4 284 195.6C293.5 196.5 301.5 197.5 307.8 198.3C307.9 196.9 308.1 195.6 308.2 194.2C306 193.3 304.2 192.5 302.9 192C299.7 190.7 298.9 190.5 298.1 190.3C295.7 189.8 293.8 190 292.5 190.1C289.8 190.3 289.7 190 281.7 189.5C281.7 189.5 273.9 189 257.7 188.4C245 187.9 238.7 188.3 220.5 188.6C203.3 188.9 203.3 188.6 181.9 188.7Z" fill="#936037"/>
<path d="M139.5 329.3C139.7 329.5 139.9 329.6 140.1 329.8C143.2 332.8 145.7 333.2 149.8 332.7C157.3 331.7 164.8 331.4 172.3 331.8C171 330.4 169.6 329.2 168.2 328C168.1 328 168.1 328 168.1 328C168 328.1 167.9 328.1 167.8 328.1C163.9 328.5 159.9 328.8 156 329C154.6 329.1 151.6 330.1 150.4 329C149.3 328.1 149.7 325.4 149.6 324.1C149.4 322 149.2 319.8 149 317.7C148.6 321.9 148.3 326.1 147.9 330.3C147.9 330.7 147.5 331 147.1 330.9C144.5 330.5 142 330 139.5 329.3Z" fill="#683C11"/>
<path d="M167.4 192.7C161.1 193.6 166.8 262 166.8 262C166.9 284.9 168.3 307.8 168.1 330.6C168.3 330.9 169.3 332.5 171.3 332.8C172.2 332.9 173 332.7 173.4 332.6C173.7 331.5 174.1 329.8 174.3 327.7C174.6 323.9 174 321.1 174 320.2C173.9 314.4 173.9 308.6 173.9 302.8C173.8 290.5 173.7 278.2 173.6 265.9C173.4 241.7 173.2 217.4 173 193.1C173 192.7 173.3 192.6 173.7 192.6V192.3C173 192.3 171.9 192.4 170.6 192.4C169 192.6 167.5 192.7 167.4 192.7Z" fill="#683C11"/>
<path d="M170.3 15.5999C172.1 15.5999 173.9 15.5999 175.7 15.5999C176 12.8999 176.1 10.2999 174.2 7.99985C173.1 6.69985 171.6 5.69985 170.3 4.59985C170.7 8.19985 170.4 12.1999 170.3 15.5999Z" fill="#683C11"/>
<path d="M303.9 102.4C303.9 103.9 304.1 105.9 303.8 107.6C303.8 107.6 303.9 107.6 304 107.7C306.2 109 308.4 110.3 310.6 111.6C310.5 97.3999 311.4 83.2 311.5 68.9C311.6 54.5 311.3 40 311.4 25.6C309.7 24.2 308.2 22.3 306.7 20.7C305.8 19.8 304.7 18.8 303.9 17.7C305.5 36.4 304.6 55.3999 304.3 74.0999C304.2 83.5999 304.1 92.9999 303.9 102.4Z" fill="#936037"/>
<path d="M297.1 112.7C298.4 112.7 299.6 112.9 300.9 113.2C301.1 113.2 301.3 113.4 301.3 113.6C301.3 113.7 301.3 113.8 301.3 113.9C301.4 113.9 301.4 113.9 301.5 113.9C303.2 114.7 304.9 115.5 306.6 116.4C307.3 115.8 308 115.4 308.7 114.8C309.5 114.2 310.2 113.5 311 112.8C310.9 112.8 310.7 112.7 310.7 112.5C308.3 111.2 305.9 109.9 303.6 108.5C303.5 108.8 303.4 109.1 303.2 109.4C301.8 111.5 299.2 111.6 297.1 112.7Z" fill="#936037"/>
<path d="M301.6 124.6C301.7 124.6 301.7 124.6 301.6 124.6C304.2 126.5 306.8 128.1 309.7 129.5C309.6 126.6 309.8 123.2 309.2 120.5C308.9 119.3 307.9 118.4 306.6 117.5C306.3 117.6 306.2 117.4 306.1 117.2C304.5 116.3 302.7 115.5 301.4 114.8C301.9 118 301.9 121.2 301.6 124.6Z" fill="#936037"/>
<path d="M287 127.6C291.2 127.9 295.4 128.1 299.6 128.4C299.9 128.4 300.2 128.7 300.2 129C300.2 129.1 300.2 129.2 300.2 129.3C301.9 130.4 304 131.6 305.7 133C306.5 131.8 308 130.9 309.4 130.5C306.4 129.2 303.5 127.5 301.1 125.3C301.1 125.3 301.1 125.2 301 125.2C296.3 126 291.7 126.8 287 127.6Z" fill="#936037"/>
<path d="M299.8 190V190.1C301.8 192.3 303.9 194.4 306.4 196.1C307.6 196.9 307.9 197.5 308.9 196.5C309.4 196 309.2 191.3 309.2 190.6C309.6 183.4 309.8 176.2 309.8 168.9C309.8 161.7 309.7 154.5 309.1 147.3C308.8 143.7 309.3 138.4 306.8 135.6C306.4 135.2 306 134.8 305.6 134.4C305.4 134.4 305.2 134.3 305.2 134C303.6 132.6 301.7 131.4 300.1 130.2C300.1 150.2 300.2 170.1 299.8 190Z" fill="#936037"/>
<path d="M312.3 25.4999C312.4 25.3999 312.4 25.1999 312.2 25.0999C310.9 23.2999 309.2 21.7999 307.7 20.1999C306.5 18.9999 305.3 17.1999 303.7 16.3999C303.7 16.1999 303.6 16.0999 303.5 15.9999C303.6 15.6999 303.5 15.2999 303.1 15.2999C282.5 16.9999 262.2 12.4999 241.6 12.9999C220.9 13.4999 200.3 15.3999 179.6 15.4999C178.6 15.4999 177.5 15.4999 176.5 15.4999C177 13.0999 177.1 10.5999 175.9 8.49994C174.6 6.29994 172.1 4.59994 170.1 3.09994H170C170 2.99994 170 2.79994 169.9 2.69994C169.8 2.49994 169.6 2.49994 169.4 2.59994C165.9 1.59994 162.3 1.19994 158.7 0.799939C155.5 0.499939 150.3 -0.500061 147.2 0.399939C145.7 0.799939 145.1 1.99994 145 3.49994C144.1 1.29994 142.4 -6.11544e-05 139 1.59994C137.7 2.19994 137.7 2.09994 137.2 3.29994C136.5 4.79994 137.2 7.89994 137.2 9.59994C137.2 11.6999 137.2 13.7999 137.2 15.8999C109 15.9999 80.9 16.0999 52.8 16.1999C52.5 16.1999 52.2 16.4999 52.2 16.7999C52.2 17.2999 52.2 17.7999 52.2 18.2999C50.8 17.7999 49.4 17.2999 48 16.7999C47.8 16.6999 47.7 16.9999 47.8 17.0999C46.7 16.4999 45.5 16.1999 44.2 16.3999C42.7 16.6999 41.7 17.6999 41 18.8999C40.3 18.1999 39.5 17.5999 38.6 17.1999C38.5 16.8999 38.3 16.6999 38 16.6999C28.2 16.6999 18.3 16.6999 8.50004 16.6999C8.20004 16.6999 8.10004 16.7999 8.00004 16.9999C6.50004 16.9999 5.10004 17.0999 3.60004 17.1999C3.30004 17.1999 3.00004 17.4999 3.00004 17.7999C2.30004 41.0999 1.70004 64.0999 1.10004 87.1999C0.800036 98.6999 0.500036 110.3 0.200036 121.8C0.100036 125.2 -0.499964 130.7 1.40004 134.2C1.80004 135.9 2.20004 137.5 2.40004 139.2C0.900037 141.2 0.400036 143.9 1.10004 146.6C0.600036 146.9 0.900036 147.8 1.60004 147.7C5.00004 147.2 8.40004 147 11.8 146.9L1.30004 148.6C1.00004 148.6 0.900036 148.9 0.900036 149.2C-0.0999636 161.6 -0.199964 174 0.500036 186.4C0.500036 186.7 0.800036 187 1.10004 187H1.20004C1.20004 187.1 1.20004 187.2 1.30004 187.3C2.40004 188.7 3.40004 190.1 4.30004 191.6C4.50004 191.6 4.70004 191.6 4.90004 191.6C5.00004 191.6 5.00004 191.6 5.10004 191.7C4.80004 191 4.50004 190.3 4.00004 189.4C3.50004 188.5 3.00004 187.7 2.50004 187.1C23.9 189.1 45.3 190.2 66.7 190.6C105.1 191.4 143.5 190.3 181.9 189.6C220.7 188.9 259.3 189.5 298 190.9C298.4 190.9 298.5 190.5 298.4 190.2C298.3 190 298.2 189.9 298 189.9C272.6 187.6 246.8 187.7 221.3 187.8C176 188 130.7 189.8 85.4 189.5C62.8 189.3 40.2 188.7 17.6 187C14.2 186.7 3.10004 187.5 1.40004 184.2C0.500036 182.4 1.10004 177.5 1.10004 175.4C1.10004 172.8 1.00004 170.2 1.10004 167.5C1.10004 164.2 1.20004 161 1.40004 157.7C1.50004 155.4 1.10004 151.7 2.60004 150C4.30004 148.2 9.00004 148.2 11.3 147.9L19.2 146.6C19.9 146.5 19.7 145.5 19 145.4C13.2 145.2 7.40004 145.5 1.60004 146.2C1.10004 143.9 1.70004 141.5 3.00004 139.7C3.10004 139.7 3.10004 139.6 3.10004 139.5C4.00004 138.3 5.30004 137.4 6.80004 136.8C7.40004 136.6 7.30004 135.6 6.60004 135.7C-1.39996 136 1.20004 121 1.30004 116.6C1.40004 112 1.50004 107.4 1.70004 102.8C2.00004 92.8999 2.20004 82.9999 2.50004 73.0999C2.80004 63.1999 3.00004 53.2999 3.30004 43.3999C3.40004 38.7999 3.60004 34.1999 3.70004 29.5999C3.90004 27.2999 3.60004 24.4999 4.00004 21.9999C4.50004 18.5999 4.70004 18.5999 8.00004 18.1999C8.10004 18.1999 8.20004 18.0999 8.30004 18.0999H8.40004C14.6 18.0999 20.9 18.0999 27.1 18.0999C29.4 18.0999 35 17.1999 36.7 18.6999C38.4 20.1999 38.1 24.4999 38.3 26.6999C38.4 27.3999 39.2 27.4999 39.5 26.8999C40.1 25.2999 40.6 21.8999 41.8 20.5999C43.3 19.6999 44.8 18.8999 46.3 17.9999C49 19.5999 50.3 21.7999 50.2 24.6999C50.5 28.1999 50.1 31.7999 50 35.2999L50.2 51.5C50.4184 43.7001 51 54.6 51.1 54C52.6 44 53 40.2999 53.3 30.1999C53.4 27.6999 53.4 25.1999 53.5 22.5999C53.5 19.0999 53.3 17.8999 56.8 17.4999C62.3 16.7999 68.2 17.3999 73.7 17.3999C94.9 17.2999 116.1 17.2999 137.2 17.1999C137.3 17.6999 138.2 17.6999 138.3 17.1999C155.3 17.0999 172.3 16.9999 189.3 16.7999C208.4 16.4999 227.4 14.2999 246.5 14.2999C265.2 14.2999 283.9 18.6999 302.7 16.4999V16.5999C304.4 34.1999 303.6 51.8999 303.3 69.4999L302.9 94.7999C302.8 98.0999 304.1 107.9 301 110.1C299 111.5 296.8 111.2 295.1 113.1C294.8 113.5 295 114.1 295.5 114.1C299.4 114 301.5 117.6 300.8 121.2C300.2 124.3 299.3 124.6 296.2 125.1C291.4 125.9 286.6 126.7 281.7 127.5C281 127.6 281.2 128.6 281.9 128.7C285.2 128.9 288.5 129.1 291.8 129.3C293.1 129.4 295.4 129.2 296.8 129.6C299.2 130.4 298.8 131 299.2 133.1C300.2 138.9 299.1 145.9 299.1 151.8C299.1 164.4 299 177.1 299.1 189.7C298.8 189.7 298.5 190.1 298.7 190.4C301.2 194 304.6 196.6 308.4 198.7C308.3 198.8 308.3 198.9 308.2 198.9L308.8 199.1L308.9 199C309 199 309 199.1 309.1 199.1C309.5 199.3 309.9 199.1 310 198.6C310.8 184.5 311.4 170.4 310.8 156.3C310.6 150.5 311.1 143.3 309.4 137.8C308.9 136.3 307.8 135 306.6 133.8C307 133.3 307.4 132.7 307.9 132.3C308.6 131.7 309.4 131.3 310.2 131C310.4 131 310.6 131 310.7 130.8C310.7 130.8 310.7 130.8 310.8 130.8C311 130.8 311 130.5 310.9 130.5L310.5 123.5C310.4 122.3 310.8 119.8 310.2 118.7C309.8 117.9 308.4 117.5 307.6 117.1C308.1 116.7 308.6 116.3 309.1 115.9C310 115.1 310.8 114.3 311.6 113.4C311.8 113.2 311.7 113 311.5 112.9C311.6 112.8 311.7 112.6 311.6 112.5C312.8 98.0999 312.6 83.4999 312.7 69.0999C312.8 54.4999 313 39.8999 312.3 25.4999ZM4.80004 136.9C4.20004 137.3 3.60004 137.8 3.10004 138.3C3.00004 137.5 2.80004 136.6 2.60004 135.8C3.30004 136.3 3.90004 136.7 4.80004 136.9ZM39.3 23.5999C39.1 21.7999 38.9 19.9999 38.7 18.1999C38.9 18.2999 39.1 18.4999 39.4 18.6999C39.9 19.0999 40.3 19.4999 40.7 19.7999C40 20.8999 39.6 22.2999 39.3 23.5999ZM50.8 47.7999C50.9 44.2999 51 40.6999 51.1 37.1999C51.2 32.0999 52.7 24.9999 50.4 20.1999C49.9 18.9999 49 17.9999 47.9 17.2999C49.3 17.8999 50.8 18.4999 52.2 19.0999C52.2 28.6999 51.8 38.2999 50.8 47.7999ZM138.3 15.7999C138.2 12.5999 137.5 8.59994 138.3 5.79994C137.7 3.99994 138.4 3.19994 140.4 3.19994C142.4 1.69994 143.7 2.29994 144.3 5.09994C144.9 6.49994 145.1 8.59994 145.4 10.0999C145.6 10.7999 146.6 10.5999 146.6 9.89994C146.6 7.99994 145.8 3.49994 147.1 2.09994C148.4 0.699939 152.3 1.49994 154.1 1.59994C159.2 1.79994 164.1 2.69994 169.1 3.19994C168.5 7.09994 169.1 11.6999 169.4 15.5999C159.1 15.6999 148.7 15.7999 138.3 15.7999ZM175.7 15.5999C173.9 15.5999 172.1 15.5999 170.3 15.5999C170.4 12.0999 170.7 8.19994 170.3 4.59994C171.6 5.69994 173.1 6.69994 174.2 7.99994C176.1 10.2999 176 12.8999 175.7 15.5999ZM306.9 135.6C309.4 138.4 308.9 143.7 309.2 147.3C309.7 154.5 309.9 161.7 309.9 168.9C309.9 176.1 309.6 183.4 309.3 190.6C309.3 191.3 309.5 196 309 196.5C308 197.6 307.7 196.9 306.5 196.1C303.9 194.4 301.9 192.3 299.8 190.1V190C300.2 170.1 300.2 150.2 300.2 130.2C301.8 131.4 303.7 132.7 305.3 134C305.3 134.2 305.5 134.4 305.7 134.4C306.1 134.8 306.5 135.2 306.9 135.6ZM305.7 133C303.9 131.6 301.9 130.4 300.2 129.3C300.2 129.2 300.2 129.1 300.2 129C300.2 128.7 299.9 128.4 299.6 128.4C295.4 128.1 291.2 127.9 286.9 127.6C291.6 126.8 296.3 126 301 125.2C301 125.2 301 125.3 301.1 125.3C303.5 127.5 306.4 129.2 309.4 130.5C308 130.9 306.5 131.8 305.7 133ZM309.2 120.4C309.8 123.2 309.6 126.5 309.7 129.4C306.8 128.1 304.3 126.4 301.7 124.6C301.7 124.6 301.7 124.6 301.6 124.6C301.9 121.3 301.8 118 301.4 114.7C302.7 115.4 304.5 116.2 306.1 117.1C306.1 117.3 306.3 117.5 306.6 117.4C307.9 118.3 308.9 119.2 309.2 120.4ZM308.8 114.9C308.1 115.4 307.4 115.9 306.7 116.5C305 115.6 303.3 114.8 301.6 114C301.5 114 301.4 114 301.4 114C301.4 113.9 301.4 113.8 301.4 113.7C301.4 113.5 301.2 113.3 301 113.3C299.7 113 298.5 112.9 297.2 112.8C299.2 111.7 301.9 111.6 303.2 109.5C303.4 109.2 303.5 108.9 303.6 108.6C305.9 110 308.3 111.3 310.7 112.6C310.8 112.8 310.9 112.8 311 112.9C310.3 113.6 309.6 114.3 308.8 114.9ZM311.6 68.8999C311.5 83.0999 310.6 97.3999 310.7 111.6C308.5 110.3 306.3 108.9 304 107.6C303.9 107.6 303.9 107.6 303.8 107.5C304.1 105.8 303.8 103.8 303.9 102.3C304 92.8999 304.2 83.4999 304.3 74.0999C304.6 55.2999 305.5 36.3999 303.9 17.5999C304.7 18.6999 305.9 19.6999 306.7 20.5999C308.2 22.1999 309.7 24.0999 311.4 25.4999C311.4 40.0999 311.7 54.4999 311.6 68.8999Z" fill="black"/>
<path d="M283.5 195.1C279.3 194.6 266.2 193.3 243.6 192.3C220.2 191.3 202.5 191.4 198.8 191.4C155.9 191.7 155.7 194.1 125.7 195.2C85.8 196.7 45.9 196 6.09998 193.2C5.99998 193.2 5.99998 193.2 5.89998 193.2C5.59998 192.4 5.19998 191.5 4.69998 190.6C4.19998 189.6 3.69998 188.8 3.19998 188.1C2.99998 188.1 2.79998 188.1 2.69998 188.1C2.49998 188.1 2.29998 188.1 2.09998 188.1C3.39998 190.1 4.49998 192.1 5.49998 194.3C5.59998 194.5 5.79998 194.5 5.99998 194.5C6.09998 194.5 6.09998 194.6 6.19998 194.6C28.6 196.1 51 197.1 73.4 197.3C94 197.5 114.6 196.8 135.2 195.8C134.8 217.7 136.1 239.8 136.3 261.7C136.6 283.7 136.1 305.8 136.6 327.8C136.6 328 136.7 328.2 136.9 328.3C136.9 328.4 136.9 328.5 136.9 328.5C136.6 328.6 136.5 329.1 136.9 329.2C139.9 329.8 140.2 333 142.6 334.2C144.1 335 145.6 334.6 147.2 334.4C156 333.2 164.7 332.7 173.5 333.2C173.6 333.3 173.7 333.3 173.7 333.2C173.7 333.2 173.7 333.2 173.8 333.2C174.2 333.2 174.4 332.9 174.4 332.6C174.4 332.4 174.3 332.3 174.2 332.2C175.5 328.7 174.5 323.6 174.5 320C174.5 314.1 174.4 308.2 174.4 302.2C174.3 290.3 174.2 278.5 174.2 266.6C174 242.6 173.9 218.5 173.7 194.5C173.7 194.5 173.7 194.4 173.6 194.2C173.4 193.7 173.3 193.2 173.1 193.3C173 193.3 172.9 193.6 172.7 194.3C172.7 194.5 172.6 194.6 172.6 194.6C172.8 218 172.9 241.4 173.1 264.7C173.2 276.6 173.3 288.4 173.4 300.3C173.4 305.9 173.5 311.5 173.5 317.1C173.5 321.8 174.1 326.9 173.7 331.6C172.1 329.9 170.5 328.4 168.6 327.1C168.7 305.1 167.6 283 167.5 261C167.4 238.7 167.9 216.5 168 194.2C168 194.2 168 194.2 168 194.1C169.2 194 171 193.9 173.1 193.8C251 190.1 309.7 199.8 309.8 199C309.7 198.5 295.8 196.5 283.5 195.1ZM137.6 327.7C137.6 327.6 137.6 327.6 137.6 327.7C138.3 305.7 137.7 283.6 137.4 261.6C137.1 239.7 137.5 217.5 135.9 195.7C146.3 195.2 156.6 194.7 167 194.1C166.1 216.3 166.2 238.7 166.2 260.9C166.3 282.6 165.9 304.6 167.4 326.3C166.9 326.1 166.4 326.8 166.9 327.2C167 327.3 167.2 327.4 167.3 327.5C163.2 327.8 154.9 329.6 152.1 327.3C149.3 325 150 315.3 149.6 311.5C149.5 310.7 148.5 310.7 148.4 311.5C148 316.3 147.6 321 147.1 325.8C146.8 328.8 147.1 329.4 144.1 329.4C142.1 329.3 139.6 328.2 137.6 327.7ZM167.7 328.2C167.8 328.2 167.9 328.1 168 328.1H168.1C169.6 329.3 170.9 330.5 172.2 331.9C164.7 331.5 157.1 331.7 149.7 332.8C145.5 333.4 143.1 332.9 140 330C139.8 329.8 139.6 329.6 139.4 329.5C141.9 330.2 144.5 330.7 147.1 331.2C147.5 331.3 147.8 331 147.9 330.6C148.3 326.5 148.6 322.3 149 318.2C149.2 320.3 149.4 322.4 149.6 324.5C149.7 325.7 149.3 328.4 150.4 329.3C151.6 330.3 154.6 329.4 156 329.3C159.9 328.9 163.8 328.6 167.7 328.2Z" fill="black"/>
</g>
<defs>
<clipPath id="clip0">
<rect width="313" height="318" fill="white"/>
</clipPath>
</defs>
</svg>
