<svg width="271" height="189" viewBox="0 0 271 189" fill="none" xmlns="http://www.w3.org/2000/svg">
<g style="mix-blend-mode:multiply" filter="url(#filter0_f)">
<path d="M156 176.5C134.363 181.013 56 203 71 164C86 125 32.2786 118.23 166.889 113.115C301.5 108 262.655 156.981 254 164C245.345 171.02 177.637 171.987 156 176.5Z" fill="#AD8E4B"/>
</g>
<path d="M75.5649 38.8254C75.5649 38.8254 96.7105 22.5595 109.723 16.0531C122.736 9.54678 150.551 -1.59534 170.029 2.9591C189.467 7.55421 199.795 17.8424 216.956 31.5464C234.116 45.291 252.416 53.302 258.149 55.5792C263.883 57.8564 269.576 96.7725 263.883 104.783C263.883 115.072 254.733 148.254 235.296 159.721C215.858 171.148 195.241 170.01 174.665 167.732C154.088 165.455 139.205 161.999 128.917 157.444C115.172 167.732 101.468 178.061 85.4464 180.338C69.4245 182.616 56.8591 167.732 39.658 165.455C22.4975 163.178 16.7638 163.178 13.3479 159.721C9.93209 156.306 7.6142 158.583 7.6142 137.966C7.6142 117.39 -2.91795 106.369 8.06151 92.4214C19.041 78.4734 22.7008 82.1332 22.7008 82.1332C19.041 69.3239 22.4568 56.7178 30.4678 51.0248C38.438 45.291 76.0935 33.4576 75.5649 38.8254Z" fill="#A59B87"/>
<path d="M218.989 34.2709C218.949 34.1083 218.908 33.9456 218.867 33.783C214.597 19.957 190.768 11.4987 178.934 7.14759C157.179 -0.741354 136.196 2.75581 116.108 13.41C100.045 21.9495 86.5037 35.4095 68.1639 38.7847C59.2177 40.4113 49.9868 40.6553 41.6099 44.5998C32.6636 48.8289 18.431 62.4516 19.5696 70.4625C22.6194 65.9487 47.2622 67.25 50.4748 70.4625C44.741 70.4625 40.1866 71.6011 34.9002 74.1223C29.9798 76.4402 25.6693 79.8154 21.0742 82.7026C10.7454 89.1683 6.31291 94.414 5.05231 103.848C10.0134 117.105 8.71213 142.561 27.9059 142.073C32.1756 141.951 38.56 139.43 42.6265 141.829C46.0423 143.862 47.0589 146.831 48.3602 150.45C51.0034 157.851 56.3711 158.705 61.9422 163.015C62.3082 163.3 62.5928 163.585 62.9182 163.869C62.0642 156.956 59.1363 150.897 54.9072 144.716C52.4267 141.138 49.8241 137.559 47.6282 133.777C45.8796 130.809 45.0664 127.19 43.0331 124.425C40.3493 120.724 35.9981 127.068 33.1109 127.596C30.915 128.003 28.1905 127.108 26.2793 126.01C21.7655 123.449 17.6584 119.504 16.5604 114.38C16.2758 114.177 15.9911 113.974 15.7065 113.77C14.5678 112.957 15.6658 111.005 16.8044 111.859C17.455 111.574 18.431 111.859 18.4717 112.794C18.4717 112.916 18.5123 113.038 18.553 113.16C22.0501 115.804 25.9133 118.813 30.3864 118.528C33.6396 118.325 37.2587 117.837 39.5766 115.275C40.0646 114.746 40.5119 114.299 41.1625 113.974C45.8796 111.493 54.9072 124.343 56.3305 127.515C58.933 133.33 60.3156 138.698 65.48 142.805C68.2859 145.042 70.6038 147.441 71.2951 151.101C71.4577 151.914 71.5391 152.727 71.6204 153.54C71.9051 153.662 72.1084 153.866 72.1897 154.272C73.5723 161.023 79.306 168.993 85.731 167.732C92.766 162.527 98.6217 154.598 104.64 149.271C121.069 134.753 140.384 126.824 160.31 118.772C169.988 114.868 174.99 106.044 181.293 98.1958C189.955 87.4197 199.226 81.0353 212.849 78.3921C213.743 69.6899 214.923 61.1096 216.793 52.57C218.054 46.7957 220.575 40.1673 218.989 34.2709Z" fill="#BAB4A5"/>
<path d="M126.721 97.4232C120.337 96.8132 108.056 98.2365 104.884 90.6322C102.851 85.7117 100.452 82.8246 95.0433 81.564C92.1561 80.9133 88.7809 81.6046 85.853 81.9706C79.7127 82.7026 75.6869 79.1241 71.2137 75.8302C67.0253 72.7397 61.0476 73.431 55.6798 74.5696C42.5045 72.821 28.3125 77.4568 18.065 85.8337C11.9246 90.8762 2.89707 100.717 11.3147 107.874C23.3107 118 47.7502 106.044 60.7629 105.475C72.7997 104.946 84.9177 111.696 96.2225 114.909C103.542 116.983 111.512 117.43 119.035 117.308C126.152 117.186 142.906 116.048 144.166 106.329C145.305 98.1958 131.885 97.9112 126.721 97.4232Z" fill="#E3DBCB"/>
<path d="M185.766 16.9885C175.722 2.47116 154.454 -1.10733 139.856 8.16422C132.129 9.9128 124.484 13.2066 117.409 16.2158C110.333 19.2657 103.989 23.2915 97.8084 27.6833C95.0839 28.5779 92.4814 29.6758 90.1228 31.5058C85.8124 34.8403 81.9492 38.5814 77.3134 41.5093C72.8403 44.3558 67.6759 45.2911 63.0808 47.6903C62.5115 47.9749 61.9422 48.3003 61.4135 48.6256C57.0624 50.1302 52.6706 51.5128 48.2789 52.9767C52.1827 49.0729 56.8184 46.2264 62.5115 44.5998C64.9107 43.9085 64.5447 39.8827 61.9015 40.1267C46.8149 41.3873 23.1481 49.1542 19.0409 65.8267C18.5936 67.6566 20.7082 69.6899 22.4161 68.4293C24.5307 66.9247 27.1739 66.1114 29.8984 65.6234C30.549 65.7861 31.1997 65.7454 31.7283 65.3388C33.7616 65.0541 35.7541 64.8508 37.6247 64.5661C44.2124 63.5495 49.6615 60.9876 55.3545 57.6531C60.1529 54.8066 65.1954 52.6514 70.1564 50.3335C71.4171 49.8049 72.6777 49.2762 73.9383 48.7476C83.3725 44.5185 91.3428 37.8901 99.5977 31.7497C104.233 30.0418 109.479 29.2285 113.912 27.3173C121.963 23.9015 128.673 18.3711 137.009 15.4025C141.808 13.6946 148.558 12.8813 155.593 12.922C158.439 13.166 161.286 13.5726 164.092 14.0606C168.606 15.2805 173.201 16.7445 178.162 18.0051C179.87 18.9404 181.781 19.3877 184.221 19.5097C185.522 19.5097 186.457 18.0051 185.766 16.9885Z" fill="#E3DBCB"/>
<path d="M190.687 46.267C188.084 43.7864 186.661 40.8179 186.417 37.2801C186.295 36.3855 185.319 35.6128 184.546 35.6942C174.217 36.4668 166.41 25.3653 155.593 25.4873C150.225 25.528 144.776 27.7645 139.571 29.1065C132.577 30.8957 125.582 29.2285 118.629 31.3024C114.766 32.4817 111.187 35.2062 107.731 37.3207C102.932 40.2079 97.6865 41.1839 92.8474 43.6644C88.8622 45.6977 85.4871 48.8695 82.9659 52.692C79.3467 56.5958 77.3948 62.2075 79.2247 67.9413C83.4945 81.4013 101.59 71.7231 108.869 69.3239C117.246 66.5587 126.802 70.0152 135.22 70.4625C141.116 70.7878 145.345 65.2574 149.087 61.0689C153.072 56.5958 157.26 54.1559 162.465 51.7974C170.558 48.1782 169.256 53.9119 174.258 55.4165C179.829 57.1244 186.376 53.5053 190.727 50.0081C191.866 49.1542 192.11 47.0803 190.687 46.267Z" fill="#E3DBCB"/>
<path d="M263.354 56.352C263.314 55.1727 262.622 54.2374 261.484 53.9121C236.922 46.3485 219.68 30.4079 200.283 14.5487C188.775 5.07381 177.308 0.438035 162.384 0.0313883C118.954 -1.14789 88.1302 31.1805 52.142 50.0896C51.41 50.4556 51.9387 51.7162 52.7113 51.4315C97.5238 34.3524 147.989 -20.2603 196.664 18.1678C206.912 26.2601 215.98 35.4097 226.837 42.8106C232.978 46.9991 239.566 50.4963 246.275 53.6274C251.928 56.2706 257.946 56.1893 258.881 63.265C260.752 77.2943 270.349 89.7783 261.443 103.564C254.327 114.624 240.46 119.748 234.564 131.826C234.035 132.924 235.296 133.818 236.19 133.086C247.617 124.099 261.809 114.462 268.6 101.246C275.676 87.5011 264.005 70.178 263.354 56.352Z" fill="#5E3E00"/>
<path d="M266.974 98.5619C266.933 97.9926 266.16 97.8706 265.957 98.4399C260.833 113.771 257.621 128.491 248.634 142.358C239.525 156.387 226.593 163.625 210.328 165.455C197.437 166.919 184.302 166.553 171.411 165.537C159.578 164.601 143.068 163.503 133.431 155.614C130.543 153.256 126.396 157.363 129.324 159.722C138.636 167.326 151.811 168.993 163.319 170.498C180.114 172.734 197.681 172.978 214.475 170.742C245.869 166.594 269.535 129.182 266.974 98.5619Z" fill="#5E3E00"/>
<path d="M154.698 120.074C137.416 131.094 132.089 153.459 114.684 165.049C105.087 171.433 92.9694 177.37 81.3799 178.468C69.1399 179.607 56.2898 171.636 46.8963 164.723C41.0812 160.454 33.1923 156.59 25.7913 158.014C6.59757 161.633 10.8267 144.92 10.0947 133.737C9.56609 126.051 7.20753 118.447 5.8656 110.883C3.42572 97.22 11.884 89.0464 22.6601 82.1334C23.4734 81.6048 23.9614 80.6288 23.6767 79.6936C14.0392 49.6017 54.9072 43.6646 75.1989 37.1176C75.8495 36.9143 75.5649 35.979 74.9142 36.101C55.6798 40.5741 21.4402 43.2173 17.8617 68.2261C17.6177 70.0154 17.6177 71.8453 17.8617 73.5939C18.7156 79.9782 16.9671 80.2629 11.884 84.1667C6.88222 87.9892 3.26306 92.8282 1.27049 98.806C-3.16196 112.185 5.45895 128.572 5.05231 142.236C4.76765 151.995 8.30548 165.821 21.5622 163.869C42.0572 160.86 56.2491 180.745 76.5002 183.429C91.5461 185.422 112.082 174.686 122.939 165.293C136.481 153.541 146.159 136.258 156.284 121.619C156.935 120.724 155.634 119.504 154.698 120.074Z" fill="#5E3E00"/>
<path d="M60.4634 58.183C59.2274 62.6845 57.9208 75.3018 51.3169 73.7575C45.8785 72.5089 39.7337 73.7903 34.4718 75.0389C24.9369 77.3061 11.5526 82.8262 6.1495 90.7777C5.61978 91.5663 6.60859 92.2235 7.38551 91.9277C13.6715 89.3648 19.0393 84.7976 25.1841 81.8405C34.6131 77.2732 45.0662 75.1375 55.4487 77.6675C56.1903 77.8647 56.9319 77.4375 57.1791 76.7475C59.1568 70.7017 60.0396 64.5245 60.9931 58.2815C61.0638 58.0187 60.5693 57.8544 60.4634 58.183Z" fill="#5E3E00"/>
<path d="M49.1735 131.134C47.9942 128.41 43.7651 120.602 39.536 122.31C36.9334 123.367 35.1442 124.872 32.867 126.539C27.7839 130.362 16.9671 114.34 16.2351 112.51C16.1131 112.144 15.5031 112.266 15.6251 112.672C17.4551 118.65 26.3606 132.11 34.1276 128.694C35.2255 128.003 36.2828 127.312 37.3807 126.58C42.5045 127.637 45.6763 130.28 46.8963 134.509C48.1162 137.6 50.3121 139.714 52.5487 142.073C56.2085 145.936 59.5837 150.043 61.5762 155.045C63.2435 159.234 62.2269 164.439 62.7962 168.871C62.9182 169.806 64.1788 170.376 64.7481 169.4C73.9383 152.849 54.7852 144.066 49.1735 131.134Z" fill="#5E3E00"/>
<path d="M143.556 113.852C131.397 116.088 121.272 119.016 108.625 117.837C96.4258 116.698 84.4297 113.445 72.1897 112.225C71.7017 112.185 71.6204 112.917 72.0677 113.039C92.4 118.732 126.558 134.225 145.142 116.617C146.484 115.397 145.101 113.567 143.556 113.852Z" fill="#5E3E00"/>
<path d="M159.049 16.7447C148.314 20.9331 137.172 18.5339 126.518 22.0311C116.311 25.4062 108.707 32.3599 97.5644 33.4172C97.0358 33.4578 97.0358 34.2711 97.5644 34.2305C107.487 33.9865 115.416 29.554 124.403 25.8942C136.196 21.0958 148.883 26.1789 160.351 19.7538C161.937 18.8592 160.839 16.0534 159.049 16.7447Z" fill="#5E3E00"/>
<defs>
<filter id="filter0_f" x="67.1061" y="110.741" width="200.738" height="78.0087" filterUnits="userSpaceOnUse" color-interpolation-filters="sRGB">
<feFlood flood-opacity="0" result="BackgroundImageFix"/>
<feBlend mode="normal" in="SourceGraphic" in2="BackgroundImageFix" result="shape"/>
<feGaussianBlur stdDeviation="1" result="effect1_foregroundBlur"/>
</filter>
</defs>
</svg>
