<svg width="239" height="238" viewBox="0 0 239 238" fill="none" xmlns="http://www.w3.org/2000/svg">
<g style="mix-blend-mode:multiply" filter="url(#filter0_f)">
<path d="M44.4999 139.5C-0.100696 139.5 44.6528 137.351 10.9999 112C10.9999 112 272.5 93.9998 230.5 126C188.5 158 144.023 129.62 134 131.5C123.977 133.379 89.1005 139.5 44.4999 139.5Z" fill="#AD8E4B" fill-opacity="0.7"/>
</g>
<path d="M219.828 99.1948C216.87 89.7903 215.145 79.0716 188.405 71.8026C183.722 67.0798 175.672 58.9484 168.894 48.2708C162.117 37.5521 157.023 31.1456 136.65 41.0018C133.651 36.279 128.147 26.8745 118.782 26.8745C114.222 26.8745 108.554 28.8868 102.434 32.4187C102.269 33.4454 101.612 34.3899 100.38 34.8006C97.2169 35.9094 94.506 37.9628 92.0825 40.2215C91.5485 40.7143 90.9734 40.9608 90.3984 41.0429C89.8233 41.5357 89.2072 42.0696 88.591 42.5624C86.1676 45.2729 83.3744 47.6959 80.6224 49.9957C79.9241 50.5706 79.1436 50.7759 78.4454 50.7349C71.0517 55.1702 66.0405 54.3078 61.4811 55.9505C58.9755 56.854 56.2234 58.9895 53.1427 61.5768C52.8141 61.9874 52.5266 62.4392 52.198 62.8088C51.8283 63.3016 51.2532 63.548 50.6782 63.6712C47.1046 66.7102 43.1203 70.0367 38.6019 72.624C32.6459 75.2113 25.4577 76.895 22.0484 79.0306C18.6391 81.1661 2.08562 88.8868 2.53746 106.875C2.94821 124.862 10.5883 133.404 22.0484 135.992C33.5085 138.579 57.7021 133.404 72.5715 129.133C88.2624 130.858 88.7143 133.404 102.269 134.267C115.865 135.129 133.24 133.856 151.519 137.265C169.757 140.673 187.583 144.534 194.402 141.125C201.18 137.716 206.725 132.583 210.093 125.725C217.692 116.32 222.785 108.64 219.828 99.1948Z" fill="#A59B87"/>
<path d="M172.098 53.938C170.209 47.2029 166.84 40.4267 160.679 36.7717C154.641 33.1988 144.495 36.0735 138.58 38.5376C137.964 38.784 137.553 39.2768 137.348 39.8107C136.732 39.6054 135.869 40.0982 136.198 40.8374C138.745 46.9565 142.811 51.8025 149.137 54.1844C156.448 56.936 163.842 60.8374 171.153 56.2789C171.934 55.745 172.344 54.8415 172.098 53.938Z" fill="#BAB4A5"/>
<path d="M184.297 72.8293C183.476 72.5008 182.572 72.1722 181.669 71.9258C172.796 69.4207 165.526 72.1722 157.311 65.7657C147.987 58.4967 140.223 47.2441 135.13 36.6897C128.763 23.548 114.428 25.8889 102.475 31.433C102.639 32.7882 102.023 34.2667 100.38 34.8416C97.217 35.9505 94.506 38.0038 92.0825 40.2626C91.3842 40.9197 90.6448 41.125 89.9055 41.0839C87.2356 44.4515 83.9084 47.3262 80.6635 50.0367C79.6366 50.8991 78.4454 50.9402 77.4596 50.5295C73.3931 52.5008 68.5461 53.4864 64.6029 54.7595C57.9075 56.9361 52.6498 60.7143 50.8425 67.778C49.1995 74.1845 47.5975 85.971 50.8425 92.3365C55.8948 102.193 54.7447 110.488 64.0689 117.757C65.4655 118.825 67.1906 117.347 67.2728 115.909C67.6425 108.887 61.3168 101.864 65.1368 94.8827C65.6708 93.8971 65.7941 93.3632 65.8351 93.1578C65.8762 93.3221 65.9994 93.7739 66.6156 94.2667C69.573 96.7307 72.6126 99.0716 75.6933 101.371C80.9099 105.232 92.6986 114.39 99.5994 108.065C105.021 103.096 99.394 98.5788 96.0258 93.9792C93.8488 90.9813 98.2028 93.5275 99.1886 93.856C102.639 95.0059 106.582 95.2523 110.156 95.9915C118.782 97.7574 122.273 106.094 129.174 110.324C142.154 118.291 150.862 104.41 163.801 103.384C174.398 102.562 190.828 109.544 199.454 99.318C207.341 89.7903 195.429 73.6917 184.297 72.8293Z" fill="#BAB4A5"/>
<path d="M60.5364 82.9732C59.3041 79.1949 58.5648 76.0738 58.7701 72.0081C58.8934 70.2011 56.4699 66.9157 57.1682 65.3551C58.3183 62.8089 56.3056 60.468 54.2107 60.2627C54.0054 60.5091 53.6357 60.9608 53.8 60.7144C53.266 61.4126 52.732 62.1518 52.1569 62.85C51.7051 63.4249 51.0068 63.7124 50.2675 63.7535C48.7477 64.7801 47.3511 66.0532 45.7902 67.6138C40.9022 72.5009 38.2323 74.8418 31.4548 76.3202C22.9932 78.1682 14.203 83.7124 7.95948 89.7083C2.57856 94.8828 -5.51335 119.647 6.56291 122.357C10.3008 123.22 13.9565 114.226 15.6817 112.172C15.1477 112.788 18.2695 118.086 18.4749 118.415C19.6661 120.181 22.336 122.152 24.5951 122.152C27.5115 122.152 30.3047 121.988 32.4406 119.688C36.5071 115.376 36.4249 115.335 42.956 115.54C45.1741 115.622 48.1315 115.622 49.487 113.322C50.8836 110.981 51.8694 99.236 55.7716 99.9752C57.4968 100.304 58.8112 99.4824 59.4273 97.8808C61.1525 93.6508 61.974 87.4085 60.5364 82.9732Z" fill="#BAB4A5"/>
<path d="M109.252 28.4762C106.993 29.1333 104.693 30.1189 102.434 31.2688C102.639 32.6651 102.064 34.1846 100.38 34.8006C97.217 35.9095 94.506 37.9629 92.0825 40.2216C91.2199 41.0019 90.2752 41.1661 89.4126 40.9608C88.0981 42.275 86.7837 43.6302 85.6336 44.9854C85.5925 46.0121 85.0996 47.0388 84.1549 47.5316C83.0048 48.1477 81.8957 48.8869 80.5813 49.1743C80.4991 49.1743 80.417 49.1743 80.2938 49.1743C79.5133 50.1189 78.8972 51.1456 78.5275 52.3366C77.2131 56.7308 78.3632 61.8232 83.3334 63.3427C89.2483 65.1086 94.0541 62.4803 99.0243 59.4002C107.691 54.0203 118.412 47.162 123.67 38.0861C129.297 28.5583 115.372 26.7103 109.252 28.4762Z" fill="#E3DBCB"/>
<path d="M70.8875 53.7328C65.2601 54.9238 60.5774 56.3201 55.7716 59.5644C52.5677 61.741 48.8709 63.9587 46.776 67.3673C45.9134 68.8047 47.5565 70.0778 48.8709 69.4618C52.1569 67.9423 55.3198 66.0531 58.3183 63.9176C62.4669 60.9607 67.4782 58.7841 71.9965 56.3201C73.4752 55.5398 72.4073 53.4043 70.8875 53.7328Z" fill="#E3DBCB"/>
<path d="M59.1398 59.8109C56.2645 58.9484 53.6767 61.4125 51.5819 63.0552C48.8298 65.1907 46.1599 67.6137 44.3115 70.6117C44.1883 70.817 44.3526 71.0634 44.5579 71.0634C47.4743 71.1045 50.021 69.4207 52.2391 67.6548C53.8 66.4228 55.2376 65.0265 56.8396 63.8355C57.9486 63.0141 59.0166 62.1517 59.5917 60.8375C59.7149 60.4269 59.5917 59.9751 59.1398 59.8109Z" fill="#E3DBCB"/>
<path d="M77.0899 66.1763C74.9539 64.3283 71.9965 65.4371 69.6963 66.3406C67.8478 67.0798 66.287 68.3529 64.7261 69.5028C63.7403 70.242 59.5095 68.2708 58.4826 68.2708C55.7716 68.2708 54.8679 68.394 52.198 68.9279C50.9247 69.2154 50.0621 70.9402 48.6244 70.6117C45.9956 70.0778 44.2293 69.9135 41.9701 71.8026C34.6176 77.9628 23.7325 75.2112 17.4069 83.0552C17.0372 83.5069 16.7907 83.9997 16.6675 84.5336C12.026 89.01 5.33063 93.1989 5.24847 100.263C5.24847 101.495 6.23429 102.398 7.42549 102.439C12.5599 102.562 17.0372 100.714 22.2949 101.125C24.7184 101.289 27.3883 101.125 29.1135 99.0716C30.8797 96.9361 34.0015 90.0778 37.4929 93.6096C39.177 95.2934 42.7095 96.7307 44.9687 95.1702C48.1315 92.9936 49.5281 90.2831 51.5408 86.9977C53.5124 83.7944 59.8792 90.3242 62.7545 89.3386C65.1779 88.5172 67.0263 87.6137 68.0121 85.0264C69.9838 79.8108 74.2146 83.3837 77.0899 80.4679C80.9099 76.5254 81.3617 69.8314 77.0899 66.1763Z" fill="#E3DBCB"/>
<path d="M174.234 83.0142C171.194 80.6734 167.703 79.8931 163.965 79.4413C157.968 78.7432 151.396 75.8684 145.276 76.9362C138.005 78.2093 131.967 78.4557 124.697 78.2093C122.602 78.1272 120.836 79.0306 119.316 80.3037C118.371 80.468 117.632 80.7966 116.317 81.4536C112.456 83.4249 106.213 78.4968 102.927 77.2647C97.9564 75.3756 94.2595 78.1272 91.8772 82.4393C91.5485 83.0142 91.9593 83.9998 92.6987 83.8766C97.2991 83.2606 101.407 83.3017 105.802 85.0676C109.334 86.4639 112.497 87.6138 116.276 87.7781C118.7 87.8602 120.753 86.2586 123.588 86.3818C128.558 86.6282 133.569 87.4495 138.498 87.6549C143.345 87.8602 149.26 85.5194 153.409 88.8869C155.38 90.4886 156.736 92.9116 159.323 93.6508C165.854 95.4578 171.523 93.774 175.589 88.312C176.945 86.505 175.713 84.1641 174.234 83.0142Z" fill="#E3DBCB"/>
<path d="M73.3109 127.696C50.021 131.351 16.38 148.558 5.12524 117.183C-1.52902 98.7021 12.1081 83.2606 28.867 78.1682C36.8768 75.7452 48.8709 74.3079 53.5535 66.3407C53.5946 66.2586 53.4713 66.1354 53.3892 66.2175C47.31 71.6385 38.0269 72.3777 30.4689 74.3079C23.3218 76.1559 17.6123 78.661 11.9027 83.3017C0.36046 92.6651 -3.04882 107.655 2.825 121.289C16.0103 152.008 50.2674 135.211 74.3789 131.597C76.9256 131.187 75.8165 127.285 73.3109 127.696Z" fill="#5D3E00"/>
<path d="M206.491 125.5C202.577 129.595 200.873 135.796 194.005 137.817C188.096 139.536 181.227 139.345 174.973 139.045C163.039 138.472 151.374 136.097 139.479 135.168C127.047 134.186 114.461 135.414 101.952 134.513C84.3014 133.23 73.7109 126.842 64.9623 116.195C64.6169 115.785 63.8879 116.086 64.003 116.495C69.5284 142.376 113.617 137.434 139.479 138.99C154.905 139.919 169.716 143.577 185.333 142.922C196.653 142.458 209.379 134.845 210.991 126C211.336 124.389 207.565 124.38 206.491 125.5Z" fill="#5D3E00"/>
<path d="M222.251 98.127C219.664 85.2728 210.956 75.5808 198.838 71.4329C195.963 70.4473 192.882 69.8723 189.761 69.5438C177.807 63.9586 173.043 45.8477 163.185 37.3467C155.791 30.9812 142.482 33.5684 135.787 39.7286C134.924 40.5089 135.664 41.8231 136.65 41.8641C143.263 42.2337 148.767 37.511 155.586 38.6609C162.692 39.8107 167.867 49.4206 171.359 55.0058C174.398 59.8929 178.095 65.7245 182.983 69.2153C181.669 69.2153 180.395 69.2563 179.122 69.2974C172.755 69.5849 166.471 70.0777 160.597 67.0797C156.448 64.9442 153.367 60.3446 149.712 57.4699C149.342 57.1824 148.849 57.6342 149.178 58.0038C155.668 65.1496 158.297 72.1311 168.976 73.1988C182.901 74.5951 197.565 72.6239 208.573 83.2604C217.651 92.0489 221.266 109.133 211.695 118.538C203.069 126.998 190.171 124.944 179.738 128.64C178.752 128.969 178.711 130.365 179.738 130.694C190.212 134.102 204.507 130.16 213.502 124.287C222.498 118.332 224.264 108.147 222.251 98.127Z" fill="#5D3E00"/>
<path d="M149.013 53.4864C138.005 45.4372 135.705 29.0511 121.739 24.6158C113.688 22.0696 106.829 27.8191 98.6136 33.1579C91.9593 37.8396 82.3065 53.9793 64.0278 60.8376C63.6581 61.2482 63.3295 61.6589 62.9598 62.0696C69.3676 58.7842 75.8987 56.0737 81.2796 51.3099C90.9324 42.7678 109.663 24.8622 123.629 30.8992C134.267 35.4988 137.06 50.0778 148.069 55.1292C149.178 55.663 149.999 54.2257 149.013 53.4864Z" fill="#5D3E00"/>
<path d="M96.6419 35.2934C92.329 37.7164 89.2483 40.9608 85.839 44.5337C78.6507 52.0902 70.7231 52.0902 61.7276 55.3756C49.1173 59.9752 43.3667 74.8417 28.7849 76.0737C28.1687 76.1148 28.1687 77.0594 28.7849 77.0183C40.8611 76.1148 48.6655 65.8068 57.8664 59.0717C64.4796 54.2257 73.7627 56.0327 80.0884 51.4741C86.4141 46.8746 90.2341 39.9341 96.8062 35.5809C97.0527 35.4988 96.8884 35.1702 96.6419 35.2934Z" fill="#5D3E00"/>
<defs>
<filter id="filter0_f" x="2.34918" y="0.989746" width="236.545" height="236.533" filterUnits="userSpaceOnUse" color-interpolation-filters="sRGB">
<feFlood flood-opacity="0" result="BackgroundImageFix"/>
<feBlend mode="normal" in="SourceGraphic" in2="BackgroundImageFix" result="shape"/>
<feGaussianBlur stdDeviation="1" result="effect1_foregroundBlur"/>
</filter>
</defs>
</svg>
