<svg width="176" height="166" viewBox="0 0 176 166" fill="none" xmlns="http://www.w3.org/2000/svg">
<g style="mix-blend-mode:multiply" filter="url(#filter0_f)">
<path d="M61.0001 110.5C16.3995 110.5 48.6529 108.851 15.0001 83.4998C15.0001 83.4998 187 52.4998 169 83.4998C151 114.5 87.5235 119.621 77.5001 121.5C67.4767 123.379 105.601 110.5 61.0001 110.5Z" fill="#AD8E4B" fill-opacity="0.7"/>
</g>
<path d="M28.139 44.5519C15.9865 47.5877 4.43791 57.9852 2.62636 75.7066C0.814817 93.4279 13.5711 111.756 40.3292 119.118C67.0873 126.442 90.1845 122.192 104.752 118.511C119.358 114.83 141.814 102.611 146.682 86.1041C151.551 69.597 147.286 53.6972 133.926 40.871C120.528 28.0448 102.903 20.721 85.2782 21.9353C67.6534 23.1496 48.217 28.652 28.139 44.5519Z" fill="#A59B87"/>
<path d="M17.798 50.9649C12.4389 53.1279 1.34316 66.5612 9.91027 82.7268C14.7788 91.91 33.7246 99.082 50.6323 101.055C71.3141 103.484 89.5428 102.877 112.64 89.1398C134.53 76.1239 143.021 51.5341 123.585 35.0271C104.148 18.558 71.918 21.9353 51.2362 31.1185C30.5921 40.2638 29.9882 46.0697 17.798 50.9649Z" fill="#BAB4A5"/>
<path d="M98.4874 34.0783C91.3545 24.8951 77.4282 23.8705 66.8986 25.0469C55.3122 26.3371 42.1408 32.6363 35.3852 38.3664C33.7624 39.7704 31.9885 41.3262 30.3657 43.0718C24.5159 46.6768 20.6286 54.1903 19.0435 60.2619C16.1753 71.3804 24.7424 81.778 34.3662 85.8004C45.9903 90.6576 61.7659 85.8763 73.1258 82.2334C83.3157 78.9699 94.7134 72.7465 100.827 63.6392C107.47 53.697 105.583 43.2236 98.4874 34.0783ZM24.5159 68.4585C26.0633 70.7733 28.139 72.7845 30.328 74.4162C30.6676 74.6819 31.0073 74.9095 31.3847 75.1372C28.29 73.7332 25.7991 71.6081 24.5159 68.4585Z" fill="#E3DBCB"/>
<path d="M112.452 25.1229C90.6382 15.1048 68.7109 21.3281 47.6894 30.5493C41.6887 33.1677 34.8199 37.0383 29.1588 41.8196C14.9306 45.4246 3.38201 55.0632 0.551466 70.318C-1.75071 82.8026 3.38201 95.8565 11.7227 104.926C28.5927 123.216 58.0304 126.442 81.3163 124.545C104.489 122.609 130.983 114.147 144.569 93.8453C163.289 65.8402 137.512 36.5829 112.452 25.1229ZM77.9574 120.332C53.4637 121.964 20.7804 116.538 8.43925 92.2136C-0.429789 74.7199 7.08058 57.6816 21.9126 49.5988C16.9686 56.695 15.5722 65.0813 21.9881 74.1507C22.441 74.8337 23.4977 74.2266 23.0826 73.5056C17.4592 62.8803 20.5162 54.1145 27.6869 47.0184C28.7814 45.121 36.7069 40.0741 37.8014 39.429C51.3503 31.3841 69.3525 26.5648 79.316 24.5536C110.263 18.3303 156.307 48.6881 144.796 83.8652C136.304 109.859 101.658 118.739 77.9574 120.332Z" fill="#5D3E00"/>
<path d="M36.6306 34.9891C36.3664 35.2926 36.0268 35.5203 35.7249 35.786C36.0645 35.5583 36.4419 35.3685 36.8193 35.3306C37.1213 35.2547 36.8571 34.7234 36.6306 34.9891Z" fill="#5D3E00"/>
<path d="M29.7619 40.9088C29.5732 41.0227 29.7619 41.3642 29.9506 41.2503C30.9696 40.5293 31.8753 39.6566 32.7434 38.7458C33.1963 38.2525 33.7246 37.6074 34.3285 37.0002C34.0266 37.2279 33.7246 37.4556 33.4604 37.7212C32.2905 38.8597 31.1583 39.9981 29.7619 40.9088Z" fill="#5D3E00"/>
<path d="M34.3285 36.9623C34.7814 36.5828 35.2343 36.1654 35.6871 35.7859C35.1965 36.0895 34.7436 36.5069 34.3285 36.9623Z" fill="#5D3E00"/>
<defs>
<filter id="filter0_f" x="10.8856" y="0.769531" width="164.928" height="164.814" filterUnits="userSpaceOnUse" color-interpolation-filters="sRGB">
<feFlood flood-opacity="0" result="BackgroundImageFix"/>
<feBlend mode="normal" in="SourceGraphic" in2="BackgroundImageFix" result="shape"/>
<feGaussianBlur stdDeviation="1" result="effect1_foregroundBlur"/>
</filter>
</defs>
</svg>
