<svg width="246" height="190" viewBox="0 0 246 190" fill="none" xmlns="http://www.w3.org/2000/svg">
<g style="mix-blend-mode:multiply" filter="url(#filter0_f)">
<path d="M160.5 175.5C150.5 180 135.333 182.333 106 187.5C106 187.5 190.5 65.9999 217.5 79.9999C244.5 93.9999 246 134 242 141C238 148 170.5 171 160.5 175.5Z" fill="#AD8E4B" fill-opacity="0.7"/>
</g>
<path d="M108.837 28.7026C103.622 27.3997 77.5055 23.4909 63.1625 24.7938C48.8196 26.0967 34.4383 24.7938 20.0954 56.1022C5.7141 87.3723 1.80239 116.075 5.7141 125.195C9.62581 134.316 35.7422 152.595 53.9969 165.624C72.2899 178.653 78.8094 183.903 98.3679 183.903C117.965 183.903 147.955 174.783 172.767 160.412C196.276 153.898 215.834 146.08 219.746 133.013C223.658 119.984 221.05 113.431 215.834 92.584C210.619 71.6989 217.138 32.573 196.237 18.2409C175.337 3.90877 181.894 15.635 168.817 7.81753C155.778 1.23978e-05 144.005 -1.30291 133.573 9.12045C123.18 19.5438 108.837 28.7026 108.837 28.7026Z" fill="#A59B87"/>
<path d="M158.386 3.52563C157.542 2.9125 156.66 3.75556 156.66 4.59863C153.899 3.6406 150.869 3.29571 147.379 3.75556C136.45 5.21177 128.511 15.0603 119.767 21.2683C119.844 21.6515 119.806 22.0348 119.537 22.418C115.434 27.553 108.991 29.2008 102.97 26.7483C99.0966 26.9015 95.1082 26.595 91.1198 26.1734C88.6654 25.9818 86.1726 25.7136 83.7182 25.3304C83.6032 25.2921 83.5265 25.2537 83.4498 25.2154C80.19 24.7939 77.0453 24.449 74.1307 24.334C60.9383 23.7975 46.1735 24.0275 34.6685 31.2702C21.2843 39.7008 14.9565 61.9654 13.0774 76.9107C11.505 89.5566 16.7206 96.6077 26.9984 93.3504C24.7358 100.593 13.3842 104.502 14.8031 114.044C15.5318 119.026 21.8595 122.973 25.6178 125.272C33.5563 130.139 36.8928 139.566 44.5628 144.777C48.8196 147.69 53.6518 151.139 59.0208 150.334C60.7849 150.066 62.9708 147.996 64.4281 147.077C70.1806 143.551 74.3992 147.46 80.8036 147.996C85.1372 148.341 95.2616 149.644 99.0583 149.299C116.393 145.237 127.782 122.743 126.517 104.962C126.479 104.617 126.594 104.387 126.747 104.195C126.632 101.858 126.555 99.4818 126.517 97.1442C126.517 95.4964 129.048 95.4964 129.048 97.1442C129.163 110.403 131.157 123.739 129.547 136.385C131.157 134.316 132.691 132.17 134.187 129.947C138.636 123.356 140.937 115.96 141.895 108.142C142.471 103.429 141.627 98.6004 141.282 93.9253C140.783 86.6826 147.533 88.4837 152.595 88.7519C154.858 88.8669 156.43 86.8742 156.583 84.7665C157.082 76.7191 156.162 66.9472 165.787 63.7282C169.507 62.5019 173.726 63.4983 177.561 62.6169C184.771 60.9691 187.609 56.2556 188.951 49.2428C192.594 30.1205 171.463 13.4891 158.386 3.52563Z" fill="#BAB4A5"/>
<path d="M103.047 30.3121C81.4172 25.5219 56.7964 17.4362 37.1995 31.6916C24.5824 40.8887 9.66418 59.0146 14.8798 75.7227C15.4934 77.6387 17.9094 78.3668 19.4051 76.9106C25.3877 70.9708 31.4087 59.1679 39.8073 56.5621C45.3681 54.8376 48.3211 51.5037 52.6163 47.4799C60.0562 40.4672 79.1929 32.2664 89.3557 35.4471C90.6212 35.8303 91.6567 34.9489 92.0402 33.9143C93.3824 33.8376 94.763 33.7226 96.2203 33.4544C97.1791 33.3011 97.4859 32.2664 97.2174 31.4617C99.2116 31.4234 101.167 31.2701 103.047 31.0018C103.392 30.9252 103.392 30.3887 103.047 30.3121Z" fill="#E3DBCB"/>
<path d="M157.58 15.0601C155.701 13.7955 153.4 13.2207 150.869 13.0674C148.108 12.6842 145.423 12.8758 142.931 13.7955C141.78 14.0254 140.63 14.332 139.479 14.6385C133.343 16.363 127.437 19.4287 122.528 23.4907C111.33 32.8028 99.0582 36.2517 85.2138 39.6623C65.9237 44.4141 56.9881 56.4086 52.6929 75.186C48.4744 93.5801 65.2334 102.126 79.7681 92.7754C82.1075 91.2426 83.5264 89.0199 85.0604 86.7973C86.0959 84.9196 87.1313 83.0801 88.2051 81.2407C93.7659 71.5072 100.055 77.7152 106.191 77.7152C112.366 77.7152 119.154 76.7188 122.605 70.8557C124.139 68.2499 125.098 65.5291 126.133 62.6933C128.588 55.9488 130.467 57.5583 135.913 58.7845C144.503 60.7389 151.866 56.0254 160.227 54.4542C189.948 48.821 175.145 22.801 157.58 15.0601Z" fill="#E3DBCB"/>
<path d="M110.832 113.852C109.95 112.702 108.837 112.089 107.342 112.434C97.6009 114.695 88.8571 110.365 79.7298 107.682C71.1777 105.192 63.8912 107.146 55.3391 108.181C42.6452 109.713 32.4825 100.785 23.7003 113.546C23.3935 114.005 23.5469 114.504 23.892 114.81C22.1663 117.569 22.3197 121.21 26.1547 123.471C27.8421 124.467 29.7979 124.505 31.6771 124.659C37.1612 125.08 40.1908 127.303 43.604 131.212C47.7458 135.963 51.2356 139.681 57.3333 141.635C64.965 144.049 70.6791 137.266 77.8123 136.385C85.3672 135.427 91.7717 137.305 99.2883 134.967C109.183 131.863 118.578 124.007 110.832 113.852Z" fill="#E3DBCB"/>
<path d="M180.207 9.08209C170.121 4.82844 151.329 -3.67886 140.4 1.76274C125.405 9.23537 118.233 24.8704 101.781 30.427C90.4679 34.2591 78.3109 34.8339 67.6112 40.4288C56.9499 45.9854 53.7285 57.4051 53.1149 68.5565C52.9999 70.396 55.7994 70.3576 55.9528 68.5565C58.8674 37.4014 86.4028 42.1916 108.531 32.6496C119.691 27.8211 126.479 18.2408 135.337 10.3467C149.565 -2.33762 164.484 12.3394 179.785 12.5693C181.933 12.6076 181.971 9.81019 180.207 9.08209Z" fill="#5D3E00"/>
<path d="M219.209 93.8869C212.306 71.0475 217.522 45.5256 206.362 23.7975C195.585 2.87417 174.953 13.2975 157.772 3.56396C156.852 3.06578 155.74 4.3687 156.622 5.05848C161.837 9.19717 166.976 11.8796 173.611 12.991C181.664 14.3322 188.951 12.7994 195.739 18.5859C211.462 32.0749 208.126 62.8085 210.235 81.241C212.306 99.4818 226.802 121.593 213.418 138.301C200.379 154.588 172.154 154.971 153.554 159.646C151.291 160.221 151.866 163.478 154.091 163.593C172.652 164.513 197.848 160.106 212.613 147.881C230.791 132.86 225.23 113.852 219.209 93.8869Z" fill="#5D3E00"/>
<path d="M115.51 26.6332C87.6299 29.9288 58.8674 12.6077 33.6714 31.1934C16.2221 44.0694 12.5788 69.7062 5.75249 88.8285C-0.882075 107.414 -4.37193 122.474 10.1628 137.918C19.5202 147.881 31.7538 155.967 42.6453 164.168C55.6076 173.94 68.5699 182.332 84.6003 185.589C86.211 185.934 87.4382 183.558 85.7891 182.792C61.6286 171.142 40.536 155.009 19.5585 138.493C0.306778 123.241 5.06219 107.299 12.1953 86.9507C19.1367 67.1004 22.2814 44.031 41.5715 31.9215C63.2009 18.3175 92.0018 34.719 115.626 27.0931C115.817 27.0164 115.817 26.5949 115.51 26.6332Z" fill="#5D3E00"/>
<path d="M113.315 116.244C108.374 131.096 111.043 149.795 93.2118 155.651C87.7317 157.461 83.643 156.16 78.4468 155.057C76.6012 154.661 73.0804 154.774 71.6607 156.217C69.5311 158.367 68.7929 160.686 67.941 163.572C64.477 175.425 50.6207 162.525 46.3332 159.413C45.6233 158.904 44.6295 159.923 45.1406 160.601C50.2516 167.73 57.3501 176.472 67.2596 171.578C70.9224 169.767 71.7742 166.57 72.8532 162.865C74.1593 158.395 87.8737 161.394 91.9624 160.545C114.451 155.877 110.646 134.01 113.996 116.442C114.053 115.989 113.457 115.82 113.315 116.244Z" fill="#5D3E00"/>
<path d="M182.623 157.155C166.209 159.569 150.256 168.958 134.686 174.361C125.29 177.619 115.625 180.148 105.77 181.298C96.6806 182.332 88.9338 178.96 80.2284 178.615C78.1575 178.538 77.3905 181.068 78.6177 182.447C88.9338 194.059 113.785 187.352 126.325 183.903C145.424 178.653 167.053 170.568 183.62 159.531C184.924 158.688 184.042 156.925 182.623 157.155Z" fill="#5D3E00"/>
<defs>
<filter id="filter0_f" x="104" y="76.8767" width="141.656" height="112.623" filterUnits="userSpaceOnUse" color-interpolation-filters="sRGB">
<feFlood flood-opacity="0" result="BackgroundImageFix"/>
<feBlend mode="normal" in="SourceGraphic" in2="BackgroundImageFix" result="shape"/>
<feGaussianBlur stdDeviation="1" result="effect1_foregroundBlur"/>
</filter>
</defs>
</svg>
