<svg width="155" height="39" viewBox="0 0 155 39" fill="none" xmlns="http://www.w3.org/2000/svg">
<path d="M5.99077 38.186C2.72949 38.186 0.0830292 36.8323 0.0562973 35.1684L0.00283355 26.1154C0.00283355 25.3821 0.510739 24.6771 1.41962 24.1412C0.590935 23.6195 0.109761 22.9567 0.109761 22.2376V13.5512C0.109761 13.1705 0.403812 12.2116 0.671131 11.8591C0.323616 11.4784 0.00283355 10.9707 0.00283355 10.5477V3.04586C0.00283355 1.36782 -0.211021 0 3.077 0L150.316 0.0423036C153.577 0.0423036 154.887 1.36782 154.887 3.04586V11.0694C154.887 11.5771 154.62 12.0847 154.166 12.5219C154.62 12.959 154.887 13.4525 154.887 13.9602L154.968 23.1683C154.968 23.4644 154.887 23.7464 154.754 24.0143C154.887 24.2822 154.968 24.5502 154.968 24.8322V35.1684C154.968 36.8323 152.321 38.2001 149.033 38.2001H5.99077V38.186Z" fill="#89431B"/>
<path d="M154.754 23.9861V23.972C154.914 23.704 154.968 23.4361 154.968 23.1541L154.887 13.9601C154.887 13.4525 154.62 12.9589 154.166 12.5218C154.166 12.5077 154.192 12.4936 154.192 12.4795C154.192 12.4654 154.166 12.4513 154.166 12.4372C154.647 12 154.887 11.4924 154.887 10.9848V3.04579C154.887 1.38185 153.578 0.0422363 150.316 0.0422363H139.864C139.864 0.0986411 139.864 0.140945 139.864 0.197349V8.24913C139.864 8.77087 139.597 9.26441 139.142 9.70155C139.597 10.1387 139.864 10.6322 139.864 11.1399L139.944 20.3761C139.944 20.6723 139.864 20.9543 139.73 21.2222C139.864 21.4901 139.944 21.7581 139.944 22.0401V32.4045C139.944 34.0825 137.298 35.4362 134.01 35.4362H0.109863C0.35045 36.7617 2.27515 37.8334 4.73448 38.1013H4.76121C4.78794 38.1013 4.84141 38.1154 4.86814 38.1154H4.89487C4.9216 38.1154 4.97507 38.1154 5.0018 38.1295H5.02853C5.05526 38.1295 5.10873 38.1295 5.13546 38.1436C5.16219 38.1436 5.16219 38.1436 5.18892 38.1436C5.21565 38.1436 5.24239 38.1436 5.26912 38.1436C5.29585 38.1436 5.29585 38.1436 5.32258 38.1436C5.34931 38.1436 5.37604 38.1436 5.40278 38.1436C5.42951 38.1436 5.45624 38.1436 5.48297 38.1436C5.5097 38.1436 5.53644 38.1436 5.56317 38.1436C5.5899 38.1436 5.61663 38.1436 5.64336 38.1436C5.6701 38.1436 5.69683 38.1436 5.72356 38.1436C5.75029 38.1436 5.77702 38.1436 5.80375 38.1436C5.83049 38.1436 5.83049 38.1436 5.85722 38.1436C5.91068 38.1436 5.96415 38.1436 6.01761 38.1436H149.06C149.113 38.1436 149.167 38.1436 149.22 38.1436C152.428 38.1013 154.994 36.7617 154.994 35.1119V24.7898C154.994 24.5078 154.914 24.2399 154.781 23.972C154.754 24.0002 154.754 24.0002 154.754 23.9861Z" fill="#662F14"/>
<path d="M0.858398 25.5232L0.911862 35.1825C0.911862 35.6619 1.66035 36.0567 2.59597 36.0567H150.45C151.386 36.0567 152.134 35.6619 152.134 35.1684V24.1412C152.134 23.6477 151.386 23.2529 150.45 23.2529H82.0966C82.0164 23.2529 81.9362 23.2529 81.8827 23.267L73.2216 23.8733C73.0879 23.8874 72.9275 23.8874 72.7939 23.8733L63.8387 23.2529C63.7585 23.2529 63.7051 23.2388 63.6249 23.2388H7.24732C6.95327 23.2388 6.68595 23.2811 6.44536 23.3516L1.74055 24.7194C1.17918 24.9027 0.858398 25.1988 0.858398 25.5232Z" fill="#DFA164"/>
<path d="M34.9417 24.4375C41.0365 23.5914 51.9432 23.3094 64.9081 23.3517L63.8121 23.2812C63.7319 23.2812 63.6784 23.2671 63.5983 23.2671H45.7948C41.3039 23.4363 37.5347 23.7183 34.7546 24.0991C20.4263 26.0873 8.53057 25.8053 0.96545 25.1989C0.938718 25.2271 0.938718 25.2554 0.911986 25.2836C0.885254 25.3118 0.885254 25.34 0.885254 25.3682C0.885254 25.3823 0.885254 25.3964 0.885254 25.3964C0.885254 25.4105 0.885254 25.4246 0.885254 25.4387C0.885254 25.4528 0.885254 25.4669 0.885254 25.4669C0.885254 25.4669 0.885254 25.4669 0.885254 25.481C0.885254 25.4951 0.885254 25.5092 0.885254 25.5233V25.5374C8.47711 26.1437 20.5065 26.4398 34.9417 24.4375Z" fill="#CE7F42"/>
<path d="M82.0968 23.2671C82.0167 23.2671 81.9365 23.2671 81.883 23.2812L78.6484 23.5068C104.712 23.9721 134.866 25.3259 152.134 26.1719V25.8194C136.042 25.0297 108.829 23.8029 84.1285 23.2671H82.0968Z" fill="#CE7F42"/>
<path d="M73.2225 23.9015C73.0888 23.9156 72.9284 23.9156 72.7947 23.9015L69.8542 23.7041C57.7447 23.69 47.6668 24.0002 41.866 24.804C21.6032 27.5819 6.23236 25.8757 1.04637 25.1001C1.01964 25.1283 0.992911 25.1565 0.966179 25.1847C0.939447 25.2129 0.939447 25.2411 0.912715 25.2693C0.912715 25.2834 0.885983 25.2975 0.885983 25.3116C0.885983 25.3257 0.885983 25.3398 0.859251 25.3539C0.859251 25.368 0.859251 25.3821 0.83252 25.3962C0.83252 25.4103 0.83252 25.4244 0.83252 25.4385C6.0987 26.2141 21.6032 27.9344 41.9729 25.1283C59.9902 22.6324 119.763 25.0014 152.108 26.5243V26.1718C131.739 25.2129 100.542 23.9156 75.6818 23.7182L73.2225 23.9015Z" fill="#CE7F42"/>
<path d="M80.9735 23.2669C75.8142 22.2799 63.9987 23.14 63.2502 23.14C47.5586 23.1823 22.6445 23.1259 6.89941 23.3374C15.7744 23.4502 65.4155 23.9156 65.362 23.9156C73.4351 24.3668 73.1945 24.2399 73.8093 24.2117C73.7559 24.2117 82.1764 23.831 82.1229 23.831C101.664 23.8169 131.256 23.5631 150.958 23.3092C136.87 23.0977 80.92 23.2669 80.9735 23.2669Z" fill="#662F14"/>
<path d="M150.371 0.0144043H2.51663C1.58101 0.0144043 0.83252 0.409238 0.83252 0.902779V9.64552C0.83252 10.1109 1.50082 10.4916 2.35624 10.5198L19.2775 11.2531C19.331 11.2531 19.3577 11.2531 19.4112 11.2531H146.227C146.468 11.2531 146.735 11.2248 146.949 11.1684C148.393 10.8018 149.809 10.5621 151.066 10.2519C151.654 10.1109 152.028 9.80063 152.028 9.4481V0.902779C152.055 0.409238 151.306 0.0144043 150.371 0.0144043Z" fill="#DFA164"/>
<path d="M146.52 11.267C127.353 11.6054 111.448 11.4644 92.5485 11.3375C75.0926 11.2529 44.8855 11.9015 2.5957 11.267V11.2106C45.9548 10.5478 74.3174 11.2247 92.5485 11.14C110.673 11.0131 127.3 10.8721 146.52 11.2106V11.267Z" fill="#662F14"/>
<path d="M0.938477 12.113L0.965208 21.3916C0.965208 21.7442 1.36619 22.0685 1.98102 22.1954L6.52544 23.2107C6.73929 23.253 6.95315 23.2812 7.167 23.2812H64.0792C64.1326 23.2812 64.2128 23.2812 64.2663 23.2812C65.0415 23.2389 70.575 22.9005 72.473 22.9005C74.6115 22.9005 80.6797 23.2389 81.4816 23.2812C81.5351 23.2812 81.5886 23.2812 81.6688 23.2812H150.45C151.385 23.2812 152.134 22.8864 152.107 22.3928L152.027 12.5643C152.027 12.1553 151.492 11.8028 150.717 11.7041L146.868 11.2529C146.761 11.2388 146.627 11.2388 146.494 11.2388H2.59585C1.68697 11.2388 0.938477 11.6336 0.938477 12.113Z" fill="#DFA164"/>
<path d="M35.6374 3.86403C53.7082 2.86284 67.2613 1.00149 83.0598 2.41161C92.309 3.22948 99.4999 4.39987 107.332 4.14605C113.481 3.80762 116.394 3.29998 125.964 0.0144043H121.901C120.992 0.32463 120.297 0.550249 119.682 0.719464C119.175 0.832273 114.122 2.59492 107.172 2.84874C100.248 3.07436 92.9773 1.86166 83.5142 1.00149C64.9356 -0.704756 49.0836 2.00267 29.3822 2.53852C20.2666 2.51031 10.4827 1.97447 0.83252 1.1848V2.51031C13.3698 3.72302 26.5753 4.47038 35.6374 3.86403Z" fill="#CE7F42"/>
<path d="M78.2748 4.23036C85.1181 4.41368 90.4913 4.94952 93.9664 5.54177C94.2872 5.58407 99.0455 6.31734 99.0989 6.33144C115.298 8.44662 134.733 5.54177 152.028 2.2985V1.63574C134.733 4.93542 115.405 7.88257 99.3395 5.80969C79.9856 2.76384 74.7996 3.37019 46.3569 5.31615C44.5926 5.41486 42.8283 5.55587 41.064 5.64048C41.0105 5.64048 23.5279 6.69807 0.83252 4.82261V5.23154C38.3106 8.53122 56.2744 3.89193 78.2748 4.23036Z" fill="#CE7F42"/>
<path d="M54.6171 11.845C48.5222 9.4337 18.1548 9.10937 0.83252 9.12347V9.64522C0.83252 9.71572 0.859251 9.77213 0.859251 9.84263C19.3042 9.84263 51.3825 10.2093 54.1626 12.5924C52.0508 14.0166 19.7052 13.3256 0.912715 12.7898V13.5089C23.421 14.1717 62.4228 14.9191 54.6171 11.845Z" fill="#CE7F42"/>
<path d="M60.4981 9.43367C68.6246 8.77091 122.971 10.7733 152.055 9.53238C152.055 9.50418 152.055 9.47597 152.055 9.44777V8.84142C123.345 10.04 68.2503 8.09406 60.2842 8.74271C50.5538 9.53238 3.87995 6.61343 0.83252 6.41602V7.12108C5.4304 7.4172 50.6073 10.2374 60.4981 9.43367Z" fill="#CE7F42"/>
<path d="M104.205 11.8731C101.826 14.1998 130.91 15.0882 152.055 15.4125V14.7075C130.215 14.3408 107.627 13.5371 105.461 12.1693C108.268 11.0553 136.577 12.2116 152.055 12.9448V12.5641C152.055 12.4513 152.002 12.3385 151.921 12.2257C135.722 11.4501 105.862 10.2515 104.205 11.8731Z" fill="#CE7F42"/>
<path d="M39.0325 19.5582C50.2332 20.2915 27.7517 19.9671 152.108 21.0529V20.2915C117.33 19.3044 80.9748 18.839 46.8115 18.6698C45.2076 18.557 35.9851 17.9084 31.601 17.8661C24.223 17.7814 13.557 17.5699 0.966309 18.9941V19.7979H0.993041C20.4806 18.1481 37.9365 19.5582 39.0325 19.5582Z" fill="#CE7F42"/>
<path d="M104.579 17.8382C139.063 19.6995 127.729 17.4856 148.152 17.7959C149.462 17.8241 150.772 17.8523 152.082 17.8946V17.119C148.232 16.9216 144.971 16.8229 142.672 16.8229C126.499 16.8934 137.593 18.2894 104.846 16.4562C91.3468 15.6525 73.8107 14.2424 65.1228 14.2565C45.2343 14.7782 22.4053 15.314 0.966309 16.569V17.1331C86.8024 15.3281 58.3864 15.3422 104.579 17.8382Z" fill="#CE7F42"/>
<path d="M101.692 30.8674C101.906 30.8392 105.435 30.4585 105.488 30.4585C117.678 29.4009 138.529 31.7558 152.108 33.73V33.3352C140.854 31.643 126.553 29.9368 115.78 29.6406C107.172 29.3868 103.777 30.0496 102.708 30.106C88.8875 31.5443 78.462 29.0061 64.6417 28.2446C55.0716 27.6806 19.6252 28.4138 0.859375 29.2035V29.7817C17.5133 29.3727 40.5295 28.8651 54.2162 28.7664C73.9978 28.5831 87.4707 32.475 101.692 30.8674Z" fill="#CE7F42"/>
<path d="M108.001 27.737C111.102 27.6101 111.476 27.4127 111.583 27.2294C111.61 27.173 111.663 27.046 111.396 26.9191C108.723 25.6641 94.4479 25.3539 93.6727 25.3257C91.1064 25.1706 69.1863 23.8451 67.3418 25.2552C64.1607 27.6806 100.596 28.0613 108.001 27.737ZM93.5658 25.6782C96.7201 25.7487 108.348 26.1295 110.861 27.1447C107.921 28.0049 69.5338 27.2999 67.8764 25.6218C66.4329 24.1976 90.3045 25.4808 93.5658 25.6782Z" fill="#CE7F42"/>
<path d="M26.7357 33.307C30.7455 33.7159 36.5463 35.4504 42.2135 36.0708H49.2974C49.8321 35.9862 50.3667 35.8875 50.8746 35.7606C58.1724 33.9557 72.6344 33.7159 85.8132 33.7159C91.9883 33.7159 108.562 34.8863 123.666 36.0708H128.13C111.984 34.7876 92.6566 33.3775 85.8399 33.3775C72.5809 33.3775 58.0388 33.6172 50.6073 35.4504C43.2293 37.2694 33.0712 33.589 26.8694 32.9686C22.8596 32.5596 9.76098 33.448 0.939453 34.1249V34.4774C9.70751 33.8005 22.8329 32.9122 26.7357 33.307Z" fill="#CE7F42"/>
<path d="M30.8795 31.1073C38.2575 31.6431 33.0715 35.7325 56.4619 32.1085C64.9894 30.783 63.439 30.9099 78.195 31.7841C89.9035 32.4751 105.943 33.434 112.332 33.1661C118.507 32.8981 135.161 34.7313 146.228 36.0709H150.478C150.772 36.0709 151.013 36.0286 151.253 35.9722C140.908 34.6749 119.656 32.1649 112.251 32.4751C102.574 32.884 70.0952 30.4163 65.0963 30.4163C60.0707 30.4163 51.1958 32.6866 43.2029 32.884C35.3438 33.0815 37.1882 30.8535 31.0666 30.4163C27.6182 30.1625 12.5949 30.8253 0.913086 31.4034V32.1085C12.5415 31.5303 27.5648 30.8676 30.8795 31.1073Z" fill="#CE7F42"/>
<path d="M146.52 11.1962C127.3 10.8578 110.673 11.0129 92.5485 11.1257C74.3441 11.2103 45.9548 10.5476 2.5957 11.1962V11.2244L146.921 11.2385L146.52 11.1962Z" fill="#662F14"/>
<path opacity="0.13" d="M144.008 6.16252C144.008 4.00504 142.244 1.93217 138.983 0.0144043H2.51663C1.58101 0.0144043 0.83252 0.409238 0.83252 0.902779V9.64552C0.83252 10.1109 1.50082 10.4916 2.35624 10.5198L18.6894 11.2389H2.59682C1.66121 11.2389 0.912715 11.6338 0.912715 12.1273L0.939447 21.4059C0.939447 21.702 1.2335 21.9841 1.68794 22.1392C16.043 24.0005 33.0712 25.0863 51.3558 25.0863C102.547 25.0722 144.008 16.6115 144.008 6.16252ZM72.5007 22.8865C74.265 22.8865 80.0124 23.1686 81.9103 23.2814C81.9103 23.2814 81.9103 23.2814 81.8836 23.2814C72.8749 23.9018 73.169 23.9159 72.768 23.9018L63.8128 23.2814C64.8554 23.2814 70.1483 22.8865 72.5007 22.8865Z" fill="#DFA164"/>
</svg>
