<svg width="31" height="31" viewBox="0 0 31 31" fill="none" xmlns="http://www.w3.org/2000/svg">
<path fill-rule="evenodd" clip-rule="evenodd" d="M3.3 0C1.47746 0 0 1.47746 0 3.3V27.7C0 29.5225 1.47746 31 3.3 31H27.7C29.5225 31 31 29.5225 31 27.7V3.3C31 1.47746 29.5225 0 27.7 0H3.3ZM9.45392 17.2523L5.31563 15.6799C4.89479 15.5369 4.89479 14.8937 5.31563 14.7507L22.3597 8.03227C22.7104 7.88933 23.0611 8.24669 22.991 8.60405L19.9048 23.6134C19.8347 23.9707 19.4138 24.1137 19.1333 23.8993L14.995 20.8259C14.7144 20.6115 14.3637 20.6115 14.1533 20.8259L11.8387 22.7557C11.5581 22.9701 11.1373 22.8986 11.0671 22.5413L9.45392 17.2523ZM18.993 11.3915L10.8567 16.4661C10.506 16.609 10.3657 17.0379 10.5761 17.3952L11.4178 20.54C11.488 20.8259 11.8387 20.7544 11.8387 20.54L12.0491 18.8247C12.0491 18.4673 12.2595 18.1814 12.4699 17.967L19.1333 11.6059C19.2735 11.5344 19.1333 11.32 18.993 11.3915Z" fill="#EAEAEA"/>
</svg>
