<svg width="147" height="141" viewBox="0 0 147 141" fill="none" xmlns="http://www.w3.org/2000/svg">
<path d="M36.8245 13.5025L66.9898 5.34863L73.2514 12.3659L79.364 20.3716H34.9857L36.8245 13.5025Z" fill="url(#paint0_linear)" stroke="#C69331" stroke-width="0.1844" stroke-linecap="round" stroke-linejoin="round"/>
<path d="M36.8245 13.5025L66.9898 5.34863L73.2514 12.3659L79.364 20.3716H34.9857L36.8245 13.5025Z" fill="#F59E25" stroke="#D0842C" stroke-width="0.7088" stroke-linecap="round" stroke-linejoin="round"/>
<path d="M66.9897 5.34873L77.078 2.63076L78.6185 1.24707L86.0729 6.48533L79.364 20.3717L73.2514 12.366L66.9897 5.34873Z" fill="#FECB22" stroke="#D0842C" stroke-width="0.7088" stroke-linecap="round" stroke-linejoin="round"/>
<path d="M36.8245 13.5026L73.2514 12.366L78.6186 1.24707L42.937 2.87785L36.8245 13.5026Z" fill="#FAB523" stroke="#D0842C" stroke-width="0.7088" stroke-linecap="round" stroke-linejoin="round"/>
<path opacity="0.67" d="M78.8671 2.08716L85.6257 6.68299C85.6257 6.68299 83.0912 6.4359 78.8671 2.08716Z" fill="white"/>
<path opacity="0.67" d="M43.3346 3.37189L77.6744 1.79053C77.6744 1.79053 49.1987 2.53179 43.3346 3.37189Z" fill="white"/>
<path opacity="0.67" d="M73.9969 9.64795L72.9036 12.02L65.002 12.2671C65.002 12.2671 71.7606 11.8223 72.3569 11.5752C72.9533 11.3281 73.9969 9.64795 73.9969 9.64795Z" fill="white"/>
<path d="M84.6318 8.36328L115.543 13.1568L118.375 22.1508L120.661 31.886L80.1592 13.8981L84.6318 8.36328Z" fill="url(#paint1_linear)" stroke="#C69331" stroke-width="0.1844" stroke-linecap="round" stroke-linejoin="round"/>
<path d="M84.6318 8.36328L115.543 13.1568L118.375 22.1508L120.661 31.886L80.1592 13.8981L84.6318 8.36328Z" fill="#F59E25" stroke="#D0842C" stroke-width="0.7088" stroke-linecap="round" stroke-linejoin="round"/>
<path d="M115.543 13.1567L125.879 14.7875L127.817 14.1451L132.489 21.9531L120.661 31.886L118.375 22.1507L115.543 13.1567Z" fill="#FECB22" stroke="#D0842C" stroke-width="0.7088" stroke-linecap="round" stroke-linejoin="round"/>
<path d="M84.6318 8.3633L118.375 22.1508L127.817 14.1452L94.571 1.19775L84.6318 8.3633Z" fill="#FAB523" stroke="#D0842C" stroke-width="0.7088" stroke-linecap="round" stroke-linejoin="round"/>
<path opacity="0.67" d="M127.718 14.9854L131.992 21.9532C131.992 21.9532 129.805 20.7178 127.718 14.9854Z" fill="white"/>
<path opacity="0.67" d="M94.7697 1.79077L126.774 14.244C126.774 14.244 100.435 3.37213 94.7697 1.79077Z" fill="white"/>
<path opacity="0.67" d="M120.164 19.9269L118.176 21.6071L110.871 18.6421C110.871 18.6421 117.232 20.9647 117.878 21.0141C118.574 21.0635 120.164 19.9269 120.164 19.9269Z" fill="white"/>
<path d="M113.903 26.4503L85.427 13.5029L78.1217 19.433L70.8164 26.2527L114.549 33.517L113.903 26.4503Z" fill="url(#paint2_linear)" stroke="#C69331" stroke-width="0.1844" stroke-linecap="round" stroke-linejoin="round"/>
<path d="M113.903 26.4503L85.427 13.5029L78.1217 19.433L70.8164 26.2527L114.549 33.517L113.903 26.4503Z" fill="#F59E25" stroke="#D0842C" stroke-width="0.7088" stroke-linecap="round" stroke-linejoin="round"/>
<path d="M85.4269 13.5029L75.9848 9.15412L74.6927 7.57275L66.4432 11.5262L70.8164 26.2526L78.1217 19.433L85.4269 13.5029Z" fill="#FECB22" stroke="#D0842C" stroke-width="0.7088" stroke-linecap="round" stroke-linejoin="round"/>
<path d="M113.903 26.4503L78.1217 19.433L74.6927 7.57275L109.579 14.9854L113.903 26.4503Z" fill="#FAB523" stroke="#D0842C" stroke-width="0.7088" stroke-linecap="round" stroke-linejoin="round"/>
<path opacity="0.67" d="M74.2951 8.31396L66.8904 11.7732C66.8904 11.7732 69.3752 11.9214 74.2951 8.31396Z" fill="white"/>
<path opacity="0.67" d="M109.132 15.4301L75.5375 8.21509C75.5375 8.21509 103.466 13.6016 109.132 15.4301Z" fill="white"/>
<path opacity="0.67" d="M77.8235 16.6162L78.5192 19.1365L86.2718 20.6685C86.2718 20.6685 79.6622 19.1365 79.1156 18.7906C78.5689 18.3952 77.8235 16.6162 77.8235 16.6162Z" fill="white"/>
<path d="M48.8508 34.4556L79.1155 26.5488L85.2778 33.665L91.3407 41.6706L46.9624 41.2753L48.8508 34.4556Z" fill="url(#paint3_linear)" stroke="#C69331" stroke-width="0.1844" stroke-linecap="round" stroke-linejoin="round"/>
<path d="M48.8508 34.4556L79.1155 26.5488L85.2778 33.665L91.3407 41.6706L46.9624 41.2753L48.8508 34.4556Z" fill="#F59E25" stroke="#D0842C" stroke-width="0.7088" stroke-linecap="round" stroke-linejoin="round"/>
<path d="M79.1155 26.549L89.2038 23.9298L90.7444 22.5461L98.1987 27.8832L91.3407 41.6707L85.2778 33.6651L79.1155 26.549Z" fill="#FECB22" stroke="#D0842C" stroke-width="0.7088" stroke-linecap="round" stroke-linejoin="round"/>
<path d="M48.8508 34.4558L85.2778 33.6651L90.7443 22.5461L55.0628 23.8804L48.8508 34.4558Z" fill="#FAB523" stroke="#D0842C" stroke-width="0.7088" stroke-linecap="round" stroke-linejoin="round"/>
<path opacity="0.67" d="M90.9928 23.3862L97.7017 28.0315C97.7017 28.0809 95.2169 27.7844 90.9928 23.3862Z" fill="white"/>
<path opacity="0.67" d="M55.4604 24.424L89.8002 23.1391C89.8002 23.0897 61.3245 23.5839 55.4604 24.424Z" fill="white"/>
<path opacity="0.67" d="M86.073 30.947L84.9299 33.2697L77.0283 33.4179C77.0283 33.4179 83.7869 33.0226 84.3833 32.8249C85.0293 32.5778 86.073 30.947 86.073 30.947Z" fill="white"/>
<path d="M74.3945 15.1829L43.2849 18.3456L40.005 27.1419L37.1724 36.7289L78.5689 20.9153L74.3945 15.1829Z" fill="url(#paint4_linear)" stroke="#C69331" stroke-width="0.1844" stroke-linecap="round" stroke-linejoin="round"/>
<path d="M74.3945 15.1829L43.2849 18.3456L40.005 27.1419L37.1724 36.7289L78.5689 20.9153L74.3945 15.1829Z" fill="#F59E25" stroke="#D0842C" stroke-width="0.7088" stroke-linecap="round" stroke-linejoin="round"/>
<path d="M43.2849 18.3457L32.8985 19.3835L30.9604 18.6422L25.8417 26.2031L37.1724 36.729L40.005 27.142L43.2849 18.3457Z" fill="#FECB22" stroke="#D0842C" stroke-width="0.7088" stroke-linecap="round" stroke-linejoin="round"/>
<path d="M74.3945 15.183L40.005 27.1421L30.9604 18.6423L64.8529 7.47388L74.3945 15.183Z" fill="#FAB523" stroke="#D0842C" stroke-width="0.7088" stroke-linecap="round" stroke-linejoin="round"/>
<path opacity="0.67" d="M31.0101 19.4824L26.3884 26.2032C26.3884 26.2032 28.6247 25.0666 31.0101 19.4824Z" fill="white"/>
<path opacity="0.67" d="M64.6541 8.06689L32.004 18.7905C32.004 18.7905 58.8894 9.35175 64.6541 8.06689Z" fill="white"/>
<path opacity="0.67" d="M38.3154 24.8689L40.2038 26.6479L47.6582 24.0288C47.6582 24.0288 41.148 26.0549 40.5517 26.0055C39.8559 26.0549 38.3154 24.8689 38.3154 24.8689Z" fill="white"/>
<path d="M135.272 29.8601L103.963 30.206L99.9381 38.6564L96.2109 47.9964L138.9 35.9385L135.272 29.8601Z" fill="url(#paint5_linear)" stroke="#C69331" stroke-width="0.1844" stroke-linecap="round" stroke-linejoin="round"/>
<path d="M135.272 29.8601L103.963 30.206L99.9381 38.6564L96.2109 47.9964L138.9 35.9385L135.272 29.8601Z" fill="#F59E25" stroke="#D0842C" stroke-width="0.7088" stroke-linecap="round" stroke-linejoin="round"/>
<path d="M103.963 30.206L93.5273 30.3048L91.6886 29.4153L85.9239 36.482L96.2109 47.9963L99.9381 38.6564L103.963 30.206Z" fill="#FECB22" stroke="#D0842C" stroke-width="0.7088" stroke-linecap="round" stroke-linejoin="round"/>
<path d="M135.272 29.86L99.9381 38.6564L91.6886 29.4153L126.476 21.3108L135.272 29.86Z" fill="#FAB523" stroke="#D0842C" stroke-width="0.7088" stroke-linecap="round" stroke-linejoin="round"/>
<path opacity="0.67" d="M91.6886 30.2554L86.4706 36.5314C86.4209 36.5314 88.8063 35.5925 91.6886 30.2554Z" fill="white"/>
<path opacity="0.67" d="M126.227 21.9038L92.7322 29.6624C92.7322 29.6624 120.313 22.6451 126.227 21.9038Z" fill="white"/>
<path opacity="0.67" d="M98.4472 36.2349L100.137 38.2116L107.79 36.2843C107.79 36.2843 101.131 37.7174 100.534 37.6186C99.8884 37.5691 98.4472 36.2349 98.4472 36.2349Z" fill="white"/>
<path d="M18.7352 31.6389L50.0436 32.479L53.9695 40.9788L57.4979 50.3682L15.0081 37.6184L18.7352 31.6389Z" fill="url(#paint6_linear)" stroke="#C69331" stroke-width="0.1844" stroke-linecap="round" stroke-linejoin="round"/>
<path d="M18.7352 31.6389L50.0436 32.479L53.9695 40.9788L57.4979 50.3682L15.0081 37.6184L18.7352 31.6389Z" fill="#F59E25" stroke="#D0842C" stroke-width="0.7088" stroke-linecap="round" stroke-linejoin="round"/>
<path d="M50.0436 32.479L60.4797 32.7261L62.3184 31.886L67.9837 39.0515L57.4979 50.3682L53.9695 40.9788L50.0436 32.479Z" fill="#FECB22" stroke="#D0842C" stroke-width="0.7088" stroke-linecap="round" stroke-linejoin="round"/>
<path d="M18.7352 31.6389L53.9695 40.9788L62.3184 31.886L27.7302 23.1885L18.7352 31.6389Z" fill="#FAB523" stroke="#D0842C" stroke-width="0.7088" stroke-linecap="round" stroke-linejoin="round"/>
<path opacity="0.67" d="M62.3184 32.7261L67.4371 39.0515C67.4868 39.1009 65.1511 38.1126 62.3184 32.7261Z" fill="white"/>
<path opacity="0.67" d="M27.929 23.7815L61.2748 32.1331C61.2748 32.1331 33.7931 24.671 27.929 23.7815Z" fill="white"/>
<path opacity="0.67" d="M55.4604 38.6066L53.7211 40.5339L46.1176 38.5078C46.1176 38.5078 52.7271 40.0398 53.3732 39.9903C54.0192 39.8915 55.4604 38.6066 55.4604 38.6066Z" fill="white"/>
<path opacity="0.7" d="M33.2961 19.1364L65.002 8.80811L67.6855 11.4767L36.3772 21.8049L33.2961 19.1364Z" fill="#FED170"/>
<path opacity="0.7" d="M41.645 6.88077L43.4838 4.11339L77.0781 2.63086L75.1399 5.29941L41.645 6.88077Z" fill="#FED170"/>
<path opacity="0.7" d="M25.2454 26.4997L27.8296 24.2759L60.4797 32.7263L58.4422 34.4559L25.2454 26.4997Z" fill="#FED170"/>
<path opacity="0.7" d="M72.1582 24.8688L65.8468 29.0199L86.4208 28.3775L88.7565 23.584C88.7565 23.6334 72.506 24.77 72.1582 24.8688Z" fill="#FED170"/>
<path opacity="0.7" d="M90.8934 5.20057L94.8691 2.63086L123.047 13.7992L120.91 14.4417L90.8934 5.20057Z" fill="#FED170"/>
<path opacity="0.7" d="M94.3225 30.5519L122.401 23.9299L99.4909 35.0983L94.3225 30.5519Z" fill="#FED170"/>
<path opacity="0.7" d="M77.5253 12.3166L76.6805 9.10449L107.84 16.0724L108.386 17.5549L77.5253 12.3166Z" fill="#FED170"/>
<path opacity="0.3" d="M120.81 21.6566C118.326 22.6449 115.791 23.5839 113.306 24.5722C115.294 24.2263 117.183 23.6827 119.17 23.2379C121.009 22.8426 122.848 21.9531 124.736 21.8543C126.625 21.7554 128.116 22.6944 129.606 23.6827C128.662 22.0519 127.668 20.4211 126.426 18.988C124.836 20.3717 122.748 20.8659 120.81 21.6566Z" fill="#703405"/>
<path opacity="0.3" d="M91.5396 21.9531C89.7008 21.6072 87.8621 21.2613 85.9736 21.3107C84.7313 21.3107 83.4392 21.4095 82.2465 21.2119C81.1035 21.0142 80.1095 20.6188 79.215 19.8776C78.2708 19.1363 77.3266 18.2468 76.1836 17.9009C76.8296 18.741 77.4757 19.6305 78.072 20.4706C78.1714 20.6188 78.072 20.8165 77.9726 20.9153C77.0284 21.4589 76.0345 22.0025 75.0406 22.5461C78.7181 22.4473 82.3459 22.3979 86.0233 22.4473C88.5081 22.4967 91.1917 22.4967 93.1298 24.3252C94.1237 25.2641 94.6207 26.3019 95.4158 27.3396C96.211 28.4268 96.9067 28.4268 98.0994 28.0315C98.6958 27.8338 99.2424 27.6361 99.8388 27.4879C102.721 26.6478 105.554 25.5112 108.536 25.3135C106.349 24.5228 103.964 24.4734 101.678 24.0781C98.1988 23.4356 94.8692 22.5955 91.5396 21.9531Z" fill="#C36E13"/>
<path opacity="0.3" d="M42.5892 26.6974C43.8316 27.0433 45.1237 27.3892 46.3661 27.6857C47.857 28.0316 49.3479 28.427 50.789 28.9706C52.0314 29.4153 53.4229 30.1072 54.7647 30.0578C57.5973 30.0083 60.0324 28.1799 62.5669 27.0433C64.4554 26.2032 66.3935 25.4125 68.2819 24.6218C64.0081 25.5113 59.8337 27.0433 55.4107 27.1915C51.1369 27.2904 46.8631 26.7468 42.5892 26.6974Z" fill="#C36E13"/>
<path opacity="0.3" d="M76.9787 3.6687C75.4878 4.45938 74.3945 5.99133 72.7545 6.4855C71.4625 6.83143 69.7231 7.57269 68.431 6.83143C67.8347 6.4855 67.3874 6.09016 66.8905 5.6454C65.7971 4.65705 65.002 4.75589 63.7596 5.39832C62.2191 6.189 60.5294 6.58434 58.8397 7.0291C54.1683 8.26454 49.646 10.2907 45.2231 12.2674C42.0923 13.6511 38.9614 15.1336 35.93 16.7149L35.8803 16.9126C42.5395 14.59 49.1988 12.3662 55.9574 10.2907C57.5477 9.79648 59.0882 9.25289 60.6785 8.65988C61.8712 8.21512 63.1136 7.67153 64.4057 7.57269C66.4432 7.42444 67.9341 9.10463 69.3255 10.5377C70.8661 9.35172 72.6552 8.01745 74.643 7.96803C76.4817 7.91861 78.3205 8.51162 80.1095 9.20347C80.2586 9.20347 80.4574 9.25289 80.6065 9.25289C82.5446 9.64823 84.4827 9.99415 86.4209 10.3401C90.5953 11.0813 94.7698 11.9709 98.9939 12.7615C101.181 13.1569 103.367 13.5522 105.554 14.0464C106.796 14.3429 108.287 14.4912 109.43 15.183C110.225 15.6278 110.474 16.7644 110.821 17.5056C111.12 18.1975 111.418 19.1364 111.865 19.8777C113.207 20.6189 114.698 21.3108 116.189 21.5084C114.946 20.273 113.505 19.1858 112.511 17.7033C111.517 16.2702 110.921 14.59 110.076 13.0086C109.678 12.2179 109.182 11.1308 108.138 11.1308C107.293 11.1308 106.448 11.3284 105.603 11.3778C103.715 11.4767 101.827 11.4273 99.9381 11.1308C95.2667 10.4389 90.5953 9.99415 85.9736 9.30231C82.5943 8.80813 78.9665 8.31395 75.9351 6.63376C75.786 6.53492 75.7363 6.33725 75.8357 6.189C76.1836 5.3489 76.6805 4.55822 76.9787 3.6687Z" fill="#C36E13"/>
<path opacity="0.3" d="M136.464 35.7407C131.942 35.0489 127.022 35.7901 122.649 34.2582C122.401 34.1594 122.301 33.8134 122.55 33.6652C125.233 32.3309 128.165 31.6391 131.048 30.8484C129.805 30.8978 128.563 30.9966 127.37 31.0461C122.351 31.2931 117.58 32.2321 112.66 33.2204C108.535 34.0111 104.311 34.9006 100.137 33.9617C97.8012 33.4181 95.5649 32.578 93.428 31.5897C94.0243 32.3803 94.4716 33.2204 94.5213 34.2582C94.5213 34.4065 94.4219 34.5053 94.2728 34.5547C92.0365 35.296 89.6511 35.2466 87.3154 35.0983C84.5821 34.95 81.8489 34.9006 79.0659 34.8512C73.2018 34.7524 67.2383 34.95 61.4239 34.357C61.1754 34.357 61.0263 34.1099 61.1257 33.8629C61.5233 33.171 62.07 32.6274 62.5669 32.0838C61.0263 32.3309 59.5355 32.8745 57.9949 33.1216C56.4046 33.4181 54.7647 33.4181 53.1247 33.5664C49.646 33.9123 46.1673 34.4065 42.6389 34.5053C36.8245 34.6535 31.0598 33.3687 25.3448 32.3309C26.289 32.8745 27.1836 33.4675 28.0284 34.2088C28.2769 34.4065 28.0781 34.7524 27.7799 34.7524C25.3448 34.95 22.9594 34.5547 20.5243 34.8018C19.1825 34.95 17.7414 35.1971 16.3499 35.1477L14.859 37.5692L57.3489 50.3189L65.5984 41.4238L90.4462 41.6214L96.1115 47.9469L138.452 36.0867C137.757 35.9384 137.111 35.8396 136.464 35.7407Z" fill="#C36E13"/>
<path d="M114.598 14.7383C114.598 14.7383 114.25 21.4591 113.853 21.805C113.406 22.1509 111.468 18.7411 111.468 18.7411C111.468 18.7411 113.157 21.7062 113.008 22.1509C112.859 22.5957 108.685 22.3486 108.685 22.3486C108.685 22.3486 113.107 22.7933 112.859 23.4852C112.611 24.2265 109.877 28.081 109.877 28.081C109.877 28.081 113.555 23.3864 113.952 23.9794C114.35 24.6218 116.04 30.206 116.04 30.206C116.04 30.206 114.4 23.584 114.996 23.6829C115.592 23.8311 121.357 25.0666 121.357 25.0666C121.357 25.0666 115.145 23.6829 115.443 22.7933C115.692 21.9038 121.357 18.3952 121.357 18.3952C121.357 18.3952 115.642 22.3486 114.797 22.0027C114.002 21.7062 114.598 14.7383 114.598 14.7383Z" fill="#FFFCE7"/>
<path d="M75.3387 7.17725C75.3387 7.17725 74.9909 13.898 74.5933 14.244C74.146 14.5899 72.2079 11.1801 72.2079 11.1801C72.2079 11.1801 73.8975 14.1451 73.7485 14.5899C73.5994 15.0346 69.4249 14.7876 69.4249 14.7876C69.4249 14.7876 73.8479 15.2323 73.5994 15.9242C73.3509 16.6654 70.6176 20.52 70.6176 20.52C70.6176 20.52 74.2951 15.8253 74.6927 16.4183C75.0902 17.0608 76.7799 22.6449 76.7799 22.6449C76.7799 22.6449 75.1399 16.023 75.7363 16.1218C76.3326 16.2701 82.0973 17.5055 82.0973 17.5055C82.0973 17.5055 75.8854 16.1218 76.1835 15.2323C76.432 14.3428 82.0973 10.8341 82.0973 10.8341C82.0973 10.8341 76.3823 14.7876 75.5375 14.4416C74.7424 14.1451 75.3387 7.17725 75.3387 7.17725Z" fill="#FFFCE7"/>
<path d="M35.9797 19.9763C35.9797 19.9763 35.7809 24.3251 35.4828 24.5227C35.1846 24.7698 33.9422 22.546 33.9422 22.546C33.9422 22.546 35.0355 24.4239 34.9361 24.7204C34.8367 25.0169 32.1531 24.8192 32.1531 24.8192C32.1531 24.8192 34.9858 25.1157 34.8367 25.5605C34.6876 26.0547 32.8986 28.5256 32.8986 28.5256C32.8986 28.5256 35.284 25.5111 35.5325 25.9064C35.7809 26.3018 36.8742 29.9093 36.8742 29.9093C36.8742 29.9093 35.8306 25.6593 36.1785 25.7088C36.5761 25.8076 40.2535 26.5983 40.2535 26.5983C40.2535 26.5983 36.2779 25.7088 36.427 25.1157C36.5761 24.5227 40.2535 22.2989 40.2535 22.2989C40.2535 22.2989 36.5761 24.8192 36.0294 24.6216C35.5821 24.4239 35.9797 19.9763 35.9797 19.9763Z" fill="#FFFCE7"/>
<path d="M45.1734 3.125C45.1734 3.125 45.074 5.59588 44.8753 5.74413C44.7262 5.89238 43.9807 4.60753 43.9807 4.60753C43.9807 4.60753 44.5771 5.69471 44.5274 5.84297C44.4777 5.99122 42.9371 5.89238 42.9371 5.89238C42.9371 5.89238 44.5771 6.04064 44.4777 6.33714C44.3783 6.58423 43.3844 8.01734 43.3844 8.01734C43.3844 8.01734 44.7262 6.28772 44.8753 6.53481C45.0244 6.7819 45.6704 8.80802 45.6704 8.80802C45.6704 8.80802 45.074 6.38656 45.2728 6.43598C45.4716 6.4854 47.6085 6.93015 47.6085 6.93015C47.6085 6.93015 45.3225 6.43598 45.4219 6.09005C45.571 5.74413 47.6582 4.45927 47.6582 4.45927C47.6582 4.45927 45.571 5.89238 45.2728 5.79355C44.9747 5.69471 45.1734 3.125 45.1734 3.125Z" fill="#FFFCE7"/>
<path d="M91.5395 27.1914C91.5395 27.1914 91.4401 29.6623 91.2414 29.8105C91.0923 29.9588 90.3468 28.6739 90.3468 28.6739C90.3468 28.6739 90.9432 29.7611 90.8935 29.9094C90.8438 30.0576 89.3032 29.9588 89.3032 29.9588C89.3032 29.9588 90.9432 30.107 90.8438 30.4035C90.7444 30.6506 89.7505 32.0837 89.7505 32.0837C89.7505 32.0837 91.0923 30.3541 91.2414 30.6012C91.3905 30.8483 92.0365 32.8744 92.0365 32.8744C92.0365 32.8744 91.4401 30.453 91.6389 30.5024C91.8377 30.5518 93.9746 30.9966 93.9746 30.9966C93.9746 30.9966 91.6886 30.5024 91.788 30.1565C91.8874 29.8105 93.9746 28.5257 93.9746 28.5257C93.9746 28.5257 91.8874 29.9588 91.5892 29.86C91.3408 29.7117 91.5395 27.1914 91.5395 27.1914Z" fill="#FFFCE7"/>
<path d="M23.357 115.896L6.21196 116.094V112.783H0.496948V124.297H6.31135V120.887H24.6491L23.357 115.896Z" fill="#656665"/>
<path d="M6.80832 124.791H0V112.289H6.70893V115.6L23.7546 115.402L25.2951 121.381H6.80832V124.791ZM0.993915 123.803H5.8144V120.344H24.003L22.9594 116.341L5.71501 116.588V113.277H0.993915V123.803Z" fill="#1D1D1B"/>
<path opacity="0.5" d="M0.496948 119.059V124.297H6.31135V120.887H24.6491L24.1521 119.059H0.496948Z" fill="#3D3E3D"/>
<path opacity="0.7" d="M1.39148 113.722H5.21805V117.131H13.2191L4.32353 118.169V114.661L1.39148 113.722Z" fill="#9F9F9F"/>
<path d="M123.643 115.896L140.788 116.094V112.783H146.503V124.297H140.689V120.887H122.351L123.643 115.896Z" fill="#656665"/>
<path d="M140.192 121.332H121.705L123.245 115.353L140.291 115.55V112.239H147V124.742H140.192V121.332ZM146.006 113.277H141.285V116.588L124.041 116.341L122.997 120.344H141.136V123.803H145.956V113.277H146.006Z" fill="#1D1D1B"/>
<path opacity="0.5" d="M146.503 119.059V124.297H140.689V120.887H122.351L122.798 119.059H146.503Z" fill="#3D3E3D"/>
<path opacity="0.7" d="M145.608 113.722H141.732V117.131H133.781L142.627 118.169V114.661L145.608 113.722Z" fill="#9F9F9F"/>
<path d="M126.625 106.012H20.9717V122.32H126.625V106.012Z" fill="#3D3E3D"/>
<path d="M127.122 122.815H20.425V105.469H127.122V122.815ZM21.4686 121.777H126.128V106.507H21.4686V121.777Z" fill="#1D1D1B"/>
<path d="M126.625 120.541H20.9717V122.32H126.625V120.541Z" fill="#3D3E3D"/>
<path opacity="0.5" d="M126.625 106.012H20.9717V117.823H126.625V106.012Z" fill="#3D3E3D"/>
<path d="M101.678 44.4878H45.9189H9.98889L17.5426 117.132H45.9189H101.678H130.054L137.608 44.4878H101.678Z" fill="#6F4835"/>
<path d="M43.1358 68.06C57.1003 68.7518 71.0648 68.653 85.0293 68.8507C99.1926 69.0483 113.356 69.5425 127.519 70.0861C130.004 70.1849 132.439 70.2838 134.924 70.3332L137.607 44.4878H9.98877L12.2251 65.935C22.5121 66.8245 32.7991 67.5658 43.1358 68.06Z" fill="#B85C17"/>
<path d="M134.924 71.025C132.439 70.9262 129.954 70.8274 127.519 70.7779C113.654 70.2344 99.2921 69.6908 85.0791 69.5425C81.4513 69.4931 77.8235 69.4437 74.2454 69.4437C64.0578 69.3448 53.5223 69.2954 43.1359 68.8012C33.8428 68.3565 23.7048 67.6646 12.1754 66.6269C11.8773 66.5775 11.5791 66.3304 11.5791 66.0339L9.34277 44.5866C9.34277 44.3889 9.39247 44.1913 9.49186 44.0924C9.64095 43.9442 9.79004 43.8948 9.98882 43.8948H137.607C137.806 43.8948 137.955 43.9936 138.104 44.0924C138.254 44.2407 138.303 44.4384 138.254 44.5866L135.57 70.432C135.57 70.7779 135.272 71.025 134.924 71.025ZM12.8215 65.2926C24.1024 66.2809 34.0416 66.9728 43.1359 67.4175C53.4726 67.9117 64.0081 68.0106 74.146 68.06C77.7738 68.1094 81.4016 68.1094 84.9797 68.1588C99.1927 68.3565 113.555 68.9001 127.47 69.3942C129.706 69.4931 131.992 69.5425 134.228 69.6413L136.763 45.1302H10.7343L12.8215 65.2926Z" fill="#5F3617"/>
<path d="M47.6084 90.2977C62.368 90.2483 77.078 89.4576 91.8376 89.2106C105.504 88.9635 119.17 89.7542 132.837 90.5943L134.725 72.2603C131.892 72.1615 129.06 72.0627 126.227 71.9638C112.064 71.4202 97.9005 70.8766 83.7372 70.7284C69.7727 70.5801 55.8082 70.6295 41.8437 69.8883C32.004 69.3941 22.2139 68.6528 12.4238 67.8127L14.8092 90.9896C25.6926 90.0507 36.6257 90.3472 47.6084 90.2977Z" fill="#B85C17"/>
<path d="M14.8093 91.6815C14.4614 91.6815 14.1632 91.4344 14.1632 91.0885L11.7778 67.9117C11.7778 67.714 11.8275 67.5163 11.9766 67.3681C12.1257 67.2198 12.3245 67.1704 12.5233 67.1704C23.2575 68.1093 32.8985 68.8012 41.9431 69.246C53.1247 69.839 64.5547 69.9378 75.5872 69.9872C78.3204 69.9872 81.0537 70.0366 83.8367 70.0366C98.3975 70.1849 113.257 70.7285 126.327 71.2721C129.159 71.3709 131.992 71.4697 134.824 71.5686C135.023 71.5686 135.172 71.6674 135.321 71.8157C135.421 71.9639 135.52 72.1616 135.471 72.3098L133.582 90.6438C133.532 90.9897 133.234 91.2862 132.886 91.2368C118.972 90.3967 105.405 89.6554 91.9371 89.8531C85.7748 89.9519 79.5131 90.1496 73.4999 90.3473C65.0517 90.5943 56.3052 90.8909 47.7079 90.9403H45.9188C44.2788 90.9403 42.6886 90.9403 41.0486 90.9403C39.4087 90.9403 37.8184 90.9403 36.2281 90.9403C29.4198 90.9403 22.1642 91.0391 15.0081 91.6815C14.859 91.6815 14.859 91.6815 14.8093 91.6815ZM13.1693 68.5541L15.4056 90.2978C22.4127 89.7048 29.4695 89.606 36.079 89.606C37.719 89.606 39.3093 89.606 40.9492 89.606C42.5892 89.606 44.1795 89.606 45.8194 89.606H47.6085C56.2058 89.606 64.9026 89.3095 73.3509 89.013C79.4137 88.8153 85.6754 88.6176 91.8377 88.5188C105.156 88.2717 118.524 89.013 132.24 89.8531L134.029 72.8534C131.445 72.7546 128.811 72.6558 126.227 72.5569C113.107 72.0628 98.2484 71.4697 83.7373 71.3215C81.004 71.2721 78.2707 71.2721 75.4878 71.2721C64.4553 71.1732 53.0253 71.1238 41.7941 70.5308C32.9482 70.1355 23.6054 69.4436 13.1693 68.5541Z" fill="#5F3617"/>
<path opacity="0.3" d="M128.613 83.8243C122.599 83.9725 116.586 84.6644 110.573 84.7138C107.293 84.7632 104.063 84.7632 100.783 85.2574C98.0994 85.6527 95.4655 86.1963 92.7819 86.4434C86.7688 86.987 80.5568 86.2457 74.5436 85.9492C61.8215 85.3562 49.2485 83.9725 36.5264 84.0713C33.4452 84.1208 30.215 84.4667 27.1339 84.0713C25.5436 83.8737 24.1521 83.8737 22.6115 84.3678C21.8661 84.6149 21.0213 84.9114 20.2262 84.9609C18.1389 85.0597 16.6481 84.0219 15.1075 82.7865C14.7099 82.49 14.3124 82.1935 13.9148 81.897L14.859 91.0392C25.7424 90.0509 36.6754 90.3474 47.6582 90.3474C62.4178 90.298 77.1278 89.5073 91.8874 89.2602C105.554 89.0131 119.22 89.8038 132.886 90.6439L133.582 83.9725C131.892 83.8243 130.253 83.7748 128.613 83.8243Z" fill="#703405"/>
<path d="M89.2038 91.1875C74.8915 91.5335 60.6288 92.2253 46.3164 92.1759C35.8306 92.1265 25.3945 91.9288 15.0578 92.8677L17.5923 117.132H130.153L132.688 92.4724C118.176 91.6323 103.715 90.8416 89.2038 91.1875Z" fill="#B85C17"/>
<path d="M130.054 117.823H17.5426C17.1947 117.823 16.8965 117.576 16.8965 117.23L14.3621 92.9664C14.3621 92.7688 14.4118 92.6205 14.5111 92.4723C14.6105 92.324 14.8093 92.2252 14.9584 92.2252C22.0649 91.5828 29.1714 91.4839 35.1846 91.4839C37.4209 91.4839 39.6572 91.4839 41.8935 91.5333C43.3844 91.5333 44.8255 91.5333 46.3164 91.5333H47.7079C56.7525 91.5333 65.9959 91.2368 74.8915 90.9403C79.6126 90.7921 84.4331 90.6438 89.2535 90.4956C91.6389 90.4462 94.074 90.3967 96.5588 90.3967C109.032 90.3967 121.755 91.0886 132.688 91.7804C132.886 91.7804 133.035 91.8793 133.135 92.0275C133.234 92.1758 133.284 92.324 133.284 92.5217L130.749 117.181C130.7 117.576 130.402 117.823 130.054 117.823ZM18.1389 116.489H129.457L131.892 93.1147C121.109 92.4723 108.685 91.7804 96.5091 91.7804C94.0243 91.7804 91.5892 91.8298 89.2038 91.8793C84.4331 91.9781 79.5629 92.1263 74.8915 92.324C65.9959 92.6205 56.7525 92.917 47.6582 92.917H46.2667C44.7759 92.917 43.3347 92.917 41.8438 92.917C39.6075 92.917 37.3712 92.917 35.1349 92.917C29.3702 92.917 22.5619 93.0159 15.7038 93.5595L18.1389 116.489Z" fill="#5F3617"/>
<path opacity="0.4" d="M127.271 106.408C114.251 107.05 101.379 104.481 88.359 104.283C75.3387 104.085 62.1197 103.986 49.0994 104.728C42.8377 105.074 36.3276 106.507 30.0659 105.864C27.0345 105.568 24.003 104.925 20.9716 105.074C19.3813 105.172 17.7911 105.321 16.2505 105.42L17.4929 117.181H130.054L131.197 106.21C129.905 106.26 128.613 106.358 127.271 106.408Z" fill="#E59051"/>
<path opacity="0.3" d="M125.78 65.688C118.972 65.8856 112.114 67.0717 105.256 66.9728C102.075 66.9234 98.9442 66.4787 95.7637 66.3304C92.5334 66.1327 89.3529 66.4787 86.1227 66.4787C79.4138 66.4292 72.7545 66.0833 66.0456 66.3304C59.5852 66.5775 53.1247 66.2316 46.6643 65.8362C39.8063 65.3915 32.9979 64.6996 26.1399 64.4031C22.7109 64.2549 19.431 64.3043 16.0517 64.7985C14.7099 64.9961 13.4178 65.1444 12.1257 65.1444L12.2251 65.9351C22.5121 66.8246 32.7992 67.6153 43.1359 68.1094C57.1004 68.8013 71.0649 68.7024 85.0294 68.9001C99.1927 69.0978 113.356 69.592 127.519 70.1356C130.004 70.2344 132.439 70.3332 134.924 70.3826L135.421 65.5397C132.191 65.5891 129.01 65.5891 125.78 65.688Z" fill="#703405"/>
<g opacity="0.7">
<path opacity="0.7" d="M27.6805 58.9175C26.3885 59.0657 25.1461 59.1646 23.9037 59.4117C22.4625 59.6587 21.071 60.1035 19.7292 60.6471C22.7607 60.3012 25.8418 59.8564 28.8235 60.1035C30.7617 60.2518 28.9229 61.7837 28.0284 62.2285C27.0842 62.7226 26.0406 63.0191 24.997 63.3156C22.9595 63.9087 20.9716 64.6993 18.9341 65.0947C18.6359 65.1441 18.3377 65.7371 18.8347 65.6877C21.6674 65.3912 24.7982 64.3534 27.5315 63.3651C28.7242 62.9697 31.2089 61.6849 31.1096 60.0541C31.0102 59.1646 29.569 58.9175 27.6805 58.9175Z" fill="#E59051"/>
<path opacity="0.7" d="M40.7008 58.1763C38.7627 60.4001 34.9858 61.5861 32.3519 62.6733C30.1156 63.6122 27.8296 64.3535 25.5933 65.2924C28.5254 64.4029 31.4077 63.2663 34.2901 62.278C35.5822 61.8332 36.8743 61.339 38.216 60.8943C40.0051 60.1036 41.7941 59.0658 42.3408 57.3856C43.285 54.4206 35.5325 54.6677 34.3398 54.6677C27.929 54.7171 21.4686 54.2723 15.2069 55.8043C15.0081 55.8537 14.7597 56.2984 15.1075 56.249C20.6238 55.3595 26.0406 55.9525 31.6065 56.0019C32.6998 56.0514 42.4402 56.1996 40.7008 58.1763Z" fill="#E59051"/>
<path opacity="0.7" d="M23.6552 50.2202C23.4564 50.2202 23.1582 50.665 23.4564 50.665C28.426 50.7638 33.3459 51.4062 38.2657 52.2463C43.1359 53.0864 48.1552 53.7783 52.926 54.9643C55.858 55.7056 50.5903 58.0282 49.8448 58.3247C47.9564 59.0165 46.2171 60.0543 44.428 60.9438C40.4027 62.97 35.8803 63.4147 31.855 65.342C35.1349 64.5019 38.5142 63.81 41.7941 63.0688C43.8317 62.2781 45.7698 61.1909 47.7576 60.252C50.0436 59.1648 55.0132 58.4235 55.6095 55.4091C56.2059 52.3452 26.786 50.2202 23.6552 50.2202Z" fill="#E59051"/>
<path opacity="0.7" d="M71.4128 54.4206C70.7668 53.4817 68.928 53.2346 67.8844 52.8887C65.5984 52.098 63.213 51.4556 60.8276 50.912C56.0071 49.7259 51.0873 48.8364 46.1674 48.2434C45.9686 48.2434 45.7201 48.5893 45.9189 48.6388C50.6897 49.7259 55.5102 50.5166 60.2313 51.7026C62.567 52.2956 64.9027 53.0369 67.1887 53.8276C68.0832 54.1241 68.9777 54.47 69.8723 54.8159C70.7171 55.1125 67.5863 56.6444 67.139 56.8915C63.1136 58.9176 58.8398 60.4495 54.7151 62.3274C52.2303 63.464 49.6958 64.403 47.1116 65.1442C45.1238 65.7372 43.0365 65.8855 40.999 66.3797C43.9808 66.5279 47.2607 65.6384 50.1927 64.9465C52.8266 64.0076 55.4108 62.871 57.9453 61.685C60.9767 60.2519 64.1572 59.1647 67.1887 57.781C68.6299 57.1386 70.6177 56.3479 71.4128 54.8654C71.5619 54.7171 71.5122 54.5689 71.4128 54.4206Z" fill="#E59051"/>
<path opacity="0.7" d="M123.146 50.6155C117.133 51.1591 111.12 52.098 105.156 52.9875C98.994 53.9265 92.8317 54.3712 86.7191 55.2607C81.1035 56.0514 75.9351 58.4235 70.7668 60.5484C66.2942 62.3769 60.8773 64.996 55.9078 65.6384C55.1126 65.7867 54.3175 65.9843 53.6714 66.3303C58.0447 66.6762 62.3682 64.7983 66.4433 63.4641C72.4067 61.5368 77.9727 58.4235 84.0852 56.9409C90.0984 55.5078 96.3601 55.409 102.423 54.3218C109.281 53.0369 116.238 52.4439 123.096 51.2085C123.345 51.1591 123.593 50.6155 123.146 50.6155Z" fill="#E59051"/>
<path opacity="0.7" d="M130.054 53.5311C118.276 53.1852 106.399 56.8421 95.0183 59.5107C84.6318 61.9321 74.2454 65.2431 63.6106 66.6762C63.0639 66.8739 62.4676 67.0716 61.9209 67.3186C72.2079 66.4291 82.1968 63.4147 92.2353 61.092C104.411 58.2258 117.232 54.1736 129.805 54.0747C130.054 53.9759 130.352 53.5311 130.054 53.5311Z" fill="#E59051"/>
<path opacity="0.7" d="M132.936 54.5689C130.849 55.409 128.662 55.3596 126.476 55.7549C124.19 56.1503 121.953 56.6444 119.717 57.2375C115.393 58.3741 111.269 60.3508 107.045 61.8333C98.8448 64.6501 90.0487 66.1326 81.4016 67.3186C81.2525 67.3681 81.1034 67.4175 80.9543 67.4669C79.3144 67.9611 77.5253 68.0599 75.8854 68.5047C80.5568 68.307 85.3773 67.2692 89.9493 66.4785C95.2667 65.5396 100.634 64.5513 105.802 62.9699C110.821 61.4379 115.592 59.1647 120.661 57.7316C124.587 56.6444 129.209 56.6939 132.936 55.0137C133.234 54.8654 133.284 54.4206 132.936 54.5689Z" fill="#E59051"/>
<path opacity="0.7" d="M133.185 57.2869C122.202 59.8566 111.666 64.0077 100.733 66.6763C101.777 66.528 102.82 66.3303 103.814 66.2315C113.654 63.7112 123.196 60.252 133.036 57.8799C133.383 57.8305 133.632 57.1881 133.185 57.2869Z" fill="#E59051"/>
<path opacity="0.7" d="M132.837 60.1531C127.122 61.438 121.407 63.4641 116.139 66.1327C117.133 66.0338 118.077 65.8361 119.071 65.6385C123.544 63.81 127.967 61.8827 132.737 60.6473C132.986 60.5979 133.185 60.1037 132.837 60.1531Z" fill="#E59051"/>
<path opacity="0.7" d="M130.75 73.743C111.269 72.8535 91.7383 74.4843 72.2576 73.5947C62.3682 73.15 52.5284 72.4087 42.6887 71.7663C37.6694 71.4698 32.6004 71.0745 27.5314 71.0745C25.5933 71.0745 23.6055 71.0745 21.717 71.3215C19.431 71.5686 17.2444 72.2605 14.9087 71.8157C14.6603 71.7663 14.3621 72.2605 14.6603 72.3099C18.2383 73.1006 22.3134 71.8651 25.9412 71.8157C30.9605 71.7169 35.9797 72.1616 40.9493 72.5076C50.8388 73.15 60.6785 73.8913 70.568 74.3854C80.1095 74.8302 89.7008 74.3854 99.2424 74.6819C104.46 74.8302 109.629 74.5337 114.797 74.4843C119.966 74.4348 125.184 74.6325 130.352 74.3854C130.799 74.3854 131.197 73.743 130.75 73.743Z" fill="#E59051"/>
<path opacity="0.7" d="M64.9027 77.2022C62.8651 75.7196 59.5355 76.0161 57.1501 75.7196C52.5284 75.176 47.8073 75.3243 43.1359 75.3243C34.5386 75.3243 26.0903 74.4348 17.5923 76.3126C17.3438 76.3621 17.145 76.8562 17.4929 76.7574C25.4442 75.2749 33.4949 75.8185 41.5457 76.0656C45.3722 76.1644 49.1491 76.115 52.9757 76.2138C54.715 76.2632 56.4047 76.4609 58.144 76.6586C58.9889 76.7574 59.8834 76.8562 60.7282 76.9057C60.8276 76.9057 63.859 77.5975 63.3124 77.894C60.6785 79.1789 56.9513 78.8824 54.1187 79.2777C50.2424 79.8213 46.4158 80.5131 42.5396 81.1062C33.9422 82.391 25.5436 81.798 16.8966 82.2922C16.5984 82.2922 16.1014 82.984 16.5984 82.984C25.6927 83.1817 34.6379 83.0334 43.6329 81.6992C48.1055 81.0073 52.6278 79.9695 57.1998 79.673C59.784 79.4754 62.567 79.3765 64.7536 77.7952C64.8033 77.7458 65.1014 77.3998 64.9027 77.2022Z" fill="#E59051"/>
<path opacity="0.7" d="M40.4524 77.1527C32.2029 77.0045 23.9534 76.5103 15.7536 77.5975C15.4554 77.6469 15.2069 78.1905 15.6542 78.1411C22.711 77.4492 29.7678 77.6469 36.8246 77.8446C32.8489 78.6352 28.8733 79.3271 24.8479 79.4753C21.6674 79.6236 17.1451 78.3387 14.4118 80.2166C14.1136 80.4143 14.1136 81.0567 14.5609 80.8096C16.5984 79.7224 19.7789 80.266 22.0152 80.3154C23.7049 80.3154 25.3946 80.266 27.0345 80.1178C31.4574 79.6236 35.8804 78.8329 40.2039 77.894C40.5021 77.894 40.999 77.1527 40.4524 77.1527Z" fill="#E59051"/>
<path opacity="0.7" d="M129.457 85.9491C120.462 85.3066 111.318 85.5043 102.274 85.9985C92.6826 86.5421 83.0416 85.3066 73.4006 85.3066C55.0132 85.3066 36.5264 86.2456 18.2384 88.0246C17.8905 88.074 17.5923 88.7659 18.0893 88.7164C36.3276 87.3328 54.6156 86.5421 72.9037 86.3938C82.0974 86.3444 91.2414 87.4316 100.385 87.2339C110.126 86.9868 119.717 87.0363 129.01 86.7892C129.507 86.7892 130.054 85.9985 129.457 85.9491Z" fill="#E59051"/>
<path opacity="0.7" d="M132.936 80.019C124.935 80.5132 116.586 79.7719 108.536 78.833C110.921 78.6847 113.306 78.7341 115.642 78.5365C119.966 78.1411 124.239 77.301 128.563 78.3388C128.861 78.3882 129.358 77.8446 128.96 77.7458C128.861 77.6964 128.712 77.6964 128.613 77.647C128.712 77.4987 128.762 77.3505 128.613 77.2516C124.239 75.7691 119.618 75.9668 115.046 75.9668C108.784 75.9668 102.572 75.9174 96.3104 76.115C90.7941 76.3127 85.2779 76.7575 79.7617 77.2516C76.7799 77.4987 72.9037 77.054 70.4686 79.0801C70.2698 79.2777 70.1704 79.6237 70.4189 79.7719C73.5 81.7486 78.072 81.8475 81.6004 82.391C87.3154 83.2311 93.0305 83.3794 98.7952 83.2806C104.212 83.1817 109.629 82.8852 115.046 82.9841C120.264 83.0829 125.432 83.1817 130.551 82.1934C130.948 82.144 131.246 81.3533 130.7 81.4521C125.631 82.2428 120.562 82.144 115.443 82.0945C110.026 81.9957 104.61 82.2922 99.1927 82.391C94.2232 82.4899 89.3033 82.3911 84.3834 81.798C80.5071 81.3533 75.14 81.1556 71.5619 79.2283C74.1958 77.7458 79.3641 78.24 82.0974 77.9929C87.5142 77.5481 92.9808 77.1528 98.3976 76.9551C103.417 76.7574 108.436 76.708 113.455 76.7575C117.481 76.8069 121.606 76.4609 125.581 77.1528C123.047 76.9551 120.512 77.2022 117.978 77.4493C113.555 77.9435 108.983 77.4493 104.659 78.3882C104.311 78.4871 103.715 79.2777 104.361 79.3272C109.132 79.9202 113.952 80.1178 118.723 80.4638C123.395 80.8097 128.066 81.3039 132.737 80.6614C133.036 80.6614 133.383 80.019 132.936 80.019Z" fill="#E59051"/>
<path opacity="0.7" d="M126.525 91.4343C108.784 92.3238 91.0426 93.5593 73.3012 94.8441C63.213 95.5854 53.6714 95.1901 43.6329 93.8558C39.0609 93.2134 34.4889 92.7192 29.9168 92.6203C25.6927 92.5215 21.3195 93.5099 17.145 93.2134C16.9463 93.2134 16.6978 93.6087 16.9463 93.6581C21.0213 94.35 25.4442 93.411 29.569 93.411C34.1907 93.4604 38.7627 94.0535 43.285 94.6959C52.429 95.9313 61.2749 96.5738 70.4686 95.9313C87.5639 94.6465 104.659 93.8064 121.755 92.6698C123.345 92.225 124.935 91.8297 126.525 91.4343Z" fill="#E59051"/>
<path opacity="0.7" d="M45.9189 98.6987C43.285 96.6726 39.5578 96.4749 36.3276 96.2278C30.6623 95.8325 24.9473 95.6843 19.282 95.9313C19.0335 95.9313 18.7353 96.4255 19.0335 96.4255C26.6369 96.8209 35.1349 96.2278 42.4899 98.3528C45.4219 99.1929 42.7384 100.181 41.1978 100.626C38.9118 101.268 36.6258 101.96 34.3398 102.603C29.6684 103.937 25.0467 104.53 20.1765 103.986C19.8783 103.937 19.3814 104.579 19.7789 104.678C24.4503 106.062 29.5193 104.876 34.141 103.64C36.8246 102.949 39.5081 102.158 42.1917 101.367C43.5832 100.972 44.8256 100.527 45.8195 99.44C45.9189 99.3412 46.1674 98.8964 45.9189 98.6987Z" fill="#E59051"/>
<path opacity="0.7" d="M32.4016 98.0564C30.3144 97.3646 28.1278 97.5623 25.9412 97.6117C23.5558 97.6117 21.2201 97.1669 18.8844 97.8588C18.5862 97.9576 18.2383 98.6494 18.7353 98.5506C20.7231 98.0564 22.7607 98.4518 24.7982 98.5012C26.8854 98.5506 29.072 98.3035 31.1095 98.8471C29.9168 99.786 28.1775 100.181 26.786 100.577C24.6988 101.17 22.7607 101.812 20.574 101.911C20.1765 101.911 19.5304 102.751 20.1765 102.85C22.7607 103.097 25.3945 102.01 27.7799 101.269C29.5193 100.774 31.2586 100.132 32.4513 98.6989C32.6004 98.5012 32.6998 98.1058 32.4016 98.0564Z" fill="#E59051"/>
<path opacity="0.7" d="M114.996 101.565C118.922 100.527 122.848 99.5388 126.923 99.0941C123.693 98.5999 120.512 99.5882 117.332 100.132C112.213 100.972 106.945 100.972 101.777 100.626C92.3347 99.9836 83.3895 100.132 74.0467 101.713C63.9584 103.443 54.2181 106.26 43.9311 106.853C39.2597 107.1 34.638 106.606 29.9666 106.111C26.786 105.815 22.6613 105.321 19.8286 107.05C19.4808 107.248 19.5802 107.792 20.0274 107.544C23.8043 105.42 30.3641 107.149 34.4392 107.643C38.7627 108.137 43.1359 108.088 47.4595 107.693C56.4047 106.951 65.0518 104.431 73.8479 102.85C82.9919 101.219 92.0862 101.021 101.33 101.763C105.405 102.109 109.48 102.059 113.555 101.713C113.952 101.713 114.449 101.614 114.996 101.565Z" fill="#E59051"/>
<path opacity="0.7" d="M123.494 95.536C124.538 95.2889 125.581 95.0418 126.625 94.8936C120.959 95.0418 115.294 94.8441 109.629 95.2889C102.224 95.8325 94.9189 96.9691 87.4645 97.1668C80.4574 97.3644 73.8479 98.0069 66.9899 99.4894C63.9088 100.181 60.7779 100.873 57.6968 101.713C56.5538 102.01 55.3611 102.405 54.1187 102.702C53.8702 102.8 53.6714 102.85 53.423 102.949C52.5284 103.295 51.5345 103.591 50.4909 103.789C54.2181 104.085 58.4919 102.356 61.8712 101.614C69.7232 99.8847 77.426 98.7975 85.5264 98.6493C92.3347 98.501 98.8946 97.7598 105.653 97.0679C109.629 96.6726 113.654 96.5737 117.63 96.4749C119.667 96.2772 121.605 95.9807 123.494 95.536Z" fill="#E59051"/>
<path opacity="0.7" d="M126.724 103.443C125.034 103.739 123.245 103.789 121.506 103.986C118.723 104.332 115.94 104.678 113.157 105.172C108.039 106.013 102.821 105.963 97.7018 106.606C92.285 107.297 87.1663 108.829 81.6501 108.829C79.0659 108.829 76.5315 108.533 73.9473 108.731C71.1643 108.978 68.5304 109.669 65.7972 110.114C65.499 110.164 65.1014 110.855 65.5487 110.806C67.8844 110.658 70.1207 109.966 72.4564 109.719C75.786 109.373 79.0659 109.669 82.3956 109.818C87.4645 110.015 92.4341 108.78 97.4037 108.039C102.97 107.199 108.585 107.297 114.101 106.26C114.598 106.161 115.145 106.062 115.642 105.963C119.369 105.074 123.146 104.629 126.724 103.443Z" fill="#E59051"/>
</g>
<path opacity="0.3" d="M23.0588 44.7349L27.5315 108.187L118.326 105.963L126.128 47.4034L23.0588 44.7349ZM117.729 60.3508C117.729 60.3508 115.89 64.3536 115.394 64.6996C114.897 65.0455 117.232 67.714 117.232 67.714L76.7302 70.3826L117.381 72.211L117.53 74.5337C117.53 74.5337 115.692 77.6964 115.195 77.6964C114.698 77.6964 115.543 87.1846 115.543 87.1846L112.511 88.8648L79.215 91.6816L116.537 92.324L115.443 96.0797C113.754 96.1786 112.064 96.228 110.424 96.6727C110.126 96.7716 110.126 97.1175 110.325 97.2658C111.567 98.1553 113.008 98.7483 114.499 99.193L113.803 101.318L32.6501 103.987L31.9047 99.9343C32.4513 99.539 32.998 99.1436 33.5446 98.6989C33.6937 98.5506 33.644 98.2541 33.4949 98.1553C33.0974 97.9576 32.6998 97.7599 32.3519 97.4634L32.8489 94.5972L63.6106 89.952L32.6501 89.606C32.6501 89.606 32.2525 83.9724 31.9047 78.6353C32.7495 78.0917 33.644 77.5976 34.4889 77.1034C34.6876 77.0045 34.6876 76.7575 34.5386 76.5598C33.6937 75.4726 32.6501 74.5831 31.6065 73.6441C31.5071 70.9756 31.4574 69.0977 31.6065 69.1471C32.1035 69.2954 62.2191 68.653 61.7221 68.5047C61.2252 68.3565 55.0132 68.3565 43.6329 66.6763C32.2526 64.9961 31.4077 64.9961 31.4077 64.9961L32.7495 62.8217L29.9168 61.6357C29.9168 61.6357 29.9168 61.6357 29.4199 60.7956C28.9229 59.9555 31.7556 57.4846 31.6065 57.1387C31.4574 56.7928 30.2647 54.4701 30.2647 54.4701V50.665L32.2525 52.3452L42.2911 52.9876C42.2911 52.9876 67.2383 52.4934 67.7353 52.8393C68.282 53.1853 82.7931 53.6794 83.5882 53.6794C84.4331 53.6794 110.175 53.3335 110.672 53.037C111.169 52.6911 119.021 52.6911 119.021 52.6911L117.729 60.3508Z" fill="#703405"/>
<path d="M6.55988 35.7407L15.7039 117.477H31.5071L26.637 48.441L6.55988 35.7407Z" fill="#BA6C0F"/>
<path d="M31.5071 118.17H15.7039C15.356 118.17 15.0578 117.923 15.0578 117.577L5.91381 35.791C5.86411 35.5439 6.0132 35.2968 6.21198 35.1485C6.41076 35.0003 6.70894 35.0003 6.90772 35.1485L26.9848 47.8983C27.1836 47.9971 27.283 48.1948 27.283 48.3925L32.1532 117.429C32.1532 117.626 32.1035 117.775 31.9544 117.923C31.9047 118.071 31.7059 118.17 31.5071 118.17ZM16.3002 116.836H30.8114L25.9909 48.8372L7.40468 37.0264L16.3002 116.836Z" fill="#743C25"/>
<path d="M141.732 36.0864L130.998 117.477H115.195L122.599 49.3798L141.732 36.0864Z" fill="#BA6C0F"/>
<path d="M130.998 118.169H115.145C114.946 118.169 114.797 118.07 114.648 117.972C114.499 117.823 114.449 117.626 114.499 117.477L121.904 49.3799C121.904 49.1822 122.003 49.034 122.202 48.8857L141.335 35.5924C141.533 35.4441 141.832 35.4441 142.08 35.5924C142.329 35.7406 142.428 35.9877 142.378 36.2348L131.694 117.576C131.644 117.922 131.346 118.169 130.998 118.169ZM115.94 116.835H130.451L140.887 37.5197L123.245 49.7258L115.94 116.835Z" fill="#743C25"/>
<path d="M30.4138 106.111L15.7039 117.477H130.054L116.387 103.789L30.4138 106.111Z" fill="#BA6C0F"/>
<path d="M130.054 118.169H15.7038C15.4057 118.169 15.1572 117.972 15.0578 117.725C14.9584 117.478 15.0578 117.181 15.2566 116.983L29.9665 105.617C30.0659 105.519 30.215 105.469 30.3641 105.469L116.387 103.146C116.586 103.146 116.735 103.196 116.884 103.344L130.551 117.033C130.749 117.23 130.799 117.527 130.7 117.774C130.6 117.972 130.352 118.169 130.054 118.169ZM17.642 116.835H128.463L116.139 104.481L30.6623 106.803L17.642 116.835Z" fill="#743C25"/>
<path d="M6.65918 35.6418L26.7363 48.441L122.947 49.5282L141.683 35.6418H6.65918Z" fill="#BA6C0F"/>
<path d="M122.948 50.2201L26.7373 49.1329C26.5882 49.1329 26.4888 49.0835 26.3894 49.0341L6.26262 36.235C6.01415 36.0867 5.91475 35.7902 5.96445 35.4937C6.06384 35.1972 6.31232 34.9995 6.6105 34.9995H141.634C141.932 34.9995 142.18 35.1972 142.28 35.4443C142.379 35.7408 142.28 36.0373 142.031 36.1855L123.296 50.0719C123.197 50.1707 123.097 50.2201 122.948 50.2201ZM26.9361 47.7987L122.7 48.8858L139.646 36.3338H8.94619L26.9361 47.7987Z" fill="#743C25"/>
<path opacity="0.3" d="M141.683 35.6418H6.65919L7.30524 36.0372L6.6095 35.7407L15.7038 117.477H131.048L141.732 36.0866L141.683 35.6418ZM15.8032 38.1621C19.6795 37.668 23.6551 38.3598 27.5811 38.1127C31.6065 37.8656 35.5821 37.8162 39.6572 37.9645C47.7576 38.2116 55.7586 38.5081 63.859 38.3104C72.2079 38.1127 80.6065 37.668 88.9553 37.5691C93.1298 37.5197 97.3042 37.5197 101.528 37.668C104.56 37.7668 107.691 37.7668 110.722 38.0139C112.461 37.9645 114.201 37.7668 115.94 37.668C122.5 37.2726 129.159 38.261 135.669 37.075C135.968 37.0255 136.266 37.3715 135.968 37.6185C135.868 37.7174 135.719 37.8162 135.62 37.9151C135.62 37.9645 135.62 38.0139 135.57 38.0633C134.974 39.1505 133.781 39.6447 132.638 40.04C132.588 40.0894 132.489 40.0894 132.439 40.1388C131.246 40.8307 130.103 41.4731 129.01 42.3132C127.022 43.7957 124.985 45.2783 122.649 46.1678C121.804 46.6125 121.158 46.6125 120.413 46.5137C120.363 46.5137 120.313 46.5631 120.264 46.5631C101.876 46.5631 83.4391 46.9585 65.0517 46.3655C55.9574 46.069 46.8631 45.7725 37.7687 45.8713C33.8428 45.9207 29.6186 46.4149 25.8418 44.9818C22.86 43.8452 20.1764 42.165 17.6916 40.2377C16.9462 39.7929 16.2505 39.2987 15.6044 38.7057C15.3063 38.5081 15.505 38.2116 15.8032 38.1621ZM122.599 49.5282L116.686 103.986L116.437 103.739L30.7616 106.062L26.6369 48.441L26.6866 48.4904L122.599 49.5282ZM16.8965 112.783C16.2505 110.411 16.3499 107.841 16.0517 105.419C15.7038 102.405 15.2566 99.3905 14.9087 96.3266C14.3123 90.2483 13.5669 84.2687 12.8215 78.1904C12.076 72.2108 11.6785 66.1819 11.0821 60.2024C10.7839 57.1385 10.3367 54.0746 9.79002 51.0107C9.64094 50.0718 9.44215 49.1328 9.34276 48.1939C8.69672 45.8219 8.15007 43.4004 8.05067 40.8801C8.05067 40.5836 8.34885 40.4848 8.54763 40.5836C11.8772 41.9673 14.5111 44.537 17.4432 46.6125C19.4807 48.0457 21.9655 49.627 22.9594 52.0485C24.2018 55.2606 24.1521 59.0164 24.2018 62.4262C24.2515 66.2807 24.5497 70.0365 24.9472 73.8911C25.3448 78.141 25.8418 82.3909 26.0405 86.6408C26.2393 90.5942 26.289 94.5476 26.6866 98.501C26.9848 101.367 28.6247 104.975 25.8418 107.149C24.5994 108.088 23.1582 108.681 21.8661 109.521C20.3255 110.559 18.8843 111.696 17.4432 112.832C17.2941 113.079 16.9959 113.079 16.8965 112.783ZM123.544 114.611C119.717 114.858 115.89 115.155 112.064 114.611C111.964 114.611 111.865 114.512 111.815 114.413C105.256 114.265 98.7454 114.413 92.1856 114.463C83.8864 114.562 75.4878 113.919 67.2383 114.858C62.9148 115.352 58.79 115.649 54.4168 115.254C50.4908 114.908 46.6643 114.858 42.7383 115.254C38.6632 115.649 34.5882 115.847 30.4635 115.797C27.6308 115.797 24.4006 116.192 21.717 115.056C21.5182 114.957 21.4685 114.661 21.6673 114.512C24.5 112.338 27.432 110.312 30.1653 108.088C30.1653 107.94 30.215 107.792 30.4138 107.792C30.4635 107.792 30.5628 107.792 30.6125 107.792C30.7119 107.693 30.861 107.693 30.9604 107.742C33.8925 107.347 37.1227 107.792 40.0547 107.841C43.7322 107.94 47.36 107.989 51.0375 107.989C58.0943 107.989 65.2008 107.792 72.2079 107.001C79.4635 106.161 86.5202 106.161 93.7758 106.408C97.503 106.556 101.18 106.655 104.858 106.408C108.237 106.21 111.865 106.605 115.095 105.568C115.195 105.518 115.344 105.568 115.393 105.667C116.835 107.1 118.027 108.78 119.518 110.164C120.86 111.448 122.45 112.486 123.643 113.969C123.941 114.265 123.842 114.562 123.544 114.611ZM139.595 40.04C137.955 45.9701 137.757 52.2462 136.713 58.2751C135.669 64.4029 134.526 70.4812 133.582 76.609C132.638 82.8356 131.843 89.1117 130.899 95.3383C130.402 98.6493 129.706 101.911 129.507 105.271C129.358 107.841 129.457 110.46 128.811 112.98C128.762 113.227 128.414 113.277 128.265 113.129C125.78 110.806 123.295 108.187 121.307 105.37C120.512 104.233 119.319 102.85 119.021 101.466C118.773 100.231 118.972 99.1434 119.17 97.9574C120.214 90.4954 120.711 82.9345 121.854 75.4724C122.251 72.7544 122.748 70.0365 123.245 67.2691C123.643 63.5628 124.09 59.9059 124.537 56.1996C124.736 54.4699 124.488 52.2956 125.034 50.6648C125.482 49.3799 126.674 48.5398 127.768 47.848C131.743 45.3771 135.371 42.5603 139.049 39.6447C139.297 39.4964 139.695 39.6941 139.595 40.04Z" fill="#7D4A08"/>
<path opacity="0.4" d="M131.147 46.5632C130.402 47.0574 129.656 47.5516 128.861 47.9963C128.016 48.4905 127.022 49.0341 126.327 49.7754L126.277 49.8248C127.171 48.9847 128.215 48.5399 129.209 47.8481C129.905 47.4528 130.551 47.008 131.147 46.5632Z" fill="#BA6C0F"/>
<path opacity="0.4" d="M116.537 38.3106C115.344 38.4094 114.201 38.5083 113.008 38.5577C114.052 38.5577 115.095 38.5577 116.139 38.5577C119.369 38.5083 122.55 38.3106 125.78 38.3106C122.699 38.2612 119.618 38.1129 116.537 38.3106Z" fill="#BA6C0F"/>
<path opacity="0.4" d="M106.25 38.6071C105.902 38.5577 105.554 38.5577 105.156 38.5083C104.51 38.4588 103.864 38.4588 103.268 38.4094C102.92 38.4094 102.572 38.4094 102.224 38.4588C101.131 38.5577 100.038 38.7553 98.9443 38.8048C101.379 38.6565 103.814 38.6071 106.25 38.6071Z" fill="#BA6C0F"/>
<path opacity="0.5" d="M110.722 54.3713C98.2982 55.0137 85.7749 55.2114 73.351 54.8654C66.5924 54.6678 59.8834 55.0137 53.1248 55.2114C49.6958 55.3102 46.4159 54.9149 43.0366 54.3218C39.6076 53.7288 36.2779 54.223 32.8489 54.3218C34.0416 54.6678 35.284 55.0137 36.5264 55.3102C38.6633 55.5079 40.8003 55.7055 42.9372 55.7055C43.0863 55.7055 43.1857 55.8044 43.2353 55.9032C45.4717 56.1997 47.708 56.5456 49.994 56.5456C57.1502 56.6939 64.3063 55.9526 71.4625 56.1503C83.4392 56.4962 95.2668 55.9526 107.194 55.2114C108.386 54.9148 109.529 54.6183 110.722 54.3713Z" fill="#BA6C0F"/>
<path opacity="0.5" d="M96.4098 73.7429C97.3043 73.644 98.1989 73.5452 99.0934 73.4464C96.0619 73.2487 92.9808 72.9522 90.0488 72.6063C83.3398 71.865 76.6806 72.3098 69.9717 72.5074C63.4615 72.7545 57.0011 72.5569 50.4909 72.0627C47.3104 71.8156 44.1796 71.6673 40.9991 71.6179C39.0609 71.6179 37.0234 72.1121 35.0853 71.9144C34.4889 71.9638 33.8429 72.0133 33.2962 71.9144C33.1968 71.9638 33.0974 72.0133 32.998 72.0627C34.4392 73.051 36.0792 72.9522 37.7688 72.9522C40.9991 72.9028 44.1796 73.1499 47.4098 73.397C54.3175 73.8911 61.1258 74.3359 68.0832 74.0888C73.9473 73.8911 79.8611 73.397 85.7252 73.6935C88.3591 73.6935 90.993 73.7429 93.6269 73.7429C94.5711 73.7429 95.4656 73.7429 96.4098 73.7429Z" fill="#BA6C0F"/>
<path opacity="0.5" d="M70.4189 93.263C63.859 93.6583 57.1998 93.9548 50.5903 94.1525C45.4219 94.3008 40.3033 94.0043 35.284 95.2397C38.4645 95.3385 41.6947 95.5362 44.8753 95.6845C53.2242 95.388 61.6227 95.2397 69.9716 94.5973C77.0781 94.0537 84.0355 94.1525 91.142 94.1031C94.8195 94.1031 98.5467 94.2514 102.224 94.2019C104.311 93.8066 106.399 93.4607 108.486 93.1147C108.834 93.0653 109.182 93.0159 109.529 92.9665C96.5588 92.9665 83.4392 92.4723 70.4189 93.263Z" fill="#BA6C0F"/>
<path opacity="0.3" d="M134.278 48.2434C134.278 49.4294 133.334 50.3683 132.141 50.3683C130.948 50.3683 130.004 49.4294 130.004 48.2434C130.004 47.0573 130.948 46.1184 132.141 46.1184C133.334 46.1184 134.278 47.0573 134.278 48.2434Z" fill="#494949"/>
<path d="M133.731 48.0952C133.731 49.0835 132.936 49.8742 131.942 49.8742C130.948 49.8742 130.153 49.0835 130.153 48.0952C130.153 47.1068 130.948 46.3162 131.942 46.3162C132.936 46.3656 133.731 47.1563 133.731 48.0952Z" fill="#533D2C"/>
<path d="M132.29 47.6998C132.29 48.0951 131.942 48.441 131.545 48.441C131.147 48.441 130.799 48.0951 130.799 47.6998C130.799 47.3044 131.147 46.9585 131.545 46.9585C131.942 46.9585 132.29 47.255 132.29 47.6998Z" fill="white"/>
<path opacity="0.3" d="M128.265 41.7698C128.265 42.9558 127.321 43.8948 126.128 43.8948C124.935 43.8948 123.991 42.9558 123.991 41.7698C123.991 40.5838 124.935 39.6448 126.128 39.6448C127.321 39.5954 128.265 40.5838 128.265 41.7698Z" fill="#494949"/>
<path d="M127.668 41.6216C127.668 42.6099 126.873 43.4006 125.879 43.4006C124.885 43.4006 124.09 42.6099 124.09 41.6216C124.09 40.6332 124.885 39.8425 125.879 39.8425C126.873 39.8425 127.668 40.6332 127.668 41.6216Z" fill="#533D2C"/>
<path d="M126.277 41.1768C126.277 41.5722 125.929 41.9181 125.532 41.9181C125.134 41.9181 124.786 41.5722 124.786 41.1768C124.786 40.7815 125.134 40.4355 125.532 40.4355C125.929 40.4355 126.277 40.7815 126.277 41.1768Z" fill="white"/>
<path opacity="0.3" d="M30.4138 112.98C30.4138 114.166 29.4696 115.105 28.2769 115.105C27.0842 115.105 26.14 114.166 26.14 112.98C26.14 111.794 27.0842 110.855 28.2769 110.855C29.4696 110.855 30.4138 111.794 30.4138 112.98Z" fill="#494949"/>
<path d="M29.8175 112.882C29.8175 113.87 29.0223 114.661 28.0284 114.661C27.0345 114.661 26.2394 113.87 26.2394 112.882C26.2394 111.893 27.0345 111.103 28.0284 111.103C29.0223 111.103 29.8175 111.893 29.8175 112.882Z" fill="#533D2C"/>
<path d="M28.4261 112.437C28.4261 112.832 28.0782 113.178 27.6806 113.178C27.2831 113.178 26.9352 112.832 26.9352 112.437C26.9352 112.041 27.2831 111.696 27.6806 111.696C28.0782 111.696 28.4261 112.041 28.4261 112.437Z" fill="white"/>
<path opacity="0.3" d="M23.9037 107.495C23.9037 108.681 22.9594 109.62 21.7667 109.62C20.574 109.62 19.6298 108.681 19.6298 107.495C19.6298 106.309 20.574 105.37 21.7667 105.37C22.9594 105.321 23.9037 106.309 23.9037 107.495Z" fill="#494949"/>
<path d="M23.3073 107.347C23.3073 108.335 22.5121 109.126 21.5182 109.126C20.5243 109.126 19.7292 108.335 19.7292 107.347C19.7292 106.359 20.5243 105.568 21.5182 105.568C22.5121 105.568 23.3073 106.359 23.3073 107.347Z" fill="#533D2C"/>
<path d="M21.8661 106.902C21.8661 107.297 21.5182 107.643 21.1207 107.643C20.7231 107.643 20.3752 107.297 20.3752 106.902C20.3752 106.507 20.7231 106.161 21.1207 106.161C21.5679 106.161 21.8661 106.507 21.8661 106.902Z" fill="white"/>
<path opacity="0.3" d="M18.1886 46.9091C18.1886 48.0952 17.2444 49.0341 16.0517 49.0341C14.859 49.0341 13.9148 48.0952 13.9148 46.9091C13.9148 45.7231 14.859 44.7842 16.0517 44.7842C17.2444 44.7842 18.1886 45.7231 18.1886 46.9091Z" fill="#494949"/>
<path d="M17.6419 46.8103C17.6419 47.7986 16.8468 48.5893 15.8529 48.5893C14.859 48.5893 14.0638 47.7986 14.0638 46.8103C14.0638 45.8219 14.859 45.0312 15.8529 45.0312C16.8468 45.0312 17.6419 45.8219 17.6419 46.8103Z" fill="#533D2C"/>
<path d="M16.2008 46.3655C16.2008 46.7609 15.853 47.1068 15.4554 47.1068C15.0578 47.1068 14.71 46.7609 14.71 46.3655C14.71 45.9702 15.0578 45.6243 15.4554 45.6243C15.853 45.6243 16.2008 45.9208 16.2008 46.3655Z" fill="white"/>
<path opacity="0.3" d="M25.0963 41.4238C25.0963 42.6098 24.1521 43.5487 22.9594 43.5487C21.7667 43.5487 20.8225 42.6098 20.8225 41.4238C20.8225 40.2378 21.7667 39.2988 22.9594 39.2988C24.1024 39.2988 25.0963 40.2378 25.0963 41.4238Z" fill="#494949"/>
<path d="M24.5 41.2756C24.5 42.264 23.7048 43.0546 22.7109 43.0546C21.717 43.0546 20.9219 42.264 20.9219 41.2756C20.9219 40.2873 21.717 39.4966 22.7109 39.4966C23.7048 39.546 24.5 40.3367 24.5 41.2756Z" fill="#533D2C"/>
<path d="M23.0588 40.8306C23.0588 41.226 22.7109 41.5719 22.3134 41.5719C21.9158 41.5719 21.5679 41.226 21.5679 40.8306C21.5679 40.4353 21.9158 40.0894 22.3134 40.0894C22.7109 40.1388 23.0588 40.4353 23.0588 40.8306Z" fill="white"/>
<path opacity="0.3" d="M126.625 106.309C126.625 107.495 125.681 108.434 124.488 108.434C123.295 108.434 122.351 107.495 122.351 106.309C122.351 105.123 123.295 104.184 124.488 104.184C125.631 104.184 126.625 105.123 126.625 106.309Z" fill="#494949"/>
<path d="M126.028 106.161C126.028 107.149 125.233 107.94 124.239 107.94C123.245 107.94 122.45 107.149 122.45 106.161C122.45 105.173 123.245 104.382 124.239 104.382C125.233 104.431 126.028 105.222 126.028 106.161Z" fill="#533D2C"/>
<path d="M124.587 105.765C124.587 106.161 124.239 106.507 123.842 106.507C123.444 106.507 123.096 106.161 123.096 105.765C123.096 105.37 123.444 105.024 123.842 105.024C124.239 105.024 124.587 105.321 124.587 105.765Z" fill="white"/>
<path opacity="0.3" d="M120.761 111.794C120.761 112.98 119.816 113.919 118.624 113.919C117.431 113.919 116.487 112.98 116.487 111.794C116.487 110.608 117.431 109.669 118.624 109.669C119.816 109.669 120.761 110.608 120.761 111.794Z" fill="#494949"/>
<path d="M120.164 111.696C120.164 112.684 119.369 113.475 118.375 113.475C117.381 113.475 116.586 112.684 116.586 111.696C116.586 110.707 117.381 109.917 118.375 109.917C119.369 109.917 120.164 110.707 120.164 111.696Z" fill="#533D2C"/>
<path d="M118.723 111.251C118.723 111.646 118.375 111.992 117.978 111.992C117.58 111.992 117.232 111.646 117.232 111.251C117.232 110.855 117.58 110.51 117.978 110.51C118.425 110.51 118.723 110.806 118.723 111.251Z" fill="white"/>
<g opacity="0.3">
<g opacity="0.3">
<path opacity="0.3" d="M9.19372 39.8423C9.04463 40.633 8.99493 41.4236 8.99493 42.2637C9.29311 44.8829 9.98885 47.4526 10.7343 49.9729C10.2373 46.5631 9.74037 43.2027 9.19372 39.8423Z" fill="#E59051"/>
<path opacity="0.3" d="M17.8408 112.289C18.1887 110.213 18.5862 108.137 18.8844 106.012C19.0832 102.207 19.282 98.4516 19.1826 94.6464C19.0335 88.321 17.7414 82.1438 16.5487 75.9172C15.356 69.8388 14.4615 63.7604 13.5173 57.6327C13.0203 54.5688 12.0761 51.6037 11.2313 48.6387C11.5294 50.6648 11.8276 52.7403 12.1258 54.7665C12.2749 55.4089 12.424 56.1007 12.573 56.7926C13.716 62.8709 14.213 69.0481 15.356 75.1265C16.499 81.3531 17.7414 87.4315 18.2384 93.7569C18.6359 99.9835 17.7414 106.111 17.8408 112.289Z" fill="#E59051"/>
<path opacity="0.3" d="M14.9087 94.3994C14.859 89.5565 15.0578 84.8124 14.4118 80.0189C13.7657 75.1265 12.3742 70.333 11.5294 65.4407C10.784 61.2402 10.3864 56.9903 9.69067 52.7898C9.88946 55.2113 10.0882 57.6821 10.287 60.1036C10.4361 61.5367 10.6349 63.0192 10.784 64.4523C11.3803 69.3941 12.8215 74.1876 13.6166 79.1294C14.3124 83.6758 14.4615 88.2222 14.2627 92.818C14.3621 95.4866 14.6106 98.2045 15.0081 100.824C15.2069 101.664 15.4554 102.504 15.6542 103.344C15.2566 100.379 14.9087 97.4139 14.9087 94.3994Z" fill="#E59051"/>
<path opacity="0.3" d="M22.7607 62.5249C22.7607 63.7109 22.7607 64.8969 22.8104 66.0335C23.0092 68.6526 23.5061 71.1729 24.1522 73.7427C23.854 70.6788 23.7546 67.6643 23.7546 64.551C23.7546 61.9813 23.8043 59.3127 23.7546 56.6442C23.6055 55.7052 23.4564 54.8157 23.3073 53.8768C23.0588 52.5919 22.8104 51.3071 22.5619 50.0222C22.9595 54.1239 22.711 58.4232 22.7607 62.5249Z" fill="#E59051"/>
<path opacity="0.3" d="M23.5061 75.7688C23.4067 75.4229 23.3073 75.077 23.2079 74.731C23.3073 75.917 23.4564 77.1525 23.6055 78.3385C24.3012 83.5768 25.2455 88.815 25.5436 94.1027C25.6927 96.8701 25.3945 99.6375 25.0964 102.405C24.997 103.196 24.8976 104.134 24.8479 104.925C24.7485 108.236 23.6055 104.036 23.4564 103.393C22.5122 99.0445 21.5183 94.6957 20.3753 90.3964C18.9341 84.911 19.282 79.1786 18.139 73.5944C17.0457 68.0597 16.0517 62.5743 15.1075 57.0395C14.3124 52.4931 13.3185 47.9467 13.07 43.3509C12.9706 42.7084 12.8215 42.066 12.7221 41.4236C12.2749 46.8101 13.567 52.0978 14.4118 57.336C15.4554 63.6615 16.8469 69.9869 17.8408 76.3124C18.7353 82.0448 18.8844 87.629 20.2759 93.312C21.071 96.4254 21.8662 99.6375 22.5122 102.751C22.9098 104.678 23.2576 106.457 24.5 107.989C24.6988 108.236 25.0467 107.89 25.1461 107.693C25.8418 106.457 25.5933 104.678 25.7921 103.393C26.0903 100.922 26.4382 98.5503 26.4879 96.0794C26.6866 90.8906 25.6927 85.6029 24.9473 80.5129C24.4503 78.9315 23.9534 77.3502 23.5061 75.7688Z" fill="#E59051"/>
<path opacity="0.3" d="M21.5183 77.8444C21.2698 74.0887 21.071 70.2835 20.574 66.5278C19.9777 62.0802 19.3813 57.4844 19.0335 52.938C18.7353 50.7142 18.5365 48.4904 18.288 46.2666C18.2383 46.316 18.2383 46.3654 18.2383 46.4149C18.139 53.1851 18.9838 60.1529 19.7789 66.8737C20.574 73.3969 20.574 79.9694 21.4686 86.4925C21.4686 86.5913 21.568 86.6902 21.6177 86.6902C21.4686 83.7251 21.5183 80.7601 21.5183 77.8444Z" fill="#E59051"/>
</g>
<g opacity="0.3">
<path opacity="0.3" d="M43.8813 111.745C42.639 111.745 41.3469 111.794 40.1045 111.646C39.1106 111.646 38.1166 111.596 37.1724 111.596C36.1288 111.695 35.0852 111.844 34.0416 112.041C32.6998 112.288 31.358 112.437 30.0162 112.585C30.9108 112.535 31.7556 112.486 32.6501 112.437C35.0355 112.288 37.4706 112.338 39.856 112.387C37.6694 112.782 35.5325 113.227 33.2962 113.524C29.6187 114.018 25.9909 113.524 22.4128 114.216C22.6116 114.216 22.86 114.265 23.0588 114.314C24.3509 114.413 25.643 114.512 26.9351 114.611C28.6248 114.561 30.3144 114.561 32.0041 114.413C36.6258 114.067 40.999 112.585 45.6207 112.338C45.6704 112.338 45.6704 112.338 45.7201 112.338C45.9189 112.338 46.1177 112.041 46.1177 111.844C45.4219 111.794 44.6765 111.745 43.8813 111.745Z" fill="#E59051"/>
<path opacity="0.3" d="M111.766 106.556C110.722 106.408 109.678 106.358 108.635 106.309C108.138 106.309 107.591 106.358 107.094 106.408C103.467 106.655 99.8884 107.445 96.2606 107.347C88.9553 107.198 81.7992 108.928 74.4939 108.631C66.8407 108.335 59.287 108.829 51.6339 108.977C46.4158 109.076 41.1977 108.879 36.0294 109.027C33.7931 109.126 31.4077 109.373 29.2211 109.966C36.576 109.472 43.8813 109.817 51.286 109.817C58.8894 109.817 66.4432 109.274 74.0466 109.719C81.4016 110.163 88.4584 108.384 95.7637 108.533C98.7454 108.582 101.528 108.038 104.51 107.693C107.939 107.248 111.368 107.149 114.797 107.05C113.704 106.852 112.71 106.704 111.766 106.556Z" fill="#E59051"/>
<path opacity="0.3" d="M111.468 108.187C103.367 108.335 95.2667 109.472 87.216 110.411C81.2525 111.102 75.7363 110.905 69.7728 110.411C64.1572 109.916 58.4919 110.411 52.926 111.349C54.5659 111.349 56.2059 111.399 57.7961 111.448C67.1389 111.201 76.3327 112.733 85.7252 111.745C92.8316 111.004 99.8884 109.867 106.995 109.225C107.74 109.076 108.486 108.879 109.231 108.73C110.275 108.533 111.269 108.384 112.312 108.286C112.014 108.286 111.766 108.236 111.468 108.187Z" fill="#E59051"/>
<path opacity="0.3" d="M118.027 113.969C118.773 113.771 119.518 113.474 120.264 113.277C118.823 113.326 117.332 113.178 116.139 113.326C112.909 113.771 109.678 114.166 106.448 114.463C99.0933 115.155 91.6886 113.919 84.3337 114.067C77.575 114.216 71.0152 114.166 64.2566 113.376C61.6724 113.079 59.1379 113.03 56.6531 113.129C55.9574 113.178 55.2617 113.227 54.5659 113.277C52.0811 113.425 49.646 113.722 47.2109 114.216C46.5649 114.364 45.9686 114.463 45.3225 114.611C52.0314 114.315 58.3428 113.573 65.1014 114.463C72.6552 115.451 80.0101 115.155 87.5639 115.253C94.6207 115.303 101.628 116.39 108.685 115.253C111.716 114.759 114.897 114.117 118.027 113.969Z" fill="#E59051"/>
<path opacity="0.3" d="M125.631 116.044C125.929 115.846 126.277 115.599 126.525 115.352C124.637 115.846 122.599 115.451 120.661 115.748C120.562 115.846 120.512 115.945 120.413 116.044C122.152 116.044 123.891 116.291 125.631 116.044C125.631 116.044 125.581 116.044 125.631 116.044Z" fill="#E59051"/>
<path opacity="0.3" d="M118.276 110.806C114.4 111.003 110.424 111.003 106.597 111.794C106.349 111.942 106.1 112.091 105.852 112.288C110.026 112.189 114.151 111.596 118.276 110.806Z" fill="#E59051"/>
</g>
<g opacity="0.3">
<path opacity="0.3" d="M125.531 49.7754C124.935 53.9265 124.935 58.0775 124.09 62.278C123.196 66.7256 122.301 71.1238 121.208 75.5714C120.264 79.2777 119.966 82.984 119.767 86.7892C119.518 91.3356 118.922 95.7337 118.127 100.181C118.326 99.5883 118.524 98.9953 118.673 98.4023C119.22 96.2279 119.419 94.0041 120.015 91.8298C120.413 86.7397 120.512 81.6003 121.605 76.6091C122.55 72.1616 123.842 67.8622 124.587 63.3652C124.935 61.1414 125.382 58.9671 125.73 56.6939C125.73 56.595 125.73 56.5456 125.78 56.4468C125.929 54.223 125.929 51.9992 125.531 49.7754Z" fill="#E59051"/>
<path opacity="0.3" d="M129.209 94.2017C129.11 92.5215 129.01 81.9956 126.575 82.0944C123.991 82.1933 124.14 88.9635 123.941 90.3966C123.245 95.5854 122.301 100.725 121.854 105.914C122.848 101.861 123.544 97.7104 124.438 93.6087C124.736 91.9285 124.985 90.1989 125.184 88.4693C125.283 87.5798 126.078 81.9462 126.774 84.1206C128.265 88.9141 128.265 94.5477 128.414 99.5388C128.563 104.431 128.364 109.324 128.662 114.216C128.662 114.265 128.662 114.315 128.712 114.364C129.06 113.277 129.06 111.992 129.209 110.905C129.308 110.114 129.457 109.274 129.606 108.483C129.606 103.739 129.457 98.9458 129.209 94.2017Z" fill="#E59051"/>
<path opacity="0.3" d="M128.414 114.71C127.32 112.387 127.569 109.818 127.668 107.347C127.768 104.629 127.32 101.911 127.221 99.1927C127.221 98.5503 126.327 98.9457 126.177 99.2422C125.581 100.28 125.134 101.367 124.736 102.504C124.786 102.553 124.836 102.652 124.786 102.8C123.842 105.123 123.295 108.384 123.891 111.004C124.19 110.559 124.438 110.065 124.637 109.57C124.985 106.852 125.184 104.135 126.128 101.614C126.227 102.998 126.376 104.431 126.476 105.815C126.525 105.864 126.575 105.963 126.525 106.111C126.525 106.161 126.525 106.21 126.476 106.259C126.525 107.05 126.575 107.841 126.575 108.681C126.575 109.076 126.575 109.472 126.575 109.867C126.824 111.695 127.519 113.425 128.265 115.105C128.414 114.957 128.463 114.858 128.414 114.71Z" fill="#E59051"/>
<path opacity="0.3" d="M129.01 54.3712C126.227 62.5745 123.941 71.3708 122.45 79.92C121.755 83.824 121.357 87.8269 121.009 91.7803C121.059 91.8297 121.108 91.9285 121.108 92.0273C120.86 94.943 120.761 97.8586 120.761 100.774C120.761 101.417 120.761 102.109 120.761 102.751C121.456 95.4866 122.251 88.1728 123.345 80.9084C124.19 75.1265 125.73 69.4435 127.221 63.8099C127.32 63.3652 127.42 62.9698 127.47 62.5251C128.066 59.8071 128.414 56.9409 129.11 54.2229C129.06 54.2723 129.01 54.2723 129.01 54.3712Z" fill="#E59051"/>
<path opacity="0.3" d="M128.96 72.5569C129.855 70.4319 130.551 68.4552 130.899 66.182C131.296 63.6123 131.545 61.092 131.793 58.5223C131.893 57.7316 131.893 56.9409 131.942 56.1008C131.147 61.6356 130.004 67.0715 128.96 72.5569Z" fill="#E59051"/>
<path opacity="0.3" d="M137.26 52.7898C138.005 48.5399 138.452 44.29 138.9 40.04C138.85 40.0895 138.85 40.1389 138.85 40.1389C137.061 49.5776 134.576 59.0164 133.483 68.554C132.539 77.2021 132.389 85.8501 132.588 94.5476C132.688 94.1523 132.787 93.7075 132.837 93.3122C132.886 93.2134 132.886 93.0651 132.886 92.9663C132.886 91.2861 132.886 89.6059 133.085 87.9257C133.185 86.8879 133.334 85.8501 133.483 84.8124C133.632 79.327 133.88 73.8417 134.427 68.4057C134.874 63.7111 135.818 59.2141 136.912 54.6676C137.061 53.9758 137.16 53.3828 137.26 52.7898Z" fill="#E59051"/>
</g>
<g opacity="0.3">
<path opacity="0.3" d="M109.281 37.8162C104.311 38.4586 99.2922 39.2493 94.2729 39.4469C89.1045 39.694 83.9362 39.3975 78.7678 39.2987C68.7293 39.101 58.8398 40.4353 48.8013 40.7318C39.0112 41.0283 29.1715 39.9411 19.4311 38.9033C20.5244 39.101 21.6177 39.5458 22.5122 39.8917C30.6623 40.9789 38.8621 41.7696 47.0619 41.7696C57.498 41.7202 67.8348 40.1882 78.3206 40.3365C87.9118 40.4847 97.0558 40.3859 106.597 39.1504C111.965 38.4586 117.381 37.5197 122.798 37.4702C124.687 37.4702 126.525 37.5691 128.414 37.7173C128.662 37.7173 128.861 37.7173 129.11 37.7173C130.899 37.4208 132.737 37.1243 134.526 36.9266C125.979 36.3831 117.779 36.6796 109.281 37.8162Z" fill="#E59051"/>
<path opacity="0.3" d="M114.549 44.8828C109.679 44.4874 104.759 44.1909 99.9381 43.4991C104.262 41.9671 109.43 42.1648 113.903 41.7695C120.264 41.2259 126.674 40.88 132.986 40.0399C131.942 39.9904 130.899 39.941 129.855 39.8916C124.14 40.4352 118.425 40.6329 112.76 41.0282C108.039 41.3741 102.622 41.127 98.2982 43.3014C98 43.4497 97.5527 44.0921 98.0994 44.1909C103.765 45.0805 109.529 45.4264 115.294 45.9206C117.431 46.1182 119.568 46.0688 121.705 46.0688C122.5 45.97 123.245 45.8711 123.991 45.6735C124.587 45.5252 125.233 45.2781 125.83 45.0805C122.152 45.4758 118.127 45.1793 114.549 44.8828Z" fill="#E59051"/>
<path opacity="0.3" d="M122.649 43.3015C123.345 43.2521 124.041 43.1533 124.736 43.0544C126.327 42.7085 127.867 42.2638 129.457 41.9178C129.507 41.9178 129.557 41.8684 129.656 41.8684C126.078 41.8684 122.401 42.3132 118.872 42.6097C118.823 42.6097 118.773 42.6591 118.723 42.6591C119.966 43.005 121.307 43.2521 122.649 43.3015Z" fill="#E59051"/>
<path opacity="0.3" d="M58.9889 43.598C53.8205 43.4003 48.6522 43.3509 43.4838 43.6968C39.3094 43.9933 34.6877 44.6357 30.3144 44.3886C29.8175 44.5369 29.3205 44.6852 28.7739 44.8334C32.2526 45.2287 35.8307 45.0311 39.21 44.8828C45.2728 44.6357 51.1866 44.2898 57.1998 44.4875C66.5923 44.784 75.9351 45.377 85.2779 44.5863C86.8682 44.2898 88.4584 43.8945 90.0487 43.4991C79.7617 44.6852 69.3753 43.9933 58.9889 43.598Z" fill="#E59051"/>
<path opacity="0.3" d="M91.5892 43.9438C92.1856 43.845 92.8316 43.7462 93.428 43.6473C93.5771 43.6473 93.6765 43.4991 93.6765 43.3508C92.9807 43.4991 92.285 43.6968 91.5892 43.9438Z" fill="#E59051"/>
<path opacity="0.3" d="M42.9868 38.0139C39.7069 37.2726 36.427 37.0749 33.0974 36.9267C32.8986 36.9267 32.6998 36.9267 32.5507 36.9267C31.358 36.9267 30.1653 36.8773 28.9726 36.8773C26.2394 36.8773 23.5061 36.4325 20.7728 36.1854C20.4747 36.1854 20.1765 36.136 19.8783 36.136C19.1826 36.2348 18.4371 36.2842 17.7414 36.3337C16.499 36.5313 15.2566 36.7784 14.0142 36.729C13.7657 36.8773 13.5173 37.0255 13.3185 37.2232C15.2566 37.5691 17.1947 37.0749 19.1826 36.9761C22.2637 36.8278 25.4442 37.8162 28.5254 37.915C33.7434 38.0633 39.0112 38.4092 44.2292 38.2115C43.782 38.1621 43.3844 38.0633 42.9868 38.0139Z" fill="#E59051"/>
</g>
</g>
<path opacity="0.5" d="M18.4371 104.925C17.7911 94.7454 16.2008 84.5654 15.4057 74.3854C15.1572 71.1732 15.1075 67.9611 14.8093 64.7489C14.6602 63.8594 14.4615 62.9699 14.2627 62.031C13.4676 58.5223 12.8712 54.9148 12.0264 51.4062C11.7779 50.4673 11.5294 49.5283 11.2809 48.54C10.8337 47.008 10.3367 45.5255 9.74037 44.043C9.69067 44.0924 9.69067 44.1418 9.69067 44.1912C9.88946 48.8365 10.784 53.8771 11.7282 58.4729C12.8712 64.0571 13.1694 69.3942 13.6166 75.0772C14.4615 86.0479 16.499 96.8704 17.9899 107.792C18.0396 106.902 18.2383 105.914 18.4371 104.925Z" fill="#BA6C0F"/>
<path opacity="0.5" d="M102.87 108.582C104.361 108.236 105.852 107.841 107.393 107.594C108.188 107.446 109.132 107.446 110.026 107.297C107.144 107.347 104.311 107.792 101.379 107.989C98.1988 108.187 94.9686 107.94 91.7881 107.742C85.3773 107.248 79.0163 107.347 72.6055 107.94C65.499 108.582 58.4919 109.472 51.3854 109.274C47.3104 109.126 43.285 109.225 39.21 109.274C37.073 109.472 34.8864 109.669 32.7495 109.818C34.7373 110.164 36.9737 110.015 38.9615 110.114C42.0426 110.262 45.1238 110.312 48.2049 110.608C54.9635 111.35 61.7221 110.51 68.4311 109.768C76.1339 108.928 83.5883 108.236 91.3408 108.78C95.3165 108.978 99.0933 108.879 102.87 108.582Z" fill="#BA6C0F"/>
<path opacity="0.5" d="M126.078 54.5196C125.73 56.1998 125.432 57.88 125.134 59.5602C125.134 59.7084 125.134 59.9061 125.084 60.0543C124.836 64.9467 124.786 69.6908 123.643 74.4843C122.649 78.6353 122.252 83.1818 121.705 87.4317C121.158 91.6322 119.916 96.0798 120.214 100.33C120.313 99.0942 120.761 97.6117 120.81 97.2164C121.109 95.4373 121.655 93.7571 122.252 92.0275C122.45 91.3851 122.599 90.6932 122.749 90.0508C123.544 85.109 124.339 80.2167 124.985 75.275C125.531 71.2227 126.277 67.467 126.426 63.3159C126.575 59.1154 126.227 54.7172 127.47 50.665C127.47 50.6156 127.47 50.6156 127.47 50.5662C126.923 51.8016 126.476 53.1853 126.078 54.5196Z" fill="#BA6C0F"/>
<path opacity="0.5" d="M93.1795 39.8919C94.8195 39.5954 96.4097 39.2001 98.0497 38.8541C84.8306 38.9036 71.5619 39.1506 58.3428 38.6071C51.6836 38.36 45.0243 38.2117 38.3651 38.5576C35.0852 38.7059 31.8053 38.8541 28.5254 39.0024C27.4817 39.0518 26.3387 39.1506 25.1957 39.2495C25.3945 39.2495 25.643 39.2989 25.8418 39.2989C29.8671 39.546 33.8925 39.2495 37.8682 39.2989C40.8996 39.3483 43.9807 39.4966 47.0122 39.6448C50.143 39.6448 53.3235 39.6942 56.5041 39.8425C68.6298 40.3367 81.0041 40.5343 93.1795 39.8919Z" fill="#BA6C0F"/>
<path d="M112.859 124.248H90.9929V126.471H112.859V124.248Z" fill="#44210E"/>
<path d="M103.019 114.463H100.783V136.207H103.019V114.463Z" fill="#44210E"/>
<path d="M94.9545 116.873L93.3732 118.445L108.835 133.82L110.416 132.248L94.9545 116.873Z" fill="#44210E"/>
<path d="M108.871 116.858L93.4097 132.233L94.991 133.806L110.453 118.431L108.871 116.858Z" fill="#44210E"/>
<path d="M101.926 109.472C93.1795 109.472 86.073 116.538 86.073 125.236C86.073 133.933 93.1795 141 101.926 141C110.672 141 117.779 133.933 117.779 125.236C117.729 116.538 110.672 109.472 101.926 109.472ZM101.926 133.637C97.3042 133.637 93.5771 129.931 93.5771 125.335C93.5771 120.739 97.3042 117.033 101.926 117.033C106.548 117.033 110.275 120.739 110.275 125.335C110.225 129.931 106.498 133.637 101.926 133.637Z" fill="#743C25"/>
<path d="M105.454 125.335C105.454 127.311 103.864 128.893 101.876 128.893C99.8884 128.893 98.2982 127.311 98.2982 125.335C98.2982 123.358 99.8884 121.777 101.876 121.777C103.864 121.777 105.454 123.358 105.454 125.335Z" fill="#BA6C0F"/>
<path d="M104.113 125.236C104.113 126.372 103.218 127.262 102.075 127.262C100.932 127.262 100.037 126.372 100.037 125.236C100.037 124.099 100.932 123.21 102.075 123.21C103.218 123.21 104.113 124.099 104.113 125.236Z" fill="#44210E"/>
<path d="M101.926 110.608C93.7261 110.608 87.0669 117.23 87.0669 125.384C87.0669 133.538 93.7261 140.16 101.926 140.16C110.126 140.16 116.785 133.538 116.785 125.384C116.735 117.181 110.076 110.608 101.926 110.608ZM101.926 134.378C96.9067 134.378 92.8316 130.326 92.8316 125.335C92.8316 120.343 96.9067 116.291 101.926 116.291C106.945 116.291 111.02 120.343 111.02 125.335C110.971 130.326 106.945 134.378 101.926 134.378Z" fill="#BA6C0F"/>
<path opacity="0.5" d="M106.548 111.695C106.548 111.695 98.646 109.472 92.4838 114.463C86.3712 119.454 85.3276 130.771 93.0304 136.75C93.0304 136.75 87.1166 129.436 89.5517 121.678C92.0365 113.919 99.6399 111.152 106.548 111.695Z" fill="#BA6C0F"/>
<path d="M111.318 113.771C110.523 113.178 109.778 112.585 109.132 111.893C109.082 111.992 109.032 112.091 109.082 112.19C109.181 112.338 110.623 113.771 110.623 113.82C110.175 114.117 109.579 114.463 109.331 114.957C109.032 115.501 109.629 115.846 109.977 116.192C110.076 116.291 109.728 116.687 109.38 117.082C109.828 116.785 110.325 116.489 110.821 116.242C110.821 115.995 110.722 115.846 110.623 115.649C110.474 115.352 110.325 115.105 110.225 114.809C110.275 114.759 110.325 114.71 110.374 114.66C110.573 114.463 111.169 114.117 111.318 113.771Z" fill="#743C25"/>
<path d="M110.523 137.788C110.573 137.739 110.623 137.64 110.672 137.59C110.474 137.244 110.275 136.898 110.026 136.553C109.529 135.91 109.082 135.317 108.933 134.477C108.834 133.933 108.834 133.39 108.784 132.846C108.734 132.896 108.734 132.945 108.734 132.994C108.685 133.291 108.734 133.538 108.734 133.835C108.784 134.279 108.585 134.675 108.585 135.119C108.635 135.712 108.883 136.108 109.132 136.602C109.231 136.8 109.331 136.997 109.38 137.195C109.579 137.64 109.778 137.294 109.132 137.739C108.734 138.035 108.486 138.43 108.088 138.727C108.039 138.776 108.039 138.776 107.989 138.826C108.883 138.579 109.678 138.183 110.523 137.788Z" fill="#743C25"/>
<g opacity="0.3">
<path opacity="0.3" d="M95.8631 112.783C95.2668 113.475 94.6704 114.216 94.1238 114.957C93.2292 116.193 92.6329 117.675 91.8378 119.009C91.0923 120.245 90.0984 121.283 89.2039 122.37C88.21 123.556 87.8124 124.742 87.2161 126.125C87.1664 126.274 87.3154 126.224 87.3651 126.175C88.2597 124.841 88.7566 123.407 89.8499 122.172C90.6948 121.184 91.5893 120.245 92.285 119.158C93.1298 117.873 93.6765 116.39 94.4716 115.105C94.7698 114.611 95.1674 114.117 95.5649 113.623C95.6146 113.376 95.714 113.079 95.8631 112.783Z" fill="#E59051"/>
<path opacity="0.3" d="M98.8449 111.794C95.8631 114.611 94.4219 118.515 91.8875 121.678C90.5954 123.259 89.6512 124.939 89.0051 126.867C88.8063 127.509 88.5578 128.201 88.4088 128.893C88.5578 128.448 88.7566 128.053 89.0051 127.657C89.2536 126.867 89.6015 126.076 89.8996 125.384C90.6948 123.556 92.0365 122.123 93.2789 120.591C94.2729 119.355 94.8692 117.823 95.6643 116.44C96.5589 114.908 97.5528 113.425 98.7952 112.091C98.7952 111.992 98.8449 111.893 98.8449 111.794Z" fill="#E59051"/>
<path opacity="0.3" d="M98.6958 138.974C96.4595 137.689 94.8692 135.317 93.7759 133.044C93.2292 131.907 92.782 130.721 92.3844 129.535C92.0862 128.745 92.0862 127.756 91.5396 127.114C91.4402 126.966 91.2414 127.163 91.1917 127.262C90.7942 128.201 90.5954 129.288 90.4463 130.326C90.4463 130.623 90.4463 130.919 90.496 131.216C90.6451 129.98 90.9929 128.745 91.3905 127.756C91.8875 128.596 92.0862 129.98 92.3844 130.771C92.8317 131.957 93.3783 133.093 93.9747 134.279C94.9189 136.157 96.7576 138.282 98.6461 139.172C98.6461 139.172 98.7455 139.024 98.6958 138.974Z" fill="#E59051"/>
<path opacity="0.3" d="M98.0994 138.925C96.8074 138.332 95.7637 137.492 94.7698 136.503C93.6765 135.416 93.0305 134.131 92.0366 132.945C91.9372 132.846 91.7881 133.044 91.7881 133.143C91.8378 134.082 92.285 134.872 92.6826 135.713C93.0802 136.553 93.3783 137.442 94.0244 138.134C94.0741 138.183 94.1735 138.085 94.1238 138.035C93.5274 137.343 93.2293 136.454 92.8814 135.564C92.6329 134.922 92.285 134.329 92.136 133.637C93.7759 135.811 95.2171 138.282 98.0001 139.073C98.0994 139.073 98.1988 138.974 98.0994 138.925Z" fill="#E59051"/>
<path opacity="0.3" d="M103.964 138.826C101.926 137.838 99.5903 136.553 97.851 135.07C96.2607 133.736 95.2668 131.71 94.1735 130.03C94.1238 129.98 94.0244 130.079 94.0741 130.128C95.1177 131.957 96.0619 133.884 97.6025 135.416C98.3976 136.207 99.3915 136.701 100.336 137.245C101.479 137.887 102.572 138.727 103.814 139.122C103.914 139.073 104.063 138.875 103.964 138.826Z" fill="#E59051"/>
<path opacity="0.3" d="M105.902 135.713C105.206 135.416 104.51 135.021 103.814 134.675H103.765C103.814 134.823 103.914 134.971 103.963 135.07C104.51 135.416 105.057 135.762 105.653 136.058C106.498 136.503 107.74 137.245 108.784 137.442C108.983 137.343 109.182 137.245 109.38 137.146C108.188 136.75 107.045 136.157 105.902 135.713Z" fill="#E59051"/>
<path opacity="0.3" d="M103.367 137.047C102.174 136.503 101.23 135.663 100.187 134.922C100.087 134.922 99.9381 134.922 99.8387 134.873C101.081 135.861 102.224 136.899 103.715 137.591C104.957 138.184 106.448 138.184 107.79 137.887C108.088 137.739 108.386 137.591 108.685 137.442C106.846 137.788 105.156 137.838 103.367 137.047Z" fill="#E59051"/>
<path opacity="0.3" d="M101.827 111.498C101.33 112.091 100.932 112.733 100.584 113.425C100.038 114.364 99.3915 115.204 98.7455 116.044C98.7455 116.192 98.6958 116.291 98.6958 116.44C99.2922 115.748 99.9382 115.056 100.435 114.265C100.882 113.623 101.23 112.931 101.628 112.288C101.678 111.992 101.777 111.745 101.827 111.498Z" fill="#E59051"/>
<path opacity="0.3" d="M108.784 111.696C106.399 113.722 103.417 114.562 100.882 116.291C100.833 116.341 100.833 116.489 100.932 116.44C101.479 116.143 102.125 116.094 102.671 115.797C103.467 115.303 104.262 114.908 105.057 114.463C106.448 113.722 107.79 112.931 108.883 111.794C108.933 111.696 108.834 111.646 108.784 111.696Z" fill="#E59051"/>
<path opacity="0.3" d="M106.796 111.201C105.305 112.19 103.964 113.376 102.473 114.364C101.777 114.858 102.423 114.117 102.622 113.87C102.92 113.475 103.218 113.129 103.566 112.733C103.814 112.437 104.013 112.14 104.212 111.844C104.013 111.992 103.814 112.19 103.616 112.338C103.566 112.437 103.467 112.536 103.417 112.634C102.87 113.376 102.274 113.969 101.926 114.809C101.876 114.908 101.976 114.957 102.075 114.908C102.771 114.414 103.616 114.117 104.262 113.573C105.156 112.832 106.001 112.041 106.896 111.35C106.896 111.251 106.896 111.152 106.796 111.201Z" fill="#E59051"/>
<path opacity="0.3" d="M110.772 112.931C109.331 114.018 107.939 115.155 106.498 116.291C106.697 116.291 106.896 116.291 107.094 116.291C108.436 115.352 109.629 114.117 110.822 113.03C110.871 112.98 110.822 112.882 110.772 112.931Z" fill="#E59051"/>
<path opacity="0.3" d="M110.126 136.058C109.38 135.712 108.834 135.119 107.989 134.872C107.293 134.675 106.399 134.428 105.802 133.983C105.703 133.983 105.603 133.933 105.554 133.933C105.852 134.576 106.995 134.872 107.591 135.119C108.138 135.317 108.635 135.515 109.132 135.811C109.529 136.058 109.828 136.256 110.325 136.305C110.225 136.256 110.175 136.157 110.126 136.058Z" fill="#E59051"/>
<path opacity="0.3" d="M112.263 134.576C111.468 134.18 110.672 133.884 109.877 133.538C109.48 133.39 109.132 133.192 108.784 132.994C108.685 132.945 108.536 132.896 108.386 132.846C108.237 132.896 108.088 132.945 107.939 132.945C109.132 133.587 110.374 134.032 111.617 134.526C111.865 134.576 112.064 134.576 112.263 134.576Z" fill="#E59051"/>
<path opacity="0.3" d="M112.71 132.056C112.71 131.907 112.66 131.759 112.66 131.611C112.312 128.992 113.058 126.274 112.362 123.605C112.163 122.716 109.728 118.762 110.722 117.972C111.418 117.428 111.965 116.884 112.461 116.242C112.511 116.094 112.561 115.896 112.611 115.748C112.114 116.44 111.617 117.033 110.921 117.527C110.672 117.725 110.175 117.972 110.026 118.318C109.828 118.812 109.927 119.009 110.126 119.504C110.623 120.442 111.02 121.283 111.418 122.271C111.815 123.408 112.213 124.346 112.312 125.582C112.412 126.719 112.263 127.905 112.213 129.041C112.114 130.771 112.312 132.55 113.157 134.082C113.157 133.884 113.108 133.736 113.108 133.538C112.909 133.044 112.76 132.55 112.71 132.056Z" fill="#E59051"/>
<path opacity="0.3" d="M113.853 132.401C113.853 132.006 113.903 131.561 113.952 131.166C113.903 130.721 113.853 130.277 113.853 129.832C113.853 128.3 114.251 126.867 114.101 125.285C114.002 124.149 113.555 123.012 113.257 121.925C112.809 120.294 113.058 118.911 113.356 117.428C113.207 117.774 113.058 118.169 112.859 118.515C112.76 119.108 112.66 119.751 112.71 120.393C112.76 121.925 113.406 123.408 113.704 124.89C114.002 126.422 113.654 127.855 113.555 129.387C113.555 130.425 113.704 131.413 113.853 132.401Z" fill="#E59051"/>
<path opacity="0.3" d="M116.04 127.213C115.99 126.125 115.791 125.038 115.493 124.001C115.145 122.864 114.648 121.974 114.449 120.788C114.251 119.701 114.35 118.614 114.499 117.527C114.499 117.428 114.499 117.329 114.499 117.181C114.499 117.082 114.499 116.934 114.449 116.835C114.101 118.614 113.903 120.294 114.35 122.073C114.648 123.358 115.294 124.495 115.592 125.829C115.741 126.62 115.791 127.46 115.891 128.3C115.891 127.905 115.94 127.559 116.04 127.213Z" fill="#E59051"/>
<path opacity="0.3" d="M111.567 127.311C111.567 125.977 111.368 124.643 110.971 123.407C110.971 123.655 110.921 123.852 110.871 124.099C111.169 125.928 111.269 127.756 111.02 129.683C110.921 130.622 110.772 131.561 110.772 132.55C110.772 132.303 109.331 131.215 109.132 130.82C109.082 130.771 109.082 130.771 109.032 130.771C109.182 131.314 109.48 131.858 109.927 132.154C110.026 132.253 110.076 132.352 110.076 132.451C110.374 132.698 110.672 132.945 110.871 133.192C110.971 133.291 111.12 133.143 111.12 133.044C111.02 131.067 111.567 129.189 111.567 127.311Z" fill="#E59051"/>
<path opacity="0.3" d="M110.275 129.14C110.076 129.091 109.977 129.387 109.927 129.733C109.877 129.634 109.828 129.535 109.778 129.486C109.728 129.338 109.529 129.535 109.529 129.585C109.48 129.931 109.679 130.128 109.927 130.326C110.026 130.425 110.225 130.277 110.225 130.128C110.225 130.029 110.176 129.288 110.225 129.239C110.225 129.239 110.325 129.14 110.275 129.14Z" fill="#E59051"/>
</g>
<path opacity="0.3" d="M108.039 117.576C105.603 115.056 102.97 113.919 99.4412 114.759C97.6024 115.204 96.0122 115.995 94.571 117.131C94.571 117.131 94.571 117.181 94.5213 117.181C93.428 118.268 92.1856 119.602 91.9371 121.184C91.6886 122.617 91.7383 124.05 91.788 125.532C91.8377 128.152 92.0862 131.462 94.4716 133.093C98.646 135.959 104.61 135.811 108.486 132.401C110.623 130.474 112.312 127.904 112.014 124.939C111.865 123.506 111.517 121.431 110.623 120.245C109.877 119.256 108.933 118.466 108.039 117.576ZM101.926 133.637C97.3042 133.637 93.5771 129.931 93.5771 125.335C93.5771 120.739 97.3042 117.033 101.926 117.033C106.548 117.033 110.275 120.739 110.275 125.335C110.225 129.931 106.498 133.637 101.926 133.637Z" fill="#703405"/>
<path opacity="0.3" d="M101.926 109.472C100.882 109.472 99.8387 109.571 98.8448 109.768C101.33 109.966 103.765 110.608 106.15 111.547C106.796 111.794 109.38 113.079 108.734 114.166C108.337 114.908 109.132 115.303 109.529 115.896C109.679 116.094 109.629 116.341 109.579 116.588C110.076 116.538 110.772 116.44 110.722 116.341C110.672 116.143 110.573 115.945 110.623 115.698C110.623 115.451 110.623 115.105 110.871 114.957C111.468 114.611 112.014 115.155 112.263 115.649C112.958 116.983 113.604 118.268 114.3 119.553C115.145 121.035 115.841 122.666 115.791 124.445C115.791 126.62 114.946 128.349 114.251 130.375C113.704 132.056 113.157 133.093 111.815 134.279C110.921 135.07 110.722 135.91 109.48 135.416C108.933 135.218 108.635 134.823 108.486 134.428C108.337 134.773 108.237 135.119 108.287 135.416C108.287 135.96 108.287 136.503 108.287 137.047C108.287 137.244 108.138 137.343 107.939 137.393C101.976 137.986 95.714 137.986 90.8935 133.785C89.7505 132.797 89.502 131.561 89.0051 130.178C88.4087 128.497 87.7627 126.867 87.3154 125.186C86.9179 123.655 86.6694 122.172 86.8185 120.591C86.8682 120.294 86.9179 119.998 86.9675 119.701C86.3215 121.381 85.9736 123.259 85.9736 125.137C85.9736 133.835 93.0801 140.901 101.827 140.901C110.573 140.901 117.68 133.835 117.68 125.137C117.729 116.538 110.672 109.472 101.926 109.472Z" fill="#703405"/>
<path d="M55.709 124.248H33.8428V126.471H55.709V124.248Z" fill="#44210E"/>
<path d="M45.9189 114.463H43.6826V136.207H45.9189V114.463Z" fill="#44210E"/>
<path d="M37.8436 116.849L36.2623 118.421L51.7239 133.796L53.3052 132.224L37.8436 116.849Z" fill="#44210E"/>
<path d="M51.7288 116.873L36.2673 132.248L37.8486 133.82L53.3101 118.445L51.7288 116.873Z" fill="#44210E"/>
<path d="M44.7759 109.472C36.0295 109.472 28.923 116.538 28.923 125.236C28.923 133.933 36.0295 141 44.7759 141C53.5224 141 60.6289 133.933 60.6289 125.236C60.6289 116.538 53.5224 109.472 44.7759 109.472ZM44.7759 133.637C40.1542 133.637 36.427 129.931 36.427 125.335C36.427 120.739 40.1542 117.033 44.7759 117.033C49.3976 117.033 53.1248 120.739 53.1248 125.335C53.1248 129.931 49.3976 133.637 44.7759 133.637Z" fill="#743C25"/>
<path d="M48.354 125.335C48.354 127.311 46.7637 128.893 44.7759 128.893C42.7881 128.893 41.1978 127.311 41.1978 125.335C41.1978 123.358 42.7881 121.777 44.7759 121.777C46.7637 121.777 48.354 123.358 48.354 125.335Z" fill="#BA6C0F"/>
<path d="M46.9626 125.236C46.9626 126.372 46.068 127.262 44.925 127.262C43.782 127.262 42.8875 126.372 42.8875 125.236C42.8875 124.099 43.782 123.21 44.925 123.21C46.068 123.21 46.9626 124.099 46.9626 125.236Z" fill="#44210E"/>
<path d="M44.7759 110.608C36.5761 110.608 29.9169 117.23 29.9169 125.384C29.9169 133.538 36.5761 140.16 44.7759 140.16C52.9757 140.16 59.6349 133.538 59.6349 125.384C59.5852 117.181 52.9757 110.608 44.7759 110.608ZM44.7759 134.378C39.7566 134.378 35.6816 130.326 35.6816 125.335C35.6816 120.343 39.7566 116.291 44.7759 116.291C49.7952 116.291 53.8702 120.343 53.8702 125.335C53.8702 130.326 49.7952 134.378 44.7759 134.378Z" fill="#BA6C0F"/>
<path opacity="0.5" d="M49.3977 111.695C49.3977 111.695 41.496 109.472 35.3338 114.463C29.2212 119.454 28.1776 130.771 35.8804 136.75C35.8804 136.75 29.9666 129.436 32.4017 121.678C34.8865 113.919 42.4899 111.152 49.3977 111.695Z" fill="#BA6C0F"/>
<path d="M54.1684 113.771C53.3733 113.178 52.6278 112.585 51.9818 111.893C51.9321 111.992 51.8824 112.091 51.9321 112.19C52.0315 112.338 53.4727 113.771 53.4727 113.82C53.0254 114.117 52.429 114.463 52.1806 114.957C51.8824 115.501 52.4787 115.846 52.8266 116.192C52.926 116.291 52.5781 116.687 52.2303 117.082C52.6775 116.785 53.1745 116.489 53.6714 116.242C53.6714 115.995 53.572 115.846 53.423 115.649C53.2739 115.352 53.1248 115.105 53.0254 114.809C53.0751 114.759 53.1248 114.71 53.1745 114.66C53.423 114.463 54.0193 114.117 54.1684 113.771Z" fill="#743C25"/>
<path d="M53.3733 137.788C53.423 137.739 53.4727 137.64 53.5224 137.59C53.3236 137.244 53.1248 136.898 52.8763 136.553C52.3794 135.91 51.9321 135.317 51.783 134.477C51.6836 133.933 51.6836 133.39 51.6339 132.846C51.5842 132.896 51.5842 132.945 51.5842 132.994C51.5345 133.291 51.5842 133.538 51.5842 133.835C51.6339 134.279 51.4352 134.675 51.4352 135.119C51.4848 135.712 51.7333 136.108 51.9818 136.602C52.0812 136.8 52.1806 136.997 52.2303 137.195C52.4291 137.64 52.6279 137.294 51.9818 137.739C51.5842 138.035 51.3358 138.43 50.9382 138.727C50.8885 138.776 50.8885 138.776 50.8388 138.826C51.7333 138.579 52.5782 138.183 53.3733 137.788Z" fill="#743C25"/>
<g opacity="0.3">
<path opacity="0.3" d="M38.713 112.783C38.1167 113.475 37.5203 114.216 36.9737 114.957C36.0792 116.193 35.4828 117.675 34.6877 119.009C33.9422 120.245 32.9483 121.283 32.0538 122.37C31.0599 123.556 30.6623 124.742 30.066 126.125C30.0163 126.274 30.1654 126.224 30.2151 126.175C31.1096 124.841 31.6065 123.407 32.6998 122.172C33.5447 121.184 34.4392 120.245 35.1349 119.158C35.9798 117.873 36.5264 116.39 37.3215 115.105C37.6197 114.611 38.0173 114.117 38.4149 113.623C38.4646 113.376 38.6136 113.079 38.713 112.783Z" fill="#E59051"/>
<path opacity="0.3" d="M41.7445 111.794C38.7627 114.611 37.3215 118.515 34.7871 121.678C33.495 123.259 32.5507 124.939 31.9047 126.867C31.7059 127.509 31.4574 128.201 31.3083 128.893C31.4574 128.448 31.6562 128.053 31.9047 127.657C32.1532 126.867 32.501 126.076 32.7992 125.384C33.5944 123.556 34.9361 122.123 36.1785 120.591C37.1724 119.355 37.7688 117.823 38.5639 116.44C39.4585 114.908 40.4524 113.425 41.6948 112.091C41.6451 111.992 41.6948 111.893 41.7445 111.794Z" fill="#E59051"/>
<path opacity="0.3" d="M41.5457 138.974C39.3094 137.689 37.7191 135.317 36.6258 133.044C36.0792 131.907 35.6319 130.721 35.2343 129.535C34.9362 128.745 34.9362 127.756 34.3895 127.114C34.2901 126.966 34.0913 127.163 34.0416 127.262C33.6441 128.201 33.4453 129.288 33.2962 130.326C33.2962 130.623 33.2962 130.919 33.3459 131.216C33.495 129.98 33.8429 128.745 34.2404 127.756C34.7374 128.596 34.9362 129.98 35.2343 130.771C35.6816 131.957 36.2283 133.093 36.8246 134.279C37.7688 136.157 39.6076 138.282 41.496 139.172C41.496 139.172 41.6451 139.024 41.5457 138.974Z" fill="#E59051"/>
<path opacity="0.3" d="M40.999 138.925C39.707 138.332 38.6633 137.492 37.6694 136.503C36.5761 135.416 35.9301 134.131 34.9362 132.945C34.8368 132.846 34.6877 133.044 34.6877 133.143C34.7374 134.082 35.1846 134.872 35.5822 135.713C35.9798 136.553 36.2779 137.442 36.924 138.134C36.9737 138.183 37.0731 138.085 37.0234 138.035C36.427 137.343 36.1289 136.454 35.781 135.564C35.5325 134.922 35.1846 134.329 35.0356 133.637C36.6755 135.811 38.1167 138.282 40.8997 139.073C40.9493 139.073 41.0487 138.974 40.999 138.925Z" fill="#E59051"/>
<path opacity="0.3" d="M46.8135 138.826C44.7759 137.838 42.4402 136.553 40.7009 135.07C39.1106 133.736 38.1167 131.71 37.0234 130.03C36.9737 129.98 36.8743 130.079 36.924 130.128C37.9676 131.957 38.9118 133.884 40.4524 135.416C41.2475 136.207 42.2415 136.701 43.1857 137.245C44.3287 137.887 45.422 138.727 46.6644 139.122C46.7638 139.073 46.9625 138.875 46.8135 138.826Z" fill="#E59051"/>
<path opacity="0.3" d="M48.8013 135.713C48.1055 135.416 47.4098 135.021 46.7141 134.675H46.6644C46.7141 134.823 46.8135 134.971 46.8632 135.07C47.4098 135.416 47.9565 135.762 48.5528 136.058C49.3976 136.503 50.64 137.245 51.6836 137.442C51.8824 137.343 52.0812 137.245 52.28 137.146C51.0873 136.75 49.9443 136.157 48.8013 135.713Z" fill="#E59051"/>
<path opacity="0.3" d="M46.2668 137.047C45.0741 136.503 44.1299 135.663 43.0863 134.922C42.9869 134.922 42.8378 134.922 42.7384 134.873C43.9808 135.861 45.1238 136.899 46.6147 137.591C47.8571 138.184 49.3479 138.184 50.6897 137.887C50.9879 137.739 51.2861 137.591 51.5842 137.442C49.6958 137.788 48.0062 137.838 46.2668 137.047Z" fill="#E59051"/>
<path opacity="0.3" d="M44.7262 111.498C44.2293 112.091 43.8317 112.733 43.4838 113.425C42.9372 114.364 42.2911 115.204 41.6451 116.044C41.6451 116.192 41.5954 116.291 41.5954 116.44C42.1917 115.748 42.8378 115.056 43.3348 114.265C43.782 113.623 44.1299 112.931 44.5275 112.288C44.5275 111.992 44.6268 111.745 44.7262 111.498Z" fill="#E59051"/>
<path opacity="0.3" d="M51.6339 111.696C49.2485 113.722 46.2668 114.562 43.7323 116.291C43.6826 116.341 43.6826 116.489 43.782 116.44C44.3286 116.143 44.9747 116.094 45.5213 115.797C46.3165 115.303 47.1116 114.908 47.9067 114.463C49.2982 113.722 50.64 112.931 51.7333 111.794C51.783 111.696 51.7333 111.646 51.6339 111.696Z" fill="#E59051"/>
<path opacity="0.3" d="M49.6461 111.201C48.1552 112.19 46.8134 113.376 45.3226 114.364C44.6268 114.858 45.2729 114.117 45.4717 113.87C45.7698 113.475 46.068 113.129 46.4159 112.733C46.6644 112.437 46.8631 112.14 47.0619 111.844C46.8631 111.992 46.6644 112.19 46.4656 112.338C46.4159 112.437 46.3165 112.536 46.2668 112.634C45.7201 113.376 45.1238 113.969 44.7759 114.809C44.7262 114.908 44.8256 114.957 44.925 114.908C45.6207 114.414 46.4656 114.117 47.1116 113.573C48.0061 112.832 48.851 112.041 49.7455 111.35C49.7455 111.251 49.7455 111.152 49.6461 111.201Z" fill="#E59051"/>
<path opacity="0.3" d="M53.6217 112.931C52.1806 114.018 50.7891 115.155 49.3479 116.291C49.5467 116.291 49.7455 116.291 49.9442 116.291C51.286 115.352 52.4787 114.117 53.6714 113.03C53.7211 112.98 53.6714 112.882 53.6217 112.931Z" fill="#E59051"/>
<path opacity="0.3" d="M52.9757 136.058C52.2303 135.712 51.6339 135.119 50.8388 134.872C50.143 134.675 49.2485 134.428 48.6522 133.983C48.5528 133.983 48.4534 133.933 48.4037 133.933C48.7019 134.576 49.8449 134.872 50.4412 135.119C50.9879 135.317 51.4848 135.515 51.9818 135.811C52.3794 136.058 52.6775 136.256 53.1745 136.305C53.1248 136.256 53.0254 136.157 52.9757 136.058Z" fill="#E59051"/>
<path opacity="0.3" d="M55.1623 134.576C54.3672 134.18 53.5721 133.884 52.7769 133.538C52.3794 133.39 52.0315 133.192 51.6836 132.994C51.5842 132.945 51.4352 132.896 51.2861 132.846C51.137 132.896 50.9879 132.945 50.8388 132.945C52.0315 133.587 53.2739 134.032 54.5163 134.526C54.7151 134.576 54.9635 134.576 55.1623 134.576Z" fill="#E59051"/>
<path opacity="0.3" d="M55.5599 132.056C55.5599 131.907 55.5102 131.759 55.5102 131.611C55.1623 128.992 55.9077 126.274 55.212 123.605C55.0132 122.716 52.5781 118.762 53.572 117.972C54.2678 117.428 54.8144 116.884 55.3114 116.242C55.3611 116.094 55.4108 115.896 55.4605 115.748C54.9635 116.44 54.4666 117.033 53.7708 117.527C53.5223 117.725 53.0254 117.972 52.8763 118.318C52.6775 118.812 52.7769 119.009 52.9757 119.504C53.4726 120.442 53.8702 121.283 54.2678 122.271C54.6653 123.408 55.0629 124.346 55.1126 125.582C55.212 126.719 55.0629 127.905 55.0132 129.041C54.9138 130.771 55.1126 132.55 55.9574 134.082C55.9574 133.884 55.9077 133.736 55.9077 133.538C55.8083 133.044 55.6593 132.55 55.5599 132.056Z" fill="#E59051"/>
<path opacity="0.3" d="M56.7526 132.401C56.7526 132.006 56.8023 131.561 56.852 131.166C56.8023 130.721 56.7526 130.277 56.7526 129.832C56.7526 128.3 57.1502 126.867 57.0011 125.285C56.9017 124.149 56.4544 123.012 56.1562 121.925C55.709 120.294 55.9575 118.911 56.2556 117.428C56.1065 117.774 55.9575 118.169 55.7587 118.515C55.6593 119.108 55.5599 119.751 55.6096 120.393C55.6593 121.925 56.3053 123.408 56.6035 124.89C56.9017 126.422 56.5538 127.855 56.4544 129.387C56.4047 130.425 56.5538 131.413 56.7526 132.401Z" fill="#E59051"/>
<path opacity="0.3" d="M58.8895 127.213C58.8398 126.125 58.641 125.038 58.3429 124.001C57.995 122.864 57.498 121.974 57.2993 120.788C57.1005 119.701 57.1999 118.614 57.349 117.527C57.349 117.428 57.349 117.329 57.349 117.181C57.349 117.082 57.349 116.934 57.2993 116.835C56.9514 118.614 56.7526 120.294 57.1999 122.073C57.498 123.358 58.1441 124.495 58.4423 125.829C58.5913 126.62 58.641 127.46 58.7404 128.3C58.7404 127.905 58.8398 127.559 58.8895 127.213Z" fill="#E59051"/>
<path opacity="0.3" d="M54.4169 127.311C54.4169 125.977 54.2181 124.643 53.8205 123.407C53.8205 123.655 53.7708 123.852 53.7211 124.099C54.0193 125.928 54.1187 127.756 53.8702 129.683C53.7708 130.622 53.6217 131.561 53.6217 132.55C53.6217 132.303 52.1806 131.215 51.9818 130.82C51.9321 130.771 51.9321 130.771 51.8824 130.771C52.0315 131.314 52.3296 131.858 52.7272 132.154C52.8266 132.253 52.8763 132.352 52.8763 132.451C53.1745 132.698 53.4726 132.945 53.6714 133.192C53.7708 133.291 53.9199 133.143 53.9199 133.044C53.8702 131.067 54.4169 129.189 54.4169 127.311Z" fill="#E59051"/>
<path opacity="0.3" d="M53.1248 129.14C52.926 129.091 52.8266 129.387 52.7769 129.733C52.7272 129.634 52.6775 129.535 52.6278 129.486C52.5782 129.338 52.3794 129.535 52.3794 129.585C52.3297 129.931 52.5285 130.128 52.7769 130.326C52.8763 130.425 53.0751 130.277 53.0751 130.128C53.0751 130.029 53.0254 129.288 53.0751 129.239C53.1248 129.239 53.1745 129.14 53.1248 129.14Z" fill="#E59051"/>
</g>
<path opacity="0.3" d="M50.9382 117.576C48.5031 115.056 45.8692 113.919 42.3408 114.759C40.5021 115.204 38.9118 115.995 37.4706 117.131C37.4706 117.131 37.4706 117.181 37.4209 117.181C36.3276 118.268 35.0852 119.602 34.8368 121.184C34.5883 122.617 34.638 124.05 34.6877 125.532C34.7374 128.152 34.9858 131.462 37.3712 133.093C41.5457 135.959 47.5092 135.811 51.3854 132.401C53.5721 130.474 55.212 127.904 54.9138 124.939C54.7647 123.506 54.4169 121.431 53.5224 120.245C52.7769 119.256 51.783 118.466 50.9382 117.576ZM44.7759 133.637C40.1542 133.637 36.427 129.931 36.427 125.335C36.427 120.739 40.1542 117.033 44.7759 117.033C49.3976 117.033 53.1248 120.739 53.1248 125.335C53.1248 129.931 49.3976 133.637 44.7759 133.637Z" fill="#703405"/>
<path opacity="0.3" d="M44.7759 109.472C43.7323 109.472 42.6887 109.571 41.6948 109.768C44.1796 109.966 46.6147 110.608 49.0001 111.547C49.6461 111.794 52.2303 113.079 51.5842 114.166C51.1867 114.908 51.9818 115.303 52.3794 115.896C52.5285 116.094 52.5285 116.341 52.4291 116.588C52.926 116.538 53.6218 116.44 53.5721 116.341C53.5224 116.143 53.423 115.945 53.4727 115.698C53.4727 115.451 53.4727 115.105 53.7212 114.957C54.3175 114.611 54.8642 115.155 55.1126 115.649C55.8084 116.983 56.4544 118.268 57.1502 119.553C57.995 121.035 58.6907 122.666 58.641 124.445C58.641 126.62 57.7962 128.349 57.1005 130.375C56.5538 132.056 56.0072 133.093 54.6654 134.279C53.7709 135.07 53.5721 135.91 52.3297 135.416C51.783 135.218 51.4849 134.823 51.3358 134.428C51.1867 134.773 51.0873 135.119 51.137 135.416C51.137 135.96 51.137 136.503 51.137 137.047C51.137 137.244 50.9879 137.343 50.7891 137.393C44.8256 137.986 38.564 137.986 33.7435 133.785C32.6005 132.797 32.352 131.561 31.855 130.178C31.2587 128.497 30.6126 126.867 30.2151 125.186C29.8175 123.655 29.569 122.172 29.7181 120.591C29.7678 120.294 29.8175 119.998 29.8672 119.701C29.2212 121.381 28.8733 123.259 28.8733 125.137C28.8733 133.835 35.9798 140.901 44.7262 140.901C53.4727 140.901 60.5792 133.835 60.5792 125.137C60.6289 116.538 53.5224 109.472 44.7759 109.472Z" fill="#703405"/>
<defs>
<linearGradient id="paint0_linear" x1="85.8685" y1="9.09354" x2="15.3316" y2="29.2218" gradientUnits="userSpaceOnUse">
<stop offset="0.0368098" stop-color="#F7E38F"/>
<stop offset="0.1242" stop-color="#FADC62"/>
<stop offset="0.217" stop-color="#FCD539"/>
<stop offset="0.3015" stop-color="#FED11B"/>
<stop offset="0.374" stop-color="#FFCE09"/>
<stop offset="0.4262" stop-color="#FFCD03"/>
<stop offset="1" stop-color="#F49A20"/>
</linearGradient>
<linearGradient id="paint1_linear" x1="131.244" y1="24.2452" x2="58.6366" y2="13.6829" gradientUnits="userSpaceOnUse">
<stop offset="0.0368098" stop-color="#F7E38F"/>
<stop offset="0.1242" stop-color="#FADC62"/>
<stop offset="0.217" stop-color="#FCD539"/>
<stop offset="0.3015" stop-color="#FED11B"/>
<stop offset="0.374" stop-color="#FFCE09"/>
<stop offset="0.4262" stop-color="#FFCD03"/>
<stop offset="1" stop-color="#F49A20"/>
</linearGradient>
<linearGradient id="paint2_linear" x1="66.2238" y1="14.0968" x2="132.428" y2="45.5711" gradientUnits="userSpaceOnUse">
<stop offset="0.0368098" stop-color="#F7E38F"/>
<stop offset="0.1242" stop-color="#FADC62"/>
<stop offset="0.217" stop-color="#FCD539"/>
<stop offset="0.3015" stop-color="#FED11B"/>
<stop offset="0.374" stop-color="#FFCE09"/>
<stop offset="0.4262" stop-color="#FFCD03"/>
<stop offset="1" stop-color="#F49A20"/>
</linearGradient>
<linearGradient id="paint3_linear" x1="97.9408" y1="30.4656" x2="27.232" y2="49.981" gradientUnits="userSpaceOnUse">
<stop offset="0.0368098" stop-color="#F7E38F"/>
<stop offset="0.1242" stop-color="#FADC62"/>
<stop offset="0.217" stop-color="#FCD539"/>
<stop offset="0.3015" stop-color="#FED11B"/>
<stop offset="0.374" stop-color="#FFCE09"/>
<stop offset="0.4262" stop-color="#FFCD03"/>
<stop offset="1" stop-color="#F49A20"/>
</linearGradient>
<linearGradient id="paint4_linear" x1="27.0017" y1="28.551" x2="100.078" y2="21.9035" gradientUnits="userSpaceOnUse">
<stop offset="0.0368098" stop-color="#F7E38F"/>
<stop offset="0.1242" stop-color="#FADC62"/>
<stop offset="0.217" stop-color="#FCD539"/>
<stop offset="0.3015" stop-color="#FED11B"/>
<stop offset="0.374" stop-color="#FFCE09"/>
<stop offset="0.4262" stop-color="#FFCD03"/>
<stop offset="1" stop-color="#F49A20"/>
</linearGradient>
<linearGradient id="paint5_linear" x1="86.8585" y1="38.916" x2="160.24" y2="38.9161" gradientUnits="userSpaceOnUse">
<stop offset="0.0368098" stop-color="#F7E38F"/>
<stop offset="0.1242" stop-color="#FADC62"/>
<stop offset="0.217" stop-color="#FCD539"/>
<stop offset="0.3015" stop-color="#FED11B"/>
<stop offset="0.374" stop-color="#FFCE09"/>
<stop offset="0.4262" stop-color="#FFCD03"/>
<stop offset="1" stop-color="#F49A20"/>
</linearGradient>
<linearGradient id="paint6_linear" x1="67.0147" y1="41.4534" x2="-6.35471" y2="40.27" gradientUnits="userSpaceOnUse">
<stop offset="0.0368098" stop-color="#F7E38F"/>
<stop offset="0.1242" stop-color="#FADC62"/>
<stop offset="0.217" stop-color="#FCD539"/>
<stop offset="0.3015" stop-color="#FED11B"/>
<stop offset="0.374" stop-color="#FFCE09"/>
<stop offset="0.4262" stop-color="#FFCD03"/>
<stop offset="1" stop-color="#F49A20"/>
</linearGradient>
</defs>
</svg>
