<?xml version="1.0" encoding="UTF-8" standalone="no"?>
<svg
   xmlns:dc="http://purl.org/dc/elements/1.1/"
   xmlns:cc="http://creativecommons.org/ns#"
   xmlns:rdf="http://www.w3.org/1999/02/22-rdf-syntax-ns#"
   xmlns:svg="http://www.w3.org/2000/svg"
   xmlns="http://www.w3.org/2000/svg"
   xmlns:sodipodi="http://sodipodi.sourceforge.net/DTD/sodipodi-0.dtd"
   xmlns:inkscape="http://www.inkscape.org/namespaces/inkscape"
   width="147"
   height="140.157"
   viewBox="0 0 147 140.157"
   fill="none"
   version="1.1"
   id="svg601"
   sodipodi:docname="trolleyEmpty.svg"
   inkscape:version="1.0.1 (3bc2e813f5, 2020-09-07)">
  <metadata
     id="metadata605">
    <rdf:RDF>
      <cc:Work
         rdf:about="">
        <dc:format>image/svg+xml</dc:format>
        <dc:type
           rdf:resource="http://purl.org/dc/dcmitype/StillImage" />
        <dc:title></dc:title>
      </cc:Work>
    </rdf:RDF>
  </metadata>
  <sodipodi:namedview
     pagecolor="#ffffff"
     bordercolor="#666666"
     borderopacity="1"
     objecttolerance="10"
     gridtolerance="10"
     guidetolerance="10"
     inkscape:pageopacity="0"
     inkscape:pageshadow="2"
     inkscape:window-width="1920"
     inkscape:window-height="1017"
     id="namedview603"
     showgrid="false"
     inkscape:zoom="6.0283688"
     inkscape:cx="79.064801"
     inkscape:cy="31.683529"
     inkscape:window-x="1672"
     inkscape:window-y="-8"
     inkscape:window-maximized="1"
     inkscape:current-layer="svg601"
     inkscape:document-rotation="0" />
  <path
     opacity="0.67"
     d="m 98.4472,35.391545 1.6898,1.9767 7.653,-1.9273 c 0,0 -6.659,1.4331 -7.256,1.3343 -0.6456,-0.0495 -2.0868,-1.3837 -2.0868,-1.3837 z"
     fill="#ffffff"
     id="path84" />
  <path
     opacity="0.67"
     d="m 55.4604,37.763245 -1.7393,1.9273 -7.6035,-2.0261 c 0,0 6.6095,1.532 7.2556,1.4825 0.646,-0.0988 2.0872,-1.3837 2.0872,-1.3837 z"
     fill="#ffffff"
     id="path98" />
  <path
     d="m 23.357,115.05265 -17.14504,0.198 v -3.311 H 0.496948 v 11.514 H 6.31135 v -3.41 H 24.6491 Z"
     fill="#656665"
     id="path134" />
  <path
     d="M 6.80832,123.94765 H 0 v -12.502 h 6.70893 v 3.311 l 17.04567,-0.198 1.5405,5.979 H 6.80832 Z m -5.814405,-0.988 H 5.8144 v -3.459 H 24.003 l -1.0436,-4.003 -17.24439,0.247 v -3.311 H 0.993915 Z"
     fill="#1d1d1b"
     id="path136" />
  <path
     opacity="0.5"
     d="m 0.496948,118.21565 v 5.238 H 6.31135 v -3.41 H 24.6491 l -0.497,-1.828 z"
     fill="#3d3e3d"
     id="path138" />
  <path
     opacity="0.7"
     d="m 1.39148,112.87865 h 3.82657 v 3.409 h 8.00105 l -8.89557,1.038 v -3.508 z"
     fill="#9f9f9f"
     id="path140" />
  <path
     d="m 123.643,115.05265 17.145,0.198 v -3.311 h 5.715 v 11.514 h -5.814 v -3.41 h -18.338 z"
     fill="#656665"
     id="path142" />
  <path
     d="m 140.192,120.48865 h -18.487 l 1.54,-5.979 17.046,0.197 v -3.311 H 147 v 12.503 h -6.808 z m 5.814,-8.055 h -4.721 v 3.311 l -17.244,-0.247 -1.044,4.003 h 18.139 v 3.459 h 4.82 v -10.526 z"
     fill="#1d1d1b"
     id="path144" />
  <path
     opacity="0.5"
     d="m 146.503,118.21565 v 5.238 h -5.814 v -3.41 h -18.338 l 0.447,-1.828 z"
     fill="#3d3e3d"
     id="path146" />
  <path
     opacity="0.7"
     d="m 145.608,112.87865 h -3.876 v 3.409 h -7.951 l 8.846,1.038 v -3.508 z"
     fill="#9f9f9f"
     id="path148" />
  <path
     d="M 126.625,105.16865 H 20.9717 v 16.308 H 126.625 Z"
     fill="#3d3e3d"
     id="path150" />
  <path
     d="M 127.122,121.97165 H 20.425 v -17.346 h 106.697 z m -105.6534,-1.038 H 126.128 v -15.27 H 21.4686 Z"
     fill="#1d1d1b"
     id="path152" />
  <path
     d="M 126.625,119.69765 H 20.9717 v 1.779 H 126.625 Z"
     fill="#3d3e3d"
     id="path154" />
  <path
     opacity="0.5"
     d="M 126.625,105.16865 H 20.9717 v 11.811 H 126.625 Z"
     fill="#3d3e3d"
     id="path156" />
  <path
     d="M 101.678,43.644445 H 45.9189 9.98889 l 7.55371,72.644205 h 28.3763 55.7591 28.376 l 7.554,-72.644205 z"
     fill="#6f4835"
     id="path158" />
  <path
     d="m 43.1358,67.216645 c 13.9645,0.6918 27.929,0.593 41.8935,0.7907 14.1633,0.1976 28.3267,0.6918 42.4897,1.2354 2.485,0.0988 4.92,0.1977 7.405,0.2471 l 2.683,-25.8454 H 9.98877 l 2.23633,21.4472 c 10.287,0.8895 20.574,1.6308 30.9107,2.125 z"
     fill="#b85c17"
     id="path160" />
  <path
     d="m 134.924,70.181645 c -2.485,-0.0988 -4.97,-0.1976 -7.405,-0.2471 -13.865,-0.5435 -28.2269,-1.0871 -42.4399,-1.2354 -3.6278,-0.0494 -7.2556,-0.0988 -10.8337,-0.0988 -10.1876,-0.0989 -20.7231,-0.1483 -31.1095,-0.6425 -9.2931,-0.4447 -19.4311,-1.1366 -30.9605,-2.1743 -0.2981,-0.0494 -0.5963,-0.2965 -0.5963,-0.593 l -2.23633,-21.4473 c 0,-0.1977 0.0497,-0.3953 0.14909,-0.4942 0.14909,-0.1482 0.29818,-0.1976 0.49696,-0.1976 H 137.607 c 0.199,0 0.348,0.0988 0.497,0.1976 0.15,0.1483 0.199,0.346 0.15,0.4942 l -2.684,25.8454 c 0,0.3459 -0.298,0.593 -0.646,0.593 z m -122.1025,-5.7324 c 11.2809,0.9883 21.2201,1.6802 30.3144,2.1249 10.3367,0.4942 20.8722,0.5931 31.0101,0.6425 3.6278,0.0494 7.2556,0.0494 10.8337,0.0988 14.213,0.1977 28.5753,0.7413 42.4903,1.2354 2.236,0.0989 4.522,0.1483 6.758,0.2471 l 2.535,-24.5111 H 10.7343 Z"
     fill="#5f3617"
     id="path162" />
  <path
     d="m 47.6084,89.454345 c 14.7596,-0.0494 29.4696,-0.8401 44.2292,-1.0871 13.6664,-0.2471 27.3324,0.5436 40.9994,1.3837 l 1.888,-18.334 c -2.833,-0.0988 -5.665,-0.1976 -8.498,-0.2965 -14.163,-0.5436 -28.3265,-1.0872 -42.4898,-1.2354 -13.9645,-0.1483 -27.929,-0.0989 -41.8935,-0.8401 -9.8397,-0.4942 -19.6298,-1.2355 -29.4199,-2.0756 l 2.3854,23.1769 c 10.8834,-0.9389 21.8165,-0.6424 32.7992,-0.6919 z"
     fill="#b85c17"
     id="path164" />
  <path
     d="m 14.8093,90.838145 c -0.3479,0 -0.6461,-0.2471 -0.6461,-0.593 l -2.3854,-23.1768 c 0,-0.1977 0.0497,-0.3954 0.1988,-0.5436 0.1491,-0.1483 0.3479,-0.1977 0.5467,-0.1977 10.7342,0.9389 20.3752,1.6308 29.4198,2.0756 11.1816,0.593 22.6116,0.6918 33.6441,0.7412 2.7332,0 5.4665,0.0494 8.2495,0.0494 14.5608,0.1483 29.4203,0.6919 42.4903,1.2355 2.832,0.0988 5.665,0.1976 8.497,0.2965 0.199,0 0.348,0.0988 0.497,0.2471 0.1,0.1482 0.199,0.3459 0.15,0.4941 l -1.889,18.334 c -0.05,0.3459 -0.348,0.6424 -0.696,0.593 -13.914,-0.8401 -27.481,-1.5814 -40.9489,-1.3837 -6.1623,0.0988 -12.424,0.2965 -18.4372,0.4942 -8.4482,0.247 -17.1947,0.5436 -25.792,0.593 h -1.7891 c -1.64,0 -3.2302,0 -4.8702,0 -1.6399,0 -3.2302,0 -4.8205,0 -6.8083,0 -14.0639,0.0988 -21.22,0.7412 -0.1491,0 -0.1491,0 -0.1988,0 z m -1.64,-23.1274 2.2363,21.7437 c 7.0071,-0.593 14.0639,-0.6918 20.6734,-0.6918 1.64,0 3.2303,0 4.8702,0 1.64,0 3.2303,0 4.8702,0 h 1.7891 c 8.5973,0 17.2941,-0.2965 25.7424,-0.593 6.0628,-0.1977 12.3245,-0.3954 18.4868,-0.4942 13.3183,-0.2471 26.6863,0.4942 40.4023,1.3343 l 1.789,-16.9997 c -2.584,-0.0988 -5.218,-0.1976 -7.802,-0.2965 -13.12,-0.4941 -27.9786,-1.0872 -42.4897,-1.2354 -2.7333,-0.0494 -5.4666,-0.0494 -8.2495,-0.0494 -11.0325,-0.0989 -22.4625,-0.1483 -33.6937,-0.7413 -8.8459,-0.3953 -18.1887,-1.0872 -28.6248,-1.9767 z"
     fill="#5f3617"
     id="path166" />
  <path
     opacity="0.3"
     d="m 128.613,82.980945 c -6.014,0.1482 -12.027,0.8401 -18.04,0.8895 -3.28,0.0494 -6.51,0.0494 -9.79,0.5436 -2.6836,0.3953 -5.3175,0.9389 -8.0011,1.186 -6.0131,0.5436 -12.2251,-0.1977 -18.2383,-0.4942 -12.7221,-0.593 -25.2951,-1.9767 -38.0172,-1.8779 -3.0812,0.0495 -6.3114,0.3954 -9.3925,0 -1.5903,-0.1976 -2.9818,-0.1976 -4.5224,0.2965 -0.7454,0.2471 -1.5902,0.5436 -2.3853,0.5931 -2.0873,0.0988 -3.5781,-0.939 -5.1187,-2.1744 -0.3976,-0.2965 -0.7951,-0.593 -1.1927,-0.8895 l 0.9442,9.1422 c 10.8834,-0.9883 21.8164,-0.6918 32.7992,-0.6918 14.7596,-0.0494 29.4696,-0.8401 44.2292,-1.0872 13.6666,-0.2471 27.3326,0.5436 40.9986,1.3837 l 0.696,-6.6714 c -1.69,-0.1482 -3.329,-0.1977 -4.969,-0.1482 z"
     fill="#703405"
     id="path168" />
  <path
     d="m 89.2038,90.344145 c -14.3123,0.346 -28.575,1.0378 -42.8874,0.9884 -10.4858,-0.0494 -20.9219,-0.2471 -31.2586,0.6918 l 2.5345,24.264305 H 130.153 l 2.535,-24.659605 c -14.512,-0.8401 -28.973,-1.6308 -43.4842,-1.2849 z"
     fill="#b85c17"
     id="path170" />
  <path
     d="M 130.054,116.97965 H 17.5426 c -0.3479,0 -0.6461,-0.247 -0.6461,-0.593 L 14.3621,92.123045 c 0,-0.1976 0.0497,-0.3459 0.149,-0.4941 0.0994,-0.1483 0.2982,-0.2471 0.4473,-0.2471 7.1065,-0.6424 14.213,-0.7413 20.2262,-0.7413 2.2363,0 4.4726,0 6.7089,0.0494 1.4909,0 2.932,0 4.4229,0 h 1.3915 c 9.0446,0 18.288,-0.2965 27.1836,-0.593 4.7211,-0.1482 9.5416,-0.2965 14.362,-0.4447 2.3854,-0.0494 4.8205,-0.0989 7.3053,-0.0989 12.4732,0 25.1962,0.6919 36.1292,1.3837 0.198,0 0.347,0.0989 0.447,0.2471 0.099,0.1483 0.149,0.2965 0.149,0.4942 l -2.535,24.659305 c -0.049,0.395 -0.347,0.642 -0.695,0.642 z m -111.9151,-1.334 H 129.457 l 2.435,-23.374305 c -10.783,-0.6424 -23.207,-1.3343 -35.3829,-1.3343 -2.4848,0 -4.9199,0.0494 -7.3053,0.0989 -4.7707,0.0988 -9.6409,0.247 -14.3123,0.4447 -8.8956,0.2965 -18.139,0.593 -27.2333,0.593 h -1.3915 c -1.4908,0 -2.932,0 -4.4229,0 -2.2363,0 -4.4726,0 -6.7089,0 -5.7647,0 -12.573,0.0989 -19.4311,0.6425 z"
     fill="#5f3617"
     id="path172" />
  <path
     opacity="0.4"
     d="m 127.271,105.56465 c -13.02,0.642 -25.892,-1.927 -38.912,-2.125 -13.0203,-0.198 -26.2393,-0.297 -39.2596,0.445 -6.2617,0.346 -12.7718,1.779 -19.0335,1.136 -3.0314,-0.296 -6.0629,-0.939 -9.0943,-0.79 -1.5903,0.098 -3.1805,0.247 -4.7211,0.346 l 1.2424,11.761 H 130.054 l 1.143,-10.971 c -1.292,0.05 -2.584,0.148 -3.926,0.198 z"
     fill="#e59051"
     id="path174" />
  <path
     opacity="0.3"
     d="m 125.78,64.844645 c -6.808,0.1976 -13.666,1.3837 -20.524,1.2848 -3.181,-0.0494 -6.3118,-0.4941 -9.4923,-0.6424 -3.2303,-0.1977 -6.4108,0.1483 -9.641,0.1483 -6.7089,-0.0495 -13.3682,-0.3954 -20.0771,-0.1483 -6.4604,0.2471 -12.9209,-0.0988 -19.3813,-0.4942 -6.858,-0.4447 -13.6664,-1.1366 -20.5244,-1.4331 -3.429,-0.1482 -6.7089,-0.0988 -10.0882,0.3954 -1.3418,0.1976 -2.6339,0.3459 -3.926,0.3459 l 0.0994,0.7907 c 10.287,0.8895 20.5741,1.6802 30.9108,2.1743 13.9645,0.6919 27.929,0.593 41.8935,0.7907 14.1633,0.1977 28.3266,0.6919 42.4896,1.2355 2.485,0.0988 4.92,0.1976 7.405,0.247 l 0.497,-4.8429 c -3.23,0.0494 -6.411,0.0494 -9.641,0.1483 z"
     fill="#703405"
     id="path176" />
  <g
     opacity="0.7"
     id="g218"
     transform="translate(0,-0.84335457)">
    <path
       opacity="0.7"
       d="m 27.6805,58.9175 c -1.292,0.1482 -2.5344,0.2471 -3.7768,0.4942 -1.4412,0.247 -2.8327,0.6918 -4.1745,1.2354 3.0315,-0.3459 6.1126,-0.7907 9.0943,-0.5436 1.9382,0.1483 0.0994,1.6802 -0.7951,2.125 -0.9442,0.4941 -1.9878,0.7906 -3.0314,1.0871 -2.0375,0.5931 -4.0254,1.3837 -6.0629,1.7791 -0.2982,0.0494 -0.5964,0.6424 -0.0994,0.593 2.8327,-0.2965 5.9635,-1.3343 8.6968,-2.3226 1.1927,-0.3954 3.6774,-1.6802 3.5781,-3.311 -0.0994,-0.8895 -1.5406,-1.1366 -3.4291,-1.1366 z"
       fill="#e59051"
       id="path178" />
    <path
       opacity="0.7"
       d="m 40.7008,58.1763 c -1.9381,2.2238 -5.715,3.4098 -8.3489,4.497 -2.2363,0.9389 -4.5223,1.6802 -6.7586,2.6191 2.9321,-0.8895 5.8144,-2.0261 8.6968,-3.0144 1.2921,-0.4448 2.5842,-0.939 3.9259,-1.3837 1.7891,-0.7907 3.5781,-1.8285 4.1248,-3.5087 0.9442,-2.965 -6.8083,-2.7179 -8.001,-2.7179 -6.4108,0.0494 -12.8712,-0.3954 -19.1329,1.1366 -0.1988,0.0494 -0.4472,0.4941 -0.0994,0.4447 5.5163,-0.8895 10.9331,-0.2965 16.499,-0.2471 1.0933,0.0495 10.8337,0.1977 9.0943,2.1744 z"
       fill="#e59051"
       id="path180" />
    <path
       opacity="0.7"
       d="m 23.6552,50.2202 c -0.1988,0 -0.497,0.4448 -0.1988,0.4448 4.9696,0.0988 9.8895,0.7412 14.8093,1.5813 4.8702,0.8401 9.8895,1.532 14.6603,2.718 2.932,0.7413 -2.3357,3.0639 -3.0812,3.3604 -1.8884,0.6918 -3.6277,1.7296 -5.4168,2.6191 -4.0253,2.0262 -8.5477,2.4709 -12.573,4.3982 3.2799,-0.8401 6.6592,-1.532 9.9391,-2.2732 2.0376,-0.7907 3.9757,-1.8779 5.9635,-2.8168 2.286,-1.0872 7.2556,-1.8285 7.8519,-4.8429 0.5964,-3.0639 -28.8235,-5.1889 -31.9543,-5.1889 z"
       fill="#e59051"
       id="path182" />
    <path
       opacity="0.7"
       d="m 71.4128,54.4206 c -0.646,-0.9389 -2.4848,-1.186 -3.5284,-1.5319 -2.286,-0.7907 -4.6714,-1.4331 -7.0568,-1.9767 -4.8205,-1.1861 -9.7403,-2.0756 -14.6602,-2.6686 -0.1988,0 -0.4473,0.3459 -0.2485,0.3954 4.7708,1.0871 9.5913,1.8778 14.3124,3.0638 2.3357,0.593 4.6714,1.3343 6.9574,2.125 0.8945,0.2965 1.789,0.6424 2.6836,0.9883 0.8448,0.2966 -2.286,1.8285 -2.7333,2.0756 -4.0254,2.0261 -8.2992,3.558 -12.4239,5.4359 -2.4848,1.1366 -5.0193,2.0756 -7.6035,2.8168 -1.9878,0.593 -4.0751,0.7413 -6.1126,1.2355 2.9818,0.1482 6.2617,-0.7413 9.1937,-1.4332 2.6339,-0.9389 5.2181,-2.0755 7.7526,-3.2615 3.0314,-1.4331 6.2119,-2.5203 9.2434,-3.904 1.4412,-0.6424 3.429,-1.4331 4.2241,-2.9156 0.1491,-0.1483 0.0994,-0.2965 0,-0.4448 z"
       fill="#e59051"
       id="path184" />
    <path
       opacity="0.7"
       d="m 123.146,50.6155 c -6.013,0.5436 -12.026,1.4825 -17.99,2.372 -6.162,0.939 -12.3243,1.3837 -18.4369,2.2732 -5.6156,0.7907 -10.784,3.1628 -15.9523,5.2877 -4.4726,1.8285 -9.8895,4.4476 -14.859,5.09 -0.7952,0.1483 -1.5903,0.3459 -2.2364,0.6919 4.3733,0.3459 8.6968,-1.532 12.7719,-2.8662 5.9634,-1.9273 11.5294,-5.0406 17.6419,-6.5232 6.0132,-1.4331 12.2749,-1.5319 18.3378,-2.6191 6.858,-1.2849 13.815,-1.8779 20.673,-3.1133 0.249,-0.0494 0.497,-0.593 0.05,-0.593 z"
       fill="#e59051"
       id="path186" />
    <path
       opacity="0.7"
       d="m 130.054,53.5311 c -11.778,-0.3459 -23.655,3.311 -35.0357,5.9796 -10.3865,2.4214 -20.7729,5.7324 -31.4077,7.1655 -0.5467,0.1977 -1.143,0.3954 -1.6897,0.6424 10.287,-0.8895 20.2759,-3.9039 30.3144,-6.2266 12.1757,-2.8662 24.9967,-6.9184 37.5697,-7.0173 0.249,-0.0988 0.547,-0.5436 0.249,-0.5436 z"
       fill="#e59051"
       id="path188" />
    <path
       opacity="0.7"
       d="m 132.936,54.5689 c -2.087,0.8401 -4.274,0.7907 -6.46,1.186 -2.286,0.3954 -4.523,0.8895 -6.759,1.4826 -4.324,1.1366 -8.448,3.1133 -12.672,4.5958 -8.2002,2.8168 -16.9963,4.2993 -25.6434,5.4853 -0.1491,0.0495 -0.2982,0.0989 -0.4473,0.1483 -1.6399,0.4942 -3.429,0.593 -5.0689,1.0378 4.6714,-0.1977 9.4919,-1.2355 14.0639,-2.0262 5.3174,-0.9389 10.6847,-1.9272 15.8527,-3.5086 5.019,-1.532 9.79,-3.8052 14.859,-5.2383 3.926,-1.0872 8.548,-1.0377 12.275,-2.7179 0.298,-0.1483 0.348,-0.5931 0,-0.4448 z"
       fill="#e59051"
       id="path190" />
    <path
       opacity="0.7"
       d="m 133.185,57.2869 c -10.983,2.5697 -21.519,6.7208 -32.452,9.3894 1.044,-0.1483 2.087,-0.346 3.081,-0.4448 9.84,-2.5203 19.382,-5.9795 29.222,-8.3516 0.347,-0.0494 0.596,-0.6918 0.149,-0.593 z"
       fill="#e59051"
       id="path192" />
    <path
       opacity="0.7"
       d="m 132.837,60.1531 c -5.715,1.2849 -11.43,3.311 -16.698,5.9796 0.994,-0.0989 1.938,-0.2966 2.932,-0.4942 4.473,-1.8285 8.896,-3.7558 13.666,-4.9912 0.249,-0.0494 0.448,-0.5436 0.1,-0.4942 z"
       fill="#e59051"
       id="path194" />
    <path
       opacity="0.7"
       d="M 130.75,73.743 C 111.269,72.8535 91.7383,74.4843 72.2576,73.5947 62.3682,73.15 52.5284,72.4087 42.6887,71.7663 37.6694,71.4698 32.6004,71.0745 27.5314,71.0745 c -1.9381,0 -3.9259,0 -5.8144,0.247 -2.286,0.2471 -4.4726,0.939 -6.8083,0.4942 -0.2484,-0.0494 -0.5466,0.4448 -0.2484,0.4942 3.578,0.7907 7.6531,-0.4448 11.2809,-0.4942 5.0193,-0.0988 10.0385,0.3459 15.0081,0.6919 9.8895,0.6424 19.7292,1.3837 29.6187,1.8778 9.5415,0.4448 19.1328,0 28.6744,0.2965 5.2176,0.1483 10.3866,-0.1482 15.5546,-0.1976 5.169,-0.0495 10.387,0.1482 15.555,-0.0989 0.447,0 0.845,-0.6424 0.398,-0.6424 z"
       fill="#e59051"
       id="path196" />
    <path
       opacity="0.7"
       d="m 64.9027,77.2022 c -2.0376,-1.4826 -5.3672,-1.1861 -7.7526,-1.4826 -4.6217,-0.5436 -9.3428,-0.3953 -14.0142,-0.3953 -8.5973,0 -17.0456,-0.8895 -25.5436,0.9883 -0.2485,0.0495 -0.4473,0.5436 -0.0994,0.4448 7.9513,-1.4825 16.002,-0.9389 24.0528,-0.6918 3.8265,0.0988 7.6034,0.0494 11.43,0.1482 1.7393,0.0494 3.429,0.2471 5.1683,0.4448 0.8449,0.0988 1.7394,0.1976 2.5842,0.2471 0.0994,0 3.1308,0.6918 2.5842,0.9883 -2.6339,1.2849 -6.3611,0.9884 -9.1937,1.3837 -3.8763,0.5436 -7.7029,1.2354 -11.5791,1.8285 -8.5974,1.2848 -16.996,0.6918 -25.643,1.186 -0.2982,0 -0.7952,0.6918 -0.2982,0.6918 9.0943,0.1977 18.0395,0.0494 27.0345,-1.2848 4.4726,-0.6919 8.9949,-1.7297 13.5669,-2.0262 2.5842,-0.1976 5.3672,-0.2965 7.5538,-1.8778 0.0497,-0.0494 0.3478,-0.3954 0.1491,-0.593 z"
       fill="#e59051"
       id="path198" />
    <path
       opacity="0.7"
       d="m 40.4524,77.1527 c -8.2495,-0.1482 -16.499,-0.6424 -24.6988,0.4448 -0.2982,0.0494 -0.5467,0.593 -0.0994,0.5436 7.0568,-0.6919 14.1136,-0.4942 21.1704,-0.2965 -3.9757,0.7906 -7.9513,1.4825 -11.9767,1.6307 -3.1805,0.1483 -7.7028,-1.1366 -10.4361,0.7413 -0.2982,0.1977 -0.2982,0.8401 0.1491,0.593 2.0375,-1.0872 5.218,-0.5436 7.4543,-0.4942 1.6897,0 3.3794,-0.0494 5.0193,-0.1976 4.4229,-0.4942 8.8459,-1.2849 13.1694,-2.2238 0.2982,0 0.7951,-0.7413 0.2485,-0.7413 z"
       fill="#e59051"
       id="path200" />
    <path
       opacity="0.7"
       d="m 129.457,85.9491 c -8.995,-0.6425 -18.139,-0.4448 -27.183,0.0494 -9.5914,0.5436 -19.2324,-0.6919 -28.8734,-0.6919 -18.3874,0 -36.8742,0.939 -55.1622,2.718 -0.3479,0.0494 -0.6461,0.7413 -0.1491,0.6918 18.2383,-1.3836 36.5263,-2.1743 54.8144,-2.3226 9.1937,-0.0494 18.3377,1.0378 27.4813,0.8401 9.741,-0.2471 19.332,-0.1976 28.625,-0.4447 0.497,0 1.044,-0.7907 0.447,-0.8401 z"
       fill="#e59051"
       id="path202" />
    <path
       opacity="0.7"
       d="m 132.936,80.019 c -8.001,0.4942 -16.35,-0.2471 -24.4,-1.186 2.385,-0.1483 4.77,-0.0989 7.106,-0.2965 4.324,-0.3954 8.597,-1.2355 12.921,-0.1977 0.298,0.0494 0.795,-0.4942 0.397,-0.593 -0.099,-0.0494 -0.248,-0.0494 -0.347,-0.0988 0.099,-0.1483 0.149,-0.2965 0,-0.3954 -4.374,-1.4825 -8.995,-1.2848 -13.567,-1.2848 -6.262,0 -12.474,-0.0494 -18.7356,0.1482 -5.5163,0.1977 -11.0325,0.6425 -16.5487,1.1366 -2.9818,0.2471 -6.858,-0.1976 -9.2931,1.8285 -0.1988,0.1976 -0.2982,0.5436 -0.0497,0.6918 3.0811,1.9767 7.6531,2.0756 11.1815,2.6191 5.715,0.8401 11.4301,0.9884 17.1948,0.8896 5.4168,-0.0989 10.8338,-0.3954 16.2508,-0.2965 5.218,0.0988 10.386,0.1976 15.505,-0.7907 0.397,-0.0494 0.695,-0.8401 0.149,-0.7413 -5.069,0.7907 -10.138,0.6919 -15.257,0.6424 -5.417,-0.0988 -10.833,0.1977 -16.2503,0.2965 -4.9695,0.0989 -9.8894,10e-5 -14.8093,-0.593 -3.8763,-0.4447 -9.2434,-0.6424 -12.8215,-2.5697 2.6339,-1.4825 7.8022,-0.9883 10.5355,-1.2354 5.4168,-0.4448 10.8834,-0.8401 16.3002,-1.0378 5.0194,-0.1977 10.0384,-0.2471 15.0574,-0.1976 4.026,0.0494 8.151,-0.2966 12.126,0.3953 -2.534,-0.1977 -5.069,0.0494 -7.603,0.2965 -4.423,0.4942 -8.995,0 -13.319,0.9389 -0.348,0.0989 -0.944,0.8895 -0.298,0.939 4.771,0.593 9.591,0.7906 14.362,1.1366 4.672,0.3459 9.343,0.8401 14.014,0.1976 0.299,0 0.646,-0.6424 0.199,-0.6424 z"
       fill="#e59051"
       id="path204" />
    <path
       opacity="0.7"
       d="m 126.525,91.4343 c -17.741,0.8895 -35.4824,2.125 -53.2238,3.4098 -10.0882,0.7413 -19.6298,0.346 -29.6683,-0.9883 -4.572,-0.6424 -9.144,-1.1366 -13.7161,-1.2355 -4.2241,-0.0988 -8.5973,0.8896 -12.7718,0.5931 -0.1987,0 -0.4472,0.3953 -0.1987,0.4447 4.075,0.6919 8.4979,-0.2471 12.6227,-0.2471 4.6217,0.0494 9.1937,0.6425 13.716,1.2849 9.144,1.2354 17.9899,1.8779 27.1836,1.2354 17.0953,-1.2848 34.1904,-2.1249 51.2864,-3.2615 1.59,-0.4448 3.18,-0.8401 4.77,-1.2355 z"
       fill="#e59051"
       id="path206" />
    <path
       opacity="0.7"
       d="M 45.9189,98.6987 C 43.285,96.6726 39.5578,96.4749 36.3276,96.2278 30.6623,95.8325 24.9473,95.6843 19.282,95.9313 c -0.2485,0 -0.5467,0.4942 -0.2485,0.4942 7.6034,0.3954 16.1014,-0.1977 23.4564,1.9273 2.932,0.8401 0.2485,1.8282 -1.2921,2.2732 -2.286,0.642 -4.572,1.334 -6.858,1.977 -4.6714,1.334 -9.2931,1.927 -14.1633,1.383 -0.2982,-0.049 -0.7951,0.593 -0.3976,0.692 4.6714,1.384 9.7404,0.198 14.3621,-1.038 2.6836,-0.691 5.3671,-1.482 8.0507,-2.273 1.3915,-0.395 2.6339,-0.84 3.6278,-1.927 0.0994,-0.0988 0.3479,-0.5436 0.0994,-0.7413 z"
       fill="#e59051"
       id="path208" />
    <path
       opacity="0.7"
       d="m 32.4016,98.0564 c -2.0872,-0.6918 -4.2738,-0.4941 -6.4604,-0.4447 -2.3854,0 -4.7211,-0.4448 -7.0568,0.2471 -0.2982,0.0988 -0.6461,0.7906 -0.1491,0.6918 1.9878,-0.4942 4.0254,-0.0988 6.0629,-0.0494 2.0872,0.0494 4.2738,-0.1977 6.3113,0.3459 -1.1927,0.9389 -2.932,1.3339 -4.3235,1.7299 -2.0872,0.593 -4.0253,1.235 -6.212,1.334 -0.3975,0 -1.0436,0.84 -0.3975,0.939 2.5842,0.247 5.218,-0.84 7.6034,-1.581 1.7394,-0.495 3.4787,-1.137 4.6714,-2.5701 0.1491,-0.1977 0.2485,-0.5931 -0.0497,-0.6425 z"
       fill="#e59051"
       id="path210" />
    <path
       opacity="0.7"
       d="m 114.996,101.565 c 3.926,-1.038 7.852,-2.0262 11.927,-2.4709 -3.23,-0.4942 -6.411,0.4941 -9.591,1.0379 -5.119,0.84 -10.387,0.84 -15.555,0.494 -9.4423,-0.6424 -18.3875,-0.494 -27.7303,1.087 -10.0883,1.73 -19.8286,4.547 -30.1156,5.14 -4.6714,0.247 -9.2931,-0.247 -13.9645,-0.742 -3.1806,-0.296 -7.3053,-0.79 -10.138,0.939 -0.3478,0.198 -0.2484,0.742 0.1988,0.494 3.7769,-2.124 10.3367,-0.395 14.4118,0.099 4.3235,0.494 8.6967,0.445 13.0203,0.05 8.9452,-0.742 17.5923,-3.262 26.3884,-4.843 9.144,-1.631 18.2383,-1.829 27.4821,-1.087 4.075,0.346 8.15,0.296 12.225,-0.05 0.397,0 0.894,-0.099 1.441,-0.148 z"
       fill="#e59051"
       id="path212" />
    <path
       opacity="0.7"
       d="m 123.494,95.536 c 1.044,-0.2471 2.087,-0.4942 3.131,-0.6424 -5.666,0.1482 -11.331,-0.0495 -16.996,0.3953 -7.405,0.5436 -14.7101,1.6802 -22.1645,1.8779 -7.0071,0.1976 -13.6166,0.8401 -20.4746,2.3226 -3.0811,0.6916 -6.212,1.3836 -9.2931,2.2236 -1.143,0.297 -2.3357,0.692 -3.5781,0.989 -0.2485,0.098 -0.4473,0.148 -0.6957,0.247 -0.8946,0.346 -1.8885,0.642 -2.9321,0.84 3.7272,0.296 8.001,-1.433 11.3803,-2.175 7.852,-1.7293 15.5548,-2.8165 23.6552,-2.9647 6.8083,-0.1483 13.3682,-0.8895 20.1266,-1.5814 3.976,-0.3953 8.001,-0.4942 11.977,-0.593 2.037,-0.1977 3.975,-0.4942 5.864,-0.9389 z"
       fill="#e59051"
       id="path214" />
    <path
       opacity="0.7"
       d="m 126.724,103.443 c -1.69,0.296 -3.479,0.346 -5.218,0.543 -2.783,0.346 -5.566,0.692 -8.349,1.186 -5.118,0.841 -10.336,0.791 -15.4552,1.434 -5.4168,0.691 -10.5355,2.223 -16.0517,2.223 -2.5842,0 -5.1186,-0.296 -7.7028,-0.098 -2.783,0.247 -5.4169,0.938 -8.1501,1.383 -0.2982,0.05 -0.6958,0.741 -0.2485,0.692 2.3357,-0.148 4.572,-0.84 6.9077,-1.087 3.3296,-0.346 6.6095,-0.05 9.9392,0.099 5.0689,0.197 10.0385,-1.038 15.0081,-1.779 5.5663,-0.84 11.1813,-0.742 16.6973,-1.779 0.497,-0.099 1.044,-0.198 1.541,-0.297 3.727,-0.889 7.504,-1.334 11.082,-2.52 z"
       fill="#e59051"
       id="path216" />
  </g>
  <path
     opacity="0.3"
     d="m 23.0588,43.891545 4.4727,63.452105 90.7945,-2.224 7.802,-58.559605 z m 94.6702,15.6159 c 0,0 -1.839,4.0028 -2.335,4.3488 -0.497,0.3459 1.838,3.0144 1.838,3.0144 l -40.5018,2.6686 40.6508,1.8284 0.149,2.3227 c 0,0 -1.838,3.1627 -2.335,3.1627 -0.497,0 0.348,9.4882 0.348,9.4882 l -3.032,1.6802 -33.296,2.8168 37.322,0.6424 -1.094,3.7557 c -1.689,0.0989 -3.379,0.1483 -5.019,0.593 -0.298,0.0989 -0.298,0.4448 -0.099,0.5931 1.242,0.8895 2.683,1.4825 4.174,1.9272 l -0.696,2.125005 -81.1529,2.669 -0.7454,-4.052705 c 0.5466,-0.3953 1.0933,-0.7907 1.6399,-1.2354 0.1491,-0.1483 0.0994,-0.4448 -0.0497,-0.5436 -0.3975,-0.1977 -0.7951,-0.3954 -1.143,-0.6919 l 0.497,-2.8662 30.7617,-4.6452 -30.9605,-0.346 c 0,0 -0.3976,-5.6336 -0.7454,-10.9707 0.8448,-0.5436 1.7393,-1.0377 2.5842,-1.5319 0.1987,-0.0989 0.1987,-0.3459 0.0497,-0.5436 -0.8449,-1.0872 -1.8885,-1.9767 -2.9321,-2.9157 -0.0994,-2.6685 -0.1491,-4.5464 0,-4.497 0.497,0.1483 30.6126,-0.4941 30.1156,-0.6424 -0.4969,-0.1482 -6.7089,-0.1482 -18.0892,-1.8284 -11.3803,-1.6802 -12.2252,-1.6802 -12.2252,-1.6802 l 1.3418,-2.1744 -2.8327,-1.186 c 0,0 0,0 -0.4969,-0.8401 -0.497,-0.8401 2.3357,-3.311 2.1866,-3.6569 -0.1491,-0.3459 -1.3418,-2.6686 -1.3418,-2.6686 v -3.8051 l 1.9878,1.6802 10.0386,0.6424 c 0,0 24.9472,-0.4942 25.4442,-0.1483 0.5467,0.346 15.0578,0.8401 15.8529,0.8401 0.8449,0 26.5868,-0.3459 27.0838,-0.6424 0.497,-0.3459 8.349,-0.3459 8.349,-0.3459 z"
     fill="#703405"
     id="path220" />
  <path
     d="M 6.55988,34.897345 15.7039,116.63365 H 31.5071 L 26.637,47.597645 Z"
     fill="#ba6c0f"
     id="path222" />
  <path
     d="M 31.5071,117.32665 H 15.7039 c -0.3479,0 -0.6461,-0.247 -0.6461,-0.593 L 5.91381,34.947645 c -0.0497,-0.2471 0.09939,-0.4942 0.29817,-0.6425 0.19878,-0.1482 0.49696,-0.1482 0.69574,0 l 20.07708,12.7498 c 0.1988,0.0988 0.2982,0.2965 0.2982,0.4942 l 4.8702,69.036505 c 0,0.197 -0.0497,0.346 -0.1988,0.494 -0.0497,0.148 -0.2485,0.247 -0.4473,0.247 z m -15.2069,-1.334 H 30.8114 L 25.9909,47.993845 7.40468,36.183045 Z"
     fill="#743c25"
     id="path224" />
  <path
     d="m 141.732,35.243045 -10.734,81.390605 h -15.803 l 7.404,-68.097205 z"
     fill="#ba6c0f"
     id="path226" />
  <path
     d="m 130.998,117.32565 h -15.853 c -0.199,0 -0.348,-0.099 -0.497,-0.197 -0.149,-0.149 -0.199,-0.346 -0.149,-0.495 l 7.405,-68.097105 c 0,-0.1977 0.099,-0.3459 0.298,-0.4942 l 19.133,-13.2933 c 0.198,-0.1483 0.497,-0.1483 0.745,0 0.249,0.1482 0.348,0.3953 0.298,0.6424 l -10.684,81.341205 c -0.05,0.346 -0.348,0.593 -0.696,0.593 z m -15.058,-1.334 h 14.511 l 10.436,-79.315305 -17.642,12.2061 z"
     fill="#743c25"
     id="path228" />
  <path
     d="m 30.4138,105.26765 -14.7099,11.366 H 130.054 l -13.667,-13.688 z"
     fill="#ba6c0f"
     id="path230" />
  <path
     d="M 130.054,117.32565 H 15.7038 c -0.2981,0 -0.5466,-0.197 -0.646,-0.444 -0.0994,-0.247 0,-0.544 0.1988,-0.742 l 14.7099,-11.366 c 0.0994,-0.098 0.2485,-0.148 0.3976,-0.148 l 86.0229,-2.323 c 0.199,0 0.348,0.05 0.497,0.198 l 13.667,13.689 c 0.198,0.197 0.248,0.494 0.149,0.741 -0.1,0.198 -0.348,0.395 -0.646,0.395 z m -112.412,-1.334 h 110.821 l -12.324,-12.354 -85.4767,2.322 z"
     fill="#743c25"
     id="path232" />
  <path
     d="m 6.65918,34.798445 20.07712,12.7992 96.2107,1.0872 18.736,-13.8864 z"
     fill="#ba6c0f"
     id="path234" />
  <path
     d="m 122.948,49.376745 -96.2107,-1.0872 c -0.1491,0 -0.2485,-0.0494 -0.3479,-0.0988 L 6.26262,35.391645 c -0.24847,-0.1483 -0.34787,-0.4448 -0.29817,-0.7413 0.09939,-0.2965 0.34787,-0.4942 0.64605,-0.4942 H 141.634 c 0.298,0 0.546,0.1977 0.646,0.4448 0.099,0.2965 0,0.593 -0.249,0.7412 l -18.735,13.8864 c -0.099,0.0988 -0.199,0.1482 -0.348,0.1482 z m -96.0119,-2.4214 95.7639,1.0871 16.946,-12.552 H 8.94619 Z"
     fill="#743c25"
     id="path236" />
  <path
     opacity="0.3"
     d="M 141.683,34.798445 H 6.65919 l 0.64605,0.3954 -0.69574,-0.2965 9.0943,81.736305 H 131.048 l 10.684,-81.390405 z m -125.8798,2.5203 c 3.8763,-0.4941 7.8519,0.1977 11.7779,-0.0494 4.0254,-0.2471 8.001,-0.2965 12.0761,-0.1482 8.1004,0.2471 16.1014,0.5436 24.2018,0.3459 8.3489,-0.1977 16.7475,-0.6424 25.0963,-0.7413 4.1745,-0.0494 8.3489,-0.0494 12.5727,0.0989 3.032,0.0988 6.163,0.0988 9.194,0.3459 1.739,-0.0494 3.479,-0.2471 5.218,-0.3459 6.56,-0.3954 13.219,0.593 19.729,-0.593 0.299,-0.0495 0.597,0.2965 0.299,0.5435 -0.1,0.0989 -0.249,0.1977 -0.348,0.2966 0,0.0494 0,0.0988 -0.05,0.1482 -0.596,1.0872 -1.789,1.5814 -2.932,1.9767 -0.05,0.0494 -0.149,0.0494 -0.199,0.0988 -1.193,0.6919 -2.336,1.3343 -3.429,2.1744 -1.988,1.4825 -4.025,2.9651 -6.361,3.8546 -0.845,0.4447 -1.491,0.4447 -2.236,0.3459 -0.05,0 -0.1,0.0494 -0.149,0.0494 -18.388,0 -36.8249,0.3954 -55.2123,-0.1976 -9.0943,-0.2965 -18.1886,-0.593 -27.283,-0.4942 -3.9259,0.0494 -8.1501,0.5436 -11.9269,-0.8895 -2.9818,-1.1366 -5.6654,-2.8168 -8.1502,-4.7441 -0.7454,-0.4448 -1.4411,-0.939 -2.0872,-1.532 -0.2981,-0.1976 -0.0994,-0.4941 0.1988,-0.5436 z m 106.7958,11.3661 -5.913,54.457805 -0.249,-0.247 -85.6754,2.323 -4.1247,-57.621005 0.0497,0.0494 z M 16.8965,111.93965 c -0.646,-2.372 -0.5466,-4.942 -0.8448,-7.364 -0.3479,-3.014 -0.7951,-6.028505 -1.143,-9.092405 -0.5964,-6.0783 -1.3418,-12.0579 -2.0872,-18.1362 -0.7455,-5.9796 -1.143,-12.0085 -1.7394,-17.988 -0.2982,-3.0639 -0.7454,-6.1278 -1.29208,-9.1917 -0.14908,-0.9389 -0.34787,-1.8779 -0.44726,-2.8168 -0.64604,-2.372 -1.19269,-4.7935 -1.29209,-7.3138 0,-0.2965 0.29818,-0.3953 0.49696,-0.2965 3.32957,1.3837 5.96347,3.9534 8.89557,6.0289 2.0375,1.4332 4.5223,3.0145 5.5162,5.436 1.2424,3.2121 1.1927,6.9679 1.2424,10.3777 0.0497,3.8545 0.3479,7.6103 0.7454,11.4649 0.3976,4.2499 0.8946,8.4998 1.0933,12.7497 0.1988,3.9534 0.2485,7.9068 0.6461,11.8602 0.2982,2.866005 1.9381,6.474005 -0.8448,8.648005 -1.2424,0.939 -2.6836,1.532 -3.9757,2.372 -1.5406,1.038 -2.9818,2.175 -4.4229,3.311 -0.1491,0.247 -0.4473,0.247 -0.5467,-0.049 z m 106.6475,1.828 c -3.827,0.247 -7.654,0.544 -11.48,0 -0.1,0 -0.199,-0.099 -0.249,-0.198 -6.559,-0.148 -13.0696,0 -19.6294,0.05 -8.2992,0.099 -16.6978,-0.544 -24.9473,0.395 -4.3235,0.494 -8.4483,0.791 -12.8215,0.396 -3.926,-0.346 -7.7525,-0.396 -11.6785,0 -4.0751,0.395 -8.1501,0.593 -12.2748,0.543 -2.8327,0 -6.0629,0.395 -8.7465,-0.741 -0.1988,-0.099 -0.2485,-0.395 -0.0497,-0.544 2.8327,-2.174 5.7647,-4.2 8.498,-6.424 0,-0.148 0.0497,-0.296 0.2485,-0.296 0.0497,0 0.149,0 0.1987,0 0.0994,-0.099 0.2485,-0.099 0.3479,-0.05 2.9321,-0.395 6.1623,0.05 9.0943,0.099 3.6775,0.099 7.3053,0.148 10.9828,0.148 7.0568,0 14.1633,-0.197 21.1704,-0.988 7.2556,-0.84 14.3123,-0.84 21.5679,-0.593 3.7272,0.148 7.4042,0.247 11.0822,0 3.379,-0.198 7.007,0.197 10.237,-0.84 0.1,-0.05 0.249,0 0.298,0.099 1.442,1.433 2.634,3.113 4.125,4.497 1.342,1.284 2.932,2.322 4.125,3.805 0.298,0.296 0.199,0.593 -0.099,0.642 z m 16.051,-74.571005 c -1.64,5.9301 -1.838,12.2062 -2.882,18.2351 -1.044,6.1278 -2.187,12.2061 -3.131,18.3339 -0.944,6.2266 -1.739,12.5027 -2.683,18.7293 -0.497,3.311 -1.193,6.572705 -1.392,9.932705 -0.149,2.57 -0.05,5.189 -0.696,7.709 -0.049,0.247 -0.397,0.297 -0.546,0.149 -2.485,-2.323 -4.97,-4.942 -6.958,-7.759 -0.795,-1.137 -1.988,-2.52 -2.286,-3.904 -0.248,-1.235005 -0.049,-2.322605 0.149,-3.508605 1.044,-7.462 1.541,-15.0229 2.684,-22.485 0.397,-2.718 0.894,-5.4359 1.391,-8.2033 0.398,-3.7063 0.845,-7.3632 1.292,-11.0695 0.199,-1.7297 -0.049,-3.904 0.497,-5.5348 0.448,-1.2849 1.64,-2.125 2.734,-2.8168 3.975,-2.4709 7.603,-5.2877 11.281,-8.2033 0.248,-0.1483 0.646,0.0494 0.546,0.3953 z"
     fill="#7d4a08"
     id="path238" />
  <path
     opacity="0.4"
     d="m 131.147,45.719845 c -0.745,0.4942 -1.491,0.9884 -2.286,1.4331 -0.845,0.4942 -1.839,1.0378 -2.534,1.7791 l -0.05,0.0494 c 0.894,-0.8401 1.938,-1.2849 2.932,-1.9767 0.696,-0.3953 1.342,-0.8401 1.938,-1.2849 z"
     fill="#ba6c0f"
     id="path240" />
  <path
     opacity="0.4"
     d="m 116.537,37.467245 c -1.193,0.0988 -2.336,0.1977 -3.529,0.2471 1.044,0 2.087,0 3.131,0 3.23,-0.0494 6.411,-0.2471 9.641,-0.2471 -3.081,-0.0494 -6.162,-0.1977 -9.243,0 z"
     fill="#ba6c0f"
     id="path242" />
  <path
     opacity="0.4"
     d="m 106.25,37.763745 c -0.348,-0.0494 -0.696,-0.0494 -1.094,-0.0988 -0.646,-0.0495 -1.292,-0.0495 -1.888,-0.0989 -0.348,0 -0.696,0 -1.044,0.0494 -1.093,0.0989 -2.186,0.2965 -3.2797,0.346 2.4347,-0.1483 4.8697,-0.1977 7.3057,-0.1977 z"
     fill="#ba6c0f"
     id="path244" />
  <path
     opacity="0.5"
     d="m 110.722,53.527945 c -12.4238,0.6424 -24.9471,0.8401 -37.371,0.4941 -6.7586,-0.1976 -13.4676,0.1483 -20.2262,0.346 -3.429,0.0988 -6.7089,-0.2965 -10.0882,-0.8896 -3.429,-0.593 -6.7587,-0.0988 -10.1877,0 1.1927,0.346 2.4351,0.6919 3.6775,0.9884 2.1369,0.1977 4.2739,0.3953 6.4108,0.3953 0.1491,0 0.2485,0.0989 0.2981,0.1977 2.2364,0.2965 4.4727,0.6424 6.7587,0.6424 7.1562,0.1483 14.3123,-0.593 21.4685,-0.3953 11.9767,0.3459 23.8043,-0.1977 35.7315,-0.9389 1.192,-0.2966 2.335,-0.5931 3.528,-0.8401 z"
     fill="#ba6c0f"
     id="path246" />
  <path
     opacity="0.5"
     d="m 96.4098,72.899545 c 0.8945,-0.0989 1.7891,-0.1977 2.6836,-0.2965 -3.0315,-0.1977 -6.1126,-0.4942 -9.0446,-0.8401 -6.709,-0.7413 -13.3682,-0.2965 -20.0771,-0.0989 -6.5102,0.2471 -12.9706,0.0495 -19.4808,-0.4447 -3.1805,-0.2471 -6.3113,-0.3954 -9.4918,-0.4448 -1.9382,0 -3.9757,0.4942 -5.9138,0.2965 -0.5964,0.0494 -1.2424,0.0989 -1.7891,0 -0.0994,0.0494 -0.1988,0.0989 -0.2982,0.1483 1.4412,0.9883 3.0812,0.8895 4.7708,0.8895 3.2303,-0.0494 6.4108,0.1977 9.641,0.4448 6.9077,0.4941 13.716,0.9389 20.6734,0.6918 5.8641,-0.1977 11.7779,-0.6918 17.642,-0.3953 2.6339,0 5.2678,0.0494 7.9017,0.0494 0.9442,0 1.8387,0 2.7829,0 z"
     fill="#ba6c0f"
     id="path248" />
  <path
     opacity="0.5"
     d="m 70.4189,92.419645 c -6.5599,0.3953 -13.2191,0.6918 -19.8286,0.8895 -5.1684,0.1483 -10.287,-0.1482 -15.3063,1.0872 3.1805,0.0988 6.4107,0.2965 9.5913,0.4448 8.3489,-0.2965 16.7474,-0.4448 25.0963,-1.0872 7.1065,-0.5436 14.0639,-0.4448 21.1704,-0.4942 3.6775,0 7.4047,0.1483 11.082,0.0988 2.087,-0.3953 4.175,-0.7412 6.262,-1.0872 0.348,-0.0494 0.696,-0.0988 1.043,-0.1482 -12.9702,0 -26.0898,-0.4942 -39.1101,0.2965 z"
     fill="#ba6c0f"
     id="path250" />
  <path
     opacity="0.3"
     d="m 134.278,47.400045 c 0,1.186 -0.944,2.1249 -2.137,2.1249 -1.193,0 -2.137,-0.9389 -2.137,-2.1249 0,-1.1861 0.944,-2.125 2.137,-2.125 1.193,0 2.137,0.9389 2.137,2.125 z"
     fill="#494949"
     id="path252" />
  <path
     d="m 133.731,47.251845 c 0,0.9883 -0.795,1.779 -1.789,1.779 -0.994,0 -1.789,-0.7907 -1.789,-1.779 0,-0.9884 0.795,-1.779 1.789,-1.779 0.994,0.0494 1.789,0.8401 1.789,1.779 z"
     fill="#533d2c"
     id="path254" />
  <path
     d="m 132.29,46.856445 c 0,0.3953 -0.348,0.7412 -0.745,0.7412 -0.398,0 -0.746,-0.3459 -0.746,-0.7412 0,-0.3954 0.348,-0.7413 0.746,-0.7413 0.397,0 0.745,0.2965 0.745,0.7413 z"
     fill="#ffffff"
     id="path256" />
  <path
     opacity="0.3"
     d="m 128.265,40.926445 c 0,1.186 -0.944,2.125 -2.137,2.125 -1.193,0 -2.137,-0.939 -2.137,-2.125 0,-1.186 0.944,-2.125 2.137,-2.125 1.193,-0.0494 2.137,0.939 2.137,2.125 z"
     fill="#494949"
     id="path258" />
  <path
     d="m 127.668,40.778245 c 0,0.9883 -0.795,1.779 -1.789,1.779 -0.994,0 -1.789,-0.7907 -1.789,-1.779 0,-0.9884 0.795,-1.7791 1.789,-1.7791 0.994,0 1.789,0.7907 1.789,1.7791 z"
     fill="#533d2c"
     id="path260" />
  <path
     d="m 126.277,40.333445 c 0,0.3954 -0.348,0.7413 -0.745,0.7413 -0.398,0 -0.746,-0.3459 -0.746,-0.7413 0,-0.3953 0.348,-0.7413 0.746,-0.7413 0.397,0 0.745,0.346 0.745,0.7413 z"
     fill="#ffffff"
     id="path262" />
  <path
     opacity="0.3"
     d="m 30.4138,112.13665 c 0,1.186 -0.9442,2.125 -2.1369,2.125 -1.1927,0 -2.1369,-0.939 -2.1369,-2.125 0,-1.186 0.9442,-2.125 2.1369,-2.125 1.1927,0 2.1369,0.939 2.1369,2.125 z"
     fill="#494949"
     id="path264" />
  <path
     d="m 29.8175,112.03865 c 0,0.988 -0.7952,1.779 -1.7891,1.779 -0.9939,0 -1.789,-0.791 -1.789,-1.779 0,-0.989 0.7951,-1.779 1.789,-1.779 0.9939,0 1.7891,0.79 1.7891,1.779 z"
     fill="#533d2c"
     id="path266" />
  <path
     d="m 28.4261,111.59365 c 0,0.395 -0.3479,0.741 -0.7455,0.741 -0.3975,0 -0.7454,-0.346 -0.7454,-0.741 0,-0.396 0.3479,-0.741 0.7454,-0.741 0.3976,0 0.7455,0.345 0.7455,0.741 z"
     fill="#ffffff"
     id="path268" />
  <path
     opacity="0.3"
     d="m 23.9037,106.65165 c 0,1.186 -0.9443,2.125 -2.137,2.125 -1.1927,0 -2.1369,-0.939 -2.1369,-2.125 0,-1.186 0.9442,-2.125 2.1369,-2.125 1.1927,-0.049 2.137,0.939 2.137,2.125 z"
     fill="#494949"
     id="path270" />
  <path
     d="m 23.3073,106.50365 c 0,0.988 -0.7952,1.779 -1.7891,1.779 -0.9939,0 -1.789,-0.791 -1.789,-1.779 0,-0.988 0.7951,-1.779 1.789,-1.779 0.9939,0 1.7891,0.791 1.7891,1.779 z"
     fill="#533d2c"
     id="path272" />
  <path
     d="m 21.8661,106.05865 c 0,0.395 -0.3479,0.741 -0.7454,0.741 -0.3976,0 -0.7455,-0.346 -0.7455,-0.741 0,-0.395 0.3479,-0.741 0.7455,-0.741 0.4472,0 0.7454,0.346 0.7454,0.741 z"
     fill="#ffffff"
     id="path274" />
  <path
     opacity="0.3"
     d="m 18.1886,46.065745 c 0,1.1861 -0.9442,2.125 -2.1369,2.125 -1.1927,0 -2.1369,-0.9389 -2.1369,-2.125 0,-1.186 0.9442,-2.1249 2.1369,-2.1249 1.1927,0 2.1369,0.9389 2.1369,2.1249 z"
     fill="#494949"
     id="path276" />
  <path
     d="m 17.6419,45.966945 c 0,0.9883 -0.7951,1.779 -1.789,1.779 -0.9939,0 -1.7891,-0.7907 -1.7891,-1.779 0,-0.9884 0.7952,-1.7791 1.7891,-1.7791 0.9939,0 1.789,0.7907 1.789,1.7791 z"
     fill="#533d2c"
     id="path278" />
  <path
     d="m 16.2008,45.522145 c 0,0.3954 -0.3478,0.7413 -0.7454,0.7413 -0.3976,0 -0.7454,-0.3459 -0.7454,-0.7413 0,-0.3953 0.3478,-0.7412 0.7454,-0.7412 0.3976,0 0.7454,0.2965 0.7454,0.7412 z"
     fill="#ffffff"
     id="path280" />
  <path
     opacity="0.3"
     d="m 25.0963,40.580445 c 0,1.186 -0.9442,2.1249 -2.1369,2.1249 -1.1927,0 -2.1369,-0.9389 -2.1369,-2.1249 0,-1.186 0.9442,-2.125 2.1369,-2.125 1.143,0 2.1369,0.939 2.1369,2.125 z"
     fill="#494949"
     id="path282" />
  <path
     d="m 24.5,40.432245 c 0,0.9884 -0.7952,1.779 -1.7891,1.779 -0.9939,0 -1.789,-0.7906 -1.789,-1.779 0,-0.9883 0.7951,-1.779 1.789,-1.779 0.9939,0.0494 1.7891,0.8401 1.7891,1.779 z"
     fill="#533d2c"
     id="path284" />
  <path
     d="m 23.0588,39.987245 c 0,0.3954 -0.3479,0.7413 -0.7454,0.7413 -0.3976,0 -0.7455,-0.3459 -0.7455,-0.7413 0,-0.3953 0.3479,-0.7412 0.7455,-0.7412 0.3975,0.0494 0.7454,0.3459 0.7454,0.7412 z"
     fill="#ffffff"
     id="path286" />
  <path
     opacity="0.3"
     d="m 126.625,105.46565 c 0,1.186 -0.944,2.125 -2.137,2.125 -1.193,0 -2.137,-0.939 -2.137,-2.125 0,-1.186 0.944,-2.125 2.137,-2.125 1.143,0 2.137,0.939 2.137,2.125 z"
     fill="#494949"
     id="path288" />
  <path
     d="m 126.028,105.31765 c 0,0.988 -0.795,1.779 -1.789,1.779 -0.994,0 -1.789,-0.791 -1.789,-1.779 0,-0.988 0.795,-1.779 1.789,-1.779 0.994,0.049 1.789,0.84 1.789,1.779 z"
     fill="#533d2c"
     id="path290" />
  <path
     d="m 124.587,104.92165 c 0,0.396 -0.348,0.742 -0.745,0.742 -0.398,0 -0.746,-0.346 -0.746,-0.742 0,-0.395 0.348,-0.741 0.746,-0.741 0.397,0 0.745,0.297 0.745,0.741 z"
     fill="#ffffff"
     id="path292" />
  <path
     opacity="0.3"
     d="m 120.761,110.95065 c 0,1.186 -0.945,2.125 -2.137,2.125 -1.193,0 -2.137,-0.939 -2.137,-2.125 0,-1.186 0.944,-2.125 2.137,-2.125 1.192,0 2.137,0.939 2.137,2.125 z"
     fill="#494949"
     id="path294" />
  <path
     d="m 120.164,110.85265 c 0,0.988 -0.795,1.779 -1.789,1.779 -0.994,0 -1.789,-0.791 -1.789,-1.779 0,-0.989 0.795,-1.779 1.789,-1.779 0.994,0 1.789,0.79 1.789,1.779 z"
     fill="#533d2c"
     id="path296" />
  <path
     d="m 118.723,110.40765 c 0,0.395 -0.348,0.741 -0.745,0.741 -0.398,0 -0.746,-0.346 -0.746,-0.741 0,-0.396 0.348,-0.741 0.746,-0.741 0.447,0 0.745,0.296 0.745,0.741 z"
     fill="#ffffff"
     id="path298" />
  <g
     opacity="0.3"
     id="g356"
     transform="translate(0,-0.84335457)">
    <g
       opacity="0.3"
       id="g312">
      <path
         opacity="0.3"
         d="M 9.19372,39.8423 C 9.04463,40.633 8.99493,41.4236 8.99493,42.2637 9.29311,44.8829 9.98885,47.4526 10.7343,49.9729 10.2373,46.5631 9.74037,43.2027 9.19372,39.8423 Z"
         fill="#e59051"
         id="path300" />
      <path
         opacity="0.3"
         d="m 17.8408,112.289 c 0.3479,-2.076 0.7454,-4.152 1.0436,-6.277 0.1988,-3.805 0.3976,-7.5604 0.2982,-11.3656 C 19.0335,88.321 17.7414,82.1438 16.5487,75.9172 15.356,69.8388 14.4615,63.7604 13.5173,57.6327 c -0.497,-3.0639 -1.4412,-6.029 -2.286,-8.994 0.2981,2.0261 0.5963,4.1016 0.8945,6.1278 0.1491,0.6424 0.2982,1.3342 0.4472,2.0261 1.143,6.0783 1.64,12.2555 2.783,18.3339 1.143,6.2266 2.3854,12.305 2.8824,18.6304 0.3975,6.2266 -0.497,12.3541 -0.3976,18.5321 z"
         fill="#e59051"
         id="path302" />
      <path
         opacity="0.3"
         d="M 14.9087,94.3994 C 14.859,89.5565 15.0578,84.8124 14.4118,80.0189 13.7657,75.1265 12.3742,70.333 11.5294,65.4407 10.784,61.2402 10.3864,56.9903 9.69067,52.7898 c 0.19879,2.4215 0.39753,4.8923 0.59633,7.3138 0.1491,1.4331 0.3479,2.9156 0.497,4.3487 0.5963,4.9418 2.0375,9.7353 2.8326,14.6771 0.6958,4.5464 0.8449,9.0928 0.6461,13.6886 0.0994,2.6686 0.3479,5.3865 0.7454,8.006 0.1988,0.84 0.4473,1.68 0.6461,2.52 -0.3976,-2.965 -0.7455,-5.9301 -0.7455,-8.9446 z"
         fill="#e59051"
         id="path304" />
      <path
         opacity="0.3"
         d="m 22.7607,62.5249 c 0,1.186 0,2.372 0.0497,3.5086 0.1988,2.6191 0.6957,5.1394 1.3418,7.7092 -0.2982,-3.0639 -0.3976,-6.0784 -0.3976,-9.1917 0,-2.5697 0.0497,-5.2383 0,-7.9068 -0.1491,-0.939 -0.2982,-1.8285 -0.4473,-2.7674 -0.2485,-1.2849 -0.4969,-2.5697 -0.7454,-3.8546 0.3976,4.1017 0.1491,8.401 0.1988,12.5027 z"
         fill="#e59051"
         id="path306" />
      <path
         opacity="0.3"
         d="m 23.5061,75.7688 c -0.0994,-0.3459 -0.1988,-0.6918 -0.2982,-1.0378 0.0994,1.186 0.2485,2.4215 0.3976,3.6075 0.6957,5.2383 1.64,10.4765 1.9381,15.7642 0.1491,2.7674 -0.1491,5.5348 -0.4472,8.3023 -0.0994,0.791 -0.1988,1.729 -0.2485,2.52 -0.0994,3.311 -1.2424,-0.889 -1.3915,-1.532 C 22.5122,99.0445 21.5183,94.6957 20.3753,90.3964 18.9341,84.911 19.282,79.1786 18.139,73.5944 17.0457,68.0597 16.0517,62.5743 15.1075,57.0395 14.3124,52.4931 13.3185,47.9467 13.07,43.3509 12.9706,42.7084 12.8215,42.066 12.7221,41.4236 c -0.4472,5.3865 0.8449,10.6742 1.6897,15.9124 1.0436,6.3255 2.4351,12.6509 3.429,18.9764 0.8945,5.7324 1.0436,11.3166 2.4351,16.9996 0.7951,3.1134 1.5903,6.3255 2.2363,9.439 0.3976,1.927 0.7454,3.706 1.9878,5.238 0.1988,0.247 0.5467,-0.099 0.6461,-0.296 0.6957,-1.236 0.4472,-3.015 0.646,-4.3 0.2982,-2.471 0.6461,-4.8427 0.6958,-7.3136 0.1987,-5.1888 -0.7952,-10.4765 -1.5406,-15.5665 -0.497,-1.5814 -0.9939,-3.1627 -1.4412,-4.7441 z"
         fill="#e59051"
         id="path308" />
      <path
         opacity="0.3"
         d="M 21.5183,77.8444 C 21.2698,74.0887 21.071,70.2835 20.574,66.5278 19.9777,62.0802 19.3813,57.4844 19.0335,52.938 c -0.2982,-2.2238 -0.497,-4.4476 -0.7455,-6.6714 -0.0497,0.0494 -0.0497,0.0988 -0.0497,0.1483 -0.0993,6.7702 0.7455,13.738 1.5406,20.4588 0.7951,6.5232 0.7951,13.0957 1.6897,19.6188 0,0.0988 0.0994,0.1977 0.1491,0.1977 -0.1491,-2.9651 -0.0994,-5.9301 -0.0994,-8.8458 z"
         fill="#e59051"
         id="path310" />
    </g>
    <g
       opacity="0.3"
       id="g326">
      <path
         opacity="0.3"
         d="m 43.8813,111.745 c -1.2423,0 -2.5344,0.049 -3.7768,-0.099 -0.9939,0 -1.9879,-0.05 -2.9321,-0.05 -1.0436,0.099 -2.0872,0.248 -3.1308,0.445 -1.3418,0.247 -2.6836,0.396 -4.0254,0.544 0.8946,-0.05 1.7394,-0.099 2.6339,-0.148 2.3854,-0.149 4.8205,-0.099 7.2059,-0.05 -2.1866,0.395 -4.3235,0.84 -6.5598,1.137 -3.6775,0.494 -7.3053,0 -10.8834,0.692 0.1988,0 0.4472,0.049 0.646,0.098 1.2921,0.099 2.5842,0.198 3.8763,0.297 1.6897,-0.05 3.3793,-0.05 5.069,-0.198 4.6217,-0.346 8.9949,-1.828 13.6166,-2.075 0.0497,0 0.0497,0 0.0994,0 0.1988,0 0.3976,-0.297 0.3976,-0.494 -0.6958,-0.05 -1.4412,-0.099 -2.2364,-0.099 z"
         fill="#e59051"
         id="path314" />
      <path
         opacity="0.3"
         d="m 111.766,106.556 c -1.044,-0.148 -2.088,-0.198 -3.131,-0.247 -0.497,0 -1.044,0.049 -1.541,0.099 -3.627,0.247 -7.2056,1.037 -10.8334,0.939 -7.3053,-0.149 -14.4614,1.581 -21.7667,1.284 -7.6532,-0.296 -15.2069,0.198 -22.86,0.346 -5.2181,0.099 -10.4362,-0.098 -15.6045,0.05 -2.2363,0.099 -4.6217,0.346 -6.8083,0.939 7.3549,-0.494 14.6602,-0.149 22.0649,-0.149 7.6034,0 15.1572,-0.543 22.7606,-0.098 7.355,0.444 14.4118,-1.335 21.7171,-1.186 2.9817,0.049 5.7643,-0.495 8.7463,-0.84 3.429,-0.445 6.858,-0.544 10.287,-0.643 -1.093,-0.198 -2.087,-0.346 -3.031,-0.494 z"
         fill="#e59051"
         id="path316" />
      <path
         opacity="0.3"
         d="m 111.468,108.187 c -8.101,0.148 -16.2013,1.285 -24.252,2.224 -5.9635,0.691 -11.4797,0.494 -17.4432,0 -5.6156,-0.495 -11.2809,0 -16.8468,0.938 1.6399,0 3.2799,0.05 4.8701,0.099 9.3428,-0.247 18.5366,1.285 27.9291,0.297 7.1064,-0.741 14.1632,-1.878 21.2698,-2.52 0.745,-0.149 1.491,-0.346 2.236,-0.495 1.044,-0.197 2.038,-0.346 3.081,-0.444 -0.298,0 -0.546,-0.05 -0.844,-0.099 z"
         fill="#e59051"
         id="path318" />
      <path
         opacity="0.3"
         d="m 118.027,113.969 c 0.746,-0.198 1.491,-0.495 2.237,-0.692 -1.441,0.049 -2.932,-0.099 -4.125,0.049 -3.23,0.445 -6.461,0.84 -9.691,1.137 -7.3547,0.692 -14.7594,-0.544 -22.1143,-0.396 -6.7587,0.149 -13.3185,0.099 -20.0771,-0.691 -2.5842,-0.297 -5.1187,-0.346 -7.6035,-0.247 -0.6957,0.049 -1.3914,0.098 -2.0872,0.148 -2.4848,0.148 -4.9199,0.445 -7.355,0.939 -0.646,0.148 -1.2423,0.247 -1.8884,0.395 6.7089,-0.296 13.0203,-1.038 19.7789,-0.148 7.5538,0.988 14.9087,0.692 22.4625,0.79 7.0568,0.05 14.0641,1.137 21.1211,0 3.031,-0.494 6.212,-1.136 9.342,-1.284 z"
         fill="#e59051"
         id="path320" />
      <path
         opacity="0.3"
         d="m 125.631,116.044 c 0.298,-0.198 0.646,-0.445 0.894,-0.692 -1.888,0.494 -3.926,0.099 -5.864,0.396 -0.099,0.098 -0.149,0.197 -0.248,0.296 1.739,0 3.478,0.247 5.218,0 0,0 -0.05,0 0,0 z"
         fill="#e59051"
         id="path322" />
      <path
         opacity="0.3"
         d="m 118.276,110.806 c -3.876,0.197 -7.852,0.197 -11.679,0.988 -0.248,0.148 -0.497,0.297 -0.745,0.494 4.174,-0.099 8.299,-0.692 12.424,-1.482 z"
         fill="#e59051"
         id="path324" />
    </g>
    <g
       opacity="0.3"
       id="g340">
      <path
         opacity="0.3"
         d="m 125.531,49.7754 c -0.596,4.1511 -0.596,8.3021 -1.441,12.5026 -0.894,4.4476 -1.789,8.8458 -2.882,13.2934 -0.944,3.7063 -1.242,7.4126 -1.441,11.2178 -0.249,4.5464 -0.845,8.9445 -1.64,13.3918 0.199,-0.5927 0.397,-1.1857 0.546,-1.7787 0.547,-2.1744 0.746,-4.3982 1.342,-6.5725 0.398,-5.0901 0.497,-10.2295 1.59,-15.2207 0.945,-4.4475 2.237,-8.7469 2.982,-13.2439 0.348,-2.2238 0.795,-4.3981 1.143,-6.6713 0,-0.0989 0,-0.1483 0.05,-0.2471 0.149,-2.2238 0.149,-4.4476 -0.249,-6.6714 z"
         fill="#e59051"
         id="path328" />
      <path
         opacity="0.3"
         d="m 129.209,94.2017 c -0.099,-1.6802 -0.199,-12.2061 -2.634,-12.1073 -2.584,0.0989 -2.435,6.8691 -2.634,8.3022 -0.696,5.1888 -1.64,10.3284 -2.087,15.5174 0.994,-4.053 1.69,-8.2036 2.584,-12.3053 0.298,-1.6802 0.547,-3.4098 0.746,-5.1394 0.099,-0.8895 0.894,-6.5231 1.59,-4.3487 1.491,4.7935 1.491,10.4271 1.64,15.4182 0.149,4.8922 -0.05,9.7852 0.248,14.6772 0,0.049 0,0.099 0.05,0.148 0.348,-1.087 0.348,-2.372 0.497,-3.459 0.099,-0.791 0.248,-1.631 0.397,-2.422 0,-4.744 -0.149,-9.5372 -0.397,-14.2813 z"
         fill="#e59051"
         id="path330" />
      <path
         opacity="0.3"
         d="m 128.414,114.71 c -1.094,-2.323 -0.845,-4.892 -0.746,-7.363 0.1,-2.718 -0.348,-5.436 -0.447,-8.1543 0,-0.6424 -0.894,-0.247 -1.044,0.0495 -0.596,1.0378 -1.043,2.1248 -1.441,3.2618 0.05,0.049 0.1,0.148 0.05,0.296 -0.944,2.323 -1.491,5.584 -0.895,8.204 0.299,-0.445 0.547,-0.939 0.746,-1.434 0.348,-2.718 0.547,-5.435 1.491,-7.956 0.099,1.384 0.248,2.817 0.348,4.201 0.049,0.049 0.099,0.148 0.049,0.296 0,0.05 0,0.099 -0.049,0.148 0.049,0.791 0.099,1.582 0.099,2.422 0,0.395 0,0.791 0,1.186 0.249,1.828 0.944,3.558 1.69,5.238 0.149,-0.148 0.198,-0.247 0.149,-0.395 z"
         fill="#e59051"
         id="path332" />
      <path
         opacity="0.3"
         d="m 129.01,54.3712 c -2.783,8.2033 -5.069,16.9996 -6.56,25.5488 -0.695,3.904 -1.093,7.9069 -1.441,11.8603 0.05,0.0494 0.099,0.1482 0.099,0.247 -0.248,2.9157 -0.347,5.8313 -0.347,8.7467 0,0.643 0,1.335 0,1.977 0.695,-7.2644 1.49,-14.5782 2.584,-21.8426 0.845,-5.7819 2.385,-11.4649 3.876,-17.0985 0.099,-0.4447 0.199,-0.8401 0.249,-1.2848 0.596,-2.718 0.944,-5.5842 1.64,-8.3022 -0.05,0.0494 -0.1,0.0494 -0.1,0.1483 z"
         fill="#e59051"
         id="path334" />
      <path
         opacity="0.3"
         d="m 128.96,72.5569 c 0.895,-2.125 1.591,-4.1017 1.939,-6.3749 0.397,-2.5697 0.646,-5.09 0.894,-7.6597 0.1,-0.7907 0.1,-1.5814 0.149,-2.4215 -0.795,5.5348 -1.938,10.9707 -2.982,16.4561 z"
         fill="#e59051"
         id="path336" />
      <path
         opacity="0.3"
         d="m 137.26,52.7898 c 0.745,-4.2499 1.192,-8.4998 1.64,-12.7498 -0.05,0.0495 -0.05,0.0989 -0.05,0.0989 -1.789,9.4387 -4.274,18.8775 -5.367,28.4151 -0.944,8.6481 -1.094,17.2961 -0.895,25.9936 0.1,-0.3953 0.199,-0.8401 0.249,-1.2354 0.049,-0.0988 0.049,-0.2471 0.049,-0.3459 0,-1.6802 0,-3.3604 0.199,-5.0406 0.1,-1.0378 0.249,-2.0756 0.398,-3.1133 0.149,-5.4854 0.397,-10.9707 0.944,-16.4067 0.447,-4.6946 1.391,-9.1916 2.485,-13.7381 0.149,-0.6918 0.248,-1.2848 0.348,-1.8778 z"
         fill="#e59051"
         id="path338" />
    </g>
    <g
       opacity="0.3"
       id="g354">
      <path
         opacity="0.3"
         d="m 109.281,37.8162 c -4.97,0.6424 -9.9888,1.4331 -15.0081,1.6307 -5.1684,0.2471 -10.3367,-0.0494 -15.5051,-0.1482 -10.0385,-0.1977 -19.928,1.1366 -29.9665,1.4331 -9.7901,0.2965 -19.6298,-0.7907 -29.3702,-1.8285 1.0933,0.1977 2.1866,0.6425 3.0811,0.9884 8.1501,1.0872 16.3499,1.8779 24.5497,1.8779 10.4361,-0.0494 20.7729,-1.5814 31.2587,-1.4331 9.5912,0.1482 18.7352,0.0494 28.2764,-1.1861 5.368,-0.6918 10.784,-1.6307 16.201,-1.6802 1.889,0 3.727,0.0989 5.616,0.2471 0.248,0 0.447,0 0.696,0 1.789,-0.2965 3.627,-0.593 5.416,-0.7907 -8.547,-0.5435 -16.747,-0.247 -25.245,0.8896 z"
         fill="#e59051"
         id="path342" />
      <path
         opacity="0.3"
         d="m 114.549,44.8828 c -4.87,-0.3954 -9.79,-0.6919 -14.6109,-1.3837 4.3239,-1.532 9.4919,-1.3343 13.9649,-1.7296 6.361,-0.5436 12.771,-0.8895 19.083,-1.7296 -1.044,-0.0495 -2.087,-0.0989 -3.131,-0.1483 -5.715,0.5436 -11.43,0.7413 -17.095,1.1366 -4.721,0.3459 -10.138,0.0988 -14.4618,2.2732 -0.2982,0.1483 -0.7455,0.7907 -0.1988,0.8895 5.6656,0.8896 11.4296,1.2355 17.1946,1.7297 2.137,0.1976 4.274,0.1482 6.411,0.1482 0.795,-0.0988 1.54,-0.1977 2.286,-0.3953 0.596,-0.1483 1.242,-0.3954 1.839,-0.593 -3.678,0.3953 -7.703,0.0988 -11.281,-0.1977 z"
         fill="#e59051"
         id="path344" />
      <path
         opacity="0.3"
         d="m 122.649,43.3015 c 0.696,-0.0494 1.392,-0.1482 2.087,-0.2471 1.591,-0.3459 3.131,-0.7906 4.721,-1.1366 0.05,0 0.1,-0.0494 0.199,-0.0494 -3.578,0 -7.255,0.4448 -10.784,0.7413 -0.049,0 -0.099,0.0494 -0.149,0.0494 1.243,0.3459 2.584,0.593 3.926,0.6424 z"
         fill="#e59051"
         id="path346" />
      <path
         opacity="0.3"
         d="m 58.9889,43.598 c -5.1684,-0.1977 -10.3367,-0.2471 -15.5051,0.0988 -4.1744,0.2965 -8.7961,0.9389 -13.1694,0.6918 -0.4969,0.1483 -0.9939,0.2966 -1.5405,0.4448 3.4787,0.3953 7.0568,0.1977 10.4361,0.0494 6.0628,-0.2471 11.9766,-0.593 17.9898,-0.3953 9.3925,0.2965 18.7353,0.8895 28.0781,0.0988 1.5903,-0.2965 3.1805,-0.6918 4.7708,-1.0872 -10.287,1.1861 -20.6734,0.4942 -31.0598,0.0989 z"
         fill="#e59051"
         id="path348" />
      <path
         opacity="0.3"
         d="m 91.5892,43.9438 c 0.5964,-0.0988 1.2424,-0.1976 1.8388,-0.2965 0.1491,0 0.2485,-0.1482 0.2485,-0.2965 -0.6958,0.1483 -1.3915,0.346 -2.0873,0.593 z"
         fill="#e59051"
         id="path350" />
      <path
         opacity="0.3"
         d="m 42.9868,38.0139 c -3.2799,-0.7413 -6.5598,-0.939 -9.8894,-1.0872 -0.1988,0 -0.3976,0 -0.5467,0 -1.1927,0 -2.3854,-0.0494 -3.5781,-0.0494 -2.7332,0 -5.4665,-0.4448 -8.1998,-0.6919 -0.2981,0 -0.5963,-0.0494 -0.8945,-0.0494 -0.6957,0.0988 -1.4412,0.1482 -2.1369,0.1977 -1.2424,0.1976 -2.4848,0.4447 -3.7272,0.3953 -0.2485,0.1483 -0.4969,0.2965 -0.6957,0.4942 1.9381,0.3459 3.8762,-0.1483 5.8641,-0.2471 3.0811,-0.1483 6.2616,0.8401 9.3428,0.9389 5.218,0.1483 10.4858,0.4942 15.7038,0.2965 -0.4472,-0.0494 -0.8448,-0.1482 -1.2424,-0.1976 z"
         fill="#e59051"
         id="path352" />
    </g>
  </g>
  <path
     opacity="0.5"
     d="m 18.4371,104.08165 c -0.646,-10.179605 -2.2363,-20.359605 -3.0314,-30.539605 -0.2485,-3.2122 -0.2982,-6.4243 -0.5964,-9.6365 -0.1491,-0.8895 -0.3478,-1.779 -0.5466,-2.7179 -0.7951,-3.5087 -1.3915,-7.1162 -2.2363,-10.6248 -0.2485,-0.9389 -0.497,-1.8779 -0.7455,-2.8662 -0.4472,-1.532 -0.9442,-3.0145 -1.54053,-4.497 -0.0497,0.0494 -0.0497,0.0988 -0.0497,0.1482 0.19879,4.6453 1.09333,9.6859 2.03753,14.2817 1.143,5.5842 1.4412,10.9213 1.8884,16.6043 0.8449,10.9707 2.8824,21.7932 4.3733,32.714805 0.0497,-0.89 0.2484,-1.878 0.4472,-2.867 z"
     fill="#ba6c0f"
     id="path358" />
  <path
     opacity="0.5"
     d="m 102.87,107.73865 c 1.491,-0.346 2.982,-0.741 4.523,-0.988 0.795,-0.148 1.739,-0.148 2.633,-0.297 -2.882,0.05 -5.715,0.495 -8.647,0.692 -3.1802,0.198 -6.4104,-0.049 -9.5909,-0.247 -6.4108,-0.494 -12.7718,-0.395 -19.1826,0.198 -7.1065,0.642 -14.1136,1.532 -21.2201,1.334 -4.075,-0.148 -8.1004,-0.049 -12.1754,0 -2.137,0.198 -4.3236,0.395 -6.4605,0.544 1.9878,0.346 4.2242,0.197 6.212,0.296 3.0811,0.148 6.1623,0.198 9.2434,0.494 6.7586,0.742 13.5172,-0.098 20.2262,-0.84 7.7028,-0.84 15.1572,-1.532 22.9097,-0.988 3.9757,0.198 7.7525,0.099 11.5292,-0.198 z"
     fill="#ba6c0f"
     id="path360" />
  <path
     opacity="0.5"
     d="m 126.078,53.676245 c -0.348,1.6802 -0.646,3.3604 -0.944,5.0406 0,0.1482 0,0.3459 -0.05,0.4941 -0.248,4.8924 -0.298,9.6365 -1.441,14.43 -0.994,4.151 -1.391,8.6975 -1.938,12.9474 -0.547,4.2005 -1.789,8.6481 -1.491,12.8983 0.099,-1.2358 0.547,-2.7183 0.596,-3.1136 0.299,-1.7791 0.845,-3.4593 1.442,-5.1889 0.198,-0.6424 0.347,-1.3343 0.497,-1.9767 0.795,-4.9418 1.59,-9.8341 2.236,-14.7758 0.546,-4.0523 1.292,-7.808 1.441,-11.9591 0.149,-4.2005 -0.199,-8.5987 1.044,-12.6509 0,-0.0494 0,-0.0494 0,-0.0988 -0.547,1.2354 -0.994,2.6191 -1.392,3.9534 z"
     fill="#ba6c0f"
     id="path362" />
  <path
     opacity="0.5"
     d="m 93.1795,39.048545 c 1.64,-0.2965 3.2302,-0.6918 4.8702,-1.0378 -13.2191,0.0495 -26.4878,0.2965 -39.7069,-0.247 -6.6592,-0.2471 -13.3185,-0.3954 -19.9777,-0.0495 -3.2799,0.1483 -6.5598,0.2965 -9.8397,0.4448 -1.0437,0.0494 -2.1867,0.1482 -3.3297,0.2471 0.1988,0 0.4473,0.0494 0.6461,0.0494 4.0253,0.2471 8.0507,-0.0494 12.0264,0 3.0314,0.0494 6.1125,0.1977 9.144,0.3459 3.1308,0 6.3113,0.0494 9.4919,0.1977 12.1257,0.4942 24.5,0.6918 36.6754,0.0494 z"
     fill="#ba6c0f"
     id="path364" />
  <path
     d="M 112.859,123.40465 H 90.9929 v 2.223 h 21.8661 z"
     fill="#44210e"
     id="path366" />
  <path
     d="m 103.019,113.61965 h -2.236 v 21.744 h 2.236 z"
     fill="#44210e"
     id="path368" />
  <path
     d="m 94.9545,116.02965 -1.5813,1.572 15.4618,15.375 1.581,-1.572 z"
     fill="#44210e"
     id="path370" />
  <path
     d="m 108.871,116.01465 -15.4613,15.375 1.5813,1.573 15.462,-15.375 z"
     fill="#44210e"
     id="path372" />
  <path
     d="m 101.926,108.62865 c -8.7465,0 -15.853,7.066 -15.853,15.764 0,8.697 7.1065,15.764 15.853,15.764 8.746,0 15.853,-7.067 15.853,-15.764 -0.05,-8.698 -7.107,-15.764 -15.853,-15.764 z m 0,24.165 c -4.6218,0 -8.3489,-3.706 -8.3489,-8.302 0,-4.596 3.7271,-8.302 8.3489,-8.302 4.622,0 8.349,3.706 8.349,8.302 -0.05,4.596 -3.777,8.302 -8.349,8.302 z"
     fill="#743c25"
     id="path374" />
  <path
     d="m 105.454,124.49165 c 0,1.976 -1.59,3.558 -3.578,3.558 -1.9876,0 -3.5778,-1.582 -3.5778,-3.558 0,-1.977 1.5902,-3.558 3.5778,-3.558 1.988,0 3.578,1.581 3.578,3.558 z"
     fill="#ba6c0f"
     id="path376" />
  <path
     d="m 104.113,124.39265 c 0,1.136 -0.895,2.026 -2.038,2.026 -1.143,0 -2.038,-0.89 -2.038,-2.026 0,-1.137 0.895,-2.026 2.038,-2.026 1.143,0 2.038,0.889 2.038,2.026 z"
     fill="#44210e"
     id="path378" />
  <path
     d="m 101.926,109.76465 c -8.1999,0 -14.8591,6.622 -14.8591,14.776 0,8.154 6.6592,14.776 14.8591,14.776 8.2,0 14.859,-6.622 14.859,-14.776 -0.05,-8.203 -6.709,-14.776 -14.859,-14.776 z m 0,23.77 c -5.0193,0 -9.0944,-4.052 -9.0944,-9.043 0,-4.992 4.0751,-9.044 9.0944,-9.044 5.019,0 9.094,4.052 9.094,9.044 -0.049,4.991 -4.075,9.043 -9.094,9.043 z"
     fill="#ba6c0f"
     id="path380" />
  <path
     opacity="0.5"
     d="m 106.548,110.85165 c 0,0 -7.902,-2.223 -14.0642,2.768 -6.1126,4.991 -7.1562,16.308 0.5466,22.287 0,0 -5.9138,-7.314 -3.4787,-15.072 2.4848,-7.759 10.0882,-10.526 16.9963,-9.983 z"
     fill="#ba6c0f"
     id="path382" />
  <path
     d="m 111.318,112.92765 c -0.795,-0.593 -1.54,-1.186 -2.186,-1.878 -0.05,0.099 -0.1,0.198 -0.05,0.297 0.099,0.148 1.541,1.581 1.541,1.63 -0.448,0.297 -1.044,0.643 -1.292,1.137 -0.299,0.544 0.298,0.889 0.646,1.235 0.099,0.099 -0.249,0.495 -0.597,0.89 0.448,-0.297 0.945,-0.593 1.441,-0.84 0,-0.247 -0.099,-0.396 -0.198,-0.593 -0.149,-0.297 -0.298,-0.544 -0.398,-0.84 0.05,-0.05 0.1,-0.099 0.149,-0.149 0.199,-0.197 0.795,-0.543 0.944,-0.889 z"
     fill="#743c25"
     id="path384" />
  <path
     d="m 110.523,136.94465 c 0.05,-0.049 0.1,-0.148 0.149,-0.198 -0.198,-0.346 -0.397,-0.692 -0.646,-1.037 -0.497,-0.643 -0.944,-1.236 -1.093,-2.076 -0.099,-0.544 -0.099,-1.087 -0.149,-1.631 -0.05,0.05 -0.05,0.099 -0.05,0.148 -0.049,0.297 0,0.544 0,0.841 0.05,0.444 -0.149,0.84 -0.149,1.284 0.05,0.593 0.298,0.989 0.547,1.483 0.099,0.198 0.199,0.395 0.248,0.593 0.199,0.445 0.398,0.099 -0.248,0.544 -0.398,0.296 -0.646,0.691 -1.044,0.988 -0.049,0.049 -0.049,0.049 -0.099,0.099 0.894,-0.247 1.689,-0.643 2.534,-1.038 z"
     fill="#743c25"
     id="path386" />
  <g
     opacity="0.3"
     id="g424"
     transform="translate(0,-0.84335457)">
    <path
       opacity="0.3"
       d="m 95.8631,112.783 c -0.5963,0.692 -1.1927,1.433 -1.7393,2.174 -0.8946,1.236 -1.4909,2.718 -2.286,4.052 -0.7455,1.236 -1.7394,2.274 -2.6339,3.361 -0.9939,1.186 -1.3915,2.372 -1.9878,3.755 -0.0497,0.149 0.0993,0.099 0.149,0.05 0.8946,-1.334 1.3915,-2.768 2.4848,-4.003 0.8449,-0.988 1.7394,-1.927 2.4351,-3.014 0.8448,-1.285 1.3915,-2.768 2.1866,-4.053 0.2982,-0.494 0.6958,-0.988 1.0933,-1.482 0.0497,-0.247 0.1491,-0.544 0.2982,-0.84 z"
       fill="#e59051"
       id="path388" />
    <path
       opacity="0.3"
       d="m 98.8449,111.794 c -2.9818,2.817 -4.423,6.721 -6.9574,9.884 -1.2921,1.581 -2.2363,3.261 -2.8824,5.189 -0.1988,0.642 -0.4473,1.334 -0.5963,2.026 0.149,-0.445 0.3478,-0.84 0.5963,-1.236 0.2485,-0.79 0.5964,-1.581 0.8945,-2.273 0.7952,-1.828 2.1369,-3.261 3.3793,-4.793 0.994,-1.236 1.5903,-2.768 2.3854,-4.151 0.8946,-1.532 1.8885,-3.015 3.1309,-4.349 0,-0.099 0.0497,-0.198 0.0497,-0.297 z"
       fill="#e59051"
       id="path390" />
    <path
       opacity="0.3"
       d="m 98.6958,138.974 c -2.2363,-1.285 -3.8266,-3.657 -4.9199,-5.93 -0.5467,-1.137 -0.9939,-2.323 -1.3915,-3.509 -0.2982,-0.79 -0.2982,-1.779 -0.8448,-2.421 -0.0994,-0.148 -0.2982,0.049 -0.3479,0.148 -0.3975,0.939 -0.5963,2.026 -0.7454,3.064 0,0.297 0,0.593 0.0497,0.89 0.1491,-1.236 0.4969,-2.471 0.8945,-3.46 0.497,0.84 0.6957,2.224 0.9939,3.015 0.4473,1.186 0.9939,2.322 1.5903,3.508 0.9442,1.878 2.7829,4.003 4.6714,4.893 0,0 0.0994,-0.148 0.0497,-0.198 z"
       fill="#e59051"
       id="path392" />
    <path
       opacity="0.3"
       d="m 98.0994,138.925 c -1.292,-0.593 -2.3357,-1.433 -3.3296,-2.422 -1.0933,-1.087 -1.7393,-2.372 -2.7332,-3.558 -0.0994,-0.099 -0.2485,0.099 -0.2485,0.198 0.0497,0.939 0.4969,1.729 0.8945,2.57 0.3976,0.84 0.6957,1.729 1.3418,2.421 0.0497,0.049 0.1491,-0.049 0.0994,-0.099 -0.5964,-0.692 -0.8945,-1.581 -1.2424,-2.471 -0.2485,-0.642 -0.5964,-1.235 -0.7454,-1.927 1.6399,2.174 3.0811,4.645 5.8641,5.436 0.0993,0 0.1987,-0.099 0.0993,-0.148 z"
       fill="#e59051"
       id="path394" />
    <path
       opacity="0.3"
       d="m 103.964,138.826 c -2.038,-0.988 -4.3737,-2.273 -6.113,-3.756 -1.5903,-1.334 -2.5842,-3.36 -3.6775,-5.04 -0.0497,-0.05 -0.1491,0.049 -0.0994,0.098 1.0436,1.829 1.9878,3.756 3.5284,5.288 0.7951,0.791 1.789,1.285 2.7335,1.829 1.143,0.642 2.236,1.482 3.478,1.877 0.1,-0.049 0.249,-0.247 0.15,-0.296 z"
       fill="#e59051"
       id="path396" />
    <path
       opacity="0.3"
       d="m 105.902,135.713 c -0.696,-0.297 -1.392,-0.692 -2.088,-1.038 h -0.049 c 0.049,0.148 0.149,0.296 0.198,0.395 0.547,0.346 1.094,0.692 1.69,0.988 0.845,0.445 2.087,1.187 3.131,1.384 0.199,-0.099 0.398,-0.197 0.596,-0.296 -1.192,-0.396 -2.335,-0.989 -3.478,-1.433 z"
       fill="#e59051"
       id="path398" />
    <path
       opacity="0.3"
       d="m 103.367,137.047 c -1.193,-0.544 -2.137,-1.384 -3.18,-2.125 -0.1,0 -0.2489,0 -0.3483,-0.049 1.2423,0.988 2.3853,2.026 3.8763,2.718 1.242,0.593 2.733,0.593 4.075,0.296 0.298,-0.148 0.596,-0.296 0.895,-0.445 -1.839,0.346 -3.529,0.396 -5.318,-0.395 z"
       fill="#e59051"
       id="path400" />
    <path
       opacity="0.3"
       d="m 101.827,111.498 c -0.497,0.593 -0.895,1.235 -1.243,1.927 -0.546,0.939 -1.1925,1.779 -1.8385,2.619 0,0.148 -0.0497,0.247 -0.0497,0.396 0.5964,-0.692 1.2424,-1.384 1.7392,-2.175 0.447,-0.642 0.795,-1.334 1.193,-1.977 0.05,-0.296 0.149,-0.543 0.199,-0.79 z"
       fill="#e59051"
       id="path402" />
    <path
       opacity="0.3"
       d="m 108.784,111.696 c -2.385,2.026 -5.367,2.866 -7.902,4.595 -0.049,0.05 -0.049,0.198 0.05,0.149 0.547,-0.297 1.193,-0.346 1.739,-0.643 0.796,-0.494 1.591,-0.889 2.386,-1.334 1.391,-0.741 2.733,-1.532 3.826,-2.669 0.05,-0.098 -0.049,-0.148 -0.099,-0.098 z"
       fill="#e59051"
       id="path404" />
    <path
       opacity="0.3"
       d="m 106.796,111.201 c -1.491,0.989 -2.832,2.175 -4.323,3.163 -0.696,0.494 -0.05,-0.247 0.149,-0.494 0.298,-0.395 0.596,-0.741 0.944,-1.137 0.248,-0.296 0.447,-0.593 0.646,-0.889 -0.199,0.148 -0.398,0.346 -0.596,0.494 -0.05,0.099 -0.149,0.198 -0.199,0.296 -0.547,0.742 -1.143,1.335 -1.491,2.175 -0.05,0.099 0.05,0.148 0.149,0.099 0.696,-0.494 1.541,-0.791 2.187,-1.335 0.894,-0.741 1.739,-1.532 2.634,-2.223 0,-0.099 0,-0.198 -0.1,-0.149 z"
       fill="#e59051"
       id="path406" />
    <path
       opacity="0.3"
       d="m 110.772,112.931 c -1.441,1.087 -2.833,2.224 -4.274,3.36 0.199,0 0.398,0 0.596,0 1.342,-0.939 2.535,-2.174 3.728,-3.261 0.049,-0.05 0,-0.148 -0.05,-0.099 z"
       fill="#e59051"
       id="path408" />
    <path
       opacity="0.3"
       d="m 110.126,136.058 c -0.746,-0.346 -1.292,-0.939 -2.137,-1.186 -0.696,-0.197 -1.59,-0.444 -2.187,-0.889 -0.099,0 -0.199,-0.05 -0.248,-0.05 0.298,0.643 1.441,0.939 2.037,1.186 0.547,0.198 1.044,0.396 1.541,0.692 0.397,0.247 0.696,0.445 1.193,0.494 -0.1,-0.049 -0.15,-0.148 -0.199,-0.247 z"
       fill="#e59051"
       id="path410" />
    <path
       opacity="0.3"
       d="m 112.263,134.576 c -0.795,-0.396 -1.591,-0.692 -2.386,-1.038 -0.397,-0.148 -0.745,-0.346 -1.093,-0.544 -0.099,-0.049 -0.248,-0.098 -0.398,-0.148 -0.149,0.05 -0.298,0.099 -0.447,0.099 1.193,0.642 2.435,1.087 3.678,1.581 0.248,0.05 0.447,0.05 0.646,0.05 z"
       fill="#e59051"
       id="path412" />
    <path
       opacity="0.3"
       d="m 112.71,132.056 c 0,-0.149 -0.05,-0.297 -0.05,-0.445 -0.348,-2.619 0.398,-5.337 -0.298,-8.006 -0.199,-0.889 -2.634,-4.843 -1.64,-5.633 0.696,-0.544 1.243,-1.088 1.739,-1.73 0.05,-0.148 0.1,-0.346 0.15,-0.494 -0.497,0.692 -0.994,1.285 -1.69,1.779 -0.249,0.198 -0.746,0.445 -0.895,0.791 -0.198,0.494 -0.099,0.691 0.1,1.186 0.497,0.938 0.894,1.779 1.292,2.767 0.397,1.137 0.795,2.075 0.894,3.311 0.1,1.137 -0.049,2.323 -0.099,3.459 -0.099,1.73 0.099,3.509 0.944,5.041 0,-0.198 -0.049,-0.346 -0.049,-0.544 -0.199,-0.494 -0.348,-0.988 -0.398,-1.482 z"
       fill="#e59051"
       id="path414" />
    <path
       opacity="0.3"
       d="m 113.853,132.401 c 0,-0.395 0.05,-0.84 0.099,-1.235 -0.049,-0.445 -0.099,-0.889 -0.099,-1.334 0,-1.532 0.398,-2.965 0.248,-4.547 -0.099,-1.136 -0.546,-2.273 -0.844,-3.36 -0.448,-1.631 -0.199,-3.014 0.099,-4.497 -0.149,0.346 -0.298,0.741 -0.497,1.087 -0.099,0.593 -0.199,1.236 -0.149,1.878 0.05,1.532 0.696,3.015 0.994,4.497 0.298,1.532 -0.05,2.965 -0.149,4.497 0,1.038 0.149,2.026 0.298,3.014 z"
       fill="#e59051"
       id="path416" />
    <path
       opacity="0.3"
       d="m 116.04,127.213 c -0.05,-1.088 -0.249,-2.175 -0.547,-3.212 -0.348,-1.137 -0.845,-2.027 -1.044,-3.213 -0.198,-1.087 -0.099,-2.174 0.05,-3.261 0,-0.099 0,-0.198 0,-0.346 0,-0.099 0,-0.247 -0.05,-0.346 -0.348,1.779 -0.546,3.459 -0.099,5.238 0.298,1.285 0.944,2.422 1.242,3.756 0.149,0.791 0.199,1.631 0.299,2.471 0,-0.395 0.049,-0.741 0.149,-1.087 z"
       fill="#e59051"
       id="path418" />
    <path
       opacity="0.3"
       d="m 111.567,127.311 c 0,-1.334 -0.199,-2.668 -0.596,-3.904 0,0.248 -0.05,0.445 -0.1,0.692 0.298,1.829 0.398,3.657 0.149,5.584 -0.099,0.939 -0.248,1.878 -0.248,2.867 0,-0.247 -1.441,-1.335 -1.64,-1.73 -0.05,-0.049 -0.05,-0.049 -0.1,-0.049 0.15,0.543 0.448,1.087 0.895,1.383 0.099,0.099 0.149,0.198 0.149,0.297 0.298,0.247 0.596,0.494 0.795,0.741 0.1,0.099 0.249,-0.049 0.249,-0.148 -0.1,-1.977 0.447,-3.855 0.447,-5.733 z"
       fill="#e59051"
       id="path420" />
    <path
       opacity="0.3"
       d="m 110.275,129.14 c -0.199,-0.049 -0.298,0.247 -0.348,0.593 -0.05,-0.099 -0.099,-0.198 -0.149,-0.247 -0.05,-0.148 -0.249,0.049 -0.249,0.099 -0.049,0.346 0.15,0.543 0.398,0.741 0.099,0.099 0.298,-0.049 0.298,-0.198 0,-0.099 -0.049,-0.84 0,-0.889 0,0 0.1,-0.099 0.05,-0.099 z"
       fill="#e59051"
       id="path422" />
  </g>
  <path
     opacity="0.3"
     d="m 108.039,116.73265 c -2.436,-2.52 -5.069,-3.657 -8.5978,-2.817 -1.8388,0.445 -3.429,1.236 -4.8702,2.372 0,0 0,0.05 -0.0497,0.05 -1.0933,1.087 -2.3357,2.421 -2.5842,4.003 -0.2485,1.433 -0.1988,2.866 -0.1491,4.348 0.0497,2.62 0.2982,5.93 2.6836,7.561 4.1744,2.866 10.1384,2.718 14.0144,-0.692 2.137,-1.927 3.826,-4.497 3.528,-7.462 -0.149,-1.433 -0.497,-3.508 -1.391,-4.694 -0.746,-0.989 -1.69,-1.779 -2.584,-2.669 z m -6.113,16.061 c -4.6218,0 -8.3489,-3.706 -8.3489,-8.302 0,-4.596 3.7271,-8.302 8.3489,-8.302 4.622,0 8.349,3.706 8.349,8.302 -0.05,4.596 -3.777,8.302 -8.349,8.302 z"
     fill="#703405"
     id="path426" />
  <path
     opacity="0.3"
     d="m 101.926,108.62865 c -1.044,0 -2.0873,0.099 -3.0812,0.296 2.4852,0.198 4.9202,0.84 7.3052,1.779 0.646,0.247 3.23,1.532 2.584,2.619 -0.397,0.742 0.398,1.137 0.795,1.73 0.15,0.198 0.1,0.445 0.05,0.692 0.497,-0.05 1.193,-0.148 1.143,-0.247 -0.05,-0.198 -0.149,-0.396 -0.099,-0.643 0,-0.247 0,-0.593 0.248,-0.741 0.597,-0.346 1.143,0.198 1.392,0.692 0.695,1.334 1.341,2.619 2.037,3.904 0.845,1.482 1.541,3.113 1.491,4.892 0,2.175 -0.845,3.904 -1.54,5.93 -0.547,1.681 -1.094,2.718 -2.436,3.904 -0.894,0.791 -1.093,1.631 -2.335,1.137 -0.547,-0.198 -0.845,-0.593 -0.994,-0.988 -0.149,0.345 -0.249,0.691 -0.199,0.988 0,0.544 0,1.087 0,1.631 0,0.197 -0.149,0.296 -0.348,0.346 -5.963,0.593 -12.225,0.593 -17.0455,-3.608 -1.143,-0.988 -1.3915,-2.224 -1.8884,-3.607 -0.5964,-1.681 -1.2424,-3.311 -1.6897,-4.992 -0.3975,-1.531 -0.646,-3.014 -0.4969,-4.595 0.0497,-0.297 0.0994,-0.593 0.149,-0.89 -0.646,1.68 -0.9939,3.558 -0.9939,5.436 0,8.698 7.1065,15.764 15.8534,15.764 8.746,0 15.853,-7.066 15.853,-15.764 0.049,-8.599 -7.008,-15.665 -15.754,-15.665 z"
     fill="#703405"
     id="path428" />
  <path
     d="M 55.709,123.40465 H 33.8428 v 2.223 H 55.709 Z"
     fill="#44210e"
     id="path430" />
  <path
     d="m 45.9189,113.61965 h -2.2363 v 21.744 h 2.2363 z"
     fill="#44210e"
     id="path432" />
  <path
     d="m 37.8436,116.00565 -1.5813,1.572 15.4616,15.375 1.5813,-1.572 z"
     fill="#44210e"
     id="path434" />
  <path
     d="m 51.7288,116.02965 -15.4615,15.375 1.5813,1.572 15.4615,-15.375 z"
     fill="#44210e"
     id="path436" />
  <path
     d="m 44.7759,108.62865 c -8.7464,0 -15.8529,7.066 -15.8529,15.764 0,8.697 7.1065,15.764 15.8529,15.764 8.7465,0 15.853,-7.067 15.853,-15.764 0,-8.698 -7.1065,-15.764 -15.853,-15.764 z m 0,24.165 c -4.6217,0 -8.3489,-3.706 -8.3489,-8.302 0,-4.596 3.7272,-8.302 8.3489,-8.302 4.6217,0 8.3489,3.706 8.3489,8.302 0,4.596 -3.7272,8.302 -8.3489,8.302 z"
     fill="#743c25"
     id="path438" />
  <path
     d="m 48.354,124.49165 c 0,1.976 -1.5903,3.558 -3.5781,3.558 -1.9878,0 -3.5781,-1.582 -3.5781,-3.558 0,-1.977 1.5903,-3.558 3.5781,-3.558 1.9878,0 3.5781,1.581 3.5781,3.558 z"
     fill="#ba6c0f"
     id="path440" />
  <path
     d="m 46.9626,124.39265 c 0,1.136 -0.8946,2.026 -2.0376,2.026 -1.143,0 -2.0375,-0.89 -2.0375,-2.026 0,-1.137 0.8945,-2.026 2.0375,-2.026 1.143,0 2.0376,0.889 2.0376,2.026 z"
     fill="#44210e"
     id="path442" />
  <path
     d="m 44.7759,109.76465 c -8.1998,0 -14.859,6.622 -14.859,14.776 0,8.154 6.6592,14.776 14.859,14.776 8.1998,0 14.859,-6.622 14.859,-14.776 -0.0497,-8.203 -6.6592,-14.776 -14.859,-14.776 z m 0,23.77 c -5.0193,0 -9.0943,-4.052 -9.0943,-9.043 0,-4.992 4.075,-9.044 9.0943,-9.044 5.0193,0 9.0943,4.052 9.0943,9.044 0,4.991 -4.075,9.043 -9.0943,9.043 z"
     fill="#ba6c0f"
     id="path444" />
  <path
     opacity="0.5"
     d="m 49.3977,110.85165 c 0,0 -7.9017,-2.223 -14.0639,2.768 -6.1126,4.991 -7.1562,16.308 0.5466,22.287 0,0 -5.9138,-7.314 -3.4787,-15.072 2.4848,-7.759 10.0882,-10.526 16.996,-9.983 z"
     fill="#ba6c0f"
     id="path446" />
  <path
     d="m 54.1684,112.92765 c -0.7951,-0.593 -1.5406,-1.186 -2.1866,-1.878 -0.0497,0.099 -0.0994,0.198 -0.0497,0.297 0.0994,0.148 1.5406,1.581 1.5406,1.63 -0.4473,0.297 -1.0437,0.643 -1.2921,1.137 -0.2982,0.544 0.2981,0.889 0.646,1.235 0.0994,0.099 -0.2485,0.495 -0.5963,0.89 0.4472,-0.297 0.9442,-0.593 1.4411,-0.84 0,-0.247 -0.0994,-0.396 -0.2484,-0.593 -0.1491,-0.297 -0.2982,-0.544 -0.3976,-0.84 0.0497,-0.05 0.0994,-0.099 0.1491,-0.149 0.2485,-0.197 0.8448,-0.543 0.9939,-0.889 z"
     fill="#743c25"
     id="path448" />
  <path
     d="m 53.3733,136.94465 c 0.0497,-0.049 0.0994,-0.148 0.1491,-0.198 -0.1988,-0.346 -0.3976,-0.692 -0.6461,-1.037 -0.4969,-0.643 -0.9442,-1.236 -1.0933,-2.076 -0.0994,-0.544 -0.0994,-1.087 -0.1491,-1.631 -0.0497,0.05 -0.0497,0.099 -0.0497,0.148 -0.0497,0.297 0,0.544 0,0.841 0.0497,0.444 -0.149,0.84 -0.149,1.284 0.0496,0.593 0.2981,0.989 0.5466,1.483 0.0994,0.198 0.1988,0.395 0.2485,0.593 0.1988,0.445 0.3976,0.099 -0.2485,0.544 -0.3976,0.296 -0.646,0.691 -1.0436,0.988 -0.0497,0.049 -0.0497,0.049 -0.0994,0.099 0.8945,-0.247 1.7394,-0.643 2.5345,-1.038 z"
     fill="#743c25"
     id="path450" />
  <g
     opacity="0.3"
     id="g488"
     transform="translate(0,-0.84335457)">
    <path
       opacity="0.3"
       d="m 38.713,112.783 c -0.5963,0.692 -1.1927,1.433 -1.7393,2.174 -0.8945,1.236 -1.4909,2.718 -2.286,4.052 -0.7455,1.236 -1.7394,2.274 -2.6339,3.361 -0.9939,1.186 -1.3915,2.372 -1.9878,3.755 -0.0497,0.149 0.0994,0.099 0.1491,0.05 0.8945,-1.334 1.3914,-2.768 2.4847,-4.003 0.8449,-0.988 1.7394,-1.927 2.4351,-3.014 0.8449,-1.285 1.3915,-2.768 2.1866,-4.053 0.2982,-0.494 0.6958,-0.988 1.0934,-1.482 0.0497,-0.247 0.1987,-0.544 0.2981,-0.84 z"
       fill="#e59051"
       id="path452" />
    <path
       opacity="0.3"
       d="m 41.7445,111.794 c -2.9818,2.817 -4.423,6.721 -6.9574,9.884 -1.2921,1.581 -2.2364,3.261 -2.8824,5.189 -0.1988,0.642 -0.4473,1.334 -0.5964,2.026 0.1491,-0.445 0.3479,-0.84 0.5964,-1.236 0.2485,-0.79 0.5963,-1.581 0.8945,-2.273 0.7952,-1.828 2.1369,-3.261 3.3793,-4.793 0.9939,-1.236 1.5903,-2.768 2.3854,-4.151 0.8946,-1.532 1.8885,-3.015 3.1309,-4.349 -0.0497,-0.099 0,-0.198 0.0497,-0.297 z"
       fill="#e59051"
       id="path454" />
    <path
       opacity="0.3"
       d="m 41.5457,138.974 c -2.2363,-1.285 -3.8266,-3.657 -4.9199,-5.93 -0.5466,-1.137 -0.9939,-2.323 -1.3915,-3.509 -0.2981,-0.79 -0.2981,-1.779 -0.8448,-2.421 -0.0994,-0.148 -0.2982,0.049 -0.3479,0.148 -0.3975,0.939 -0.5963,2.026 -0.7454,3.064 0,0.297 0,0.593 0.0497,0.89 0.1491,-1.236 0.497,-2.471 0.8945,-3.46 0.497,0.84 0.6958,2.224 0.9939,3.015 0.4473,1.186 0.994,2.322 1.5903,3.508 0.9442,1.878 2.783,4.003 4.6714,4.893 0,0 0.1491,-0.148 0.0497,-0.198 z"
       fill="#e59051"
       id="path456" />
    <path
       opacity="0.3"
       d="m 40.999,138.925 c -1.292,-0.593 -2.3357,-1.433 -3.3296,-2.422 -1.0933,-1.087 -1.7393,-2.372 -2.7332,-3.558 -0.0994,-0.099 -0.2485,0.099 -0.2485,0.198 0.0497,0.939 0.4969,1.729 0.8945,2.57 0.3976,0.84 0.6957,1.729 1.3418,2.421 0.0497,0.049 0.1491,-0.049 0.0994,-0.099 -0.5964,-0.692 -0.8945,-1.581 -1.2424,-2.471 -0.2485,-0.642 -0.5964,-1.235 -0.7454,-1.927 1.6399,2.174 3.0811,4.645 5.8641,5.436 0.0496,0 0.149,-0.099 0.0993,-0.148 z"
       fill="#e59051"
       id="path458" />
    <path
       opacity="0.3"
       d="m 46.8135,138.826 c -2.0376,-0.988 -4.3733,-2.273 -6.1126,-3.756 -1.5903,-1.334 -2.5842,-3.36 -3.6775,-5.04 -0.0497,-0.05 -0.1491,0.049 -0.0994,0.098 1.0436,1.829 1.9878,3.756 3.5284,5.288 0.7951,0.791 1.7891,1.285 2.7333,1.829 1.143,0.642 2.2363,1.482 3.4787,1.877 0.0994,-0.049 0.2981,-0.247 0.1491,-0.296 z"
       fill="#e59051"
       id="path460" />
    <path
       opacity="0.3"
       d="m 48.8013,135.713 c -0.6958,-0.297 -1.3915,-0.692 -2.0872,-1.038 h -0.0497 c 0.0497,0.148 0.1491,0.296 0.1988,0.395 0.5466,0.346 1.0933,0.692 1.6896,0.988 0.8448,0.445 2.0872,1.187 3.1308,1.384 0.1988,-0.099 0.3976,-0.197 0.5964,-0.296 -1.1927,-0.396 -2.3357,-0.989 -3.4787,-1.433 z"
       fill="#e59051"
       id="path462" />
    <path
       opacity="0.3"
       d="m 46.2668,137.047 c -1.1927,-0.544 -2.1369,-1.384 -3.1805,-2.125 -0.0994,0 -0.2485,0 -0.3479,-0.049 1.2424,0.988 2.3854,2.026 3.8763,2.718 1.2424,0.593 2.7332,0.593 4.075,0.296 0.2982,-0.148 0.5964,-0.296 0.8945,-0.445 -1.8884,0.346 -3.578,0.396 -5.3174,-0.395 z"
       fill="#e59051"
       id="path464" />
    <path
       opacity="0.3"
       d="m 44.7262,111.498 c -0.4969,0.593 -0.8945,1.235 -1.2424,1.927 -0.5466,0.939 -1.1927,1.779 -1.8387,2.619 0,0.148 -0.0497,0.247 -0.0497,0.396 0.5963,-0.692 1.2424,-1.384 1.7394,-2.175 0.4472,-0.642 0.7951,-1.334 1.1927,-1.977 0,-0.296 0.0993,-0.543 0.1987,-0.79 z"
       fill="#e59051"
       id="path466" />
    <path
       opacity="0.3"
       d="m 51.6339,111.696 c -2.3854,2.026 -5.3671,2.866 -7.9016,4.595 -0.0497,0.05 -0.0497,0.198 0.0497,0.149 0.5466,-0.297 1.1927,-0.346 1.7393,-0.643 0.7952,-0.494 1.5903,-0.889 2.3854,-1.334 1.3915,-0.741 2.7333,-1.532 3.8266,-2.669 0.0497,-0.098 0,-0.148 -0.0994,-0.098 z"
       fill="#e59051"
       id="path468" />
    <path
       opacity="0.3"
       d="m 49.6461,111.201 c -1.4909,0.989 -2.8327,2.175 -4.3235,3.163 -0.6958,0.494 -0.0497,-0.247 0.1491,-0.494 0.2981,-0.395 0.5963,-0.741 0.9442,-1.137 0.2485,-0.296 0.4472,-0.593 0.646,-0.889 -0.1988,0.148 -0.3975,0.346 -0.5963,0.494 -0.0497,0.099 -0.1491,0.198 -0.1988,0.296 -0.5467,0.742 -1.143,1.335 -1.4909,2.175 -0.0497,0.099 0.0497,0.148 0.1491,0.099 0.6957,-0.494 1.5406,-0.791 2.1866,-1.335 0.8945,-0.741 1.7394,-1.532 2.6339,-2.223 0,-0.099 0,-0.198 -0.0994,-0.149 z"
       fill="#e59051"
       id="path470" />
    <path
       opacity="0.3"
       d="m 53.6217,112.931 c -1.4411,1.087 -2.8326,2.224 -4.2738,3.36 0.1988,0 0.3976,0 0.5963,0 1.3418,-0.939 2.5345,-2.174 3.7272,-3.261 0.0497,-0.05 0,-0.148 -0.0497,-0.099 z"
       fill="#e59051"
       id="path472" />
    <path
       opacity="0.3"
       d="m 52.9757,136.058 c -0.7454,-0.346 -1.3418,-0.939 -2.1369,-1.186 -0.6958,-0.197 -1.5903,-0.444 -2.1866,-0.889 -0.0994,0 -0.1988,-0.05 -0.2485,-0.05 0.2982,0.643 1.4412,0.939 2.0375,1.186 0.5467,0.198 1.0436,0.396 1.5406,0.692 0.3976,0.247 0.6957,0.445 1.1927,0.494 -0.0497,-0.049 -0.1491,-0.148 -0.1988,-0.247 z"
       fill="#e59051"
       id="path474" />
    <path
       opacity="0.3"
       d="m 55.1623,134.576 c -0.7951,-0.396 -1.5902,-0.692 -2.3854,-1.038 -0.3975,-0.148 -0.7454,-0.346 -1.0933,-0.544 -0.0994,-0.049 -0.2484,-0.098 -0.3975,-0.148 -0.1491,0.05 -0.2982,0.099 -0.4473,0.099 1.1927,0.642 2.4351,1.087 3.6775,1.581 0.1988,0.05 0.4472,0.05 0.646,0.05 z"
       fill="#e59051"
       id="path476" />
    <path
       opacity="0.3"
       d="m 55.5599,132.056 c 0,-0.149 -0.0497,-0.297 -0.0497,-0.445 -0.3479,-2.619 0.3975,-5.337 -0.2982,-8.006 -0.1988,-0.889 -2.6339,-4.843 -1.64,-5.633 0.6958,-0.544 1.2424,-1.088 1.7394,-1.73 0.0497,-0.148 0.0994,-0.346 0.1491,-0.494 -0.497,0.692 -0.9939,1.285 -1.6897,1.779 -0.2485,0.198 -0.7454,0.445 -0.8945,0.791 -0.1988,0.494 -0.0994,0.691 0.0994,1.186 0.4969,0.938 0.8945,1.779 1.2921,2.767 0.3975,1.137 0.7951,2.075 0.8448,3.311 0.0994,1.137 -0.0497,2.323 -0.0994,3.459 -0.0994,1.73 0.0994,3.509 0.9442,5.041 0,-0.198 -0.0497,-0.346 -0.0497,-0.544 -0.0994,-0.494 -0.2484,-0.988 -0.3478,-1.482 z"
       fill="#e59051"
       id="path478" />
    <path
       opacity="0.3"
       d="m 56.7526,132.401 c 0,-0.395 0.0497,-0.84 0.0994,-1.235 -0.0497,-0.445 -0.0994,-0.889 -0.0994,-1.334 0,-1.532 0.3976,-2.965 0.2485,-4.547 -0.0994,-1.136 -0.5467,-2.273 -0.8449,-3.36 -0.4472,-1.631 -0.1987,-3.014 0.0994,-4.497 -0.1491,0.346 -0.2981,0.741 -0.4969,1.087 -0.0994,0.593 -0.1988,1.236 -0.1491,1.878 0.0497,1.532 0.6957,3.015 0.9939,4.497 0.2982,1.532 -0.0497,2.965 -0.1491,4.497 -0.0497,1.038 0.0994,2.026 0.2982,3.014 z"
       fill="#e59051"
       id="path480" />
    <path
       opacity="0.3"
       d="m 58.8895,127.213 c -0.0497,-1.088 -0.2485,-2.175 -0.5466,-3.212 -0.3479,-1.137 -0.8449,-2.027 -1.0436,-3.213 -0.1988,-1.087 -0.0994,-2.174 0.0497,-3.261 0,-0.099 0,-0.198 0,-0.346 0,-0.099 0,-0.247 -0.0497,-0.346 -0.3479,1.779 -0.5467,3.459 -0.0994,5.238 0.2981,1.285 0.9442,2.422 1.2424,3.756 0.149,0.791 0.1987,1.631 0.2981,2.471 0,-0.395 0.0994,-0.741 0.1491,-1.087 z"
       fill="#e59051"
       id="path482" />
    <path
       opacity="0.3"
       d="m 54.4169,127.311 c 0,-1.334 -0.1988,-2.668 -0.5964,-3.904 0,0.248 -0.0497,0.445 -0.0994,0.692 0.2982,1.829 0.3976,3.657 0.1491,5.584 -0.0994,0.939 -0.2485,1.878 -0.2485,2.867 0,-0.247 -1.4411,-1.335 -1.6399,-1.73 -0.0497,-0.049 -0.0497,-0.049 -0.0994,-0.049 0.1491,0.543 0.4472,1.087 0.8448,1.383 0.0994,0.099 0.1491,0.198 0.1491,0.297 0.2982,0.247 0.5963,0.494 0.7951,0.741 0.0994,0.099 0.2485,-0.049 0.2485,-0.148 -0.0497,-1.977 0.497,-3.855 0.497,-5.733 z"
       fill="#e59051"
       id="path484" />
    <path
       opacity="0.3"
       d="m 53.1248,129.14 c -0.1988,-0.049 -0.2982,0.247 -0.3479,0.593 -0.0497,-0.099 -0.0994,-0.198 -0.1491,-0.247 -0.0496,-0.148 -0.2484,0.049 -0.2484,0.099 -0.0497,0.346 0.1491,0.543 0.3975,0.741 0.0994,0.099 0.2982,-0.049 0.2982,-0.198 0,-0.099 -0.0497,-0.84 0,-0.889 0.0497,0 0.0994,-0.099 0.0497,-0.099 z"
       fill="#e59051"
       id="path486" />
  </g>
  <path
     opacity="0.3"
     d="m 50.9382,116.73265 c -2.4351,-2.52 -5.069,-3.657 -8.5974,-2.817 -1.8387,0.445 -3.429,1.236 -4.8702,2.372 0,0 0,0.05 -0.0497,0.05 -1.0933,1.087 -2.3357,2.421 -2.5841,4.003 -0.2485,1.433 -0.1988,2.866 -0.1491,4.348 0.0497,2.62 0.2981,5.93 2.6835,7.561 4.1745,2.866 10.138,2.718 14.0142,-0.692 2.1867,-1.927 3.8266,-4.497 3.5284,-7.462 -0.1491,-1.433 -0.4969,-3.508 -1.3914,-4.694 -0.7455,-0.989 -1.7394,-1.779 -2.5842,-2.669 z m -6.1623,16.061 c -4.6217,0 -8.3489,-3.706 -8.3489,-8.302 0,-4.596 3.7272,-8.302 8.3489,-8.302 4.6217,0 8.3489,3.706 8.3489,8.302 0,4.596 -3.7272,8.302 -8.3489,8.302 z"
     fill="#703405"
     id="path490" />
  <path
     opacity="0.3"
     d="m 44.7759,108.62865 c -1.0436,0 -2.0872,0.099 -3.0811,0.296 2.4848,0.198 4.9199,0.84 7.3053,1.779 0.646,0.247 3.2302,1.532 2.5841,2.619 -0.3975,0.742 0.3976,1.137 0.7952,1.73 0.1491,0.198 0.1491,0.445 0.0497,0.692 0.4969,-0.05 1.1927,-0.148 1.143,-0.247 -0.0497,-0.198 -0.1491,-0.396 -0.0994,-0.643 0,-0.247 0,-0.593 0.2485,-0.741 0.5963,-0.346 1.143,0.198 1.3914,0.692 0.6958,1.334 1.3418,2.619 2.0376,3.904 0.8448,1.482 1.5405,3.113 1.4908,4.892 0,2.175 -0.8448,3.904 -1.5405,5.93 -0.5467,1.681 -1.0933,2.718 -2.4351,3.904 -0.8945,0.791 -1.0933,1.631 -2.3357,1.137 -0.5467,-0.198 -0.8448,-0.593 -0.9939,-0.988 -0.1491,0.345 -0.2485,0.691 -0.1988,0.988 0,0.544 0,1.087 0,1.631 0,0.197 -0.1491,0.296 -0.3479,0.346 -5.9635,0.593 -12.2251,0.593 -17.0456,-3.608 -1.143,-0.988 -1.3915,-2.224 -1.8885,-3.607 -0.5963,-1.681 -1.2424,-3.311 -1.6399,-4.992 -0.3976,-1.531 -0.6461,-3.014 -0.497,-4.595 0.0497,-0.297 0.0994,-0.593 0.1491,-0.89 -0.646,1.68 -0.9939,3.558 -0.9939,5.436 0,8.698 7.1065,15.764 15.8529,15.764 8.7465,0 15.853,-7.066 15.853,-15.764 0.0497,-8.599 -7.0568,-15.665 -15.8033,-15.665 z"
     fill="#703405"
     id="path492" />
  <defs
     id="defs599">
    <linearGradient
       id="paint0_linear"
       x1="85.8685"
       y1="9.0935402"
       x2="15.3316"
       y2="29.2218"
       gradientUnits="userSpaceOnUse"
       gradientTransform="translate(0,-0.84335457)">
      <stop
         offset="0.0368098"
         stop-color="#F7E38F"
         id="stop494" />
      <stop
         offset="0.1242"
         stop-color="#FADC62"
         id="stop496" />
      <stop
         offset="0.217"
         stop-color="#FCD539"
         id="stop498" />
      <stop
         offset="0.3015"
         stop-color="#FED11B"
         id="stop500" />
      <stop
         offset="0.374"
         stop-color="#FFCE09"
         id="stop502" />
      <stop
         offset="0.4262"
         stop-color="#FFCD03"
         id="stop504" />
      <stop
         offset="1"
         stop-color="#F49A20"
         id="stop506" />
    </linearGradient>
    <linearGradient
       id="paint1_linear"
       x1="131.244"
       y1="24.245199"
       x2="58.6366"
       y2="13.6829"
       gradientUnits="userSpaceOnUse"
       gradientTransform="translate(0,-0.84335457)">
      <stop
         offset="0.0368098"
         stop-color="#F7E38F"
         id="stop509" />
      <stop
         offset="0.1242"
         stop-color="#FADC62"
         id="stop511" />
      <stop
         offset="0.217"
         stop-color="#FCD539"
         id="stop513" />
      <stop
         offset="0.3015"
         stop-color="#FED11B"
         id="stop515" />
      <stop
         offset="0.374"
         stop-color="#FFCE09"
         id="stop517" />
      <stop
         offset="0.4262"
         stop-color="#FFCD03"
         id="stop519" />
      <stop
         offset="1"
         stop-color="#F49A20"
         id="stop521" />
    </linearGradient>
    <linearGradient
       id="paint2_linear"
       x1="66.223801"
       y1="14.0968"
       x2="132.42799"
       y2="45.571098"
       gradientUnits="userSpaceOnUse"
       gradientTransform="translate(0,-0.84335457)">
      <stop
         offset="0.0368098"
         stop-color="#F7E38F"
         id="stop524" />
      <stop
         offset="0.1242"
         stop-color="#FADC62"
         id="stop526" />
      <stop
         offset="0.217"
         stop-color="#FCD539"
         id="stop528" />
      <stop
         offset="0.3015"
         stop-color="#FED11B"
         id="stop530" />
      <stop
         offset="0.374"
         stop-color="#FFCE09"
         id="stop532" />
      <stop
         offset="0.4262"
         stop-color="#FFCD03"
         id="stop534" />
      <stop
         offset="1"
         stop-color="#F49A20"
         id="stop536" />
    </linearGradient>
    <linearGradient
       id="paint3_linear"
       x1="97.940804"
       y1="30.465599"
       x2="27.232"
       y2="49.980999"
       gradientUnits="userSpaceOnUse"
       gradientTransform="translate(0,-0.84335457)">
      <stop
         offset="0.0368098"
         stop-color="#F7E38F"
         id="stop539" />
      <stop
         offset="0.1242"
         stop-color="#FADC62"
         id="stop541" />
      <stop
         offset="0.217"
         stop-color="#FCD539"
         id="stop543" />
      <stop
         offset="0.3015"
         stop-color="#FED11B"
         id="stop545" />
      <stop
         offset="0.374"
         stop-color="#FFCE09"
         id="stop547" />
      <stop
         offset="0.4262"
         stop-color="#FFCD03"
         id="stop549" />
      <stop
         offset="1"
         stop-color="#F49A20"
         id="stop551" />
    </linearGradient>
    <linearGradient
       id="paint4_linear"
       x1="27.001699"
       y1="28.551001"
       x2="100.078"
       y2="21.9035"
       gradientUnits="userSpaceOnUse"
       gradientTransform="translate(0,-0.84335457)">
      <stop
         offset="0.0368098"
         stop-color="#F7E38F"
         id="stop554" />
      <stop
         offset="0.1242"
         stop-color="#FADC62"
         id="stop556" />
      <stop
         offset="0.217"
         stop-color="#FCD539"
         id="stop558" />
      <stop
         offset="0.3015"
         stop-color="#FED11B"
         id="stop560" />
      <stop
         offset="0.374"
         stop-color="#FFCE09"
         id="stop562" />
      <stop
         offset="0.4262"
         stop-color="#FFCD03"
         id="stop564" />
      <stop
         offset="1"
         stop-color="#F49A20"
         id="stop566" />
    </linearGradient>
    <linearGradient
       id="paint5_linear"
       x1="86.858498"
       y1="38.916"
       x2="160.24001"
       y2="38.9161"
       gradientUnits="userSpaceOnUse"
       gradientTransform="translate(0,-0.84335457)">
      <stop
         offset="0.0368098"
         stop-color="#F7E38F"
         id="stop569" />
      <stop
         offset="0.1242"
         stop-color="#FADC62"
         id="stop571" />
      <stop
         offset="0.217"
         stop-color="#FCD539"
         id="stop573" />
      <stop
         offset="0.3015"
         stop-color="#FED11B"
         id="stop575" />
      <stop
         offset="0.374"
         stop-color="#FFCE09"
         id="stop577" />
      <stop
         offset="0.4262"
         stop-color="#FFCD03"
         id="stop579" />
      <stop
         offset="1"
         stop-color="#F49A20"
         id="stop581" />
    </linearGradient>
    <linearGradient
       id="paint6_linear"
       x1="67.014702"
       y1="41.4534"
       x2="-6.3547101"
       y2="40.27"
       gradientUnits="userSpaceOnUse"
       gradientTransform="translate(0,-0.84335457)">
      <stop
         offset="0.0368098"
         stop-color="#F7E38F"
         id="stop584" />
      <stop
         offset="0.1242"
         stop-color="#FADC62"
         id="stop586" />
      <stop
         offset="0.217"
         stop-color="#FCD539"
         id="stop588" />
      <stop
         offset="0.3015"
         stop-color="#FED11B"
         id="stop590" />
      <stop
         offset="0.374"
         stop-color="#FFCE09"
         id="stop592" />
      <stop
         offset="0.4262"
         stop-color="#FFCD03"
         id="stop594" />
      <stop
         offset="1"
         stop-color="#F49A20"
         id="stop596" />
    </linearGradient>
  </defs>
</svg>
