<svg width="331" height="309" viewBox="0 0 331 309" fill="none" xmlns="http://www.w3.org/2000/svg">
<g clip-path="url(#clip0)">
<path d="M72.8792 31.1764L143.44 11.8523L157.757 28.6338L172.073 46.9408H68.7887L72.8792 31.1764Z" fill="url(#paint0_linear)" stroke="#B6801E" stroke-width="0.1565" stroke-linecap="round" stroke-linejoin="round"/>
<path d="M72.8792 31.1764L143.44 11.8523L157.757 28.6338L172.073 46.9408H68.7887L72.8792 31.1764Z" fill="#EC8A11" stroke="#C06F1B" stroke-width="0.6016" stroke-linecap="round" stroke-linejoin="round"/>
<path d="M143.44 11.8521L166.96 5.74977L170.539 2.19006L187.924 14.3948L172.073 46.9407L157.757 28.6336L143.44 11.8521Z" fill="#FABF00" stroke="#C06F1B" stroke-width="0.6016" stroke-linecap="round" stroke-linejoin="round"/>
<path d="M72.8794 31.1763L157.757 28.6336L170.54 2.19006L87.1961 6.2583L72.8794 31.1763Z" fill="#F4A407" stroke="#C06F1B" stroke-width="0.6016" stroke-linecap="round" stroke-linejoin="round"/>
<path opacity="0.67" d="M171.051 4.22424L186.901 14.9034C186.901 14.9034 181.277 14.3948 171.051 4.22424Z" fill="#400800"/>
<path opacity="0.67" d="M88.2186 7.27553L168.494 3.71582C168.494 3.71582 102.024 5.24141 88.2186 7.27553Z" fill="#400800"/>
<path opacity="0.67" d="M159.802 22.0228L157.245 27.6167L138.838 28.1252C138.838 28.1252 154.688 27.1081 156.222 26.5996C157.245 26.0911 159.802 22.0228 159.802 22.0228Z" fill="#400800"/>
<path d="M184.856 18.9718L256.951 30.1595L263.598 51.0092L268.711 73.893L174.118 31.685L184.856 18.9718Z" fill="url(#paint1_linear)" stroke="#B6801E" stroke-width="0.1565" stroke-linecap="round" stroke-linejoin="round"/>
<path d="M184.856 18.9718L256.951 30.1595L263.598 51.0092L268.711 73.893L174.118 31.685L184.856 18.9718Z" fill="#EC8A11" stroke="#C06F1B" stroke-width="0.6016" stroke-linecap="round" stroke-linejoin="round"/>
<path d="M256.95 30.1593L280.982 33.719L285.584 32.702L296.321 51.009L268.711 73.8929L263.597 51.009L256.95 30.1593Z" fill="#FABF00" stroke="#C06F1B" stroke-width="0.6016" stroke-linecap="round" stroke-linejoin="round"/>
<path d="M184.856 18.9715L263.598 51.0089L285.584 32.7018L207.865 2.19006L184.856 18.9715Z" fill="#F4A407" stroke="#C06F1B" stroke-width="0.6016" stroke-linecap="round" stroke-linejoin="round"/>
<path opacity="0.67" d="M285.073 34.7361L295.299 51.009C295.299 50.5005 290.186 47.9578 285.073 34.7361Z" fill="#400800"/>
<path opacity="0.67" d="M208.376 3.71582L283.027 32.702C283.027 32.702 221.67 7.27553 208.376 3.71582Z" fill="#400800"/>
<path opacity="0.67" d="M267.688 45.9236L263.086 49.9918L246.213 42.8724C246.213 42.8724 261.041 48.4663 262.575 48.4663C263.598 48.4663 267.688 45.9236 267.688 45.9236Z" fill="#400800"/>
<path d="M252.86 61.1798L186.39 31.1765L169.517 44.9068L152.132 60.6712L254.394 77.9612L252.86 61.1798Z" fill="url(#paint2_linear)" stroke="#B6801E" stroke-width="0.1565" stroke-linecap="round" stroke-linejoin="round"/>
<path d="M252.86 61.1798L186.39 31.1765L169.517 44.9068L152.132 60.6712L254.394 77.9612L252.86 61.1798Z" fill="#EC8A11" stroke="#C06F1B" stroke-width="0.6016" stroke-linecap="round" stroke-linejoin="round"/>
<path d="M186.39 31.1763L164.404 21.0057L161.336 16.9375L141.906 26.091L152.132 60.671L169.517 44.9066L186.39 31.1763Z" fill="#FABF00" stroke="#C06F1B" stroke-width="0.6016" stroke-linecap="round" stroke-linejoin="round"/>
<path d="M252.861 61.1796L169.517 44.9066L161.336 16.9375L243.146 34.736L252.861 61.1796Z" fill="#F4A407" stroke="#C06F1B" stroke-width="0.6016" stroke-linecap="round" stroke-linejoin="round"/>
<path opacity="0.67" d="M160.313 18.9717L142.929 27.1082C142.929 27.1082 149.064 27.1082 160.313 18.9717Z" fill="#400800"/>
<path opacity="0.67" d="M241.611 35.2447L163.381 18.4633C163.381 18.4633 228.829 31.1765 241.611 35.2447Z" fill="#400800"/>
<path opacity="0.67" d="M169.006 38.2955L170.54 43.8894L188.436 47.4491C188.436 47.4491 173.096 43.8894 171.562 42.8723C170.54 42.3638 169.006 38.2955 169.006 38.2955Z" fill="#400800"/>
<path d="M101.001 79.9954L171.562 61.6884L185.879 77.9613L200.195 96.7769L96.3995 95.7599L101.001 79.9954Z" fill="url(#paint3_linear)" stroke="#B6801E" stroke-width="0.1565" stroke-linecap="round" stroke-linejoin="round"/>
<path d="M101.001 79.9954L171.562 61.6884L185.879 77.9613L200.195 96.7769L96.3995 95.7599L101.001 79.9954Z" fill="#EC8A11" stroke="#C06F1B" stroke-width="0.6016" stroke-linecap="round" stroke-linejoin="round"/>
<path d="M171.562 61.6882L195.082 55.5858L198.661 52.0261L216.046 64.7394L200.195 96.7767L185.879 77.9611L171.562 61.6882Z" fill="#FABF00" stroke="#C06F1B" stroke-width="0.6016" stroke-linecap="round" stroke-linejoin="round"/>
<path d="M101.001 79.9953L185.879 77.9611L198.662 52.0261L115.318 55.0773L101.001 79.9953Z" fill="#F4A407" stroke="#C06F1B" stroke-width="0.6016" stroke-linecap="round" stroke-linejoin="round"/>
<path opacity="0.67" d="M199.684 54.0603L215.535 64.7394C215.023 64.7394 209.399 64.2309 199.684 54.0603Z" fill="#400800"/>
<path opacity="0.67" d="M116.341 56.6031L196.616 53.5519C196.616 53.5519 130.146 54.5689 116.341 56.6031Z" fill="#400800"/>
<path opacity="0.67" d="M187.924 71.8589L185.368 76.9442L166.96 77.4527C166.96 77.4527 182.811 76.4356 184.345 75.9271C185.368 75.4186 187.924 71.8589 187.924 71.8589Z" fill="#400800"/>
<path d="M160.825 34.736L88.2185 42.3639L80.5489 62.7051L73.9019 85.0804L170.539 48.4663L160.825 34.736Z" fill="url(#paint4_linear)" stroke="#B6801E" stroke-width="0.1565" stroke-linecap="round" stroke-linejoin="round"/>
<path d="M160.825 34.736L88.2185 42.3639L80.5489 62.7051L73.9019 85.0804L170.539 48.4663L160.825 34.736Z" fill="#EC8A11" stroke="#C06F1B" stroke-width="0.6016" stroke-linecap="round" stroke-linejoin="round"/>
<path d="M88.2187 42.3639L63.6759 44.9065L59.0741 42.8724L47.314 60.671L73.9021 85.0804L80.5491 62.7051L88.2187 42.3639Z" fill="#FABF00" stroke="#C06F1B" stroke-width="0.6016" stroke-linecap="round" stroke-linejoin="round"/>
<path d="M160.825 34.736L80.5494 62.7052L59.0743 42.8725L138.327 16.9375L160.825 34.736Z" fill="#F4A407" stroke="#C06F1B" stroke-width="0.6016" stroke-linecap="round" stroke-linejoin="round"/>
<path opacity="0.67" d="M59.5856 44.9066L48.8481 60.671C48.3368 60.671 53.9612 58.1284 59.5856 44.9066Z" fill="#400800"/>
<path opacity="0.67" d="M137.816 18.4633L61.6309 43.3812C61.6309 43.3812 124.522 21.5144 137.816 18.4633Z" fill="#400800"/>
<path opacity="0.67" d="M76.4584 57.6198L81.0602 61.688L98.4447 55.5857C98.4447 55.5857 83.1054 60.1625 81.5715 60.1625C80.0375 60.1625 76.4584 57.6198 76.4584 57.6198Z" fill="#400800"/>
<path d="M302.969 69.3158L229.851 69.8243L220.136 89.657L211.444 111.524L311.15 83.5546L302.969 69.3158Z" fill="url(#paint5_linear)" stroke="#B6801E" stroke-width="0.1565" stroke-linecap="round" stroke-linejoin="round"/>
<path d="M302.969 69.3158L229.851 69.8243L220.136 89.657L211.444 111.524L311.15 83.5546L302.969 69.3158Z" fill="#EC8A11" stroke="#C06F1B" stroke-width="0.6016" stroke-linecap="round" stroke-linejoin="round"/>
<path d="M229.852 69.8245L205.309 70.3331L201.218 68.299L187.413 84.5719L211.444 111.524L220.137 89.6572L229.852 69.8245Z" fill="#FABF00" stroke="#C06F1B" stroke-width="0.6016" stroke-linecap="round" stroke-linejoin="round"/>
<path d="M302.969 69.3158L220.136 89.657L201.218 68.2987L282.516 48.9746L302.969 69.3158Z" fill="#F4A407" stroke="#C06F1B" stroke-width="0.6016" stroke-linecap="round" stroke-linejoin="round"/>
<path opacity="0.67" d="M201.218 70.3326L188.947 85.08C188.947 84.5715 194.571 82.5374 201.218 70.3326Z" fill="#400800"/>
<path opacity="0.67" d="M281.494 50.5004L203.263 68.8074C203.775 68.8074 268.2 52.5345 281.494 50.5004Z" fill="#400800"/>
<path opacity="0.67" d="M217.069 84.0632L221.16 88.64L239.055 84.0632C239.055 84.0632 223.716 87.1144 222.182 87.1144C220.137 87.1144 217.069 84.0632 217.069 84.0632Z" fill="#400800"/>
<path d="M30.9519 73.3842L103.558 75.4183L112.761 95.2509L121.454 117.118L22.2596 87.1145L30.9519 73.3842Z" fill="url(#paint6_linear)" stroke="#B6801E" stroke-width="0.1565" stroke-linecap="round" stroke-linejoin="round"/>
<path d="M30.9519 73.3842L103.558 75.4183L112.761 95.2509L121.454 117.118L22.2596 87.1145L30.9519 73.3842Z" fill="#EC8A11" stroke="#C06F1B" stroke-width="0.6016" stroke-linecap="round" stroke-linejoin="round"/>
<path d="M103.558 75.4182L128.101 75.9267L132.703 73.8926L145.485 90.6741L121.454 117.118L112.762 95.2508L103.558 75.4182Z" fill="#FABF00" stroke="#C06F1B" stroke-width="0.6016" stroke-linecap="round" stroke-linejoin="round"/>
<path d="M30.9517 73.384L112.761 95.2508L132.702 73.8926L51.404 53.5514L30.9517 73.384Z" fill="#F4A407" stroke="#C06F1B" stroke-width="0.6016" stroke-linecap="round" stroke-linejoin="round"/>
<path opacity="0.67" d="M132.703 75.9268L144.463 90.6741C144.463 90.6741 138.838 88.64 132.703 75.9268Z" fill="#400800"/>
<path opacity="0.67" d="M52.427 55.0771L130.146 74.4013C130.146 74.4013 65.7211 57.1113 52.427 55.0771Z" fill="#400800"/>
<path opacity="0.67" d="M116.341 89.6569L112.25 94.2336L94.3542 89.6569C94.3542 89.6569 109.694 93.2166 111.227 93.2166C113.273 92.708 116.341 89.6569 116.341 89.6569Z" fill="#400800"/>
<path opacity="0.7" d="M64.6986 44.398L138.839 19.9885L144.974 26.0909L71.8569 50.5003L64.6986 44.398Z" fill="#FAC658"/>
<path opacity="0.7" d="M84.1281 15.4117L88.2185 9.30934L166.96 5.74963L162.358 11.852L84.1281 15.4117Z" fill="#FAC658"/>
<path opacity="0.7" d="M45.7798 61.1794L51.9155 56.0941L128.101 75.9268L123.499 79.995L45.7798 61.1794Z" fill="#FAC658"/>
<path opacity="0.7" d="M155.711 57.62L140.883 67.2821L188.946 65.7565L194.571 54.5688C194.06 54.5688 156.223 57.1115 155.711 57.62Z" fill="#FAC658"/>
<path opacity="0.7" d="M199.173 11.3435L208.376 5.74963L274.335 31.6846L269.222 33.2102L199.173 11.3435Z" fill="#FAC658"/>
<path opacity="0.7" d="M207.354 70.8416L272.801 55.5857L219.114 81.5207L207.354 70.8416Z" fill="#FAC658"/>
<path opacity="0.7" d="M167.983 28.1249L165.938 21.0055L239.055 36.7699L240.078 40.3296L167.983 28.1249Z" fill="#FAC658"/>
<path opacity="0.3" d="M269.222 49.9916C263.598 52.5343 257.462 54.5684 251.838 56.6025C256.44 55.5855 261.041 54.5684 265.643 53.5513C269.734 52.5343 274.336 50.5002 278.426 50.5002C283.028 50.5002 286.096 52.5343 289.675 54.5684C287.118 51.0087 285.073 46.9405 282.005 43.8893C278.426 46.9405 273.824 48.466 269.222 49.9916Z" fill="#5A2602"/>
<path opacity="0.3" d="M200.707 51.0087C196.616 49.9917 192.015 49.4832 187.924 49.4832C184.856 49.4832 182.3 49.9917 179.232 48.9746C176.675 48.4661 174.119 47.449 172.074 45.9234C169.517 43.8893 167.472 41.8552 164.915 41.3467C166.449 43.3808 167.983 45.4149 169.517 47.449C169.517 47.9576 169.517 48.4661 169.006 48.4661C166.96 49.9917 164.404 51.0087 162.359 52.0258C171.051 52.0258 179.232 51.5173 187.924 52.0258C193.549 52.0258 200.196 52.0258 204.286 56.6026C206.843 58.6367 207.865 61.1793 209.399 63.722C211.444 66.2646 212.978 66.2646 215.535 65.2476C217.069 64.739 218.091 64.2305 219.625 63.722C226.272 61.6879 232.919 59.1452 240.078 58.6367C234.965 56.6026 229.34 56.6026 224.227 55.5855C216.046 54.0599 208.377 52.5343 200.707 51.0087Z" fill="#B15906"/>
<path opacity="0.3" d="M86.1733 61.6877C89.2412 62.7048 92.3091 63.2133 94.8656 64.2304C98.4448 65.2474 102.024 65.756 105.092 67.2816C108.16 68.2986 111.228 69.8242 114.295 69.8242C120.942 69.8242 126.567 65.2474 132.703 62.7048C137.304 60.6707 141.395 59.1451 145.997 57.111C135.77 59.1451 126.056 62.7048 115.829 63.2133C106.626 63.2133 96.3995 62.1963 86.1733 61.6877Z" fill="#B15906"/>
<path opacity="0.3" d="M166.96 7.78381C163.381 9.81793 160.825 13.3776 157.245 14.3947C154.178 15.4118 150.087 16.9373 147.019 15.4118C145.485 14.9032 144.463 13.8862 143.44 12.8691C140.883 10.835 138.838 10.835 136.282 12.3606C132.703 14.3947 128.612 14.9032 125.033 15.9203C113.273 18.9715 103.047 23.5482 92.8203 28.125C85.662 31.1762 77.9924 34.7359 71.3453 38.2956V38.8041C86.6846 33.2103 102.535 28.125 118.386 23.0397C121.454 22.5312 125.033 21.0056 128.612 19.48C131.169 18.4629 134.236 16.9373 137.304 16.9373C141.906 16.4288 145.485 20.4971 149.064 24.0568C152.644 21.5141 156.734 17.9544 161.336 17.9544C165.426 17.9544 170.028 19.48 174.119 21.0056C174.63 21.0056 174.63 21.0056 175.141 21.0056C179.743 22.0226 184.345 22.5312 188.947 23.5482C198.661 25.0738 208.376 27.6165 218.091 29.1421C223.204 30.1591 228.317 31.1762 233.431 32.1932C236.498 32.7018 239.566 33.2103 242.634 34.7359C244.679 35.7529 245.191 38.2956 245.702 40.3297C246.213 41.8553 247.236 43.8894 248.259 45.9235C251.326 47.4491 254.906 49.4832 258.485 49.4832C255.417 46.4321 252.349 43.8894 249.792 40.8382C247.236 37.2785 246.213 33.7188 244.168 29.6506C243.145 27.6165 242.123 25.0738 239.566 25.0738C237.521 25.0738 235.476 25.5823 233.431 25.5823C228.829 26.0909 224.738 25.5823 220.137 25.0738C209.399 23.5482 198.15 22.5312 187.413 21.0056C179.743 19.9885 171.051 18.9715 163.892 14.9032C163.381 14.9032 163.381 14.3947 163.381 13.8862C164.915 11.852 165.938 9.81793 166.96 7.78381Z" fill="#B15906"/>
<path opacity="0.3" d="M305.525 83.0462C294.788 81.5206 283.539 83.0462 273.313 79.4864C272.801 79.4864 272.29 78.4694 273.313 77.9609C279.448 74.9097 286.607 73.3841 293.254 71.35C290.186 71.8585 287.118 71.8585 284.562 71.8585C272.801 72.367 261.553 74.9097 250.304 76.9438C240.589 78.9779 230.874 81.012 221.159 78.4694C215.535 77.4523 210.422 75.4182 205.309 73.3841C206.842 75.4182 207.865 77.4523 207.865 79.4864C207.865 79.995 207.865 79.995 207.354 79.995C202.241 81.5206 196.616 81.5206 190.992 81.012C184.345 80.5035 178.209 80.5035 171.562 80.5035C157.757 80.5035 143.951 80.5035 130.146 79.4864C129.635 79.4864 129.123 78.9779 129.635 78.4694C130.657 76.9438 131.68 75.4182 133.214 74.4012C129.635 74.9097 126.056 76.4353 122.476 76.9438C118.897 77.4523 114.807 77.4523 111.228 77.9609C103.047 78.9779 94.8656 79.995 86.6847 79.995C72.8793 80.5035 59.5853 77.4523 46.2912 74.9097C48.3364 76.4353 50.3817 77.4523 52.4269 79.4864C52.9382 79.995 52.4269 80.5035 51.9156 81.012C46.2912 81.5206 40.6668 80.5035 35.0424 81.012C31.9745 81.5206 28.3954 82.0291 25.3275 82.0291L22.2596 87.1144L121.454 116.609L140.883 95.7594L198.661 96.2679L211.956 111.015L310.638 83.0462C308.593 83.5547 307.059 83.0462 305.525 83.0462Z" fill="#B15906"/>
<path d="M254.394 33.7188C254.394 33.7188 253.371 49.4832 252.86 50.5002C251.838 51.5173 247.236 43.3808 247.236 43.3808C247.236 43.3808 251.326 50.5002 250.815 51.5173C250.304 52.5343 240.589 52.0258 240.589 52.0258C240.589 52.0258 250.815 53.0429 250.304 54.5685C249.792 56.0941 243.145 65.2476 243.145 65.2476C243.145 65.2476 251.838 54.0599 252.86 55.5855C253.883 57.1111 257.973 70.3329 257.973 70.3329C257.973 70.3329 254.394 54.5685 255.417 55.077C256.951 55.5855 270.245 58.1282 270.245 58.1282C270.245 58.1282 255.928 55.077 256.439 52.5343C256.951 50.5002 270.245 42.3638 270.245 42.3638C270.245 42.3638 256.951 51.5173 254.905 51.0088C253.371 49.9917 254.394 33.7188 254.394 33.7188Z" fill="#FFFBDF"/>
<path d="M162.87 16.4291C162.87 16.4291 161.847 32.1935 161.336 33.2106C160.314 34.2276 155.712 26.0911 155.712 26.0911C155.712 26.0911 159.291 32.702 159.291 33.7191C158.78 34.7361 149.065 34.2276 149.065 34.2276C149.065 34.2276 159.291 35.2447 158.78 36.7703C158.268 38.2959 151.621 47.4494 151.621 47.4494C151.621 47.4494 160.314 36.2617 161.336 37.7873C162.359 39.3129 166.449 52.5347 166.449 52.5347C166.449 52.5347 162.87 36.7703 163.893 37.2788C165.427 37.7873 178.721 40.33 178.721 40.33C178.721 40.33 164.404 37.2788 164.915 34.7361C165.427 32.702 178.721 24.5656 178.721 24.5656C178.721 24.5656 165.427 33.7191 163.381 33.2106C161.336 32.702 162.87 16.4291 162.87 16.4291Z" fill="#FFFBDF"/>
<path d="M70.8342 45.9235C70.8342 45.9235 70.3229 56.0941 69.8116 56.6026C69.3003 57.1111 66.2324 52.0258 66.2324 52.0258C66.2324 52.0258 68.789 56.6026 68.789 57.1111C68.789 57.6196 62.142 57.6196 62.142 57.6196C62.142 57.6196 68.789 58.1282 68.2777 59.1452C67.7664 60.1623 63.6759 66.2646 63.6759 66.2646C63.6759 66.2646 69.3003 59.1452 69.8116 60.1623C70.3229 61.1794 72.8795 69.3158 72.8795 69.3158C72.8795 69.3158 70.3229 59.1452 71.3455 59.6538C72.3682 59.6538 81.0604 61.6879 81.0604 61.6879C81.0604 61.6879 71.8569 59.6538 72.3682 58.1282C72.3682 56.6026 81.0604 51.5173 81.0604 51.5173C81.0604 51.5173 72.3682 57.6196 71.3455 57.1111C70.3229 56.6026 70.8342 45.9235 70.8342 45.9235Z" fill="#FFFBDF"/>
<path d="M92.3093 6.76697C92.3093 6.76697 91.798 12.3608 91.798 12.8693C91.2867 13.3779 89.7528 10.3267 89.7528 10.3267C89.7528 10.3267 91.2867 12.8693 91.2867 13.3779C91.2867 13.8864 87.7075 13.3779 87.7075 13.3779C87.7075 13.3779 91.2867 13.8864 91.2867 14.3949C91.2867 14.9034 88.7301 18.4632 88.7301 18.4632C88.7301 18.4632 91.798 14.3949 92.3093 14.9034C92.8206 15.412 94.3545 20.4973 94.3545 20.4973C94.3545 20.4973 92.3093 14.3949 92.8206 14.3949C93.3319 14.3949 98.445 15.412 98.445 15.412C98.445 15.412 93.3319 14.3949 93.3319 13.3779C93.3319 12.8693 98.445 9.81815 98.445 9.81815C98.445 9.81815 93.3319 13.3779 92.8206 12.8693C91.798 12.8693 92.3093 6.76697 92.3093 6.76697Z" fill="#FFFBDF"/>
<path d="M200.707 62.7052C200.707 62.7052 200.195 68.299 200.195 68.8076C199.684 69.3161 198.15 66.2649 198.15 66.2649C198.15 66.2649 199.684 68.8076 199.684 69.3161C199.684 69.8246 196.105 69.3161 196.105 69.3161C196.105 69.3161 199.684 69.8246 199.684 70.3331C199.684 70.8417 197.128 74.4014 197.128 74.4014C197.128 74.4014 200.195 70.3331 200.707 70.8417C201.218 71.3502 202.752 76.4355 202.752 76.4355C202.752 76.4355 201.218 70.8417 201.729 70.8417C202.241 70.8417 207.354 71.8587 207.354 71.8587C207.354 71.8587 202.241 70.8417 202.241 69.8246C202.241 69.3161 207.354 66.2649 207.354 66.2649C207.354 66.2649 202.241 69.8246 201.729 69.3161C200.195 68.8076 200.707 62.7052 200.707 62.7052Z" fill="#FFFBDF"/>
<path d="M52.9382 252.386L14.59 252.895V245.267H1.80725V271.202H15.1013V263.574H56.0061L52.9382 252.386Z" fill="#525352"/>
<path d="M16.1241 272.219H0.78479V244.25H15.6128V251.878L53.961 251.37L57.5402 264.591H16.1241V272.219ZM2.83003 270.185H13.5675V262.557H54.4723L51.9158 253.404L13.0562 253.912V246.284H2.83003V270.185Z" fill="#161615"/>
<path opacity="0.5" d="M1.80725 259.506V271.202H15.1013V263.574H56.0061L54.9835 259.506H1.80725Z" fill="#2F2F2E"/>
<path opacity="0.7" d="M3.85254 247.301H12.5448V255.438H30.4406L10.4996 257.472V249.844L3.85254 247.301Z" fill="#8D8D8D"/>
<path d="M277.915 252.386L316.775 252.895V245.267H329.557V271.202H316.263V263.574H275.358L277.915 252.386Z" fill="#525352"/>
<path d="M315.24 264.591H273.824L277.403 251.37L315.752 251.878V244.25H330.58V272.219H315.24V264.591ZM328.023 246.284H317.797V253.912L278.937 253.404L276.381 262.557H317.286V270.185H328.023V246.284Z" fill="#161615"/>
<path opacity="0.5" d="M329.557 259.506V271.202H316.263V263.574H275.358L276.381 259.506H329.557Z" fill="#2F2F2E"/>
<path opacity="0.7" d="M327.512 247.301H318.82V255.438H300.924L320.865 257.472V249.844L327.512 247.301Z" fill="#8D8D8D"/>
<path d="M284.562 230.011H47.8252V266.625H284.562V230.011Z" fill="#2F2F2E"/>
<path d="M286.096 268.151H46.8027V229.503H286.096V268.151ZM48.848 265.608H283.539V231.537H48.848V265.608Z" fill="#161615"/>
<path d="M284.562 263.066H47.8252V267.134H284.562V263.066Z" fill="#2F2F2E"/>
<path opacity="0.5" d="M284.562 230.011H47.8252V256.455H284.562V230.011Z" fill="#2F2F2E"/>
<path d="M228.829 86.0974H103.558H23.2825L40.1557 248.827H103.558H228.829H292.231L309.616 86.0974H228.829Z" fill="#8C5B44"/>
<path d="M228.829 86.0974H103.558H23.2825L40.1557 248.827H103.558H228.829H292.231L309.616 86.0974H228.829Z" fill="#754D3D"/>
<path d="M150.598 112.541H52.9382L64.6984 223.909H96.3996H150.598V112.541Z" fill="#8C5B44"/>
<path d="M179.232 112.541V223.909H204.797H264.109L274.846 112.541H179.232Z" fill="#8C5B44"/>
<path d="M228.829 86.0974H103.558H23.2826L40.1558 248.827H103.558H228.829H292.232L309.105 86.0974H228.829ZM271.268 231.028H57.5404L45.2689 108.473H283.028L271.268 231.028Z" fill="#8C5B44"/>
<path d="M293.765 249.844H39.1329V248.827L21.7484 84.5717H310.638L293.765 249.844ZM41.1782 247.81H291.72L308.082 87.1143H24.305L41.1782 247.81ZM272.29 232.045H56.5175L44.246 106.947H284.562L272.29 232.045ZM58.5627 230.011H270.756L282.005 109.49H46.8026L58.5627 230.011Z" fill="#4A2918"/>
<g opacity="0.5">
<path opacity="0.5" d="M283.539 108.473L271.779 231.028H57.5401L45.2686 108.473H283.539ZM288.141 103.896H283.028H45.2686H40.1555L40.6668 108.981L52.427 231.537L52.9383 235.605H57.0287H271.268H275.358L275.869 231.537L287.629 108.981L288.141 103.896Z" fill="#8C5B44"/>
</g>
<g opacity="0.9">
<path opacity="0.3" d="M308.082 99.8277L309.616 86.0974H23.2825L24.8164 99.8277H308.082Z" fill="#8C5B44"/>
</g>
<path d="M318.819 83.5548H14.0787V94.7425H318.819V83.5548Z" fill="#8C5B44"/>
<path d="M319.842 95.251H13.0563V83.5548H319.842V95.251ZM15.1015 94.234H317.797V84.0633H15.1015V94.234Z" fill="#4A2918"/>
<path opacity="0.7" d="M315.24 84.5717H15.6128V85.5887H315.24V84.5717Z" fill="#808080"/>
<path opacity="0.4" d="M318.819 89.1486H14.0787V94.7424H318.819V89.1486Z" fill="#8C5B44"/>
<path d="M39.1331 101.862C39.1331 103.896 37.0879 105.93 35.0426 105.93C32.9974 105.93 30.9521 103.896 30.9521 101.862C30.9521 99.8279 32.9974 97.7938 35.0426 97.7938C37.0879 97.7938 39.1331 99.3194 39.1331 101.862Z" fill="#602D1F"/>
<path d="M37.5992 101.354C37.5992 103.388 36.0653 104.913 34.0201 104.913C31.9748 104.913 30.4409 103.388 30.4409 101.354C30.4409 99.3194 31.9748 97.7938 34.0201 97.7938C36.0653 97.7938 37.5992 99.8279 37.5992 101.354Z" fill="#602D1F"/>
<path d="M35.043 100.845C35.043 101.862 34.5316 102.371 33.509 102.371C32.4864 102.371 31.9751 101.862 31.9751 100.845C31.9751 99.8281 32.4864 99.3196 33.509 99.3196C34.5316 99.3196 35.043 99.8281 35.043 100.845Z" fill="#E5E5E5"/>
<path d="M41.6896 136.951C41.6896 138.985 39.6444 141.019 37.5991 141.019C35.5539 141.019 33.5087 138.985 33.5087 136.951C33.5087 134.917 35.5539 132.882 37.5991 132.882C40.1557 132.882 41.6896 134.917 41.6896 136.951Z" fill="#602D1F"/>
<path d="M40.667 136.951C40.667 138.985 39.1331 140.51 37.0878 140.51C35.0426 140.51 33.5087 138.985 33.5087 136.951C33.5087 134.916 35.0426 133.391 37.0878 133.391C39.1331 133.391 40.667 134.916 40.667 136.951Z" fill="#602D1F"/>
<path d="M38.1107 135.934C38.1107 136.951 37.5994 137.459 36.5768 137.459C35.5542 137.459 35.0428 136.951 35.0428 135.934C35.0428 134.917 35.5542 134.408 36.5768 134.408C37.5994 134.408 38.1107 134.917 38.1107 135.934Z" fill="#E5E5E5"/>
<path d="M45.7803 171.022C45.7803 173.056 43.7351 175.09 41.6898 175.09C39.6446 175.09 37.5994 173.056 37.5994 171.022C37.5994 168.988 39.6446 166.954 41.6898 166.954C43.7351 166.954 45.7803 168.988 45.7803 171.022Z" fill="#602D1F"/>
<path d="M44.7577 171.022C44.7577 173.056 43.2238 174.582 41.1785 174.582C39.1333 174.582 37.5994 173.056 37.5994 171.022C37.5994 168.988 39.1333 167.462 41.1785 167.462C43.2238 167.462 44.7577 168.988 44.7577 171.022Z" fill="#602D1F"/>
<path d="M41.6897 170.005C41.6897 171.022 41.1784 171.531 40.1558 171.531C39.1331 171.531 38.6218 171.022 38.6218 170.005C38.6218 168.988 39.1331 168.479 40.1558 168.479C41.1784 168.479 41.6897 168.988 41.6897 170.005Z" fill="#E5E5E5"/>
<path d="M53.45 239.165C53.45 241.199 51.4048 243.233 49.3595 243.233C47.3143 243.233 45.269 241.199 45.269 239.165C45.269 237.131 47.3143 235.097 49.3595 235.097C51.4048 235.097 53.45 237.131 53.45 239.165Z" fill="#602D1F"/>
<path d="M52.4274 239.165C52.4274 241.199 50.8934 242.725 48.8482 242.725C46.803 242.725 45.269 241.199 45.269 239.165C45.269 237.131 46.803 235.605 48.8482 235.605C50.8934 235.605 52.4274 237.131 52.4274 239.165Z" fill="#602D1F"/>
<path d="M49.3598 238.148C49.3598 239.165 48.8485 239.674 47.8258 239.674C47.3145 239.674 46.8032 239.165 46.8032 238.148C46.8032 237.131 47.3145 236.623 48.3372 236.623C48.8485 236.623 49.3598 237.64 49.3598 238.148Z" fill="#E5E5E5"/>
<path d="M91.7981 239.165C91.7981 241.199 89.7529 243.233 87.7077 243.233C85.6624 243.233 83.6172 241.199 83.6172 239.165C83.6172 237.131 85.6624 235.097 87.7077 235.097C90.2642 235.097 91.7981 237.131 91.7981 239.165Z" fill="#602D1F"/>
<path d="M90.7755 239.165C90.7755 241.199 89.2416 242.725 87.1964 242.725C85.1511 242.725 83.6172 241.199 83.6172 239.165C83.6172 237.131 85.1511 235.605 87.1964 235.605C89.2416 235.605 90.7755 237.131 90.7755 239.165Z" fill="#602D1F"/>
<path d="M88.2192 238.148C88.2192 239.165 87.7079 239.674 86.6853 239.674C85.6627 239.674 85.1514 239.165 85.1514 238.148C85.1514 237.131 85.6627 236.623 86.6853 236.623C87.7079 236.623 88.2192 237.64 88.2192 238.148Z" fill="#E5E5E5"/>
<path d="M130.658 239.165C130.658 241.199 128.612 243.233 126.567 243.233C124.522 243.233 122.477 241.199 122.477 239.165C122.477 237.131 124.522 235.097 126.567 235.097C128.612 235.097 130.658 237.131 130.658 239.165Z" fill="#602D1F"/>
<path d="M129.635 239.165C129.635 241.199 128.101 242.725 126.056 242.725C124.011 242.725 122.477 241.199 122.477 239.165C122.477 237.131 124.011 235.605 126.056 235.605C128.101 235.605 129.635 237.131 129.635 239.165Z" fill="#602D1F"/>
<path d="M126.567 238.148C126.567 239.165 126.056 239.674 125.033 239.674C124.01 239.674 123.499 239.165 123.499 238.148C123.499 237.131 124.01 236.623 125.033 236.623C126.056 236.623 126.567 237.64 126.567 238.148Z" fill="#E5E5E5"/>
<path d="M169.517 239.165C169.517 241.199 167.472 243.233 165.427 243.233C163.381 243.233 161.336 241.199 161.336 239.165C161.336 237.131 163.381 235.097 165.427 235.097C167.472 235.097 169.517 237.131 169.517 239.165Z" fill="#602D1F"/>
<path d="M167.983 239.165C167.983 241.199 166.449 242.725 164.404 242.725C162.359 242.725 160.825 241.199 160.825 239.165C160.825 237.131 162.359 235.605 164.404 235.605C166.449 235.605 167.983 237.131 167.983 239.165Z" fill="#602D1F"/>
<path d="M165.427 238.148C165.427 239.165 164.916 239.674 163.893 239.674C162.87 239.674 162.359 239.165 162.359 238.148C162.359 237.131 162.87 236.623 163.893 236.623C164.916 236.623 165.427 237.64 165.427 238.148Z" fill="#E5E5E5"/>
<path d="M207.865 239.165C207.865 241.199 205.82 243.233 203.775 243.233C201.73 243.233 199.684 241.199 199.684 239.165C199.684 237.131 201.73 235.097 203.775 235.097C206.331 235.097 207.865 237.131 207.865 239.165Z" fill="#602D1F"/>
<path d="M206.843 239.165C206.843 241.199 205.309 242.725 203.263 242.725C201.218 242.725 199.684 241.199 199.684 239.165C199.684 237.131 201.218 235.605 203.263 235.605C205.309 235.605 206.843 237.131 206.843 239.165Z" fill="#602D1F"/>
<path d="M204.286 238.148C204.286 239.165 203.775 239.674 202.752 239.674C201.73 239.674 201.219 239.165 201.219 238.148C201.219 237.131 201.73 236.623 202.752 236.623C203.264 236.623 204.286 237.64 204.286 238.148Z" fill="#E5E5E5"/>
<path d="M246.725 239.165C246.725 241.199 244.679 243.233 242.634 243.233C240.589 243.233 238.544 241.199 238.544 239.165C238.544 237.131 240.589 235.097 242.634 235.097C244.679 235.097 246.725 237.131 246.725 239.165Z" fill="#602D1F"/>
<path d="M245.702 239.165C245.702 241.199 244.168 242.725 242.123 242.725C240.078 242.725 238.544 241.199 238.544 239.165C238.544 237.131 240.078 235.605 242.123 235.605C244.168 235.605 245.702 237.131 245.702 239.165Z" fill="#602D1F"/>
<path d="M242.634 238.148C242.634 239.165 242.123 239.674 241.1 239.674C240.077 239.674 239.566 239.165 239.566 238.148C239.566 237.131 240.077 236.623 241.1 236.623C242.123 236.623 242.634 237.64 242.634 238.148Z" fill="#E5E5E5"/>
<path d="M49.3593 205.094C49.3593 207.128 47.3141 209.162 45.2688 209.162C43.2236 209.162 41.1783 207.128 41.1783 205.094C41.1783 203.06 43.2236 201.026 45.2688 201.026C47.3141 201.026 49.3593 203.06 49.3593 205.094Z" fill="#602D1F"/>
<path d="M48.3367 205.094C48.3367 207.128 46.8028 208.653 44.7575 208.653C42.7123 208.653 41.1783 207.128 41.1783 205.094C41.1783 203.06 42.7123 201.534 44.7575 201.534C46.8028 201.534 48.3367 203.06 48.3367 205.094Z" fill="#602D1F"/>
<path d="M45.2687 204.077C45.2687 205.094 44.7574 205.602 43.7347 205.602C42.7121 205.602 42.2008 205.094 42.2008 204.077C42.2008 203.06 42.7121 202.551 43.7347 202.551C44.7574 202.551 45.2687 203.568 45.2687 204.077Z" fill="#E5E5E5"/>
<path d="M301.435 101.862C301.435 103.896 299.39 105.93 297.345 105.93C295.3 105.93 293.254 103.896 293.254 101.862C293.254 99.8279 295.3 97.7938 297.345 97.7938C299.39 97.7938 301.435 99.3194 301.435 101.862Z" fill="#602D1F"/>
<path d="M299.901 101.354C299.901 103.388 298.367 104.913 296.322 104.913C294.277 104.913 292.743 103.388 292.743 101.354C292.743 99.3194 294.277 97.7938 296.322 97.7938C298.367 98.3024 299.901 99.8279 299.901 101.354Z" fill="#602D1F"/>
<path d="M297.345 100.845C297.345 101.862 296.834 102.371 295.811 102.371C294.789 102.371 294.277 101.862 294.277 100.845C294.277 99.8281 294.789 99.3196 295.811 99.3196C296.834 99.3196 297.345 99.8281 297.345 100.845Z" fill="#E5E5E5"/>
<path d="M296.322 136.951C296.322 138.985 294.277 141.019 292.232 141.019C290.186 141.019 288.141 138.985 288.141 136.951C288.141 134.917 290.186 132.882 292.232 132.882C294.277 132.882 296.322 134.917 296.322 136.951Z" fill="#602D1F"/>
<path d="M295.3 136.951C295.3 138.985 293.766 140.51 291.72 140.51C289.675 140.51 288.141 138.985 288.141 136.951C288.141 134.916 289.675 133.391 291.72 133.391C293.766 133.391 295.3 134.916 295.3 136.951Z" fill="#602D1F"/>
<path d="M292.231 135.934C292.231 136.951 291.72 137.459 290.698 137.459C289.675 137.459 289.164 136.951 289.164 135.934C289.164 134.917 289.675 134.408 290.698 134.408C291.72 134.408 292.231 134.917 292.231 135.934Z" fill="#E5E5E5"/>
<path d="M293.766 171.022C293.766 173.056 291.72 175.09 289.675 175.09C287.63 175.09 285.585 173.056 285.585 171.022C285.585 168.988 287.63 166.954 289.675 166.954C291.72 166.954 293.766 168.988 293.766 171.022Z" fill="#602D1F"/>
<path d="M292.743 171.022C292.743 173.056 291.209 174.582 289.164 174.582C287.119 174.582 285.585 173.056 285.585 171.022C285.585 168.988 287.119 167.462 289.164 167.462C291.209 167.462 292.743 168.988 292.743 171.022Z" fill="#602D1F"/>
<path d="M289.675 170.005C289.675 171.022 289.164 171.531 288.141 171.531C287.118 171.531 286.607 171.022 286.607 170.005C286.607 168.988 287.118 168.479 288.141 168.479C289.164 168.479 289.675 168.988 289.675 170.005Z" fill="#E5E5E5"/>
<path d="M285.073 239.165C285.073 241.199 283.028 243.233 280.982 243.233C278.937 243.233 276.892 241.199 276.892 239.165C276.892 237.131 278.937 235.097 280.982 235.097C283.539 235.097 285.073 237.131 285.073 239.165Z" fill="#602D1F"/>
<path d="M284.05 239.165C284.05 241.199 282.516 242.725 280.471 242.725C278.426 242.725 276.892 241.199 276.892 239.165C276.892 237.131 278.426 235.605 280.471 235.605C282.516 235.605 284.05 237.131 284.05 239.165Z" fill="#602D1F"/>
<path d="M281.494 238.148C281.494 239.165 280.983 239.674 279.96 239.674C278.937 239.674 278.426 239.165 278.426 238.148C278.426 237.131 278.937 236.623 279.96 236.623C280.983 236.623 281.494 237.64 281.494 238.148Z" fill="#E5E5E5"/>
<path d="M82.5944 101.862C82.5944 103.896 80.5492 105.93 78.5039 105.93C76.4587 105.93 74.4135 103.896 74.4135 101.862C74.4135 99.8279 76.4587 97.7938 78.5039 97.7938C81.0605 97.7938 82.5944 99.3194 82.5944 101.862Z" fill="#602D1F"/>
<path d="M77.9926 104.913C79.9693 104.913 81.5718 103.319 81.5718 101.354C81.5718 99.3876 79.9693 97.7938 77.9926 97.7938C76.0159 97.7938 74.4135 99.3876 74.4135 101.354C74.4135 103.319 76.0159 104.913 77.9926 104.913Z" fill="#602D1F"/>
<path d="M79.0155 100.845C79.0155 101.862 78.5042 102.371 77.4816 102.371C76.4589 102.371 75.9476 101.862 75.9476 100.845C75.9476 99.8281 76.4589 99.3196 77.4816 99.3196C77.9929 99.3196 79.0155 99.8281 79.0155 100.845Z" fill="#E5E5E5"/>
<path d="M126.567 101.862C126.567 103.896 124.522 105.93 122.476 105.93C120.431 105.93 118.386 103.896 118.386 101.862C118.386 99.8279 120.431 97.7938 122.476 97.7938C124.522 97.7938 126.567 99.3194 126.567 101.862Z" fill="#602D1F"/>
<path d="M125.033 101.354C125.033 103.388 123.499 104.913 121.454 104.913C119.409 104.913 117.875 103.388 117.875 101.354C117.875 99.3194 119.409 97.7938 121.454 97.7938C123.499 98.3024 125.033 99.8279 125.033 101.354Z" fill="#602D1F"/>
<path d="M122.477 100.845C122.477 101.862 121.965 102.371 120.943 102.371C119.92 102.371 119.409 101.862 119.409 100.845C119.409 99.8281 119.92 99.3196 120.943 99.3196C121.965 99.3196 122.477 99.8281 122.477 100.845Z" fill="#E5E5E5"/>
<path d="M170.028 101.862C170.028 103.896 167.983 105.93 165.938 105.93C163.893 105.93 161.847 103.896 161.847 101.862C161.847 99.8279 163.893 97.7938 165.938 97.7938C167.983 97.7938 170.028 99.3194 170.028 101.862Z" fill="#602D1F"/>
<path d="M169.006 101.354C169.006 103.388 167.472 104.913 165.427 104.913C163.381 104.913 161.847 103.388 161.847 101.354C161.847 99.3194 163.381 97.7938 165.427 97.7938C167.472 98.3024 169.006 99.8279 169.006 101.354Z" fill="#602D1F"/>
<path d="M165.938 100.845C165.938 101.862 165.426 102.371 164.404 102.371C163.381 102.371 162.87 101.862 162.87 100.845C162.87 99.8281 163.381 99.3196 164.404 99.3196C165.426 99.3196 165.938 99.8281 165.938 100.845Z" fill="#E5E5E5"/>
<path d="M214.001 101.862C214.001 103.896 211.956 105.93 209.91 105.93C207.865 105.93 205.82 103.896 205.82 101.862C205.82 99.8279 207.865 97.7938 209.91 97.7938C211.956 97.7938 214.001 99.3194 214.001 101.862Z" fill="#602D1F"/>
<path d="M212.467 101.354C212.467 103.388 210.933 104.913 208.888 104.913C206.843 104.913 205.309 103.388 205.309 101.354C205.309 99.3194 206.843 97.7938 208.888 97.7938C210.933 98.3024 212.467 99.8279 212.467 101.354Z" fill="#602D1F"/>
<path d="M209.911 100.845C209.911 101.862 209.399 102.371 208.377 102.371C207.354 102.371 206.843 101.862 206.843 100.845C206.843 99.8281 207.354 99.3196 208.377 99.3196C209.399 99.3196 209.911 99.8281 209.911 100.845Z" fill="#E5E5E5"/>
<path d="M257.463 101.862C257.463 103.896 255.417 105.93 253.372 105.93C251.327 105.93 249.282 103.896 249.282 101.862C249.282 99.8279 251.327 97.7938 253.372 97.7938C255.417 97.7938 257.463 99.3194 257.463 101.862Z" fill="#602D1F"/>
<path d="M252.861 104.913C254.838 104.913 256.44 103.319 256.44 101.354C256.44 99.3876 254.838 97.7938 252.861 97.7938C250.884 97.7938 249.282 99.3876 249.282 101.354C249.282 103.319 250.884 104.913 252.861 104.913Z" fill="#602D1F"/>
<path d="M253.372 100.845C253.372 101.862 252.861 102.371 251.838 102.371C250.816 102.371 250.304 101.862 250.304 100.845C250.304 99.8281 250.816 99.3196 251.838 99.3196C252.861 99.3196 253.372 99.8281 253.372 100.845Z" fill="#E5E5E5"/>
<path d="M289.675 205.094C289.675 207.128 287.63 209.162 285.584 209.162C283.539 209.162 281.494 207.128 281.494 205.094C281.494 203.06 283.539 201.026 285.584 201.026C288.141 201.026 289.675 203.06 289.675 205.094Z" fill="#602D1F"/>
<path d="M288.652 205.094C288.652 207.128 287.118 208.653 285.073 208.653C283.028 208.653 281.494 207.128 281.494 205.094C281.494 203.06 283.028 201.534 285.073 201.534C287.118 201.534 288.652 203.06 288.652 205.094Z" fill="#602D1F"/>
<path d="M286.096 204.077C286.096 205.094 285.585 205.602 284.562 205.602C283.539 205.602 283.028 205.094 283.028 204.077C283.028 203.06 283.539 202.551 284.562 202.551C285.585 202.551 286.096 203.568 286.096 204.077Z" fill="#E5E5E5"/>
<path d="M107.137 308.834C87.7076 308.834 71.3457 293.069 71.3457 273.237C71.3457 253.404 87.1963 237.64 107.137 237.64C126.567 237.64 142.929 253.404 142.929 273.237C142.929 293.069 127.078 308.834 107.137 308.834ZM107.137 239.674C88.7302 239.674 73.3909 254.93 73.3909 273.237C73.3909 291.544 88.7302 306.8 107.137 306.8C125.545 306.8 140.884 291.544 140.884 273.237C140.884 254.93 126.056 239.674 107.137 239.674ZM107.137 303.24C103.047 303.24 99.4677 302.731 95.8886 301.206L95.3773 300.697V300.189L98.9564 291.035C98.9564 290.527 99.979 290.527 100.49 290.527C102.536 291.544 105.092 292.052 107.137 292.052C107.649 292.052 108.16 292.561 108.16 293.069V302.731C108.16 303.24 108.16 303.24 107.649 303.24C107.649 303.24 107.649 303.24 107.137 303.24ZM97.4225 299.68C99.979 300.697 103.047 301.206 106.115 301.206V293.578C104.07 293.578 102.536 293.069 100.49 292.561L97.4225 299.68ZM114.296 302.223C113.784 302.223 113.273 301.714 113.273 301.714L110.717 292.052V291.544L111.228 291.035C113.273 290.527 115.83 289.51 117.364 287.984C117.875 287.475 118.386 287.984 118.898 287.984L124.522 296.12C125.033 296.629 124.522 297.138 124.522 297.646C121.965 299.68 118.386 301.206 114.296 302.223ZM112.762 292.561L114.807 300.189C117.875 299.172 120.431 298.155 122.988 296.629L118.386 290.018C116.852 291.035 114.807 292.052 112.762 292.561ZM90.2642 297.646H89.7528C86.685 295.612 84.1284 292.561 82.0832 289.001V288.492C82.0832 287.984 82.0832 287.984 82.5945 287.984L90.7755 282.899C91.2868 282.39 91.7981 282.899 92.3094 283.407C93.332 285.441 95.3773 286.967 96.9112 288.492L97.4225 289.001C97.4225 289.51 97.4225 289.51 97.4225 289.51L91.7981 297.646C90.7755 297.646 90.7755 297.646 90.2642 297.646ZM84.1284 289.001C85.6624 291.544 87.7076 293.578 90.2642 295.612L94.8659 289.001C93.332 287.984 91.7981 286.458 90.7755 284.933L84.1284 289.001ZM129.635 293.069H129.124L121.454 286.967L120.943 286.458C120.943 285.95 120.943 285.95 120.943 285.95C122.477 283.916 123.499 281.882 124.522 279.847C124.522 279.339 125.033 278.83 125.545 279.339L134.748 282.39C135.259 282.39 135.771 282.899 135.259 283.407C134.237 286.967 132.192 290.527 129.635 293.578C130.146 293.069 129.635 293.069 129.635 293.069ZM122.988 285.441L129.124 290.527C131.169 287.984 132.192 285.441 133.214 282.899L126.056 280.356C125.545 282.39 124.522 283.916 122.988 285.441ZM79.5267 283.407C79.0153 283.407 78.504 282.899 78.504 282.899C77.4814 279.847 76.9701 276.796 76.9701 273.745C76.9701 273.237 76.9701 272.22 76.9701 271.711C76.9701 271.202 76.9701 271.202 77.4814 271.202C77.4814 271.202 77.9927 270.694 77.9927 271.202L87.7076 271.711C88.2189 271.711 88.7302 272.22 88.7302 272.728C88.7302 273.237 88.7302 273.237 88.7302 273.745C88.7302 275.779 89.2415 277.305 89.7528 279.339V279.847L89.2415 280.356L79.5267 283.407C80.038 283.407 80.038 283.407 79.5267 283.407ZM79.5267 272.22C79.5267 272.728 79.5267 272.728 79.5267 273.237C79.5267 275.779 80.038 278.322 80.5493 280.865L88.2189 278.322C87.7076 276.796 87.7076 274.762 87.7076 273.237V272.728L79.5267 272.22ZM136.282 276.288L126.567 275.779C126.056 275.779 126.056 275.779 126.056 275.271C126.056 275.271 125.545 274.762 126.056 274.762C126.056 274.254 126.056 273.745 126.056 273.237C126.056 271.202 125.545 269.677 125.033 267.643C125.033 267.134 125.033 266.626 125.545 266.626L134.748 263.575C135.259 263.575 135.771 263.575 135.771 264.083C136.793 267.134 137.305 270.185 137.305 273.237C137.305 273.745 137.305 274.762 137.305 275.271C137.305 276.288 136.793 276.288 136.282 276.288ZM127.59 273.745L135.259 274.254C135.259 273.745 135.259 273.745 135.259 273.237C135.259 270.694 134.748 268.151 134.237 265.609L126.567 268.151C127.078 269.677 127.078 271.711 127.078 273.237C127.59 273.745 127.59 273.745 127.59 273.745ZM89.2415 268.66C88.7302 268.66 88.7302 268.66 89.2415 268.66L79.5267 265.609L79.0153 265.1V264.592C80.038 261.032 82.0832 257.472 84.6398 254.421C85.1511 253.912 85.6624 253.912 86.1737 254.421L93.8433 260.523C94.3546 261.032 94.3546 261.54 93.8433 262.049C92.3094 264.083 91.2868 266.117 90.2642 268.151C89.7528 268.151 89.7528 268.151 89.2415 268.66ZM81.0606 264.083L88.7302 266.626C89.2415 264.592 90.2642 263.066 91.2868 261.54L85.1511 256.455C83.6171 258.489 82.0832 261.032 81.0606 264.083ZM123.499 264.592C122.988 264.592 122.988 264.592 122.477 264.083C121.454 262.049 119.409 260.523 117.875 258.998C117.364 258.489 117.364 257.981 117.875 257.472L123.499 249.336C124.011 248.827 124.522 248.827 125.033 249.336C128.101 251.37 130.658 254.421 132.703 257.981V258.489C132.703 258.489 132.703 258.998 132.192 258.998L124.011 264.083L123.499 264.592ZM119.92 257.981C121.454 258.998 122.988 260.523 124.011 262.049L130.658 257.981C129.124 255.438 127.078 253.404 124.522 251.37L119.92 257.981ZM95.8886 258.998C95.3773 258.998 95.3773 258.998 94.8659 258.489L89.2415 250.353V249.844C89.2415 249.336 89.2415 249.336 89.7528 249.336C92.8207 247.302 96.3999 245.267 99.979 244.25C100.49 244.25 100.49 244.25 100.49 244.25L101.002 244.759L103.558 254.421C103.558 254.93 103.558 255.438 103.047 255.438C101.002 255.947 98.4451 256.964 96.9112 258.489C96.3999 258.998 96.3999 258.998 95.8886 258.998ZM91.7981 250.353L96.3999 256.455C97.9338 255.438 99.979 254.421 101.513 253.912L99.4677 246.285C96.9112 247.302 93.8433 248.827 91.7981 250.353ZM114.296 256.964C111.739 255.947 109.183 255.438 107.137 255.438C106.626 255.438 106.115 254.93 106.115 254.421V244.759C106.115 244.25 106.626 243.742 107.137 243.742C111.228 243.742 114.807 244.25 118.386 245.776L118.898 246.285V246.793L115.318 255.947C115.318 256.455 115.318 256.455 114.296 256.964C114.807 256.964 114.807 256.964 114.296 256.964ZM108.16 253.404C110.205 253.404 112.25 253.912 113.784 254.421L116.852 247.302C114.296 246.285 111.228 245.776 108.16 245.776V253.404Z" fill="#351D11"/>
<path d="M107.137 238.656C88.2188 238.656 72.3682 253.912 72.3682 273.236C72.3682 292.052 87.7075 307.816 107.137 307.816C126.056 307.816 141.906 292.561 141.906 273.236C141.906 254.421 126.567 238.656 107.137 238.656ZM107.137 306.291C88.7301 306.291 73.9021 291.543 73.9021 273.236C73.9021 254.929 88.7301 240.182 107.137 240.182C125.544 240.182 140.372 254.929 140.372 273.236C140.372 291.543 125.544 306.291 107.137 306.291Z" fill="#6B3923"/>
<path d="M107.137 240.691C88.7303 240.691 73.9023 255.438 73.9023 273.745C73.9023 292.052 88.7303 306.799 107.137 306.799C125.545 306.799 140.373 292.052 140.373 273.745C140.373 255.438 125.545 240.691 107.137 240.691ZM134.748 282.39C133.726 285.95 131.68 289.509 129.124 292.052C127.59 293.578 126.056 295.612 124.011 296.629C120.943 298.663 117.364 300.188 113.785 301.206C111.739 301.714 109.183 302.223 106.626 302.223C102.536 302.223 98.9565 301.206 95.8887 300.189C93.8434 299.171 91.7982 298.154 89.7529 296.629C86.6851 294.595 84.1285 291.543 82.0833 288.492C81.0607 286.458 80.0381 284.424 79.0154 282.39C77.9928 279.339 77.4815 276.796 77.4815 273.236C77.4815 272.728 77.4815 271.711 77.4815 271.202C77.4815 268.66 77.9928 266.626 79.0154 264.591C80.0381 261.032 82.0833 257.472 84.6398 254.929C86.1738 253.404 87.7077 251.37 89.7529 250.353C92.8208 248.318 96.4 246.793 99.9791 245.776C102.024 245.267 104.581 244.759 107.137 244.759C111.228 244.759 114.807 245.776 117.875 246.793C119.92 247.81 121.965 248.827 124.011 250.353C127.079 252.387 129.635 255.438 131.68 258.489C132.703 260.523 133.726 262.557 134.748 264.591C135.771 267.643 136.282 270.185 136.282 273.745C136.282 274.254 136.282 275.271 136.282 275.779C135.771 277.813 135.771 280.356 134.748 282.39Z" fill="#6F4838"/>
<path d="M134.748 282.39C135.26 280.356 135.771 277.813 136.282 275.779L107.137 273.745L134.748 282.39Z" fill="#562E1C"/>
<path d="M124.522 250.352C122.477 248.827 120.431 247.81 118.386 246.793L107.649 273.236L124.522 250.352Z" fill="#562E1C"/>
<path d="M90.264 250.353C88.2187 251.878 86.6848 253.404 85.1509 254.93L107.137 273.745L90.264 250.353Z" fill="#562E1C"/>
<path d="M107.137 244.759C104.581 244.759 102.536 245.267 99.979 245.776L107.137 273.745V244.759Z" fill="#562E1C"/>
<path d="M134.748 264.592C134.237 262.557 133.214 260.015 131.68 258.489L107.137 273.745L134.748 264.592Z" fill="#562E1C"/>
<path d="M79.5264 264.591C79.015 266.625 78.5037 269.168 77.9924 271.202L107.137 273.236L79.5264 264.591Z" fill="#562E1C"/>
<path d="M107.137 302.223C109.694 302.223 111.739 301.714 114.296 301.206L107.137 273.237V302.223Z" fill="#562E1C"/>
<path d="M124.522 296.629C126.567 295.103 128.101 293.578 129.635 292.052L107.649 273.237L124.522 296.629Z" fill="#562E1C"/>
<path d="M90.264 296.629C92.3093 298.154 94.3545 299.171 96.3998 300.189L107.137 273.745L90.264 296.629Z" fill="#562E1C"/>
<path d="M79.5266 282.39C80.0379 284.424 81.0605 286.967 82.5945 288.492L107.137 273.237L79.5266 282.39Z" fill="#562E1C"/>
<path d="M126.567 273.236C126.567 283.915 117.875 292.052 107.648 292.052C96.9108 292.052 88.7299 283.407 88.7299 273.236C88.7299 262.557 97.4221 254.421 107.648 254.421C117.875 254.421 126.567 263.066 126.567 273.236Z" fill="#6F4838"/>
<path d="M119.92 273.237C119.92 280.356 114.296 285.95 107.137 285.95C99.9791 285.95 94.3547 280.356 94.3547 273.237C94.3547 266.117 99.9791 260.523 107.137 260.523C114.296 260.523 119.92 266.117 119.92 273.237Z" fill="#562E1C"/>
<path d="M116.341 273.236C116.341 278.322 112.25 281.881 107.648 281.881C102.535 281.881 98.9561 277.813 98.9561 273.236C98.9561 268.151 103.047 264.591 107.648 264.591C112.25 264.591 116.341 268.151 116.341 273.236Z" fill="#562E1C"/>
<path d="M115.318 272.728C115.318 277.305 111.739 280.864 107.137 280.864C102.535 280.864 98.9561 277.305 98.9561 272.728C98.9561 268.151 102.535 264.591 107.137 264.591C111.739 264.083 115.318 268.151 115.318 272.728Z" fill="#6B3923"/>
<path d="M222.693 308.834C203.264 308.834 186.902 293.069 186.902 273.237C186.902 253.404 202.752 237.64 222.693 237.64C242.123 237.64 258.485 253.404 258.485 273.237C258.485 293.069 242.634 308.834 222.693 308.834ZM222.693 239.674C204.286 239.674 188.947 254.93 188.947 273.237C188.947 291.544 204.286 306.8 222.693 306.8C241.101 306.8 256.44 291.544 256.44 273.237C256.44 254.93 241.612 239.674 222.693 239.674ZM222.693 303.24C218.603 303.24 215.024 302.731 211.445 301.206L210.933 300.697V300.189L214.512 291.035C214.512 290.527 215.535 290.527 216.046 290.527C218.092 291.544 220.648 292.052 222.693 292.052C223.205 292.052 223.716 292.561 223.716 293.069V302.731C223.716 303.24 223.716 303.24 223.205 303.24C223.205 303.24 223.205 303.24 222.693 303.24ZM212.979 299.68C215.535 300.697 218.603 301.206 221.671 301.206V293.578C219.626 293.578 218.092 293.069 216.046 292.561L212.979 299.68ZM229.852 302.223C229.34 302.223 228.829 301.714 228.829 301.714L226.273 292.052V291.544L226.784 291.035C228.829 290.527 231.386 289.51 232.92 287.984C233.431 287.475 233.942 287.984 234.454 287.984L240.078 296.12C240.589 296.629 240.078 297.138 240.078 297.646C237.521 299.68 233.942 301.206 229.852 302.223ZM228.829 292.561L230.874 300.189C233.942 299.172 236.499 298.155 239.055 296.629L234.454 290.018C232.408 291.035 230.363 292.052 228.829 292.561ZM205.82 297.646H205.309C202.241 295.612 199.684 292.561 197.639 289.001V288.492C197.639 287.984 197.639 287.984 198.151 287.984L206.331 282.899C206.843 282.39 207.354 282.899 207.865 283.407C208.888 285.441 210.933 286.967 212.467 288.492L212.979 289.001C212.979 289.51 212.979 289.51 212.979 289.51L207.354 297.646C206.332 297.646 206.331 297.646 205.82 297.646ZM199.684 289.001C201.218 291.544 203.264 293.578 205.82 295.612L210.422 289.001C208.888 287.984 207.354 286.458 206.331 284.933L199.684 289.001ZM245.191 293.069H244.68L237.01 286.967L236.499 286.458C236.499 285.95 236.499 285.95 236.499 285.95C238.033 283.916 239.055 281.882 240.078 279.847C240.078 279.339 240.589 278.83 241.101 279.339L250.304 282.39C250.815 282.39 251.327 282.899 250.815 283.407C249.793 286.967 247.748 290.527 245.191 293.578C245.702 293.069 245.191 293.069 245.191 293.069ZM239.055 285.441L245.191 290.527C247.236 287.984 248.259 285.441 249.282 282.899L241.612 280.356C241.101 282.39 240.078 283.916 239.055 285.441ZM195.083 283.407C194.571 283.407 194.06 282.899 194.06 282.899C193.037 279.847 192.526 276.796 192.526 273.745C192.526 273.237 192.526 272.22 192.526 271.711C192.526 271.202 192.526 271.202 193.037 271.202C193.037 271.202 193.549 270.694 193.549 271.202L203.264 271.711C203.775 271.711 204.286 272.22 204.286 272.728C204.286 273.237 204.286 273.237 204.286 273.745C204.286 275.779 204.798 277.305 205.309 279.339V279.847L204.798 280.356L195.083 283.407C195.594 283.407 195.594 283.407 195.083 283.407ZM195.083 272.22C195.083 272.728 195.083 272.728 195.083 273.237C195.083 275.779 195.594 278.322 196.105 280.865L203.775 278.322C203.264 276.796 203.264 274.762 203.264 273.237V272.728L195.083 272.22ZM251.838 276.288L242.123 275.779C241.612 275.779 241.612 275.779 241.612 275.271V274.762C241.612 274.254 241.612 273.745 241.612 273.237C241.612 271.202 241.101 269.677 240.589 267.643C240.589 267.134 240.589 266.626 241.101 266.626L250.304 263.575C250.815 263.575 251.327 263.575 251.327 264.083C252.349 267.134 252.861 270.185 252.861 273.237C252.861 273.745 252.861 274.762 252.861 275.271C252.861 276.288 252.349 276.288 251.838 276.288ZM243.146 273.745L250.815 274.254C250.815 273.745 250.815 273.745 250.815 273.237C250.815 270.694 250.304 268.151 249.793 265.609L242.123 268.151C242.634 269.677 242.634 271.711 242.634 273.237C243.146 273.745 243.146 273.745 243.146 273.745ZM204.798 268.66C204.286 268.66 204.286 268.66 204.798 268.66L195.083 265.609L194.571 265.1V264.592C195.594 261.032 197.639 257.472 200.196 254.421C200.707 253.912 201.218 253.912 201.73 254.421L209.399 260.523C209.911 261.032 209.911 261.54 209.399 262.049C207.865 264.083 206.843 266.117 205.82 268.151C205.309 268.151 205.309 268.151 204.798 268.66ZM196.617 264.083L204.286 266.626C204.798 264.592 205.82 263.066 206.843 261.54L200.707 256.455C199.173 258.489 197.639 261.032 196.617 264.083ZM239.055 264.592C238.544 264.592 238.544 264.592 238.033 264.083C237.01 262.049 234.965 260.523 233.431 258.998C232.92 258.489 232.92 257.981 233.431 257.472L239.055 249.336C239.567 248.827 240.078 248.827 240.589 249.336C243.657 251.37 246.214 254.421 248.259 257.981V258.489C248.259 258.489 248.259 258.998 247.748 258.998L239.567 264.083L239.055 264.592ZM235.476 257.981C237.01 258.998 238.544 260.523 239.567 262.049L246.214 257.981C244.68 255.438 242.634 253.404 240.078 251.37L235.476 257.981ZM211.445 258.998C210.933 258.998 210.933 258.998 210.422 258.489L204.798 250.353V249.844C204.798 249.336 204.798 249.336 205.309 249.336C208.377 247.302 211.956 245.267 215.535 244.25H216.046L216.558 244.759L219.114 254.421C219.114 254.93 219.114 255.438 218.603 255.438C216.558 255.947 214.001 256.964 212.467 258.489C211.956 258.998 211.956 258.998 211.445 258.998ZM207.354 250.353L211.956 256.455C213.49 255.438 215.535 254.421 217.069 253.912L215.024 246.285C212.467 247.302 209.399 248.827 207.354 250.353ZM229.852 256.964C227.295 255.947 224.739 255.438 222.693 255.438C222.182 255.438 221.671 254.93 221.671 254.421V244.759C221.671 244.25 222.182 243.742 222.693 243.742C226.784 243.742 230.363 244.25 233.942 245.776L234.454 246.285V246.793L230.874 255.947C230.874 256.455 230.874 256.455 229.852 256.964C230.363 256.964 230.363 256.964 229.852 256.964ZM223.716 253.404C225.761 253.404 227.807 253.912 229.34 254.421L232.408 247.302C229.852 246.285 226.784 245.776 223.716 245.776V253.404Z" fill="#351D11"/>
<path d="M222.693 238.656C203.775 238.656 187.924 253.912 187.924 273.236C187.924 292.052 203.263 307.816 222.693 307.816C241.612 307.816 257.462 292.561 257.462 273.236C257.462 254.421 242.123 238.656 222.693 238.656ZM222.693 306.291C204.286 306.291 189.458 291.543 189.458 273.236C189.458 254.929 204.286 240.182 222.693 240.182C241.1 240.182 255.928 254.929 255.928 273.236C255.928 291.543 241.1 306.291 222.693 306.291Z" fill="#6B3923"/>
<path d="M222.693 240.691C204.286 240.691 189.458 255.438 189.458 273.745C189.458 292.052 204.286 306.799 222.693 306.799C241.101 306.799 255.929 292.052 255.929 273.745C255.929 255.438 241.101 240.691 222.693 240.691ZM250.304 282.39C249.281 285.95 247.236 289.509 244.68 292.052C243.146 293.578 241.612 295.612 239.567 296.629C236.499 298.663 232.92 300.188 229.34 301.206C227.295 301.714 224.739 302.223 222.182 302.223C218.092 302.223 214.512 301.206 211.445 300.189C209.399 299.171 207.354 298.154 205.309 296.629C202.241 294.595 199.684 291.543 197.639 288.492C196.617 286.458 195.594 284.424 194.571 282.39C193.549 279.339 193.037 276.796 193.037 273.236C193.037 272.728 193.037 271.711 193.037 271.202C193.037 268.66 193.549 266.626 194.571 264.591C195.594 261.032 197.639 257.472 200.196 254.929C201.73 253.404 203.264 251.37 205.309 250.353C208.377 248.318 211.956 246.793 215.535 245.776C218.092 244.759 220.648 244.759 222.693 244.759C226.784 244.759 230.363 245.776 233.431 246.793C235.476 247.81 237.521 248.827 239.567 250.353C242.634 252.387 245.191 255.438 247.236 258.489C248.259 260.523 249.281 262.557 250.304 264.591C251.327 267.643 251.838 270.185 251.838 273.745C251.838 274.254 251.838 275.271 251.838 275.779C251.327 277.813 251.327 280.356 250.304 282.39Z" fill="#6F4838"/>
<path d="M250.304 282.39C250.815 280.356 251.327 277.813 251.838 275.779L222.693 273.745L250.304 282.39Z" fill="#562E1C"/>
<path d="M240.078 250.352C238.033 248.827 235.987 247.81 233.942 246.793L223.205 273.236L240.078 250.352Z" fill="#562E1C"/>
<path d="M205.82 250.353C203.775 251.878 202.241 253.404 200.707 254.93L222.693 273.745L205.82 250.353Z" fill="#562E1C"/>
<path d="M222.693 244.759C220.137 244.759 218.091 245.267 215.535 245.776L222.693 273.745V244.759Z" fill="#562E1C"/>
<path d="M250.304 264.592C249.793 262.557 248.77 260.015 247.236 258.489L222.693 273.745L250.304 264.592Z" fill="#562E1C"/>
<path d="M195.082 264.591C194.571 266.625 194.06 269.168 193.548 271.202L222.693 273.236L195.082 264.591Z" fill="#562E1C"/>
<path d="M222.693 302.223C225.25 302.223 227.295 301.714 229.852 301.206L222.693 273.237V302.223Z" fill="#562E1C"/>
<path d="M240.078 296.629C242.123 295.103 243.657 293.578 245.191 292.052L223.205 273.237L240.078 296.629Z" fill="#562E1C"/>
<path d="M205.82 296.629C207.865 298.154 209.91 299.171 211.956 300.189L222.693 273.745L205.82 296.629Z" fill="#562E1C"/>
<path d="M195.083 282.39C195.594 284.424 196.616 286.967 198.15 288.492L222.693 273.237L195.083 282.39Z" fill="#562E1C"/>
<path d="M242.123 273.236C242.123 283.915 233.43 292.052 223.204 292.052C212.467 292.052 204.286 283.407 204.286 273.236C204.286 262.557 212.978 254.421 223.204 254.421C233.43 254.421 242.123 263.066 242.123 273.236Z" fill="#6F4838"/>
<path d="M235.987 273.237C235.987 280.356 230.363 285.95 223.205 285.95C216.046 285.95 210.422 280.356 210.422 273.237C210.422 266.117 216.046 260.523 223.205 260.523C229.852 260.523 235.987 266.117 235.987 273.237Z" fill="#562E1C"/>
<path d="M231.896 273.236C231.896 278.322 227.806 281.881 223.204 281.881C218.091 281.881 214.512 277.813 214.512 273.236C214.512 268.151 218.602 264.591 223.204 264.591C227.806 264.591 231.896 268.151 231.896 273.236Z" fill="#562E1C"/>
<path d="M230.874 272.728C230.874 277.305 227.295 280.864 222.693 280.864C218.091 280.864 214.512 277.305 214.512 272.728C214.512 268.151 218.091 264.591 222.693 264.591C227.295 264.083 230.874 268.151 230.874 272.728Z" fill="#6B3923"/>
<path d="M173.096 107.456H155.712V230.011H173.096V107.456Z" fill="#4A2918"/>
<path d="M171.562 108.981H156.734V229.503H171.562V108.981Z" fill="#8C5B44"/>
<path opacity="0.5" d="M172.074 108.981H164.915V229.503H172.074V108.981Z" fill="#8C5B44"/>
<path d="M169.517 204.076C169.517 206.111 167.472 208.145 165.427 208.145C163.381 208.145 161.336 206.111 161.336 204.076C161.336 202.042 163.381 200.008 165.427 200.008C167.472 200.008 169.517 202.042 169.517 204.076Z" fill="#602D1F"/>
<path d="M164.915 207.636C166.892 207.636 168.495 206.042 168.495 204.076C168.495 202.11 166.892 200.517 164.915 200.517C162.939 200.517 161.336 202.11 161.336 204.076C161.336 206.042 162.939 207.636 164.915 207.636Z" fill="#602D1F"/>
<path d="M165.427 203.06C165.427 204.077 164.915 204.585 163.893 204.585C162.87 204.585 162.359 204.077 162.359 203.06C162.359 202.042 162.87 201.534 163.893 201.534C164.915 201.534 165.427 202.551 165.427 203.06Z" fill="#E5E5E5"/>
<path d="M169.517 168.479C169.517 170.513 167.472 172.548 165.427 172.548C163.381 172.548 161.336 170.513 161.336 168.479C161.336 166.445 163.381 164.411 165.427 164.411C167.472 164.411 169.517 166.445 169.517 168.479Z" fill="#602D1F"/>
<path d="M167.983 168.479C167.983 170.513 166.449 172.039 164.404 172.039C162.359 172.039 160.825 170.513 160.825 168.479C160.825 166.445 162.359 164.92 164.404 164.92C166.449 164.92 167.983 166.445 167.983 168.479Z" fill="#602D1F"/>
<path d="M165.427 167.463C165.427 168.48 164.916 168.988 163.893 168.988C162.87 168.988 162.359 168.48 162.359 167.463C162.359 166.446 162.87 165.937 163.893 165.937C164.916 165.937 165.427 166.954 165.427 167.463Z" fill="#E5E5E5"/>
<path d="M169.517 132.882C169.517 134.916 167.472 136.951 165.427 136.951C163.381 136.951 161.336 134.916 161.336 132.882C161.336 130.848 163.381 128.814 165.427 128.814C167.472 128.814 169.517 130.848 169.517 132.882Z" fill="#602D1F"/>
<path d="M167.983 132.882C167.983 134.916 166.449 136.442 164.404 136.442C162.359 136.442 160.825 134.916 160.825 132.882C160.825 130.848 162.359 129.323 164.404 129.323C166.449 129.323 167.983 130.848 167.983 132.882Z" fill="#602D1F"/>
<path d="M165.427 131.865C165.427 132.882 164.916 133.391 163.893 133.391C162.87 133.391 162.359 132.882 162.359 131.865C162.359 130.848 162.87 130.34 163.893 130.34C164.916 130.34 165.427 130.848 165.427 131.865Z" fill="#E5E5E5"/>
</g>
<defs>
<linearGradient id="paint0_linear" x1="187.497" y1="20.6923" x2="22.7574" y2="67.6944" gradientUnits="userSpaceOnUse">
<stop offset="0.0368098" stop-color="#F3DC78"/>
<stop offset="0.0922655" stop-color="#F5D65F"/>
<stop offset="0.1948" stop-color="#F7CD36"/>
<stop offset="0.2883" stop-color="#F9C618"/>
<stop offset="0.3685" stop-color="#FBC206"/>
<stop offset="0.4262" stop-color="#FBC100"/>
<stop offset="1" stop-color="#EB850B"/>
</linearGradient>
<linearGradient id="paint1_linear" x1="293.481" y1="56.0834" x2="123.899" y2="31.4181" gradientUnits="userSpaceOnUse">
<stop offset="0.0368098" stop-color="#F3DC78"/>
<stop offset="0.0922655" stop-color="#F5D65F"/>
<stop offset="0.1948" stop-color="#F7CD36"/>
<stop offset="0.2883" stop-color="#F9C618"/>
<stop offset="0.3685" stop-color="#FBC206"/>
<stop offset="0.4262" stop-color="#FBC100"/>
<stop offset="1" stop-color="#EB850B"/>
</linearGradient>
<linearGradient id="paint2_linear" x1="141.62" y1="32.3772" x2="296.245" y2="105.876" gradientUnits="userSpaceOnUse">
<stop offset="0.0368098" stop-color="#F3DC78"/>
<stop offset="0.0922655" stop-color="#F5D65F"/>
<stop offset="0.1948" stop-color="#F7CD36"/>
<stop offset="0.2883" stop-color="#F9C618"/>
<stop offset="0.3685" stop-color="#FBC206"/>
<stop offset="0.4262" stop-color="#FBC100"/>
<stop offset="1" stop-color="#EB850B"/>
</linearGradient>
<linearGradient id="paint3_linear" x1="215.696" y1="70.6099" x2="50.5517" y2="116.181" gradientUnits="userSpaceOnUse">
<stop offset="0.0368098" stop-color="#F3DC78"/>
<stop offset="0.0922655" stop-color="#F5D65F"/>
<stop offset="0.1948" stop-color="#F7CD36"/>
<stop offset="0.2883" stop-color="#F9C618"/>
<stop offset="0.3685" stop-color="#FBC206"/>
<stop offset="0.4262" stop-color="#FBC100"/>
<stop offset="1" stop-color="#EB850B"/>
</linearGradient>
<linearGradient id="paint4_linear" x1="50.0098" y1="66.1416" x2="220.697" y2="50.6177" gradientUnits="userSpaceOnUse">
<stop offset="0.0368098" stop-color="#F3DC78"/>
<stop offset="0.0922655" stop-color="#F5D65F"/>
<stop offset="0.1948" stop-color="#F7CD36"/>
<stop offset="0.2883" stop-color="#F9C618"/>
<stop offset="0.3685" stop-color="#FBC206"/>
<stop offset="0.4262" stop-color="#FBC100"/>
<stop offset="1" stop-color="#EB850B"/>
</linearGradient>
<linearGradient id="paint5_linear" x1="189.822" y1="90.3499" x2="361.206" y2="90.35" gradientUnits="userSpaceOnUse">
<stop offset="0.0368098" stop-color="#F3DC78"/>
<stop offset="0.0922655" stop-color="#F5D65F"/>
<stop offset="0.1948" stop-color="#F7CD36"/>
<stop offset="0.2883" stop-color="#F9C618"/>
<stop offset="0.3685" stop-color="#FBC206"/>
<stop offset="0.4262" stop-color="#FBC100"/>
<stop offset="1" stop-color="#EB850B"/>
</linearGradient>
<linearGradient id="paint6_linear" x1="143.466" y1="96.2778" x2="-27.8912" y2="93.5142" gradientUnits="userSpaceOnUse">
<stop offset="0.0368098" stop-color="#F3DC78"/>
<stop offset="0.0922655" stop-color="#F5D65F"/>
<stop offset="0.1948" stop-color="#F7CD36"/>
<stop offset="0.2883" stop-color="#F9C618"/>
<stop offset="0.3685" stop-color="#FBC206"/>
<stop offset="0.4262" stop-color="#FBC100"/>
<stop offset="1" stop-color="#EB850B"/>
</linearGradient>
<clipPath id="clip0">
<rect width="329.795" height="308.169" fill="white" transform="translate(0.78479 0.664307)"/>
</clipPath>
</defs>
</svg>
