<svg width="31" height="31" viewBox="0 0 31 31" fill="none" xmlns="http://www.w3.org/2000/svg">
<path d="M31 27.5556V3.44444C31 1.55 29.4448 0 27.5469 0H3.45306C1.4725 0 0 1.46906 0 3.44444V27.5556C0 29.5327 1.4725 31 3.45306 31H27.5469C28.4608 30.9986 29.337 30.6356 29.9841 29.9902C30.6311 29.3447 30.9964 28.4694 31 27.5556ZM24.428 18.2676C24.428 18.2676 26.3776 20.1913 26.8581 21.0834C26.8718 21.1024 26.877 21.1196 26.8822 21.1265C27.0768 21.4537 27.1267 21.7121 27.0286 21.9015C26.8667 22.2167 26.3156 22.3751 26.1278 22.3889H22.6851C22.444 22.3889 21.9446 22.3269 21.3383 21.9084C20.8733 21.5846 20.4135 21.049 19.9657 20.5272C19.2975 19.7522 18.7188 19.0805 18.1367 19.0805C18.0629 19.0803 17.9895 19.0925 17.9197 19.1167C17.4771 19.2579 16.9157 19.8865 16.9157 21.5657C16.9157 22.0909 16.5023 22.3906 16.2096 22.3906H14.632C14.0947 22.3906 11.2961 22.2029 8.81778 19.5868C5.77633 16.3835 3.04489 9.95789 3.02078 9.90106C2.84856 9.486 3.20506 9.26039 3.59256 9.26039H7.07144C7.53817 9.26039 7.688 9.54283 7.79478 9.796C7.91533 10.0836 8.37 11.2444 9.114 12.5498C10.3247 14.6733 11.0704 15.5379 11.6646 15.5379C11.7757 15.5373 11.8848 15.5082 11.9815 15.4535C12.7582 15.0247 12.6136 12.2553 12.5791 11.6836C12.5791 11.5751 12.5774 10.4453 12.1813 9.90278C11.8954 9.51011 11.4114 9.36028 11.1187 9.30344C11.2381 9.13894 11.3951 9.00547 11.5768 8.91422C12.1089 8.649 13.0682 8.61111 14.0223 8.61111H14.5528C15.5878 8.62489 15.8565 8.69206 16.2302 8.78678C16.9863 8.96761 17.0018 9.45844 16.9346 11.129C16.9157 11.6043 16.895 12.1434 16.895 12.7754C16.895 12.9115 16.8898 13.0613 16.8898 13.2163C16.8657 14.0706 16.8382 15.0367 17.4409 15.4328C17.519 15.4816 17.609 15.5079 17.701 15.5086C17.9111 15.5086 18.5397 15.5086 20.243 12.586C20.9922 11.2961 21.5691 9.77361 21.6087 9.65994C21.6689 9.53705 21.756 9.42932 21.8636 9.34478C21.9518 9.29896 22.0501 9.27587 22.1495 9.27761H26.2398C26.6876 9.27761 26.9907 9.34478 27.0475 9.51528C27.1457 9.78911 27.0286 10.6244 25.1599 13.1492L24.3281 14.2514C22.6334 16.4696 22.6334 16.5833 24.428 18.2676Z" fill="#EAEAEA"/>
</svg>
