<?xml version="1.0" encoding="UTF-8" standalone="no"?>
<svg
   xmlns:dc="http://purl.org/dc/elements/1.1/"
   xmlns:cc="http://creativecommons.org/ns#"
   xmlns:rdf="http://www.w3.org/1999/02/22-rdf-syntax-ns#"
   xmlns:svg="http://www.w3.org/2000/svg"
   xmlns="http://www.w3.org/2000/svg"
   xmlns:sodipodi="http://sodipodi.sourceforge.net/DTD/sodipodi-0.dtd"
   xmlns:inkscape="http://www.inkscape.org/namespaces/inkscape"
   width="230"
   height="125"
   viewBox="0 0 230 125"
   fill="none"
   version="1.1"
   id="svg112"
   sodipodi:docname="wood.svg"
   inkscape:version="1.0.1 (3bc2e813f5, 2020-09-07)">
  <metadata
     id="metadata118">
    <rdf:RDF>
      <cc:Work
         rdf:about="">
        <dc:format>image/svg+xml</dc:format>
        <dc:type
           rdf:resource="http://purl.org/dc/dcmitype/StillImage" />
        <dc:title></dc:title>
      </cc:Work>
    </rdf:RDF>
  </metadata>
  <defs
     id="defs116" />
  <sodipodi:namedview
     pagecolor="#ffffff"
     bordercolor="#666666"
     borderopacity="1"
     objecttolerance="10"
     gridtolerance="10"
     guidetolerance="10"
     inkscape:pageopacity="0"
     inkscape:pageshadow="2"
     inkscape:window-width="1920"
     inkscape:window-height="1017"
     id="namedview114"
     showgrid="false"
     inkscape:zoom="3.9997649"
     inkscape:cx="71.985859"
     inkscape:cy="48.316303"
     inkscape:window-x="1672"
     inkscape:window-y="-8"
     inkscape:window-maximized="1"
     inkscape:current-layer="svg112" />
  <path
     d="m 0.430801,112.484 c -0.15538,0.32 -0.233093,0.639 -0.310775,1.065 v 9.049 c 8.623854,-0.639 17.247774,-0.319 25.871574,-0.106 4.8946,0.106 9.7893,0.106 14.6839,-0.107 4.8946,-0.213 9.7116,-0.426 14.6062,-0.532 12.12,-0.107 24.1623,2.023 36.2047,1.065 3.03,-0.213 6.06,-0.32 9.0126,-0.32 10.022,-1.064 20.044,-1.171 30.067,-0.639 12.197,0.533 24.473,1.597 36.671,1.278 6.137,-0.107 12.275,-0.426 18.335,-0.319 6.293,0 12.353,0.532 18.413,0.532 5.594,0 11.188,-0.426 16.782,0.106 2.563,0.213 5.205,0.533 7.769,0.639 0.155,-5.217 0.155,-10.327 -0.699,-15.543 -0.311,-2.1294 -0.777,-4.2586 -0.7,-6.3878 0.078,-2.1292 0.622,-3.9391 1.477,-5.6424 -1.71,-0.5323 -3.419,-0.3194 -5.128,-0.6388 -0.156,0 -0.311,-0.3194 -0.156,-0.4258 0.777,-0.8517 1.71,-1.4905 2.642,-2.1293 0.622,-0.3193 1.243,-0.6387 1.787,-1.0646 0.544,-0.3193 0.311,-1.0646 0.233,-1.7033 -0.233,-3.4068 -0.311,-6.7071 -0.466,-10.1138 -0.078,-1.5969 -0.156,-3.3003 -0.233,-4.8972 0,-0.8517 0,-1.7033 0.233,-2.4486 0.466,-1.5969 1.165,-3.3002 1.554,-5.0036 -7.459,-2.768 -15.539,-1.2775 -23.153,-1.384 -4.661,-0.1065 -9.245,-0.2129 -13.907,-0.1065 -4.661,0.1065 -9.4,0.3194 -14.062,0.6388 -7.847,0.4258 -15.616,0.8517 -23.463,0.2129 -7.381,-0.5323 -14.762,-1.5969 -22.142,-1.9163 -7.537,-0.3194 -14.995,0.2129 -22.531,0.7452 -7.614,0.6388 -15.2279,0.9582 -22.9195,1.1711 -28.9793,0.9582 -58.2693,0.5323 -86.8601569,7.4523 v 7.6651 C 1.05235,83.5271 3.30542,85.4434 3.30542,85.5499 2.83926,86.6145 2.29541,87.4661 1.67387,88.3178 1.2854,88.7437 0.508499,90.3406 0.663879,90.66 c 0.388461,1.7033 0.699231,3.5132 0.932311,5.323 0.31078,2.4486 0.85462,6.4941 -0.38846,8.8362 0.93232,0.6388 2.87461,2.1292 2.79691,2.2357 -1.24307,1.7031 -2.71921,3.3001 -3.573839,5.4291 z"
     fill="#ad7634"
     id="path2" />
  <path
     d="m 127.38,65.2161 c 1.787,0 3.496,0 5.128,0.1064 4.428,0.213 8.857,0.6388 13.208,1.0646 2.952,0.3194 5.982,0.6388 8.934,0.8517 2.642,0.213 5.439,0.3194 8.546,0.3194 5.05,0 10.256,-0.3194 14.917,-0.5323 h 0.544 c 4.429,-0.2129 9.013,-0.4258 13.519,-0.5323 0.932,0 1.864,0 2.797,0 2.253,0 4.583,0 6.837,0.1065 1.398,0 2.874,0.1064 4.273,0.1064 2.097,0 4.195,-0.1064 6.293,-0.1064 1.787,-0.1065 3.729,-0.1065 5.594,-0.1065 4.661,0 8.235,0.5323 11.42,1.7034 l 0.156,0.1064 -0.078,0.213 c -0.233,1.171 -0.621,2.2356 -0.932,3.3002 -0.233,0.6388 -0.389,1.1711 -0.544,1.8099 -0.233,0.6387 -0.233,1.384 -0.233,2.3421 0,0.9581 0.078,1.8098 0.155,2.768 0,0.7452 0.078,1.384 0.078,2.1292 0,0.6388 0.078,1.2775 0.078,1.9163 0.077,2.6615 0.155,5.5359 0.388,8.1974 0,0.1065 0,0.3194 0.078,0.4259 0.077,0.5323 0.155,1.1711 -0.389,1.5969 -0.388,0.2129 -0.777,0.4258 -1.165,0.6388 -0.233,0.1064 -0.389,0.2129 -0.622,0.3193 -1.087,0.6388 -1.864,1.2776 -2.641,2.0228 0.699,0.1065 1.398,0.1065 2.098,0.2129 1.01,0 2.02,0.1065 3.03,0.4259 l 0.233,0.1064 -0.156,0.3194 c -0.932,1.8098 -1.321,3.6197 -1.398,5.536 -0.078,1.7033 0.233,3.4067 0.544,5.1101 0.077,0.4261 0.155,0.7451 0.233,1.1711 0.854,5.536 0.854,10.965 0.699,15.543 v 0.213 h -0.155 c -2.098,-0.106 -4.274,-0.319 -6.294,-0.426 -0.466,0 -1.01,-0.106 -1.476,-0.106 -2.02,-0.213 -4.117,-0.32 -6.681,-0.32 -1.787,0 -3.574,0 -5.361,0.107 -1.554,0 -3.185,0.106 -4.739,0.106 h -0.466 c -3.341,0 -6.682,-0.213 -9.945,-0.319 -2.564,-0.107 -5.205,-0.213 -7.847,-0.319 -1.01,0 -2.02,0 -3.03,0 -3.729,0 -7.536,0.106 -11.188,0.212 -1.398,0 -2.797,0.107 -4.195,0.107 -1.476,0 -3.03,0.106 -4.662,0.106 -7.458,0 -15.072,-0.425 -22.453,-0.851 -3.185,-0.213 -6.371,-0.32 -9.634,-0.533 -4.04,-0.212 -7.769,-0.319 -11.343,-0.319 -6.681,0 -12.819,0.319 -18.724,0.958 -3.2627,0 -6.215,0.107 -9.0119,0.32 -2.1754,0.212 -4.4285,0.319 -6.9147,0.319 -4.7392,0 -9.5562,-0.319 -14.2177,-0.639 -4.9723,-0.319 -10.1,-0.745 -15.0723,-0.639 -3.4185,0 -6.9147,0.213 -10.3331,0.32 -1.3985,0.106 -2.8747,0.106 -4.2731,0.213 -2.4085,0.106 -4.9723,0.106 -7.6916,0.106 -2.0977,0 -4.4284,0 -6.9923,-0.106 -1.2431,0 -2.4861,-0.107 -3.7292,-0.107 -3.5739,-0.106 -7.3031,-0.213 -10.9547,-0.213 -4.19535,0 -7.8469,0.107 -11.187675,0.32 H 0.27533 v -9.369 c 0.155395,-0.426 0.233078,-0.745 0.310775,-1.064 0.776915,-2.023 2.020005,-3.514 3.263095,-5.0041 l 0.23306,-0.2129 c -0.38846,-0.3194 -1.39847,-1.171 -2.02,-1.5969 -0.23308,-0.2129 -0.38845,-0.3194 -0.54384,-0.4258 l -0.1554,-0.1065 0.1554,-0.2129 C 2.68381,102.9031 2.21765,99.177 1.90688,96.7284 L 1.82919,96.3026 C 1.59612,94.4927 1.28532,92.6829 0.896866,90.9795 0.741486,90.4472 1.7515,88.7439 1.98457,88.318 2.52843,87.5728 3.07228,86.7211 3.53844,85.763 3.14996,85.3371 1.7515,84.1661 0.430725,83.1015 L 0.353027,82.995 V 75.0105 H 0.508408 C 24.6708,69.2616 49.61,68.5164 73.7724,67.9841 c 4.5062,-0.1065 9.09,-0.213 13.6739,-0.4259 8.8569,-0.3194 16.1597,-0.6388 22.8417,-1.1711 5.205,-0.7452 11.11,-1.171 17.092,-1.171 z m 35.816,2.8744 c -3.107,0 -5.904,-0.1064 -8.623,-0.3194 -2.953,-0.2129 -6.06,-0.5323 -8.935,-0.8517 -4.351,-0.4258 -8.779,-0.8516 -13.208,-1.0646 -1.631,-0.1064 -3.341,-0.1064 -5.05,-0.1064 -5.904,0 -11.887,0.4258 -17.481,0.8517 -6.759,0.5323 -14.0619,0.9581 -22.9189,1.171 -4.5838,0.1065 -9.1677,0.3194 -13.6739,0.4259 C 49.2216,68.8358 24.36,69.4745 0.27533,75.2234 v 7.3458 c 3.18539,2.6615 3.18541,2.7679 3.26311,2.9809 v 0.1064 L 3.46074,85.763 C 2.99458,86.8276 2.45073,87.7857 1.82919,88.6374 1.44072,89.1697 0.819199,90.5537 0.819199,90.7666 1.20766,92.47 1.51842,94.2798 1.7515,96.1961 l 0.07769,0.4259 c 0.31076,2.4486 0.77692,6.0682 -0.31077,8.3039 0.15539,0.1064 0.23308,0.2129 0.38846,0.3194 2.1754,1.7033 2.33078,1.8098 2.33078,2.0227 v 0.1065 l -0.0777,0.1064 -0.31076,0.4259 c -1.24309,1.4902 -2.48616,2.9812 -3.185397,4.8972 -0.077698,0.319 -0.233078,0.532 -0.310776,0.958 v 8.73 c 3.263093,-0.213 6.914623,-0.319 11.032273,-0.319 3.6516,0 7.3808,0.106 10.9547,0.212 1.2431,0 2.4862,0.107 3.7292,0.107 2.5639,0.106 4.8947,0.106 6.9924,0.106 2.7969,0 5.2831,0 7.6915,-0.106 1.3985,-0.107 2.8746,-0.107 4.2731,-0.213 3.3408,-0.106 6.8369,-0.319 10.3331,-0.319 5.05,0 10.1777,0.319 15.15,0.638 4.6616,0.32 9.4785,0.639 14.2177,0.639 2.4862,0 4.7393,-0.106 6.9147,-0.319 2.8746,-0.213 5.8269,-0.32 9.0903,-0.32 5.904,-0.638 12.042,-0.958 18.724,-0.958 3.651,0 7.303,0.107 11.343,0.32 3.185,0.106 6.448,0.319 9.634,0.532 7.38,0.426 14.916,0.852 22.453,0.852 1.553,0 3.107,0 4.661,-0.107 1.399,0 2.797,-0.106 4.196,-0.106 3.651,-0.107 7.458,-0.213 11.187,-0.213 1.01,0 2.02,0 3.03,0 2.642,0 5.283,0.213 7.847,0.319 3.263,0.107 6.604,0.319 9.945,0.319 h 0.466 c 1.554,0 3.185,0 4.739,-0.106 1.787,0 3.574,-0.106 5.361,-0.106 2.564,0 4.739,0.106 6.682,0.319 0.466,0 1.01,0.106 1.476,0.106 2.02,0.213 4.04,0.426 6.137,0.426 0.156,-4.471 0.156,-9.794 -0.699,-15.224 -0.077,-0.425 -0.155,-0.745 -0.233,-1.1707 -0.311,-1.7033 -0.621,-3.5132 -0.544,-5.2165 0.078,-1.9163 0.466,-3.6197 1.321,-5.4295 -0.855,-0.213 -1.787,-0.3194 -2.719,-0.3194 -0.699,0 -1.399,-0.1065 -2.098,-0.2129 -0.155,0 -0.311,-0.213 -0.311,-0.4259 0,-0.2129 0,-0.3194 0.156,-0.4258 0.777,-0.8517 1.631,-1.4905 2.719,-2.1292 0.233,-0.1065 0.388,-0.213 0.622,-0.3194 0.388,-0.2129 0.776,-0.4259 1.165,-0.6388 0.311,-0.2129 0.311,-0.4258 0.155,-1.0646 0,-0.1065 -0.077,-0.3194 -0.077,-0.4258 -0.233,-2.768 -0.311,-5.536 -0.389,-8.304 0,-0.6387 -0.078,-1.2775 -0.078,-1.9162 0,-0.7453 -0.077,-1.384 -0.077,-2.1293 -0.078,-0.9581 -0.078,-1.8098 -0.156,-2.7679 0,-1.0646 0.078,-1.8099 0.311,-2.5551 0.156,-0.5323 0.389,-1.1711 0.544,-1.8098 0.311,-0.9582 0.622,-2.0228 0.855,-2.9809 -3.108,-1.0646 -6.527,-1.5969 -11.11,-1.5969 -1.865,0 -3.73,0.1064 -5.517,0.1064 -2.097,0.1065 -4.195,0.213 -6.293,0.1065 -1.398,0 -2.874,0 -4.273,-0.1065 -2.253,0 -4.506,-0.1064 -6.759,-0.1064 -0.932,0 -1.865,0 -2.797,0 -4.506,0.1064 -9.09,0.3194 -13.518,0.5323 h -0.544 c -4.817,0.1064 -10.023,0.4258 -15.073,0.4258 z"
     fill="#b37052"
     id="path4" />
  <path
     opacity="0.5"
     d="m 44.5601,72.3489 c 2.8746,0 5.7492,0.3194 8.6238,0.5323 2.8746,0.3194 5.7493,0.1065 8.6239,0 2.9523,-0.1065 5.8269,0.4258 8.7792,0.5323 3.0301,0.1065 5.9824,0.1065 9.0124,0.2129 5.9823,0.2129 11.8869,1.2775 17.8692,2.1292 6.0604,0.8517 12.0424,1.5969 18.1804,1.8099 11.964,0.3193 23.851,-0.1065 35.738,-1.1711 6.06,-0.5323 12.12,-1.0646 18.18,-1.4905 2.953,-0.2129 5.827,-0.4258 8.779,-0.4258 2.875,0 5.827,0 8.702,-0.2129 6.215,-0.4259 12.353,-1.7034 18.569,-1.2775 1.476,0.1064 2.952,0.2129 4.506,0.2129 1.554,0 3.03,0 4.506,0.2129 1.554,0.2129 3.108,0.4258 4.584,0.6388 1.32,0.2129 3.03,0.4258 4.273,1.2775 l 0.077,-0.1065 c -0.932,-0.7452 -2.097,-0.9581 -3.107,-1.2775 -1.476,-0.4258 -3.03,-0.6388 -4.584,-0.8517 -1.399,-0.2129 -2.797,-0.4258 -4.195,-0.4258 -1.477,0 -3.03,0.1064 -4.507,-0.1065 -5.749,-0.8517 -11.653,0.4259 -17.48,0.8517 -5.905,0.5323 -11.887,0.2129 -17.792,0.6388 -5.827,0.4258 -11.732,0.8516 -17.558,1.3839 -12.121,1.1711 -24.241,1.7034 -36.361,1.4905 -6.06,-0.1065 -12.12,-0.7452 -18.1796,-1.5969 -3.03,-0.4258 -5.9823,-0.7452 -9.0123,-1.1711 -2.9523,-0.4258 -5.9823,-0.8517 -8.9347,-0.9581 -3.1076,-0.1065 -6.293,-0.1065 -9.4008,-0.1065 -3.1853,0 -6.4484,-0.4258 -9.6338,-0.5323 -2.9523,-0.1064 -5.9046,0.3194 -8.8569,0 -3.1077,0 -6.2154,-0.3194 -9.4008,-0.2129 0.0777,-0.1065 0,0 0,0 z"
     fill="#000000"
     id="path6" />
  <path
     opacity="0.5"
     d="m 94.594,71.4971 c 0.9323,0.5323 1.9423,0.6387 2.9523,0.8516 1.2431,0.213 2.4085,0.4259 3.6517,0.5323 2.564,0.4259 5.205,0.7453 7.769,0.8517 2.564,0.1065 5.05,0.7453 7.614,0.7453 2.719,0.1064 5.361,0.5323 8.08,0.5323 5.205,0 10.411,-0.6388 15.616,-0.7453 2.331,0 4.506,-0.5323 6.837,-0.8517 1.088,-0.1064 2.176,-0.4258 3.263,-0.4258 0.544,0 1.088,-0.1065 1.399,-0.6388 0,0 0.077,-0.2129 0.077,-0.3193 -0.466,-0.5323 -1.087,-0.5323 -1.709,-0.5323 -0.777,0 -1.631,-0.213 -2.408,-0.213 -1.943,-0.1064 -3.807,-0.9581 -5.672,-1.0646 -4.04,-0.2129 -8.08,-0.9581 -12.12,-0.9581 -1.787,0 -3.574,-0.3194 -5.361,-0.2129 -1.787,0 -3.651,0.1064 -5.438,0.3193 -1.865,0.213 -3.729,0.213 -5.594,0.4259 -1.942,0.2129 -3.807,0.6388 -5.749,0.7452 -0.078,0 -0.389,0.4258 -0.233,0.4258 2.02,0.8517 4.195,0.8517 6.215,0.6388 1.01,-0.1064 1.942,-0.1065 2.952,0.1065 1.088,0.2129 2.098,0.4258 3.186,0.4258 2.097,0 4.117,0.4259 6.137,0.2129 0.467,0 0.855,-0.2129 1.321,-0.2129 0.466,0 0.933,0.2129 1.476,0.2129 1.088,0 2.176,-0.1064 3.264,-0.1064 0.077,0 0.077,-0.1065 0.077,-0.1065 -0.932,0 -1.864,0 -2.874,-0.1064 -0.855,0 -1.71,-0.4259 -2.642,-0.213 -2.175,0.5323 -4.428,-0.1064 -6.682,-0.1064 -0.932,0 -1.864,-0.2129 -2.796,-0.3194 -1.088,-0.2129 -2.176,-0.2129 -3.341,-0.2129 -1.709,0.1064 -3.496,0.1064 -5.128,-0.3194 1.165,-0.1065 2.331,-0.3194 3.574,-0.5323 1.865,-0.2129 3.807,-0.3194 5.671,-0.5323 1.865,-0.2129 3.73,-0.3194 5.672,-0.4259 1.942,-0.1064 3.807,0.1065 5.749,0.213 3.963,0.1064 7.847,0.6387 11.81,0.9581 1.786,0.1065 3.573,0.5323 5.438,0.9582 0.855,0.2129 1.709,0.2129 2.564,0.3193 0.777,0.1065 1.709,-0.1064 2.331,0.5323 -0.544,0.4259 -1.632,0.1065 -2.176,0.213 -1.01,0 -2.097,0.3193 -3.03,0.5323 -2.331,0.5323 -4.661,0.6387 -6.992,0.6387 -2.486,0 -4.895,0.4259 -7.381,0.5323 -2.564,0.1065 -5.128,0.213 -7.769,0.3194 -4.895,0.1065 -9.789,-0.9581 -14.684,-1.1711 -2.486,-0.1064 -4.972,-0.4258 -7.381,-0.7452 -1.243,-0.2129 -2.5636,-0.3194 -3.8067,-0.6387 -1.0877,-0.213 -2.1754,-0.3194 -3.2631,-0.9582 0.4661,-0.4258 1.1654,-0.2129 1.7092,-0.4258 1.01,-0.213 2.02,-0.4259 3.1077,-0.5323 2.2529,-0.213 4.4289,-0.5323 6.6039,-0.8517 2.253,-0.3194 4.584,-0.5323 6.837,-0.7452 2.331,-0.213 4.739,-0.3194 7.07,-0.4259 2.175,-0.1064 4.195,0 6.371,0.1065 2.253,0.1064 4.506,-0.1065 6.759,0 2.253,0.1064 4.506,0.3194 6.682,0.5323 1.087,0.1064 2.175,0.2129 3.263,0.3194 0.854,0.1064 1.864,0 2.563,0.4258 l 0.078,-0.1065 c -0.621,-0.4258 -1.398,-0.3193 -2.02,-0.5323 -1.088,-0.2129 -2.253,-0.3193 -3.341,-0.4258 -2.33,-0.2129 -4.661,-0.4258 -6.992,-0.6388 -2.331,-0.2129 -4.739,0.1065 -7.07,-0.1064 -1.088,-0.1065 -2.253,-0.2129 -3.341,-0.3194 -1.243,0 -2.486,0.1065 -3.729,0.2129 -4.662,0.2129 -9.323,0.7452 -13.985,1.2775 -2.33,0.3194 -4.583,0.5323 -6.9143,0.8517 -0.8546,0.1065 -1.7092,0.3194 -2.5638,0.4259 -0.5439,0.1064 -1.01,0.3193 -1.3985,0.8516 -0.1554,0.3194 -0.2331,0.5324 -0.1554,0.5324 z"
     fill="#000000"
     id="path8" />
  <path
     opacity="0.5"
     d="m 161.643,70.8584 c 5.671,0.1064 11.265,-0.3194 16.937,-0.3194 2.797,0 5.594,-0.1065 8.468,0 1.399,0 2.797,0.1064 4.273,0.2129 1.399,0.1065 2.797,0.5323 4.118,0.5323 0.622,0 1.243,0 1.865,0 0.543,0 1.165,0.2129 1.709,0.2129 1.321,0.1065 2.641,0 3.962,0 1.321,0 2.642,0 3.962,-0.1064 1.321,-0.1065 2.642,-0.3194 3.963,-0.3194 1.321,0 2.641,-0.2129 3.962,-0.2129 1.243,0 2.486,0.2129 3.807,0 1.321,-0.1065 2.642,-0.213 3.962,-0.3194 0.622,-0.1065 1.321,-0.213 1.943,-0.4259 0.699,-0.1064 1.476,-0.5323 2.175,-0.1064 l 0.078,-0.1065 c -0.777,-0.5323 -1.943,0 -2.797,0.1065 -1.321,0.2129 -2.564,0.2129 -3.885,0.3194 -1.476,0.1064 -2.874,0.1064 -4.351,0.1064 -1.32,-0.1065 -2.641,0.2129 -3.962,0.2129 -2.641,0 -5.283,0.3194 -7.925,0.3194 -1.32,0 -2.641,0 -3.962,0 -1.321,0 -2.564,-0.2129 -3.807,-0.2129 -1.321,0 -2.719,-0.4258 -4.117,-0.5323 -1.399,-0.1065 -2.797,-0.2129 -4.274,-0.2129 -2.797,-0.1065 -5.593,0 -8.468,0 -5.982,0.1064 -11.809,0.6387 -17.636,0.8517 0,-0.1065 -0.078,0 0,0 z"
     fill="#000000"
     id="path10" />
  <path
     opacity="0.5"
     d="m 5.48096,74.9038 c 2.95231,-0.4258 5.98234,-0.7452 8.93464,-0.8517 2.6415,-0.1064 5.2831,0.1065 8.0023,-0.2129 2.8746,-0.3194 5.7492,-0.8517 8.6239,-1.1711 3.03,-0.3193 6.06,-0.4258 9.09,-0.7452 2.9523,-0.4258 5.9046,-1.0646 8.8569,-1.384 1.5539,-0.2129 3.1077,-0.1064 4.6616,-0.2129 1.5538,-0.1064 3.03,-0.2129 4.5838,-0.2129 5.9823,0.3194 11.887,0.2129 17.8693,0.2129 2.1754,0 4.2731,0.5323 6.4484,0.4259 1.0877,0 2.2531,0 3.3408,0 1.0877,0 2.0977,-0.4259 3.1854,0 0,0 0.0777,-0.1065 0,-0.1065 -1.1654,-0.5323 -2.6415,0 -3.8846,0 -1.5539,0 -3.03,0 -4.5839,-0.1065 -1.3207,-0.1064 -2.7192,-0.3193 -4.04,-0.5323 -1.4761,-0.2129 -3.03,0 -4.4284,0 -3.03,0 -6.1377,0 -9.1677,0 -2.9524,0 -5.827,-0.3194 -8.7016,-0.1064 -2.8746,0.2129 -5.7492,0.3193 -8.6239,0.7452 -3.1077,0.5323 -6.1377,0.9581 -9.2454,1.2775 -2.8746,0.2129 -5.7492,0.4259 -8.6238,0.9582 -2.8746,0.5323 -5.8269,0.8516 -8.7793,0.9581 -2.1753,0.1065 -4.2731,0 -6.4484,0.2129 -2.4862,0.1065 -4.73927,0.4259 -7.07004,0.8517 0,-0.1065 -0.07769,0 0,0 z"
     fill="#000000"
     id="path12" />
  <path
     opacity="0.5"
     d="m 4.16006,85.0176 c 2.79693,-1.0646 5.90464,-0.8517 8.77924,-1.0646 2.9523,-0.2129 5.9823,-1.0646 8.9346,-1.0646 5.9823,0 11.9647,-0.5323 17.947,-0.8517 2.7969,-0.1065 5.6715,-0.1065 8.4685,-0.3194 2.9523,-0.2129 5.9823,-0.4258 8.9346,-0.5323 2.9523,-0.1065 5.9046,-0.3194 8.8569,-0.3194 2.9524,0 5.9824,0 8.9347,0.1065 3.5738,0 7.07,0.3194 10.5662,0.5323 1.7869,0.1065 3.5738,0.1064 5.3607,0.3194 1.787,0.2129 3.5739,0.5323 5.3608,0.6387 6.9927,0.4259 14.0627,-0.7452 20.9767,0.2129 l 0.078,-0.1064 c -5.827,-0.8517 -11.732,-0.3194 -17.5585,-0.4259 -2.8746,0 -5.7493,-0.4258 -8.6239,-0.8516 -2.9523,-0.4259 -5.9046,-0.4259 -8.8569,-0.7453 -11.7316,-0.8516 -23.5408,-0.2129 -35.2724,0.6388 -3.4962,0.2129 -7.07,0.3194 -10.5662,0.3194 -3.7292,0 -7.4584,0.6388 -11.1877,0.7452 -1.7092,0 -3.4185,-0.1065 -5.05,0.1065 -1.7869,0.2129 -3.5738,0.5323 -5.4385,0.8516 -1.7869,0.213 -3.5738,0.4259 -5.36076,0.5323 -1.70924,0.3194 -3.57385,0.4259 -5.28308,1.2776 0,-0.1065 0,0 0,0 z"
     fill="#000000"
     id="path14" />
  <path
     opacity="0.5"
     d="m 2.52864,82.2498 c 2.25308,0 4.50617,-0.4259 6.75926,-0.6388 2.4862,-0.2129 4.9723,-0.2129 7.3808,-0.2129 4.6615,-0.1065 9.4008,-0.1065 14.0623,-0.6388 2.5639,-0.3194 5.05,-0.5323 7.6916,-0.6388 2.5638,0 5.05,-0.3193 7.5361,-0.5323 2.5639,-0.2129 5.05,-0.7452 7.6139,-1.0646 1.3208,-0.2129 2.5638,-0.2129 3.8846,-0.5323 0.8546,-0.2129 1.6316,0 2.4085,-0.6387 0.0777,-0.1065 0.2331,-0.2129 0.1554,-0.4259 -0.2331,-0.3193 -0.3885,-0.4258 -0.6993,-0.5323 -0.3884,-0.1064 -0.7769,-0.2129 -1.243,-0.3194 -1.0877,-0.3193 -2.2531,-0.3193 -3.4185,-0.3193 -2.4862,-0.1065 -5.05,-0.1065 -7.5362,-0.1065 -4.9723,0.1065 -10.0223,0.4258 -14.9946,0.7452 -5.05,0.213 -10.0224,0.5323 -15.0724,0.7453 -2.4861,0.1064 -4.8946,0.1064 -7.38074,0.3193 -2.17539,0.1065 -4.42847,-0.7452 -6.52616,0.1065 -0.0777,0 -0.15539,0.2129 -0.0777,0.2129 2.17539,-0.8517 4.58385,0.1065 6.83693,0 2.33077,-0.1064 4.66157,-0.2129 7.06997,-0.2129 4.8947,-0.1065 9.7893,-0.5323 14.6839,-0.7452 4.8946,-0.213 9.7893,-0.5323 14.6839,-0.6388 2.4085,-0.1064 4.8169,-0.1064 7.2254,0 1.1654,0 2.3308,0.2129 3.5738,0.2129 0.4662,0 1.0101,0.2129 1.4762,0.4259 0.3885,0.1064 0.8546,0.1064 1.1654,0.4258 -0.7769,0.4259 -1.6316,0.3194 -2.4085,0.5323 -1.2431,0.3194 -2.5638,0.3194 -3.8846,0.5323 -2.5639,0.3194 -5.05,0.8517 -7.6139,1.0646 -2.6415,0.2129 -5.2054,0.5323 -7.8469,0.5323 -2.3308,0 -4.6615,0.3194 -7.07,0.6388 -4.7393,0.6387 -9.5562,0.5323 -14.3731,0.6388 -2.2531,0.1064 -4.5062,0.1064 -6.75927,0.3193 -2.48616,0 -4.89462,0.5323 -7.30309,0.7453 0,-0.1065 -0.07769,0 0,0 z"
     fill="#000000"
     id="path16" />
  <path
     opacity="0.5"
     d="m 8.19995,103.2224 c 1.55385,-0.4258 3.10765,-0.8517 4.73925,-0.8517 1.6315,-0.1064 3.1854,-0.4258 4.8169,-0.5323 3.1854,0 6.2931,-0.6388 9.4008,-1.2775 3.4185,-0.7452 6.8369,-1.8098 10.3331,-2.4486 3.4961,-0.6388 6.9923,-1.2775 10.4885,-1.8098 7.07,-1.0646 14.14,-0.9582 21.2877,-1.0646 6.9923,-0.1065 13.9846,-0.4259 20.977,-0.7453 7.1477,-0.3193 14.2958,-0.7452 21.4428,-1.171 6.993,-0.4259 14.063,-0.7453 21.055,-1.384 14.218,-1.1711 28.358,-2.768 42.498,-4.4714 8.39,-0.9581 16.781,-2.0227 25.172,-2.9809 4.195,-0.5323 8.469,-0.9581 12.664,-1.8098 2.098,-0.4258 4.273,-0.8517 6.371,-1.0646 1.087,-0.1065 2.097,-0.1065 3.185,0 0.544,0 1.088,0.1065 1.632,0.2129 0.155,0 1.165,0.1065 0.466,0.1065 l -0.078,0.1065 c 0.155,0 0.233,0 0.389,0 l 0.077,-0.1065 c -3.107,-1.0646 -6.371,-0.5323 -9.478,0 -3.496,0.6388 -6.915,1.2775 -10.333,1.7034 -6.993,0.7452 -14.063,1.5969 -21.055,2.4486 -14.062,1.5969 -28.202,3.3002 -42.265,4.6842 -14.373,1.384 -28.824,2.1292 -43.1967,2.9809 -7.07,0.4259 -14.14,0.6388 -21.21,0.9582 -6.9923,0.2129 -13.907,0.1064 -20.8993,0.4258 -8.3131,0.4258 -16.6262,2.0228 -24.7839,4.152 -3.9623,0.9581 -8.0023,1.9162 -12.0423,2.3421 -1.8646,0.2129 -3.7292,0 -5.5939,0.4258 -2.02,0.4259 -3.9623,0.5323 -5.90458,1.2776 -0.15538,-0.213 -0.23307,0 -0.15537,-0.1065 z"
     fill="#000000"
     id="path18" />
  <path
     opacity="0.5"
     d="m 5.24789,110.781 c 3.03,-1.277 6.21541,-1.916 9.40081,-2.555 3.3408,-0.6387 6.7592,-0.9581 10.1777,-1.2775 3.5739,-0.4258 7.07,-0.8517 10.6438,-1.0646 3.5739,-0.2129 7.0701,-0.5323 10.6439,-0.7452 6.9923,-0.5323 13.9847,-1.2775 20.977,-2.1292 7.1477,-0.7452 14.2954,-0.4259 21.4431,-0.7452 7.07,-0.3194 14.1398,-0.9582 21.2098,-0.8517 7.07,0 14.14,1.0646 21.21,1.5969 6.993,0.5323 14.063,0.7452 21.055,1.5969 6.837,0.8517 13.674,1.8098 20.433,2.555 4.118,0.4259 8.158,1.1716 12.275,1.7036 4.274,0.532 8.624,0.639 12.897,0.852 4.196,0.212 8.391,0.425 12.509,1.064 2.02,0.319 4.118,0.319 6.138,0.639 0.932,0.213 1.864,0.426 2.797,0.319 1.087,-0.106 2.175,-0.426 3.263,-0.426 l 0.077,-0.106 c -1.476,0 -2.952,0.745 -4.428,0.426 -1.787,-0.32 -3.496,-0.639 -5.283,-0.852 -3.496,-0.319 -6.915,-0.852 -10.411,-1.064 -6.915,-0.533 -13.752,-0.639 -20.666,-1.597 -13.752,-1.9167 -27.503,-4.1524 -41.255,-5.0041 -3.496,-0.2129 -6.992,-0.4258 -10.566,-0.6387 -3.496,-0.2129 -6.992,-0.7452 -10.566,-1.0646 -7.07,-0.6388 -14.218,-0.4259 -21.3657,-0.1065 -3.4962,0.2129 -6.9923,0.5323 -10.4885,0.6388 -3.4961,0.1064 -7.07,0.1064 -10.5662,0.2129 -6.9923,0.1065 -13.9069,1.1711 -20.8215,1.8098 -8.7793,0.8517 -17.6362,1.384 -26.4155,2.1292 -2.02,0.213 -4.04,0.6388 -6.06,0.8517 -2.1754,0.213 -4.3508,0.4259 -6.5262,0.8517 -2.02,0.3198 -3.9623,0.8518 -5.9046,1.2778 -1.86459,0.213 -3.80692,0.745 -5.82691,1.703 0,-0.106 0,0 0,0 z"
     fill="#000000"
     id="path20" />
  <path
     opacity="0.5"
     d="m 131.887,99.496 c 1.243,0.2129 2.486,0.5323 3.729,0.6388 2.952,0.4258 5.904,0.6387 8.857,0.9581 2.952,0.3194 5.904,0.9582 8.857,1.2776 5.827,0.5323 11.576,1.3839 17.403,2.1292 5.904,0.8516 11.731,1.171 17.636,1.171 6.06,0 12.042,1.1711 18.102,2.0228 3.03,0.4255 6.06,0.7455 9.09,0.8515 2.953,0.107 5.905,-0.213 8.857,-0.213 0.933,0 1.865,0 2.797,-0.106 0.078,0 0.078,-0.107 0.078,-0.107 -2.797,-0.106 -5.516,0.107 -8.313,0.107 -3.03,0.106 -6.06,-0.213 -9.09,-0.5325 -3.03,-0.3194 -6.06,-0.8517 -9.09,-1.1711 -3.03,-0.3194 -5.983,-1.0646 -9.013,-1.171 -2.952,-0.1065 -5.904,0 -8.934,-0.1065 -2.953,-0.1065 -5.905,-0.4259 -8.779,-0.7452 -5.827,-0.6388 -11.577,-1.8099 -17.404,-2.3422 -2.952,-0.2129 -5.827,-0.6387 -8.701,-1.0646 -2.952,-0.4258 -5.982,-0.6387 -8.935,-0.9581 -1.398,-0.2129 -2.797,-0.4259 -4.195,-0.6388 -0.622,-0.1064 -1.243,-0.2129 -1.865,-0.4258 -0.544,-0.2129 -1.087,-0.1065 -1.554,-0.4259 -0.854,-0.6387 0.777,-1.4904 1.088,-1.5969 0.699,-0.3194 1.476,-0.6387 2.175,-0.8517 3.652,-1.171 7.381,-2.0227 11.11,-2.1292 3.03,-0.1064 5.983,0 9.013,0 2.952,0 5.827,-0.2129 8.779,-0.5323 5.594,-0.6387 11.188,-0.9581 16.782,-1.4904 5.516,-0.5323 10.877,-1.1711 16.315,-2.2357 2.719,-0.5323 5.438,-0.8517 8.235,-1.384 2.642,-0.4258 5.284,-0.9581 7.925,-0.9581 2.486,0 5.05,-0.7452 7.536,-1.0646 2.564,-0.3194 5.128,-0.9582 7.692,-1.1711 0,0 0.077,-0.1065 0,-0.1065 -2.409,0.213 -4.895,0.7453 -7.303,0.9582 -1.321,0.1065 -2.72,0.2129 -4.04,0.4258 -1.632,0.3194 -3.186,0.4259 -4.817,0.4259 -1.088,0 -2.331,0.3194 -3.419,0.4258 -1.554,0.2129 -3.03,0.4259 -4.584,0.7452 -2.952,0.5323 -5.982,0.9582 -8.934,1.4905 -5.905,1.0646 -11.887,1.7034 -17.869,2.2357 -3.03,0.3193 -6.06,0.4258 -9.09,0.7452 -3.186,0.3194 -6.294,0.7452 -9.479,0.9581 -5.827,0.4259 -11.654,-0.3194 -17.403,0.6388 -2.875,0.5323 -5.905,1.1711 -8.624,2.4486 -0.466,0.2129 -1.631,0.7452 -1.631,1.5969 0,0.9581 0.621,1.1711 1.01,1.2775 z"
     fill="#000000"
     id="path22" />
  <path
     opacity="0.5"
     d="m 184.562,98.3253 c 2.175,1.4904 4.661,1.8098 7.07,2.2357 2.952,0.5323 5.904,0.7452 8.934,1.2775 4.04,0.6387 8.081,1.2775 12.121,1.7034 2.02,0.2129 4.04,0.2129 5.982,0.2129 1.709,0 3.807,-0.1065 5.438,0.7452 -0.854,-0.5323 -1.942,-0.7452 -2.952,-0.8517 -1.476,-0.2129 -3.03,-0.1064 -4.506,-0.1064 -2.952,-0.1065 -5.982,-0.5323 -8.935,-0.9582 -5.904,-0.8517 -11.887,-1.5969 -17.791,-2.6615 -1.321,-0.2129 -2.564,-0.4258 -3.807,-1.0646 -0.466,-0.2129 -1.01,-0.5323 -1.476,-0.7452 -0.234,-0.1065 -0.389,-0.3194 -0.544,-0.4259 -0.622,-0.6387 0.233,-1.2775 0.621,-1.384 2.331,-0.8516 4.739,-0.9581 7.148,-1.4904 2.875,-0.6388 5.671,-0.9582 8.546,-0.7452 2.719,0.2129 5.361,0.3193 8.08,-0.4259 2.875,-0.7452 5.749,-1.171 8.624,-1.4904 1.398,-0.1065 2.797,-0.3194 4.195,-0.5323 1.477,-0.213 2.953,0.4258 4.429,-0.1065 0,0 0.078,-0.1064 0,-0.1064 -1.321,0.4258 -2.642,-0.1065 -4.04,0 -1.554,0.1064 -3.03,0.4258 -4.584,0.5323 -2.875,0.3193 -5.749,0.6387 -8.624,1.3839 -2.874,0.7453 -5.749,0.5323 -8.701,0.3194 -2.642,-0.2129 -5.284,0.2129 -7.925,0.7452 -2.409,0.5323 -4.739,0.7453 -7.148,1.4905 -0.466,0.1065 -0.854,0.4258 -1.165,0.9581 -0.156,0.6388 0.544,1.1711 1.01,1.4905 z"
     fill="#000000"
     id="path24" />
  <path
     opacity="0.5"
     d="m 210.434,99.2836 c 0.233,0.4258 0.543,0.6387 0.932,0.7452 0.621,0.2129 1.321,0.4258 1.942,0.5323 1.399,0.3194 2.797,0.2129 4.196,0.1065 1.554,-0.1065 3.03,0 4.584,0.1064 0.621,0 1.243,0.1065 1.864,0.2129 0.466,0.1065 0.855,0.4259 1.321,0.213 0,0 0.078,-0.1065 0,-0.1065 -0.466,0.1065 -0.855,-0.2129 -1.243,-0.3194 -0.544,-0.1064 -1.01,-0.2129 -1.554,-0.2129 -1.088,-0.1065 -2.098,-0.3194 -3.185,-0.3194 -2.331,0.1065 -4.584,0.4259 -6.915,-0.3194 -0.466,-0.1064 -1.088,-0.2129 -1.476,-0.5323 -0.855,-0.6387 0.388,-1.4904 0.699,-1.5969 1.01,-0.5323 2.098,-0.8517 3.263,-1.0646 1.088,-0.2129 2.176,-0.3194 3.186,-0.7452 1.087,-0.4259 2.253,-0.7452 3.34,-1.0646 l 0.078,-0.1065 c -1.321,0.3194 -2.642,0.7452 -3.885,1.1711 -1.32,0.4258 -2.797,0.4258 -4.117,0.8517 -0.544,0 -3.807,0.9581 -3.03,2.4486 z"
     fill="#000000"
     id="path26" />
  <path
     opacity="0.5"
     d="m 166.46,100.561 c 1.243,0.8517 2.33,1.384 3.729,1.7033 1.631,0.3194 3.341,0.3194 4.972,0.5323 2.875,0.3194 5.749,0.9582 8.546,1.597 -2.097,-0.5323 -4.273,-0.9582 -6.448,-1.384 -1.243,-0.2129 -2.486,-0.5323 -3.807,-0.6388 -1.476,-0.1065 -2.875,-0.3194 -4.273,-0.6388 -1.088,-0.3193 -2.02,-1.0646 -3.03,-1.7033 -1.088,-0.6388 0.233,-2.1292 0.854,-2.6615 0.544,-0.4259 1.243,-0.5323 1.865,-0.7453 2.408,-0.6387 4.739,-1.4904 7.07,-2.555 0,0 0.078,-0.2129 0.078,-0.1065 -1.476,0.5323 -2.875,1.0646 -4.351,1.5969 -1.321,0.4259 -2.719,0.6388 -3.962,1.1711 -0.7,0.3194 -1.554,0.8517 -2.02,1.8098 -0.544,1.1711 0,1.5969 0.777,2.0228 z"
     fill="#000000"
     id="path28" />
  <path
     opacity="0.5"
     d="m 87.291,117.594 c 3.03,-0.532 6.06,-0.426 9.09,-0.426 2.8746,0 5.827,0.533 8.702,0.426 2.952,-0.106 5.827,-0.426 8.779,-0.532 2.952,-0.106 5.827,-0.426 8.779,-0.745 12.353,-1.278 24.706,-1.491 37.059,-1.597 11.11,0 22.298,0.213 33.408,0.213 2.719,0 5.439,-0.213 8.158,-0.213 2.719,-0.107 5.361,0 8.08,0 2.641,-0.107 5.438,0 8.002,0.639 1.399,0.319 2.797,0.532 4.196,0.638 1.165,0.107 2.33,0 3.496,0.533 0,0 0.077,0 0,-0.107 -1.088,-0.639 -2.253,-0.532 -3.419,-0.745 -1.476,-0.213 -3.03,-0.426 -4.506,-0.852 -2.797,-0.745 -5.827,-0.638 -8.701,-0.638 -2.875,0.106 -5.827,-0.107 -8.702,0 -2.952,0.106 -5.982,0.213 -8.935,0.213 -5.982,0 -11.964,-0.32 -17.947,-0.32 -6.137,0 -12.275,0 -18.413,0 -11.265,0.107 -22.531,0.532 -33.796,1.703 -2.875,0.32 -5.749,0.426 -8.701,0.533 -2.797,0.106 -5.594,0.532 -8.314,0.532 -2.719,0 -5.3603,-0.319 -8.0796,-0.319 -2.7192,0 -5.4384,0.106 -8.1577,0.638 -0.0777,0.32 -0.0777,0.426 -0.0777,0.426 z"
     fill="#000000"
     id="path30" />
  <path
     opacity="0.5"
     d="m 141.521,119.83 c 0.699,-0.319 1.398,-0.213 2.097,-0.319 0.622,0 1.244,-0.213 1.943,-0.213 1.476,0 2.952,0.106 4.428,0.213 2.797,0.213 5.672,0.106 8.469,-0.107 2.952,-0.212 5.982,-0.638 8.934,-1.064 3.03,-0.32 6.06,-0.426 9.09,-0.426 2.875,0 5.75,0.106 8.702,0.213 2.875,0.106 5.749,0.532 8.702,0.532 2.874,0 5.671,0.32 8.468,0.213 1.088,0 2.175,-0.426 3.263,-0.532 0.622,-0.107 1.165,-0.213 1.787,-0.426 0.699,-0.213 1.476,-0.106 2.175,-0.213 1.477,-0.213 2.953,-0.319 4.429,-0.319 0.777,0 1.554,0.213 2.253,0.213 0.777,0 1.554,0 2.331,0.106 0.777,0.107 1.554,0.426 2.33,0.639 0.777,0.213 1.632,0.213 2.409,0.319 0.777,0.107 1.476,0.32 2.253,0.533 0.777,0.212 1.632,0 2.408,0 l 0.078,-0.107 c -0.621,0 -1.321,0 -1.942,-0.106 -0.622,-0.107 -1.243,-0.533 -1.942,-0.639 -1.477,-0.213 -2.953,-0.32 -4.429,-0.745 -1.321,-0.426 -2.641,-0.32 -3.962,-0.426 -0.699,0 -1.321,-0.213 -1.943,-0.107 -0.776,0 -1.476,0.213 -2.253,0.213 -1.165,0.107 -2.33,0.107 -3.496,0.32 -0.544,0.106 -1.165,0.213 -1.709,0.425 -0.699,0.107 -1.321,0.107 -2.02,0.32 -2.797,0.745 -5.749,0 -8.624,0 -1.321,0 -2.641,0 -3.962,0 -1.554,0 -3.03,-0.426 -4.584,-0.532 -2.875,-0.107 -5.827,-0.213 -8.702,-0.213 -2.797,0 -5.593,-0.107 -8.39,0.213 -2.953,0.319 -5.983,0.745 -8.935,1.064 -3.418,0.426 -6.837,0.532 -10.255,0.426 -1.632,0 -3.263,-0.106 -4.895,-0.106 -0.622,0 -1.321,0.106 -1.942,0.212 -0.933,0.213 -1.71,0.107 -2.564,0.426 z"
     fill="#000000"
     id="path32" />
  <path
     opacity="0.5"
     d="m 33.2946,118.872 c 2.2531,-0.639 4.4285,0.107 6.6815,0.532 2.1754,0.32 4.4285,0.32 6.6039,0.426 2.1754,0 4.2731,0 6.4485,0.107 2.0977,0 4.1177,0.319 6.1377,0.213 4.1177,-0.213 8.2354,-0.639 12.4308,-0.852 1.01,0 2.02,0 3.03,0.106 1.1654,0.107 2.4084,0 3.5738,0.107 1.1654,0 2.2531,0.213 3.4185,0.213 1.01,0 2.02,-0.213 3.03,-0.426 0,0 0.0777,-0.106 0,-0.106 -1.0877,0.106 -2.1754,0.319 -3.2631,0.319 -1.1654,0 -2.2531,-0.319 -3.4184,-0.426 -1.0877,-0.106 -2.0977,0 -3.1854,-0.106 -1.0877,-0.107 -2.1754,-0.213 -3.3408,-0.107 -4.2731,0.213 -8.4685,0.639 -12.7416,0.852 -1.9423,0.106 -3.8846,-0.213 -5.8269,-0.213 -2.1754,0 -4.3508,0 -6.4485,0 -2.1754,0 -4.4285,0 -6.6039,-0.319 -2.253,-0.426 -4.3507,-1.065 -6.5261,-0.32 0,-0.106 0,0 0,0 z"
     fill="#000000"
     id="path34" />
  <path
     opacity="0.5"
     d="m 1.05232,119.617 c 1.24309,-0.745 2.64156,-0.638 3.96233,-0.745 1.47615,-0.106 2.9523,-0.319 4.42845,-0.426 3.03,-0.425 5.9823,-1.277 9.0123,-1.384 5.7493,-0.213 11.4208,-1.703 17.1701,-1.597 2.8746,0 5.8269,0.213 8.7015,0.426 3.0301,0.32 6.1377,0.107 9.1678,0.107 5.8269,0 11.7315,0.532 17.5585,-0.107 3.03,-0.319 5.9823,-0.745 9.0123,-1.064 1.3984,-0.107 2.7192,-0.32 4.1177,-0.426 1.4761,-0.107 2.9523,0.106 4.4284,0 2.797,-0.107 5.6716,-0.32 8.4685,-0.532 2.8747,-0.213 5.8268,-0.426 8.7018,-0.852 2.952,-0.426 5.904,-0.639 8.857,-0.852 3.107,-0.319 6.215,-0.639 9.323,-0.852 2.952,-0.212 5.904,-0.425 8.857,-0.425 1.087,0 2.253,-0.107 3.341,-0.32 0.543,-0.106 1.32,-0.319 1.631,-0.958 0.544,-1.277 -1.243,-1.9162 -1.865,-2.1291 -2.486,-0.8517 -5.05,-0.4258 -7.536,-0.7452 -2.952,-0.4258 -5.982,-0.3194 -9.012,-0.4258 -2.952,-0.1065 -5.905,-0.213 -8.935,-0.213 -5.827,0 -11.5758,-0.6387 -17.4028,-0.4258 -5.8269,0.2129 -11.6539,0.9581 -17.4808,1.5969 -3.1077,0.4258 -6.2154,0.745 -9.3231,0.958 -2.9523,0.213 -5.9823,0.107 -8.9346,0.213 -5.827,0.213 -11.7316,0.852 -17.5585,0.958 -5.9047,0.107 -11.7316,0.32 -17.5585,1.384 -2.9523,0.532 -5.9047,1.491 -8.857,1.597 -2.8746,0.213 -5.74919,0.958 -8.70151,1.065 -0.77693,0 -1.47615,0.213 -2.25308,0.213 -0.0777,0 -0.1554,0.213 -0.0777,0.213 2.71924,-0.107 5.43848,-0.533 8.15769,-0.746 1.4762,-0.106 2.8747,-0.426 4.3508,-0.319 1.3985,0 2.8746,-0.639 4.2731,-0.852 2.7969,-0.532 5.5938,-1.171 8.3908,-1.49 3.1077,-0.426 6.2931,-0.426 9.4785,-0.532 5.9046,-0.107 11.7315,-0.533 17.6361,-0.959 2.9524,-0.213 5.9824,-0.213 8.9347,-0.213 2.8746,0 5.7492,-0.319 8.7015,-0.745 6.0601,-0.745 12.1201,-1.4902 18.2578,-1.9161 2.8746,-0.2129 5.7492,-0.3194 8.6238,-0.2129 2.9528,0.2129 5.9048,0.4259 8.7788,0.4259 2.953,0.1064 5.905,-1e-4 8.857,0.1064 3.03,0.1065 5.983,0.3194 9.013,0.3194 1.476,0 2.874,0.3194 4.273,0.4258 1.476,0.1065 2.952,-0.1064 4.428,0.213 0.7,0.1064 1.476,0.3193 2.176,0.6385 0.31,0.213 0.699,0.426 0.932,0.745 0.777,0.852 -0.777,1.384 -1.243,1.491 -2.797,0.639 -5.749,0.319 -8.624,0.426 -2.875,0.213 -5.749,0.319 -8.546,0.532 -3.108,0.319 -6.138,0.639 -9.246,0.852 -2.796,0.213 -5.593,0.745 -8.39,0.958 -3.0303,0.319 -6.0603,0.319 -9.0903,0.426 -1.3985,0.106 -2.797,0.213 -4.1954,0.213 -1.4762,0 -3.03,-0.107 -4.5062,0 -5.8269,0.425 -11.5762,1.703 -17.4808,1.703 -2.7192,0 -5.4385,-0.213 -8.1577,-0.213 -2.9523,-0.106 -5.9046,0 -8.8569,0 -5.5162,0 -10.9547,-0.958 -16.4709,-0.532 -2.5638,0.213 -5.1277,0.532 -7.6915,0.851 -1.3985,0.213 -2.7192,0.426 -4.1177,0.533 -1.3985,0.106 -2.7192,0.106 -4.1177,0.213 -2.7969,0.319 -5.5939,1.171 -8.39079,1.597 -1.32077,0.213 -2.71924,0.213 -4.04001,0.532 -1.0877,0.639 -2.25309,0.532 -3.34078,1.277 0,-0.106 -0.07768,0 0,0 z"
     fill="#000000"
     id="path36" />
  <path
     opacity="0.5"
     d="m 2.52859,116.849 c 2.79693,0 5.51617,-1.171 8.31311,-1.703 1.3985,-0.319 2.7192,-0.532 4.1177,-0.745 1.6315,-0.32 3.2631,-0.107 4.8946,-0.213 2.7193,-0.213 5.4385,-0.426 8.1577,-0.426 3.03,-0.106 6.06,0 9.0123,-0.106 5.9824,-0.32 11.8093,-1.917 17.7916,-1.917 5.5162,0 11.0323,1.065 16.5485,0.639 3.4185,-0.319 6.8369,-0.213 10.2554,-0.532 3.4185,-0.32 6.8369,-0.533 10.2554,-0.958 0.7769,-0.107 1.5539,-0.213 2.4085,-0.213 0.8546,0 1.7092,0 2.5638,0 1.6316,0 3.1858,0.106 4.7388,0.213 0.777,0 1.632,-0.107 2.409,0 0.777,0.106 1.476,0 2.253,-0.213 0.932,-0.107 1.865,-0.107 2.797,-0.213 1.01,-0.107 2.02,-0.32 3.108,-0.426 l 0.077,-0.107 c -2.797,0 -5.594,0.852 -8.39,0.639 -1.244,-0.106 -2.564,0 -3.807,-0.213 -1.3211,-0.213 -2.6419,0 -3.885,-0.213 -1.0877,-0.106 -2.3308,0.107 -3.4962,0.213 -1.3207,0.213 -2.7192,0.32 -4.04,0.426 -1.3207,0.107 -2.6415,0.107 -3.9623,0.213 -1.6315,0.213 -3.1854,0.426 -4.8169,0.426 -2.8746,0.106 -5.6716,0.213 -8.5462,0.426 -2.8746,0.213 -5.6715,-0.107 -8.5462,-0.32 -5.6715,-0.532 -11.2654,-0.426 -16.9369,0.426 -3.7292,0.532 -7.3031,1.065 -11.0323,1.171 -3.6516,0.107 -7.3031,0.107 -10.877,0.32 -1.5538,0.106 -3.1077,0.319 -4.7392,0.319 -1.787,0 -3.5739,0.106 -5.3608,0.426 -1.7869,0.319 -3.4962,0.639 -5.28308,1.064 -2.0977,0.639 -3.96233,1.491 -5.98233,1.597 0,-0.106 -0.07769,0 0,0 z"
     fill="#000000"
     id="path38" />
  <path
     opacity="0.5"
     d="m 74.938,109.823 c 1.2431,0 2.4862,-0.106 3.6516,-0.106 1.1653,0 2.3307,0 3.4961,-0.213 1.2431,-0.213 2.5639,-0.107 3.8069,-0.32 1.3208,-0.213 2.8747,0 4.1954,0.107 1.3208,0.106 2.5639,0.213 3.8847,0.213 1.3207,0 2.5638,-0.213 3.8846,-0.213 1.1654,-0.107 2.4087,0.106 3.5737,-0.107 0.622,-0.106 1.321,-0.213 1.942,-0.213 0.467,0 1.088,-0.213 1.477,0 -0.233,-0.106 -0.467,-0.319 -0.7,-0.213 -0.543,0.32 -1.243,0.107 -1.787,0.107 -1.243,0 -2.4857,0.213 -3.7288,0.213 -1.2431,0 -2.5638,0.106 -3.8069,0.213 -1.3985,0.106 -2.7969,0 -4.1954,-0.213 -5.2054,-0.426 -10.4108,0.532 -15.6162,0.745 -0.0777,-0.213 -0.1554,0 -0.0777,0 z"
     fill="#000000"
     id="path40" />
  <path
     opacity="0.5"
     d="m 2.83929,97.1543 c 1.0877,0 2.25309,-0.1065 3.34079,-0.3194 1.39846,-0.3194 2.79693,0 4.27312,-0.1064 2.8746,-0.213 5.7492,-0.213 8.7015,-0.213 5.7493,-0.1064 11.4208,-1.5969 17.0924,-2.555 5.9046,-0.9582 11.8092,-1.7034 17.7138,-2.4486 3.0301,-0.4259 6.0601,-0.8517 9.0901,-0.8517 2.7192,0 5.4384,-0.1065 8.1577,-0.3194 4.04,-0.3194 8.1577,-0.5323 12.1977,-0.8517 4.1954,-0.3193 8.3908,-0.9581 12.5862,-0.9581 0,0 0.0777,-0.1065 0,-0.1065 -2.8747,0 -5.6716,0.2129 -8.5462,0.4259 -3.03,0.2129 -6.1377,0.3194 -9.1677,0.5323 -2.8746,0.2129 -5.7493,0.5323 -8.5462,0.6387 -2.7192,0.1065 -5.4385,0.213 -8.1577,0.213 -2.8746,0 -5.7492,0.5323 -8.5462,0.9581 -2.9523,0.4258 -5.8269,0.8517 -8.7792,1.2775 -2.9523,0.3194 -5.9046,0.7453 -8.8569,1.1711 -2.8747,0.4258 -5.7493,1.1711 -8.7016,1.5969 -4.1954,0.6388 -8.3908,0.7452 -12.5862,0.7452 -1.9423,0 -3.8846,0.3194 -5.90461,0.213 C 6.41316,96.0897 4.70392,96.7284 2.99468,96.9414 2.8393,97.0478 2.7616,97.1543 2.83929,97.1543 Z"
     fill="#000000"
     id="path42" />
  <path
     opacity="0.5"
     d="M 3.07253,95.1313 C 3.46099,94.812 4.08252,94.9184 4.54868,94.812 5.17022,94.7055 5.71406,94.7055 6.3356,94.599 c 1.47615,-0.1064 3.03002,-0.4258 4.5062,-0.7452 2.9523,-0.5323 5.9046,-0.4258 8.7792,-0.7452 5.9823,-0.6388 12.0424,-1.5969 18.0247,-2.768 2.9523,-0.5323 5.8269,-1.0646 8.7792,-1.7034 1.3208,-0.3193 2.7193,-0.6387 4.04,-1.0646 0.6216,-0.2129 1.3208,-0.1064 1.9423,-0.2129 0.5439,-0.1064 1.1654,-0.3194 1.7093,-0.3194 0.5438,0 1.1654,-0.2129 1.6315,-0.6387 0.2331,-0.213 0.3885,-0.7453 0,-0.8517 -0.9323,-0.4259 -2.0977,-0.1065 -3.1077,-0.1065 -1.5538,0 -3.1077,0.4259 -4.5838,0.5323 -3.8847,0.213 -7.7693,0.213 -11.6539,0.213 -1.8646,0 -3.6516,-0.213 -5.5162,-0.213 -1.8646,0 -3.7292,0.213 -5.5938,0.213 -1.787,0 -3.4962,0.2129 -5.2831,0.1064 -0.7769,-0.1065 -1.6316,-0.1064 -2.4085,-0.1064 -0.8546,0 -1.3985,-0.3194 -2.2531,0 -0.7769,0.2129 -1.7869,0 -2.6415,0 -0.8546,0 -1.6316,0.1064 -2.4862,0.3193 -1.00998,0.213 -2.01999,0.5323 -3.10768,0.5323 -0.46615,0 -1.08769,0.1065 -1.55385,0.5323 0,0 -0.07769,0.213 0,0.1065 0.46616,-0.4258 1.47617,-0.4258 2.09771,-0.4258 0.62154,0 1.0877,0 1.70924,-0.213 1.55388,-0.5323 3.10768,-0.4258 4.66158,-0.4258 0.4661,0 1.01,0 1.4761,-0.1065 0.6993,-0.2129 1.2431,0.1065 1.9423,0.1065 1.3985,0 2.7193,0.3194 4.1177,0.2129 1.3208,0 2.6416,-0.2129 3.9623,-0.2129 1.4762,0 2.8747,-0.2129 4.2731,-0.2129 2.8747,-0.1065 5.7493,0.2129 8.6239,0.2129 2.9523,0 5.9046,0 8.8569,-0.2129 2.6416,-0.1065 5.3608,-0.9582 8.0024,-0.5323 0.3107,0 0.6215,0.4258 0.1553,0.6387 -0.1553,0.1065 -0.3884,0.1065 -0.5438,0.213 -0.3108,0.1064 -0.6215,0.1064 -0.9323,0.2129 -1.3985,0.4258 -2.7969,0.4258 -4.1954,0.8517 -2.7969,0.7452 -5.7492,1.2775 -8.5462,1.9163 -6.6815,1.2775 -13.4408,2.555 -20.2,3.3002 -3.2631,0.3194 -6.6039,0.3194 -9.9447,0.9582 -1.6315,0.3194 -3.26303,0.6387 -4.89457,0.8517 -0.69923,0.1064 -1.32077,0.2129 -1.94231,0.3193 -0.54385,-0.3193 -0.85462,-0.4258 -1.16539,0 0,-0.1064 -0.0777,0 0,0 z"
     fill="#000000"
     id="path44" />
  <path
     opacity="0.5"
     d="m 1.59628,92.2569 c 0.38847,-0.6388 1.55384,-0.7452 2.17538,-0.9582 0.85462,-0.2129 1.70923,-0.2129 2.56385,-0.4258 1.94231,-0.4258 3.96229,-0.8517 5.90459,-1.2775 1.8647,-0.3194 3.807,-0.3194 5.6716,-0.5323 1.01,-0.1065 1.9423,-0.213 2.9523,-0.213 0.6992,0 1.3208,-0.1064 1.9423,0.1065 -0.5438,0.2129 -1.0877,0.3194 -1.5538,0.4259 -0.8546,0.2129 -1.6316,0.7452 -2.4085,0.9581 -1.8646,0.6388 -3.8069,1.1711 -5.6715,1.5969 -1.8647,0.4258 -3.80697,0.6388 -5.74928,0.8517 -0.85462,0.1064 -1.78694,0.2129 -2.64156,0.3194 -0.93231,0.1064 -1.86462,0.1064 -2.71924,0.4258 0,0 -0.07769,0.1065 0,0.1065 0.77692,-0.3194 1.63155,-0.213 2.40847,-0.3194 1.01,-0.1065 1.94233,-0.2129 2.95233,-0.3194 1.86462,-0.2129 3.80688,-0.4258 5.67158,-0.7452 1.8646,-0.3194 3.8069,-0.9582 5.6715,-1.4905 0.8546,-0.3193 1.7093,-0.7452 2.6416,-1.0646 0.6215,-0.2129 1.243,-0.2129 1.8646,-0.6387 0.0777,0 0.2331,-0.3194 0.1554,-0.4259 -0.6993,-0.4258 -1.4762,-0.3194 -2.2531,-0.2129 -0.8546,0.1065 -1.7869,0.1065 -2.6416,0.2129 -2.253,0.213 -4.5061,0.213 -6.7592,0.6388 -1.0877,0.2129 -2.09771,0.5323 -3.10772,0.7452 -1.08769,0.2129 -2.25308,0.7452 -3.41846,0.7452 -0.69924,0 -1.55384,0.213 -2.17538,0.5323 -0.62154,0.4259 -1.16539,0.4259 -1.47616,0.9582 0,0.1064 0,0.1064 0,0 z"
     fill="#000000"
     id="path46" />
  <path
     opacity="0.5"
     d="m 116.659,87.5728 c 1.165,-0.3194 2.408,-0.1065 3.574,-0.3194 1.476,-0.213 2.874,-0.1065 4.35,-0.3194 1.321,-0.1065 2.72,-0.3194 4.04,-0.4259 1.477,-0.1064 3.031,0 4.507,0 1.243,0 2.486,-0.2129 3.729,-0.3193 1.476,-0.1065 2.952,-0.213 4.428,-0.6388 2.953,-0.6388 5.983,-0.8517 8.935,-1.0646 5.982,-0.5323 12.042,-0.8517 18.025,-1.7034 6.215,-0.8517 12.43,-1.384 18.646,-1.9163 6.837,-0.5323 13.674,-1.5969 20.511,-1.7033 3.418,-0.1065 6.837,0 10.177,-0.3194 1.554,-0.1065 3.186,-0.2129 4.74,-0.6388 0.777,-0.2129 1.476,-0.3194 2.253,-0.5323 0.854,-0.2129 1.787,-0.8517 2.641,-0.2129 l 0.078,-0.1065 c -0.855,-0.6387 -1.942,0 -2.875,0.2129 -1.476,0.3194 -2.952,0.5324 -4.428,0.7453 -3.108,0.3194 -6.293,0.4258 -9.401,0.4258 -5.982,0 -11.965,0.5323 -17.869,1.1711 -6.06,0.6388 -12.198,0.8517 -18.258,1.5969 -6.138,0.6388 -12.275,1.4904 -18.413,1.9163 -3.341,0.2129 -6.682,0.5323 -10.1,0.9581 -3.419,0.4259 -6.837,1.2776 -10.333,1.384 -1.554,0.1065 -3.108,0.3194 -4.739,0.3194 -1.554,0 -3.108,0.2129 -4.662,0.4258 -1.709,0.213 -3.341,0.3194 -5.05,0.4259 -1.632,0.1064 -3.108,0.1065 -4.506,0.6388 0,-0.1065 -0.078,0 0,0 z"
     fill="#000000"
     id="path48" />
  <path
     opacity="0.5"
     d="m 125.516,83.7402 c 0.699,-0.6387 1.398,-0.7452 2.253,-0.7452 0.699,0 1.476,-0.1064 2.175,-0.2129 1.476,-0.1065 3.03,-0.2129 4.506,-0.3194 3.263,-0.3194 6.527,-1.1711 9.712,-1.384 2.952,-0.2129 5.982,-0.2129 8.935,-0.6387 0.776,-0.1065 1.553,-0.213 2.33,-0.4259 0.855,-0.2129 1.787,-0.6387 2.642,-0.6387 1.398,-0.1065 2.952,-0.6388 4.351,-0.3194 0.077,0 0.233,-0.3194 0.155,-0.3194 -1.243,-0.4258 -2.719,0 -4.04,0.1065 -1.554,0.2129 -3.108,0.7452 -4.662,0.9581 -3.418,0.6388 -6.836,0.5323 -10.255,0.8517 -1.476,0.1064 -3.03,0.5323 -4.506,0.8517 -1.865,0.3194 -3.807,0.6387 -5.672,0.7452 -1.476,0.1065 -3.03,0.3194 -4.506,0.5323 -1.165,0.1065 -2.408,0 -3.418,0.9581 0,0 -0.078,0 0,0 z"
     fill="#000000"
     id="path50" />
  <ellipse
     cx="11.0512"
     cy="79.162697"
     rx="5.0801101"
     ry="4.2083802"
     fill="#52402c"
     id="ellipse52" />
  <path
     d="M 9.75303,81.2382 C 11.2622,81.6029 12.7714,80.144 13.526,78.3205 v -1.0942 c -1.0061,1.0941 -2.5153,2.1883 -3.77297,4.0119 -0.25153,0 0,0 0,0 z"
     fill="#eea75d"
     id="path54" />
  <path
     d="m 10.2569,81.9682 c -0.2516,0 -0.5031,0 -0.5031,0 H 9.50227 c -0.25153,0 -0.25154,-0.3647 -0.25154,-0.3647 0,-0.3647 10e-6,-0.3647 0.25154,-0.7294 0.75463,-0.7294 1.25763,-1.4588 2.01223,-1.8235 0.7546,-0.7295 1.5092,-1.4589 2.0123,-2.1883 0.2515,0 0.2515,0 0.5031,0 0.2515,0 0.2515,0.3647 0.2515,0.7294 v 1.0942 0.3647 c -1.2577,1.4588 -2.5153,2.9176 -4.0245,2.9176 z m 2.5153,-3.2823 c -0.2515,0.3647 -0.7546,0.7294 -1.2577,1.0941 -0.2515,0.3647 -0.503,0.3647 -0.7546,0.7294 0.7546,-0.3647 1.5092,-1.0941 2.0123,-1.8235 z"
     fill="#bf692d"
     id="path56" />
  <path
     d="m 7.74164,34.556 v 16.0472 c 0.50306,-0.7294 1.00612,-1.4588 1.50919,-2.1882 1.76077,-1.8236 3.01837,-2.9177 4.27607,-4.0118 0,0 0,-4.0118 0,-8.0236 0,-4.0118 0,-8.0236 0,-8.0236 -1.0061,1.0941 -2.5153,2.1882 -4.27607,4.0118 -0.7546,0.7294 -1.25766,1.4588 -1.50919,2.1882 z"
     fill="#eea75d"
     id="path58" />
  <path
     d="m 7.74165,51.3329 c -0.25153,0 -0.25153,0 0,0 -0.25153,0 -0.50306,-0.3647 -0.50306,-0.7294 V 34.5562 34.1915 c 0.50306,-0.7294 1.00613,-1.4588 1.76073,-2.1882 0.75459,-0.7294 1.50918,-1.4589 2.26378,-2.1883 0.7546,-0.7294 1.5092,-1.4588 2.0123,-1.8235 0.2515,0 0.2515,0 0.503,0 0.2516,0 0.2516,0.3647 0.2516,0.7294 0,0 0,4.0118 0,8.0236 v 8.0236 c 0,0.3647 0,0.3647 -0.2516,0.3647 -0.503,0.7294 -1.2576,1.4589 -2.0122,2.1883 -0.7546,0.7294 -1.2577,1.0941 -2.01229,2.1882 C 9.25085,50.2388 8.74778,50.6035 8.24472,51.6976 7.99319,51.3329 7.74165,51.3329 7.74165,51.3329 Z m 0.25153,-16.412 v 14.2237 c 0.25153,-0.3647 0.50307,-0.7294 0.75461,-1.0941 0.75459,-0.7294 1.50921,-1.4588 2.26381,-2.1883 0.7546,-0.7294 1.2576,-1.0941 1.7607,-1.8235 v -7.6589 c 0,-2.553 0,-5.106 0,-6.9295 -0.5031,0.3647 -1.0061,0.7294 -1.5092,1.4588 -0.7546,0.7295 -1.2577,1.0942 -2.26378,2.1883 0,0.3647 -0.50307,1.0941 -1.00614,1.8235 z"
     fill="#bf692d"
     id="path60" />
  <path
     d="M 7.99323,2.09673 7.7417,18.5087 c 0.50306,-0.72947 1.00612,-1.45888 1.50919,-2.1883 1.76071,-1.82355 3.01841,-2.91767 4.27601,-4.01179 0,0 0,-4.011818 0,-8.38833 0,-4.0118 0.2516,-8.38828 0.2516,-8.38828 -1.0062,1.0941 -2.5153,2.1882 -4.27607,4.01178 -0.50307,1.09413 -1.00614,1.82353 -1.5092,2.55295 z"
     fill="#eea75d"
     id="path62" />
  <path
     d="m 7.74165,19.2381 c -0.25153,0 -0.50306,-0.3647 -0.50306,-0.7294 L 7.49012,2.09674 V 1.73203 C 7.99319,1.00261 8.49625,0.2732 9.25084,-0.45622 10.0054,-1.18564 10.76,-1.91505 11.5146,-2.6445 c 0.7546,-0.7294 1.5092,-1.4588 2.0123,-1.8235 0.2515,0 0.2515,0 0.5031,0 0.2515,0 0.2515,0.3647 0.2515,0.7294 L 14.03,4.64972 v 8.3883 c 0,0.36471 0,0.36471 -0.2516,0.36471 -0.503,0.72942 -1.2576,1.45886 -2.0122,2.18828 -0.7546,0.72942 -1.2577,1.09412 -2.26382,2.18825 -0.50306,0.72944 -1.00613,1.09414 -1.5092,1.82354 0,-0.3647 1e-5,-0.3647 -0.25153,-0.3647 z M 8.49625,2.46144 8.24472,17.04982 c 0.25153,-0.36471 0.50306,-0.7294 1.00612,-1.09411 0.75456,-0.72942 1.50916,-1.45883 2.26376,-2.18825 0.7546,-0.72942 1.2577,-1.09413 1.7608,-1.82355 L 13.5269,-3.0092 c -0.5031,0.3647 -1.0061,0.7294 -1.5092,1.09414 -0.7546,0.72942 -1.5092,1.09413 -2.26379,1.82355 C 9.25085,1.00261 8.74778,1.73202 8.49625,2.46144 Z"
     fill="#bf692d"
     id="path64" />
  <path
     d="M 7.74164,50.9684 V 67.0156 C 8.2447,66.2862 8.74776,65.5567 9.25083,64.8273 11.0116,63.0038 12.2692,61.9096 13.5269,60.8155 V 44.7683 c -1.0061,1.0941 -2.5153,2.553 -4.27607,4.0118 -0.7546,0.7294 -1.25766,1.4588 -1.50919,2.1883 z"
     fill="#eea75d"
     id="path66" />
  <path
     d="m 7.49013,67.745 c -0.25154,0 -0.50307,-0.3647 -0.50307,-0.7294 V 50.9684 50.6037 c 0.50307,-0.7295 1.00613,-1.4589 1.76073,-2.1883 0.7546,-0.7294 1.50921,-1.4589 2.26381,-2.1883 0.7546,-0.7294 1.5092,-1.4588 2.0122,-1.8235 0.2516,0 0.2516,0 0.5031,0 0.2515,0 0.2515,0.3647 0.2515,0.7294 v 16.0473 c 0,0.3647 0,0.3647 -0.2515,0.3647 -0.5031,0.7294 -1.2577,1.4588 -2.0123,2.1882 C 10.76,64.4626 10.257,65.192 9.50238,65.9215 8.99932,66.6509 8.49625,67.0156 7.99318,68.1097 7.74165,67.745 7.74166,67.745 7.49013,67.745 Z M 7.99318,50.9684 v 14.2237 c 0.25154,-0.3648 0.50308,-0.7295 0.75461,-1.0942 0.7546,-0.7294 1.50921,-1.4588 2.26381,-2.1882 0.7546,-0.7295 1.2576,-1.0942 1.7607,-1.8236 V 45.4977 c -0.5031,0.3647 -1.0061,0.7294 -1.2577,1.4589 -0.7546,0.7294 -1.2576,1.0941 -2.01222,2.1882 -0.50306,0.7294 -1.00613,1.0941 -1.5092,1.8236 z"
     fill="#bf692d"
     id="path68" />
  <path
     d="m 7.74164,18.5092 c 0,0 0,4.0118 0,8.0236 0,2.1883 0,4.0118 0,5.4707 0,1.4588 0,2.5529 0,2.5529 0.50306,-0.7294 1.00612,-1.4588 1.50919,-2.1882 1.76077,-1.8236 3.01837,-2.9177 4.27607,-4.0118 l 0.2515,-16.04732 c -1.0061,1.09413 -2.5153,2.18826 -4.27604,4.01181 -0.75459,0.72942 -1.25766,1.45884 -1.76072,2.18831 z"
     fill="#eea75d"
     id="path70" />
  <path
     d="m 7.74165,35.286 c -0.25153,0 -0.25153,0 0,0 -0.25153,0 -0.50306,-0.3647 -0.50306,-0.7294 V 26.533 18.5093 18.1446 c 0.50306,-0.72938 1.00613,-1.4588 1.76073,-2.18822 0.75459,-0.72942 1.50918,-1.45883 2.26378,-2.18825 0.7546,-0.72942 1.5092,-1.45884 2.0123,-1.82355 0.2515,0 0.2515,0 0.503,0 0.2516,0 0.2516,0.3647 0.2516,0.72941 L 13.7784,28.7212 c 0,0.3647 0,0.3647 -0.2515,0.3647 -0.5031,0.7295 -1.2577,1.4589 -2.0123,2.1883 -0.7546,0.7294 -1.2576,1.0941 -2.26376,2.1882 -0.50306,0.3648 -1.00612,1.0942 -1.50919,1.8236 0.25154,0 0,0 0,0 z M 8.24472,18.874 7.99318,33.0977 c 0.25153,-0.3647 0.50307,-0.7294 0.75461,-1.0941 0.75459,-0.7294 1.50921,-1.4588 2.26381,-2.1883 0.7546,-0.7294 1.2576,-1.0941 1.7607,-1.8235 l 0.2515,-14.5884 c -0.503,0.36471 -1.0061,0.72942 -1.5092,1.45884 C 10.76,15.59166 10.257,15.95637 9.25084,17.0505 8.99931,17.41521 8.74778,18.1446 8.24472,18.874 Z"
     fill="#bf692d"
     id="path72" />
  <path
     d="m 7.74164,75.4035 c 0,1.0941 0,2.1883 0,2.9177 0.25153,1.4588 1.00613,2.553 1.76073,2.9177 1.50923,-1.4589 3.01843,-2.9177 4.02453,-4.0118 0,0 0,-4.0118 0,-8.3883 0,-4.0118 0,-8.3884 0,-8.3884 -1.0061,1.0942 -2.5153,2.553 -4.27607,4.0118 -0.7546,0.7295 -1.25766,1.4589 -1.50919,2.1883 0,0 0,1.0941 0,2.553 0,1.8235 0,4.0118 0,6.2 z"
     fill="#eea75d"
     id="path74" />
  <path
     d="M 9.50238,81.6037 C 8.49625,81.239 7.74165,80.1449 7.23859,78.3214 c 0,0 0,0 0,-0.3648 V 66.6507 66.2859 c 0.50306,-0.7294 1.00613,-1.4588 1.76073,-2.1882 0.75459,-0.7294 1.50918,-1.4588 2.26378,-2.1883 0.7546,-0.7294 1.5092,-1.4588 2.0123,-2.1882 0.2515,0 0.2515,0 0.503,0 0.2516,0 0.2516,0.3647 0.2516,0.7294 v 8.3883 8.3883 c 0,0.3647 0,0.3647 -0.2516,0.3647 -0.503,0.7295 -1.2576,1.4589 -2.0122,2.1883 -0.5031,0.7294 -1.2577,1.0941 -1.7608,1.8235 -0.25148,0 -0.50302,0 -0.50302,0 z M 8.24472,77.9566 c 0.25153,0.7295 0.7546,1.8236 1.25766,2.1883 0.50302,-0.7294 1.25762,-1.0941 1.76072,-1.8235 0.7546,-0.7295 1.2577,-1.0942 1.7607,-1.8236 v -8.0236 -6.9295 c -0.503,0.3647 -1.0061,0.7295 -1.5092,1.4589 -0.7546,0.7294 -1.2576,1.4588 -2.01222,2.1882 -0.50306,0.3647 -1.00613,1.0942 -1.5092,1.8236 z"
     fill="#bf692d"
     id="path76" />
  <path
     d="m 10.5086,81.2394 c 1.2577,-0.3648 2.2638,-1.4589 2.7669,-2.9177 0,-2.9177 0,-5.4707 0,-8.3884 0,-3.6471 0,-7.2942 0,-10.9412 0,-7.2942 0,-14.5884 0,-21.1532 0,-6.9295 0,-13.4943 0.2515,-20.05903 0,-6.20007 0,-12.40014 0.2515,-17.87078 0.2516,-10.94129 0.2516,-20.42379 0.5031,-26.62379 0,-4.0118 0.2515,-6.9295 0.2515,-8.7531 -0.7546,-1.4588 -1.7607,-2.1882 -2.7668,-2.1882 -0.2516,4.0118 -0.5031,17.506 -0.7546,36.47095 -0.2516,5.83535 -0.2516,11.67071 -0.2516,18.23548 0,6.56477 -0.2515,13.49427 -0.2515,20.42377 0,6.9295 0,14.2237 0,21.8826 0,3.6471 0,7.2942 0,11.306 0,3.6471 0,6.9295 0,10.5766 z"
     fill="#eea75d"
     id="path78" />
  <path
     d="m 7.74164,78.3211 c 0.25153,1.0941 0.75459,2.1882 1.50919,2.9176 -0.25153,-14.5883 0,-29.1767 0,-43.0357 0,-6.9295 0,-13.859 0.25154,-20.42375 0,-6.56478 -1e-5,-12.76484 0.25152,-18.23548 0.25151,-18.23547 0.75461,-31.72977 0.75461,-36.10627 -0.5031,0.3647 -1.00614,1.0941 -1.5092,2.1883 0,1.8235 0,4.3765 -0.25153,8.0236 -0.25153,6.5648 -0.25153,15.6825 -0.50307,26.98848 0,5.47064 -0.25153,11.67071 -0.25153,17.87082 0,6.2 -0.25153,13.1295 -0.25153,20.059 0,6.9295 0,14.2237 0,21.5179 0,3.6471 0,7.2942 0,10.9413 0,2.1882 0,4.7412 0,7.2942 z"
     fill="#eea75d"
     id="path80" />
  <ellipse
     cx="216.28799"
     cy="74.119499"
     rx="5.0801101"
     ry="4.2083802"
     fill="#52402c"
     id="ellipse82" />
  <path
     d="m 214.989,76.1949 c 1.51,0.3647 3.019,-1.0941 3.773,-2.9177 v -1.0941 c -1.006,1.0941 -2.515,2.1883 -3.773,4.0118 -0.251,0 0,0 0,0 z"
     fill="#eea75d"
     id="path84" />
  <path
     d="m 215.493,76.9253 c -0.251,0 -0.503,0 -0.503,0 h -0.251 c -0.252,0 -0.252,-0.3647 -0.252,-0.3647 0,-0.3647 0,-0.3648 0.252,-0.7295 0.754,-0.7294 1.258,-1.4588 2.012,-1.8235 0.755,-0.7294 1.509,-1.4588 2.012,-2.1883 0.252,0 0.252,0 0.503,0 0.252,0 0.252,0.3648 0.252,0.7295 v 1.0941 0.3647 c -1.258,1.4588 -2.515,2.9177 -4.025,2.9177 z m 2.516,-3.2824 c -0.252,0.3647 -0.755,0.7294 -1.258,1.0941 -0.251,0.3647 -0.503,0.3647 -0.754,0.7294 0.754,-0.3647 1.509,-1.0941 2.012,-1.8235 z"
     fill="#bf692d"
     id="path86" />
  <path
     d="m 212.978,29.513 v 16.0473 c 0.503,-0.7294 1.006,-1.4589 1.509,-2.1883 1.761,-1.8235 3.019,-2.9177 4.276,-4.0118 0,0 0,-4.0118 0,-8.0236 0,-4.0118 0,-8.0236 0,-8.0236 -1.006,1.0941 -2.515,2.1882 -4.276,4.0118 -0.754,0.7294 -1.257,1.4588 -1.509,2.1882 z"
     fill="#eea75d"
     id="path88" />
  <path
     d="m 212.978,46.2899 c -0.251,0 -0.251,0 0,0 -0.251,0 -0.503,-0.3647 -0.503,-0.7294 V 29.5133 29.1486 c 0.503,-0.7295 1.006,-1.4589 1.761,-2.1883 0.754,-0.7294 1.509,-1.4588 2.264,-2.1883 0.754,-0.7294 1.509,-1.4588 2.012,-1.8235 0.251,0 0.251,0 0.503,0 0.251,0 0.251,0.3647 0.251,0.7294 0,0 0,4.0118 0,8.0236 v 8.0237 c 0,0.3647 0,0.3647 -0.251,0.3647 -0.503,0.7294 -1.258,1.4588 -2.012,2.1882 -0.755,0.7294 -1.258,1.0941 -2.013,2.1883 -0.503,0.7294 -1.006,1.0941 -1.509,2.1882 -0.251,-0.3647 -0.503,-0.3647 -0.503,-0.3647 z M 213.23,29.878 v 14.2237 c 0.251,-0.3647 0.503,-0.7295 0.754,-1.0942 0.755,-0.7294 1.509,-1.4588 2.264,-2.1882 0.755,-0.7295 1.258,-1.0942 1.761,-1.8236 v -7.6589 c 0,-2.5529 0,-5.1059 0,-6.9295 -0.503,0.3647 -1.006,0.7295 -1.509,1.4589 -0.755,0.7294 -1.258,1.0941 -2.264,2.1882 0,0.3647 -0.503,1.0942 -1.006,1.8236 z"
     fill="#bf692d"
     id="path90" />
  <path
     d="m 213.23,-2.9462 -0.252,16.41188 c 0.503,-0.72941 1.006,-1.45883 1.509,-2.18825 1.761,-1.82354 3.019,-2.917666 4.276,-4.011794 0,0 0,-4.011816 0,-8.388326 0,-4.01181 0.252,-8.38831 0.252,-8.38831 -1.006,1.0941 -2.515,2.1883 -4.276,4.0118 -0.503,1.0941 -1.006,1.8235 -1.509,2.553 z"
     fill="#eea75d"
     id="path92" />
  <path
     d="m 212.978,14.19513 c -0.251,0 -0.503,-0.36472 -0.503,-0.72943 l 0.252,-16.4119 v -0.3647 c 0.503,-0.7295 1.006,-1.4589 1.76,-2.1883 0.755,-0.7294 1.509,-1.4588 2.264,-2.1882 0.755,-0.7295 1.509,-1.4589 2.012,-1.8236 0.252,0 0.252,0 0.503,0 0.252,0 0.252,0.3647 0.252,0.7294 l -0.252,8.38835 v 8.3883042 c 0,0.3647098 0,0.3647038 -0.251,0.3647038 -0.503,0.729422 -1.258,1.458862 -2.012,2.188282 -0.755,0.72942 -1.258,1.09412 -2.264,2.18825 -0.503,0.72942 -1.006,1.09413 -1.509,1.82355 0,-0.36471 0,-0.36471 -0.252,-0.36471 z m 0.755,-16.77663 -0.252,14.58836 c 0.252,-0.36471 0.503,-0.72941 1.006,-1.09412 0.755,-0.72942 1.509,-1.45883 2.264,-2.188249 0.755,-0.7294196 1.258,-1.094129 1.761,-1.823551 l 0.251,-14.95314 c -0.503,0.3647 -1.006,0.7295 -1.509,1.0942 -0.754,0.7294 -1.509,1.0941 -2.264,1.8235 -0.503,1.0941 -1.006,1.8236 -1.257,2.553 z"
     fill="#bf692d"
     id="path94" />
  <path
     d="m 212.978,45.9251 v 16.0473 c 0.503,-0.7295 1.006,-1.4589 1.509,-2.1883 1.761,-1.8235 3.019,-2.9177 4.276,-4.0118 V 39.7251 c -1.006,1.0941 -2.515,2.553 -4.276,4.0118 -0.754,0.7294 -1.257,1.4588 -1.509,2.1882 z"
     fill="#eea75d"
     id="path96" />
  <path
     d="m 212.727,62.7018 c -0.252,0 -0.503,-0.3647 -0.503,-0.7294 V 45.9251 45.5604 c 0.503,-0.7294 1.006,-1.4588 1.76,-2.1882 0.755,-0.7294 1.509,-1.4589 2.264,-2.1883 0.755,-0.7294 1.509,-1.4588 2.012,-1.8235 0.252,0 0.252,0 0.503,0 0.252,0 0.252,0.3647 0.252,0.7294 V 56.137 c 0,0.3647 0,0.3647 -0.252,0.3647 -0.503,0.7295 -1.257,1.4589 -2.012,2.1883 -0.755,0.7294 -1.258,1.4588 -2.012,2.1883 -0.503,0.7294 -1.006,1.0941 -1.509,2.1882 -0.252,-0.3647 -0.252,-0.3647 -0.503,-0.3647 z m 0.503,-16.7767 v 14.2237 c 0.251,-0.3647 0.503,-0.7294 0.754,-1.0941 0.755,-0.7294 1.509,-1.4588 2.264,-2.1883 0.755,-0.7294 1.258,-1.0941 1.761,-1.8235 V 40.4545 c -0.503,0.3647 -1.006,0.7294 -1.258,1.4588 -0.755,0.7295 -1.258,1.0942 -2.012,2.1883 -0.503,0.7294 -1.006,1.0941 -1.509,1.8235 z"
     fill="#bf692d"
     id="path98" />
  <path
     d="m 212.978,13.46618 c 0,0 0,4.01183 0,8.02362 0,2.1883 0,4.0118 0,5.4707 0,1.4588 0,2.553 0,2.553 0.503,-0.7295 1.006,-1.4589 1.509,-2.1883 1.761,-1.8236 3.019,-2.9177 4.276,-4.0118 l 0.252,-16.047287 c -1.006,1.094132 -2.515,2.188257 -4.276,4.011807 -0.755,0.72942 -1.258,1.45884 -1.761,2.18826 z"
     fill="#eea75d"
     id="path100" />
  <path
     d="m 212.978,30.2428 c -0.251,0 -0.251,0 0,0 -0.251,0 -0.503,-0.3647 -0.503,-0.7294 v -8.0236 -8.02367 -0.36471 c 0.503,-0.72942 1.006,-1.45883 1.761,-2.18825 0.754,-0.72942 1.509,-1.45883 2.264,-2.188253 0.754,-0.72942 1.509,-1.45884 2.012,-1.823547 0.251,0 0.251,0 0.503,0 0.251,0 0.251,0.364696 0.251,0.729406 L 219.015,23.678 c 0,0.3647 0,0.3647 -0.252,0.3647 -0.503,0.7294 -1.257,1.4589 -2.012,2.1883 -0.755,0.7294 -1.258,1.0941 -2.264,2.1882 -0.503,0.3647 -1.006,1.0942 -1.509,1.8236 0.252,0 0,0 0,0 z m 0.503,-16.41197 -0.251,14.22367 c 0.251,-0.3647 0.503,-0.7294 0.754,-1.0941 0.755,-0.7294 1.509,-1.4588 2.264,-2.1883 0.755,-0.7294 1.258,-1.0941 1.761,-1.8235 L 218.26,8.360185 c -0.503,0.36471 -1.006,0.729425 -1.509,1.458845 -0.755,0.72942 -1.258,1.09412 -2.264,2.18825 -0.251,0.36471 -0.503,1.09413 -1.006,1.82355 z"
     fill="#bf692d"
     id="path102" />
  <path
     d="m 212.978,70.3603 c 0,1.0941 0,2.1883 0,2.9177 0.252,1.4588 1.006,2.553 1.761,2.9177 1.509,-1.4589 3.018,-2.9177 4.024,-4.0119 0,0 0,-4.0117 0,-8.3882 0,-4.0119 0,-8.3884 0,-8.3884 -1.006,1.0942 -2.515,2.553 -4.276,4.0118 -0.754,0.7294 -1.257,1.4589 -1.509,2.1883 0,0 0,1.0941 0,2.553 0,1.8235 0,4.0117 0,6.2 z"
     fill="#eea75d"
     id="path104" />
  <path
     d="m 214.739,76.5608 c -1.006,-0.3647 -1.761,-1.4589 -2.264,-3.2824 0,0 0,0 0,-0.3647 V 61.6077 61.243 c 0.503,-0.7294 1.006,-1.4589 1.761,-2.1883 0.754,-0.7294 1.509,-1.4588 2.264,-2.1882 0.754,-0.7294 1.509,-1.4589 2.012,-2.1883 0.251,0 0.251,0 0.503,0 0.251,0 0.251,0.3647 0.251,0.7294 v 8.3884 8.3882 c 0,0.3648 0,0.3648 -0.251,0.3648 -0.503,0.7294 -1.258,1.4588 -2.012,2.1882 -0.503,0.7294 -1.258,1.0942 -1.761,1.8236 -0.252,0 -0.503,0 -0.503,0 z m -1.258,-3.6471 c 0.252,0.7294 0.755,1.8235 1.258,2.1882 0.503,-0.7294 1.257,-1.0941 1.761,-1.8235 0.754,-0.7294 1.257,-1.0941 1.76,-1.8236 v -8.0236 -6.9294 c -0.503,0.3647 -1.006,0.7294 -1.509,1.4588 -0.755,0.7294 -1.258,1.4588 -2.012,2.1883 -0.503,0.3647 -1.006,1.0941 -1.509,1.8235 z"
     fill="#bf692d"
     id="path106" />
  <path
     d="m 215.745,76.1961 c 1.258,-0.3647 2.264,-1.4588 2.767,-2.9176 0,-2.9177 0,-5.4707 0,-8.3884 0,-3.6471 0,-7.2942 0,-10.9413 0,-7.2942 0,-14.5883 0,-21.1531 0,-6.9295 0,-13.4943 0.251,-20.05904 0,-6.20007 0,-12.40014 0.252,-17.87076 0.252,-10.9413 0.252,-20.4238 0.503,-26.6238 0,-4.0118 0.252,-6.9295 0.252,-8.7531 -0.755,-1.4588 -1.761,-2.1882 -2.767,-2.1882 -0.252,4.0118 -0.503,17.506 -0.755,36.4709 -0.251,5.83539 -0.251,11.67075 -0.251,18.23552 0,6.56478 -0.252,13.49428 -0.252,20.42378 0,6.9295 0,14.2237 0,21.8826 0,3.6471 0,7.2942 0,11.306 0,3.6471 0,6.9294 0,10.5765 z"
     fill="#eea75d"
     id="path108" />
  <path
     d="m 212.978,73.2778 c 0.252,1.0942 0.755,2.1883 1.509,2.9177 -0.251,-14.5884 0,-29.1768 0,-43.0357 0,-6.9295 0,-13.859 0.252,-20.42377 0,-6.56477 0,-12.76483 0.251,-18.23543 0.252,-18.2355 0.755,-31.7298 0.755,-36.1063 -0.503,0.3647 -1.006,1.0941 -1.509,2.1882 0,1.8236 0,4.3766 -0.252,8.0237 -0.251,6.5647 -0.251,15.6825 -0.503,26.9885 0,5.47061 -0.251,11.670681 -0.251,17.87074 0,6.20006 -0.252,13.12956 -0.252,20.05906 0,6.9295 0,14.2237 0,21.5179 0,3.6471 0,7.2941 0,10.9412 0,2.1883 0,4.7413 0,7.2942 z"
     fill="#eea75d"
     id="path110" />
</svg>
