<svg width="230" height="117" viewBox="0 0 230 117" fill="none" xmlns="http://www.w3.org/2000/svg">
<path d="M0.430801 104.484C0.275421 104.804 0.197708 105.123 0.120026 105.549V114.598C8.74388 113.959 17.3678 114.279 25.9916 114.492C30.8862 114.598 35.7809 114.598 40.6755 114.385C45.5701 114.172 50.3871 113.959 55.2817 113.853C67.4017 113.746 79.444 115.876 91.4864 114.918C94.5164 114.705 97.5464 114.598 100.499 114.598C110.521 113.534 120.543 113.427 130.566 113.959C142.763 114.492 155.039 115.556 167.237 115.237C173.374 115.13 179.512 114.811 185.572 114.918C191.865 114.918 197.925 115.45 203.985 115.45C209.579 115.45 215.173 115.024 220.767 115.556C223.33 115.769 225.972 116.089 228.536 116.195C228.691 110.978 228.691 105.868 227.837 100.652C227.526 98.5226 227.06 96.3934 227.137 94.2642C227.215 92.135 227.759 90.3251 228.614 88.6218C226.904 88.0895 225.195 88.3024 223.486 87.983C223.33 87.983 223.175 87.6636 223.33 87.5572C224.107 86.7055 225.04 86.0667 225.972 85.4279C226.594 85.1086 227.215 84.7892 227.759 84.3633C228.303 84.044 228.07 83.2987 227.992 82.66C227.759 79.2532 227.681 75.9529 227.526 72.5462C227.448 70.9493 227.37 69.2459 227.293 67.649C227.293 66.7973 227.293 65.9457 227.526 65.2004C227.992 63.6035 228.691 61.9002 229.08 60.1968C221.621 57.4288 213.541 58.9193 205.927 58.8128C201.266 58.7063 196.682 58.5999 192.02 58.7063C187.359 58.8128 182.62 59.0257 177.958 59.3451C170.111 59.7709 162.342 60.1968 154.495 59.558C147.114 59.0257 139.733 57.9611 132.353 57.6417C124.816 57.3223 117.358 57.8546 109.822 58.3869C102.208 59.0257 94.5941 59.3451 86.9025 59.558C57.9232 60.5162 28.6332 60.0903 0.0423431 67.0103V74.6754C1.05235 75.5271 3.30542 77.4434 3.30542 77.5499C2.83926 78.6145 2.29541 79.4661 1.67387 80.3178C1.2854 80.7437 0.508499 82.3406 0.663879 82.66C1.05234 84.3633 1.36311 86.1732 1.59619 87.983C1.90697 90.4316 2.45081 94.4771 1.20773 96.8192C2.14005 97.458 4.08234 98.9484 4.00464 99.0549C2.76157 100.758 1.28543 102.355 0.430801 104.484Z" fill="#AD7634"/>
<path d="M127.38 57.2161C129.167 57.2161 130.876 57.2161 132.508 57.3225C136.936 57.5355 141.365 57.9613 145.716 58.3871C148.668 58.7065 151.698 59.0259 154.65 59.2388C157.292 59.4518 160.089 59.5582 163.196 59.5582C168.246 59.5582 173.452 59.2388 178.113 59.0259H178.657C183.086 58.813 187.67 58.6001 192.176 58.4936C193.108 58.4936 194.04 58.4936 194.973 58.4936C197.226 58.4936 199.556 58.4936 201.81 58.6001C203.208 58.6001 204.684 58.7065 206.083 58.7065C208.18 58.7065 210.278 58.6001 212.376 58.6001C214.163 58.4936 216.105 58.4936 217.97 58.4936C222.631 58.4936 226.205 59.0259 229.39 60.197L229.546 60.3034L229.468 60.5164C229.235 61.6874 228.847 62.752 228.536 63.8166C228.303 64.4554 228.147 64.9877 227.992 65.6265C227.759 66.2652 227.759 67.0105 227.759 67.9686C227.759 68.9267 227.837 69.7784 227.914 70.7366C227.914 71.4818 227.992 72.1206 227.992 72.8658C227.992 73.5046 228.07 74.1433 228.07 74.7821C228.147 77.4436 228.225 80.318 228.458 82.9795C228.458 83.086 228.458 83.2989 228.536 83.4054C228.613 83.9377 228.691 84.5765 228.147 85.0023C227.759 85.2152 227.37 85.4281 226.982 85.6411C226.749 85.7475 226.593 85.854 226.36 85.9604C225.273 86.5992 224.496 87.238 223.719 87.9832C224.418 88.0897 225.117 88.0897 225.817 88.1961C226.827 88.1961 227.837 88.3026 228.847 88.622L229.08 88.7284L228.924 89.0478C227.992 90.8576 227.603 92.6675 227.526 94.5838C227.448 96.2871 227.759 97.9905 228.07 99.6939C228.147 100.12 228.225 100.439 228.303 100.865C229.157 106.401 229.157 111.83 229.002 116.408V116.621H228.847C226.749 116.515 224.573 116.302 222.553 116.195C222.087 116.195 221.543 116.089 221.077 116.089C219.057 115.876 216.96 115.769 214.396 115.769C212.609 115.769 210.822 115.769 209.035 115.876C207.481 115.876 205.85 115.982 204.296 115.982H203.83C200.489 115.982 197.148 115.769 193.885 115.663C191.321 115.556 188.68 115.45 186.038 115.344C185.028 115.344 184.018 115.344 183.008 115.344C179.279 115.344 175.472 115.45 171.82 115.556C170.422 115.556 169.023 115.663 167.625 115.663C166.149 115.663 164.595 115.769 162.963 115.769C155.505 115.769 147.891 115.344 140.51 114.918C137.325 114.705 134.139 114.598 130.876 114.385C126.836 114.173 123.107 114.066 119.533 114.066C112.852 114.066 106.714 114.385 100.809 115.024C97.5463 115.024 94.594 115.131 91.7971 115.344C89.6217 115.556 87.3686 115.663 84.8824 115.663C80.1432 115.663 75.3262 115.344 70.6647 115.024C65.6924 114.705 60.5647 114.279 55.5924 114.385C52.1739 114.385 48.6777 114.598 45.2593 114.705C43.8608 114.811 42.3846 114.811 40.9862 114.918C38.5777 115.024 36.0139 115.024 33.2946 115.024C31.1969 115.024 28.8662 115.024 26.3023 114.918C25.0592 114.918 23.8162 114.811 22.5731 114.811C18.9992 114.705 15.27 114.598 11.6184 114.598C7.42305 114.598 3.7715 114.705 0.430725 114.918H0.27533V105.549C0.430725 105.123 0.508408 104.804 0.586105 104.485C1.36302 102.462 2.60611 100.971 3.8492 99.4809L4.08226 99.268C3.6938 98.9486 2.68379 98.097 2.06226 97.6711C1.82918 97.4582 1.67381 97.3517 1.51842 97.2453L1.36302 97.1388L1.51842 96.9259C2.68381 94.9031 2.21765 91.177 1.90688 88.7284L1.82919 88.3026C1.59612 86.4927 1.28532 84.6829 0.896866 82.9795C0.741486 82.4472 1.7515 80.7439 1.98457 80.318C2.52843 79.5728 3.07228 78.7211 3.53844 77.763C3.14996 77.3371 1.7515 76.1661 0.430725 75.1015L0.353027 74.995V67.0105H0.508408C24.6708 61.2616 49.61 60.5164 73.7724 59.9841C78.2786 59.8776 82.8624 59.7711 87.4463 59.5582C96.3032 59.2388 103.606 58.9194 110.288 58.3871C115.493 57.6419 121.398 57.2161 127.38 57.2161ZM163.196 60.0905C160.089 60.0905 157.292 59.9841 154.573 59.7711C151.62 59.5582 148.513 59.2388 145.638 58.9194C141.287 58.4936 136.859 58.0678 132.43 57.8548C130.799 57.7484 129.089 57.7484 127.38 57.7484C121.476 57.7484 115.493 58.1742 109.899 58.6001C103.14 59.1324 95.8371 59.5582 86.9801 59.7711C82.3963 59.8776 77.8124 60.0905 73.3062 60.197C49.2216 60.8358 24.36 61.4745 0.27533 67.2234V74.5692C3.46072 77.2307 3.46074 77.3371 3.53844 77.5501V77.6565L3.46074 77.763C2.99458 78.8276 2.45073 79.7857 1.82919 80.6374C1.44072 81.1697 0.819199 82.5537 0.819199 82.7666C1.20766 84.47 1.51842 86.2798 1.7515 88.1961L1.82919 88.622C2.13995 91.0706 2.60611 94.6902 1.51842 96.9259C1.67381 97.0323 1.7515 97.1388 1.90688 97.2453C4.08228 98.9486 4.23766 99.0551 4.23766 99.268V99.3745L4.15996 99.4809L3.8492 99.9068C2.60611 101.397 1.36304 102.888 0.663803 104.804C0.586105 105.123 0.430725 105.336 0.353027 105.762V114.492C3.61612 114.279 7.26765 114.173 11.3853 114.173C15.0369 114.173 18.7661 114.279 22.34 114.385C23.5831 114.385 24.8262 114.492 26.0692 114.492C28.6331 114.598 30.9639 114.598 33.0616 114.598C35.8585 114.598 38.3447 114.598 40.7531 114.492C42.1516 114.385 43.6277 114.385 45.0262 114.279C48.367 114.173 51.8631 113.96 55.3593 113.96C60.4093 113.96 65.537 114.279 70.5093 114.598C75.1709 114.918 79.9878 115.237 84.727 115.237C87.2132 115.237 89.4663 115.131 91.6417 114.918C94.5163 114.705 97.4686 114.598 100.732 114.598C106.636 113.96 112.774 113.64 119.456 113.64C123.107 113.64 126.759 113.747 130.799 113.96C133.984 114.066 137.247 114.279 140.433 114.492C147.813 114.918 155.349 115.344 162.886 115.344C164.439 115.344 165.993 115.344 167.547 115.237C168.946 115.237 170.344 115.131 171.743 115.131C175.394 115.024 179.201 114.918 182.93 114.918C183.94 114.918 184.95 114.918 185.96 114.918C188.602 114.918 191.243 115.131 193.807 115.237C197.07 115.344 200.411 115.556 203.752 115.556H204.218C205.772 115.556 207.403 115.556 208.957 115.45C210.744 115.45 212.531 115.344 214.318 115.344C216.882 115.344 219.057 115.45 221 115.663C221.466 115.663 222.01 115.769 222.476 115.769C224.496 115.982 226.516 116.195 228.613 116.195C228.769 111.724 228.769 106.401 227.914 100.971C227.837 100.546 227.759 100.226 227.681 99.8003C227.37 98.097 227.06 96.2871 227.137 94.5838C227.215 92.6675 227.603 90.9641 228.458 89.1543C227.603 88.9413 226.671 88.8349 225.739 88.8349C225.04 88.8349 224.34 88.7284 223.641 88.622C223.486 88.622 223.33 88.409 223.33 88.1961C223.33 87.9832 223.33 87.8767 223.486 87.7703C224.263 86.9186 225.117 86.2798 226.205 85.6411C226.438 85.5346 226.593 85.4281 226.827 85.3217C227.215 85.1088 227.603 84.8958 227.992 84.6829C228.303 84.47 228.303 84.2571 228.147 83.6183C228.147 83.5118 228.07 83.2989 228.07 83.1925C227.837 80.4245 227.759 77.6565 227.681 74.8885C227.681 74.2498 227.603 73.611 227.603 72.9723C227.603 72.227 227.526 71.5883 227.526 70.843C227.448 69.8849 227.448 69.0332 227.37 68.0751C227.37 67.0105 227.448 66.2652 227.681 65.52C227.837 64.9877 228.07 64.3489 228.225 63.7102C228.536 62.752 228.847 61.6874 229.08 60.7293C225.972 59.6647 222.553 59.1324 217.97 59.1324C216.105 59.1324 214.24 59.2388 212.453 59.2388C210.356 59.3453 208.258 59.4518 206.16 59.3453C204.762 59.3453 203.286 59.3453 201.887 59.2388C199.634 59.2388 197.381 59.1324 195.128 59.1324C194.196 59.1324 193.263 59.1324 192.331 59.1324C187.825 59.2388 183.241 59.4518 178.813 59.6647H178.269C173.452 59.7711 168.246 60.0905 163.196 60.0905Z" fill="#B37052"/>
<path opacity="0.5" d="M44.5601 64.3489C47.4347 64.3489 50.3093 64.6683 53.1839 64.8812C56.0585 65.2006 58.9332 64.9877 61.8078 64.8812C64.7601 64.7747 67.6347 65.307 70.587 65.4135C73.6171 65.52 76.5694 65.52 79.5994 65.6264C85.5817 65.8393 91.4863 66.9039 97.4686 67.7556C103.529 68.6073 109.511 69.3525 115.649 69.5655C127.613 69.8848 139.5 69.459 151.387 68.3944C157.447 67.8621 163.507 67.3298 169.567 66.9039C172.52 66.691 175.394 66.4781 178.346 66.4781C181.221 66.4781 184.173 66.4781 187.048 66.2652C193.263 65.8393 199.401 64.5618 205.617 64.9877C207.093 65.0941 208.569 65.2006 210.123 65.2006C211.677 65.2006 213.153 65.2006 214.629 65.4135C216.183 65.6264 217.737 65.8393 219.213 66.0523C220.533 66.2652 222.243 66.4781 223.486 67.3298L223.563 67.2233C222.631 66.4781 221.466 66.2652 220.456 65.9458C218.98 65.52 217.426 65.307 215.872 65.0941C214.473 64.8812 213.075 64.6683 211.677 64.6683C210.2 64.6683 208.647 64.7747 207.17 64.5618C201.421 63.7101 195.517 64.9877 189.69 65.4135C183.785 65.9458 177.803 65.6264 171.898 66.0523C166.071 66.4781 160.166 66.9039 154.34 67.4362C142.219 68.6073 130.099 69.1396 117.979 68.9267C111.919 68.8202 105.859 68.1815 99.7994 67.3298C96.7694 66.904 93.8171 66.5846 90.7871 66.1587C87.8348 65.7329 84.8048 65.307 81.8524 65.2006C78.7448 65.0941 75.5594 65.0941 72.4516 65.0941C69.2663 65.0941 66.0032 64.6683 62.8178 64.5618C59.8655 64.4554 56.9132 64.8812 53.9609 64.5618C50.8532 64.5618 47.7455 64.2424 44.5601 64.3489C44.6378 64.2424 44.5601 64.3489 44.5601 64.3489Z" fill="black"/>
<path opacity="0.5" d="M94.594 63.4971C95.5263 64.0294 96.5363 64.1358 97.5463 64.3487C98.7894 64.5617 99.9548 64.7746 101.198 64.881C103.762 65.3069 106.403 65.6263 108.967 65.7327C111.531 65.8392 114.017 66.478 116.581 66.478C119.3 66.5844 121.942 67.0103 124.661 67.0103C129.866 67.0103 135.072 66.3715 140.277 66.265C142.608 66.265 144.783 65.7327 147.114 65.4133C148.202 65.3069 149.29 64.9875 150.377 64.9875C150.921 64.9875 151.465 64.881 151.776 64.3487C151.776 64.3487 151.853 64.1358 151.853 64.0294C151.387 63.4971 150.766 63.4971 150.144 63.4971C149.367 63.4971 148.513 63.2841 147.736 63.2841C145.793 63.1777 143.929 62.326 142.064 62.2195C138.024 62.0066 133.984 61.2614 129.944 61.2614C128.157 61.2614 126.37 60.942 124.583 61.0485C122.796 61.0485 120.932 61.1549 119.145 61.3678C117.28 61.5808 115.416 61.5808 113.551 61.7937C111.609 62.0066 109.744 62.4325 107.802 62.5389C107.724 62.5389 107.413 62.9647 107.569 62.9647C109.589 63.8164 111.764 63.8164 113.784 63.6035C114.794 63.4971 115.726 63.497 116.736 63.71C117.824 63.9229 118.834 64.1358 119.922 64.1358C122.019 64.1358 124.039 64.5617 126.059 64.3487C126.526 64.3487 126.914 64.1358 127.38 64.1358C127.846 64.1358 128.313 64.3487 128.856 64.3487C129.944 64.3487 131.032 64.2423 132.12 64.2423C132.197 64.2423 132.197 64.1358 132.197 64.1358C131.265 64.1358 130.333 64.1358 129.323 64.0294C128.468 64.0294 127.613 63.6035 126.681 63.8164C124.506 64.3487 122.253 63.71 119.999 63.71C119.067 63.71 118.135 63.4971 117.203 63.3906C116.115 63.1777 115.027 63.1777 113.862 63.1777C112.153 63.2841 110.366 63.2841 108.734 62.8583C109.899 62.7518 111.065 62.5389 112.308 62.326C114.173 62.1131 116.115 62.0066 117.979 61.7937C119.844 61.5808 121.709 61.4743 123.651 61.3678C125.593 61.2614 127.458 61.4743 129.4 61.5808C133.363 61.6872 137.247 62.2195 141.21 62.5389C142.996 62.6454 144.783 63.0712 146.648 63.4971C147.503 63.71 148.357 63.71 149.212 63.8164C149.989 63.9229 150.921 63.71 151.543 64.3487C150.999 64.7746 149.911 64.4552 149.367 64.5617C148.357 64.5617 147.27 64.881 146.337 65.094C144.006 65.6263 141.676 65.7327 139.345 65.7327C136.859 65.7327 134.45 66.1586 131.964 66.265C129.4 66.3715 126.836 66.478 124.195 66.5844C119.3 66.6909 114.406 65.6263 109.511 65.4133C107.025 65.3069 104.539 64.9875 102.13 64.6681C100.887 64.4552 99.5664 64.3487 98.3233 64.0294C97.2356 63.8164 96.1479 63.71 95.0602 63.0712C95.5263 62.6454 96.2256 62.8583 96.7694 62.6454C97.7794 62.4324 98.7894 62.2195 99.8771 62.1131C102.13 61.9001 104.306 61.5808 106.481 61.2614C108.734 60.942 111.065 60.7291 113.318 60.5162C115.649 60.3032 118.057 60.1968 120.388 60.0903C122.563 59.9839 124.583 60.0903 126.759 60.1968C129.012 60.3032 131.265 60.0903 133.518 60.1968C135.771 60.3032 138.024 60.5162 140.2 60.7291C141.287 60.8355 142.375 60.942 143.463 61.0485C144.317 61.1549 145.327 61.0485 146.026 61.4743L146.104 61.3678C145.483 60.942 144.706 61.0485 144.084 60.8355C142.996 60.6226 141.831 60.5162 140.743 60.4097C138.413 60.1968 136.082 59.9839 133.751 59.7709C131.42 59.558 129.012 59.8774 126.681 59.6645C125.593 59.558 124.428 59.4516 123.34 59.3451C122.097 59.3451 120.854 59.4516 119.611 59.558C114.949 59.7709 110.288 60.3032 105.626 60.8355C103.296 61.1549 101.043 61.3678 98.7117 61.6872C97.8571 61.7937 97.0025 62.0066 96.1479 62.1131C95.604 62.2195 95.1379 62.4324 94.7494 62.9647C94.594 63.2841 94.5163 63.4971 94.594 63.4971Z" fill="black"/>
<path opacity="0.5" d="M161.643 62.8584C167.314 62.9648 172.908 62.539 178.58 62.539C181.377 62.539 184.174 62.4325 187.048 62.539C188.447 62.539 189.845 62.6454 191.321 62.7519C192.72 62.8584 194.118 63.2842 195.439 63.2842C196.061 63.2842 196.682 63.2842 197.304 63.2842C197.847 63.2842 198.469 63.4971 199.013 63.4971C200.334 63.6036 201.654 63.4971 202.975 63.4971C204.296 63.4971 205.617 63.4971 206.937 63.3907C208.258 63.2842 209.579 63.0713 210.9 63.0713C212.221 63.0713 213.541 62.8584 214.862 62.8584C216.105 62.8584 217.348 63.0713 218.669 62.8584C219.99 62.7519 221.311 62.6454 222.631 62.539C223.253 62.4325 223.952 62.326 224.574 62.1131C225.273 62.0067 226.05 61.5808 226.749 62.0067L226.827 61.9002C226.05 61.3679 224.884 61.9002 224.03 62.0067C222.709 62.2196 221.466 62.2196 220.145 62.3261C218.669 62.4325 217.271 62.4325 215.794 62.4325C214.474 62.326 213.153 62.6454 211.832 62.6454C209.191 62.6454 206.549 62.9648 203.907 62.9648C202.587 62.9648 201.266 62.9648 199.945 62.9648C198.624 62.9648 197.381 62.7519 196.138 62.7519C194.817 62.7519 193.419 62.3261 192.021 62.2196C190.622 62.1131 189.224 62.0067 187.747 62.0067C184.95 61.9002 182.154 62.0067 179.279 62.0067C173.297 62.1131 167.47 62.6454 161.643 62.8584C161.643 62.7519 161.565 62.8584 161.643 62.8584Z" fill="black"/>
<path opacity="0.5" d="M5.48096 66.9038C8.43327 66.478 11.4633 66.1586 14.4156 66.0521C17.0571 65.9457 19.6987 66.1586 22.4179 65.8392C25.2925 65.5198 28.1671 64.9875 31.0418 64.6681C34.0718 64.3488 37.1018 64.2423 40.1318 63.9229C43.0841 63.4971 46.0364 62.8583 48.9887 62.5389C50.5426 62.326 52.0964 62.4325 53.6503 62.326C55.2041 62.2196 56.6803 62.1131 58.2341 62.1131C64.2164 62.4325 70.1211 62.326 76.1034 62.326C78.2788 62.326 80.3765 62.8583 82.5518 62.7519C83.6395 62.7519 84.8049 62.7519 85.8926 62.7519C86.9803 62.7519 87.9903 62.326 89.078 62.7519C89.078 62.7519 89.1557 62.6454 89.078 62.6454C87.9126 62.1131 86.4365 62.6454 85.1934 62.6454C83.6395 62.6454 82.1634 62.6454 80.6095 62.5389C79.2888 62.4325 77.8903 62.2196 76.5695 62.0066C75.0934 61.7937 73.5395 62.0066 72.1411 62.0066C69.1111 62.0066 66.0034 62.0066 62.9734 62.0066C60.021 62.0066 57.1464 61.6872 54.2718 61.9002C51.3972 62.1131 48.5226 62.2195 45.6479 62.6454C42.5402 63.1777 39.5102 63.6035 36.4025 63.9229C33.5279 64.1358 30.6533 64.3488 27.7787 64.8811C24.9041 65.4134 21.9518 65.7327 18.9994 65.8392C16.8241 65.9457 14.7263 65.8392 12.551 66.0521C10.0648 66.1586 7.81173 66.478 5.48096 66.9038C5.48096 66.7973 5.40327 66.9038 5.48096 66.9038Z" fill="black"/>
<path opacity="0.5" d="M4.16006 77.0176C6.95699 75.953 10.0647 76.1659 12.9393 75.953C15.8916 75.7401 18.9216 74.8884 21.8739 74.8884C27.8562 74.8884 33.8386 74.3561 39.8209 74.0367C42.6178 73.9302 45.4924 73.9302 48.2894 73.7173C51.2417 73.5044 54.2717 73.2915 57.224 73.185C60.1763 73.0785 63.1286 72.8656 66.0809 72.8656C69.0333 72.8656 72.0633 72.8656 75.0156 72.9721C78.5894 72.9721 82.0856 73.2915 85.5818 73.5044C87.3687 73.6109 89.1556 73.6108 90.9425 73.8238C92.7295 74.0367 94.5164 74.3561 96.3033 74.4625C103.296 74.8884 110.366 73.7173 117.28 74.6754L117.358 74.569C111.531 73.7173 105.626 74.2496 99.7995 74.1431C96.9249 74.1431 94.0502 73.7173 91.1756 73.2915C88.2233 72.8656 85.271 72.8656 82.3187 72.5462C70.5871 71.6946 58.7779 72.3333 47.0463 73.185C43.5501 73.3979 39.9763 73.5044 36.4801 73.5044C32.7509 73.5044 29.0217 74.1432 25.2924 74.2496C23.5832 74.2496 21.8739 74.1431 20.2424 74.3561C18.4555 74.569 16.6686 74.8884 14.8039 75.2077C13.017 75.4207 11.2301 75.6336 9.44314 75.74C7.7339 76.0594 5.86929 76.1659 4.16006 77.0176C4.16006 76.9111 4.16006 77.0176 4.16006 77.0176Z" fill="black"/>
<path opacity="0.5" d="M2.52864 74.2498C4.78172 74.2498 7.03481 73.8239 9.2879 73.611C11.7741 73.3981 14.2602 73.3981 16.6687 73.3981C21.3302 73.2916 26.0695 73.2916 30.731 72.7593C33.2949 72.4399 35.781 72.227 38.4226 72.1205C40.9864 72.1205 43.4726 71.8012 45.9587 71.5882C48.5226 71.3753 51.0087 70.843 53.5726 70.5236C54.8934 70.3107 56.1364 70.3107 57.4572 69.9913C58.3118 69.7784 59.0888 69.9913 59.8657 69.3526C59.9434 69.2461 60.0988 69.1397 60.0211 68.9267C59.788 68.6074 59.6326 68.5009 59.3218 68.3944C58.9334 68.288 58.5449 68.1815 58.0788 68.075C56.9911 67.7557 55.8257 67.7557 54.6603 67.7557C52.1741 67.6492 49.6103 67.6492 47.1241 67.6492C42.1518 67.7557 37.1018 68.075 32.1295 68.3944C27.0795 68.6074 22.1071 68.9267 17.0571 69.1397C14.571 69.2461 12.1625 69.2461 9.67636 69.459C7.50097 69.5655 5.24789 68.7138 3.1502 69.5655C3.0725 69.5655 2.99481 69.7784 3.0725 69.7784C5.24789 68.9267 7.65635 69.8849 9.90943 69.7784C12.2402 69.672 14.571 69.5655 16.9794 69.5655C21.8741 69.459 26.7687 69.0332 31.6633 68.8203C36.5579 68.6073 41.4526 68.288 46.3472 68.1815C48.7557 68.0751 51.1641 68.0751 53.5726 68.1815C54.738 68.1815 55.9034 68.3944 57.1464 68.3944C57.6126 68.3944 58.1565 68.6073 58.6226 68.8203C59.0111 68.9267 59.4772 68.9267 59.788 69.2461C59.0111 69.672 58.1564 69.5655 57.3795 69.7784C56.1364 70.0978 54.8157 70.0978 53.4949 70.3107C50.931 70.6301 48.4449 71.1624 45.881 71.3753C43.2395 71.5882 40.6756 71.9076 38.0341 71.9076C35.7033 71.9076 33.3726 72.227 30.9641 72.5464C26.2248 73.1851 21.4079 73.0787 16.591 73.1852C14.3379 73.2916 12.0848 73.2916 9.83173 73.5045C7.34557 73.5045 4.93711 74.0368 2.52864 74.2498C2.52864 74.1433 2.45095 74.2498 2.52864 74.2498Z" fill="black"/>
<path opacity="0.5" d="M8.19995 95.2224C9.7538 94.7966 11.3076 94.3707 12.9392 94.3707C14.5707 94.2643 16.1246 93.9449 17.7561 93.8384C20.9415 93.8384 24.0492 93.1996 27.1569 92.5609C30.5754 91.8157 33.9938 90.7511 37.49 90.1123C40.9861 89.4735 44.4823 88.8348 47.9785 88.3025C55.0485 87.2379 62.1185 87.3443 69.2662 87.2379C76.2585 87.1314 83.2508 86.812 90.2432 86.4926C97.3909 86.1733 104.539 85.7474 111.686 85.3216C118.679 84.8957 125.749 84.5763 132.741 83.9376C146.959 82.7665 161.099 81.1696 175.239 79.4662C183.629 78.5081 192.02 77.4435 200.411 76.4853C204.606 75.953 208.88 75.5272 213.075 74.6755C215.173 74.2497 217.348 73.8238 219.446 73.6109C220.533 73.5044 221.543 73.5044 222.631 73.6109C223.175 73.6109 223.719 73.7174 224.263 73.8238C224.418 73.8238 225.428 73.9303 224.729 73.9303L224.651 74.0368C224.806 74.0368 224.884 74.0368 225.04 74.0368L225.117 73.9303C222.01 72.8657 218.746 73.398 215.639 73.9303C212.143 74.5691 208.724 75.2078 205.306 75.6337C198.313 76.3789 191.243 77.2306 184.251 78.0823C170.189 79.6792 156.049 81.3825 141.986 82.7665C127.613 84.1505 113.162 84.8957 98.7893 85.7474C91.7193 86.1733 84.6493 86.3862 77.5793 86.7056C70.587 86.9185 63.6723 86.812 56.68 87.1314C48.3669 87.5572 40.0538 89.1542 31.8961 91.2834C27.9338 92.2415 23.8938 93.1996 19.8538 93.6255C17.9892 93.8384 16.1246 93.6255 14.2599 94.0513C12.2399 94.4772 10.2976 94.5836 8.35532 95.3289C8.19994 95.1159 8.12225 95.3289 8.19995 95.2224Z" fill="black"/>
<path opacity="0.5" d="M5.24789 102.781C8.27789 101.504 11.4633 100.865 14.6487 100.226C17.9895 99.5873 21.4079 99.2679 24.8264 98.9485C28.4003 98.5227 31.8964 98.0968 35.4702 97.8839C39.0441 97.671 42.5403 97.3516 46.1141 97.1387C53.1064 96.6064 60.0988 95.8612 67.0911 95.0095C74.2388 94.2643 81.3865 94.5836 88.5342 94.2643C95.6042 93.9449 102.674 93.3061 109.744 93.4126C116.814 93.4126 123.884 94.4772 130.954 95.0095C137.947 95.5418 145.017 95.7547 152.009 96.6064C158.846 97.4581 165.683 98.4162 172.442 99.1614C176.56 99.5873 180.6 100.333 184.717 100.865C188.991 101.397 193.341 101.504 197.614 101.717C201.81 101.929 206.005 102.142 210.123 102.781C212.143 103.1 214.241 103.1 216.261 103.42C217.193 103.633 218.125 103.846 219.058 103.739C220.145 103.633 221.233 103.313 222.321 103.313L222.398 103.207C220.922 103.207 219.446 103.952 217.97 103.633C216.183 103.313 214.474 102.994 212.687 102.781C209.191 102.462 205.772 101.929 202.276 101.717C195.361 101.184 188.524 101.078 181.61 100.12C167.858 98.2033 154.107 95.9676 140.355 95.1159C136.859 94.903 133.363 94.6901 129.789 94.4772C126.293 94.2643 122.797 93.732 119.223 93.4126C112.153 92.7738 105.005 92.9867 97.8573 93.3061C94.3611 93.519 90.865 93.8384 87.3688 93.9449C83.8727 94.0513 80.2988 94.0513 76.8026 94.1578C69.8103 94.2643 62.8957 95.3289 55.9811 95.9676C47.2018 96.8193 38.3449 97.3516 29.5656 98.0968C27.5456 98.3098 25.5256 98.7356 23.5056 98.9485C21.3302 99.1615 19.1548 99.3744 16.9794 99.8002C14.9594 100.12 13.0171 100.652 11.0748 101.078C9.21021 101.291 7.26788 101.823 5.24789 102.781C5.24789 102.675 5.24789 102.781 5.24789 102.781Z" fill="black"/>
<path opacity="0.5" d="M131.887 91.496C133.13 91.7089 134.373 92.0283 135.616 92.1348C138.568 92.5606 141.52 92.7735 144.473 93.0929C147.425 93.4123 150.377 94.0511 153.33 94.3705C159.157 94.9028 164.906 95.7544 170.733 96.4997C176.637 97.3513 182.464 97.6707 188.369 97.6707C194.429 97.6707 200.411 98.8418 206.471 99.6935C209.501 100.119 212.531 100.439 215.561 100.545C218.514 100.652 221.466 100.332 224.418 100.332C225.351 100.332 226.283 100.332 227.215 100.226C227.293 100.226 227.293 100.119 227.293 100.119C224.496 100.013 221.777 100.226 218.98 100.226C215.95 100.332 212.92 100.013 209.89 99.6935C206.86 99.3741 203.83 98.8418 200.8 98.5224C197.77 98.203 194.817 97.4578 191.787 97.3514C188.835 97.2449 185.883 97.3514 182.853 97.2449C179.9 97.1384 176.948 96.819 174.074 96.4997C168.247 95.8609 162.497 94.6898 156.67 94.1575C153.718 93.9446 150.843 93.5188 147.969 93.0929C145.017 92.6671 141.987 92.4542 139.034 92.1348C137.636 91.9219 136.237 91.7089 134.839 91.496C134.217 91.3896 133.596 91.2831 132.974 91.0702C132.43 90.8573 131.887 90.9637 131.42 90.6443C130.566 90.0056 132.197 89.1539 132.508 89.0474C133.207 88.728 133.984 88.4087 134.683 88.1957C138.335 87.0247 142.064 86.173 145.793 86.0665C148.823 85.9601 151.776 86.0665 154.806 86.0665C157.758 86.0665 160.633 85.8536 163.585 85.5342C169.179 84.8955 174.773 84.5761 180.367 84.0438C185.883 83.5115 191.244 82.8727 196.682 81.8081C199.401 81.2758 202.12 80.9564 204.917 80.4241C207.559 79.9983 210.201 79.466 212.842 79.466C215.328 79.466 217.892 78.7208 220.378 78.4014C222.942 78.082 225.506 77.4432 228.07 77.2303C228.07 77.2303 228.147 77.1238 228.07 77.1238C225.661 77.3368 223.175 77.8691 220.767 78.082C219.446 78.1885 218.047 78.2949 216.727 78.5078C215.095 78.8272 213.541 78.9337 211.91 78.9337C210.822 78.9337 209.579 79.2531 208.491 79.3595C206.937 79.5724 205.461 79.7854 203.907 80.1047C200.955 80.637 197.925 81.0629 194.973 81.5952C189.068 82.6598 183.086 83.2986 177.104 83.8309C174.074 84.1502 171.044 84.2567 168.014 84.5761C164.828 84.8955 161.72 85.3213 158.535 85.5342C152.708 85.9601 146.881 85.2148 141.132 86.173C138.257 86.7053 135.227 87.3441 132.508 88.6216C132.042 88.8345 130.877 89.3668 130.877 90.2185C130.877 91.1766 131.498 91.3896 131.887 91.496Z" fill="black"/>
<path opacity="0.5" d="M184.562 90.3253C186.737 91.8157 189.223 92.1351 191.632 92.561C194.584 93.0933 197.536 93.3062 200.566 93.8385C204.606 94.4772 208.647 95.116 212.687 95.5419C214.707 95.7548 216.727 95.7548 218.669 95.7548C220.378 95.7548 222.476 95.6483 224.107 96.5C223.253 95.9677 222.165 95.7548 221.155 95.6483C219.679 95.4354 218.125 95.5419 216.649 95.5419C213.697 95.4354 210.667 95.0096 207.714 94.5837C201.81 93.732 195.827 92.9868 189.923 91.9222C188.602 91.7093 187.359 91.4964 186.116 90.8576C185.65 90.6447 185.106 90.3253 184.64 90.1124C184.406 90.0059 184.251 89.793 184.096 89.6865C183.474 89.0478 184.329 88.409 184.717 88.3025C187.048 87.4509 189.456 87.3444 191.865 86.8121C194.74 86.1733 197.536 85.8539 200.411 86.0669C203.13 86.2798 205.772 86.3862 208.491 85.641C211.366 84.8958 214.24 84.47 217.115 84.1506C218.513 84.0441 219.912 83.8312 221.31 83.6183C222.787 83.4053 224.263 84.0441 225.739 83.5118C225.739 83.5118 225.817 83.4054 225.739 83.4054C224.418 83.8312 223.097 83.2989 221.699 83.4054C220.145 83.5118 218.669 83.8312 217.115 83.9377C214.24 84.257 211.366 84.5764 208.491 85.3216C205.617 86.0669 202.742 85.8539 199.79 85.641C197.148 85.4281 194.506 85.8539 191.865 86.3862C189.456 86.9185 187.126 87.1315 184.717 87.8767C184.251 87.9832 183.863 88.3025 183.552 88.8348C183.396 89.4736 184.096 90.0059 184.562 90.3253Z" fill="black"/>
<path opacity="0.5" d="M210.434 91.2836C210.667 91.7094 210.977 91.9223 211.366 92.0288C211.987 92.2417 212.687 92.4546 213.308 92.5611C214.707 92.8805 216.105 92.774 217.504 92.6676C219.058 92.5611 220.534 92.6676 222.088 92.774C222.709 92.774 223.331 92.8805 223.952 92.9869C224.418 93.0934 224.807 93.4128 225.273 93.1999C225.273 93.1999 225.351 93.0934 225.273 93.0934C224.807 93.1999 224.418 92.8805 224.03 92.774C223.486 92.6676 223.02 92.5611 222.476 92.5611C221.388 92.4546 220.378 92.2417 219.291 92.2417C216.96 92.3482 214.707 92.6676 212.376 91.9223C211.91 91.8159 211.288 91.7094 210.9 91.39C210.045 90.7513 211.288 89.8996 211.599 89.7931C212.609 89.2608 213.697 88.9414 214.862 88.7285C215.95 88.5156 217.038 88.4091 218.048 87.9833C219.135 87.5574 220.301 87.2381 221.388 86.9187L221.466 86.8122C220.145 87.1316 218.824 87.5574 217.581 87.9833C216.261 88.4091 214.784 88.4091 213.464 88.835C212.92 88.835 209.657 89.7931 210.434 91.2836Z" fill="black"/>
<path opacity="0.5" d="M166.46 92.561C167.703 93.4127 168.79 93.945 170.189 94.2643C171.82 94.5837 173.53 94.5837 175.161 94.7966C178.036 95.116 180.91 95.7548 183.707 96.3936C181.61 95.8613 179.434 95.4354 177.259 95.0096C176.016 94.7967 174.773 94.4773 173.452 94.3708C171.976 94.2643 170.577 94.0514 169.179 93.732C168.091 93.4127 167.159 92.6674 166.149 92.0287C165.061 91.3899 166.382 89.8995 167.003 89.3672C167.547 88.9413 168.246 88.8349 168.868 88.6219C171.276 87.9832 173.607 87.1315 175.938 86.0669C175.938 86.0669 176.016 85.854 176.016 85.9604C174.54 86.4927 173.141 87.025 171.665 87.5573C170.344 87.9832 168.946 88.1961 167.703 88.7284C167.003 89.0478 166.149 89.5801 165.683 90.5382C165.139 91.7093 165.683 92.1351 166.46 92.561Z" fill="black"/>
<path opacity="0.5" d="M87.291 109.594C90.321 109.062 93.351 109.168 96.381 109.168C99.2556 109.168 102.208 109.701 105.083 109.594C108.035 109.488 110.91 109.168 113.862 109.062C116.814 108.956 119.689 108.636 122.641 108.317C134.994 107.039 147.347 106.826 159.7 106.72C170.81 106.72 181.998 106.933 193.108 106.933C195.827 106.933 198.547 106.72 201.266 106.72C203.985 106.613 206.627 106.72 209.346 106.72C211.987 106.613 214.784 106.72 217.348 107.359C218.747 107.678 220.145 107.891 221.544 107.997C222.709 108.104 223.874 107.997 225.04 108.53C225.04 108.53 225.117 108.53 225.04 108.423C223.952 107.784 222.787 107.891 221.621 107.678C220.145 107.465 218.591 107.252 217.115 106.826C214.318 106.081 211.288 106.188 208.414 106.188C205.539 106.294 202.587 106.081 199.712 106.188C196.76 106.294 193.73 106.401 190.777 106.401C184.795 106.401 178.813 106.081 172.83 106.081C166.693 106.081 160.555 106.081 154.417 106.081C143.152 106.188 131.886 106.613 120.621 107.784C117.746 108.104 114.872 108.21 111.92 108.317C109.123 108.423 106.326 108.849 103.606 108.849C100.887 108.849 98.2457 108.53 95.5264 108.53C92.8072 108.53 90.088 108.636 87.3687 109.168C87.291 109.488 87.291 109.594 87.291 109.594Z" fill="black"/>
<path opacity="0.5" d="M141.521 111.83C142.22 111.511 142.919 111.617 143.618 111.511C144.24 111.511 144.862 111.298 145.561 111.298C147.037 111.298 148.513 111.404 149.989 111.511C152.786 111.724 155.661 111.617 158.458 111.404C161.41 111.192 164.44 110.766 167.392 110.34C170.422 110.02 173.452 109.914 176.482 109.914C179.357 109.914 182.232 110.02 185.184 110.127C188.059 110.233 190.933 110.659 193.886 110.659C196.76 110.659 199.557 110.979 202.354 110.872C203.442 110.872 204.529 110.446 205.617 110.34C206.239 110.233 206.782 110.127 207.404 109.914C208.103 109.701 208.88 109.808 209.579 109.701C211.056 109.488 212.532 109.382 214.008 109.382C214.785 109.382 215.562 109.595 216.261 109.595C217.038 109.595 217.815 109.595 218.592 109.701C219.369 109.808 220.146 110.127 220.922 110.34C221.699 110.553 222.554 110.553 223.331 110.659C224.108 110.766 224.807 110.979 225.584 111.192C226.361 111.404 227.216 111.192 227.992 111.192L228.07 111.085C227.449 111.085 226.749 111.085 226.128 110.979C225.506 110.872 224.885 110.446 224.186 110.34C222.709 110.127 221.233 110.02 219.757 109.595C218.436 109.169 217.116 109.275 215.795 109.169C215.096 109.169 214.474 108.956 213.852 109.062C213.076 109.062 212.376 109.275 211.599 109.275C210.434 109.382 209.269 109.382 208.103 109.595C207.559 109.701 206.938 109.808 206.394 110.02C205.695 110.127 205.073 110.127 204.374 110.34C201.577 111.085 198.625 110.34 195.75 110.34C194.429 110.34 193.109 110.34 191.788 110.34C190.234 110.34 188.758 109.914 187.204 109.808C184.329 109.701 181.377 109.595 178.502 109.595C175.705 109.595 172.909 109.488 170.112 109.808C167.159 110.127 164.129 110.553 161.177 110.872C157.759 111.298 154.34 111.404 150.922 111.298C149.29 111.298 147.659 111.192 146.027 111.192C145.405 111.192 144.706 111.298 144.085 111.404C143.152 111.617 142.375 111.511 141.521 111.83Z" fill="black"/>
<path opacity="0.5" d="M33.2946 110.872C35.5477 110.233 37.7231 110.979 39.9761 111.404C42.1515 111.724 44.4046 111.724 46.58 111.83C48.7554 111.83 50.8531 111.83 53.0285 111.937C55.1262 111.937 57.1462 112.256 59.1662 112.15C63.2839 111.937 67.4016 111.511 71.597 111.298C72.607 111.298 73.617 111.298 74.627 111.404C75.7924 111.511 77.0354 111.404 78.2008 111.511C79.3662 111.511 80.4539 111.724 81.6193 111.724C82.6293 111.724 83.6393 111.511 84.6493 111.298C84.6493 111.298 84.727 111.192 84.6493 111.192C83.5616 111.298 82.4739 111.511 81.3862 111.511C80.2208 111.511 79.1331 111.192 77.9678 111.085C76.8801 110.979 75.8701 111.085 74.7824 110.979C73.6947 110.872 72.607 110.766 71.4416 110.872C67.1685 111.085 62.9731 111.511 58.7 111.724C56.7577 111.83 54.8154 111.511 52.8731 111.511C50.6977 111.511 48.5223 111.511 46.4246 111.511C44.2492 111.511 41.9961 111.511 39.8207 111.192C37.5677 110.766 35.47 110.127 33.2946 110.872C33.2946 110.766 33.2946 110.872 33.2946 110.872Z" fill="black"/>
<path opacity="0.5" d="M1.05232 111.617C2.29541 110.872 3.69388 110.979 5.01465 110.872C6.4908 110.766 7.96695 110.553 9.4431 110.446C12.4731 110.021 15.4254 109.169 18.4554 109.062C24.2047 108.849 29.8762 107.359 35.6255 107.465C38.5001 107.465 41.4524 107.678 44.327 107.891C47.3571 108.211 50.4647 107.998 53.4948 107.998C59.3217 107.998 65.2263 108.53 71.0533 107.891C74.0833 107.572 77.0356 107.146 80.0656 106.827C81.464 106.72 82.7848 106.507 84.1833 106.401C85.6594 106.294 87.1356 106.507 88.6117 106.401C91.4087 106.294 94.2833 106.081 97.0802 105.869C99.9549 105.656 102.907 105.443 105.782 105.017C108.734 104.591 111.686 104.378 114.639 104.165C117.746 103.846 120.854 103.526 123.962 103.313C126.914 103.101 129.866 102.888 132.819 102.888C133.906 102.888 135.072 102.781 136.16 102.568C136.703 102.462 137.48 102.249 137.791 101.61C138.335 100.333 136.548 99.6938 135.926 99.4809C133.44 98.6292 130.876 99.0551 128.39 98.7357C125.438 98.3099 122.408 98.4163 119.378 98.3099C116.426 98.2034 113.473 98.0969 110.443 98.0969C104.616 98.0969 98.8672 97.4582 93.0402 97.6711C87.2133 97.884 81.3863 98.6292 75.5594 99.268C72.4517 99.6938 69.344 100.013 66.2363 100.226C63.284 100.439 60.254 100.333 57.3017 100.439C51.4747 100.652 45.5701 101.291 39.7432 101.397C33.8385 101.504 28.0116 101.717 22.1847 102.781C19.2324 103.313 16.28 104.272 13.3277 104.378C10.4531 104.591 7.57851 105.336 4.62619 105.443C3.84926 105.443 3.15004 105.656 2.37311 105.656C2.29541 105.656 2.21771 105.869 2.29541 105.869C5.01465 105.762 7.73389 105.336 10.4531 105.123C11.9293 105.017 13.3278 104.697 14.8039 104.804C16.2024 104.804 17.6785 104.165 19.077 103.952C21.8739 103.42 24.6708 102.781 27.4678 102.462C30.5755 102.036 33.7609 102.036 36.9463 101.93C42.8509 101.823 48.6778 101.397 54.5824 100.971C57.5348 100.758 60.5648 100.758 63.5171 100.758C66.3917 100.758 69.2663 100.439 72.2186 100.013C78.2787 99.268 84.3387 98.5228 90.4764 98.0969C93.351 97.884 96.2256 97.7775 99.1002 97.884C102.053 98.0969 105.005 98.3099 107.879 98.3099C110.832 98.4163 113.784 98.3098 116.736 98.4163C119.766 98.5228 122.719 98.7357 125.749 98.7357C127.225 98.7357 128.623 99.0551 130.022 99.1615C131.498 99.268 132.974 99.0551 134.45 99.3745C135.15 99.4809 135.926 99.6938 136.626 100.013C136.936 100.226 137.325 100.439 137.558 100.758C138.335 101.61 136.781 102.142 136.315 102.249C133.518 102.888 130.566 102.568 127.691 102.675C124.816 102.888 121.942 102.994 119.145 103.207C116.037 103.526 113.007 103.846 109.899 104.059C107.103 104.272 104.306 104.804 101.509 105.017C98.4787 105.336 95.4487 105.336 92.4187 105.443C91.0202 105.549 89.6217 105.656 88.2233 105.656C86.7471 105.656 85.1933 105.549 83.7171 105.656C77.8902 106.081 72.1409 107.359 66.2363 107.359C63.5171 107.359 60.7978 107.146 58.0786 107.146C55.1263 107.04 52.174 107.146 49.2217 107.146C43.7055 107.146 38.267 106.188 32.7508 106.614C30.187 106.827 27.6231 107.146 25.0593 107.465C23.6608 107.678 22.3401 107.891 20.9416 107.998C19.5431 108.104 18.2224 108.104 16.8239 108.211C14.027 108.53 11.23 109.382 8.43311 109.808C7.11234 110.021 5.71387 110.021 4.3931 110.34C3.3054 110.979 2.14001 110.872 1.05232 111.617C1.05232 111.511 0.97464 111.617 1.05232 111.617Z" fill="black"/>
<path opacity="0.5" d="M2.52859 108.849C5.32552 108.849 8.04476 107.678 10.8417 107.146C12.2402 106.827 13.5609 106.614 14.9594 106.401C16.5909 106.081 18.2225 106.294 19.854 106.188C22.5733 105.975 25.2925 105.762 28.0117 105.762C31.0417 105.656 34.0717 105.762 37.024 105.656C43.0064 105.336 48.8333 103.739 54.8156 103.739C60.3318 103.739 65.8479 104.804 71.3641 104.378C74.7826 104.059 78.201 104.165 81.6195 103.846C85.038 103.526 88.4564 103.313 91.8749 102.888C92.6518 102.781 93.4288 102.675 94.2834 102.675C95.138 102.675 95.9926 102.675 96.8472 102.675C98.4788 102.675 100.033 102.781 101.586 102.888C102.363 102.888 103.218 102.781 103.995 102.888C104.772 102.994 105.471 102.888 106.248 102.675C107.18 102.568 108.113 102.568 109.045 102.462C110.055 102.355 111.065 102.142 112.153 102.036L112.23 101.929C109.433 101.929 106.636 102.781 103.84 102.568C102.596 102.462 101.276 102.568 100.033 102.355C98.7119 102.142 97.3911 102.355 96.148 102.142C95.0603 102.036 93.8172 102.249 92.6518 102.355C91.3311 102.568 89.9326 102.675 88.6118 102.781C87.2911 102.888 85.9703 102.888 84.6495 102.994C83.018 103.207 81.4641 103.42 79.8326 103.42C76.958 103.526 74.161 103.633 71.2864 103.846C68.4118 104.059 65.6149 103.739 62.7402 103.526C57.0687 102.994 51.4748 103.1 45.8033 103.952C42.0741 104.484 38.5002 105.017 34.771 105.123C31.1194 105.23 27.4679 105.23 23.894 105.443C22.3402 105.549 20.7863 105.762 19.1548 105.762C17.3678 105.762 15.5809 105.868 13.794 106.188C12.0071 106.507 10.2978 106.827 8.51092 107.252C6.41322 107.891 4.54859 108.743 2.52859 108.849C2.52859 108.743 2.4509 108.849 2.52859 108.849Z" fill="black"/>
<path opacity="0.5" d="M74.938 101.823C76.1811 101.823 77.4242 101.717 78.5896 101.717C79.7549 101.717 80.9203 101.717 82.0857 101.504C83.3288 101.291 84.6496 101.397 85.8926 101.184C87.2134 100.971 88.7673 101.184 90.088 101.291C91.4088 101.397 92.6519 101.504 93.9727 101.504C95.2934 101.504 96.5365 101.291 97.8573 101.291C99.0227 101.184 100.266 101.397 101.431 101.184C102.053 101.078 102.752 100.971 103.373 100.971C103.84 100.971 104.461 100.758 104.85 100.971C104.617 100.865 104.383 100.652 104.15 100.758C103.607 101.078 102.907 100.865 102.363 100.865C101.12 100.865 99.8773 101.078 98.6342 101.078C97.3911 101.078 96.0704 101.184 94.8273 101.291C93.4288 101.397 92.0304 101.291 90.6319 101.078C85.4265 100.652 80.2211 101.61 75.0157 101.823C74.938 101.61 74.8603 101.823 74.938 101.823Z" fill="black"/>
<path opacity="0.5" d="M2.83929 89.1543C3.92699 89.1543 5.09238 89.0478 6.18008 88.8349C7.57854 88.5155 8.97701 88.8349 10.4532 88.7285C13.3278 88.5155 16.2024 88.5155 19.1547 88.5155C24.904 88.4091 30.5755 86.9186 36.2471 85.9605C42.1517 85.0023 48.0563 84.2571 53.9609 83.5119C56.991 83.086 60.021 82.6602 63.051 82.6602C65.7702 82.6602 68.4894 82.5537 71.2087 82.3408C75.2487 82.0214 79.3664 81.8085 83.4064 81.4891C87.6018 81.1698 91.7972 80.531 95.9926 80.531C95.9926 80.531 96.0703 80.4245 95.9926 80.4245C93.1179 80.4245 90.321 80.6374 87.4464 80.8504C84.4164 81.0633 81.3087 81.1698 78.2787 81.3827C75.4041 81.5956 72.5294 81.915 69.7325 82.0214C67.0133 82.1279 64.294 82.2344 61.5748 82.2344C58.7002 82.2344 55.8256 82.7667 53.0286 83.1925C50.0763 83.6183 47.2017 84.0442 44.2494 84.47C41.2971 84.7894 38.3448 85.2153 35.3925 85.6411C32.5178 86.0669 29.6432 86.8122 26.6909 87.238C22.4955 87.8768 18.3001 87.9832 14.1047 87.9832C12.1624 87.9832 10.2201 88.3026 8.20009 88.1962C6.41316 88.0897 4.70392 88.7284 2.99468 88.9414C2.8393 89.0478 2.7616 89.1543 2.83929 89.1543Z" fill="black"/>
<path opacity="0.5" d="M3.07253 87.1313C3.46099 86.812 4.08252 86.9184 4.54868 86.812C5.17022 86.7055 5.71406 86.7055 6.3356 86.599C7.81175 86.4926 9.36562 86.1732 10.8418 85.8538C13.7941 85.3215 16.7464 85.428 19.621 85.1086C25.6033 84.4698 31.6634 83.5117 37.6457 82.3406C40.598 81.8083 43.4726 81.276 46.4249 80.6372C47.7457 80.3179 49.1442 79.9985 50.4649 79.5726C51.0865 79.3597 51.7857 79.4662 52.4072 79.3597C52.9511 79.2533 53.5726 79.0403 54.1165 79.0403C54.6603 79.0403 55.2819 78.8274 55.748 78.4016C55.9811 78.1886 56.1365 77.6563 55.748 77.5499C54.8157 77.124 53.6503 77.4434 52.6403 77.4434C51.0865 77.4434 49.5326 77.8693 48.0565 77.9757C44.1718 78.1887 40.2872 78.1887 36.4026 78.1887C34.538 78.1887 32.751 77.9757 30.8864 77.9757C29.0218 77.9757 27.1572 78.1887 25.2926 78.1887C23.5056 78.1887 21.7964 78.4016 20.0095 78.2951C19.2326 78.1886 18.3779 78.1887 17.601 78.1887C16.7464 78.1887 16.2025 77.8693 15.3479 78.1887C14.571 78.4016 13.561 78.1887 12.7064 78.1887C11.8518 78.1887 11.0748 78.2951 10.2202 78.508C9.21022 78.721 8.20021 79.0403 7.11252 79.0403C6.64637 79.0403 6.02483 79.1468 5.55867 79.5726C5.55867 79.5726 5.48098 79.7856 5.55867 79.6791C6.02483 79.2533 7.03484 79.2533 7.65638 79.2533C8.27792 79.2533 8.74408 79.2533 9.36562 79.0403C10.9195 78.508 12.4733 78.6145 14.0272 78.6145C14.4933 78.6145 15.0372 78.6145 15.5033 78.508C16.2026 78.2951 16.7464 78.6145 17.4456 78.6145C18.8441 78.6145 20.1649 78.9339 21.5633 78.8274C22.8841 78.8274 24.2049 78.6145 25.5256 78.6145C27.0018 78.6145 28.4003 78.4016 29.7987 78.4016C32.6734 78.2951 35.548 78.6145 38.4226 78.6145C41.3749 78.6145 44.3272 78.6145 47.2795 78.4016C49.9211 78.2951 52.6403 77.4434 55.2819 77.8693C55.5926 77.8693 55.9034 78.2951 55.4372 78.508C55.2819 78.6145 55.0488 78.6145 54.8934 78.721C54.5826 78.8274 54.2719 78.8274 53.9611 78.9339C52.5626 79.3597 51.1642 79.3597 49.7657 79.7856C46.9688 80.5308 44.0165 81.0631 41.2195 81.7019C34.538 82.9794 27.7787 84.2569 21.0195 85.0021C17.7564 85.3215 14.4156 85.3215 11.0748 85.9603C9.4433 86.2797 7.81177 86.599 6.18023 86.812C5.481 86.9184 4.85946 87.0249 4.23792 87.1313C3.69407 86.812 3.3833 86.7055 3.07253 87.1313C3.07253 87.0249 2.99483 87.1313 3.07253 87.1313Z" fill="black"/>
<path opacity="0.5" d="M1.59628 84.2569C1.98475 83.6181 3.15012 83.5117 3.77166 83.2987C4.62628 83.0858 5.48089 83.0858 6.33551 82.8729C8.27782 82.4471 10.2978 82.0212 12.2401 81.5954C14.1048 81.276 16.0471 81.276 17.9117 81.0631C18.9217 80.9566 19.854 80.8501 20.864 80.8501C21.5632 80.8501 22.1848 80.7437 22.8063 80.9566C22.2625 81.1695 21.7186 81.276 21.2525 81.3825C20.3979 81.5954 19.6209 82.1277 18.844 82.3406C16.9794 82.9794 15.0371 83.5117 13.1725 83.9375C11.3078 84.3633 9.36553 84.5763 7.42322 84.7892C6.5686 84.8956 5.63628 85.0021 4.78166 85.1086C3.84935 85.215 2.91704 85.215 2.06242 85.5344C2.06242 85.5344 1.98473 85.6409 2.06242 85.6409C2.83934 85.3215 3.69397 85.4279 4.47089 85.3215C5.48089 85.215 6.41322 85.1086 7.42322 85.0021C9.28784 84.7892 11.2301 84.5763 13.0948 84.2569C14.9594 83.9375 16.9017 83.2987 18.7663 82.7664C19.6209 82.4471 20.4756 82.0212 21.4079 81.7018C22.0294 81.4889 22.6509 81.4889 23.2725 81.0631C23.3502 81.0631 23.5056 80.7437 23.4279 80.6372C22.7286 80.2114 21.9517 80.3178 21.1748 80.4243C20.3202 80.5308 19.3879 80.5308 18.5332 80.6372C16.2802 80.8502 14.0271 80.8502 11.774 81.276C10.6863 81.4889 9.67629 81.8083 8.66628 82.0212C7.57859 82.2341 6.4132 82.7664 5.24782 82.7664C4.54858 82.7664 3.69398 82.9794 3.07244 83.2987C2.4509 83.7246 1.90705 83.7246 1.59628 84.2569C1.59628 84.3633 1.59628 84.3633 1.59628 84.2569Z" fill="black"/>
<path opacity="0.5" d="M116.659 79.5728C117.824 79.2534 119.067 79.4663 120.233 79.2534C121.709 79.0404 123.107 79.1469 124.583 78.934C125.904 78.8275 127.303 78.6146 128.623 78.5081C130.1 78.4017 131.654 78.5081 133.13 78.5081C134.373 78.5081 135.616 78.2952 136.859 78.1888C138.335 78.0823 139.811 77.9758 141.287 77.55C144.24 76.9112 147.27 76.6983 150.222 76.4854C156.204 75.9531 162.264 75.6337 168.247 74.782C174.462 73.9303 180.677 73.398 186.893 72.8657C193.73 72.3334 200.567 71.2688 207.404 71.1624C210.822 71.0559 214.241 71.1624 217.581 70.843C219.135 70.7365 220.767 70.6301 222.321 70.2042C223.098 69.9913 223.797 69.8848 224.574 69.6719C225.428 69.459 226.361 68.8202 227.215 69.459L227.293 69.3525C226.438 68.7138 225.351 69.3525 224.418 69.5654C222.942 69.8848 221.466 70.0978 219.99 70.3107C216.882 70.6301 213.697 70.7365 210.589 70.7365C204.607 70.7365 198.624 71.2688 192.72 71.9076C186.66 72.5464 180.522 72.7593 174.462 73.5045C168.324 74.1433 162.187 74.9949 156.049 75.4208C152.708 75.6337 149.367 75.9531 145.949 76.3789C142.53 76.8048 139.112 77.6565 135.616 77.7629C134.062 77.8694 132.508 78.0823 130.877 78.0823C129.323 78.0823 127.769 78.2952 126.215 78.5081C124.506 78.7211 122.874 78.8275 121.165 78.934C119.533 79.0404 118.057 79.0405 116.659 79.5728C116.659 79.4663 116.581 79.5728 116.659 79.5728Z" fill="black"/>
<path opacity="0.5" d="M125.516 75.7402C126.215 75.1015 126.914 74.995 127.769 74.995C128.468 74.995 129.245 74.8886 129.944 74.7821C131.42 74.6756 132.974 74.5692 134.45 74.4627C137.713 74.1433 140.977 73.2916 144.162 73.0787C147.114 72.8658 150.144 72.8658 153.097 72.44C153.873 72.3335 154.65 72.227 155.427 72.0141C156.282 71.8012 157.214 71.3754 158.069 71.3754C159.467 71.2689 161.021 70.7366 162.42 71.056C162.497 71.056 162.653 70.7366 162.575 70.7366C161.332 70.3108 159.856 70.7366 158.535 70.8431C156.981 71.056 155.427 71.5883 153.873 71.8012C150.455 72.44 147.037 72.3335 143.618 72.6529C142.142 72.7593 140.588 73.1852 139.112 73.5046C137.247 73.824 135.305 74.1433 133.44 74.2498C131.964 74.3563 130.41 74.5692 128.934 74.7821C127.769 74.8886 126.526 74.7821 125.516 75.7402C125.516 75.7402 125.438 75.7402 125.516 75.7402Z" fill="black"/>
<ellipse cx="11.0512" cy="71.1627" rx="5.08011" ry="4.20838" fill="#52402C"/>
<path d="M9.75303 73.2382C11.2622 73.6029 12.7714 72.144 13.526 70.3205V69.2263C12.5199 70.3204 11.0107 71.4146 9.75303 73.2382C9.5015 73.2382 9.75303 73.2382 9.75303 73.2382Z" fill="#EEA75D"/>
<path d="M10.2569 73.9682C10.0053 73.9682 9.7538 73.9682 9.7538 73.9682H9.50227C9.25074 73.9682 9.25073 73.6035 9.25073 73.6035C9.25073 73.2388 9.25074 73.2388 9.50227 72.8741C10.2569 72.1447 10.7599 71.4153 11.5145 71.0506C12.2691 70.3211 13.0237 69.5917 13.5268 68.8623C13.7783 68.8623 13.7783 68.8623 14.0299 68.8623C14.2814 68.8623 14.2814 69.227 14.2814 69.5917V70.6859V71.0506C13.0237 72.5094 11.7661 73.9682 10.2569 73.9682ZM12.7722 70.6859C12.5207 71.0506 12.0176 71.4153 11.5145 71.78C11.263 72.1447 11.0115 72.1447 10.7599 72.5094C11.5145 72.1447 12.2691 71.4153 12.7722 70.6859Z" fill="#BF692D"/>
<path d="M7.74164 26.556V42.6032C8.2447 41.8738 8.74776 41.1444 9.25083 40.415C11.0116 38.5914 12.2692 37.4973 13.5269 36.4032C13.5269 36.4032 13.5269 32.3914 13.5269 28.3796C13.5269 24.3678 13.5269 20.356 13.5269 20.356C12.5208 21.4501 11.0116 22.5442 9.25083 24.3678C8.49623 25.0972 7.99317 25.8266 7.74164 26.556Z" fill="#EEA75D"/>
<path d="M7.74165 43.3329C7.49012 43.3329 7.49012 43.3329 7.74165 43.3329C7.49012 43.3329 7.23859 42.9682 7.23859 42.6035V26.5562V26.1915C7.74165 25.4621 8.24472 24.7327 8.99932 24.0033C9.75391 23.2739 10.5085 22.5444 11.2631 21.815C12.0177 21.0856 12.7723 20.3562 13.2754 19.9915C13.5269 19.9915 13.5269 19.9915 13.7784 19.9915C14.03 19.9915 14.03 20.3562 14.03 20.7209C14.03 20.7209 14.03 24.7327 14.03 28.7445V36.7681C14.03 37.1328 14.03 37.1328 13.7784 37.1328C13.2754 37.8622 12.5208 38.5917 11.7662 39.3211C11.0116 40.0505 10.5085 40.4152 9.75391 41.5093C9.25085 42.2388 8.74778 42.6035 8.24472 43.6976C7.99319 43.3329 7.74165 43.3329 7.74165 43.3329ZM7.99318 26.9209V41.1446C8.24471 40.7799 8.49625 40.4152 8.74779 40.0505C9.50238 39.3211 10.257 38.5917 11.0116 37.8622C11.7662 37.1328 12.2692 36.7681 12.7723 36.0387V28.3798C12.7723 25.8268 12.7723 23.2738 12.7723 21.4503C12.2692 21.815 11.7662 22.1797 11.2631 22.9091C10.5085 23.6386 10.0054 24.0033 8.99932 25.0974C8.99932 25.4621 8.49625 26.1915 7.99318 26.9209Z" fill="#BF692D"/>
<path d="M7.99323 -5.90327L7.7417 10.5087C8.24476 9.77923 8.74782 9.04982 9.25089 8.3204C11.0116 6.49685 12.2693 5.40273 13.5269 4.30861C13.5269 4.30861 13.5269 0.296792 13.5269 -4.07972C13.5269 -8.09152 13.7785 -12.468 13.7785 -12.468C12.7723 -11.3739 11.2632 -10.2798 9.50243 -8.45622C8.99936 -7.36209 8.49629 -6.63269 7.99323 -5.90327Z" fill="#EEA75D"/>
<path d="M7.74165 11.2381C7.49012 11.2381 7.23859 10.8734 7.23859 10.5087L7.49012 -5.90326V-6.26797C7.99319 -6.99739 8.49625 -7.7268 9.25084 -8.45622C10.0054 -9.18564 10.76 -9.91505 11.5146 -10.6445C12.2692 -11.3739 13.0238 -12.1033 13.5269 -12.468C13.7784 -12.468 13.7784 -12.468 14.03 -12.468C14.2815 -12.468 14.2815 -12.1033 14.2815 -11.7386L14.03 -3.35028V5.03802C14.03 5.40273 14.03 5.40273 13.7784 5.40273C13.2754 6.13215 12.5208 6.86159 11.7662 7.59101C11.0116 8.32043 10.5085 8.68513 9.50238 9.77926C8.99932 10.5087 8.49625 10.8734 7.99318 11.6028C7.99318 11.2381 7.99319 11.2381 7.74165 11.2381ZM8.49625 -5.53856L8.24472 9.04982C8.49625 8.68511 8.74778 8.32042 9.25084 7.95571C10.0054 7.22629 10.76 6.49688 11.5146 5.76746C12.2692 5.03804 12.7723 4.67333 13.2754 3.94391L13.5269 -11.0092C13.0238 -10.6445 12.5208 -10.2798 12.0177 -9.91506C11.2631 -9.18564 10.5085 -8.82093 9.75391 -8.09151C9.25085 -6.99739 8.74778 -6.26798 8.49625 -5.53856Z" fill="#BF692D"/>
<path d="M7.74164 42.9684V59.0156C8.2447 58.2862 8.74776 57.5567 9.25083 56.8273C11.0116 55.0038 12.2692 53.9096 13.5269 52.8155V36.7683C12.5208 37.8624 11.0116 39.3213 9.25083 40.7801C8.49623 41.5095 7.99317 42.2389 7.74164 42.9684Z" fill="#EEA75D"/>
<path d="M7.49013 59.745C7.23859 59.745 6.98706 59.3803 6.98706 59.0156V42.9684V42.6037C7.49013 41.8742 7.99319 41.1448 8.74779 40.4154C9.50239 39.686 10.257 38.9565 11.0116 38.2271C11.7662 37.4977 12.5208 36.7683 13.0238 36.4036C13.2754 36.4036 13.2754 36.4036 13.5269 36.4036C13.7784 36.4036 13.7784 36.7683 13.7784 37.133V53.1803C13.7784 53.545 13.7784 53.545 13.5269 53.545C13.0238 54.2744 12.2692 55.0038 11.5146 55.7332C10.76 56.4626 10.257 57.192 9.50238 57.9215C8.99932 58.6509 8.49625 59.0156 7.99318 60.1097C7.74165 59.745 7.74166 59.745 7.49013 59.745ZM7.99318 42.9684V57.1921C8.24472 56.8273 8.49626 56.4626 8.74779 56.0979C9.50239 55.3685 10.257 54.6391 11.0116 53.9097C11.7662 53.1802 12.2692 52.8155 12.7723 52.0861V37.4977C12.2692 37.8624 11.7662 38.2271 11.5146 38.9566C10.76 39.686 10.257 40.0507 9.50238 41.1448C8.99932 41.8742 8.49625 42.2389 7.99318 42.9684Z" fill="#BF692D"/>
<path d="M7.74164 10.5092C7.74164 10.5092 7.74164 14.521 7.74164 18.5328C7.74164 20.7211 7.74164 22.5446 7.74164 24.0035C7.74164 25.4623 7.74164 26.5564 7.74164 26.5564C8.2447 25.827 8.74776 25.0976 9.25083 24.3682C11.0116 22.5446 12.2692 21.4505 13.5269 20.3564L13.7784 4.30908C12.7723 5.40321 11.2631 6.49734 9.50236 8.32089C8.74777 9.05031 8.2447 9.77973 7.74164 10.5092Z" fill="#EEA75D"/>
<path d="M7.74165 27.286C7.49012 27.286 7.49012 27.286 7.74165 27.286C7.49012 27.286 7.23859 26.9213 7.23859 26.5566V18.533V10.5093V10.1446C7.74165 9.41522 8.24472 8.6858 8.99932 7.95638C9.75391 7.22696 10.5085 6.49755 11.2631 5.76813C12.0177 5.03871 12.7723 4.30929 13.2754 3.94458C13.5269 3.94458 13.5269 3.94458 13.7784 3.94458C14.03 3.94458 14.03 4.30928 14.03 4.67399L13.7784 20.7212C13.7784 21.0859 13.7784 21.0859 13.5269 21.0859C13.0238 21.8154 12.2692 22.5448 11.5146 23.2742C10.76 24.0036 10.257 24.3683 9.25084 25.4624C8.74778 25.8272 8.24472 26.5566 7.74165 27.286C7.99319 27.286 7.74165 27.286 7.74165 27.286ZM8.24472 10.874L7.99318 25.0977C8.24471 24.733 8.49625 24.3683 8.74779 24.0036C9.50238 23.2742 10.257 22.5448 11.0116 21.8153C11.7662 21.0859 12.2692 20.7212 12.7723 19.9918L13.0238 5.4034C12.5208 5.76811 12.0177 6.13282 11.5146 6.86224C10.76 7.59166 10.257 7.95637 9.25084 9.0505C8.99931 9.41521 8.74778 10.1446 8.24472 10.874Z" fill="#BF692D"/>
<path d="M7.74164 67.4035C7.74164 68.4976 7.74164 69.5918 7.74164 70.3212C7.99317 71.78 8.74777 72.8742 9.50237 73.2389C11.0116 71.78 12.5208 70.3212 13.5269 69.2271C13.5269 69.2271 13.5269 65.2153 13.5269 60.8388C13.5269 56.827 13.5269 52.4504 13.5269 52.4504C12.5208 53.5446 11.0116 55.0034 9.25083 56.4622C8.49623 57.1917 7.99317 57.9211 7.74164 58.6505C7.74164 58.6505 7.74164 59.7446 7.74164 61.2035C7.74164 63.027 7.74164 65.2153 7.74164 67.4035Z" fill="#EEA75D"/>
<path d="M9.50238 73.6037C8.49625 73.239 7.74165 72.1449 7.23859 70.3214C7.23859 70.3214 7.23859 70.3214 7.23859 69.9566V58.6507V58.2859C7.74165 57.5565 8.24472 56.8271 8.99932 56.0977C9.75391 55.3683 10.5085 54.6389 11.2631 53.9094C12.0177 53.18 12.7723 52.4506 13.2754 51.7212C13.5269 51.7212 13.5269 51.7212 13.7784 51.7212C14.03 51.7212 14.03 52.0859 14.03 52.4506V60.8389V69.2272C14.03 69.5919 14.03 69.5919 13.7784 69.5919C13.2754 70.3214 12.5208 71.0508 11.7662 71.7802C11.2631 72.5096 10.5085 72.8743 10.0054 73.6037C9.75392 73.6037 9.50238 73.6037 9.50238 73.6037ZM8.24472 69.9566C8.49625 70.6861 8.99932 71.7802 9.50238 72.1449C10.0054 71.4155 10.76 71.0508 11.2631 70.3214C12.0177 69.5919 12.5208 69.2272 13.0238 68.4978V60.4742V53.5447C12.5208 53.9094 12.0177 54.2742 11.5146 55.0036C10.76 55.733 10.257 56.4624 9.50238 57.1918C8.99932 57.5565 8.49625 58.286 7.99318 59.0154L8.24472 69.9566Z" fill="#BF692D"/>
<path d="M10.5086 73.2394C11.7663 72.8746 12.7724 71.7805 13.2755 70.3217C13.2755 67.404 13.2755 64.851 13.2755 61.9333C13.2755 58.2862 13.2755 54.6391 13.2755 50.9921C13.2755 43.6979 13.2755 36.4037 13.2755 29.8389C13.2755 22.9094 13.2755 16.3446 13.527 9.77987C13.527 3.5798 13.527 -2.62027 13.7785 -8.09091C14.0301 -19.0322 14.0301 -28.5147 14.2816 -34.7147C14.2816 -38.7265 14.5331 -41.6442 14.5331 -43.4678C13.7785 -44.9266 12.7724 -45.656 11.7663 -45.656C11.5147 -41.6442 11.2632 -28.15 11.0117 -9.18505C10.7601 -3.3497 10.7601 2.48566 10.7601 9.05043C10.7601 15.6152 10.5086 22.5447 10.5086 29.4742C10.5086 36.4037 10.5086 43.6979 10.5086 51.3568C10.5086 55.0039 10.5086 58.651 10.5086 62.6628C10.5086 66.3099 10.5086 69.5923 10.5086 73.2394Z" fill="#EEA75D"/>
<path d="M7.74164 70.3211C7.99317 71.4152 8.49623 72.5093 9.25083 73.2387C8.9993 58.6504 9.25083 44.062 9.25083 30.203C9.25083 23.2735 9.25083 16.344 9.50237 9.77925C9.50237 3.21447 9.50236 -2.98559 9.75389 -8.45623C10.0054 -26.6917 10.5085 -40.186 10.5085 -44.5625C10.0054 -44.1978 9.50236 -43.4684 8.9993 -42.3742C8.9993 -40.5507 8.9993 -37.9977 8.74777 -34.3506C8.49624 -27.7858 8.49624 -18.6681 8.2447 -7.36212C8.2447 -1.89148 7.99317 4.30859 7.99317 10.5087C7.99317 16.7087 7.74164 23.6382 7.74164 30.5677C7.74164 37.4972 7.74164 44.7914 7.74164 52.0856C7.74164 55.7327 7.74164 59.3798 7.74164 63.0269C7.74164 65.2151 7.74164 67.7681 7.74164 70.3211Z" fill="#EEA75D"/>
<ellipse cx="216.288" cy="66.1195" rx="5.08011" ry="4.20838" fill="#52402C"/>
<path d="M214.989 68.1949C216.499 68.5596 218.008 67.1008 218.762 65.2772V64.1831C217.756 65.2772 216.247 66.3714 214.989 68.1949C214.738 68.1949 214.989 68.1949 214.989 68.1949Z" fill="#EEA75D"/>
<path d="M215.493 68.9253C215.242 68.9253 214.99 68.9253 214.99 68.9253H214.739C214.487 68.9253 214.487 68.5606 214.487 68.5606C214.487 68.1959 214.487 68.1958 214.739 67.8311C215.493 67.1017 215.997 66.3723 216.751 66.0076C217.506 65.2782 218.26 64.5488 218.763 63.8193C219.015 63.8193 219.015 63.8193 219.266 63.8193C219.518 63.8193 219.518 64.1841 219.518 64.5488V65.6429V66.0076C218.26 67.4664 217.003 68.9253 215.493 68.9253ZM218.009 65.6429C217.757 66.0076 217.254 66.3723 216.751 66.737C216.5 67.1017 216.248 67.1017 215.997 67.4664C216.751 67.1017 217.506 66.3723 218.009 65.6429Z" fill="#BF692D"/>
<path d="M212.978 21.513V37.5603C213.481 36.8309 213.984 36.1014 214.487 35.372C216.248 33.5485 217.506 32.4543 218.763 31.3602C218.763 31.3602 218.763 27.3484 218.763 23.3366C218.763 19.3248 218.763 15.313 218.763 15.313C217.757 16.4071 216.248 17.5012 214.487 19.3248C213.733 20.0542 213.23 20.7836 212.978 21.513Z" fill="#EEA75D"/>
<path d="M212.978 38.2899C212.727 38.2899 212.727 38.2899 212.978 38.2899C212.727 38.2899 212.475 37.9252 212.475 37.5605V21.5133V21.1486C212.978 20.4191 213.481 19.6897 214.236 18.9603C214.99 18.2309 215.745 17.5015 216.5 16.772C217.254 16.0426 218.009 15.3132 218.512 14.9485C218.763 14.9485 218.763 14.9485 219.015 14.9485C219.266 14.9485 219.266 15.3132 219.266 15.6779C219.266 15.6779 219.266 19.6897 219.266 23.7015V31.7252C219.266 32.0899 219.266 32.0899 219.015 32.0899C218.512 32.8193 217.757 33.5487 217.003 34.2781C216.248 35.0075 215.745 35.3722 214.99 36.4664C214.487 37.1958 213.984 37.5605 213.481 38.6546C213.23 38.2899 212.978 38.2899 212.978 38.2899ZM213.23 21.878V36.1017C213.481 35.737 213.733 35.3722 213.984 35.0075C214.739 34.2781 215.493 33.5487 216.248 32.8193C217.003 32.0898 217.506 31.7251 218.009 30.9957V23.3368C218.009 20.7839 218.009 18.2309 218.009 16.4073C217.506 16.772 217.003 17.1368 216.5 17.8662C215.745 18.5956 215.242 18.9603 214.236 20.0544C214.236 20.4191 213.733 21.1486 213.23 21.878Z" fill="#BF692D"/>
<path d="M213.23 -10.9462L212.978 5.46568C213.481 4.73627 213.984 4.00685 214.487 3.27743C216.248 1.45389 217.506 0.359764 218.763 -0.734364C218.763 -0.734364 218.763 -4.74618 218.763 -9.12269C218.763 -13.1345 219.015 -17.511 219.015 -17.511C218.009 -16.4169 216.5 -15.3227 214.739 -13.4992C214.236 -12.4051 213.733 -11.6757 213.23 -10.9462Z" fill="#EEA75D"/>
<path d="M212.978 6.19513C212.727 6.19513 212.475 5.83041 212.475 5.4657L212.727 -10.9462V-11.3109C213.23 -12.0404 213.733 -12.7698 214.487 -13.4992C215.242 -14.2286 215.996 -14.958 216.751 -15.6874C217.506 -16.4169 218.26 -17.1463 218.763 -17.511C219.015 -17.511 219.015 -17.511 219.266 -17.511C219.518 -17.511 219.518 -17.1463 219.518 -16.7816L219.266 -8.39325V-0.00494576C219.266 0.359764 219.266 0.359758 219.015 0.359758C218.512 1.08918 217.757 1.81862 217.003 2.54804C216.248 3.27746 215.745 3.64216 214.739 4.73629C214.236 5.46571 213.733 5.83042 213.23 6.55984C213.23 6.19513 213.23 6.19513 212.978 6.19513ZM213.733 -10.5815L213.481 4.00686C213.733 3.64215 213.984 3.27745 214.487 2.91274C215.242 2.18332 215.996 1.45391 216.751 0.724491C217.506 -0.00492859 218.009 -0.369638 218.512 -1.09906L218.763 -16.0522C218.26 -15.6875 217.757 -15.3227 217.254 -14.958C216.5 -14.2286 215.745 -13.8639 214.99 -13.1345C214.487 -12.0404 213.984 -11.3109 213.733 -10.5815Z" fill="#BF692D"/>
<path d="M212.978 37.9251V53.9724C213.481 53.2429 213.984 52.5135 214.487 51.7841C216.248 49.9606 217.506 48.8664 218.763 47.7723V31.7251C217.757 32.8192 216.248 34.2781 214.487 35.7369C213.733 36.4663 213.23 37.1957 212.978 37.9251Z" fill="#EEA75D"/>
<path d="M212.727 54.7018C212.475 54.7018 212.224 54.3371 212.224 53.9724V37.9251V37.5604C212.727 36.831 213.23 36.1016 213.984 35.3722C214.739 34.6428 215.493 33.9133 216.248 33.1839C217.003 32.4545 217.757 31.7251 218.26 31.3604C218.512 31.3604 218.512 31.3604 218.763 31.3604C219.015 31.3604 219.015 31.7251 219.015 32.0898V48.137C219.015 48.5017 219.015 48.5017 218.763 48.5017C218.26 49.2312 217.506 49.9606 216.751 50.69C215.996 51.4194 215.493 52.1488 214.739 52.8783C214.236 53.6077 213.733 53.9724 213.23 55.0665C212.978 54.7018 212.978 54.7018 212.727 54.7018ZM213.23 37.9251V52.1488C213.481 51.7841 213.733 51.4194 213.984 51.0547C214.739 50.3253 215.493 49.5959 216.248 48.8664C217.003 48.137 217.506 47.7723 218.009 47.0429V32.4545C217.506 32.8192 217.003 33.1839 216.751 33.9133C215.996 34.6428 215.493 35.0075 214.739 36.1016C214.236 36.831 213.733 37.1957 213.23 37.9251Z" fill="#BF692D"/>
<path d="M212.978 5.46618C212.978 5.46618 212.978 9.47801 212.978 13.4898C212.978 15.6781 212.978 17.5016 212.978 18.9605C212.978 20.4193 212.978 21.5135 212.978 21.5135C213.481 20.784 213.984 20.0546 214.487 19.3252C216.248 17.5016 217.506 16.4075 218.763 15.3134L219.015 -0.733887C218.009 0.360245 216.5 1.45437 214.739 3.27792C213.984 4.00734 213.481 4.73676 212.978 5.46618Z" fill="#EEA75D"/>
<path d="M212.978 22.2428C212.727 22.2428 212.727 22.2428 212.978 22.2428C212.727 22.2428 212.475 21.8781 212.475 21.5134V13.4898V5.46613V5.10142C212.978 4.372 213.481 3.64259 214.236 2.91317C214.99 2.18375 215.745 1.45434 216.5 0.724917C217.254 -0.00450301 218.009 -0.733923 218.512 -1.09863C218.763 -1.09863 218.763 -1.09863 219.015 -1.09863C219.266 -1.09863 219.266 -0.733934 219.266 -0.369224L219.015 15.678C219.015 16.0427 219.015 16.0427 218.763 16.0427C218.26 16.7721 217.506 17.5016 216.751 18.231C215.996 18.9604 215.493 19.3251 214.487 20.4192C213.984 20.7839 213.481 21.5134 212.978 22.2428C213.23 22.2428 212.978 22.2428 212.978 22.2428ZM213.481 5.83083L213.23 20.0545C213.481 19.6898 213.733 19.3251 213.984 18.9604C214.739 18.231 215.493 17.5016 216.248 16.7721C217.003 16.0427 217.506 15.678 218.009 14.9486L218.26 0.360185C217.757 0.724895 217.254 1.08961 216.751 1.81903C215.996 2.54845 215.493 2.91315 214.487 4.00728C214.236 4.37199 213.984 5.10141 213.481 5.83083Z" fill="#BF692D"/>
<path d="M212.978 62.3603C212.978 63.4544 212.978 64.5486 212.978 65.278C213.23 66.7368 213.984 67.831 214.739 68.1957C216.248 66.7368 217.757 65.278 218.763 64.1838C218.763 64.1838 218.763 60.1721 218.763 55.7956C218.763 51.7837 218.763 47.4072 218.763 47.4072C217.757 48.5014 216.248 49.9602 214.487 51.419C213.733 52.1484 213.23 52.8779 212.978 53.6073C212.978 53.6073 212.978 54.7014 212.978 56.1603C212.978 57.9838 212.978 60.172 212.978 62.3603Z" fill="#EEA75D"/>
<path d="M214.739 68.5608C213.733 68.1961 212.978 67.1019 212.475 65.2784C212.475 65.2784 212.475 65.2784 212.475 64.9137V53.6077V53.243C212.978 52.5136 213.481 51.7841 214.236 51.0547C214.99 50.3253 215.745 49.5959 216.5 48.8665C217.254 48.1371 218.009 47.4076 218.512 46.6782C218.763 46.6782 218.763 46.6782 219.015 46.6782C219.266 46.6782 219.266 47.0429 219.266 47.4076V55.796V64.1842C219.266 64.549 219.266 64.549 219.015 64.549C218.512 65.2784 217.757 66.0078 217.003 66.7372C216.5 67.4666 215.745 67.8314 215.242 68.5608C214.99 68.5608 214.739 68.5608 214.739 68.5608ZM213.481 64.9137C213.733 65.6431 214.236 66.7372 214.739 67.1019C215.242 66.3725 215.996 66.0078 216.5 65.2784C217.254 64.549 217.757 64.1843 218.26 63.4548V55.4312V48.5018C217.757 48.8665 217.254 49.2312 216.751 49.9606C215.996 50.69 215.493 51.4194 214.739 52.1489C214.236 52.5136 213.733 53.243 213.23 53.9724L213.481 64.9137Z" fill="#BF692D"/>
<path d="M215.745 68.1961C217.003 67.8314 218.009 66.7373 218.512 65.2785C218.512 62.3608 218.512 59.8078 218.512 56.8901C218.512 53.243 218.512 49.5959 218.512 45.9488C218.512 38.6546 218.512 31.3605 218.512 24.7957C218.512 17.8662 218.512 11.3014 218.763 4.73666C218.763 -1.46341 218.763 -7.66348 219.015 -13.1341C219.267 -24.0754 219.267 -33.5579 219.518 -39.7579C219.518 -43.7697 219.77 -46.6874 219.77 -48.511C219.015 -49.9698 218.009 -50.6992 217.003 -50.6992C216.751 -46.6874 216.5 -33.1932 216.248 -14.2283C215.997 -8.39291 215.997 -2.55755 215.997 4.00722C215.997 10.572 215.745 17.5015 215.745 24.431C215.745 31.3605 215.745 38.6547 215.745 46.3136C215.745 49.9607 215.745 53.6078 215.745 57.6196C215.745 61.2667 215.745 64.549 215.745 68.1961Z" fill="#EEA75D"/>
<path d="M212.978 65.2778C213.23 66.372 213.733 67.4661 214.487 68.1955C214.236 53.6071 214.487 39.0187 214.487 25.1598C214.487 18.2303 214.487 11.3008 214.739 4.73603C214.739 -1.82874 214.739 -8.0288 214.99 -13.4994C215.242 -31.7349 215.745 -45.2292 215.745 -49.6057C215.242 -49.241 214.739 -48.5116 214.236 -47.4175C214.236 -45.5939 214.236 -43.0409 213.984 -39.3938C213.733 -32.8291 213.733 -23.7113 213.481 -12.4053C213.481 -6.93469 213.23 -0.734619 213.23 5.46544C213.23 11.6655 212.978 18.595 212.978 25.5245C212.978 32.454 212.978 39.7482 212.978 47.0424C212.978 50.6895 212.978 54.3365 212.978 57.9836C212.978 60.1719 212.978 62.7249 212.978 65.2778Z" fill="#EEA75D"/>
</svg>
