<?xml version="1.0" encoding="UTF-8" standalone="no"?>
<svg
   xmlns:dc="http://purl.org/dc/elements/1.1/"
   xmlns:cc="http://creativecommons.org/ns#"
   xmlns:rdf="http://www.w3.org/1999/02/22-rdf-syntax-ns#"
   xmlns:svg="http://www.w3.org/2000/svg"
   xmlns="http://www.w3.org/2000/svg"
   xmlns:sodipodi="http://sodipodi.sourceforge.net/DTD/sodipodi-0.dtd"
   xmlns:inkscape="http://www.inkscape.org/namespaces/inkscape"
   width="240"
   height="121"
   viewBox="0 0 240 121"
   fill="none"
   version="1.1"
   id="svg112"
   sodipodi:docname="woodHover.svg"
   inkscape:version="1.0.1 (3bc2e813f5, 2020-09-07)">
  <metadata
     id="metadata118">
    <rdf:RDF>
      <cc:Work
         rdf:about="">
        <dc:format>image/svg+xml</dc:format>
        <dc:type
           rdf:resource="http://purl.org/dc/dcmitype/StillImage" />
      </cc:Work>
    </rdf:RDF>
  </metadata>
  <defs
     id="defs116" />
  <sodipodi:namedview
     pagecolor="#ffffff"
     bordercolor="#666666"
     borderopacity="1"
     objecttolerance="10"
     gridtolerance="10"
     guidetolerance="10"
     inkscape:pageopacity="0"
     inkscape:pageshadow="2"
     inkscape:window-width="1920"
     inkscape:window-height="1017"
     id="namedview114"
     showgrid="false"
     inkscape:zoom="3.833108"
     inkscape:cx="97.059892"
     inkscape:cy="102.2008"
     inkscape:window-x="-8"
     inkscape:window-y="-8"
     inkscape:window-maximized="1"
     inkscape:current-layer="svg112" />
  <path
     d="m 232.56027,86.503683 c 0.31899,0.0631 0.646,0.14325 0.97701,0.24605 l 2.24897,0.70057 -1.056,2.10592 c -1.02146,2.81181 -0.99541,8.26832 -0.83214,9.268797 0.0809,0.49651 0.16403,1.0134 0.24416,1.55848 0.88497,6.51481 0.83977,11.99615 0.66115,17.93103 l -2.02099,-0.0839 c -1.78401,-0.0741 -3.64501,-0.25096 -5.428,-0.42202 -0.82999,-0.079 -1.64399,-0.15685 -2.424,-0.22186 l -0.0113,-9.8e-4 -0.0113,-10e-4 c -3.75201,-0.35717 -7.43101,-0.26986 -11.243,-0.17991 -1.74799,0.0412 -3.52501,0.0831 -5.34901,0.0831 -3.046,0 -6.08399,-0.1319 -9.09997,-0.26381 l -0.10621,-0.004 c -3.06501,-0.13379 -6.111,-0.26419 -9.207,-0.26419 h -0.0189 l -0.0189,-9.8e-4 c -3.988,-0.0699 -7.972,0.0461 -12.02101,0.1629 -2.05901,0.0601 -4.13401,0.12019 -6.23501,0.15609 -8.90699,0.2332 -17.89198,-0.26683 -26.76201,-0.75998 -3.36597,-0.18709 -6.71697,-0.37304 -10.03997,-0.51901 h -0.008 -0.0113 c -9.938,-0.528 -19.85201,-0.421 -29.749,0.63001 l -0.10583,0.0113 h -0.10582 c -2.902,0 -5.88171,0.10507 -8.862809,0.31408 -6.174425,0.48998 -12.317594,0.18784 -18.35452,-0.21203 -0.9696,-0.0639 -1.935496,-0.13115 -2.898482,-0.19692 -5.072012,-0.34998 -10.061896,-0.69403 -15.070412,-0.65 -4.721803,0.10318 -9.373683,0.30501 -14.119485,0.51197 l -0.430299,0.0189 c -4.951332,0.21619 -9.891813,0.21506 -14.814213,0.1081 h -0.006 v 0 c -0.862602,-0.0227 -1.723601,-0.0431 -2.583201,-0.0661 -7.776201,-0.20108 -15.435701,-0.39901 -23.0913012,0.16818 l -2.147731,0.15912 v -2.15399 -9.04898 -0.18104 l 0.0325,-0.17802 c 0.08315,-0.45399 0.193171,-0.96597 0.446861,-1.50999 0.683728,-1.676 1.736489,-3.12499 2.670969,-4.34098 -0.439249,-0.33373 -0.885471,-0.65941 -1.192641,-0.8699 l -1.47363,-1.009617 0.837441,-1.57788 c 0.377537,-0.7113 0.562122,-1.88693 0.54367,-3.41643 -0.01739,-1.43278 -0.20315,-2.89557 -0.358791,-4.12097 l -0.01323,-0.10582 c 0,0 0.06542,0.88709 0.143396,2.18211 0.966221,5.7843 -1.431387,8.156747 -1.461241,14.346397 0,0 -0.07446,4.03537 -0.301758,7.58215 -0.176239,2.74961 0.27651,4.51423 1.210209,4.35485 5.0160262,-0.85633 5.0075002,0.5495 9.2845002,0.10431 14.870805,-0.38332 38.166251,-0.29253 46.744835,-0.29744 7.950689,-0.004 23.394633,0.2279 28.405531,0.97704 3.270765,0.48896 18.562322,-1.61405 32.407482,-1.49095 20.79632,0.18482 53.40644,2.57896 70.81316,2.04325 17.9754,-0.55321 29.85461,-0.26419 42.11316,-0.23962 4.79195,0.0113 -3.10469,-30.209947 1.21633,-29.647097 2.93125,0.38184 -2.67107,-1.96441 -1.9573,-1.68915 z m 0,0 c 0.22602,-0.1406 0.454,-0.29442 0.67601,-0.46299 m -0.67601,0.46299 0.67601,-0.46299 m 0,0 c 1.036,-0.68742 1.20098,-1.7712 1.20098,-2.37181 0,-0.30538 -0.0382,-0.58699 -0.065,-0.77242 -0.0151,-0.10545 -0.0265,-0.17764 -0.0378,-0.23584 -0.0113,-0.0593 -0.0189,-0.10469 -0.0227,-0.15723 -0.15194,-2.24251 -0.23584,-4.416493 -0.32202,-6.639873 -0.0419,-1.10661 -0.085,-2.22531 -0.13795,-3.37081 v 0 -0.008 c -0.0389,-0.79661 -0.0771,-1.6201 -0.11603,-2.44539 v -5.3e-4 c -0.0382,-0.8078 -0.076,-1.61738 -0.1149,-2.40227 0.001,-0.89582 0.0189,-1.4115 0.14211,-1.8034 l 0.008,-0.0189 0.004,-0.0189 c 0.16781,-0.57373 0.3651,-1.1537 0.58099,-1.79021 0.065,-0.19275 0.13304,-0.3908 0.20107,-0.59531 0.28611,-0.84858 0.58503,-1.77929 0.80202,-2.73389 l 0.39001,-1.7097 -1.64402,-0.61009 c -4.056,-1.50543 -8.21798,-1.82861 -12.22001,-1.81501 -1.82596,0.008 -3.65197,0.0835 -5.42498,0.15836 -0.16895,0.008 -0.33789,0.0151 -0.506,0.0227 -1.944,0.0813 -3.82201,0.15194 -5.66102,0.12662 l -0.12586,-0.003 c -4.608,-0.10507 -9.19396,-0.21014 -13.86296,-0.10356 -4.68601,0.10696 -9.45102,0.32088 -14.13903,0.64199 l -0.0113,6.1e-4 c -7.861,0.42659 -15.48597,0.84037 -23.16699,0.21505 l -0.008,-7.2e-4 -0.0113,-6.8e-4 c -3.04199,-0.21959 -6.083,-0.53011 -9.15798,-0.84419 -0.61701,-0.0631 -1.235,-0.12624 -1.85601,-0.18898 -3.694,-0.37304 -7.43301,-0.72423 -11.18499,-0.88653 l -0.002,-7e-5 c -7.60203,-0.32202 -15.109,0.20825 -22.56102,0.73459 l -0.19502,0.0151 -0.0151,9e-4 -0.0113,9.9e-4 c -7.56,0.63431 -15.13229,0.9524 -22.807183,1.16481 l -0.01134,3.8e-4 c -4.575004,0.15118 -9.168529,0.26796 -13.774526,0.3846 -24.431888,0.61962 -49.218792,1.24823 -73.4900952,7.12271 l -1.529518,0.37002 v 1.57372 7.66507 0.92972 l 0.71071,0.59928 c 0.502258,0.4235 1.30947,1.10831 1.988149,1.69773 0.03137,0.0265 0.06229,0.0541 0.09286,0.0809 -0.22167,0.36888 -0.463639,0.72567 -0.730689,1.0941 -0.383422,0.461903 -0.73971,1.140473 -0.959792,1.625693 -0.134211,0.29593 -0.271899,0.63828 -0.366236,0.97111 -0.04615,0.1629 -0.09872,0.38109 -0.121626,0.62219 -0.01285,0.13341 -0.04158,0.4851 0.07854,0.89809 0.362533,1.60501 0.655881,3.31789 0.877871,5.04079 1.243695,2.84973 0.292574,6.07079 0.767736,8.97116 0.164107,1.001647 0.433141,1.457837 0.890351,2.136037 -4.342039,5.05894 -2.872267,12.32803 -3.150335,17.413 l 43.0727922,-0.38816 50.442899,0.54698 c 22.767162,-2.19791 45.605112,-0.34092 68.427062,0.6014 l 70.41211,0.76248 0.18747,-9.04316 c -0.78717,-8.06298 -1.59515,-16.141567 0.79502,-21.821067 z"
     fill="#ad7634"
     stroke="#fab523"
     stroke-width="3.99999"
     id="path2"
     sodipodi:nodetypes="cccccccscscsssccsccccscccscsccccssscscsccccsccscsscccssscssssssccccccsscccsccssccccccccsccccsscsscsscsscccsssccccccscccssccccsccccccccs" />
  <path
     d="m 131.70928,57.25358 c 1.787,0 3.49599,0 5.12799,0.1062 4.42798,0.21317 8.856,0.63882 13.20699,1.06462 2.95302,0.31937 5.983,0.63878 8.935,0.85168 2.64102,0.21316 5.43802,0.31937 8.546,0.31937 5.05002,0 10.25499,-0.31937 14.917,-0.53231 h 0.54399 c 4.42802,-0.21279 9.01202,-0.4258 13.51801,-0.53227 0.93301,0 1.86501,0 2.797,0 2.25301,0 4.584,0 6.83701,0.10658 1.399,0 2.87502,0.10658 4.27299,0.10658 2.09801,0 4.19599,-0.10658 6.29302,-0.10658 1.787,-0.10658 3.72998,-0.10658 5.59397,-0.10658 4.66201,0 8.23601,0.53227 11.42101,1.70339 l 0.15496,0.10659 -0.0771,0.21316 c -0.23282,1.17097 -0.62199,2.23559 -0.93297,3.30017 -0.2332,0.63882 -0.38801,1.17113 -0.54301,1.8099 -0.23395,0.63871 -0.23395,1.38403 -0.23395,2.3421 0,0.95811 0.0779,1.80983 0.15609,2.76801 0,0.74521 0.0779,1.38399 0.0779,2.1292 0,0.63882 0.0771,1.27752 0.0771,1.9163 0.0779,2.6615 0.1561,5.535913 0.38899,8.197413 0,0.10659 0,0.31937 0.0771,0.42588 0.0779,0.53231 0.1561,1.17113 -0.388,1.59693 -0.38899,0.21279 -0.777,0.4258 -1.165,0.63878 -0.23396,0.1062 -0.38899,0.21278 -0.622,0.31937 -1.08801,0.63881 -1.86501,1.27763 -2.642,2.0228 0.7,0.10658 1.39899,0.10658 2.09801,0.21279 1.01001,0 2.02001,0.10658 3.02997,0.42591 l 0.2332,0.10658 -0.15496,0.31937 c -0.93199,1.80979 -1.32098,3.6197 -1.39899,5.53599 -0.0771,1.70332 0.23319,3.406717 0.54402,5.110107 0.0779,0.42611 0.1561,0.7451 0.23282,1.17109 0.85497,5.53602 0.85497,10.96501 0.69997,15.543 v 0.21317 h -0.15609 c -2.09798,-0.10621 -4.27299,-0.31899 -6.29299,-0.42599 -0.46598,0 -1.01001,-0.10583 -1.47598,-0.10583 -2.02001,-0.21316 -4.11803,-0.32012 -6.68202,-0.32012 -1.787,0 -3.57301,0 -5.36001,0.10696 -1.55399,0 -3.18599,0.1062 -4.73998,0.1062 h -0.46598 c -3.34103,0 -6.681,-0.21316 -9.94401,-0.31899 -2.564,-0.10696 -5.206,-0.21317 -7.84702,-0.31899 -1.00997,0 -2.01997,0 -3.02997,0 -3.73002,0 -7.53702,0.1062 -11.18801,0.21203 -1.39899,0 -2.797,0.10696 -4.19501,0.10696 -1.477,0 -3.03001,0.10583 -4.66201,0.10583 -7.45799,0 -15.072,-0.42501 -22.453,-0.851 -3.18599,-0.21317 -6.371,-0.32013 -9.63398,-0.53299 -4.04001,-0.21203 -7.76901,-0.31899 -11.34301,-0.31899 -6.68201,0 -12.81898,0.31899 -18.724,0.95799 -3.26298,0 -6.2154,0.10696 -9.01229,0.32013 -2.175417,0.21203 -4.428506,0.31899 -6.914604,0.31899 -4.739301,0 -9.556195,-0.31899 -14.217789,-0.639 -4.972309,-0.319 -10.100032,-0.74502 -15.072303,-0.63901 -3.418507,0 -6.914609,0.21317 -10.333116,0.32013 -1.398501,0.1062 -2.874595,0.1062 -4.273096,0.21316 -2.40839,0.10583 -4.972309,0.10583 -7.691505,0.10583 -2.097698,0 -4.428498,0 -6.992401,-0.10583 -1.243,0 -2.486098,-0.10696 -3.729199,-0.10696 -3.573801,-0.1062 -7.303098,-0.21316 -10.954598,-0.21316 -4.195401,0 -7.846961,0.10696 -11.1877312,0.32012 h -0.155454 v -9.36899 c 0.155414,-0.42603 0.233083,-0.74502 0.31079,-1.06402 0.776909,-2.0231 2.0199992,-3.51409 3.2630892,-5.0042 l 0.233046,-0.21279 c -0.38846,-0.31937 -1.39847,-1.17101 -2.020002,-1.596887 -0.233084,-0.21279 -0.388449,-0.31937 -0.5438402,-0.4258 l -0.155415,-0.10658 0.155415,-0.21279 c 1.1653902,-2.0228 0.6992312,-5.74889 0.3884592,-8.19749 l -0.07771,-0.42581 c -0.2330832,-1.8099 -0.5438592,-3.61969 -0.9323182,-5.32308 -0.155377,-0.53231 0.8546262,-2.23563 1.0876992,-2.66151 0.543858,-0.74521 1.08771,-1.596923 1.553869,-2.555003 -0.388479,-0.42591 -1.786942,-1.59692 -3.1077092,-2.6615 l -0.07771,-0.10658 v -7.98452 h 0.155377 C 28.999644,61.2999 53.938958,60.55469 78.101252,60.02242 c 4.506217,-0.10658 9.090104,-0.21316 13.673915,-0.42591 8.857093,-0.31937 16.160083,-0.63882 22.841083,-1.17109 5.20599,-0.74521 11.11102,-1.17101 17.09302,-1.17101 z m 35.81598,2.8744 c -3.10798,0 -5.90498,-0.1062 -8.62398,-0.31937 -2.952,-0.21278 -6.06001,-0.53231 -8.934,-0.85171 -4.351,-0.42581 -8.78,-0.85161 -13.20802,-1.06458 -1.632,-0.10621 -3.34099,-0.10621 -5.04998,-0.10621 -5.90502,0 -11.88703,0.4258 -17.48103,0.85168 -6.75897,0.53231 -14.062,0.95811 -22.919206,1.17101 -4.583887,0.10658 -9.167698,0.31937 -13.673878,0.42592 -24.0847,0.63877 -48.946307,1.27748 -73.0309392,7.02637 V 74.6069 C 7.789628,77.26841 7.78964,77.3748 7.867339,77.58781 v 0.10659 l -0.07771,0.10658 c -0.466159,1.06458 -1.010011,2.022693 -1.63155,2.874373 -0.3884712,0.53231 -1.0099882,1.91633 -1.0099882,2.12923 0.38846,1.7034 0.69922,3.51319 0.9323002,5.42948 l 0.07771,0.42592 c 0.310752,2.4486 0.776919,6.06818 -0.3107912,8.30388 0.1553762,0.10621 0.2330842,0.21279 0.3884602,0.31937 2.175398,1.703317 2.330778,1.809787 2.330778,2.022687 v 0.10659 L 8.488838,99.51909 8.178085,99.945 c -1.24309,1.4902 -2.4861582,2.98118 -3.1854012,4.89721 -0.07771,0.319 -0.233083,0.53197 -0.310753,0.958 v 8.72999 c 3.2630932,-0.21316 6.9146312,-0.31899 11.0323322,-0.31899 3.6515,0 7.380802,0.10583 10.954602,0.21203 1.243098,0 2.4862,0.10696 3.729298,0.10696 2.563801,0.10621 4.894601,0.10621 6.992299,0.10621 2.796914,0 5.283087,0 7.691591,-0.10621 1.398426,-0.10696 2.874596,-0.10696 4.273021,-0.21316 3.3408,-0.10583 6.836977,-0.319 10.333078,-0.319 5.050016,0 10.177701,0.319 15.15001,0.63799 4.661594,0.32012 9.478488,0.639 14.217789,0.639 2.486098,0 4.739225,-0.1062 6.914608,-0.31899 2.874591,-0.21317 5.826711,-0.32013 9.089731,-0.32013 5.90498,-0.63798 12.04297,-0.95799 18.72397,-0.95799 3.652,0 7.30303,0.10696 11.343,0.32012 3.18599,0.10621 6.44901,0.319 9.63402,0.53201 7.381,0.42599 14.917,0.85198 22.453,0.85198 1.55399,0 3.10798,0 4.66201,-0.10696 1.39797,0 2.79696,-0.1062 4.19497,-0.1062 3.65201,-0.10697 7.45901,-0.21317 11.18801,-0.21317 1.01,0 2.02001,0 3.03001,0 2.64098,0 5.28298,0.21317 7.84698,0.31899 3.26302,0.10696 6.604,0.31899 9.94499,0.31899 h 0.46602 c 1.55399,0 3.18501,0 4.739,-0.1062 1.787,0 3.574,-0.10583 5.36099,-0.10583 2.564,0 4.739,0.10583 6.681,0.319 0.46601,0 1.01,0.1062 1.47602,0.1062 2.02,0.21317 4.04001,0.42603 6.13799,0.42603 0.15496,-4.47103 0.15496,-9.79401 -0.69899,-15.22401 -0.0779,-0.42501 -0.15609,-0.74499 -0.23319,-1.17071 -0.31106,-1.70329 -0.622,-3.513187 -0.54403,-5.216507 0.0779,-1.91629 0.46602,-3.61969 1.32102,-5.42948 -0.855,-0.21316 -1.787,-0.31937 -2.72001,-0.31937 -0.69899,0 -1.39801,-0.10658 -2.097,-0.21279 -0.15609,0 -0.31105,-0.21316 -0.31105,-0.42591 0,-0.21279 0,-0.31937 0.15496,-0.4258 0.77699,-0.85168 1.632,-1.4905 2.72001,-2.1292 0.23282,-0.10658 0.38801,-0.21316 0.62098,-0.31937 0.38902,-0.21279 0.77699,-0.42588 1.16602,-0.63878 0.30992,-0.21278 0.30992,-0.4258 0.15496,-1.06461 0,-0.10659 -0.0779,-0.31937 -0.0779,-0.42581 -0.23319,-2.76801 -0.31105,-5.535983 -0.388,-8.304003 0,-0.6387 -0.0779,-1.27748 -0.0779,-1.91618 0,-0.74532 -0.0779,-1.38402 -0.0779,-2.12931 -0.0771,-0.95811 -0.0771,-1.80979 -0.15496,-2.7679 0,-1.06462 0.0779,-1.8099 0.31105,-2.55511 0.15496,-0.53231 0.38801,-1.17109 0.54399,-1.80979 0.30992,-0.95818 0.62102,-2.0228 0.85402,-2.98091 -3.107,-1.06458 -6.52599,-1.59689 -11.10999,-1.59689 -1.86403,0 -3.72904,0.10658 -5.51604,0.10658 -2.09797,0.10659 -4.19497,0.21317 -6.29298,0.10659 -1.39801,0 -2.87502,0 -4.27299,-0.10659 -2.25301,0 -4.50603,-0.10658 -6.759,-0.10658 -0.93302,0 -1.86501,0 -2.797,0 -4.50599,0.10658 -9.08999,0.31937 -13.519,0.53231 h -0.54421 c -4.81697,0.1062 -10.02198,0.4258 -15.072,0.4258 z"
     fill="#b37052"
     id="path4"
     style="stroke-width:0.999999" />
  <path
     opacity="0.5"
     d="m 48.888872,64.38638 c 2.874596,0 5.749191,0.31937 8.623787,0.53231 2.874709,0.31937 5.749304,0.10658 8.623899,0 2.952303,-0.10659 5.826898,0.4258 8.779314,0.53227 3.029972,0.10658 5.982274,0.10658 9.012283,0.21278 5.982312,0.21279 11.886917,1.27752 17.869115,2.12924 6.05998,0.85168 12.04199,1.59689 18.17998,1.80986 11.965,0.31937 23.85203,-0.10658 35.73903,-1.17108 6.05998,-0.53231 12.12,-1.06458 18.17998,-1.4905 2.952,-0.21279 5.82701,-0.4258 8.77901,-0.4258 2.87501,0 5.82701,0 8.70198,-0.21279 6.21502,-0.42591 12.35301,-1.70339 18.56803,-1.27752 1.47598,0.10621 2.952,0.21279 4.50599,0.21279 1.55399,0 3.03001,0 4.50599,0.21279 1.55399,0.21279 3.10802,0.4258 4.584,0.63882 1.32102,0.21278 3.03001,0.4258 4.27302,1.27748 l 0.0779,-0.10659 c -0.93203,-0.74517 -2.09802,-0.95807 -3.10802,-1.27748 -1.47598,-0.4258 -3.03001,-0.63881 -4.584,-0.85171 -1.39801,-0.21279 -2.79598,-0.42581 -4.19501,-0.42581 -1.47598,0 -3.02997,0.10659 -4.50599,-0.10658 -5.749,-0.85168 -11.65399,0.42592 -17.481,0.85172 -5.90498,0.53231 -11.88699,0.21279 -17.79099,0.63881 -5.82701,0.42577 -11.73199,0.85157 -17.559,1.38388 -12.12,1.17112 -24.24,1.70339 -36.36,1.49049 -6.06002,-0.10658 -12.12,-0.74517 -18.18002,-1.59689 -3.02998,-0.4258 -5.98239,-0.74521 -9.012402,-1.17108 -2.952302,-0.4258 -5.982274,-0.85172 -8.934576,-0.95811 -3.107717,-0.10659 -6.293103,-0.10659 -9.400819,-0.10659 -3.185386,0 -6.448479,-0.4258 -9.633903,-0.5323 -2.952302,-0.10621 -5.904604,0.31937 -8.856907,0 -3.10768,0 -6.215396,-0.31937 -9.400782,-0.21279 0.07786,-0.10658 0,0 0,0 z"
     fill="#000000"
     id="path6"
     style="stroke-width:0.999999" />
  <path
     opacity="0.5"
     d="m 98.92267,63.53458 c 0.9326,0.53228 1.94261,0.63871 2.95261,0.85161 1.24297,0.21316 2.40798,0.42587 3.65099,0.53227 2.56399,0.42591 5.20599,0.74532 7.76999,0.85172 2.56301,0.10658 5.05001,0.74528 7.61302,0.74528 2.71998,0.10658 5.361,0.53231 8.07999,0.53231 5.206,0 10.41101,-0.63878 15.61701,-0.74529 2.33,0 4.50599,-0.5323 6.83698,-0.85171 1.08699,-0.10659 2.175,-0.4258 3.26301,-0.4258 0.54301,0 1.087,-0.10659 1.39801,-0.63878 0,0 0.0779,-0.21279 0.0779,-0.31937 -0.46601,-0.53231 -1.08801,-0.53231 -1.70903,-0.53231 -0.77699,0 -1.632,-0.21317 -2.40899,-0.21317 -1.942,-0.10658 -3.80701,-0.95811 -5.67099,-1.06461 -4.04002,-0.21279 -8.07999,-0.95808 -12.12,-0.95808 -1.787,0 -3.574,-0.31937 -5.361,-0.21278 -1.787,0 -3.652,0.10658 -5.439,0.31937 -1.86399,0.21316 -3.729,0.21316 -5.59401,0.42587 -1.94199,0.21279 -3.807,0.63882 -5.749,0.74521 -0.0779,0 -0.388,0.4258 -0.23319,0.4258 2.02,0.85168 4.19501,0.85168 6.21501,0.63878 1.00997,-0.10658 1.94298,-0.10658 2.95299,0.10659 1.08699,0.21278 2.09699,0.4258 3.185,0.4258 2.09798,0 4.11799,0.42591 6.13799,0.21278 0.46602,0 0.85501,-0.21278 1.32102,-0.21278 0.46598,0 0.932,0.21278 1.47599,0.21278 1.08801,0 2.175,-0.10658 3.26301,-0.10658 0.0779,0 0.0779,-0.10658 0.0779,-0.10658 -0.93301,0 -1.86501,0 -2.87501,-0.10658 -0.855,0 -1.70899,-0.42588 -2.642,-0.21317 -2.17501,0.53231 -4.42802,-0.10658 -6.681,-0.10658 -0.93199,0 -1.86501,-0.21279 -2.797,-0.31937 -1.08801,-0.21279 -2.175,-0.21279 -3.34099,-0.21279 -1.70903,0.10658 -3.49602,0.10658 -5.12802,-0.31937 1.16602,-0.10658 2.33102,-0.31937 3.57399,-0.53227 1.86501,-0.21279 3.80701,-0.31937 5.67202,-0.53231 1.86398,-0.21279 3.72899,-0.31937 5.67099,-0.42591 1.94301,-0.10659 3.807,0.10658 5.75002,0.21316 3.96196,0.10621 7.84698,0.6387 11.80898,0.95811 1.787,0.10658 3.574,0.53231 5.43799,0.95819 0.855,0.21279 1.71001,0.21279 2.56403,0.31937 0.77699,0.10658 1.70899,-0.10658 2.33098,0.53231 -0.54398,0.42591 -1.632,0.10658 -2.175,0.21316 -1.01,0 -2.09798,0.31937 -3.03001,0.53231 -2.33099,0.53231 -4.66197,0.6387 -6.993,0.6387 -2.48598,0 -4.89399,0.42588 -7.37998,0.53231 -2.56399,0.10658 -5.12802,0.21317 -7.77003,0.31937 -4.89399,0.10658 -9.78897,-0.95811 -14.68399,-1.17112 -2.48598,-0.10659 -4.97201,-0.4258 -7.37998,-0.74517 -1.24301,-0.21279 -2.56399,-0.31937 -3.807,-0.63871 -1.08802,-0.21316 -2.17599,-0.31937 -3.26302,-0.95822 0.46601,-0.4258 1.165,-0.21279 1.70902,-0.4258 1.01001,-0.21317 2.02001,-0.42588 3.10799,-0.53231 2.25301,-0.21317 4.42801,-0.53227 6.60302,-0.85168 2.25298,-0.31937 4.584,-0.53231 6.83698,-0.74521 2.33102,-0.21316 4.74001,-0.31937 7.07002,-0.42588 2.17599,-0.10658 4.19599,0 6.371,0.10659 2.25297,0.10658 4.50599,-0.10659 6.759,0 2.25298,0.10658 4.50697,0.31937 6.68198,0.53227 1.08801,0.10658 2.175,0.21278 3.26302,0.31937 0.855,0.10658 1.86497,0 2.56399,0.4258 l 0.0779,-0.10658 c -0.622,-0.42581 -1.39899,-0.31937 -2.02001,-0.53231 -1.08801,-0.21279 -2.25399,-0.31937 -3.34099,-0.42577 -2.33102,-0.21278 -4.66201,-0.4258 -6.99299,-0.63881 -2.33001,-0.21279 -4.739,0.10658 -7.07002,-0.10658 -1.087,-0.10659 -2.25298,-0.21279 -3.34001,-0.31937 -1.24297,0 -2.48701,0.10658 -3.72998,0.21278 -4.66103,0.21279 -9.323,0.74521 -13.98402,1.27748 -2.33099,0.31937 -4.584,0.53231 -6.91499,0.85172 -0.85398,0.10658 -1.70899,0.31937 -2.56399,0.42591 -0.54403,0.10621 -1.01001,0.31937 -1.3982,0.85161 -0.15534,0.31937 -0.2332,0.53238 -0.15534,0.53238 z"
     fill="#000000"
     id="path8"
     style="stroke-width:0.999999" />
  <path
     opacity="0.5"
     d="m 165.97127,62.89588 c 5.67201,0.10658 11.26602,-0.31937 16.93701,-0.31937 2.797,0 5.594,-0.10658 8.46897,0 1.39801,0 2.79701,0.10658 4.27302,0.21279 1.39801,0.10658 2.79701,0.53231 4.11799,0.53231 0.62101,0 1.24301,0 1.86402,0 0.54399,0 1.16599,0.21279 1.70899,0.21279 1.32099,0.10658 2.64201,0 3.96299,0 1.32,0 2.64102,0 3.962,-0.10659 1.32102,-0.10658 2.642,-0.31937 3.962,-0.31937 1.32103,0 2.64201,-0.21278 3.96299,-0.21278 1.24301,0 2.48602,0.21278 3.80701,0 1.32,-0.10659 2.64102,-0.21317 3.962,-0.31937 0.62101,-0.10659 1.32102,-0.21317 1.942,-0.42592 0.69902,-0.10658 1.47601,-0.53231 2.17602,-0.10658 l 0.0771,-0.10658 c -0.77699,-0.53231 -1.94199,0 -2.797,0.10658 -1.32,0.21279 -2.56301,0.21279 -3.88399,0.31937 -1.47602,0.10658 -2.87501,0.10658 -4.35103,0.10658 -1.32098,-0.10658 -2.64201,0.21279 -3.96201,0.21279 -2.642,0 -5.28298,0.31937 -7.92498,0.31937 -1.32099,0 -2.64201,0 -3.96201,0 -1.32098,0 -2.56399,-0.21279 -3.807,-0.21279 -1.32098,0 -2.71899,-0.4258 -4.11799,-0.53231 -1.39801,-0.10658 -2.797,-0.21279 -4.27302,-0.21279 -2.797,-0.10658 -5.59396,0 -8.46799,0 -5.98299,0.10659 -11.81,0.63871 -17.63698,0.85172 0,-0.10658 -0.0771,0 0,0 z"
     fill="#000000"
     id="path10"
     style="stroke-width:0.999999" />
  <path
     opacity="0.5"
     d="m 9.809759,66.94126 c 2.952299,-0.4258 5.982301,-0.74517 8.9346,-0.85168 2.641602,-0.1062 5.283103,0.10659 8.002303,-0.21278 2.874599,-0.31937 5.749296,-0.85172 8.623899,-1.17113 3.030009,-0.31937 6.060018,-0.4258 9.08999,-0.74517 2.952302,-0.4258 5.904605,-1.06462 8.856907,-1.38403 1.553915,-0.21278 3.107718,-0.10658 4.661595,-0.21278 1.553801,-0.10659 3.030009,-0.21279 4.583811,-0.21279 5.982387,0.31937 11.886992,0.21279 17.869304,0.21279 2.175383,0 4.273096,0.53231 6.448479,0.42591 1.08771,0 2.253014,0 3.340724,0 1.087673,0 2.097676,-0.42591 3.185386,0 0,0 0.07786,-0.10658 0,-0.10658 -1.165304,-0.53231 -2.641512,0 -3.884598,0 -1.553802,0 -3.03001,0 -4.583811,-0.10658 -1.320794,-0.10659 -2.719295,-0.31937 -4.039975,-0.53231 -1.476208,-0.21279 -3.030123,0 -4.428511,0 -3.030009,0 -6.137688,0 -9.167697,0 -2.952303,0 -5.827011,-0.31937 -8.701607,-0.10621 -2.874595,0.21279 -5.749191,0.31937 -8.623787,0.74521 -3.107716,0.53231 -6.137726,0.95811 -9.245404,1.27748 -2.874709,0.21279 -5.749307,0.42592 -8.623906,0.95823 -2.874599,0.53231 -5.826902,0.8516 -8.7792,0.95811 -2.175402,0.10658 -4.2731,0 -6.448502,0.21278 -2.4862,0.10659 -4.739301,0.42588 -7.07,0.85168 0,-0.10658 -0.07771,0 0,0 z"
     fill="#000000"
     id="path12"
     style="stroke-width:0.999999" />
  <path
     opacity="0.5"
     d="m 8.488898,77.05509 c 2.796964,-1.06462 5.904661,-0.85172 8.779261,-1.06462 2.952302,-0.21279 5.9823,-1.06458 8.934602,-1.06458 5.982301,0 11.964687,-0.53231 17.946999,-0.85171 2.796889,-0.10659 5.671484,-0.10659 8.468485,-0.31937 2.952304,-0.21279 5.982313,-0.42581 8.934616,-0.53231 2.952302,-0.10659 5.904605,-0.31937 8.856907,-0.31937 2.952302,0 5.982312,0 8.93469,0.10658 3.573808,0 7.070022,0.31937 10.566123,0.53231 1.786998,0.10658 3.573883,0.10658 5.360768,0.31937 1.786921,0.21279 3.573921,0.53231 5.360921,0.6387 6.99201,0.42588 14.062,-0.74521 20.97698,0.21279 l 0.0779,-0.10659 c -5.82697,-0.85171 -11.73199,-0.31937 -17.559,-0.42591 -2.87498,0 -5.7492,-0.4258 -8.623791,-0.8516 -2.952302,-0.42588 -5.904604,-0.42588 -8.856907,-0.74529 -11.731578,-0.8516 -23.540901,-0.21279 -35.272404,0.63878 -3.496177,0.21279 -7.069985,0.31937 -10.566199,0.31937 -3.729192,0 -7.458492,0.63882 -11.187692,0.74521 -1.7092,0 -3.418499,-0.10658 -5.05,0.10658 -1.7869,0.21279 -3.573899,0.53231 -5.438502,0.85161 -1.786897,0.21316 -3.573899,0.42591 -5.360799,0.5323 -1.709201,0.31937 -3.573801,0.42592 -5.283062,1.2776 0,-0.10659 0,0 0,0 z"
     fill="#000000"
     id="path14"
     style="stroke-width:0.999999" />
  <path
     opacity="0.5"
     d="m 6.857419,74.28727 c 2.253079,0 4.506142,-0.42588 6.75924,-0.63878 2.486199,-0.21279 4.972301,-0.21279 7.380801,-0.21279 4.661499,-0.10658 9.4008,-0.10658 14.062299,-0.63882 2.563899,-0.31937 5.049989,-0.5323 7.691614,-0.63881 2.563805,0 5.049978,-0.31937 7.536076,-0.53227 2.563918,-0.21279 5.050129,-0.74521 7.613897,-1.06462 1.320831,-0.21279 2.563918,-0.21279 3.884598,-0.53231 0.854703,-0.21279 1.631622,0 2.408504,-0.6387 0.07786,-0.10658 0.233197,-0.21279 0.155339,-0.42588 -0.233197,-0.31937 -0.388498,-0.4258 -0.699175,-0.53231 -0.388498,-0.1062 -0.776995,-0.21278 -1.243124,-0.31937 -1.087673,-0.31937 -2.25309,-0.31937 -3.41847,-0.31937 -2.486211,-0.10658 -5.050017,-0.10658 -7.536228,-0.10658 -4.972308,0.10658 -10.022286,0.4258 -14.994591,0.74521 -5.05,0.21317 -10.022301,0.53231 -15.072298,0.74528 -2.4862,0.10659 -4.8947,0.10659 -7.380801,0.31937 -2.175402,0.10659 -4.4285,-0.7452 -6.526183,0.10659 -0.07771,0 -0.155376,0.21278 -0.07771,0.21278 2.175383,-0.85167 4.583883,0.10659 6.836882,0 2.330801,-0.10658 4.661602,-0.21278 7.070102,-0.21278 4.894598,-0.10659 9.789199,-0.53231 14.683796,-0.74521 4.894715,-0.21317 9.789317,-0.53227 14.683918,-0.63878 2.408504,-0.1062 4.817009,-0.1062 7.2254,0 1.165379,0 2.330797,0.21279 3.573883,0.21279 0.466092,0 1.010004,0.21278 1.476095,0.42587 0.388498,0.10621 0.854627,0.10621 1.165417,0.42581 -0.776919,0.42591 -1.631508,0.31937 -2.408504,0.5323 -1.243011,0.31938 -2.563804,0.31938 -3.884598,0.53231 -2.563806,0.31937 -5.050017,0.85172 -7.613784,1.06462 -2.641625,0.21279 -5.20543,0.53227 -7.847017,0.53227 -2.330684,0 -4.661507,0.31937 -7.070006,0.63882 -4.739203,0.6387 -9.556203,0.53231 -14.373102,0.63878 -2.253101,0.10658 -4.506198,0.10658 -6.759299,0.31937 -2.486102,0 -4.894572,0.5323 -7.303042,0.74532 0,-0.10658 -0.07771,0 0,0 z"
     fill="#000000"
     id="path16"
     style="stroke-width:0.999999" />
  <path
     opacity="0.5"
     d="m 12.528759,95.259863 c 1.5539,-0.4258 3.107702,-0.85168 4.739199,-0.85168 1.631603,-0.10658 3.185503,-0.4258 4.817001,-0.5323 3.185401,0 6.293102,-0.63882 9.4008,-1.27752 3.418401,-0.74517 6.836915,-1.80979 10.333091,-2.44857 3.496101,-0.63881 6.992315,-1.27752 10.488529,-1.80983 7.069986,-1.06458 14.13997,-0.95818 21.287699,-1.06458 6.992277,-0.10658 13.984592,-0.42591 20.97687,-0.74532 7.147312,-0.31937 14.295312,-0.74517 21.443302,-1.17097 6.99201,-0.42592 14.06203,-0.74532 21.05503,-1.38403 14.217,-1.17108 28.357,-2.76797 42.49697,-4.4714 8.39101,-0.958083 16.78201,-2.022693 25.17301,-2.980883 4.19502,-0.53231 8.468,-0.95811 12.66399,-1.80979 2.09704,-0.4258 4.27302,-0.85172 6.37002,-1.06462 1.08801,-0.10658 2.09801,-0.10658 3.18599,0 0.54402,0 1.08699,0.10659 1.63102,0.21279 0.15609,0 1.16598,0.10658 0.46597,0.10658 l -0.0771,0.10659 c 0.15496,0 0.23282,0 0.38801,0 l 0.0779,-0.10659 c -3.10798,-1.06461 -6.371,-0.5323 -9.47898,0 -3.49603,0.63882 -6.91401,1.27752 -10.333,1.7034 -6.99202,0.74521 -14.062,1.59689 -21.05401,2.4486 -14.06302,1.596893 -28.20299,3.300213 -42.26499,4.684203 -14.37301,1.38399 -28.824,2.1292 -43.19701,2.98091 -7.0701,0.42588 -14.140123,0.63878 -21.210108,0.95819 -6.992315,0.21279 -13.906998,0.10658 -20.899313,0.4258 -8.313072,0.4258 -16.626181,2.0228 -24.783891,4.152 -3.9623,0.95811 -8.002298,1.91622 -12.042299,2.3421 -1.8646,0.21279 -3.7292,0 -5.593901,0.4258 -2.019999,0.42591 -3.962298,0.53231 -5.904601,1.27759 -0.155415,-0.21316 -0.233084,0 -0.155415,-0.10658 z"
     fill="#000000"
     id="path18"
     style="stroke-width:0.999999" />
  <path
     opacity="0.5"
     d="m 9.576559,102.81847 c 3.030002,-1.27699 6.215399,-1.916 9.4008,-2.555 3.3408,-0.63871 6.759202,-0.95811 10.177701,-1.27748 3.573899,-0.4258 7.069999,-0.85172 10.643784,-1.064617 3.573921,-0.21279 7.070135,-0.53231 10.643905,-0.74521 6.992316,-0.53227 13.984707,-1.27748 20.977022,-2.1292 7.147692,-0.74517 14.295383,-0.42587 21.443074,-0.74517 7.070395,-0.31937 14.140425,-0.95822 21.210405,-0.85172 7.07002,0 14.14001,1.06462 21.21003,1.59689 6.99198,0.53231 14.062,0.74521 21.05397,1.59693 6.83702,0.85168 13.67403,1.809787 20.433,2.554997 4.11802,0.42587 8.15803,1.17158 12.27602,1.70358 4.27298,0.53201 8.62401,0.63901 12.89699,0.85202 4.19501,0.21203 8.39101,0.42497 12.50801,1.06398 2.02001,0.31899 4.11798,0.31899 6.13799,0.639 0.93199,0.21317 1.86501,0.42599 2.797,0.31899 1.08801,-0.1062 2.17501,-0.42599 3.26302,-0.42599 l 0.0779,-0.10583 c -1.47602,0 -2.95302,0.74499 -4.429,0.426 -1.787,-0.32013 -3.49603,-0.63901 -5.28303,-0.85199 -3.49599,-0.31899 -6.914,-0.85201 -10.41097,-1.06401 -6.914,-0.53299 -13.75102,-0.639 -20.666,-1.597 -13.75102,-1.91671 -27.50302,-4.152417 -41.25502,-5.004087 -3.49599,-0.21279 -6.99201,-0.42581 -10.56601,-0.63871 -3.49599,-0.21278 -6.99198,-0.74521 -10.56597,-1.06461 -7.07003,-0.63878 -14.21802,-0.42588 -21.36503,-0.10659 -3.49648,0.21279 -6.992581,0.53231 -10.488795,0.63882 -3.496101,0.10658 -7.069985,0.10658 -10.566199,0.21279 -6.992315,0.10658 -13.906885,1.17108 -20.821493,1.80979 -8.779315,0.85171 -17.636222,1.38402 -26.415508,2.129187 -2.019999,0.21317 -4.039997,0.63882 -6.06,0.85172 -2.175398,0.21316 -4.350799,0.42588 -6.526197,0.85168 -2.020003,0.31975 -3.962302,0.85183 -5.904601,1.27782 -1.8646,0.21316 -3.806899,0.74498 -5.826902,1.70298 0,-0.10621 0,0 0,0 z"
     fill="#000000"
     id="path20"
     style="stroke-width:0.999999" />
  <path
     opacity="0.5"
     d="m 136.21528,91.533483 c 1.24297,0.21278 2.48598,0.5323 3.72899,0.63881 2.95298,0.42577 5.90498,0.63867 8.85698,0.95807 2.952,0.31937 5.90502,0.95823 8.85702,1.2776 5.82701,0.53231 11.57598,1.38391 17.40299,2.1292 5.90502,0.8516 11.73199,1.17101 17.63599,1.17101 6.06002,0 12.04301,1.171117 18.10303,2.022797 3.02998,0.4255 6.05999,0.74551 9.08999,0.85149 2.952,0.10696 5.904,-0.21317 8.85699,-0.21317 0.93199,0 1.86402,0 2.797,-0.1062 0.0771,0 0.0771,-0.10696 0.0771,-0.10696 -2.797,-0.10583 -5.51599,0.10696 -8.31299,0.10696 -3.03001,0.1062 -6.05999,-0.21317 -9.08999,-0.5325 -3.03001,-0.31937 -6.06002,-0.85168 -9.09,-1.17109 -3.03,-0.31937 -5.982,-1.064607 -9.01201,-1.171007 -2.952,-0.10658 -5.90499,0 -8.935,-0.10658 -2.952,-0.10658 -5.904,-0.42588 -8.77901,-0.74521 -5.82701,-0.63878 -11.57597,-1.80986 -17.40298,-2.34217 -2.952,-0.21279 -5.82701,-0.6387 -8.70203,-1.06462 -2.952,-0.4258 -5.98197,-0.6387 -8.93397,-0.95807 -1.39903,-0.21279 -2.797,-0.42592 -4.19603,-0.63882 -0.62098,-0.1062 -1.24297,-0.21278 -1.86399,-0.4258 -0.54398,-0.21279 -1.08801,-0.10658 -1.55399,-0.42591 -0.855,-0.63871 0.777,-1.49038 1.08802,-1.59689 0.69898,-0.31937 1.47598,-0.6387 2.17496,-0.85172 3.65103,-1.17097 7.381,-2.02269 11.11004,-2.1292 3.02997,-0.10658 5.98197,0 9.01198,0 2.95298,0 5.82701,-0.21278 8.77901,-0.53227 5.594,-0.6387 11.18801,-0.95811 16.78197,-1.49042 5.51603,-0.5323 10.87703,-1.17108 16.31501,-2.2357 2.72002,-0.53231 5.43901,-0.85168 8.23601,-1.38399 2.64098,-0.4258 5.28298,-0.95811 7.92499,-0.95811 2.48602,0 5.05001,-0.745213 7.536,-1.064583 2.56399,-0.31937 5.127,-0.95822 7.691,-1.17112 0,0 0.0779,-0.10658 0,-0.10658 -2.40798,0.21316 -4.894,0.74532 -7.303,0.95822 -1.32098,0.10658 -2.71899,0.21279 -4.04001,0.4258 -1.63098,0.31937 -3.18497,0.42588 -4.81697,0.42588 -1.08703,0 -2.33102,0.31937 -3.41801,0.425803 -1.55399,0.21279 -3.03001,0.42592 -4.584,0.74521 -2.952,0.53231 -5.98201,0.95819 -8.935,1.49049 -5.904,1.06462 -11.88699,1.7034 -17.869,2.23571 -3.03001,0.31937 -6.06002,0.4258 -9.08999,0.74521 -3.18501,0.31937 -6.29303,0.74517 -9.47902,0.95807 -5.82599,0.42592 -11.653,-0.31937 -17.40298,0.63882 -2.87399,0.5323 -5.904,1.17108 -8.62299,2.4486 -0.467,0.21279 -1.632,0.74521 -1.632,1.59689 0,0.95811 0.62199,1.17112 1.00996,1.27752 z"
     fill="#000000"
     id="path22"
     style="stroke-width:0.999999" />
  <path
     opacity="0.5"
     d="m 188.89025,90.362773 c 2.17602,1.49042 4.66201,1.80979 7.07002,2.2357 2.95298,0.53231 5.90498,0.74521 8.93499,1.27752 4.04002,0.6387 8.07999,1.27748 12.12,1.70339 2.02001,0.21279 4.04002,0.21279 5.98201,0.21279 1.71001,0 3.80701,-0.10658 5.43901,0.74517 -0.85501,-0.53227 -1.942,-0.74517 -2.952,-0.85167 -1.477,-0.21279 -3.03001,-0.10659 -4.50701,-0.10659 -2.952,-0.10658 -5.98201,-0.53231 -8.93401,-0.95818 -5.90499,-0.85172 -11.887,-1.59693 -17.79198,-2.66151 -1.32102,-0.21279 -2.56403,-0.4258 -3.807,-1.06462 -0.46602,-0.21278 -1.01001,-0.5323 -1.47602,-0.74521 -0.2332,-0.10658 -0.38801,-0.31937 -0.54399,-0.42587 -0.62101,-0.63871 0.2332,-1.27752 0.622,-1.38403 2.33098,-0.85156 4.739,-0.95807 7.14799,-1.49038 2.87399,-0.63881 5.67099,-0.95818 8.546,-0.74521 2.719,0.21279 5.36002,0.31937 8.07999,-0.42588 2.87403,-0.74521 5.749,-1.17101 8.62402,-1.49041 1.398,-0.10659 2.79601,-0.31937 4.19501,-0.53231 1.47598,-0.21317 2.952,0.4258 4.42798,-0.10659 0,0 0.0779,-0.1062 0,-0.1062 -1.32,0.4258 -2.64099,-0.10658 -4.03998,0 -1.55301,0.1062 -3.03001,0.4258 -4.58301,0.53231 -2.87502,0.31937 -5.74999,0.6387 -8.62402,1.38391 -2.87497,0.74528 -5.74998,0.53231 -8.70198,0.31937 -2.64098,-0.21279 -5.28299,0.21279 -7.92401,0.74521 -2.40899,0.53227 -4.73998,0.74528 -7.14799,1.49049 -0.46602,0.10659 -0.85501,0.42581 -1.16599,0.95808 -0.15496,0.63881 0.54399,1.17112 1.00997,1.49053 z"
     fill="#000000"
     id="path24"
     style="stroke-width:0.999999" />
  <path
     opacity="0.5"
     d="m 214.76225,91.321073 c 0.2332,0.4258 0.54402,0.6387 0.93301,0.74521 0.62102,0.21278 1.32,0.4258 1.942,0.5323 1.39801,0.31938 2.797,0.21279 4.19501,0.10659 1.55399,-0.10659 3.03001,0 4.584,0.10658 0.622,0 1.24301,0.10658 1.86501,0.21279 0.46598,0.10658 0.85398,0.42587 1.32,0.21316 0,0 0.0779,-0.10658 0,-0.10658 -0.46602,0.10658 -0.85402,-0.21279 -1.24301,-0.31937 -0.54301,-0.10658 -1.01,-0.21279 -1.55301,-0.21279 -1.08797,-0.10658 -2.09798,-0.31937 -3.18599,-0.31937 -2.33099,0.10659 -4.584,0.42588 -6.914,-0.31937 -0.467,-0.1062 -1.08802,-0.21278 -1.47701,-0.53231 -0.85398,-0.6387 0.38899,-1.49041 0.70001,-1.59688 1.01,-0.53231 2.097,-0.85172 3.26298,-1.06462 1.08703,-0.21279 2.17501,-0.31937 3.18501,-0.74521 1.08801,-0.42588 2.25301,-0.74521 3.34103,-1.06458 l 0.0779,-0.10658 c -1.32102,0.31937 -2.642,0.74517 -3.88501,1.17108 -1.32102,0.42581 -2.797,0.42581 -4.11798,0.85172 -0.54403,0 -3.80701,0.95807 -3.03001,2.44857 z"
     fill="#000000"
     id="path26"
     style="stroke-width:0.999999" />
  <path
     opacity="0.5"
     d="m 170.78828,92.598473 c 1.24297,0.85172 2.33098,1.38399 3.72899,1.70332 1.632,0.31937 3.34099,0.31937 4.97299,0.53227 2.87399,0.31937 5.749,0.95823 8.546,1.597 -2.09801,-0.5323 -4.27298,-0.95818 -6.449,-1.38398 -1.24298,-0.21279 -2.48599,-0.53231 -3.80701,-0.63882 -1.47598,-0.10658 -2.87399,-0.31937 -4.27298,-0.63878 -1.08699,-0.31937 -2.02001,-1.06461 -3.03001,-1.70332 -1.08699,-0.63878 0.2332,-2.12919 0.855,-2.6615 0.54399,-0.42588 1.24302,-0.53227 1.86501,-0.74529 2.40802,-0.6387 4.739,-1.49038 7.06999,-2.555 0,0 0.0771,-0.21278 0.0771,-0.10658 -1.47598,0.53231 -2.87399,1.06462 -4.35099,1.59689 -1.32,0.42591 -2.719,0.63882 -3.96201,1.17112 -0.69898,0.31937 -1.55399,0.85168 -2.02,1.80979 -0.54399,1.17109 0,1.59689 0.77699,2.02281 z"
     fill="#000000"
     id="path28"
     style="stroke-width:0.999999" />
  <path
     opacity="0.5"
     d="m 91.619872,109.63148 c 3.029972,-0.53201 6.059978,-0.42599 9.090408,-0.42599 2.87399,0 5.82697,0.53299 8.701,0.42599 2.952,-0.10621 5.82697,-0.42599 8.77897,-0.53201 2.95302,-0.1062 5.82702,-0.42599 8.78,-0.74498 12.35301,-1.27801 24.70601,-1.49102 37.05902,-1.597 11.11,0 22.29801,0.21316 33.408,0.21316 2.71899,0 5.43799,-0.21316 8.15698,-0.21316 2.72001,-0.10696 5.36103,0 8.08002,0 2.64201,-0.10696 5.43901,0 8.003,0.63897 1.39801,0.31899 2.797,0.532 4.19501,0.63802 1.16599,0.10696 2.33099,0 3.49599,0.53299 0,0 0.0779,0 0,-0.10696 -1.08699,-0.63901 -2.25301,-0.53201 -3.41801,-0.74499 -1.47599,-0.21316 -3.02998,-0.42602 -4.50599,-0.85202 -2.79701,-0.74498 -5.82702,-0.63798 -8.70199,-0.63798 -2.87403,0.10621 -5.82701,-0.10696 -8.701,0 -2.95302,0.10621 -5.98303,0.21317 -8.93503,0.21317 -5.98197,0 -11.96496,-0.32013 -17.94697,-0.32013 -6.138,0 -12.275,0 -18.41303,0 -11.26598,0.10696 -22.53097,0.53201 -33.79597,1.70298 -2.87501,0.32013 -5.75002,0.42603 -8.70202,0.53303 -2.797,0.1062 -5.59401,0.53196 -8.313,0.53196 -2.71899,0 -5.36099,-0.31899 -8.07999,-0.31899 -2.71921,0 -5.43851,0.10621 -8.157691,0.63802 -0.07786,0.32013 -0.07786,0.426 -0.07786,0.426 z"
     fill="#000000"
     id="path30"
     style="stroke-width:0.999999" />
  <path
     opacity="0.5"
     d="m 145.84925,111.86749 c 0.70001,-0.319 1.39903,-0.21317 2.09802,-0.319 0.622,0 1.24301,-0.21316 1.942,-0.21316 1.47601,0 2.95298,0.1062 4.429,0.21316 2.797,0.21317 5.67099,0.10621 8.46799,-0.10696 2.95302,-0.21203 5.98299,-0.63802 8.93499,-1.06401 3.03001,-0.32013 6.06002,-0.42599 9.09003,-0.42599 2.87498,0 5.749,0.10583 8.701,0.21317 2.87498,0.1062 5.74999,0.532 8.70199,0.532 2.87501,0 5.67201,0.32013 8.46901,0.21317 1.08699,0 2.17497,-0.42603 3.26298,-0.53201 0.62102,-0.10696 1.165,-0.21316 1.787,-0.42599 0.69902,-0.21317 1.47602,-0.1062 2.175,-0.21317 1.47602,-0.21316 2.95201,-0.31899 4.42802,-0.31899 0.777,0 1.55399,0.21317 2.25298,0.21317 0.777,0 1.55399,0 2.33102,0.10582 0.777,0.10697 1.55399,0.426 2.33099,0.63897 0.777,0.21317 1.632,0.21317 2.40801,0.31899 0.777,0.10696 1.477,0.32013 2.254,0.53303 0.77597,0.21203 1.63098,0 2.40797,0 l 0.0779,-0.10696 c -0.62199,0 -1.32098,0 -1.94298,-0.1062 -0.62101,-0.10697 -1.24301,-0.53303 -1.94199,-0.63901 -1.47602,-0.21316 -2.952,-0.32013 -4.42802,-0.74502 -1.32099,-0.42599 -2.64201,-0.32013 -3.96299,-0.42599 -0.69902,0 -1.32,-0.21317 -1.942,-0.10696 -0.77699,0 -1.47601,0.21316 -2.25301,0.21316 -1.165,0.10696 -2.33099,0.10696 -3.49599,0.32013 -0.54402,0.1062 -1.16602,0.21317 -1.70902,0.42501 -0.69997,0.10696 -1.32099,0.10696 -2.01997,0.32012 -2.797,0.74499 -5.75002,0 -8.62402,0 -1.32098,0 -2.642,0 -3.96298,0 -1.55403,0 -3.03001,-0.42599 -4.584,-0.532 -2.87403,-0.10696 -5.82603,-0.21317 -8.701,-0.21317 -2.797,0 -5.59401,-0.10696 -8.39101,0.21317 -2.952,0.31899 -5.98201,0.74502 -8.93401,1.06401 -3.419,0.42599 -6.83701,0.53201 -10.25601,0.42599 -1.63098,0 -3.26298,-0.1062 -4.89498,-0.1062 -0.62101,0 -1.32,0.1062 -1.942,0.21203 -0.93199,0.21316 -1.70902,0.10696 -2.56399,0.42599 z"
     fill="#000000"
     id="path32"
     style="stroke-width:0.999999" />
  <path
     opacity="0.5"
     d="m 37.623658,110.90949 c 2.253006,-0.63901 4.428389,0.10696 6.681517,0.53197 2.175382,0.32012 4.428472,0.32012 6.603893,0.42603 2.175382,0 4.272982,0 6.448404,0.10696 2.097675,0 4.117682,0.31899 6.137688,0.21316 4.11772,-0.21316 8.235402,-0.639 12.430791,-0.85202 1.010003,0 2.020006,0 3.030009,0.10621 1.165417,0.10696 2.408504,0 3.573884,0.10696 1.165417,0 2.253127,0.21316 3.418507,0.21316 1.010003,0 2.020006,-0.21316 3.030009,-0.42599 0,0 0.07786,-0.1062 0,-0.1062 -1.08771,0.1062 -2.175382,0.31899 -3.263093,0.31899 -1.165417,0 -2.253089,-0.31899 -3.418507,-0.42599 -1.08771,-0.1062 -2.097713,0 -3.185386,-0.1062 -1.08771,-0.10697 -2.17542,-0.21317 -3.340724,-0.10697 -4.273096,0.21317 -8.468485,0.63901 -12.741581,0.85199 -1.9423,0.1062 -3.884599,-0.21317 -5.827011,-0.21317 -2.175309,0 -4.350691,0 -6.448405,0 -2.175382,0 -4.42851,0 -6.603893,-0.31899 -2.253089,-0.42599 -4.350803,-1.065 -6.526102,-0.32013 0,-0.10582 0,0 0,0 z"
     fill="#000000"
     id="path34"
     style="stroke-width:0.999999" />
  <path
     opacity="0.5"
     d="m 5.3809808,111.65447 c 1.2430862,-0.74498 2.6415572,-0.63798 3.9623282,-0.74498 1.476152,-0.10583 2.95225,-0.31899 4.42845,-0.42603 3.030002,-0.42497 5.982301,-1.27699 9.012303,-1.38399 5.7493,-0.21316 11.420798,-1.70301 17.170083,-1.597 2.874633,0 5.826897,0.21317 8.70153,0.42599 3.030085,0.32013 6.137689,0.10696 9.167699,0.10696 5.826973,0 11.731578,0.53201 17.558589,-0.10696 3.03001,-0.31899 5.982312,-0.74498 9.012284,-1.06397 1.398425,-0.10696 2.719219,-0.32013 4.11772,-0.42603 1.476094,-0.10696 2.952302,0.1062 4.428396,0 2.797002,-0.10696 5.671597,-0.32013 8.468907,-0.53197 2.87399,-0.21316 5.82701,-0.42603 8.701,-0.85202 2.952,-0.42599 5.90498,-0.639 8.85698,-0.85198 3.10802,-0.31899 6.216,-0.639 9.323,-0.85202 2.95302,-0.21203 5.90502,-0.42501 8.85702,-0.42501 1.08801,0 2.25301,-0.10696 3.34099,-0.32012 0.54402,-0.10583 1.32102,-0.31899 1.63102,-0.958 0.54398,-1.27699 -1.24302,-1.91618 -1.86403,-2.12908 -2.48598,-0.85172 -5.04998,-0.4258 -7.536,-0.74521 -2.95298,-0.4258 -5.98299,-0.31937 -9.013,-0.4258 -2.952,-0.10659 -5.904,-0.21317 -8.93397,-0.21317 -5.82701,0 -11.57602,-0.638697 -17.40341,-0.425797 -5.826894,0.21279 -11.653905,0.958107 -17.480803,1.596887 -3.107716,0.4258 -6.215395,0.74502 -9.323112,0.95799 -2.952302,0.21317 -5.982312,0.10697 -8.934576,0.21317 -5.827011,0.21317 -11.731617,0.85202 -17.558515,0.95803 -5.904718,0.10697 -11.731603,0.32013 -17.558505,1.38399 -2.952298,0.53201 -5.904699,1.49099 -8.856998,1.597 -2.874602,0.21317 -5.749202,0.958 -8.701512,1.065 -0.776931,0 -1.476151,0.21316 -2.253078,0.21316 -0.07771,0 -0.155415,0.21317 -0.07771,0.21317 2.719237,-0.10696 5.438491,-0.53299 8.157691,-0.746 1.476196,-0.10621 2.874599,-0.42599 4.350799,-0.319 1.398501,0 2.874599,-0.639 4.2731,-0.85198 2.7969,-0.532 5.593799,-1.17101 8.390801,-1.49 3.107697,-0.42603 6.293097,-0.42603 9.478521,-0.53201 5.904567,-0.10696 11.731503,-0.53302 17.636071,-0.95901 2.952415,-0.21317 5.982425,-0.21317 8.934727,-0.21317 2.874596,0 5.749191,-0.31899 8.701493,-0.74498 6.060095,-0.74502 12.120114,-1.49019 18.257802,-1.91611 2.874594,-0.212787 5.749194,-0.319367 8.624204,-0.212787 2.952,0.212787 5.904,0.425917 8.77901,0.425917 2.952,0.10658 5.90499,-1.1e-4 8.85699,0.10658 3.03001,0.10658 5.98201,0.31937 9.01201,0.31937 1.47599,0 2.87498,0.31937 4.27299,0.42577 1.47598,0.10658 2.95298,-0.10659 4.429,0.21316 0.69898,0.10658 1.47598,0.31937 2.175,0.63851 0.31106,0.21317 0.69899,0.42599 0.932,0.74502 0.77699,0.85199 -0.777,1.38399 -1.24301,1.49099 -2.79701,0.63901 -5.74901,0.31899 -8.62398,0.42599 -2.87403,0.21317 -5.749,0.31899 -8.546,0.53201 -3.107,0.31899 -6.13701,0.639 -9.24503,0.85198 -2.797,0.21316 -5.594,0.74502 -8.39097,0.95803 -3.03001,0.319 -6.06002,0.319 -9.08991,0.42599 -1.398506,0.10583 -2.797006,0.21317 -4.195394,0.21317 -1.476208,0 -3.030009,-0.10696 -4.506217,0 -5.826898,0.42501 -11.576202,1.70298 -17.480807,1.70298 -2.719181,0 -5.438475,-0.21317 -8.157694,-0.21317 -2.952303,-0.10582 -5.904605,0 -8.856908,0 -5.516183,0 -10.954697,-0.95799 -16.470902,-0.532 -2.563796,0.21316 -5.127699,0.532 -7.691496,0.851 -1.398501,0.21316 -2.7192,0.42602 -4.117701,0.53302 -1.398501,0.10621 -2.719302,0.10621 -4.117701,0.21317 -2.7969,0.31899 -5.593901,1.17097 -8.390801,1.597 -1.320797,0.21316 -2.7192,0.21316 -4.040009,0.53201 -1.087691,0.63896 -2.253082,0.53196 -3.3407702,1.27698 0,-0.1062 -0.07767,0 0,0 z"
     fill="#000000"
     id="path36"
     style="stroke-width:0.999999" />
  <path
     opacity="0.5"
     d="m 6.857491,108.88646 c 2.796967,0 5.516168,-1.17097 8.313068,-1.70298 1.3985,-0.31899 2.719302,-0.53201 4.1177,-0.74502 1.6316,-0.32013 3.263101,-0.10696 4.8947,-0.21317 2.7192,-0.21316 5.4384,-0.42599 8.157702,-0.42599 3.029999,-0.1062 6.059984,0 9.012287,-0.1062 5.982312,-0.32013 11.809209,-1.91698 17.791598,-1.91698 5.516107,0 11.032327,1.065 16.54851,0.63897 3.418394,-0.31899 6.836901,-0.21317 10.255408,-0.53197 3.418394,-0.32013 6.836901,-0.53303 10.255406,-0.95803 0.77688,-0.10696 1.5538,-0.21317 2.40839,-0.21317 0.85501,0 1.70899,0 2.564,0 1.63101,0 3.18501,0.10621 4.739,0.21317 0.77699,0 1.632,-0.10696 2.40899,0 0.77703,0.1062 1.47602,0 2.25302,-0.21317 0.93199,-0.10696 1.86398,-0.10696 2.797,-0.21316 1.01,-0.10697 2.02,-0.32013 3.107,-0.426 l 0.0779,-0.10696 c -2.797,0 -5.594,0.85202 -8.391,0.63901 -1.24301,-0.10583 -2.56399,0 -3.80701,-0.21317 -1.32098,-0.21316 -2.64098,0 -3.88399,-0.21316 -1.08801,-0.10621 -2.3311,0.10696 -3.49648,0.21316 -1.320831,0.21317 -2.719332,0.32013 -4.040012,0.42599 -1.320794,0.10696 -2.641587,0.10696 -3.962306,0.21317 -1.631584,0.21316 -3.185385,0.42599 -4.817007,0.42599 -2.874596,0.10583 -5.671484,0.21317 -8.546079,0.42603 -2.874709,0.21316 -5.671597,-0.10696 -8.54623,-0.32013 -5.671597,-0.532 -11.265374,-0.42599 -16.936972,0.42599 -3.729222,0.53201 -7.303105,1.065 -11.032327,1.17101 -3.651488,0.10696 -7.303086,0.10696 -10.876886,0.32013 -1.5539,0.10583 -3.107702,0.31899 -4.739301,0.31899 -1.7869,0 -3.5738,0.10583 -5.360799,0.42599 -1.7869,0.31899 -3.496101,0.63901 -5.283001,1.06402 -2.097698,0.63896 -3.96237,1.49098 -5.982369,1.597 0,-0.10583 -0.07771,0 0,0 z"
     fill="#000000"
     id="path38"
     style="stroke-width:0.999999" />
  <path
     opacity="0.5"
     d="m 79.266751,101.86047 c 1.243124,0 2.486211,-0.10621 3.651628,-0.10621 1.16538,0 2.330684,0 3.496101,-0.21316 1.243087,-0.21317 2.56388,-0.10696 3.806967,-0.32013 1.320718,-0.21316 2.874633,0 4.195427,0.10696 1.32068,0.10621 2.563806,0.21317 3.884596,0.21317 1.3208,0 2.56381,-0.21317 3.88479,-0.21317 1.165,-0.10696 2.40801,0.10621 3.574,-0.10696 0.62101,-0.1062 1.32,-0.21316 1.94199,-0.21316 0.46602,0 1.08802,-0.21317 1.47602,0 -0.23319,-0.10621 -0.46601,-0.319 -0.69902,-0.21317 -0.54399,0.32013 -1.24297,0.10696 -1.787,0.10696 -1.24297,0 -2.48598,0.21317 -3.72899,0.21317 -1.24298,0 -2.564,0.1062 -3.8072,0.21316 -1.3985,0.10621 -2.79689,0 -4.195388,-0.21316 -5.205392,-0.42599 -10.410822,0.532 -15.616214,0.74502 -0.07786,-0.21317 -0.155339,0 -0.07786,0 z"
     fill="#000000"
     id="path40"
     style="stroke-width:0.999999" />
  <path
     opacity="0.5"
     d="m 7.168191,89.191763 c 1.087699,0 2.253067,-0.10659 3.34077,-0.31937 1.398501,-0.31937 2.796998,0 4.2731,-0.10621 2.874599,-0.21316 5.749198,-0.21316 8.701599,-0.21316 5.749202,-0.10621 11.4207,-1.59689 17.092292,-2.555 5.904605,-0.95819 11.809323,-1.7034 17.713891,-2.44857 3.03001,-0.42591 6.060019,-0.85172 9.090029,-0.85172 2.719181,0 5.438475,-0.10658 8.157694,-0.31937 4.040013,-0.31937 8.157695,-0.5323 12.197708,-0.85171 4.195389,-0.31937 8.390776,-0.95807 12.585976,-0.95807 0,0 0.0779,-0.10659 0,-0.10659 -2.8744,0 -5.671293,0.21279 -8.546002,0.42588 -3.029971,0.21279 -6.137688,0.31937 -9.167697,0.53231 -2.874596,0.21279 -5.749191,0.53231 -8.546079,0.6387 -2.719295,0.10658 -5.438514,0.21317 -8.157808,0.21317 -2.874595,0 -5.749191,0.5323 -8.546117,0.95811 -2.952303,0.4258 -5.826974,0.85168 -8.779276,1.27748 -2.952303,0.31937 -5.904605,0.74532 -8.856908,1.17112 -2.874602,0.42577 -5.749303,1.17109 -8.701601,1.59689 -4.195401,0.63878 -8.390801,0.74521 -12.586201,0.74521 -1.942299,0 -3.884602,0.31937 -5.904601,0.21316 -1.7869,-0.10658 -3.496139,0.5322 -5.205382,0.74518 -0.155376,0.1062 -0.233083,0.21278 -0.155376,0.21278 z"
     fill="#000000"
     id="path42"
     style="stroke-width:0.999999" />
  <path
     opacity="0.5"
     d="m 7.401308,87.168763 c 0.38846,-0.31937 1.009992,-0.21278 1.476151,-0.31937 0.621498,-0.10658 1.165399,-0.10658 1.786901,-0.21316 1.4762,-0.10621 3.029998,-0.4258 4.506199,-0.74517 2.952302,-0.53231 5.904601,-0.4258 8.7792,-0.74521 5.982402,-0.63882 12.042401,-1.59693 18.024694,-2.76801 2.952303,-0.53231 5.826898,-1.06458 8.7792,-1.7034 1.320794,-0.31937 2.719295,-0.6387 4.040013,-1.06462 0.621581,-0.21278 1.320795,-0.1062 1.942414,-0.21278 0.543798,-0.106213 1.165266,-0.319373 1.709178,-0.319373 0.543798,0 1.165417,-0.21279 1.631508,-0.63867 0.233197,-0.21316 0.388498,-0.74532 0,-0.85172 -0.932296,-0.42591 -2.097713,-0.10658 -3.107716,-0.10658 -1.553803,0 -3.10768,0.42592 -4.583775,0.53231 -3.884598,0.21317 -7.76931,0.21317 -11.653908,0.21317 -1.864593,0 -3.651508,-0.21317 -5.516209,-0.21317 -1.864599,0 -3.729199,0.21317 -5.593799,0.21317 -1.7869,0 -3.496199,0.21278 -5.283099,0.10658 -0.776901,-0.10658 -1.631599,-0.10658 -2.4085,-0.10658 -0.8546,0 -1.398399,-0.31937 -2.253101,0 -0.776897,0.21278 -1.7869,0 -2.641501,0 -0.854596,0 -1.631497,0.10658 -2.486199,0.31937 -1.01,0.21316 -2.019999,0.5323 -3.107698,0.5323 -0.466103,0 -1.087703,0.10659 -1.553802,0.532273 0,0 -0.07771,0.21317 0,0.10659 0.466099,-0.425803 1.476201,-0.425803 2.097702,-0.425803 0.621498,0 1.087699,0 1.709197,-0.21317 1.553904,-0.53227 3.107702,-0.4258 4.661601,-0.4258 0.466099,0 1.01,0 1.476103,-0.10658 0.699299,-0.21279 1.243098,0.10658 1.942397,0.10658 1.398403,0 2.7192,0.31937 4.117603,0.21279 1.320797,0 2.641598,-0.21279 3.9624,-0.21279 1.476098,0 2.874599,-0.21279 4.272998,-0.21279 2.8747,-0.10658 5.749318,0.21279 8.623913,0.21279 2.952302,0 5.904605,0 8.856983,-0.21279 2.641512,-0.10658 5.360694,-0.95818 8.002319,-0.53227 0.310677,0 0.621505,0.4258 0.155338,0.6387 -0.155338,0.10659 -0.388497,0.10659 -0.543911,0.21317 -0.310678,0.1062 -0.621506,0.1062 -0.932296,0.21279 -1.398501,0.425803 -2.796889,0.425803 -4.19539,0.851673 -2.796926,0.74521 -5.749229,1.27752 -8.546117,1.9163 -6.6816,1.27752 -13.4408,2.555 -20.2001,3.30021 -3.263101,0.31937 -6.603901,0.31937 -9.944599,0.95818 -1.631599,0.31937 -3.2631,0.63871 -4.894699,0.85172 -0.699202,0.10621 -1.320734,0.21279 -1.942274,0.31937 -0.54384,-0.31937 -0.854608,-0.4258 -1.165379,0 0,-0.1062 -0.07771,0 0,0 z"
     fill="#000000"
     id="path44"
     style="stroke-width:0.999999" />
  <path
     opacity="0.5"
     d="m 5.9252478,84.294363 c 0.3884602,-0.63878 1.5538432,-0.74517 2.1753822,-0.95819 0.854608,-0.21279 1.709228,-0.21279 2.563828,-0.4258 1.942303,-0.4258 3.962302,-0.85168 5.904601,-1.27748 1.864702,-0.31937 3.807001,-0.31937 5.671601,-0.53231 1.009999,-0.10658 1.942299,-0.21316 2.952299,-0.21316 0.699303,0 1.320801,-0.10621 1.942303,0.10658 -0.543803,0.21279 -1.087703,0.31937 -1.553802,0.42588 -0.8546,0.21278 -1.631599,0.74521 -2.4085,0.95811 -1.8646,0.63881 -3.806899,1.17108 -5.671499,1.59688 -1.864702,0.42581 -3.807001,0.63882 -5.7493,0.85172 -0.8546,0.10621 -1.786901,0.21279 -2.641543,0.31937 -0.932311,0.10658 -1.864618,0.10658 -2.719237,0.4258 0,0 -0.07771,0.10659 0,0.10659 0.776927,-0.31937 1.63155,-0.21317 2.40847,-0.31937 1.010007,-0.10659 1.942311,-0.21279 2.95231,-0.31937 1.8646,-0.21279 3.806899,-0.42581 5.671601,-0.74521 1.864599,-0.31937 3.806899,-0.95819 5.671498,-1.4905 0.854601,-0.31937 1.709299,-0.74521 2.641599,-1.06458 0.621502,-0.21279 1.243102,-0.21279 1.8646,-0.6387 0.07771,0 0.233083,-0.31937 0.155414,-0.42592 -0.6993,-0.4258 -1.4762,-0.31937 -2.253097,-0.21278 -0.854601,0.10658 -1.786901,0.10658 -2.641603,0.21278 -2.252999,0.21317 -4.5061,0.21317 -6.759197,0.63882 -1.087703,0.21279 -2.097703,0.53227 -3.107702,0.74517 -1.087699,0.21279 -2.253101,0.74521 -3.4185,0.74521 -0.699209,0 -1.55382,0.21317 -2.17536,0.53231 -0.621539,0.42588 -1.16538,0.42588 -1.4761512,0.95819 0,0.1062 0,0.1062 0,0 z"
     fill="#000000"
     id="path46"
     style="stroke-width:0.999999" />
  <path
     opacity="0.5"
     d="m 120.98726,79.610283 c 1.16602,-0.319373 2.40899,-0.10659 3.57399,-0.319373 1.47602,-0.21317 2.87501,-0.10659 4.35103,-0.31937 1.32099,-0.10659 2.719,-0.31937 4.03998,-0.42592 1.47602,-0.10658 3.03001,0 4.50599,0 1.24301,0 2.48602,-0.21279 3.72903,-0.31937 1.477,-0.10658 2.95298,-0.21316 4.429,-0.63878 2.952,-0.63881 5.98197,-0.85171 8.935,-1.06461 5.982,-0.53231 12.04199,-0.85168 18.024,-1.7034 6.216,-0.85168 12.43098,-1.38399 18.64599,-1.9163 6.83698,-0.5323 13.67399,-1.59688 20.51101,-1.70328 3.419,-0.10658 6.83697,0 10.178,-0.31937 1.55399,-0.10658 3.18497,-0.21279 4.739,-0.63881 0.77699,-0.21279 1.47598,-0.31937 2.25298,-0.53231 0.855,-0.21279 1.78699,-0.85168 2.642,-0.21279 l 0.0771,-0.10658 c -0.85398,-0.6387 -1.942,0 -2.87399,0.21279 -1.47602,0.31937 -2.952,0.53242 -4.429,0.74532 -3.107,0.31937 -6.29299,0.4258 -9.39999,0.4258 -5.98303,0 -11.965,0.53227 -17.87002,1.17109 -6.05998,0.63881 -12.19699,0.85171 -18.25701,1.59688 -6.13799,0.63882 -12.27598,1.49042 -18.41299,1.9163 -3.34099,0.21279 -6.68198,0.53231 -10.10097,0.95811 -3.41802,0.42592 -6.83604,1.27759 -10.33301,1.38399 -1.553,0.10658 -3.10699,0.31937 -4.73899,0.31937 -1.55403,0 -3.10802,0.21279 -4.66103,0.4258 -1.70997,0.21317 -3.34099,0.31937 -5.04998,0.42591 -1.632,0.10659 -3.10802,0.10659 -4.50701,0.638823 0,-0.10658 -0.0771,0 0,0 z"
     fill="#000000"
     id="path48"
     style="stroke-width:0.999999" />
  <path
     opacity="0.5"
     d="m 129.84428,75.77768 c 0.69898,-0.6387 1.39899,-0.74521 2.25297,-0.74521 0.70001,0 1.47602,-0.1062 2.17603,-0.21278 1.47598,-0.10659 3.02997,-0.21279 4.50599,-0.31937 3.26298,-0.31937 6.526,-1.17109 9.711,-1.38399 2.95299,-0.21279 5.983,-0.21279 8.935,-0.6387 0.77699,-0.10659 1.55399,-0.21317 2.33098,-0.42592 0.85402,-0.21279 1.787,-0.6387 2.64102,-0.6387 1.39899,-0.10658 2.95298,-0.63878 4.35099,-0.31937 0.0779,0 0.23282,-0.31937 0.1561,-0.31937 -1.24399,-0.4258 -2.72001,0 -4.04001,0.10658 -1.55399,0.21279 -3.10798,0.74521 -4.66198,0.95811 -3.41801,0.63878 -6.83701,0.53231 -10.25503,0.85168 -1.477,0.10658 -3.02997,0.53231 -4.50697,0.85172 -1.86402,0.31937 -3.807,0.6387 -5.67099,0.74521 -1.47602,0.10658 -3.03001,0.31937 -4.50603,0.53227 -1.16598,0.10658 -2.40899,0 -3.419,0.95811 0,0 -0.0771,0 0,0 z"
     fill="#000000"
     id="path50"
     style="stroke-width:0.999999" />
  <ellipse
     cx="13.515354"
     cy="70.191673"
     rx="5.0801105"
     ry="4.2083802"
     fill="#52402c"
     id="ellipse52"
     style="stroke-width:0.999999" />
  <path
     d="m 12.217459,72.26707 c 1.509203,0.36472 3.018402,-1.0941 3.773,-2.91768 v -1.0941 c -1.006197,1.0941 -2.5154,2.18827 -3.773,4.01178 -0.251604,0 0,0 0,0 z"
     fill="#eea75d"
     id="path54"
     style="stroke-width:0.999999" />
  <path
     d="m 12.72116,72.99716 c -0.25149,0 -0.5031,0 -0.5031,0 h -0.25149 c -0.25149,0 -0.25149,-0.36472 -0.25149,-0.36472 0,-0.36473 0,-0.36473 0.25149,-0.72938 0.754601,-0.72952 1.257702,-1.45889 2.012201,-1.82362 0.754598,-0.72937 1.5092,-1.45878 2.0123,-2.18819 0.25149,0 0.25149,0 0.503101,0 0.25149,0 0.25149,0.36472 0.25149,0.72941 v 1.09409 0.36473 c -1.257703,1.45878 -2.515303,2.91768 -4.024502,2.91768 z m 2.515298,-3.28241 c -0.251489,0.36473 -0.754597,0.72942 -1.257698,1.09414 -0.25149,0.36472 -0.502998,0.36472 -0.754499,0.72949 0.754597,-0.36473 1.509101,-1.09421 2.012197,-1.82363 z"
     fill="#bf692d"
     id="path56"
     style="stroke-width:0.999999" />
  <path
     d="m 10.20596,25.584991 v 16.047193 c 0.503101,-0.729411 1.006099,-1.458822 1.509199,-2.188308 1.760701,-1.823509 3.018399,-2.91772 4.276101,-4.011818 0,0 0,-4.011779 0,-8.023597 0,-4.011779 0,-8.023597 0,-8.023597 -1.006201,1.094098 -2.5154,2.188309 -4.276101,4.011818 -0.754597,0.729373 -1.257698,1.458784 -1.509199,2.188309 z"
     fill="#eea75d"
     id="path58"
     style="stroke-width:0.999999" />
  <path
     d="m 10.20596,42.361784 c -0.25149,0 -0.25149,0 0,0 -0.25149,0 -0.503003,-0.364724 -0.503003,-0.729411 V 25.585179 25.220455 c 0.503003,-0.729411 1.006104,-1.458822 1.760701,-2.188309 0.754602,-0.729411 1.509203,-1.458784 2.263801,-2.188195 0.754602,-0.729487 1.5092,-1.458898 2.012202,-1.823584 0.251603,0 0.251603,0 0.5031,0 0.25149,0 0.25149,0.364724 0.25149,0.729373 0,0 0,4.011817 0,8.023597 v 8.02371 c 0,0.364725 0,0.364725 -0.25149,0.364725 -0.5031,0.729411 -1.257702,1.458784 -2.0123,2.188195 -0.754601,0.729524 -1.2576,1.094211 -2.012201,2.188309 -0.503101,0.729411 -1.006099,1.094097 -1.509199,2.188195 -0.25149,-0.364724 -0.503101,-0.364724 -0.503101,-0.364724 z m 0.251603,-16.411918 v 14.223723 c 0.25149,-0.364724 0.502999,-0.729411 0.754598,-1.094211 0.754602,-0.729411 1.509203,-1.458822 2.263801,-2.188195 0.754499,-0.729411 1.2576,-1.094098 1.7607,-1.823622 v -7.658873 c 0,-2.55292 0,-5.105915 0,-6.929424 -0.5031,0.364725 -1.006098,0.729412 -1.509199,1.458823 -0.754602,0.729373 -1.257702,1.094097 -2.263801,2.18827 0,0.364725 -0.5031,1.094098 -1.006099,1.823509 z"
     fill="#bf692d"
     id="path60"
     style="stroke-width:0.999999" />
  <path
     d="M 10.457461,-6.8743481 10.205971,9.53757 c 0.503101,-0.729411 1.006099,-1.458822 1.5092,-2.1882331 1.7607,-1.823547 3.018399,-2.917682 4.276101,-4.011818 0,0 0,-4.011817 0,-8.388321 0,-4.01178 0.251489,-8.3883209 0.251489,-8.3883209 -1.006102,1.094211 -2.515302,2.188308 -4.2761,4.0118169 -0.502999,1.094136 -1.006099,1.823547 -1.5092,2.552958 z"
     fill="#eea75d"
     id="path62"
     style="stroke-width:0.999999" />
  <path
     d="m 10.20596,10.267056 c -0.25149,0 -0.503003,-0.364724 -0.503003,-0.729448 l 0.25149,-16.4119561 v -0.364725 c 0.503101,-0.729411 1.006103,-1.458822 1.760701,-2.188233 0.754602,-0.7294489 1.509203,-1.4588599 2.263801,-2.1882329 0.754602,-0.729411 1.509199,-1.458898 2.0123,-1.823622 0.25149,0 0.25149,0 0.503002,0 0.251603,0 0.251603,0.364724 0.251603,0.729411 l -0.251603,8.3883589 v 8.388321 c 0,0.364725 0,0.364725 -0.25149,0.364725 -0.503002,0.729411 -1.257702,1.45886 -2.0123,2.188271 -0.754503,0.729411 -1.2576,1.094135 -2.263702,2.1882711 -0.503101,0.729411 -1.006197,1.094097 -1.5092,1.823584 0,-0.364725 0,-0.364725 -0.251603,-0.364725 z M 10.960562,-6.5096241 10.709072,8.078748 c 0.25149,-0.3647251 0.503097,-0.7294111 1.006099,-1.0940981 0.754598,-0.729411 1.509199,-1.45886 2.263801,-2.188271 0.754598,-0.729411 1.257698,-1.094135 1.760798,-1.823546 l 0.25149,-14.9530589 c -0.5031,0.364725 -1.006099,0.729411 -1.509199,1.094098 -0.754602,0.729411 -1.5092,1.0941349 -2.263801,1.8235459 -0.503101,1.094136 -1.006099,1.823547 -1.257698,2.552958 z"
     fill="#bf692d"
     id="path64"
     style="stroke-width:0.999999" />
  <path
     d="m 10.20596,41.99706 v 16.04723 c 0.503101,-0.72941 1.006099,-1.45882 1.509199,-2.18831 1.760701,-1.82351 3.018399,-2.91772 4.276101,-4.01181 V 35.796972 c -1.006201,1.094097 -2.5154,2.552995 -4.276101,4.011817 -0.754597,0.729373 -1.257698,1.458898 -1.509199,2.188271 z"
     fill="#eea75d"
     id="path66"
     style="stroke-width:0.999999" />
  <path
     d="m 9.95436,58.77397 c -0.25149,0 -0.503002,-0.36473 -0.503002,-0.72941 V 41.997287 41.632562 c 0.503002,-0.729411 1.006103,-1.458822 1.760701,-2.188195 0.754602,-0.729524 1.509199,-1.458935 2.263801,-2.188309 0.754601,-0.729524 1.509199,-1.458897 2.0123,-1.823622 0.25149,0 0.25149,0 0.502998,0 0.25149,0 0.251603,0.364725 0.251603,0.729525 V 52.20915 c 0,0.36473 -9.8e-5,0.36473 -0.251603,0.36473 -0.502998,0.72941 -1.2576,1.45878 -2.012198,2.18831 -0.754601,0.72937 -1.257702,1.45878 -2.012299,2.18819 -0.503101,0.72938 -1.006099,1.0941 -1.5092,2.18831 -0.25149,-0.36472 -0.25149,-0.36472 -0.503101,-0.36472 z M 10.457461,41.997287 V 56.22097 c 0.25149,-0.36472 0.503101,-0.72941 0.754598,-1.0941 0.754602,-0.72948 1.509199,-1.45889 2.263801,-2.1883 0.754601,-0.72942 1.257698,-1.0941 1.7607,-1.82351 V 36.526685 c -0.503002,0.364725 -1.006099,0.729373 -1.2576,1.458784 -0.754601,0.729411 -1.257702,1.094098 -2.012299,2.188309 -0.503101,0.729411 -1.006099,1.094098 -1.5092,1.823509 z"
     fill="#bf692d"
     id="path68"
     style="stroke-width:0.999999" />
  <path
     d="m 10.20596,9.538099 c 0,0 0,4.01178 0,8.023673 0,2.188195 0,4.011817 0,5.470601 0,1.458898 0,2.552995 0,2.552995 0.503101,-0.729411 1.006099,-1.458897 1.509199,-2.188308 1.760701,-1.823471 3.018399,-2.917682 4.276101,-4.01178 L 16.24275,3.3380109 c -1.006099,1.094135 -2.515302,2.188233 -4.276101,4.011817 -0.754598,0.7294111 -1.2576,1.4588221 -1.760701,2.1882711 z"
     fill="#eea75d"
     id="path70"
     style="stroke-width:0.999999" />
  <path
     d="m 10.20596,26.314666 c -0.25149,0 -0.25149,0 0,0 -0.25149,0 -0.503003,-0.364724 -0.503003,-0.729411 V 17.561658 9.538023 9.173299 c 0.503003,-0.729411 1.006104,-1.4588601 1.760701,-2.1882711 0.754602,-0.729411 1.509203,-1.458822 2.263801,-2.188233 0.754602,-0.729411 1.5092,-1.45886 2.012202,-1.823546 0.251603,0 0.251603,0 0.5031,0 0.25149,0 0.25149,0.364724 0.25149,0.729411 l -0.25149,16.0471931 c 0,0.364725 0,0.364725 -0.251489,0.364725 -0.503101,0.729486 -1.257702,1.458898 -2.0123,2.188309 -0.754602,0.729373 -1.2576,1.094097 -2.263801,2.18827 -0.503002,0.364725 -1.006099,1.094098 -1.5092,1.823509 0.251604,0 0,0 0,0 z m 0.503101,-16.411918 -0.25149,14.223609 c 0.25149,-0.364724 0.502998,-0.729373 0.754598,-1.094097 0.754601,-0.729373 1.509203,-1.458784 2.263801,-2.188196 0.754499,-0.729486 1.2576,-1.094173 1.7607,-1.823584 L 15.48816,4.4320709 c -0.503101,0.364724 -1.006099,0.729448 -1.5092,1.458859 -0.754601,0.729411 -1.2576,1.094136 -2.263801,2.1882711 -0.251489,0.364725 -0.502998,1.094098 -1.006098,1.823547 z"
     fill="#bf692d"
     id="path72"
     style="stroke-width:0.999999" />
  <path
     d="m 10.20596,66.43216 c 0,1.09421 0,2.18831 0,2.91772 0.25149,1.45878 1.006099,2.55299 1.760701,2.91768 1.509199,-1.45878 3.018398,-2.91768 4.024599,-4.01178 0,0 0,-4.01182 0,-8.38832 0,-4.01178 0,-8.38828 0,-8.38828 -1.006201,1.09409 -2.5154,2.55288 -4.276101,4.0117 -0.754597,0.72949 -1.257698,1.4589 -1.509199,2.18831 0,0 0,1.0941 0,2.55299 0,1.82348 0,4.01178 0,6.19998 z"
     fill="#eea75d"
     id="path74"
     style="stroke-width:0.999999" />
  <path
     d="m 11.966759,72.63266 c -1.006197,-0.36472 -1.760799,-1.45878 -2.263802,-3.2824 0,0 0,0 0,-0.36473 V 57.67957 57.31484 c 0.503003,-0.72941 1.006104,-1.45882 1.760701,-2.18831 0.754602,-0.72941 1.509203,-1.45882 2.263801,-2.18819 0.754602,-0.72941 1.5092,-1.45882 2.012202,-2.18831 0.251603,0 0.251603,0 0.5031,0 0.25149,0 0.25149,0.36472 0.25149,0.72949 v 8.38832 8.38828 c 0,0.36473 0,0.36473 -0.25149,0.36473 -0.5031,0.72941 -1.257702,1.45882 -2.0123,2.18819 -0.503002,0.72953 -1.2576,1.09421 -1.7607,1.82362 -0.25149,0 -0.503002,0 -0.503002,0 z m -1.257698,-3.64709 c 0.251489,0.72941 0.754597,1.82351 1.257698,2.18831 0.503002,-0.72953 1.2576,-1.09421 1.7607,-1.82362 0.754602,-0.72938 1.2576,-1.0941 1.760701,-1.82347 v -8.0236 -6.9295 c -0.503101,0.36472 -1.006099,0.72937 -1.5092,1.45878 -0.754601,0.72949 -1.2576,1.4589 -2.012201,2.18831 -0.503101,0.36473 -1.006197,1.0941 -1.5092,1.82351 z"
     fill="#bf692d"
     id="path76"
     style="stroke-width:0.999999" />
  <path
     d="m 12.972661,72.26828 c 1.257698,-0.36473 2.263797,-1.45882 2.766898,-2.91772 0,-2.91768 0,-5.4706 0,-8.38828 0,-3.6471 0,-7.29419 0,-10.94132 0,-7.294187 0,-14.588373 0,-21.153072 0,-6.929499 0,-13.494312 0.25149,-20.059087 0,-6.2000501 0,-12.4001381 0.251603,-17.8707781 0.25149,-10.9412419 0.25149,-20.4237349 0.503002,-26.6238609 0,-4.01178 0.251603,-6.9295 0.251603,-8.752971 -0.754601,-1.458822 -1.760802,-2.188309 -2.766901,-2.188309 -0.25149,4.011893 -0.503101,17.506092 -0.754598,36.471006 -0.25149,5.8353259 -0.25149,11.6706899 -0.25149,18.235465 0,6.564812 -0.251603,13.494311 -0.251603,20.423811 0,6.929423 0,14.223609 0,21.882516 0,3.6471 0,7.29419 0,11.30601 0,3.64709 0,6.9295 -4e-6,10.57659 z"
     fill="#eea75d"
     id="path78"
     style="stroke-width:0.999999" />
  <path
     d="m 10.205858,69.34995 c 0.25149,1.09414 0.754602,2.18831 1.509203,2.91772 -0.25149,-14.58841 0,-29.176815 0,-43.035813 0,-6.929386 0,-13.858885 0.25149,-20.423698 0,-6.5647751 0,-12.7648251 0.251603,-18.2354651 0.25149,-18.2355019 0.7545,-31.7297389 0.7545,-36.1062049 -0.503003,0.364724 -1.006103,1.094097 -1.509102,2.188195 0,1.823585 0,4.376504 -0.251603,8.023597 -0.251489,6.564775 -0.251489,15.682506 -0.502998,26.9885109 0,5.470677 -0.251603,11.670727 -0.251603,17.8707781 0,6.200088 -0.25149,13.129587 -0.25149,20.059011 0,6.929499 0,14.223685 0,21.517909 0,3.64709 0,7.29419 0,10.94128 0,2.18831 0,4.74119 0,7.29418 z"
     fill="#eea75d"
     id="path80"
     style="stroke-width:0.999999" />
  <ellipse
     cx="223.83221"
     cy="65.148453"
     rx="5.0801105"
     ry="4.2083802"
     fill="#52402c"
     id="ellipse82"
     style="stroke-width:0.999999" />
  <path
     d="m 222.53428,67.22386 c 1.50898,0.36472 3.01799,-1.0941 3.77299,-2.91768 v -1.0941 c -1.00702,1.0941 -2.51599,2.18819 -3.77299,4.01178 -0.25209,0 0,0 0,0 z"
     fill="#eea75d"
     id="path84"
     style="stroke-width:0.999999" />
  <path
     d="m 223.03828,67.95399 c -0.25209,0 -0.504,0 -0.504,0 h -0.25096 c -0.25209,0 -0.25209,-0.36473 -0.25209,-0.36473 0,-0.36472 0,-0.36472 0.25209,-0.72952 0.755,-0.72938 1.25798,-1.45879 2.01199,-1.82347 0.755,-0.72941 1.50898,-1.45883 2.012,-2.18831 0.25209,0 0.25209,0 0.504,0 0.25096,0 0.25096,0.36472 0.25096,0.72948 v 1.0941 0.36473 c -1.25802,1.45882 -2.51501,2.91772 -4.02399,2.91772 z m 2.51497,-3.28241 c -0.25209,0.36472 -0.75499,0.72941 -1.25797,1.0941 -0.25096,0.36472 -0.50302,0.36472 -0.75402,0.72941 0.75402,-0.36473 1.50901,-1.0941 2.01199,-1.82351 z"
     fill="#bf692d"
     id="path86"
     style="stroke-width:0.999999" />
  <path
     d="m 220.52225,20.541778 v 16.047194 c 0.50302,-0.729411 1.00603,-1.458785 1.50901,-2.188309 1.761,-1.823509 3.01901,-2.917682 4.27601,-4.01178 0,0 0,-4.011817 0,-8.023596 0,-4.011818 0,-8.023597 0,-8.023597 -1.006,1.094097 -2.51501,2.188271 -4.27601,4.011779 -0.75397,0.729411 -1.25699,1.458822 -1.50901,2.188309 z"
     fill="#eea75d"
     id="path88"
     style="stroke-width:0.999999" />
  <path
     d="m 220.52225,37.318874 c -0.25096,0 -0.25096,0 0,0 -0.25096,0 -0.50298,-0.364724 -0.50298,-0.729411 V 20.542156 20.177431 c 0.50298,-0.729373 1.006,-1.458784 1.761,-2.188195 0.75499,-0.729373 1.50901,-1.458898 2.26401,-2.188271 0.75398,-0.729411 1.50897,-1.458822 2.01199,-1.823622 0.2521,0 0.2521,0 0.50298,0 0.2521,0 0.2521,0.364725 0.2521,0.729525 0,0 0,4.011779 0,8.023597 v 8.023596 c 0,0.364725 0,0.364725 -0.2521,0.364725 -0.50298,0.729373 -1.25798,1.458784 -2.01199,2.188271 -0.755,0.729411 -1.25798,1.094097 -2.012,2.188233 -0.504,0.729373 -1.00698,1.094097 -1.50999,2.188271 -0.25096,-0.364725 -0.50302,-0.364725 -0.50302,-0.364725 z m 0.25209,-16.411994 v 14.223685 c 0.25096,-0.364724 0.50302,-0.729411 0.75402,-1.094097 0.755,-0.729411 1.51,-1.458898 2.26401,-2.188309 0.755,-0.729373 1.25798,-1.094098 1.761,-1.823471 v -7.65891 c 0,-2.552995 0,-5.105991 0,-6.929499 -0.50302,0.364724 -1.006,0.729411 -1.50902,1.458784 -0.755,0.729411 -1.25797,1.094211 -2.26397,2.188309 0,0.364724 -0.50302,1.094097 -1.00604,1.823508 z"
     fill="#bf692d"
     id="path90"
     style="stroke-width:0.999999" />
  <path
     d="m 220.77427,-11.917523 -0.2521,16.4118799 c 0.50302,-0.729411 1.006,-1.458822 1.50902,-2.188233 1.76099,-1.823546 3.01897,-2.917682 4.27597,-4.011817 0,0 0,-4.011818 0,-8.3883219 0,-4.011817 0.25209,-8.388321 0.25209,-8.388321 -1.006,1.094211 -2.51497,2.188309 -4.27597,4.011817 -0.50301,1.094098 -1.00599,1.823585 -1.50901,2.552996 z"
     fill="#eea75d"
     id="path92"
     style="stroke-width:0.999999" />
  <path
     d="m 220.52225,5.2238059 c -0.25096,0 -0.50298,-0.364724 -0.50298,-0.729411 l 0.25209,-16.4119179 v -0.364725 c 0.50298,-0.729411 1.006,-1.458897 1.76002,-2.188308 0.755,-0.729411 1.50999,-1.458785 2.26397,-2.188196 0.755,-0.729411 1.50902,-1.458897 2.01302,-1.823584 0.25096,0 0.25096,0 0.50298,0 0.25096,0 0.25096,0.364724 0.25096,0.729373 l -0.25096,8.3883589 v 8.388322 c 0,0.364724 0,0.364724 -0.2521,0.364724 -0.50298,0.729411 -1.25798,1.45886 -2.01199,2.188271 -0.755,0.729411 -1.25798,1.094136 -2.26398,2.188271 -0.50301,0.729411 -1.00599,1.094135 -1.50901,1.823546 0,-0.364724 0,-0.364724 -0.2521,-0.364724 z m 0.75504,-16.7766429 -0.2521,14.5883719 c 0.2521,-0.364724 0.50298,-0.729411 1.006,-1.094097 0.755,-0.729449 1.50999,-1.45886 2.26397,-2.188271 0.755,-0.729411 1.25802,-1.094136 1.761,-1.823547 l 0.25209,-14.9531339 c -0.504,0.364725 -1.00698,0.729487 -1.50999,1.094173 -0.75398,0.729411 -1.50898,1.094098 -2.263,1.823509 -0.504,1.094211 -1.00698,1.823622 -1.25797,2.552995 z"
     fill="#bf692d"
     id="path94"
     style="stroke-width:0.999999" />
  <path
     d="M 220.52225,36.954074 V 53.00127 c 0.50302,-0.72941 1.00603,-1.45879 1.50901,-2.1882 1.761,-1.82358 3.01901,-2.917679 4.27601,-4.01189 V 30.754061 c -1.006,1.094098 -2.51501,2.55292 -4.27601,4.011704 -0.75397,0.729525 -1.25699,1.458898 -1.50901,2.188309 z"
     fill="#eea75d"
     id="path96"
     style="stroke-width:0.999999" />
  <path
     d="m 220.27125,53.73075 c -0.25209,0 -0.50298,-0.36472 -0.50298,-0.72937 V 36.954074 36.58935 c 0.50298,-0.729411 1.006,-1.458822 1.76001,-2.188309 0.755,-0.729411 1.51,-1.458784 2.26398,-2.188195 0.755,-0.729487 1.50901,-1.458898 2.01301,-1.823585 0.25096,0 0.25096,0 0.50298,0 0.25096,0 0.25096,0.364725 0.25096,0.729374 v 16.047307 c 0,0.364724 0,0.364724 -0.25096,0.364724 -0.50298,0.729411 -1.25798,1.458824 -2.01297,2.188314 -0.75402,0.72941 -1.257,1.45878 -2.012,2.18819 -0.50301,0.72941 -1.00599,1.0941 -1.50901,2.18831 -0.2521,-0.36473 -0.2521,-0.36473 -0.50302,-0.36473 z m 0.50302,-16.776676 V 51.17776 c 0.25096,-0.36473 0.50302,-0.72937 0.75401,-1.0941 0.755,-0.72948 1.51,-1.4589 2.26398,-2.188269 0.755,-0.729411 1.25801,-1.094136 1.76099,-1.823509 V 31.483359 c -0.50298,0.364725 -1.00599,0.729525 -1.25797,1.458898 -0.75402,0.729411 -1.257,1.094097 -2.012,2.188233 -0.50301,0.729486 -1.00599,1.094173 -1.50901,1.823584 z"
     fill="#bf692d"
     id="path98"
     style="stroke-width:0.999999" />
  <path
     d="m 220.52225,4.4951129 c 0,0 0,4.0118171 0,8.0236731 0,2.188195 0,4.011779 0,5.470601 0,1.458898 0,2.552996 0,2.552996 0.50302,-0.729411 1.00603,-1.458822 1.50901,-2.188309 1.761,-1.823509 3.01901,-2.917606 4.27601,-4.011817 l 0.25209,-16.0472321 c -1.00599,1.094135 -2.51501,2.188271 -4.276,4.011817 -0.755,0.729449 -1.25798,1.45886 -1.761,2.188271 z"
     fill="#eea75d"
     id="path100"
     style="stroke-width:0.999999" />
  <path
     d="m 220.52225,21.27168 c -0.25096,0 -0.25096,0 0,0 -0.25096,0 -0.50298,-0.364724 -0.50298,-0.729411 V 12.518672 4.4950379 4.1303129 c 0.50298,-0.729411 1.006,-1.458822 1.761,-2.188233 0.75499,-0.729411 1.50901,-1.45886 2.26401,-2.188271 0.75398,-0.729411 1.50897,-1.458822 2.01199,-1.823546 0.2521,0 0.2521,0 0.50298,0 0.2521,0 0.2521,0.364724 0.2521,0.729411 l -0.2521,16.0472691 c 0,0.364725 0,0.364725 -0.25096,0.364725 -0.504,0.729411 -1.25798,1.458784 -2.01298,2.188195 -0.75401,0.729524 -1.25699,1.094211 -2.26401,2.188309 -0.50298,0.364724 -1.006,1.094097 -1.50901,1.823508 0.25209,0 0,0 0,0 z m 0.50302,-16.4119181 -0.25096,14.2237231 c 0.25096,-0.364724 0.50301,-0.729411 0.75401,-1.094098 0.755,-0.729524 1.51,-1.458897 2.26398,-2.188308 0.755,-0.729411 1.25801,-1.094098 1.76099,-1.823622 l 0.25096,-14.5883341 c -0.50298,0.364724 -1.00599,0.729411 -1.50897,1.458822 -0.75402,0.729411 -1.257,1.094135 -2.26402,2.18827 -0.25096,0.364725 -0.50298,1.094136 -1.00599,1.823547 z"
     fill="#bf692d"
     id="path102"
     style="stroke-width:0.999999" />
  <path
     d="m 220.52225,61.38929 c 0,1.09409 0,2.18819 0,2.91757 0.25209,1.45893 1.00603,2.55303 1.76103,2.91772 1.50898,-1.45879 3.01799,-2.91772 4.02399,-4.01182 0,0 0,-4.01178 0,-8.38829 0,-4.01181 0,-8.388279 0,-8.388279 -1.006,1.094097 -2.51501,2.552879 -4.27601,4.011779 -0.75397,0.72941 -1.25699,1.45878 -1.50901,2.18831 0,0 0,1.0941 0,2.55288 0,1.82362 0,4.01182 0,6.20013 z"
     fill="#eea75d"
     id="path104"
     style="stroke-width:0.999999" />
  <path
     d="m 222.28328,67.58949 c -1.00599,-0.36473 -1.76103,-1.4589 -2.26401,-3.28241 0,0 0,0 0,-0.36472 V 52.63635 52.27163 c 0.50298,-0.72941 1.006,-1.45882 1.761,-2.18831 0.75499,-0.72941 1.50901,-1.45878 2.26401,-2.188194 0.75398,-0.729411 1.50897,-1.458822 2.01199,-2.188308 0.2521,0 0.2521,0 0.50298,0 0.2521,0 0.2521,0.364724 0.2521,0.729411 v 8.388401 8.38828 c 0,0.36472 0,0.36472 -0.2521,0.36472 -0.50298,0.72941 -1.25798,1.45883 -2.01199,2.1882 -0.50298,0.72952 -1.25798,1.09421 -1.761,1.82362 -0.25096,0 -0.50298,0 -0.50298,0 z m -1.25801,-3.64713 c 0.25209,0.72941 0.755,1.82351 1.25801,2.18823 0.50298,-0.72941 1.25798,-1.09413 1.761,-1.82351 0.75398,-0.72941 1.25699,-1.0941 1.75997,-1.82362 v -8.02348 -6.929503 c -0.50298,0.364725 -1.00599,0.729411 -1.50897,1.458783 -0.75402,0.72941 -1.257,1.4589 -2.012,2.18831 -0.50301,0.36472 -1.00599,1.0941 -1.50901,1.82351 z"
     fill="#bf692d"
     id="path106"
     style="stroke-width:0.999999" />
  <path
     d="m 223.28928,67.22507 c 1.25798,-0.36473 2.26397,-1.45879 2.76699,-2.91769 0,-2.91772 0,-5.4706 0,-8.38832 0,-3.64709 0,-7.29418 0,-10.941276 0,-7.294223 0,-14.588409 0,-21.153222 0,-6.929386 0,-13.494198 0.25096,-20.0589731 0,-6.200051 0,-12.400139 0.2521,-17.8708159 0.25209,-10.941317 0.25209,-20.423698 0.50298,-26.623786 0,-4.011818 0.25209,-6.9295 0.25209,-8.753009 -0.755,-1.458822 -1.76099,-2.188308 -2.76699,-2.188308 -0.2521,4.011817 -0.50298,17.506092 -0.755,36.471005 -0.25096,5.8353639 -0.25096,11.6706899 -0.25096,18.2354649 0,6.5647751 -0.2521,13.4943501 -0.2521,20.4237361 0,6.929499 0,14.223685 0,21.882595 0,3.647089 0,7.294189 0,11.305999 0,3.6471 0,6.9295 0,10.5766 z"
     fill="#eea75d"
     id="path108"
     style="stroke-width:0.999999" />
  <path
     d="m 220.52225,64.30678 c 0.25209,1.0941 0.75504,2.18831 1.50901,2.91768 -0.25096,-14.58837 0,-29.17678 0,-43.035778 0,-6.929499 0,-13.858923 0.2521,-20.4237361 0,-6.564737 0,-12.764825 0.25209,-18.2354649 0.25096,-18.235502 0.75402,-31.729701 0.75402,-36.106319 -0.50302,0.364725 -1.006,1.094212 -1.50902,2.188309 0,1.823509 0,4.376504 -0.25209,8.023598 -0.25096,6.564812 -0.25096,15.682507 -0.50298,26.98851 0,5.4706399 -0.25096,11.6707279 -0.25096,17.8707779 0,6.2001261 -0.2521,13.1295121 -0.2521,20.0590111 0,6.9295 0,14.223723 0,21.517909 0,3.647093 0,7.294183 0,10.941283 0,2.1883 0,4.74122 0,7.29422 z"
     fill="#eea75d"
     id="path110"
     style="stroke-width:0.999999" />
</svg>
