<svg width="230" height="60" viewBox="0 0 230 60" fill="none" xmlns="http://www.w3.org/2000/svg">
<path d="M0.614029 47.4842C0.458649 47.8035 0.380936 48.1229 0.303253 48.5488V57.5979C8.92711 56.9592 17.551 57.2785 26.1749 57.4915C31.0695 57.5979 35.9641 57.5979 40.8587 57.385C45.7533 57.1721 50.5703 56.9592 55.4649 56.8527C67.5849 56.7462 79.6273 58.8754 91.6696 57.9173C94.6996 57.7044 97.7296 57.5979 100.682 57.5979C110.704 56.5333 120.727 56.4268 130.749 56.9592C142.947 57.4915 155.222 58.5561 167.42 58.2367C173.557 58.1302 179.695 57.8108 185.755 57.9173C192.048 57.9173 198.108 58.4496 204.168 58.4496C209.762 58.4496 215.356 58.0238 220.95 58.5561C223.514 58.769 226.155 59.0884 228.719 59.1948C228.874 53.9783 228.874 48.8681 228.02 43.6516C227.709 41.5224 227.243 39.3931 227.321 37.2639C227.398 35.1347 227.942 33.3249 228.797 31.6215C227.088 31.0892 225.378 31.3021 223.669 30.9828C223.514 30.9828 223.358 30.6634 223.514 30.5569C224.291 29.7052 225.223 29.0665 226.155 28.4277C226.777 28.1083 227.398 27.7889 227.942 27.3631C228.486 27.0437 228.253 26.2985 228.175 25.6597C227.942 22.253 227.864 18.9527 227.709 15.546C227.631 13.9491 227.554 12.2457 227.476 10.6488C227.476 9.7971 227.476 8.94541 227.709 8.20018C228.175 6.60327 228.874 4.89991 229.263 3.19654C221.804 0.428558 213.724 1.91901 206.111 1.81255C201.449 1.70609 196.865 1.59962 192.204 1.70608C187.542 1.81254 182.803 2.02547 178.141 2.34485C170.294 2.77069 162.525 3.19653 154.678 2.55777C147.297 2.02546 139.917 0.960854 132.536 0.641472C125 0.32209 117.541 0.854389 110.005 1.38669C102.391 2.02546 94.7773 2.34484 87.0857 2.55777C58.1064 3.51591 28.8164 3.09007 0.225571 10.01V17.6752C1.23558 18.5269 3.48865 20.4432 3.48865 20.5496C3.02249 21.6142 2.47864 22.4659 1.8571 23.3176C1.46863 23.7434 0.691727 25.3403 0.847107 25.6597C1.23557 27.3631 1.54634 29.1729 1.77942 30.9828C2.09019 33.4313 2.63403 37.4769 1.39096 39.819C2.32327 40.4578 4.26556 41.9482 4.18787 42.0547C2.94479 43.758 1.46866 45.3549 0.614029 47.4842Z" fill="#AD7634"/>
<path d="M127.563 0.215843C129.35 0.215843 131.06 0.215832 132.691 0.322292C137.12 0.535213 141.548 0.961056 145.899 1.3869C148.851 1.70628 151.881 2.02567 154.833 2.23859C157.475 2.45151 160.272 2.55797 163.38 2.55797C168.43 2.55797 173.635 2.23859 178.297 2.02567H178.84C183.269 1.81275 187.853 1.59983 192.359 1.49337C193.291 1.49337 194.224 1.49337 195.156 1.49337C197.409 1.49337 199.74 1.49337 201.993 1.59983C203.391 1.59983 204.867 1.70628 206.266 1.70628C208.364 1.70628 210.461 1.59983 212.559 1.59983C214.346 1.49337 216.288 1.49337 218.153 1.49337C222.814 1.49337 226.388 2.02568 229.574 3.19674L229.729 3.30319L229.651 3.51611C229.418 4.68718 229.03 5.75179 228.719 6.81639C228.486 7.45516 228.331 7.98746 228.175 8.62622C227.942 9.26499 227.942 10.0102 227.942 10.9684C227.942 11.9265 228.02 12.7782 228.097 13.7363C228.097 14.4816 228.175 15.1203 228.175 15.8655C228.175 16.5043 228.253 17.1431 228.253 17.7818C228.331 20.4434 228.408 23.3178 228.641 25.9793C228.641 26.0858 228.641 26.2987 228.719 26.4051C228.797 26.9375 228.874 27.5762 228.331 28.0021C227.942 28.215 227.554 28.4279 227.165 28.6408C226.932 28.7473 226.777 28.8537 226.544 28.9602C225.456 29.599 224.679 30.2377 223.902 30.9829C224.601 31.0894 225.301 31.0894 226 31.1959C227.01 31.1959 228.02 31.3023 229.03 31.6217L229.263 31.7282L229.107 32.0476C228.175 33.8574 227.787 35.6672 227.709 37.5835C227.631 39.2869 227.942 40.9902 228.253 42.6936C228.331 43.1195 228.408 43.4388 228.486 43.8647C229.341 49.4006 229.341 54.8301 229.185 59.4079V59.6208H229.03C226.932 59.5144 224.757 59.3015 222.737 59.195C222.271 59.195 221.727 59.0885 221.261 59.0885C219.241 58.8756 217.143 58.7692 214.579 58.7692C212.792 58.7692 211.005 58.7692 209.218 58.8756C207.664 58.8756 206.033 58.9821 204.479 58.9821H204.013C200.672 58.9821 197.331 58.7692 194.068 58.6627C191.504 58.5562 188.863 58.4498 186.221 58.3433C185.211 58.3433 184.201 58.3433 183.191 58.3433C179.462 58.3433 175.655 58.4498 172.004 58.5562C170.605 58.5562 169.207 58.6627 167.808 58.6627C166.332 58.6627 164.778 58.7692 163.147 58.7692C155.688 58.7692 148.074 58.3433 140.693 57.9175C137.508 57.7046 134.323 57.5981 131.06 57.3852C127.02 57.1723 123.29 57.0658 119.716 57.0658C113.035 57.0658 106.897 57.3852 100.993 58.0239C97.7295 58.0239 94.7772 58.1304 91.9803 58.3433C89.8049 58.5562 87.5518 58.6627 85.0656 58.6627C80.3264 58.6627 75.5095 58.3433 70.8479 58.0239C65.8756 57.7046 60.7479 57.2787 55.7756 57.3852C52.3571 57.3852 48.861 57.5981 45.4425 57.7046C44.044 57.811 42.5679 57.811 41.1694 57.9175C38.7609 58.0239 36.1971 58.0239 33.4779 58.0239C31.3802 58.0239 29.0494 58.0239 26.4855 57.9175C25.2425 57.9175 23.9994 57.811 22.7563 57.811C19.1824 57.7046 15.4532 57.5981 11.8017 57.5981C7.60628 57.5981 3.95473 57.7046 0.613953 57.9175H0.458557V48.5489C0.613953 48.1231 0.691635 47.8037 0.769333 47.4843C1.54625 45.4616 2.78934 43.9711 4.03242 42.4807L4.26549 42.2678C3.87703 41.9484 2.86702 41.0967 2.24548 40.6709C2.01241 40.4579 1.85704 40.3515 1.70164 40.245L1.54625 40.1386L1.70164 39.9256C2.86703 37.9029 2.40088 34.1768 2.0901 31.7282L2.01242 31.3023C1.77934 29.4925 1.46855 27.6827 1.08009 25.9793C0.924713 25.447 1.93472 23.7436 2.1678 23.3178C2.71165 22.5726 3.25551 21.7209 3.72166 20.7627C3.33319 20.3369 1.93472 19.1658 0.613953 18.1012L0.536255 17.9948V10.0102H0.691635C24.854 4.26134 49.7933 3.51611 73.9556 2.98381C78.4618 2.87735 83.0456 2.77089 87.6295 2.55797C96.4864 2.23859 103.79 1.9192 110.471 1.3869C115.676 0.641674 121.581 0.215843 127.563 0.215843ZM163.38 3.09027C160.272 3.09027 157.475 2.98381 154.756 2.77089C151.803 2.55797 148.696 2.23858 145.821 1.9192C141.47 1.49336 137.042 1.06752 132.613 0.854595C130.982 0.748135 129.273 0.748146 127.563 0.748146C121.659 0.748146 115.676 1.17399 110.083 1.59983C103.323 2.13214 96.0203 2.55797 87.1633 2.77089C82.5795 2.87735 77.9956 3.09028 73.4895 3.19674C49.4048 3.83551 24.5432 4.47426 0.458557 10.2231V17.5689C3.64395 20.2304 3.64397 20.3369 3.72166 20.5498V20.6563L3.64397 20.7627C3.17781 21.8273 2.63396 22.7855 2.01242 23.6372C1.62395 24.1695 1.00243 25.5535 1.00243 25.7664C1.39088 27.4698 1.70164 29.2796 1.93472 31.1959L2.01242 31.6217C2.32318 34.0703 2.78934 37.69 1.70164 39.9256C1.85704 40.0321 1.93472 40.1386 2.0901 40.245C4.2655 41.9484 4.42088 42.0549 4.42088 42.2678V42.3742L4.34319 42.4807L4.03242 42.9065C2.78934 44.397 1.54626 45.8874 0.847031 47.8037C0.769333 48.1231 0.613953 48.336 0.536255 48.7619V57.4916C3.79935 57.2787 7.45088 57.1723 11.5686 57.1723C15.2201 57.1723 18.9494 57.2787 22.5232 57.3852C23.7663 57.3852 25.0094 57.4916 26.2525 57.4916C28.8163 57.5981 31.1471 57.5981 33.2448 57.5981C36.0417 57.5981 38.5279 57.5981 40.9363 57.4916C42.3348 57.3852 43.811 57.3852 45.2094 57.2787C48.5502 57.1723 52.0464 56.9593 55.5425 56.9593C60.5925 56.9593 65.7202 57.2787 70.6925 57.5981C75.3541 57.9175 80.171 58.2369 84.9103 58.2369C87.3964 58.2369 89.6495 58.1304 91.8249 57.9175C94.6995 57.7046 97.6518 57.5981 100.915 57.5981C106.82 56.9593 112.957 56.64 119.639 56.64C123.29 56.64 126.942 56.7464 130.982 56.9593C134.167 57.0658 137.43 57.2787 140.616 57.4916C147.997 57.9175 155.533 58.3433 163.069 58.3433C164.623 58.3433 166.177 58.3433 167.73 58.2369C169.129 58.2369 170.527 58.1304 171.926 58.1304C175.577 58.0239 179.384 57.9175 183.114 57.9175C184.124 57.9175 185.134 57.9175 186.144 57.9175C188.785 57.9175 191.427 58.1304 193.99 58.2369C197.254 58.3433 200.594 58.5562 203.935 58.5562H204.401C205.955 58.5562 207.587 58.5562 209.141 58.4498C210.927 58.4498 212.714 58.3433 214.501 58.3433C217.065 58.3433 219.241 58.4498 221.183 58.6627C221.649 58.6627 222.193 58.7692 222.659 58.7692C224.679 58.9821 226.699 59.195 228.797 59.195C228.952 54.7237 228.952 49.4006 228.097 43.9711C228.02 43.5453 227.942 43.2259 227.864 42.8001C227.554 41.0967 227.243 39.2869 227.321 37.5835C227.398 35.6672 227.787 33.9639 228.641 32.154C227.787 31.9411 226.854 31.8346 225.922 31.8346C225.223 31.8346 224.524 31.7282 223.824 31.6217C223.669 31.6217 223.514 31.4088 223.514 31.1959C223.514 30.983 223.514 30.8765 223.669 30.77C224.446 29.9183 225.301 29.2796 226.388 28.6408C226.621 28.5344 226.777 28.4279 227.01 28.3214C227.398 28.1085 227.787 27.8956 228.175 27.6827C228.486 27.4697 228.486 27.2568 228.331 26.6181C228.331 26.5116 228.253 26.2987 228.253 26.1922C228.02 23.4242 227.942 20.6563 227.864 17.8883C227.864 17.2495 227.787 16.6108 227.787 15.972C227.787 15.2268 227.709 14.588 227.709 13.8428C227.631 12.8847 227.631 12.033 227.554 11.0748C227.554 10.0102 227.631 9.265 227.864 8.51977C228.02 7.98747 228.253 7.34869 228.408 6.70993C228.719 5.75179 229.03 4.68719 229.263 3.72905C226.155 2.66444 222.737 2.13214 218.153 2.13214C216.288 2.13214 214.424 2.23859 212.637 2.23859C210.539 2.34505 208.441 2.45152 206.344 2.34505C204.945 2.34505 203.469 2.34505 202.07 2.23859C199.817 2.23859 197.564 2.13214 195.311 2.13214C194.379 2.13214 193.447 2.13214 192.514 2.13214C188.008 2.2386 183.424 2.45152 178.996 2.66444H178.452C173.635 2.7709 168.43 3.09027 163.38 3.09027Z" fill="#B37052"/>
<path opacity="0.5" d="M44.743 7.34889C47.6177 7.34889 50.4923 7.66828 53.3669 7.8812C56.2415 8.20058 59.1161 7.98766 61.9908 7.8812C64.9431 7.77474 67.8177 8.30704 70.77 8.4135C73.8 8.51996 76.7523 8.51996 79.7823 8.62642C85.7647 8.83934 91.6693 9.90395 97.6516 10.7556C103.712 11.6073 109.694 12.3525 115.832 12.5655C127.796 12.8848 139.683 12.459 151.57 11.3944C157.63 10.8621 163.69 10.3298 169.75 9.90394C172.703 9.69102 175.577 9.47811 178.529 9.47811C181.404 9.47811 184.356 9.47811 187.231 9.26519C193.446 8.83935 199.584 7.56182 205.8 7.98766C207.276 8.09413 208.752 8.20058 210.306 8.20058C211.86 8.20058 213.336 8.20058 214.812 8.4135C216.366 8.62642 217.92 8.83935 219.396 9.05227C220.716 9.26519 222.426 9.47811 223.669 10.3298L223.746 10.2233C222.814 9.4781 221.649 9.26519 220.639 8.9458C219.163 8.51996 217.609 8.30704 216.055 8.09412C214.656 7.88119 213.258 7.66828 211.86 7.66828C210.383 7.66828 208.83 7.77473 207.353 7.56181C201.604 6.71013 195.699 7.98766 189.873 8.4135C183.968 8.9458 177.986 8.62643 172.081 9.05227C166.254 9.47811 160.349 9.90394 154.522 10.4362C142.402 11.6073 130.282 12.1396 118.162 11.9267C112.102 11.8202 106.042 11.1815 99.9824 10.3298C96.9524 9.90395 94.0001 9.58456 90.9701 9.15872C88.0177 8.73288 84.9877 8.30704 82.0354 8.20058C78.9277 8.09412 75.7423 8.09412 72.6346 8.09412C69.4492 8.09412 66.1862 7.66827 63.0008 7.56181C60.0485 7.45535 57.0962 7.88119 54.1438 7.56181C51.0361 7.56181 47.9284 7.24243 44.743 7.34889C44.8207 7.24243 44.743 7.34889 44.743 7.34889Z" fill="black"/>
<path opacity="0.5" d="M94.7769 6.49705C95.7092 7.02935 96.7192 7.13582 97.7292 7.34874C98.9723 7.56166 100.138 7.77458 101.381 7.88104C103.945 8.30688 106.586 8.62627 109.15 8.73273C111.714 8.83919 114.2 9.47795 116.764 9.47795C119.483 9.58441 122.125 10.0103 124.844 10.0103C130.049 10.0103 135.255 9.37149 140.46 9.26503C142.791 9.26503 144.966 8.73273 147.297 8.41335C148.385 8.30688 149.472 7.98751 150.56 7.98751C151.104 7.98751 151.648 7.88104 151.959 7.34874C151.959 7.34874 152.036 7.13582 152.036 7.02935C151.57 6.49705 150.949 6.49705 150.327 6.49705C149.55 6.49705 148.695 6.28413 147.919 6.28413C145.976 6.17767 144.112 5.32599 142.247 5.21953C138.207 5.00661 134.167 4.26139 130.127 4.26139C128.34 4.26139 126.553 3.94199 124.766 4.04846C122.979 4.04846 121.115 4.15492 119.328 4.36784C117.463 4.58076 115.598 4.58077 113.734 4.79369C111.792 5.00661 109.927 5.43245 107.985 5.53891C107.907 5.53891 107.596 5.96475 107.752 5.96475C109.772 6.81643 111.947 6.81644 113.967 6.60352C114.977 6.49706 115.909 6.49705 116.919 6.70997C118.007 6.92289 119.017 7.13582 120.105 7.13582C122.202 7.13582 124.222 7.56166 126.242 7.34874C126.709 7.34874 127.097 7.13582 127.563 7.13582C128.029 7.13582 128.495 7.34874 129.039 7.34874C130.127 7.34874 131.215 7.24227 132.302 7.24227C132.38 7.24227 132.38 7.13582 132.38 7.13582C131.448 7.13582 130.515 7.13582 129.505 7.02935C128.651 7.02935 127.796 6.60352 126.864 6.81644C124.689 7.34874 122.435 6.70997 120.182 6.70997C119.25 6.70997 118.318 6.49706 117.385 6.3906C116.298 6.17768 115.21 6.17767 114.045 6.17767C112.335 6.28413 110.548 6.28414 108.917 5.8583C110.082 5.75184 111.248 5.53892 112.491 5.326C114.355 5.11307 116.298 5.00661 118.162 4.79369C120.027 4.58077 121.892 4.4743 123.834 4.36784C125.776 4.26138 127.641 4.4743 129.583 4.58076C133.545 4.68722 137.43 5.21953 141.392 5.53891C143.179 5.64537 144.966 6.07121 146.831 6.49705C147.685 6.70997 148.54 6.70998 149.395 6.81644C150.172 6.9229 151.104 6.70998 151.725 7.34874C151.182 7.77458 150.094 7.4552 149.55 7.56166C148.54 7.56166 147.452 7.88104 146.52 8.09396C144.189 8.62626 141.859 8.73273 139.528 8.73273C137.042 8.73273 134.633 9.15857 132.147 9.26503C129.583 9.37149 127.019 9.47796 124.378 9.58442C119.483 9.69088 114.588 8.62627 109.694 8.41335C107.208 8.30688 104.722 7.98751 102.313 7.66812C101.07 7.4552 99.7492 7.34874 98.5061 7.02935C97.4184 6.81643 96.3307 6.70998 95.2431 6.07122C95.7092 5.64537 96.4084 5.85828 96.9523 5.64536C97.9623 5.43244 98.9723 5.21952 100.06 5.11306C102.313 4.90014 104.488 4.58077 106.664 4.26139C108.917 3.94201 111.248 3.72907 113.501 3.51615C115.832 3.30323 118.24 3.19678 120.571 3.09032C122.746 2.98386 124.766 3.09032 126.942 3.19678C129.195 3.30324 131.448 3.09032 133.701 3.19678C135.954 3.30324 138.207 3.51617 140.382 3.72909C141.47 3.83555 142.558 3.94199 143.645 4.04846C144.5 4.15492 145.51 4.04847 146.209 4.47431L146.287 4.36784C145.665 3.942 144.889 4.04846 144.267 3.83554C143.179 3.62262 142.014 3.51616 140.926 3.4097C138.595 3.19678 136.265 2.98385 133.934 2.77093C131.603 2.55801 129.195 2.8774 126.864 2.66448C125.776 2.55802 124.611 2.45156 123.523 2.3451C122.28 2.3451 121.037 2.45155 119.794 2.55801C115.132 2.77094 110.471 3.30323 105.809 3.83554C103.478 4.15492 101.225 4.36784 98.8946 4.68723C98.04 4.79369 97.1854 5.0066 96.3307 5.11306C95.7869 5.21952 95.3208 5.43245 94.9323 5.96475C94.7769 6.28413 94.6992 6.49705 94.7769 6.49705Z" fill="black"/>
<path opacity="0.5" d="M161.826 5.85836C167.497 5.96482 173.091 5.53898 178.763 5.53898C181.56 5.53898 184.357 5.43252 187.231 5.53898C188.63 5.53898 190.028 5.64543 191.504 5.75189C192.903 5.85836 194.301 6.2842 195.622 6.2842C196.244 6.2842 196.865 6.2842 197.487 6.2842C198.03 6.2842 198.652 6.49712 199.196 6.49712C200.517 6.60358 201.837 6.49712 203.158 6.49712C204.479 6.49712 205.8 6.49713 207.12 6.39067C208.441 6.28421 209.762 6.07128 211.083 6.07128C212.404 6.07128 213.724 5.85836 215.045 5.85836C216.288 5.85836 217.531 6.07128 218.852 5.85836C220.173 5.7519 221.494 5.64544 222.814 5.53898C223.436 5.43252 224.135 5.32604 224.757 5.11312C225.456 5.00666 226.233 4.58083 226.932 5.00667L227.01 4.9002C226.233 4.3679 225.067 4.90021 224.213 5.00667C222.892 5.21959 221.649 5.2196 220.328 5.32606C218.852 5.43252 217.454 5.43251 215.977 5.43251C214.657 5.32605 213.336 5.64543 212.015 5.64543C209.374 5.64543 206.732 5.96481 204.09 5.96481C202.77 5.96481 201.449 5.96481 200.128 5.96481C198.807 5.96481 197.564 5.75189 196.321 5.75189C195 5.75189 193.602 5.32605 192.204 5.21959C190.805 5.11313 189.407 5.00667 187.93 5.00667C185.134 4.90021 182.337 5.00667 179.462 5.00667C173.48 5.11313 167.653 5.64544 161.826 5.85836C161.826 5.7519 161.748 5.85836 161.826 5.85836Z" fill="black"/>
<path opacity="0.5" d="M5.66382 9.90381C8.61613 9.47797 11.6461 9.1586 14.5984 9.05214C17.24 8.94568 19.8815 9.15858 22.6008 8.8392C25.4754 8.51982 28.35 7.98753 31.2246 7.66815C34.2546 7.34877 37.2846 7.24231 40.3146 6.92293C43.2669 6.49708 46.2193 5.85832 49.1716 5.53894C50.7254 5.32602 52.2793 5.43248 53.8331 5.32602C55.387 5.21956 56.8631 5.11308 58.417 5.11308C64.3993 5.43247 70.3039 5.32602 76.2862 5.32602C78.4616 5.32602 80.5593 5.85831 82.7347 5.75185C83.8224 5.75185 84.9878 5.75185 86.0755 5.75185C87.1632 5.75185 88.1732 5.32601 89.2609 5.75185C89.2609 5.75185 89.3386 5.64539 89.2609 5.64539C88.0955 5.11308 86.6193 5.64539 85.3763 5.64539C83.8224 5.64539 82.3462 5.6454 80.7924 5.53894C79.4716 5.43248 78.0732 5.21956 76.7524 5.00663C75.2762 4.79371 73.7224 5.00663 72.3239 5.00663C69.2939 5.00663 66.1862 5.00663 63.1562 5.00663C60.2039 5.00663 57.3293 4.68725 54.4547 4.90017C51.58 5.11309 48.7054 5.21955 45.8308 5.64539C42.7231 6.17769 39.6931 6.60355 36.5854 6.92293C33.7108 7.13585 30.8362 7.34876 27.9615 7.88107C25.0869 8.41337 22.1346 8.73274 19.1823 8.8392C17.0069 8.94566 14.9092 8.83922 12.7338 9.05214C10.2477 9.1586 7.99459 9.47797 5.66382 9.90381C5.66382 9.79735 5.58613 9.90381 5.66382 9.90381Z" fill="black"/>
<path opacity="0.5" d="M4.3431 20.0176C7.14003 18.953 10.2477 19.1659 13.1223 18.953C16.0747 18.7401 19.1047 17.8884 22.057 17.8884C28.0393 17.8884 34.0216 17.3561 40.0039 17.0367C42.8009 16.9302 45.6755 16.9302 48.4724 16.7173C51.4247 16.5044 54.4547 16.2915 57.4071 16.185C60.3594 16.0785 63.3117 15.8656 66.264 15.8656C69.2163 15.8656 72.2463 15.8656 75.1986 15.9721C78.7725 15.9721 82.2686 16.2915 85.7648 16.5044C87.5517 16.6109 89.3387 16.6108 91.1256 16.8238C92.9125 17.0367 94.6994 17.3561 96.4864 17.4625C103.479 17.8884 110.549 16.7173 117.463 17.6754L117.541 17.569C111.714 16.7173 105.809 17.2496 99.9825 17.1431C97.1079 17.1431 94.2333 16.7173 91.3587 16.2915C88.4063 15.8656 85.454 15.8656 82.5017 15.5462C70.7702 14.6946 58.9609 15.3333 47.2293 16.185C43.7332 16.3979 40.1593 16.5044 36.6632 16.5044C32.9339 16.5044 29.2047 17.1432 25.4755 17.2496C23.7662 17.2496 22.057 17.1431 20.4255 17.3561C18.6385 17.569 16.8516 17.8884 14.987 18.2077C13.2001 18.4207 11.4131 18.6336 9.62618 18.74C7.91695 19.0594 6.05234 19.1659 4.3431 20.0176C4.3431 19.9111 4.3431 20.0176 4.3431 20.0176Z" fill="black"/>
<path opacity="0.5" d="M2.71175 17.2498C4.96483 17.2498 7.21792 16.8239 9.471 16.611C11.9572 16.3981 14.4433 16.3981 16.8518 16.3981C21.5133 16.2916 26.2526 16.2916 30.9141 15.7593C33.478 15.4399 35.9641 15.227 38.6057 15.1205C41.1695 15.1205 43.6557 14.8012 46.1418 14.5882C48.7057 14.3753 51.1919 13.843 53.7557 13.5236C55.0765 13.3107 56.3196 13.3107 57.6403 12.9913C58.4949 12.7784 59.2719 12.9913 60.0488 12.3526C60.1265 12.2461 60.2819 12.1397 60.2042 11.9267C59.9711 11.6074 59.8157 11.5009 59.5049 11.3944C59.1165 11.288 58.728 11.1815 58.2619 11.075C57.1742 10.7557 56.0088 10.7557 54.8434 10.7557C52.3572 10.6492 49.7934 10.6492 47.3072 10.6492C42.3349 10.7557 37.2849 11.075 32.3126 11.3944C27.2626 11.6074 22.2903 11.9267 17.2402 12.1397C14.7541 12.2461 12.3456 12.2461 9.85946 12.459C7.68407 12.5655 5.431 11.7138 3.3333 12.5655C3.25561 12.5655 3.17791 12.7784 3.2556 12.7784C5.43099 11.9267 7.83945 12.8849 10.0925 12.7784C12.4233 12.672 14.7541 12.5655 17.1625 12.5655C22.0572 12.459 26.9518 12.0332 31.8464 11.8203C36.741 11.6073 41.6357 11.288 46.5303 11.1815C48.9388 11.0751 51.3472 11.0751 53.7557 11.1815C54.9211 11.1815 56.0865 11.3944 57.3295 11.3944C57.7957 11.3944 58.3396 11.6073 58.8057 11.8203C59.1942 11.9267 59.6603 11.9267 59.9711 12.2461C59.1942 12.672 58.3396 12.5655 57.5626 12.7784C56.3195 13.0978 54.9988 13.0978 53.678 13.3107C51.1142 13.6301 48.628 14.1624 46.0642 14.3753C43.4226 14.5882 40.8588 14.9076 38.2172 14.9076C35.8864 14.9076 33.5557 15.227 31.1472 15.5464C26.408 16.1851 21.591 16.0787 16.7741 16.1852C14.521 16.2916 12.2679 16.2916 10.0148 16.5045C7.52868 16.5045 5.12021 17.0368 2.71175 17.2498C2.71175 17.1433 2.63406 17.2498 2.71175 17.2498Z" fill="black"/>
<path opacity="0.5" d="M8.38312 38.2224C9.93697 37.7966 11.4908 37.3707 13.1223 37.3707C14.7539 37.2643 16.3077 36.9449 17.9393 36.8384C21.1247 36.8384 24.2324 36.1996 27.3401 35.5609C30.7585 34.8157 34.177 33.7511 37.6732 33.1123C41.1693 32.4735 44.6655 31.8348 48.1616 31.3025C55.2316 30.2379 62.3017 30.3443 69.4494 30.2379C76.4417 30.1314 83.434 29.812 90.4263 29.4926C97.574 29.1733 104.722 28.7474 111.869 28.3216C118.862 27.8957 125.932 27.5763 132.924 26.9376C147.142 25.7665 161.282 24.1696 175.422 22.4662C183.813 21.5081 192.203 20.4435 200.594 19.4853C204.79 18.953 209.063 18.5272 213.258 17.6755C215.356 17.2497 217.531 16.8238 219.629 16.6109C220.717 16.5044 221.727 16.5044 222.814 16.6109C223.358 16.6109 223.902 16.7174 224.446 16.8238C224.601 16.8238 225.611 16.9303 224.912 16.9303L224.834 17.0368C224.99 17.0368 225.067 17.0368 225.223 17.0368L225.3 16.9303C222.193 15.8657 218.93 16.398 215.822 16.9303C212.326 17.5691 208.907 18.2078 205.489 18.6337C198.497 19.3789 191.427 20.2306 184.434 21.0823C170.372 22.6792 156.232 24.3825 142.169 25.7665C127.796 27.1505 113.346 27.8957 98.9725 28.7474C91.9025 29.1733 84.8325 29.3862 77.7625 29.7056C70.7701 29.9185 63.8555 29.812 56.8632 30.1314C48.5501 30.5572 40.237 32.1542 32.0793 34.2834C28.117 35.2415 24.077 36.1996 20.037 36.6255C18.1724 36.8384 16.3077 36.6255 14.4431 37.0513C12.4231 37.4772 10.4808 37.5836 8.53848 38.3289C8.3831 38.1159 8.30542 38.3289 8.38312 38.2224Z" fill="black"/>
<path opacity="0.5" d="M5.43076 45.7811C8.46075 44.5036 11.6461 43.8648 14.8315 43.2261C18.1723 42.5873 21.5908 42.2679 25.0093 41.9485C28.5831 41.5227 32.0793 41.0968 35.6531 40.8839C39.227 40.671 42.7231 40.3516 46.297 40.1387C53.2893 39.6064 60.2816 38.8612 67.274 38.0095C74.4217 37.2643 81.5694 37.5836 88.7171 37.2643C95.7871 36.9449 102.857 36.3061 109.927 36.4126C116.997 36.4126 124.067 37.4772 131.137 38.0095C138.129 38.5418 145.199 38.7547 152.192 39.6064C159.029 40.4581 165.866 41.4162 172.625 42.1614C176.743 42.5873 180.783 43.3325 184.9 43.8648C189.173 44.3971 193.524 44.5036 197.797 44.7165C201.993 44.9294 206.188 45.1423 210.306 45.7811C212.326 46.1005 214.423 46.1005 216.443 46.4199C217.376 46.6328 218.308 46.8457 219.24 46.7393C220.328 46.6328 221.416 46.3134 222.503 46.3134L222.581 46.207C221.105 46.207 219.629 46.9522 218.153 46.6328C216.366 46.3134 214.657 45.994 212.87 45.7811C209.373 45.4617 205.955 44.9294 202.459 44.7165C195.544 44.1842 188.707 44.0777 181.793 43.1196C168.041 41.2033 154.29 38.9676 140.538 38.1159C137.042 37.903 133.546 37.6901 129.972 37.4772C126.476 37.2643 122.979 36.732 119.406 36.4126C112.336 35.7738 105.188 35.9867 98.0402 36.3061C94.544 36.519 91.0479 36.8384 87.5517 36.9449C84.0555 37.0513 80.4817 37.0513 76.9855 37.1578C69.9932 37.2643 63.0786 38.3289 56.1639 38.9676C47.3847 39.8193 38.5278 40.3516 29.7485 41.0968C27.7285 41.3098 25.7085 41.7356 23.6885 41.9485C21.5131 42.1615 19.3377 42.3744 17.1623 42.8002C15.1423 43.1196 13.2 43.6519 11.2577 44.0777C9.39307 44.2907 7.45074 44.823 5.43076 45.7811C5.43076 45.6747 5.43076 45.7811 5.43076 45.7811Z" fill="black"/>
<path opacity="0.5" d="M132.07 34.496C133.313 34.7089 134.556 35.0283 135.799 35.1348C138.751 35.5606 141.703 35.7735 144.656 36.0929C147.608 36.4123 150.56 37.0511 153.513 37.3705C159.34 37.9028 165.089 38.7544 170.916 39.4997C176.82 40.3513 182.647 40.6707 188.552 40.6707C194.612 40.6707 200.594 41.8418 206.654 42.6935C209.684 43.1193 212.714 43.4387 215.744 43.5452C218.697 43.6516 221.649 43.3322 224.601 43.3322C225.534 43.3322 226.466 43.3322 227.398 43.2258C227.476 43.2258 227.476 43.1193 227.476 43.1193C224.679 43.0129 221.96 43.2258 219.163 43.2258C216.133 43.3322 213.103 43.0129 210.073 42.6935C207.043 42.3741 204.013 41.8418 200.983 41.5224C197.953 41.203 195 40.4578 191.97 40.3514C189.018 40.2449 186.066 40.3514 183.036 40.2449C180.083 40.1384 177.131 39.819 174.257 39.4997C168.43 38.8609 162.68 37.6898 156.853 37.1575C153.901 36.9446 151.027 36.5188 148.152 36.0929C145.2 35.6671 142.17 35.4542 139.217 35.1348C137.819 34.9219 136.42 34.7089 135.022 34.496C134.4 34.3896 133.779 34.2831 133.157 34.0702C132.613 33.8573 132.07 33.9637 131.603 33.6443C130.749 33.0056 132.38 32.1539 132.691 32.0474C133.39 31.728 134.167 31.4087 134.866 31.1957C138.518 30.0247 142.247 29.173 145.977 29.0665C149.007 28.9601 151.959 29.0665 154.989 29.0665C157.941 29.0665 160.816 28.8536 163.768 28.5342C169.362 27.8955 174.956 27.5761 180.55 27.0438C186.066 26.5115 191.427 25.8727 196.865 24.8081C199.584 24.2758 202.304 23.9564 205.1 23.4241C207.742 22.9983 210.384 22.466 213.025 22.466C215.511 22.466 218.075 21.7208 220.561 21.4014C223.125 21.082 225.689 20.4432 228.253 20.2303C228.253 20.2303 228.331 20.1238 228.253 20.1238C225.844 20.3368 223.358 20.8691 220.95 21.082C219.629 21.1885 218.23 21.2949 216.91 21.5078C215.278 21.8272 213.724 21.9337 212.093 21.9337C211.005 21.9337 209.762 22.2531 208.674 22.3595C207.12 22.5724 205.644 22.7854 204.09 23.1047C201.138 23.637 198.108 24.0629 195.156 24.5952C189.251 25.6598 183.269 26.2986 177.287 26.8309C174.257 27.1502 171.227 27.2567 168.197 27.5761C165.011 27.8955 161.903 28.3213 158.718 28.5342C152.891 28.9601 147.064 28.2148 141.315 29.173C138.44 29.7053 135.41 30.3441 132.691 31.6216C132.225 31.8345 131.06 32.3668 131.06 33.2185C131.06 34.1766 131.681 34.3896 132.07 34.496Z" fill="black"/>
<path opacity="0.5" d="M184.745 33.3253C186.92 34.8157 189.407 35.1351 191.815 35.561C194.767 36.0933 197.72 36.3062 200.75 36.8385C204.79 37.4772 208.83 38.116 212.87 38.5419C214.89 38.7548 216.91 38.7548 218.852 38.7548C220.561 38.7548 222.659 38.6483 224.29 39.5C223.436 38.9677 222.348 38.7548 221.338 38.6483C219.862 38.4354 218.308 38.5419 216.832 38.5419C213.88 38.4354 210.85 38.0096 207.897 37.5837C201.993 36.732 196.01 35.9868 190.106 34.9222C188.785 34.7093 187.542 34.4964 186.299 33.8576C185.833 33.6447 185.289 33.3253 184.823 33.1124C184.59 33.0059 184.434 32.793 184.279 32.6865C183.657 32.0478 184.512 31.409 184.9 31.3025C187.231 30.4509 189.64 30.3444 192.048 29.8121C194.923 29.1733 197.72 28.8539 200.594 29.0669C203.314 29.2798 205.955 29.3862 208.674 28.641C211.549 27.8958 214.424 27.47 217.298 27.1506C218.697 27.0441 220.095 26.8312 221.494 26.6183C222.97 26.4053 224.446 27.0441 225.922 26.5118C225.922 26.5118 226 26.4054 225.922 26.4054C224.601 26.8312 223.28 26.2989 221.882 26.4054C220.328 26.5118 218.852 26.8312 217.298 26.9377C214.424 27.257 211.549 27.5764 208.674 28.3216C205.8 29.0669 202.925 28.8539 199.973 28.641C197.331 28.4281 194.69 28.8539 192.048 29.3862C189.64 29.9185 187.309 30.1315 184.9 30.8767C184.434 30.9832 184.046 31.3025 183.735 31.8348C183.58 32.4736 184.279 33.0059 184.745 33.3253Z" fill="black"/>
<path opacity="0.5" d="M210.617 34.2836C210.85 34.7094 211.16 34.9223 211.549 35.0288C212.17 35.2417 212.87 35.4546 213.491 35.5611C214.89 35.8805 216.288 35.774 217.687 35.6676C219.24 35.5611 220.717 35.6676 222.27 35.774C222.892 35.774 223.514 35.8805 224.135 35.9869C224.601 36.0934 224.99 36.4128 225.456 36.1999C225.456 36.1999 225.534 36.0934 225.456 36.0934C224.99 36.1999 224.601 35.8805 224.213 35.774C223.669 35.6676 223.203 35.5611 222.659 35.5611C221.571 35.4546 220.561 35.2417 219.474 35.2417C217.143 35.3482 214.89 35.6676 212.559 34.9223C212.093 34.8159 211.471 34.7094 211.083 34.39C210.228 33.7513 211.471 32.8996 211.782 32.7931C212.792 32.2608 213.88 31.9414 215.045 31.7285C216.133 31.5156 217.22 31.4091 218.23 30.9833C219.318 30.5574 220.484 30.2381 221.571 29.9187L221.649 29.8122C220.328 30.1316 219.007 30.5574 217.764 30.9833C216.444 31.4091 214.967 31.4091 213.647 31.835C213.103 31.835 209.84 32.7931 210.617 34.2836Z" fill="black"/>
<path opacity="0.5" d="M166.643 35.561C167.886 36.4127 168.973 36.945 170.372 37.2643C172.003 37.5837 173.713 37.5837 175.344 37.7966C178.219 38.116 181.093 38.7548 183.89 39.3936C181.793 38.8613 179.617 38.4354 177.442 38.0096C176.199 37.7967 174.956 37.4773 173.635 37.3708C172.159 37.2643 170.76 37.0514 169.362 36.732C168.274 36.4127 167.342 35.6674 166.332 35.0287C165.244 34.3899 166.565 32.8995 167.187 32.3672C167.73 31.9413 168.43 31.8349 169.051 31.6219C171.46 30.9832 173.79 30.1315 176.121 29.0669C176.121 29.0669 176.199 28.854 176.199 28.9604C174.723 29.4927 173.324 30.025 171.848 30.5573C170.527 30.9832 169.129 31.1961 167.886 31.7284C167.187 32.0478 166.332 32.5801 165.866 33.5382C165.322 34.7093 165.866 35.1351 166.643 35.561Z" fill="black"/>
<path opacity="0.5" d="M87.4741 52.5943C90.5041 52.062 93.5341 52.1685 96.5641 52.1685C99.4387 52.1685 102.391 52.7008 105.266 52.5943C108.218 52.4879 111.093 52.1685 114.045 52.062C116.997 51.9556 119.872 51.6362 122.824 51.3168C135.177 50.0393 147.53 49.8264 159.883 49.7199C170.993 49.7199 182.181 49.9328 193.291 49.9328C196.01 49.9328 198.73 49.7199 201.449 49.7199C204.168 49.6134 206.81 49.7199 209.529 49.7199C212.17 49.6134 214.967 49.7199 217.531 50.3587C218.93 50.678 220.328 50.891 221.727 50.9974C222.892 51.1039 224.057 50.9974 225.223 51.5297C225.223 51.5297 225.3 51.5297 225.223 51.4233C224.135 50.7845 222.97 50.891 221.804 50.678C220.328 50.4651 218.774 50.2522 217.298 49.8264C214.501 49.0811 211.471 49.1876 208.597 49.1876C205.722 49.2941 202.77 49.0811 199.895 49.1876C196.943 49.2941 193.913 49.4005 190.96 49.4005C184.978 49.4005 178.996 49.0811 173.013 49.0811C166.876 49.0811 160.738 49.0811 154.6 49.0811C143.335 49.1876 132.07 49.6134 120.804 50.7845C117.929 51.1039 115.055 51.2103 112.103 51.3168C109.306 51.4233 106.509 51.8491 103.789 51.8491C101.07 51.8491 98.4287 51.5297 95.7095 51.5297C92.9902 51.5297 90.271 51.6362 87.5518 52.1685C87.4741 52.4879 87.4741 52.5943 87.4741 52.5943Z" fill="black"/>
<path opacity="0.5" d="M141.703 54.8303C142.402 54.5109 143.101 54.6174 143.8 54.5109C144.422 54.5109 145.043 54.298 145.743 54.298C147.219 54.298 148.695 54.4045 150.171 54.5109C152.968 54.7239 155.843 54.6174 158.64 54.4045C161.592 54.1916 164.622 53.7657 167.574 53.3399C170.604 53.0205 173.634 52.914 176.664 52.914C179.539 52.914 182.414 53.0205 185.366 53.1269C188.24 53.2334 191.115 53.6593 194.067 53.6593C196.942 53.6593 199.739 53.9786 202.536 53.8722C203.624 53.8722 204.711 53.4463 205.799 53.3399C206.42 53.2334 206.964 53.127 207.586 52.914C208.285 52.7011 209.062 52.8076 209.761 52.7011C211.237 52.4882 212.714 52.3817 214.19 52.3817C214.967 52.3817 215.744 52.5946 216.443 52.5946C217.22 52.5946 217.997 52.5946 218.774 52.7011C219.551 52.8076 220.327 53.1269 221.104 53.3399C221.881 53.5528 222.736 53.5528 223.513 53.6593C224.29 53.7657 224.989 53.9786 225.766 54.1916C226.543 54.4045 227.397 54.1916 228.174 54.1916L228.252 54.0851C227.631 54.0851 226.931 54.0851 226.31 53.9786C225.688 53.8722 225.067 53.4463 224.367 53.3399C222.891 53.1269 221.415 53.0205 219.939 52.5946C218.618 52.1688 217.297 52.2753 215.977 52.1688C215.277 52.1688 214.656 51.9559 214.034 52.0623C213.257 52.0623 212.558 52.2753 211.781 52.2753C210.616 52.3817 209.451 52.3817 208.285 52.5946C207.741 52.7011 207.12 52.8076 206.576 53.0205C205.877 53.1269 205.255 53.1269 204.556 53.3399C201.759 54.0851 198.807 53.3399 195.932 53.3399C194.611 53.3399 193.29 53.3399 191.97 53.3399C190.416 53.3399 188.94 52.914 187.386 52.8076C184.511 52.7011 181.559 52.5946 178.684 52.5946C175.887 52.5946 173.09 52.4882 170.294 52.8076C167.341 53.1269 164.311 53.5528 161.359 53.8722C157.94 54.298 154.522 54.4045 151.103 54.298C149.472 54.298 147.84 54.1916 146.209 54.1916C145.587 54.1916 144.888 54.298 144.267 54.4045C143.334 54.6174 142.557 54.5109 141.703 54.8303Z" fill="black"/>
<path opacity="0.5" d="M33.4777 53.8721C35.7308 53.2334 37.9062 53.9786 40.1592 54.4044C42.3346 54.7238 44.5877 54.7238 46.7631 54.8303C48.9385 54.8303 51.0362 54.8303 53.2116 54.9367C55.3093 54.9367 57.3293 55.2561 59.3493 55.1497C63.467 54.9367 67.5847 54.5109 71.7801 54.298C72.7901 54.298 73.8001 54.298 74.8101 54.4044C75.9755 54.5109 77.2186 54.4044 78.3839 54.5109C79.5493 54.5109 80.637 54.7238 81.8024 54.7238C82.8124 54.7238 83.8224 54.5109 84.8324 54.298C84.8324 54.298 84.9101 54.1915 84.8324 54.1915C83.7447 54.298 82.657 54.5109 81.5693 54.5109C80.4039 54.5109 79.3162 54.1915 78.1509 54.0851C77.0632 53.9786 76.0532 54.0851 74.9655 53.9786C73.8778 53.8721 72.7901 53.7657 71.6247 53.8721C67.3516 54.0851 63.1562 54.5109 58.8831 54.7238C56.9408 54.8303 54.9985 54.5109 53.0562 54.5109C50.8808 54.5109 48.7054 54.5109 46.6077 54.5109C44.4323 54.5109 42.1792 54.5109 40.0039 54.1915C37.7508 53.7657 35.6531 53.1269 33.4777 53.8721C33.4777 53.7657 33.4777 53.8721 33.4777 53.8721Z" fill="black"/>
<path opacity="0.5" d="M1.23531 54.6174C2.47839 53.8722 3.87686 53.9787 5.19763 53.8722C6.67378 53.7657 8.14993 53.5528 9.62608 53.4464C12.6561 53.0205 15.6084 52.1688 18.6384 52.0624C24.3877 51.8495 30.0592 50.359 35.8085 50.4655C38.6831 50.4655 41.6354 50.6784 44.51 50.8913C47.54 51.2107 50.6477 50.9978 53.6777 50.9978C59.5047 50.9978 65.4093 51.5301 71.2362 50.8913C74.2662 50.5719 77.2186 50.1461 80.2486 49.8267C81.647 49.7202 82.9678 49.5073 84.3663 49.4009C85.8424 49.2944 87.3186 49.5073 88.7947 49.4009C91.5917 49.2944 94.4663 49.0815 97.2632 48.8686C100.138 48.6556 103.09 48.4427 105.965 48.0169C108.917 47.591 111.869 47.3781 114.822 47.1652C117.929 46.8458 121.037 46.5264 124.145 46.3135C127.097 46.1006 130.049 45.8877 133.002 45.8877C134.089 45.8877 135.255 45.7812 136.343 45.5683C136.886 45.4618 137.663 45.2489 137.974 44.6101C138.518 43.3326 136.731 42.6938 136.109 42.4809C133.623 41.6292 131.059 42.0551 128.573 41.7357C125.621 41.3099 122.591 41.4163 119.561 41.3099C116.609 41.2034 113.656 41.0969 110.626 41.0969C104.799 41.0969 99.0501 40.4582 93.2232 40.6711C87.3963 40.884 81.5693 41.6292 75.7424 42.268C72.6347 42.6938 69.527 43.0132 66.4193 43.2261C63.467 43.4391 60.437 43.3326 57.4847 43.4391C51.6577 43.652 45.7531 44.2908 39.9262 44.3972C34.0215 44.5037 28.1946 44.7166 22.3677 45.7812C19.4154 46.3135 16.463 47.2716 13.5107 47.3781C10.6361 47.591 7.76149 48.3363 4.80917 48.4427C4.03224 48.4427 3.33302 48.6556 2.55609 48.6556C2.47839 48.6556 2.4007 48.8686 2.47839 48.8686C5.19763 48.7621 7.91687 48.3363 10.6361 48.1233C12.1123 48.0169 13.5107 47.6975 14.9869 47.8039C16.3854 47.8039 17.8615 47.1652 19.26 46.9523C22.0569 46.42 24.8538 45.7812 27.6507 45.4618C30.7585 45.036 33.9438 45.036 37.1292 44.9295C43.0339 44.8231 48.8608 44.3972 54.7654 43.9714C57.7177 43.7584 60.7477 43.7584 63.7001 43.7584C66.5747 43.7584 69.4493 43.4391 72.4016 43.0132C78.4616 42.268 84.5217 41.5228 90.6594 41.0969C93.534 40.884 96.4086 40.7775 99.2832 40.884C102.236 41.0969 105.188 41.3099 108.062 41.3099C111.015 41.4163 113.967 41.3098 116.919 41.4163C119.949 41.5228 122.902 41.7357 125.932 41.7357C127.408 41.7357 128.806 42.0551 130.205 42.1615C131.681 42.268 133.157 42.0551 134.633 42.3745C135.333 42.4809 136.109 42.6938 136.809 43.0132C137.119 43.2261 137.508 43.4391 137.741 43.7584C138.518 44.6101 136.964 45.1424 136.498 45.2489C133.701 45.8877 130.749 45.5683 127.874 45.6747C124.999 45.8877 122.125 45.9941 119.328 46.207C116.22 46.5264 113.19 46.8458 110.082 47.0587C107.286 47.2716 104.489 47.8039 101.692 48.0169C98.6617 48.3362 95.6317 48.3363 92.6017 48.4427C91.2032 48.5492 89.8047 48.6556 88.4063 48.6556C86.9301 48.6556 85.3763 48.5492 83.9001 48.6556C78.0732 49.0815 72.3239 50.359 66.4193 50.359C63.7001 50.359 60.9808 50.1461 58.2616 50.1461C55.3093 50.0396 52.357 50.1461 49.4046 50.1461C43.8885 50.1461 38.45 49.1879 32.9338 49.6138C30.37 49.8267 27.8061 50.1461 25.2423 50.4655C23.8438 50.6784 22.5231 50.8913 21.1246 50.9978C19.7261 51.1042 18.4053 51.1042 17.0069 51.2107C14.2099 51.5301 11.413 52.3818 8.61609 52.8076C7.29532 53.0205 5.89685 53.0205 4.57608 53.3399C3.48839 53.9787 2.323 53.8722 1.23531 54.6174C1.23531 54.511 1.15762 54.6174 1.23531 54.6174Z" fill="black"/>
<path opacity="0.5" d="M2.71169 51.8494C5.50862 51.8494 8.22787 50.6783 11.0248 50.146C12.4233 49.8266 13.744 49.6137 15.1425 49.4008C16.774 49.0814 18.4056 49.2943 20.0371 49.1878C22.7564 48.9749 25.4756 48.762 28.1948 48.762C31.2248 48.6555 34.2548 48.762 37.2071 48.6555C43.1895 48.3362 49.0164 46.7393 54.9987 46.7393C60.5149 46.7393 66.0311 47.8039 71.5472 47.378C74.9657 47.0586 78.3842 47.1651 81.8026 46.8457C85.2211 46.5263 88.6396 46.3134 92.058 45.8876C92.8349 45.7811 93.6119 45.6746 94.4665 45.6746C95.3211 45.6746 96.1757 45.6746 97.0303 45.6746C98.6619 45.6746 100.216 45.7811 101.77 45.8876C102.547 45.8876 103.401 45.7811 104.178 45.8876C104.955 45.994 105.654 45.8876 106.431 45.6746C107.363 45.5682 108.296 45.5682 109.228 45.4617C110.238 45.3553 111.248 45.1423 112.336 45.0359L112.413 44.9294C109.617 44.9294 106.82 45.7811 104.023 45.5682C102.78 45.4617 101.459 45.5682 100.216 45.3553C98.895 45.1423 97.5742 45.3553 96.3311 45.1423C95.2434 45.0359 94.0003 45.2488 92.8349 45.3553C91.5142 45.5682 90.1157 45.6746 88.7949 45.7811C87.4742 45.8876 86.1534 45.8876 84.8326 45.994C83.2011 46.207 81.6472 46.4199 80.0157 46.4199C77.1411 46.5263 74.3441 46.6328 71.4695 46.8457C68.5949 47.0586 65.798 46.7393 62.9233 46.5263C57.2518 45.994 51.658 46.1005 45.9864 46.9522C42.2572 47.4845 38.6833 48.0168 34.9541 48.1232C31.3025 48.2297 27.651 48.2297 24.0771 48.4426C22.5233 48.5491 20.9694 48.762 19.3379 48.762C17.5509 48.762 15.764 48.8685 13.9771 49.1878C12.1902 49.5072 10.4809 49.8266 8.69402 50.2525C6.59633 50.8912 4.7317 51.7429 2.71169 51.8494C2.71169 51.7429 2.634 51.8494 2.71169 51.8494Z" fill="black"/>
<path opacity="0.5" d="M75.1211 44.823C76.3642 44.823 77.6073 44.7165 78.7727 44.7165C79.938 44.7165 81.1034 44.7165 82.2688 44.5036C83.5119 44.2907 84.8327 44.3972 86.0757 44.1842C87.3965 43.9713 88.9504 44.1842 90.2711 44.2907C91.5919 44.3972 92.835 44.5036 94.1558 44.5036C95.4765 44.5036 96.7196 44.2907 98.0404 44.2907C99.2058 44.1842 100.449 44.3972 101.614 44.1842C102.236 44.0778 102.935 43.9713 103.557 43.9713C104.023 43.9713 104.644 43.7584 105.033 43.9713C104.8 43.8649 104.567 43.6519 104.333 43.7584C103.79 44.0778 103.09 43.8649 102.547 43.8649C101.303 43.8649 100.06 44.0778 98.8173 44.0778C97.5742 44.0778 96.2535 44.1842 95.0104 44.2907C93.6119 44.3972 92.2135 44.2907 90.815 44.0778C85.6096 43.6519 80.4042 44.6101 75.1988 44.823C75.1211 44.6101 75.0434 44.823 75.1211 44.823Z" fill="black"/>
<path opacity="0.5" d="M3.02227 32.1543C4.10997 32.1543 5.27537 32.0478 6.36307 31.8349C7.76153 31.5155 9.16 31.8349 10.6361 31.7285C13.5108 31.5155 16.3854 31.5155 19.3377 31.5155C25.0869 31.4091 30.7585 29.9186 36.43 28.9605C42.3347 28.0023 48.2393 27.2571 54.1439 26.5119C57.1739 26.086 60.2039 25.6602 63.2339 25.6602C65.9532 25.6602 68.6724 25.5537 71.3917 25.3408C75.4317 25.0214 79.5494 24.8085 83.5894 24.4891C87.7848 24.1698 91.9802 23.531 96.1756 23.531C96.1756 23.531 96.2532 23.4245 96.1756 23.4245C93.3009 23.4245 90.504 23.6374 87.6294 23.8504C84.5994 24.0633 81.4917 24.1698 78.4617 24.3827C75.587 24.5956 72.7124 24.915 69.9155 25.0214C67.1963 25.1279 64.477 25.2344 61.7578 25.2344C58.8832 25.2344 56.0085 25.7667 53.2116 26.1925C50.2593 26.6183 47.3847 27.0442 44.4324 27.47C41.4801 27.7894 38.5278 28.2153 35.5754 28.6411C32.7008 29.0669 29.8262 29.8122 26.8739 30.238C22.6785 30.8768 18.4831 30.9832 14.2877 30.9832C12.3454 30.9832 10.4031 31.3026 8.38307 31.1962C6.59615 31.0897 4.8869 31.7284 3.17767 31.9414C3.02229 32.0478 2.94458 32.1543 3.02227 32.1543Z" fill="black"/>
<path opacity="0.5" d="M3.25551 30.1313C3.64397 29.812 4.26551 29.9184 4.73166 29.812C5.3532 29.7055 5.89704 29.7055 6.51858 29.599C7.99474 29.4926 9.5486 29.1732 11.0248 28.8538C13.9771 28.3215 16.9294 28.428 19.804 28.1086C25.7863 27.4698 31.8463 26.5117 37.8287 25.3406C40.781 24.8083 43.6556 24.276 46.6079 23.6372C47.9287 23.3179 49.3271 22.9985 50.6479 22.5726C51.2695 22.3597 51.9687 22.4662 52.5902 22.3597C53.1341 22.2533 53.7556 22.0403 54.2995 22.0403C54.8433 22.0403 55.4648 21.8274 55.931 21.4016C56.1641 21.1886 56.3195 20.6563 55.931 20.5499C54.9987 20.124 53.8333 20.4434 52.8233 20.4434C51.2694 20.4434 49.7156 20.8693 48.2394 20.9757C44.3548 21.1887 40.4702 21.1887 36.5856 21.1887C34.721 21.1887 32.934 20.9757 31.0694 20.9757C29.2048 20.9757 27.3402 21.1887 25.4756 21.1887C23.6886 21.1887 21.9794 21.4016 20.1925 21.2951C19.4155 21.1886 18.5609 21.1887 17.784 21.1887C16.9294 21.1887 16.3855 20.8693 15.5309 21.1887C14.754 21.4016 13.744 21.1887 12.8894 21.1887C12.0348 21.1887 11.2578 21.2951 10.4032 21.508C9.3932 21.721 8.3832 22.0403 7.29551 22.0403C6.82935 22.0403 6.20781 22.1468 5.74166 22.5726C5.74166 22.5726 5.66396 22.7856 5.74166 22.6791C6.20781 22.2533 7.21782 22.2533 7.83936 22.2533C8.4609 22.2533 8.92707 22.2533 9.54861 22.0403C11.1025 21.508 12.6563 21.6145 14.2102 21.6145C14.6763 21.6145 15.2201 21.6145 15.6863 21.508C16.3855 21.2951 16.9294 21.6145 17.6286 21.6145C19.0271 21.6145 20.3478 21.9339 21.7463 21.8274C23.0671 21.8274 24.3879 21.6145 25.7086 21.6145C27.1848 21.6145 28.5832 21.4016 29.9817 21.4016C32.8563 21.2951 35.731 21.6145 38.6056 21.6145C41.5579 21.6145 44.5102 21.6145 47.4625 21.4016C50.1041 21.2951 52.8233 20.4434 55.4648 20.8693C55.7756 20.8693 56.0864 21.2951 55.6202 21.508C55.4648 21.6145 55.2318 21.6145 55.0764 21.721C54.7656 21.8274 54.4548 21.8274 54.1441 21.9339C52.7456 22.3597 51.3471 22.3597 49.9487 22.7856C47.1517 23.5308 44.1994 24.0631 41.4025 24.7019C34.721 25.9794 27.9617 27.2569 21.2025 28.0021C17.9394 28.3215 14.5986 28.3215 11.2578 28.9603C9.62628 29.2797 7.99475 29.599 6.36321 29.812C5.66398 29.9184 5.04244 30.0249 4.4209 30.1313C3.87705 29.812 3.56628 29.7055 3.25551 30.1313C3.25551 30.0249 3.17782 30.1313 3.25551 30.1313Z" fill="black"/>
<path opacity="0.5" d="M1.77933 27.2569C2.16779 26.6181 3.33317 26.5117 3.95471 26.2987C4.80933 26.0858 5.66393 26.0858 6.51855 25.8729C8.46087 25.4471 10.4809 25.0212 12.4232 24.5954C14.2878 24.276 16.2301 24.276 18.0948 24.0631C19.1048 23.9566 20.0371 23.8501 21.0471 23.8501C21.7463 23.8501 22.3678 23.7437 22.9894 23.9566C22.4455 24.1695 21.9017 24.276 21.4355 24.3825C20.5809 24.5954 19.804 25.1277 19.0271 25.3406C17.1624 25.9794 15.2201 26.5117 13.3555 26.9375C11.4909 27.3633 9.54858 27.5763 7.60627 27.7892C6.75165 27.8956 5.81932 28.0021 4.9647 28.1086C4.03239 28.215 3.10008 28.215 2.24546 28.5344C2.24546 28.5344 2.16777 28.6409 2.24546 28.6409C3.02239 28.3215 3.87701 28.4279 4.65394 28.3215C5.66394 28.215 6.59626 28.1086 7.60627 28.0021C9.47089 27.7892 11.4132 27.5763 13.2778 27.2569C15.1424 26.9375 17.0847 26.2987 18.9494 25.7664C19.804 25.4471 20.6586 25.0212 21.5909 24.7018C22.2125 24.4889 22.834 24.4889 23.4555 24.0631C23.5332 24.0631 23.6886 23.7437 23.6109 23.6372C22.9117 23.2114 22.1348 23.3178 21.3578 23.4243C20.5032 23.5308 19.5709 23.5308 18.7163 23.6372C16.4632 23.8502 14.2101 23.8502 11.957 24.276C10.8693 24.4889 9.85933 24.8083 8.84933 25.0212C7.76163 25.2341 6.59625 25.7664 5.43086 25.7664C4.73163 25.7664 3.87702 25.9794 3.25548 26.2987C2.63394 26.7246 2.0901 26.7246 1.77933 27.2569C1.77933 27.3633 1.77933 27.3633 1.77933 27.2569Z" fill="black"/>
<path opacity="0.5" d="M116.842 22.5728C118.007 22.2534 119.25 22.4663 120.416 22.2534C121.892 22.0404 123.29 22.1469 124.767 21.934C126.087 21.8275 127.486 21.6146 128.807 21.5081C130.283 21.4017 131.837 21.5081 133.313 21.5081C134.556 21.5081 135.799 21.2952 137.042 21.1888C138.518 21.0823 139.994 20.9758 141.47 20.55C144.423 19.9112 147.453 19.6983 150.405 19.4854C156.387 18.9531 162.447 18.6337 168.43 17.782C174.645 16.9303 180.86 16.398 187.076 15.8657C193.913 15.3334 200.75 14.2688 207.587 14.1624C211.005 14.0559 214.424 14.1624 217.764 13.843C219.318 13.7365 220.95 13.6301 222.504 13.2042C223.281 12.9913 223.98 12.8848 224.757 12.6719C225.611 12.459 226.544 11.8202 227.398 12.459L227.476 12.3525C226.621 11.7138 225.534 12.3525 224.601 12.5654C223.125 12.8848 221.649 13.0978 220.173 13.3107C217.065 13.6301 213.88 13.7365 210.772 13.7365C204.79 13.7365 198.807 14.2688 192.903 14.9076C186.843 15.5464 180.705 15.7593 174.645 16.5045C168.507 17.1433 162.37 17.9949 156.232 18.4208C152.891 18.6337 149.55 18.9531 146.132 19.3789C142.713 19.8048 139.295 20.6565 135.799 20.7629C134.245 20.8694 132.691 21.0823 131.06 21.0823C129.506 21.0823 127.952 21.2952 126.398 21.5081C124.689 21.7211 123.057 21.8275 121.348 21.934C119.717 22.0404 118.24 22.0405 116.842 22.5728C116.842 22.4663 116.764 22.5728 116.842 22.5728Z" fill="black"/>
<path opacity="0.5" d="M125.699 18.7402C126.398 18.1015 127.097 17.995 127.952 17.995C128.651 17.995 129.428 17.8886 130.127 17.7821C131.603 17.6756 133.157 17.5692 134.633 17.4627C137.896 17.1433 141.159 16.2916 144.345 16.0787C147.297 15.8658 150.327 15.8658 153.28 15.44C154.056 15.3335 154.833 15.227 155.61 15.0141C156.465 14.8012 157.397 14.3754 158.252 14.3754C159.65 14.2689 161.204 13.7366 162.603 14.056C162.68 14.056 162.836 13.7366 162.758 13.7366C161.515 13.3108 160.039 13.7366 158.718 13.8431C157.164 14.056 155.61 14.5883 154.056 14.8012C150.638 15.44 147.22 15.3335 143.801 15.6529C142.325 15.7593 140.771 16.1852 139.295 16.5046C137.43 16.824 135.488 17.1433 133.623 17.2498C132.147 17.3563 130.593 17.5692 129.117 17.7821C127.952 17.8886 126.709 17.7821 125.699 18.7402C125.699 18.7402 125.621 18.7402 125.699 18.7402Z" fill="black"/>
</svg>
