<svg width="240" height="121" viewBox="0 0 240 121" fill="none" xmlns="http://www.w3.org/2000/svg">
<path d="M233.189 86.4662C233.508 86.5293 233.835 86.6093 234.166 86.7122L236.415 87.4128L235.359 89.5187C234.615 91.0008 234.16 92.5313 234.094 94.3371C234.041 95.7772 234.267 97.1746 234.527 98.7875C234.608 99.284 234.691 99.8009 234.771 100.346C235.655 105.754 235.649 111.017 235.493 116.255L235.432 118.277L233.411 118.193C231.627 118.119 229.766 117.942 227.983 117.771C227.153 117.692 226.339 117.614 225.559 117.549L225.547 117.548L225.535 117.547C221.783 117.19 218.104 117.277 214.292 117.367C212.544 117.408 210.767 117.45 208.943 117.45C205.897 117.45 202.859 117.318 199.843 117.186L199.737 117.182C196.672 117.048 193.626 116.918 190.53 116.918H190.512L190.494 116.917C186.506 116.847 182.522 116.963 178.473 117.08C176.414 117.14 174.339 117.2 172.238 117.236C163.331 117.469 154.346 116.969 145.476 116.476C142.11 116.289 138.759 116.103 135.436 115.957L135.427 115.957L135.417 115.957C125.479 115.429 115.565 115.536 105.668 116.587L105.562 116.598H105.456C102.554 116.598 99.5743 116.703 96.5932 116.912C90.4188 117.402 84.2756 117.1 78.2387 116.7C77.2691 116.636 76.3032 116.569 75.3402 116.503C70.2682 116.153 65.2783 115.809 60.2698 115.853C55.548 115.956 50.8961 116.158 46.1503 116.365L45.72 116.383C40.7687 116.599 35.8282 116.598 30.9058 116.491L30.8999 116.491V116.491C30.0373 116.47 29.1763 116.448 28.3167 116.425C20.5405 116.224 12.881 116.026 5.2254 116.593L3.07767 116.752V114.598V105.549V105.368L3.11014 105.19C3.19292 104.736 3.30295 104.224 3.55663 103.68C4.24036 102.004 5.29312 100.555 6.2276 99.339C5.78835 99.0051 5.34213 98.6796 5.03496 98.4691L3.56133 97.4595L4.39877 95.8816C4.77629 95.1703 4.96089 93.9947 4.94244 92.4652C4.92516 91.0324 4.7393 89.5696 4.58363 88.3442L4.57022 88.2385L233.189 86.4662ZM233.189 86.4662C233.415 86.3255 233.643 86.1718 233.865 86.0032M233.189 86.4662L233.865 86.0032M233.865 86.0032C234.901 85.3158 235.066 84.232 235.066 83.6314C235.066 83.3261 235.028 83.0444 235.001 82.859C234.986 82.7534 234.974 82.6814 234.965 82.6231C234.955 82.5636 234.948 82.5183 234.941 82.4658C234.789 80.2233 234.705 78.0493 234.619 75.8259C234.577 74.7193 234.534 73.6006 234.481 72.4551L234.481 72.4551L234.481 72.449C234.442 71.6524 234.404 70.8289 234.365 70.0036L234.365 70.0031C234.327 69.1953 234.289 68.3857 234.25 67.6008C234.251 66.705 234.27 66.1893 234.392 65.7974L234.398 65.7792L234.403 65.7609C234.571 65.1872 234.768 64.6072 234.984 63.9707C235.049 63.7779 235.117 63.5799 235.185 63.3754C235.471 62.5268 235.77 61.5961 235.987 60.6415L236.377 58.9318L234.733 58.3217C230.677 56.8163 226.515 56.4931 222.513 56.5067C220.687 56.5129 218.861 56.5902 217.088 56.6651C216.919 56.6723 216.75 56.6794 216.582 56.6865C214.638 56.7679 212.76 56.8385 210.921 56.8131L210.795 56.8102C206.187 56.705 201.601 56.6002 196.932 56.7068C192.246 56.8139 187.481 57.0278 182.793 57.3488L182.782 57.3494C174.921 57.776 167.296 58.1898 159.615 57.5646L159.606 57.5639L159.596 57.5632C156.554 57.3437 153.513 57.0331 150.438 56.719C149.821 56.656 149.203 56.5928 148.582 56.5301C144.888 56.1571 141.149 55.8059 137.397 55.6436L137.395 55.6435C129.793 55.3214 122.286 55.8517 114.834 56.3781L114.639 56.3919L114.625 56.3928L114.612 56.3939C107.052 57.0282 99.4797 57.3463 91.8048 57.5587L91.7941 57.5591C87.2191 57.7104 82.6256 57.8269 78.0196 57.9437C53.5877 58.5633 28.8008 59.1919 4.5295 65.0664L2.99998 65.4366V67.0103V74.6754V75.6051L3.71069 76.2044C4.21295 76.6279 5.02016 77.3127 5.69884 77.9021C5.73016 77.9293 5.76114 77.9562 5.79169 77.9828C5.57002 78.3517 5.32805 78.7085 5.061 79.0769C4.67758 79.5388 4.32129 80.2174 4.10121 80.7026C3.96701 80.9984 3.8293 81.3409 3.73497 81.6737C3.68883 81.8365 3.63625 82.0548 3.61334 82.2959C3.60066 82.4294 3.57176 82.781 3.69188 83.194C4.05441 84.799 4.34776 86.5119 4.56975 88.2348L233.865 86.0032Z" fill="#AD7634" stroke="#FAB523" stroke-width="4"/>
<path d="M132.338 57.2161C134.125 57.2161 135.834 57.2161 137.466 57.3225C141.894 57.5355 146.322 57.9613 150.673 58.3871C153.626 58.7065 156.656 59.0259 159.608 59.2388C162.249 59.4518 165.046 59.5582 168.154 59.5582C173.204 59.5582 178.409 59.2388 183.071 59.0259H183.615C188.043 58.813 192.627 58.6001 197.133 58.4936C198.066 58.4936 198.998 58.4936 199.93 58.4936C202.183 58.4936 204.514 58.4936 206.767 58.6001C208.166 58.6001 209.642 58.7065 211.04 58.7065C213.138 58.7065 215.236 58.6001 217.333 58.6001C219.12 58.4936 221.063 58.4936 222.927 58.4936C227.589 58.4936 231.163 59.0259 234.348 60.197L234.503 60.3034L234.426 60.5164C234.193 61.6874 233.804 62.752 233.493 63.8166C233.26 64.4554 233.105 64.9877 232.95 65.6265C232.716 66.2652 232.716 67.0105 232.716 67.9686C232.716 68.9267 232.794 69.7784 232.872 70.7366C232.872 71.4818 232.95 72.1206 232.95 72.8658C232.95 73.5046 233.027 74.1433 233.027 74.7821C233.105 77.4436 233.183 80.318 233.416 82.9795C233.416 83.086 233.416 83.2989 233.493 83.4054C233.571 83.9377 233.649 84.5765 233.105 85.0023C232.716 85.2152 232.328 85.4281 231.94 85.6411C231.706 85.7475 231.551 85.854 231.318 85.9604C230.23 86.5992 229.453 87.238 228.676 87.9832C229.376 88.0897 230.075 88.0897 230.774 88.1961C231.784 88.1961 232.794 88.3026 233.804 88.622L234.037 88.7284L233.882 89.0478C232.95 90.8576 232.561 92.6675 232.483 94.5838C232.406 96.2871 232.716 97.9905 233.027 99.6939C233.105 100.12 233.183 100.439 233.26 100.865C234.115 106.401 234.115 111.83 233.96 116.408V116.621H233.804C231.706 116.515 229.531 116.302 227.511 116.195C227.045 116.195 226.501 116.089 226.035 116.089C224.015 115.876 221.917 115.769 219.353 115.769C217.566 115.769 215.78 115.769 213.993 115.876C212.439 115.876 210.807 115.982 209.253 115.982H208.787C205.446 115.982 202.106 115.769 198.843 115.663C196.279 115.556 193.637 115.45 190.996 115.344C189.986 115.344 188.976 115.344 187.966 115.344C184.236 115.344 180.429 115.45 176.778 115.556C175.379 115.556 173.981 115.663 172.583 115.663C171.106 115.663 169.553 115.769 167.921 115.769C160.463 115.769 152.849 115.344 145.468 114.918C142.282 114.705 139.097 114.598 135.834 114.385C131.794 114.173 128.065 114.066 124.491 114.066C117.809 114.066 111.672 114.385 105.767 115.024C102.504 115.024 99.5516 115.131 96.7547 115.344C94.5793 115.556 92.3262 115.663 89.8401 115.663C85.1008 115.663 80.2839 115.344 75.6223 115.024C70.65 114.705 65.5223 114.279 60.55 114.385C57.1315 114.385 53.6354 114.598 50.2169 114.705C48.8184 114.811 47.3423 114.811 45.9438 114.918C43.5354 115.024 40.9715 115.024 38.2523 115.024C36.1546 115.024 33.8238 115.024 31.2599 114.918C30.0169 114.918 28.7738 114.811 27.5307 114.811C23.9569 114.705 20.2276 114.598 16.5761 114.598C12.3807 114.598 8.72914 114.705 5.38837 114.918H5.23297V105.549C5.38837 105.123 5.46605 104.804 5.54375 104.485C6.32066 102.462 7.56375 100.971 8.80684 99.4809L9.0399 99.268C8.65144 98.9486 7.64143 98.097 7.0199 97.6711C6.78682 97.4582 6.63145 97.3517 6.47606 97.2453L6.32066 97.1388L6.47606 96.9259C7.64145 94.9031 7.17529 91.177 6.86452 88.7284L6.78683 88.3026C6.55376 86.4927 6.24297 84.6829 5.85451 82.9795C5.69913 82.4472 6.70914 80.7439 6.94221 80.318C7.48607 79.5728 8.02992 78.7211 8.49608 77.763C8.1076 77.3371 6.70914 76.1661 5.38837 75.1015L5.31067 74.995V67.0105H5.46605C29.6284 61.2616 54.5677 60.5164 78.73 59.9841C83.2362 59.8776 87.8201 59.7711 92.4039 59.5582C101.261 59.2388 108.564 58.9194 115.245 58.3871C120.451 57.6419 126.356 57.2161 132.338 57.2161ZM168.154 60.0905C165.046 60.0905 162.249 59.9841 159.53 59.7711C156.578 59.5582 153.47 59.2388 150.596 58.9194C146.245 58.4936 141.816 58.0678 137.388 57.8548C135.756 57.7484 134.047 57.7484 132.338 57.7484C126.433 57.7484 120.451 58.1742 114.857 58.6001C108.098 59.1324 100.795 59.5582 91.9378 59.7711C87.3539 59.8776 82.7701 60.0905 78.2639 60.197C54.1792 60.8358 29.3176 61.4745 5.23297 67.2234V74.5692C8.41837 77.2307 8.41838 77.3371 8.49608 77.5501V77.6565L8.41838 77.763C7.95222 78.8276 7.40837 79.7857 6.78683 80.6374C6.39836 81.1697 5.77684 82.5537 5.77684 82.7666C6.1653 84.47 6.47606 86.2798 6.70914 88.1961L6.78683 88.622C7.0976 91.0706 7.56375 94.6902 6.47606 96.9259C6.63145 97.0323 6.70914 97.1388 6.86452 97.2453C9.03992 98.9486 9.1953 99.0551 9.1953 99.268V99.3745L9.1176 99.4809L8.80684 99.9068C7.56375 101.397 6.32068 102.888 5.62144 104.804C5.54375 105.123 5.38837 105.336 5.31067 105.762V114.492C8.57376 114.279 12.2253 114.173 16.343 114.173C19.9945 114.173 23.7238 114.279 27.2976 114.385C28.5407 114.385 29.7838 114.492 31.0269 114.492C33.5907 114.598 35.9215 114.598 38.0192 114.598C40.8161 114.598 43.3023 114.598 45.7108 114.492C47.1092 114.385 48.5854 114.385 49.9838 114.279C53.3246 114.173 56.8208 113.96 60.3169 113.96C65.3669 113.96 70.4946 114.279 75.4669 114.598C80.1285 114.918 84.9454 115.237 89.6847 115.237C92.1708 115.237 94.4239 115.131 96.5993 114.918C99.4739 114.705 102.426 114.598 105.689 114.598C111.594 113.96 117.732 113.64 124.413 113.64C128.065 113.64 131.716 113.747 135.756 113.96C138.942 114.066 142.205 114.279 145.39 114.492C152.771 114.918 160.307 115.344 167.843 115.344C169.397 115.344 170.951 115.344 172.505 115.237C173.903 115.237 175.302 115.131 176.7 115.131C180.352 115.024 184.159 114.918 187.888 114.918C188.898 114.918 189.908 114.918 190.918 114.918C193.559 114.918 196.201 115.131 198.765 115.237C202.028 115.344 205.369 115.556 208.71 115.556H209.176C210.73 115.556 212.361 115.556 213.915 115.45C215.702 115.45 217.489 115.344 219.276 115.344C221.84 115.344 224.015 115.45 225.957 115.663C226.423 115.663 226.967 115.769 227.433 115.769C229.453 115.982 231.473 116.195 233.571 116.195C233.726 111.724 233.726 106.401 232.872 100.971C232.794 100.546 232.716 100.226 232.639 99.8003C232.328 98.097 232.017 96.2871 232.095 94.5838C232.173 92.6675 232.561 90.9641 233.416 89.1543C232.561 88.9413 231.629 88.8349 230.696 88.8349C229.997 88.8349 229.298 88.7284 228.599 88.622C228.443 88.622 228.288 88.409 228.288 88.1961C228.288 87.9832 228.288 87.8767 228.443 87.7703C229.22 86.9186 230.075 86.2798 231.163 85.6411C231.396 85.5346 231.551 85.4281 231.784 85.3217C232.173 85.1088 232.561 84.8958 232.95 84.6829C233.26 84.47 233.26 84.2571 233.105 83.6183C233.105 83.5118 233.027 83.2989 233.027 83.1925C232.794 80.4245 232.716 77.6565 232.639 74.8885C232.639 74.2498 232.561 73.611 232.561 72.9723C232.561 72.227 232.483 71.5883 232.483 70.843C232.406 69.8849 232.406 69.0332 232.328 68.0751C232.328 67.0105 232.406 66.2652 232.639 65.52C232.794 64.9877 233.027 64.3489 233.183 63.7102C233.493 62.752 233.804 61.6874 234.037 60.7293C230.93 59.6647 227.511 59.1324 222.927 59.1324C221.063 59.1324 219.198 59.2388 217.411 59.2388C215.313 59.3453 213.216 59.4518 211.118 59.3453C209.72 59.3453 208.243 59.3453 206.845 59.2388C204.592 59.2388 202.339 59.1324 200.086 59.1324C199.153 59.1324 198.221 59.1324 197.289 59.1324C192.783 59.2388 188.199 59.4518 183.77 59.6647H183.226C178.409 59.7711 173.204 60.0905 168.154 60.0905Z" fill="#B37052"/>
<path opacity="0.5" d="M49.5176 64.3489C52.3922 64.3489 55.2668 64.6683 58.1414 64.8812C61.0161 65.2006 63.8907 64.9877 66.7653 64.8812C69.7176 64.7747 72.5922 65.307 75.5446 65.4135C78.5746 65.52 81.5269 65.52 84.5569 65.6264C90.5392 65.8393 96.4438 66.9039 102.426 67.7556C108.486 68.6073 114.468 69.3525 120.606 69.5655C132.571 69.8848 144.458 69.459 156.345 68.3944C162.405 67.8621 168.465 67.3298 174.525 66.9039C177.477 66.691 180.352 66.4781 183.304 66.4781C186.179 66.4781 189.131 66.4781 192.006 66.2652C198.221 65.8393 204.359 64.5618 210.574 64.9877C212.05 65.0941 213.526 65.2006 215.08 65.2006C216.634 65.2006 218.11 65.2006 219.586 65.4135C221.14 65.6264 222.694 65.8393 224.17 66.0523C225.491 66.2652 227.2 66.4781 228.443 67.3298L228.521 67.2233C227.589 66.4781 226.423 66.2652 225.413 65.9458C223.937 65.52 222.383 65.307 220.829 65.0941C219.431 64.8812 218.033 64.6683 216.634 64.6683C215.158 64.6683 213.604 64.7747 212.128 64.5618C206.379 63.7101 200.474 64.9877 194.647 65.4135C188.742 65.9458 182.76 65.6264 176.856 66.0523C171.029 66.4781 165.124 66.9039 159.297 67.4362C147.177 68.6073 135.057 69.1396 122.937 68.9267C116.877 68.8202 110.817 68.1815 104.757 67.3298C101.727 66.904 98.7746 66.5846 95.7446 66.1587C92.7923 65.7329 89.7623 65.307 86.81 65.2006C83.7023 65.0941 80.5169 65.0941 77.4092 65.0941C74.2238 65.0941 70.9607 64.6683 67.7753 64.5618C64.823 64.4554 61.8707 64.8812 58.9184 64.5618C55.8107 64.5618 52.703 64.2424 49.5176 64.3489C49.5953 64.2424 49.5176 64.3489 49.5176 64.3489Z" fill="black"/>
<path opacity="0.5" d="M99.5514 63.4971C100.484 64.0294 101.494 64.1358 102.504 64.3487C103.747 64.5617 104.912 64.7746 106.155 64.881C108.719 65.3069 111.361 65.6263 113.925 65.7327C116.488 65.8392 118.975 66.478 121.538 66.478C124.258 66.5844 126.899 67.0103 129.618 67.0103C134.824 67.0103 140.029 66.3715 145.235 66.265C147.565 66.265 149.741 65.7327 152.072 65.4133C153.159 65.3069 154.247 64.9875 155.335 64.9875C155.878 64.9875 156.422 64.881 156.733 64.3487C156.733 64.3487 156.811 64.1358 156.811 64.0294C156.345 63.4971 155.723 63.4971 155.102 63.4971C154.325 63.4971 153.47 63.2841 152.693 63.2841C150.751 63.1777 148.886 62.326 147.022 62.2195C142.982 62.0066 138.942 61.2614 134.902 61.2614C133.115 61.2614 131.328 60.942 129.541 61.0485C127.754 61.0485 125.889 61.1549 124.102 61.3678C122.238 61.5808 120.373 61.5808 118.508 61.7937C116.566 62.0066 114.701 62.4325 112.759 62.5389C112.681 62.5389 112.371 62.9647 112.526 62.9647C114.546 63.8164 116.721 63.8164 118.741 63.6035C119.751 63.4971 120.684 63.497 121.694 63.71C122.781 63.9229 123.791 64.1358 124.879 64.1358C126.977 64.1358 128.997 64.5617 131.017 64.3487C131.483 64.3487 131.872 64.1358 132.338 64.1358C132.804 64.1358 133.27 64.3487 133.814 64.3487C134.902 64.3487 135.989 64.2423 137.077 64.2423C137.155 64.2423 137.155 64.1358 137.155 64.1358C136.222 64.1358 135.29 64.1358 134.28 64.0294C133.425 64.0294 132.571 63.6035 131.638 63.8164C129.463 64.3487 127.21 63.71 124.957 63.71C124.025 63.71 123.092 63.4971 122.16 63.3906C121.072 63.1777 119.985 63.1777 118.819 63.1777C117.11 63.2841 115.323 63.2841 113.691 62.8583C114.857 62.7518 116.022 62.5389 117.265 62.326C119.13 62.1131 121.072 62.0066 122.937 61.7937C124.801 61.5808 126.666 61.4743 128.608 61.3678C130.551 61.2614 132.415 61.4743 134.358 61.5808C138.32 61.6872 142.205 62.2195 146.167 62.5389C147.954 62.6454 149.741 63.0712 151.605 63.4971C152.46 63.71 153.315 63.71 154.169 63.8164C154.946 63.9229 155.878 63.71 156.5 64.3487C155.956 64.7746 154.868 64.4552 154.325 64.5617C153.315 64.5617 152.227 64.881 151.295 65.094C148.964 65.6263 146.633 65.7327 144.302 65.7327C141.816 65.7327 139.408 66.1586 136.922 66.265C134.358 66.3715 131.794 66.478 129.152 66.5844C124.258 66.6909 119.363 65.6263 114.468 65.4133C111.982 65.3069 109.496 64.9875 107.088 64.6681C105.845 64.4552 104.524 64.3487 103.281 64.0294C102.193 63.8164 101.105 63.71 100.018 63.0712C100.484 62.6454 101.183 62.8583 101.727 62.6454C102.737 62.4324 103.747 62.2195 104.835 62.1131C107.088 61.9001 109.263 61.5808 111.438 61.2614C113.691 60.942 116.022 60.7291 118.275 60.5162C120.606 60.3032 123.015 60.1968 125.345 60.0903C127.521 59.9839 129.541 60.0903 131.716 60.1968C133.969 60.3032 136.222 60.0903 138.475 60.1968C140.728 60.3032 142.982 60.5162 145.157 60.7291C146.245 60.8355 147.332 60.942 148.42 61.0485C149.275 61.1549 150.285 61.0485 150.984 61.4743L151.062 61.3678C150.44 60.942 149.663 61.0485 149.042 60.8355C147.954 60.6226 146.788 60.5162 145.701 60.4097C143.37 60.1968 141.039 59.9839 138.708 59.7709C136.378 59.558 133.969 59.8774 131.638 59.6645C130.551 59.558 129.385 59.4516 128.298 59.3451C127.055 59.3451 125.811 59.4516 124.568 59.558C119.907 59.7709 115.245 60.3032 110.584 60.8355C108.253 61.1549 106 61.3678 103.669 61.6872C102.815 61.7937 101.96 62.0066 101.105 62.1131C100.561 62.2195 100.095 62.4324 99.7068 62.9647C99.5514 63.2841 99.4737 63.4971 99.5514 63.4971Z" fill="black"/>
<path opacity="0.5" d="M166.6 62.8584C172.272 62.9648 177.866 62.539 183.537 62.539C186.334 62.539 189.131 62.4325 192.006 62.539C193.404 62.539 194.803 62.6454 196.279 62.7519C197.677 62.8584 199.076 63.2842 200.397 63.2842C201.018 63.2842 201.64 63.2842 202.261 63.2842C202.805 63.2842 203.427 63.4971 203.97 63.4971C205.291 63.6036 206.612 63.4971 207.933 63.4971C209.253 63.4971 210.574 63.4971 211.895 63.3907C213.216 63.2842 214.537 63.0713 215.857 63.0713C217.178 63.0713 218.499 62.8584 219.82 62.8584C221.063 62.8584 222.306 63.0713 223.627 62.8584C224.947 62.7519 226.268 62.6454 227.589 62.539C228.21 62.4325 228.91 62.326 229.531 62.1131C230.23 62.0067 231.007 61.5808 231.707 62.0067L231.784 61.9002C231.007 61.3679 229.842 61.9002 228.987 62.0067C227.667 62.2196 226.424 62.2196 225.103 62.3261C223.627 62.4325 222.228 62.4325 220.752 62.4325C219.431 62.326 218.11 62.6454 216.79 62.6454C214.148 62.6454 211.507 62.9648 208.865 62.9648C207.544 62.9648 206.223 62.9648 204.903 62.9648C203.582 62.9648 202.339 62.7519 201.096 62.7519C199.775 62.7519 198.377 62.3261 196.978 62.2196C195.58 62.1131 194.181 62.0067 192.705 62.0067C189.908 61.9002 187.111 62.0067 184.237 62.0067C178.254 62.1131 172.427 62.6454 166.6 62.8584C166.6 62.7519 166.523 62.8584 166.6 62.8584Z" fill="black"/>
<path opacity="0.5" d="M10.4385 66.9038C13.3908 66.478 16.4208 66.1586 19.3731 66.0521C22.0147 65.9457 24.6562 66.1586 27.3754 65.8392C30.25 65.5198 33.1247 64.9875 35.9993 64.6681C39.0293 64.3488 42.0593 64.2423 45.0893 63.9229C48.0416 63.4971 50.9939 62.8583 53.9462 62.5389C55.5001 62.326 57.0539 62.4325 58.6078 62.326C60.1616 62.2196 61.6378 62.1131 63.1916 62.1131C69.174 62.4325 75.0786 62.326 81.0609 62.326C83.2363 62.326 85.334 62.8583 87.5094 62.7519C88.5971 62.7519 89.7624 62.7519 90.8501 62.7519C91.9378 62.7519 92.9478 62.326 94.0355 62.7519C94.0355 62.7519 94.1132 62.6454 94.0355 62.6454C92.8702 62.1131 91.394 62.6454 90.1509 62.6454C88.5971 62.6454 87.1209 62.6454 85.5671 62.5389C84.2463 62.4325 82.8478 62.2196 81.5271 62.0066C80.0509 61.7937 78.497 62.0066 77.0986 62.0066C74.0686 62.0066 70.9609 62.0066 67.9309 62.0066C64.9786 62.0066 62.1039 61.6872 59.2293 61.9002C56.3547 62.1131 53.4801 62.2195 50.6055 62.6454C47.4978 63.1777 44.4678 63.6035 41.3601 63.9229C38.4854 64.1358 35.6108 64.3488 32.7362 64.8811C29.8616 65.4134 26.9093 65.7327 23.957 65.8392C21.7816 65.9457 19.6839 65.8392 17.5085 66.0521C15.0223 66.1586 12.7692 66.478 10.4385 66.9038C10.4385 66.7973 10.3608 66.9038 10.4385 66.9038Z" fill="black"/>
<path opacity="0.5" d="M9.11764 77.0176C11.9146 75.953 15.0223 76.1659 17.8969 75.953C20.8492 75.7401 23.8792 74.8884 26.8315 74.8884C32.8138 74.8884 38.7962 74.3561 44.7785 74.0367C47.5754 73.9302 50.45 73.9302 53.247 73.7173C56.1993 73.5044 59.2293 73.2915 62.1816 73.185C65.1339 73.0785 68.0862 72.8656 71.0385 72.8656C73.9908 72.8656 77.0208 72.8656 79.9732 72.9721C83.547 72.9721 87.0432 73.2915 90.5393 73.5044C92.3263 73.6109 94.1132 73.6108 95.9001 73.8238C97.687 74.0367 99.474 74.3561 101.261 74.4625C108.253 74.8884 115.323 73.7173 122.238 74.6754L122.316 74.569C116.489 73.7173 110.584 74.2496 104.757 74.1431C101.882 74.1431 99.0078 73.7173 96.1332 73.2915C93.1809 72.8656 90.2286 72.8656 87.2763 72.5462C75.5447 71.6946 63.7354 72.3333 52.0039 73.185C48.5077 73.3979 44.9339 73.5044 41.4377 73.5044C37.7085 73.5044 33.9792 74.1432 30.25 74.2496C28.5408 74.2496 26.8315 74.1431 25.2 74.3561C23.4131 74.569 21.6261 74.8884 19.7615 75.2077C17.9746 75.4207 16.1876 75.6336 14.4007 75.74C12.6915 76.0594 10.8269 76.1659 9.11764 77.0176C9.11764 76.9111 9.11764 77.0176 9.11764 77.0176Z" fill="black"/>
<path opacity="0.5" d="M7.48616 74.2498C9.73924 74.2498 11.9923 73.8239 14.2454 73.611C16.7316 73.3981 19.2177 73.3981 21.6262 73.3981C26.2877 73.2916 31.027 73.2916 35.6885 72.7593C38.2524 72.4399 40.7385 72.227 43.3801 72.1205C45.9439 72.1205 48.4301 71.8012 50.9162 71.5882C53.4801 71.3753 55.9663 70.843 58.5301 70.5236C59.8509 70.3107 61.094 70.3107 62.4147 69.9913C63.2694 69.7784 64.0463 69.9913 64.8232 69.3526C64.9009 69.2461 65.0563 69.1397 64.9786 68.9267C64.7455 68.6074 64.5901 68.5009 64.2794 68.3944C63.8909 68.288 63.5024 68.1815 63.0363 68.075C61.9486 67.7557 60.7832 67.7557 59.6178 67.7557C57.1316 67.6492 54.5678 67.6492 52.0816 67.6492C47.1093 67.7557 42.0593 68.075 37.087 68.3944C32.037 68.6074 27.0647 68.9267 22.0147 69.1397C19.5285 69.2461 17.12 69.2461 14.6339 69.459C12.4585 69.5655 10.2054 68.7138 8.10772 69.5655C8.03002 69.5655 7.95233 69.7784 8.03002 69.7784C10.2054 68.9267 12.6139 69.8849 14.8669 69.7784C17.1977 69.672 19.5285 69.5655 21.937 69.5655C26.8316 69.459 31.7262 69.0332 36.6208 68.8203C41.5155 68.6073 46.4101 68.288 51.3047 68.1815C53.7132 68.0751 56.1217 68.0751 58.5301 68.1815C59.6955 68.1815 60.8609 68.3944 62.104 68.3944C62.5701 68.3944 63.114 68.6073 63.5801 68.8203C63.9686 68.9267 64.4347 68.9267 64.7455 69.2461C63.9686 69.672 63.114 69.5655 62.337 69.7784C61.094 70.0978 59.7732 70.0978 58.4524 70.3107C55.8886 70.6301 53.4024 71.1624 50.8386 71.3753C48.197 71.5882 45.6332 71.9076 42.9916 71.9076C40.6609 71.9076 38.3301 72.227 35.9216 72.5464C31.1824 73.1851 26.3654 73.0787 21.5485 73.1852C19.2954 73.2916 17.0423 73.2916 14.7892 73.5045C12.3031 73.5045 9.89463 74.0368 7.48616 74.2498C7.48616 74.1433 7.40847 74.2498 7.48616 74.2498Z" fill="black"/>
<path opacity="0.5" d="M13.1575 95.2224C14.7114 94.7966 16.2652 94.3707 17.8967 94.3707C19.5283 94.2643 21.0822 93.9449 22.7137 93.8384C25.8991 93.8384 29.0068 93.1996 32.1145 92.5609C35.5329 91.8157 38.9514 90.7511 42.4476 90.1123C45.9437 89.4735 49.4399 88.8348 52.9361 88.3025C60.0061 87.2379 67.0761 87.3443 74.2238 87.2379C81.2161 87.1314 88.2084 86.812 95.2007 86.4926C102.348 86.1733 109.496 85.7474 116.644 85.3216C123.636 84.8957 130.706 84.5763 137.699 83.9376C151.916 82.7665 166.056 81.1696 180.196 79.4662C188.587 78.5081 196.978 77.4435 205.369 76.4853C209.564 75.953 213.837 75.5272 218.033 74.6755C220.13 74.2497 222.306 73.8238 224.403 73.6109C225.491 73.5044 226.501 73.5044 227.589 73.6109C228.133 73.6109 228.676 73.7174 229.22 73.8238C229.376 73.8238 230.386 73.9303 229.686 73.9303L229.609 74.0368C229.764 74.0368 229.842 74.0368 229.997 74.0368L230.075 73.9303C226.967 72.8657 223.704 73.398 220.596 73.9303C217.1 74.5691 213.682 75.2078 210.263 75.6337C203.271 76.3789 196.201 77.2306 189.209 78.0823C175.146 79.6792 161.006 81.3825 146.944 82.7665C132.571 84.1505 118.12 84.8957 103.747 85.7474C96.6769 86.1733 89.6069 86.3862 82.5369 86.7056C75.5446 86.9185 68.6299 86.812 61.6376 87.1314C53.3245 87.5572 45.0114 89.1542 36.8537 91.2834C32.8914 92.2415 28.8514 93.1996 24.8114 93.6255C22.9468 93.8384 21.0822 93.6255 19.2175 94.0513C17.1975 94.4772 15.2552 94.5836 13.3129 95.3289C13.1575 95.1159 13.0798 95.3289 13.1575 95.2224Z" fill="black"/>
<path opacity="0.5" d="M10.2053 102.781C13.2353 101.504 16.4207 100.865 19.6061 100.226C22.9469 99.5873 26.3653 99.2679 29.7838 98.9485C33.3577 98.5227 36.8538 98.0968 40.4276 97.8839C44.0015 97.671 47.4977 97.3516 51.0715 97.1387C58.0638 96.6064 65.0562 95.8612 72.0485 95.0095C79.1962 94.2643 86.3439 94.5836 93.4916 94.2643C100.562 93.9449 107.632 93.3061 114.702 93.4126C121.772 93.4126 128.842 94.4772 135.912 95.0095C142.904 95.5418 149.974 95.7547 156.966 96.6064C163.803 97.4581 170.64 98.4162 177.399 99.1614C181.517 99.5873 185.557 100.333 189.675 100.865C193.948 101.397 198.299 101.504 202.572 101.717C206.767 101.929 210.963 102.142 215.08 102.781C217.1 103.1 219.198 103.1 221.218 103.42C222.15 103.633 223.083 103.846 224.015 103.739C225.103 103.633 226.19 103.313 227.278 103.313L227.356 103.207C225.88 103.207 224.403 103.952 222.927 103.633C221.14 103.313 219.431 102.994 217.644 102.781C214.148 102.462 210.73 101.929 207.233 101.717C200.319 101.184 193.482 101.078 186.567 100.12C172.816 98.2033 159.064 95.9676 145.312 95.1159C141.816 94.903 138.32 94.6901 134.746 94.4772C131.25 94.2643 127.754 93.732 124.18 93.4126C117.11 92.7738 109.962 92.9867 102.815 93.3061C99.3185 93.519 95.8224 93.8384 92.3262 93.9449C88.8301 94.0513 85.2562 94.0513 81.76 94.1578C74.7677 94.2643 67.8531 95.3289 60.9385 95.9676C52.1592 96.8193 43.3023 97.3516 34.523 98.0968C32.503 98.3098 30.483 98.7356 28.463 98.9485C26.2876 99.1615 24.1122 99.3744 21.9368 99.8002C19.9168 100.12 17.9745 100.652 16.0322 101.078C14.1676 101.291 12.2253 101.823 10.2053 102.781C10.2053 102.675 10.2053 102.781 10.2053 102.781Z" fill="black"/>
<path opacity="0.5" d="M136.844 91.496C138.087 91.7089 139.33 92.0283 140.573 92.1348C143.526 92.5606 146.478 92.7735 149.43 93.0929C152.382 93.4123 155.335 94.0511 158.287 94.3705C164.114 94.9028 169.863 95.7544 175.69 96.4997C181.595 97.3513 187.422 97.6707 193.326 97.6707C199.386 97.6707 205.369 98.8418 211.429 99.6935C214.459 100.119 217.489 100.439 220.519 100.545C223.471 100.652 226.423 100.332 229.376 100.332C230.308 100.332 231.24 100.332 232.173 100.226C232.25 100.226 232.25 100.119 232.25 100.119C229.453 100.013 226.734 100.226 223.937 100.226C220.907 100.332 217.877 100.013 214.847 99.6935C211.817 99.3741 208.787 98.8418 205.757 98.5224C202.727 98.203 199.775 97.4578 196.745 97.3514C193.793 97.2449 190.84 97.3514 187.81 97.2449C184.858 97.1384 181.906 96.819 179.031 96.4997C173.204 95.8609 167.455 94.6898 161.628 94.1575C158.676 93.9446 155.801 93.5188 152.926 93.0929C149.974 92.6671 146.944 92.4542 143.992 92.1348C142.593 91.9219 141.195 91.7089 139.796 91.496C139.175 91.3896 138.553 91.2831 137.932 91.0702C137.388 90.8573 136.844 90.9637 136.378 90.6443C135.523 90.0056 137.155 89.1539 137.466 89.0474C138.165 88.728 138.942 88.4087 139.641 88.1957C143.292 87.0247 147.022 86.173 150.751 86.0665C153.781 85.9601 156.733 86.0665 159.763 86.0665C162.716 86.0665 165.59 85.8536 168.542 85.5342C174.136 84.8955 179.73 84.5761 185.324 84.0438C190.84 83.5115 196.201 82.8727 201.639 81.8081C204.359 81.2758 207.078 80.9564 209.875 80.4241C212.516 79.9983 215.158 79.466 217.8 79.466C220.286 79.466 222.85 78.7208 225.336 78.4014C227.9 78.082 230.463 77.4432 233.027 77.2303C233.027 77.2303 233.105 77.1238 233.027 77.1238C230.619 77.3368 228.133 77.8691 225.724 78.082C224.403 78.1885 223.005 78.2949 221.684 78.5078C220.053 78.8272 218.499 78.9337 216.867 78.9337C215.78 78.9337 214.536 79.2531 213.449 79.3595C211.895 79.5724 210.419 79.7854 208.865 80.1047C205.913 80.637 202.883 81.0629 199.93 81.5952C194.026 82.6598 188.043 83.2986 182.061 83.8309C179.031 84.1502 176.001 84.2567 172.971 84.5761C169.786 84.8955 166.678 85.3213 163.492 85.5342C157.666 85.9601 151.839 85.2148 146.089 86.173C143.215 86.7053 140.185 87.3441 137.466 88.6216C136.999 88.8345 135.834 89.3668 135.834 90.2185C135.834 91.1766 136.456 91.3896 136.844 91.496Z" fill="black"/>
<path opacity="0.5" d="M189.519 90.3253C191.695 91.8157 194.181 92.1351 196.589 92.561C199.542 93.0933 202.494 93.3062 205.524 93.8385C209.564 94.4772 213.604 95.116 217.644 95.5419C219.664 95.7548 221.684 95.7548 223.626 95.7548C225.336 95.7548 227.433 95.6483 229.065 96.5C228.21 95.9677 227.123 95.7548 226.113 95.6483C224.636 95.4354 223.083 95.5419 221.606 95.5419C218.654 95.4354 215.624 95.0096 212.672 94.5837C206.767 93.732 200.785 92.9868 194.88 91.9222C193.559 91.7093 192.316 91.4964 191.073 90.8576C190.607 90.6447 190.063 90.3253 189.597 90.1124C189.364 90.0059 189.209 89.793 189.053 89.6865C188.432 89.0478 189.286 88.409 189.675 88.3025C192.006 87.4509 194.414 87.3444 196.823 86.8121C199.697 86.1733 202.494 85.8539 205.369 86.0669C208.088 86.2798 210.729 86.3862 213.449 85.641C216.323 84.8958 219.198 84.47 222.073 84.1506C223.471 84.0441 224.869 83.8312 226.268 83.6183C227.744 83.4053 229.22 84.0441 230.696 83.5118C230.696 83.5118 230.774 83.4054 230.696 83.4054C229.376 83.8312 228.055 83.2989 226.656 83.4054C225.103 83.5118 223.626 83.8312 222.073 83.9377C219.198 84.257 216.323 84.5764 213.449 85.3216C210.574 86.0669 207.699 85.8539 204.747 85.641C202.106 85.4281 199.464 85.8539 196.823 86.3862C194.414 86.9185 192.083 87.1315 189.675 87.8767C189.209 87.9832 188.82 88.3025 188.509 88.8348C188.354 89.4736 189.053 90.0059 189.519 90.3253Z" fill="black"/>
<path opacity="0.5" d="M215.391 91.2836C215.624 91.7094 215.935 91.9223 216.324 92.0288C216.945 92.2417 217.644 92.4546 218.266 92.5611C219.664 92.8805 221.063 92.774 222.461 92.6676C224.015 92.5611 225.491 92.6676 227.045 92.774C227.667 92.774 228.288 92.8805 228.91 92.9869C229.376 93.0934 229.764 93.4128 230.23 93.1999C230.23 93.1999 230.308 93.0934 230.23 93.0934C229.764 93.1999 229.376 92.8805 228.987 92.774C228.444 92.6676 227.977 92.5611 227.434 92.5611C226.346 92.4546 225.336 92.2417 224.248 92.2417C221.917 92.3482 219.664 92.6676 217.334 91.9223C216.867 91.8159 216.246 91.7094 215.857 91.39C215.003 90.7513 216.246 89.8996 216.557 89.7931C217.567 89.2608 218.654 88.9414 219.82 88.7285C220.907 88.5156 221.995 88.4091 223.005 87.9833C224.093 87.5574 225.258 87.2381 226.346 86.9187L226.424 86.8122C225.103 87.1316 223.782 87.5574 222.539 87.9833C221.218 88.4091 219.742 88.4091 218.421 88.835C217.877 88.835 214.614 89.7931 215.391 91.2836Z" fill="black"/>
<path opacity="0.5" d="M171.417 92.561C172.66 93.4127 173.748 93.945 175.146 94.2643C176.778 94.5837 178.487 94.5837 180.119 94.7966C182.993 95.116 185.868 95.7548 188.665 96.3936C186.567 95.8613 184.392 95.4354 182.216 95.0096C180.973 94.7967 179.73 94.4773 178.409 94.3708C176.933 94.2643 175.535 94.0514 174.136 93.732C173.049 93.4127 172.116 92.6674 171.106 92.0287C170.019 91.3899 171.339 89.8995 171.961 89.3672C172.505 88.9413 173.204 88.8349 173.826 88.6219C176.234 87.9832 178.565 87.1315 180.896 86.0669C180.896 86.0669 180.973 85.854 180.973 85.9604C179.497 86.4927 178.099 87.025 176.622 87.5573C175.302 87.9832 173.903 88.1961 172.66 88.7284C171.961 89.0478 171.106 89.5801 170.64 90.5382C170.096 91.7093 170.64 92.1351 171.417 92.561Z" fill="black"/>
<path opacity="0.5" d="M92.2486 109.594C95.2786 109.062 98.3086 109.168 101.339 109.168C104.213 109.168 107.166 109.701 110.04 109.594C112.992 109.488 115.867 109.168 118.819 109.062C121.772 108.956 124.646 108.636 127.599 108.317C139.952 107.039 152.305 106.826 164.658 106.72C175.768 106.72 186.956 106.933 198.066 106.933C200.785 106.933 203.504 106.72 206.223 106.72C208.943 106.613 211.584 106.72 214.303 106.72C216.945 106.613 219.742 106.72 222.306 107.359C223.704 107.678 225.103 107.891 226.501 107.997C227.667 108.104 228.832 107.997 229.997 108.53C229.997 108.53 230.075 108.53 229.997 108.423C228.91 107.784 227.744 107.891 226.579 107.678C225.103 107.465 223.549 107.252 222.073 106.826C219.276 106.081 216.246 106.188 213.371 106.188C210.497 106.294 207.544 106.081 204.67 106.188C201.717 106.294 198.687 106.401 195.735 106.401C189.753 106.401 183.77 106.081 177.788 106.081C171.65 106.081 165.513 106.081 159.375 106.081C148.109 106.188 136.844 106.613 125.579 107.784C122.704 108.104 119.829 108.21 116.877 108.317C114.08 108.423 111.283 108.849 108.564 108.849C105.845 108.849 103.203 108.53 100.484 108.53C97.7648 108.53 95.0455 108.636 92.3263 109.168C92.2486 109.488 92.2486 109.594 92.2486 109.594Z" fill="black"/>
<path opacity="0.5" d="M146.478 111.83C147.178 111.511 147.877 111.617 148.576 111.511C149.198 111.511 149.819 111.298 150.518 111.298C151.994 111.298 153.471 111.404 154.947 111.511C157.744 111.724 160.618 111.617 163.415 111.404C166.368 111.192 169.398 110.766 172.35 110.34C175.38 110.02 178.41 109.914 181.44 109.914C184.315 109.914 187.189 110.02 190.141 110.127C193.016 110.233 195.891 110.659 198.843 110.659C201.718 110.659 204.515 110.979 207.312 110.872C208.399 110.872 209.487 110.446 210.575 110.34C211.196 110.233 211.74 110.127 212.362 109.914C213.061 109.701 213.838 109.808 214.537 109.701C216.013 109.488 217.489 109.382 218.965 109.382C219.742 109.382 220.519 109.595 221.218 109.595C221.995 109.595 222.772 109.595 223.549 109.701C224.326 109.808 225.103 110.127 225.88 110.34C226.657 110.553 227.512 110.553 228.288 110.659C229.065 110.766 229.765 110.979 230.542 111.192C231.318 111.404 232.173 111.192 232.95 111.192L233.028 111.085C232.406 111.085 231.707 111.085 231.085 110.979C230.464 110.872 229.842 110.446 229.143 110.34C227.667 110.127 226.191 110.02 224.715 109.595C223.394 109.169 222.073 109.275 220.752 109.169C220.053 109.169 219.432 108.956 218.81 109.062C218.033 109.062 217.334 109.275 216.557 109.275C215.392 109.382 214.226 109.382 213.061 109.595C212.517 109.701 211.895 109.808 211.352 110.02C210.652 110.127 210.031 110.127 209.332 110.34C206.535 111.085 203.582 110.34 200.708 110.34C199.387 110.34 198.066 110.34 196.745 110.34C195.191 110.34 193.715 109.914 192.161 109.808C189.287 109.701 186.335 109.595 183.46 109.595C180.663 109.595 177.866 109.488 175.069 109.808C172.117 110.127 169.087 110.553 166.135 110.872C162.716 111.298 159.298 111.404 155.879 111.298C154.248 111.298 152.616 111.192 150.984 111.192C150.363 111.192 149.664 111.298 149.042 111.404C148.11 111.617 147.333 111.511 146.478 111.83Z" fill="black"/>
<path opacity="0.5" d="M38.2524 110.872C40.5054 110.233 42.6808 110.979 44.9339 111.404C47.1093 111.724 49.3624 111.724 51.5378 111.83C53.7132 111.83 55.8108 111.83 57.9862 111.937C60.0839 111.937 62.1039 112.256 64.1239 112.15C68.2416 111.937 72.3593 111.511 76.5547 111.298C77.5647 111.298 78.5747 111.298 79.5847 111.404C80.7501 111.511 81.9932 111.404 83.1586 111.511C84.324 111.511 85.4117 111.724 86.5771 111.724C87.5871 111.724 88.5971 111.511 89.6071 111.298C89.6071 111.298 89.6848 111.192 89.6071 111.192C88.5194 111.298 87.4317 111.511 86.344 111.511C85.1786 111.511 84.0909 111.192 82.9255 111.085C81.8378 110.979 80.8278 111.085 79.7401 110.979C78.6524 110.872 77.5647 110.766 76.3994 110.872C72.1263 111.085 67.9309 111.511 63.6578 111.724C61.7155 111.83 59.7732 111.511 57.8308 111.511C55.6555 111.511 53.4801 111.511 51.3824 111.511C49.207 111.511 46.9539 111.511 44.7785 111.192C42.5254 110.766 40.4277 110.127 38.2524 110.872C38.2524 110.766 38.2524 110.872 38.2524 110.872Z" fill="black"/>
<path opacity="0.5" d="M6.00972 111.617C7.25281 110.872 8.65128 110.979 9.97205 110.872C11.4482 110.766 12.9243 110.553 14.4005 110.446C17.4305 110.021 20.3828 109.169 23.4128 109.062C29.1621 108.849 34.8336 107.359 40.5829 107.465C43.4575 107.465 46.4098 107.678 49.2844 107.891C52.3145 108.211 55.4221 107.998 58.4521 107.998C64.2791 107.998 70.1837 108.53 76.0107 107.891C79.0407 107.572 81.993 107.146 85.023 106.827C86.4214 106.72 87.7422 106.507 89.1407 106.401C90.6168 106.294 92.093 106.507 93.5691 106.401C96.3661 106.294 99.2407 106.081 102.038 105.869C104.912 105.656 107.865 105.443 110.739 105.017C113.691 104.591 116.644 104.378 119.596 104.165C122.704 103.846 125.812 103.526 128.919 103.313C131.872 103.101 134.824 102.888 137.776 102.888C138.864 102.888 140.029 102.781 141.117 102.568C141.661 102.462 142.438 102.249 142.748 101.61C143.292 100.333 141.505 99.6938 140.884 99.4809C138.398 98.6292 135.834 99.0551 133.348 98.7357C130.395 98.3099 127.365 98.4163 124.335 98.3099C121.383 98.2034 118.431 98.0969 115.401 98.0969C109.574 98.0969 103.825 97.4582 97.9976 97.6711C92.1707 97.884 86.3437 98.6292 80.5168 99.268C77.4091 99.6938 74.3014 100.013 71.1937 100.226C68.2414 100.439 65.2114 100.333 62.2591 100.439C56.4321 100.652 50.5275 101.291 44.7006 101.397C38.7959 101.504 32.969 101.717 27.1421 102.781C24.1898 103.313 21.2374 104.272 18.2851 104.378C15.4105 104.591 12.5359 105.336 9.58359 105.443C8.80666 105.443 8.10744 105.656 7.33051 105.656C7.25281 105.656 7.17511 105.869 7.25281 105.869C9.97205 105.762 12.6913 105.336 15.4105 105.123C16.8867 105.017 18.2851 104.697 19.7613 104.804C21.1598 104.804 22.6359 104.165 24.0344 103.952C26.8313 103.42 29.6282 102.781 32.4252 102.462C35.5329 102.036 38.7183 102.036 41.9037 101.93C47.8083 101.823 53.6352 101.397 59.5398 100.971C62.4922 100.758 65.5222 100.758 68.4745 100.758C71.3491 100.758 74.2237 100.439 77.176 100.013C83.2361 99.268 89.2961 98.5228 95.4338 98.0969C98.3084 97.884 101.183 97.7775 104.058 97.884C107.01 98.0969 109.962 98.3099 112.837 98.3099C115.789 98.4163 118.742 98.3098 121.694 98.4163C124.724 98.5228 127.676 98.7357 130.706 98.7357C132.182 98.7357 133.581 99.0551 134.979 99.1615C136.455 99.268 137.932 99.0551 139.408 99.3745C140.107 99.4809 140.884 99.6938 141.583 100.013C141.894 100.226 142.282 100.439 142.515 100.758C143.292 101.61 141.738 102.142 141.272 102.249C138.475 102.888 135.523 102.568 132.648 102.675C129.774 102.888 126.899 102.994 124.102 103.207C120.995 103.526 117.965 103.846 114.857 104.059C112.06 104.272 109.263 104.804 106.466 105.017C103.436 105.336 100.406 105.336 97.3761 105.443C95.9776 105.549 94.5791 105.656 93.1807 105.656C91.7045 105.656 90.1507 105.549 88.6745 105.656C82.8476 106.081 77.0983 107.359 71.1937 107.359C68.4745 107.359 65.7552 107.146 63.036 107.146C60.0837 107.04 57.1314 107.146 54.1791 107.146C48.6629 107.146 43.2244 106.188 37.7082 106.614C35.1444 106.827 32.5805 107.146 30.0167 107.465C28.6182 107.678 27.2975 107.891 25.899 107.998C24.5005 108.104 23.1797 108.104 21.7813 108.211C18.9844 108.53 16.1874 109.382 13.3905 109.808C12.0697 110.021 10.6713 110.021 9.35049 110.34C8.2628 110.979 7.09741 110.872 6.00972 111.617C6.00972 111.511 5.93204 111.617 6.00972 111.617Z" fill="black"/>
<path opacity="0.5" d="M7.48623 108.849C10.2832 108.849 13.0024 107.678 15.7993 107.146C17.1978 106.827 18.5186 106.614 19.917 106.401C21.5486 106.081 23.1801 106.294 24.8117 106.188C27.5309 105.975 30.2501 105.762 32.9694 105.762C35.9994 105.656 39.0294 105.762 41.9817 105.656C47.964 105.336 53.7909 103.739 59.7733 103.739C65.2894 103.739 70.8056 104.804 76.3218 104.378C79.7402 104.059 83.1587 104.165 86.5772 103.846C89.9956 103.526 93.4141 103.313 96.8326 102.888C97.6095 102.781 98.3864 102.675 99.241 102.675C100.096 102.675 100.95 102.675 101.805 102.675C103.436 102.675 104.99 102.781 106.544 102.888C107.321 102.888 108.176 102.781 108.953 102.888C109.73 102.994 110.429 102.888 111.206 102.675C112.138 102.568 113.07 102.568 114.003 102.462C115.013 102.355 116.023 102.142 117.11 102.036L117.188 101.929C114.391 101.929 111.594 102.781 108.797 102.568C107.554 102.462 106.233 102.568 104.99 102.355C103.669 102.142 102.349 102.355 101.106 102.142C100.018 102.036 98.7749 102.249 97.6095 102.355C96.2887 102.568 94.8902 102.675 93.5695 102.781C92.2487 102.888 90.9279 102.888 89.6072 102.994C87.9756 103.207 86.4218 103.42 84.7902 103.42C81.9156 103.526 79.1187 103.633 76.2441 103.846C73.3694 104.059 70.5725 103.739 67.6979 103.526C62.0263 102.994 56.4325 103.1 50.7609 103.952C47.0317 104.484 43.4578 105.017 39.7286 105.123C36.0771 105.23 32.4255 105.23 28.8517 105.443C27.2978 105.549 25.744 105.762 24.1124 105.762C22.3255 105.762 20.5386 105.868 18.7516 106.188C16.9647 106.507 15.2555 106.827 13.4686 107.252C11.3709 107.891 9.50623 108.743 7.48623 108.849C7.48623 108.743 7.40854 108.849 7.48623 108.849Z" fill="black"/>
<path opacity="0.5" d="M79.8955 101.823C81.1386 101.823 82.3817 101.717 83.5471 101.717C84.7125 101.717 85.8778 101.717 87.0432 101.504C88.2863 101.291 89.6071 101.397 90.8502 101.184C92.1709 100.971 93.7248 101.184 95.0456 101.291C96.3663 101.397 97.6094 101.504 98.9302 101.504C100.251 101.504 101.494 101.291 102.815 101.291C103.98 101.184 105.223 101.397 106.389 101.184C107.01 101.078 107.709 100.971 108.331 100.971C108.797 100.971 109.419 100.758 109.807 100.971C109.574 100.865 109.341 100.652 109.108 100.758C108.564 101.078 107.865 100.865 107.321 100.865C106.078 100.865 104.835 101.078 103.592 101.078C102.349 101.078 101.028 101.184 99.7848 101.291C98.3863 101.397 96.9879 101.291 95.5894 101.078C90.384 100.652 85.1786 101.61 79.9732 101.823C79.8955 101.61 79.8178 101.823 79.8955 101.823Z" fill="black"/>
<path opacity="0.5" d="M7.79693 89.1543C8.88463 89.1543 10.05 89.0478 11.1377 88.8349C12.5362 88.5155 13.9347 88.8349 15.4108 88.7285C18.2854 88.5155 21.16 88.5155 24.1124 88.5155C29.8616 88.4091 35.5331 86.9186 41.2047 85.9605C47.1093 85.0023 53.014 84.2571 58.9186 83.5119C61.9486 83.086 64.9786 82.6602 68.0086 82.6602C70.7278 82.6602 73.4471 82.5537 76.1663 82.3408C80.2063 82.0214 84.324 81.8085 88.364 81.4891C92.5594 81.1698 96.7548 80.531 100.95 80.531C100.95 80.531 101.028 80.4245 100.95 80.4245C98.0756 80.4245 95.2787 80.6374 92.404 80.8504C89.374 81.0633 86.2663 81.1698 83.2363 81.3827C80.3617 81.5956 77.4871 81.915 74.6902 82.0214C71.9709 82.1279 69.2517 82.2344 66.5324 82.2344C63.6578 82.2344 60.7832 82.7667 57.9863 83.1925C55.034 83.6183 52.1593 84.0442 49.207 84.47C46.2547 84.7894 43.3024 85.2153 40.3501 85.6411C37.4755 86.0669 34.6008 86.8122 31.6485 87.238C27.4531 87.8768 23.2577 87.9832 19.0623 87.9832C17.12 87.9832 15.1777 88.3026 13.1577 88.1962C11.3708 88.0897 9.66156 88.7284 7.95232 88.9414C7.79694 89.0478 7.71924 89.1543 7.79693 89.1543Z" fill="black"/>
<path opacity="0.5" d="M8.03005 87.1313C8.41851 86.812 9.04004 86.9184 9.5062 86.812C10.1277 86.7055 10.6716 86.7055 11.2931 86.599C12.7693 86.4926 14.3231 86.1732 15.7993 85.8538C18.7516 85.3215 21.7039 85.428 24.5785 85.1086C30.5609 84.4698 36.6209 83.5117 42.6032 82.3406C45.5555 81.8083 48.4301 81.276 51.3824 80.6372C52.7032 80.3179 54.1017 79.9985 55.4224 79.5726C56.044 79.3597 56.7432 79.4662 57.3648 79.3597C57.9086 79.2533 58.5301 79.0403 59.074 79.0403C59.6178 79.0403 60.2394 78.8274 60.7055 78.4016C60.9386 78.1886 61.094 77.6563 60.7055 77.5499C59.7732 77.124 58.6078 77.4434 57.5978 77.4434C56.044 77.4434 54.4901 77.8693 53.014 77.9757C49.1294 78.1887 45.2447 78.1887 41.3601 78.1887C39.4955 78.1887 37.7086 77.9757 35.8439 77.9757C33.9793 77.9757 32.1147 78.1887 30.2501 78.1887C28.4632 78.1887 26.7539 78.4016 24.967 78.2951C24.1901 78.1886 23.3354 78.1887 22.5585 78.1887C21.7039 78.1887 21.1601 77.8693 20.3054 78.1887C19.5285 78.4016 18.5185 78.1887 17.6639 78.1887C16.8093 78.1887 16.0324 78.2951 15.1777 78.508C14.1677 78.721 13.1577 79.0403 12.07 79.0403C11.6039 79.0403 10.9823 79.1468 10.5162 79.5726C10.5162 79.5726 10.4385 79.7856 10.5162 79.6791C10.9823 79.2533 11.9924 79.2533 12.6139 79.2533C13.2354 79.2533 13.7016 79.2533 14.3231 79.0403C15.877 78.508 17.4308 78.6145 18.9847 78.6145C19.4508 78.6145 19.9947 78.6145 20.4608 78.508C21.1601 78.2951 21.7039 78.6145 22.4032 78.6145C23.8016 78.6145 25.1224 78.9339 26.5208 78.8274C27.8416 78.8274 29.1624 78.6145 30.4832 78.6145C31.9593 78.6145 33.3578 78.4016 34.7562 78.4016C37.6309 78.2951 40.5055 78.6145 43.3801 78.6145C46.3324 78.6145 49.2847 78.6145 52.2371 78.4016C54.8786 78.2951 57.5978 77.4434 60.2394 77.8693C60.5501 77.8693 60.8609 78.2951 60.3948 78.508C60.2394 78.6145 60.0063 78.6145 59.8509 78.721C59.5401 78.8274 59.2294 78.8274 58.9186 78.9339C57.5201 79.3597 56.1217 79.3597 54.7232 79.7856C51.9263 80.5308 48.974 81.0631 46.1771 81.7019C39.4955 82.9794 32.7363 84.2569 25.977 85.0021C22.7139 85.3215 19.3731 85.3215 16.0324 85.9603C14.4008 86.2797 12.7693 86.599 11.1377 86.812C10.4385 86.9184 9.81697 87.0249 9.19543 87.1313C8.65159 86.812 8.34082 86.7055 8.03005 87.1313C8.03005 87.0249 7.95235 87.1313 8.03005 87.1313Z" fill="black"/>
<path opacity="0.5" d="M6.55399 84.2569C6.94245 83.6181 8.10783 83.5117 8.72937 83.2987C9.58398 83.0858 10.4386 83.0858 11.2932 82.8729C13.2355 82.4471 15.2555 82.0212 17.1978 81.5954C19.0625 81.276 21.0048 81.276 22.8694 81.0631C23.8794 80.9566 24.8117 80.8501 25.8217 80.8501C26.521 80.8501 27.1425 80.7437 27.764 80.9566C27.2202 81.1695 26.6763 81.276 26.2102 81.3825C25.3556 81.5954 24.5786 82.1277 23.8017 82.3406C21.9371 82.9794 19.9948 83.5117 18.1302 83.9375C16.2655 84.3633 14.3232 84.5763 12.3809 84.7892C11.5263 84.8956 10.594 85.0021 9.73936 85.1086C8.80705 85.215 7.87474 85.215 7.02012 85.5344C7.02012 85.5344 6.94243 85.6409 7.02012 85.6409C7.79705 85.3215 8.65167 85.4279 9.42859 85.3215C10.4386 85.215 11.3709 85.1086 12.3809 85.0021C14.2455 84.7892 16.1878 84.5763 18.0525 84.2569C19.9171 83.9375 21.8594 83.2987 23.724 82.7664C24.5786 82.4471 25.4333 82.0212 26.3656 81.7018C26.9871 81.4889 27.6087 81.4889 28.2302 81.0631C28.3079 81.0631 28.4633 80.7437 28.3856 80.6372C27.6863 80.2114 26.9094 80.3178 26.1325 80.4243C25.2779 80.5308 24.3456 80.5308 23.4909 80.6372C21.2379 80.8502 18.9848 80.8502 16.7317 81.276C15.644 81.4889 14.634 81.8083 13.624 82.0212C12.5363 82.2341 11.3709 82.7664 10.2055 82.7664C9.50629 82.7664 8.65168 82.9794 8.03014 83.2987C7.4086 83.7246 6.86476 83.7246 6.55399 84.2569C6.55399 84.3633 6.55399 84.3633 6.55399 84.2569Z" fill="black"/>
<path opacity="0.5" d="M121.616 79.5728C122.782 79.2534 124.025 79.4663 125.19 79.2534C126.666 79.0404 128.065 79.1469 129.541 78.934C130.862 78.8275 132.26 78.6146 133.581 78.5081C135.057 78.4017 136.611 78.5081 138.087 78.5081C139.33 78.5081 140.573 78.2952 141.816 78.1888C143.293 78.0823 144.769 77.9758 146.245 77.55C149.197 76.9112 152.227 76.6983 155.18 76.4854C161.162 75.9531 167.222 75.6337 173.204 74.782C179.42 73.9303 185.635 73.398 191.85 72.8657C198.687 72.3334 205.524 71.2688 212.361 71.1624C215.78 71.0559 219.198 71.1624 222.539 70.843C224.093 70.7365 225.724 70.6301 227.278 70.2042C228.055 69.9913 228.754 69.8848 229.531 69.6719C230.386 69.459 231.318 68.8202 232.173 69.459L232.25 69.3525C231.396 68.7138 230.308 69.3525 229.376 69.5654C227.9 69.8848 226.424 70.0978 224.947 70.3107C221.84 70.6301 218.654 70.7365 215.547 70.7365C209.564 70.7365 203.582 71.2688 197.677 71.9076C191.617 72.5464 185.48 72.7593 179.42 73.5045C173.282 74.1433 167.144 74.9949 161.007 75.4208C157.666 75.6337 154.325 75.9531 150.906 76.3789C147.488 76.8048 144.07 77.6565 140.573 77.7629C139.02 77.8694 137.466 78.0823 135.834 78.0823C134.28 78.0823 132.726 78.2952 131.173 78.5081C129.463 78.7211 127.832 78.8275 126.123 78.934C124.491 79.0404 123.015 79.0405 121.616 79.5728C121.616 79.4663 121.539 79.5728 121.616 79.5728Z" fill="black"/>
<path opacity="0.5" d="M130.473 75.7402C131.172 75.1015 131.872 74.995 132.726 74.995C133.426 74.995 134.202 74.8886 134.902 74.7821C136.378 74.6756 137.932 74.5692 139.408 74.4627C142.671 74.1433 145.934 73.2916 149.119 73.0787C152.072 72.8658 155.102 72.8658 158.054 72.44C158.831 72.3335 159.608 72.227 160.385 72.0141C161.239 71.8012 162.172 71.3754 163.026 71.3754C164.425 71.2689 165.979 70.7366 167.377 71.056C167.455 71.056 167.61 70.7366 167.533 70.7366C166.289 70.3108 164.813 70.7366 163.493 70.8431C161.939 71.056 160.385 71.5883 158.831 71.8012C155.413 72.44 151.994 72.3335 148.576 72.6529C147.099 72.7593 145.546 73.1852 144.069 73.5046C142.205 73.824 140.262 74.1433 138.398 74.2498C136.922 74.3563 135.368 74.5692 133.892 74.7821C132.726 74.8886 131.483 74.7821 130.473 75.7402C130.473 75.7402 130.396 75.7402 130.473 75.7402Z" fill="black"/>
<ellipse cx="14.1441" cy="70.1542" rx="5.08011" ry="4.20838" fill="#52402C"/>
<path d="M12.8462 72.2296C14.3554 72.5943 15.8646 71.1355 16.6192 69.3119V68.2178C15.613 69.3119 14.1038 70.4061 12.8462 72.2296C12.5946 72.2296 12.8462 72.2296 12.8462 72.2296Z" fill="#EEA75D"/>
<path d="M13.3499 72.9597C13.0984 72.9597 12.8468 72.9597 12.8468 72.9597H12.5953C12.3438 72.9597 12.3438 72.595 12.3438 72.595C12.3438 72.2303 12.3438 72.2303 12.5953 71.8656C13.3499 71.1361 13.853 70.4067 14.6075 70.042C15.3621 69.3126 16.1167 68.5832 16.6198 67.8538C16.8713 67.8538 16.8713 67.8538 17.1229 67.8538C17.3744 67.8538 17.3744 68.2185 17.3744 68.5832V69.6773V70.042C16.1167 71.5008 14.8591 72.9597 13.3499 72.9597ZM15.8652 69.6773C15.6137 70.042 15.1106 70.4067 14.6075 70.7714C14.356 71.1362 14.1045 71.1361 13.853 71.5009C14.6076 71.1361 15.3621 70.4067 15.8652 69.6773Z" fill="#BF692D"/>
<path d="M10.8347 25.5475V41.5947C11.3378 40.8653 11.8408 40.1359 12.3439 39.4064C14.1046 37.5829 15.3623 36.4887 16.62 35.3946C16.62 35.3946 16.62 31.3828 16.62 27.371C16.62 23.3592 16.62 19.3474 16.62 19.3474C15.6138 20.4415 14.1046 21.5357 12.3439 23.3592C11.5893 24.0886 11.0862 24.818 10.8347 25.5475Z" fill="#EEA75D"/>
<path d="M10.8347 42.3243C10.5832 42.3243 10.5832 42.3243 10.8347 42.3243C10.5832 42.3243 10.3317 41.9596 10.3317 41.5949V25.5477V25.183C10.8347 24.4536 11.3378 23.7242 12.0924 22.9947C12.847 22.2653 13.6016 21.5359 14.3562 20.8065C15.1108 20.077 15.8654 19.3476 16.3684 18.9829C16.62 18.9829 16.62 18.9829 16.8715 18.9829C17.123 18.9829 17.123 19.3476 17.123 19.7123C17.123 19.7123 17.123 23.7241 17.123 27.7359V35.7596C17.123 36.1243 17.123 36.1243 16.8715 36.1243C16.3684 36.8537 15.6138 37.5831 14.8592 38.3125C14.1046 39.042 13.6016 39.4067 12.847 40.5008C12.3439 41.2302 11.8409 41.5949 11.3378 42.689C11.0863 42.3243 10.8347 42.3243 10.8347 42.3243ZM11.0863 25.9124V40.1361C11.3378 39.7714 11.5893 39.4067 11.8409 39.0419C12.5955 38.3125 13.3501 37.5831 14.1047 36.8537C14.8592 36.1243 15.3623 35.7596 15.8654 35.0301V27.3712C15.8654 24.8183 15.8654 22.2653 15.8654 20.4418C15.3623 20.8065 14.8593 21.1712 14.3562 21.9006C13.6016 22.63 13.0985 22.9947 12.0924 24.0889C12.0924 24.4536 11.5893 25.183 11.0863 25.9124Z" fill="#BF692D"/>
<path d="M11.0862 -6.91181L10.8347 9.50011C11.3378 8.77069 11.8408 8.04128 12.3439 7.31186C14.1046 5.48831 15.3623 4.39419 16.62 3.30006C16.62 3.30006 16.62 -0.711753 16.62 -5.08827C16.62 -9.10007 16.8715 -13.4766 16.8715 -13.4766C15.8654 -12.3824 14.3562 -11.2883 12.5954 -9.46477C12.0924 -8.37064 11.5893 -7.64123 11.0862 -6.91181Z" fill="#EEA75D"/>
<path d="M10.8347 10.2296C10.5832 10.2296 10.3317 9.86483 10.3317 9.50012L10.5832 -6.91181V-7.27651C11.0863 -8.00593 11.5893 -8.73534 12.3439 -9.46476C13.0985 -10.1942 13.8531 -10.9236 14.6077 -11.653C15.3623 -12.3824 16.1169 -13.1119 16.62 -13.4766C16.8715 -13.4766 16.8715 -13.4766 17.123 -13.4766C17.3746 -13.4766 17.3746 -13.1119 17.3746 -12.7472L17.123 -4.35882V4.02948C17.123 4.39419 17.123 4.39418 16.8715 4.39418C16.3685 5.1236 15.6138 5.85304 14.8592 6.58246C14.1047 7.31188 13.6016 7.67659 12.5955 8.77071C12.0924 9.50013 11.5893 9.86484 11.0863 10.5943C11.0863 10.2296 11.0863 10.2296 10.8347 10.2296ZM11.5893 -6.5471L11.3378 8.04128C11.5893 7.67657 11.8409 7.31188 12.3439 6.94717C13.0985 6.21775 13.8531 5.48833 14.6077 4.75891C15.3623 4.0295 15.8654 3.66479 16.3685 2.93537L16.62 -12.0177C16.1169 -11.653 15.6139 -11.2883 15.1108 -10.9236C14.3562 -10.1942 13.6016 -9.82948 12.847 -9.10006C12.3439 -8.00593 11.8409 -7.27652 11.5893 -6.5471Z" fill="#BF692D"/>
<path d="M10.8347 41.9596V58.0068C11.3378 57.2774 11.8408 56.548 12.3439 55.8185C14.1046 53.995 15.3623 52.9008 16.62 51.8067V35.7595C15.6138 36.8536 14.1046 38.3125 12.3439 39.7713C11.5893 40.5007 11.0862 41.2302 10.8347 41.9596Z" fill="#EEA75D"/>
<path d="M10.5831 58.7365C10.3316 58.7365 10.0801 58.3718 10.0801 58.0071V41.9598V41.5951C10.5831 40.8657 11.0862 40.1363 11.8408 39.4069C12.5954 38.6774 13.35 37.948 14.1046 37.2186C14.8592 36.4891 15.6138 35.7597 16.1169 35.395C16.3684 35.395 16.3684 35.395 16.6199 35.395C16.8714 35.395 16.8715 35.7597 16.8715 36.1245V52.1717C16.8715 52.5364 16.8714 52.5364 16.6199 52.5364C16.1169 53.2658 15.3623 53.9952 14.6077 54.7247C13.8531 55.4541 13.35 56.1835 12.5954 56.9129C12.0923 57.6423 11.5893 58.007 11.0862 59.1012C10.8347 58.7365 10.8347 58.7365 10.5831 58.7365ZM11.0862 41.9598V56.1835C11.3377 55.8188 11.5893 55.4541 11.8408 55.0894C12.5954 54.3599 13.35 53.6305 14.1046 52.9011C14.8592 52.1717 15.3623 51.807 15.8653 51.0776V36.4892C15.3623 36.8539 14.8592 37.2186 14.6077 37.948C13.8531 38.6774 13.35 39.0421 12.5954 40.1363C12.0923 40.8657 11.5893 41.2304 11.0862 41.9598Z" fill="#BF692D"/>
<path d="M10.8347 9.50061C10.8347 9.50061 10.8347 13.5124 10.8347 17.5243C10.8347 19.7125 10.8347 21.5361 10.8347 22.9949C10.8347 24.4538 10.8347 25.5479 10.8347 25.5479C11.3378 24.8185 11.8408 24.089 12.3439 23.3596C14.1046 21.5361 15.3623 20.4419 16.62 19.3478L16.8715 3.30054C15.8654 4.39467 14.3562 5.48879 12.5954 7.31235C11.8408 8.04177 11.3378 8.77118 10.8347 9.50061Z" fill="#EEA75D"/>
<path d="M10.8347 26.2772C10.5832 26.2772 10.5832 26.2772 10.8347 26.2772C10.5832 26.2772 10.3317 25.9125 10.3317 25.5478V17.5242V9.50055V9.13585C10.8347 8.40643 11.3378 7.67701 12.0924 6.94759C12.847 6.21817 13.6016 5.48876 14.3562 4.75934C15.1108 4.02992 15.8654 3.3005 16.3684 2.93579C16.62 2.93579 16.62 2.93579 16.8715 2.93579C17.123 2.93579 17.123 3.30049 17.123 3.6652L16.8715 19.7124C16.8715 20.0772 16.8715 20.0771 16.62 20.0771C16.1169 20.8066 15.3623 21.536 14.6077 22.2654C13.8531 22.9948 13.3501 23.3595 12.3439 24.4537C11.8409 24.8184 11.3378 25.5478 10.8347 26.2772C11.0863 26.2772 10.8347 26.2772 10.8347 26.2772ZM11.3378 9.86526L11.0863 24.0889C11.3378 23.7242 11.5893 23.3595 11.8409 22.9948C12.5955 22.2654 13.3501 21.536 14.1047 20.8066C14.8592 20.0771 15.3623 19.7124 15.8654 18.983L16.1169 4.39461C15.6138 4.75932 15.1108 5.12403 14.6077 5.85345C13.8531 6.58287 13.3501 6.94758 12.3439 8.04171C12.0924 8.40642 11.8409 9.13584 11.3378 9.86526Z" fill="#BF692D"/>
<path d="M10.8347 66.3947C10.8347 67.4889 10.8347 68.583 10.8347 69.3124C11.0862 70.7712 11.8408 71.8654 12.5954 72.2301C14.1046 70.7713 15.6138 69.3124 16.62 68.2183C16.62 68.2183 16.62 64.2065 16.62 59.83C16.62 55.8182 16.62 51.4417 16.62 51.4417C15.6138 52.5358 14.1046 53.9946 12.3439 55.4534C11.5893 56.1829 11.0862 56.9123 10.8347 57.6417C10.8347 57.6417 10.8347 58.7358 10.8347 60.1947C10.8347 62.0182 10.8347 64.2065 10.8347 66.3947Z" fill="#EEA75D"/>
<path d="M12.5955 72.5952C11.5893 72.2305 10.8347 71.1364 10.3317 69.3128C10.3317 69.3128 10.3317 69.3128 10.3317 68.9481V57.6421V57.2774C10.8347 56.548 11.3378 55.8186 12.0924 55.0891C12.847 54.3597 13.6016 53.6303 14.3562 52.9009C15.1108 52.1715 15.8654 51.4421 16.3684 50.7126C16.62 50.7126 16.62 50.7126 16.8715 50.7126C17.123 50.7126 17.123 51.0773 17.123 51.4421V59.8304V68.2187C17.123 68.5834 17.123 68.5834 16.8715 68.5834C16.3684 69.3128 15.6138 70.0422 14.8592 70.7716C14.3562 71.5011 13.6016 71.8658 13.0985 72.5952C12.847 72.5952 12.5955 72.5952 12.5955 72.5952ZM11.3378 68.9481C11.5893 69.6775 12.0924 70.7716 12.5955 71.1364C13.0985 70.4069 13.8531 70.0422 14.3562 69.3128C15.1108 68.5834 15.6138 68.2187 16.1169 67.4893V59.4657V52.5362C15.6138 52.9009 15.1108 53.2656 14.6077 53.995C13.8531 54.7245 13.3501 55.4539 12.5955 56.1833C12.0924 56.548 11.5893 57.2774 11.0863 58.0068L11.3378 68.9481Z" fill="#BF692D"/>
<path d="M13.6014 72.2308C14.8591 71.8661 15.8652 70.772 16.3683 69.3131C16.3683 66.3954 16.3683 63.8425 16.3683 60.9248C16.3683 57.2777 16.3683 53.6306 16.3683 49.9835C16.3683 42.6893 16.3683 35.3951 16.3683 28.8304C16.3683 21.9009 16.3683 15.3361 16.6198 8.77132C16.6198 2.57126 16.6198 -3.62881 16.8714 -9.09946C17.1229 -20.0407 17.1229 -29.5232 17.3744 -35.7233C17.3744 -39.7351 17.626 -42.6528 17.626 -44.4763C16.8714 -45.9351 15.8652 -46.6646 14.8591 -46.6646C14.6076 -42.6527 14.356 -29.1585 14.1045 -10.1936C13.853 -4.35824 13.853 1.47712 13.853 8.04189C13.853 14.6067 13.6014 21.5362 13.6014 28.4657C13.6014 35.3951 13.6014 42.6893 13.6014 50.3482C13.6014 53.9953 13.6014 57.6424 13.6014 61.6542C13.6014 65.3013 13.6014 68.5837 13.6014 72.2308Z" fill="#EEA75D"/>
<path d="M10.8346 69.3125C11.0861 70.4066 11.5892 71.5008 12.3438 72.2302C12.0923 57.6418 12.3438 43.0534 12.3438 29.1944C12.3438 22.265 12.3438 15.3355 12.5953 8.7707C12.5953 2.20593 12.5953 -3.99414 12.8469 -9.46478C13.0984 -27.7003 13.6014 -41.1945 13.6014 -45.571C13.0984 -45.2063 12.5953 -44.4769 12.0923 -43.3828C12.0923 -41.5592 12.0923 -39.0063 11.8407 -35.3592C11.5892 -28.7944 11.5892 -19.6767 11.3377 -8.37067C11.3377 -2.90002 11.0861 3.30005 11.0861 9.50011C11.0861 15.7002 10.8346 22.6297 10.8346 29.5591C10.8346 36.4886 10.8346 43.7828 10.8346 51.077C10.8346 54.7241 10.8346 58.3712 10.8346 62.0183C10.8346 64.2066 10.8346 66.7595 10.8346 69.3125Z" fill="#EEA75D"/>
<ellipse cx="224.461" cy="65.111" rx="5.08011" ry="4.20838" fill="#52402C"/>
<path d="M223.163 67.1864C224.672 67.5511 226.181 66.0923 226.936 64.2687V63.1746C225.929 64.2687 224.42 65.3628 223.163 67.1864C222.911 67.1864 223.163 67.1864 223.163 67.1864Z" fill="#EEA75D"/>
<path d="M223.667 67.9165C223.415 67.9165 223.163 67.9165 223.163 67.9165H222.912C222.66 67.9165 222.66 67.5518 222.66 67.5518C222.66 67.1871 222.66 67.1871 222.912 66.8223C223.667 66.0929 224.17 65.3635 224.924 64.9988C225.679 64.2694 226.433 63.54 226.936 62.8105C227.188 62.8105 227.188 62.8105 227.44 62.8105C227.691 62.8105 227.691 63.1753 227.691 63.54V64.6341V64.9988C226.433 66.4576 225.176 67.9165 223.667 67.9165ZM226.182 64.6341C225.93 64.9988 225.427 65.3635 224.924 65.7282C224.673 66.0929 224.421 66.0929 224.17 66.4576C224.924 66.0929 225.679 65.3635 226.182 64.6341Z" fill="#BF692D"/>
<path d="M221.151 20.5043V36.5515C221.654 35.8221 222.157 35.0927 222.66 34.3632C224.421 32.5397 225.679 31.4455 226.936 30.3514C226.936 30.3514 226.936 26.3396 226.936 22.3278C226.936 18.316 226.936 14.3042 226.936 14.3042C225.93 15.3983 224.421 16.4925 222.66 18.316C221.906 19.0454 221.403 19.7748 221.151 20.5043Z" fill="#EEA75D"/>
<path d="M221.151 37.2814C220.9 37.2814 220.9 37.2814 221.151 37.2814C220.9 37.2814 220.648 36.9167 220.648 36.552V20.5047V20.14C221.151 19.4106 221.654 18.6812 222.409 17.9518C223.164 17.2224 223.918 16.4929 224.673 15.7635C225.427 15.0341 226.182 14.3047 226.685 13.9399C226.937 13.9399 226.937 13.9399 227.188 13.9399C227.44 13.9399 227.44 14.3047 227.44 14.6694C227.44 14.6694 227.44 18.6812 227.44 22.693V30.7166C227.44 31.0813 227.44 31.0813 227.188 31.0813C226.685 31.8107 225.93 32.5401 225.176 33.2696C224.421 33.999 223.918 34.3637 223.164 35.4578C222.66 36.1872 222.157 36.5519 221.654 37.6461C221.403 37.2814 221.151 37.2814 221.151 37.2814ZM221.403 20.8694V35.0931C221.654 34.7284 221.906 34.3637 222.157 33.999C222.912 33.2696 223.667 32.5401 224.421 31.8107C225.176 31.0813 225.679 30.7166 226.182 29.9872V22.3283C226.182 19.7753 226.182 17.2223 226.182 15.3988C225.679 15.7635 225.176 16.1282 224.673 16.8576C223.918 17.587 223.415 17.9518 222.409 19.0459C222.409 19.4106 221.906 20.14 221.403 20.8694Z" fill="#BF692D"/>
<path d="M221.403 -11.955L221.151 4.45689C221.654 3.72748 222.157 2.99806 222.66 2.26864C224.421 0.445097 225.679 -0.649025 226.936 -1.74315C226.936 -1.74315 226.936 -5.75497 226.936 -10.1315C226.936 -14.1433 227.188 -18.5198 227.188 -18.5198C226.182 -17.4256 224.673 -16.3315 222.912 -14.508C222.409 -13.4139 221.906 -12.6844 221.403 -11.955Z" fill="#EEA75D"/>
<path d="M221.151 5.18634C220.9 5.18634 220.648 4.82162 220.648 4.45691L220.9 -11.955V-12.3197C221.403 -13.0491 221.906 -13.7786 222.66 -14.508C223.415 -15.2374 224.17 -15.9668 224.924 -16.6962C225.679 -17.4256 226.433 -18.1551 226.937 -18.5198C227.188 -18.5198 227.188 -18.5198 227.44 -18.5198C227.691 -18.5198 227.691 -18.1551 227.691 -17.7904L227.44 -9.40204V-1.01373C227.44 -0.649025 227.44 -0.649031 227.188 -0.649031C226.685 0.080389 225.93 0.80983 225.176 1.53925C224.421 2.26867 223.918 2.63337 222.912 3.7275C222.409 4.45692 221.906 4.82163 221.403 5.55105C221.403 5.18634 221.403 5.18634 221.151 5.18634ZM221.906 -11.5903L221.654 2.99807C221.906 2.63336 222.157 2.26866 222.66 1.90395C223.415 1.17453 224.17 0.445122 224.924 -0.284298C225.679 -1.01372 226.182 -1.37843 226.685 -2.10785L226.937 -17.061C226.433 -16.6962 225.93 -16.3315 225.427 -15.9668C224.673 -15.2374 223.918 -14.8727 223.164 -14.1433C222.66 -13.0491 222.157 -12.3197 221.906 -11.5903Z" fill="#BF692D"/>
<path d="M221.151 36.9166V52.9638C221.654 52.2344 222.157 51.505 222.66 50.7756C224.421 48.952 225.679 47.8579 226.936 46.7637V30.7166C225.93 31.8107 224.421 33.2695 222.66 34.7283C221.906 35.4578 221.403 36.1872 221.151 36.9166Z" fill="#EEA75D"/>
<path d="M220.9 53.6933C220.648 53.6933 220.397 53.3286 220.397 52.9639V36.9166V36.5519C220.9 35.8225 221.403 35.0931 222.157 34.3636C222.912 33.6342 223.667 32.9048 224.421 32.1754C225.176 31.4459 225.93 30.7165 226.434 30.3518C226.685 30.3518 226.685 30.3518 226.937 30.3518C227.188 30.3518 227.188 30.7165 227.188 31.0812V47.1285C227.188 47.4932 227.188 47.4932 226.937 47.4932C226.434 48.2226 225.679 48.952 224.924 49.6815C224.17 50.4109 223.667 51.1403 222.912 51.8697C222.409 52.5991 221.906 52.9638 221.403 54.058C221.151 53.6933 221.151 53.6933 220.9 53.6933ZM221.403 36.9166V51.1403C221.654 50.7756 221.906 50.4109 222.157 50.0462C222.912 49.3167 223.667 48.5873 224.421 47.8579C225.176 47.1285 225.679 46.7638 226.182 46.0344V31.4459C225.679 31.8107 225.176 32.1754 224.924 32.9048C224.17 33.6342 223.667 33.9989 222.912 35.093C222.409 35.8225 221.906 36.1872 221.403 36.9166Z" fill="#BF692D"/>
<path d="M221.151 4.45764C221.151 4.45764 221.151 8.46947 221.151 12.4813C221.151 14.6695 221.151 16.4931 221.151 17.9519C221.151 19.4108 221.151 20.5049 221.151 20.5049C221.654 19.7755 222.157 19.0461 222.66 18.3166C224.421 16.4931 225.679 15.399 226.936 14.3048L227.188 -1.74243C226.182 -0.6483 224.673 0.445826 222.912 2.26938C222.157 2.9988 221.654 3.72822 221.151 4.45764Z" fill="#EEA75D"/>
<path d="M221.151 21.2342C220.9 21.2342 220.9 21.2342 221.151 21.2342C220.9 21.2342 220.648 20.8695 220.648 20.5048V12.4812V4.45758V4.09288C221.151 3.36346 221.654 2.63405 222.409 1.90463C223.164 1.17521 223.918 0.445792 224.673 -0.283628C225.427 -1.01305 226.182 -1.74247 226.685 -2.10718C226.937 -2.10718 226.937 -2.10718 227.188 -2.10718C227.44 -2.10718 227.44 -1.74248 227.44 -1.37777L227.188 14.6695C227.188 15.0342 227.188 15.0342 226.937 15.0342C226.433 15.7636 225.679 16.493 224.924 17.2224C224.17 17.9519 223.667 18.3166 222.66 19.4107C222.157 19.7754 221.654 20.5048 221.151 21.2342C221.403 21.2342 221.151 21.2342 221.151 21.2342ZM221.654 4.82229L221.403 19.046C221.654 18.6813 221.906 18.3166 222.157 17.9519C222.912 17.2224 223.667 16.493 224.421 15.7636C225.176 15.0342 225.679 14.6695 226.182 13.94L226.433 -0.64836C225.93 -0.28365 225.427 0.0810652 224.924 0.810485C224.17 1.5399 223.667 1.90461 222.66 2.99874C222.409 3.36345 222.157 4.09287 221.654 4.82229Z" fill="#BF692D"/>
<path d="M221.151 61.3518C221.151 62.4459 221.151 63.54 221.151 64.2694C221.403 65.7283 222.157 66.8224 222.912 67.1871C224.421 65.7283 225.93 64.2694 226.936 63.1753C226.936 63.1753 226.936 59.1635 226.936 54.787C226.936 50.7752 226.936 46.3987 226.936 46.3987C225.93 47.4928 224.421 48.9516 222.66 50.4105C221.906 51.1399 221.403 51.8693 221.151 52.5988C221.151 52.5988 221.151 53.6929 221.151 55.1517C221.151 56.9753 221.151 59.1635 221.151 61.3518Z" fill="#EEA75D"/>
<path d="M222.912 67.552C221.906 67.1873 221.151 66.0931 220.648 64.2696C220.648 64.2696 220.648 64.2696 220.648 63.9049V52.5989V52.2342C221.151 51.5048 221.654 50.7754 222.409 50.0459C223.164 49.3165 223.918 48.5871 224.673 47.8577C225.427 47.1283 226.182 46.3989 226.685 45.6694C226.937 45.6694 226.937 45.6694 227.188 45.6694C227.44 45.6694 227.44 46.0341 227.44 46.3988V54.7872V63.1755C227.44 63.5402 227.44 63.5402 227.188 63.5402C226.685 64.2696 225.93 64.999 225.176 65.7284C224.673 66.4579 223.918 66.8226 223.415 67.552C223.164 67.552 222.912 67.552 222.912 67.552ZM221.654 63.9049C221.906 64.6343 222.409 65.7284 222.912 66.0931C223.415 65.3637 224.17 64.999 224.673 64.2696C225.427 63.5402 225.93 63.1755 226.433 62.446V54.4225V47.493C225.93 47.8577 225.427 48.2224 224.924 48.9518C224.17 49.6812 223.667 50.4107 222.912 51.1401C222.409 51.5048 221.906 52.2342 221.403 52.9636L221.654 63.9049Z" fill="#BF692D"/>
<path d="M223.918 67.1876C225.176 66.8229 226.182 65.7288 226.685 64.2699C226.685 61.3522 226.685 58.7993 226.685 55.8816C226.685 52.2345 226.685 48.5874 226.685 44.9403C226.685 37.6461 226.685 30.3519 226.685 23.7871C226.685 16.8577 226.685 10.2929 226.936 3.72811C226.936 -2.47195 226.936 -8.67202 227.188 -14.1427C227.44 -25.084 227.44 -34.5664 227.691 -40.7665C227.691 -44.7783 227.943 -47.696 227.943 -49.5195C227.188 -50.9783 226.182 -51.7078 225.176 -51.7078C224.924 -47.696 224.673 -34.2017 224.421 -15.2368C224.17 -9.40145 224.17 -3.5661 224.17 2.99868C224.17 9.56345 223.918 16.493 223.918 23.4224C223.918 30.3519 223.918 37.6461 223.918 45.305C223.918 48.9521 223.918 52.5992 223.918 56.611C223.918 60.2581 223.918 63.5405 223.918 67.1876Z" fill="#EEA75D"/>
<path d="M221.151 64.2693C221.403 65.3634 221.906 66.4576 222.66 67.187C222.409 52.5986 222.66 38.0102 222.66 24.1512C222.66 17.2217 222.66 10.2923 222.912 3.72749C222.912 -2.83728 222.912 -9.03735 223.164 -14.508C223.415 -32.7435 223.918 -46.2377 223.918 -50.6143C223.415 -50.2495 222.912 -49.5201 222.409 -48.426C222.409 -46.6025 222.409 -44.0495 222.157 -40.4024C221.906 -33.8376 221.906 -24.7199 221.654 -13.4139C221.654 -7.94324 221.403 -1.74316 221.403 4.4569C221.403 10.657 221.151 17.5864 221.151 24.5159C221.151 31.4454 221.151 38.7396 221.151 46.0338C221.151 49.6809 221.151 53.328 221.151 56.9751C221.151 59.1634 221.151 61.7163 221.151 64.2693Z" fill="#EEA75D"/>
</svg>
