<?xml version="1.0" encoding="UTF-8" standalone="no"?>
<svg
   xmlns:dc="http://purl.org/dc/elements/1.1/"
   xmlns:cc="http://creativecommons.org/ns#"
   xmlns:rdf="http://www.w3.org/1999/02/22-rdf-syntax-ns#"
   xmlns:svg="http://www.w3.org/2000/svg"
   xmlns="http://www.w3.org/2000/svg"
   xmlns:sodipodi="http://sodipodi.sourceforge.net/DTD/sodipodi-0.dtd"
   xmlns:inkscape="http://www.inkscape.org/namespaces/inkscape"
   width="299"
   height="476"
   viewBox="0 0 299 476"
   fill="none"
   version="1.1"
   id="svg248"
   sodipodi:docname="woodColumn.svg"
   inkscape:version="1.0.1 (3bc2e813f5, 2020-09-07)">
  <metadata
     id="metadata254">
    <rdf:RDF>
      <cc:Work
         rdf:about="">
        <dc:format>image/svg+xml</dc:format>
        <dc:type
           rdf:resource="http://purl.org/dc/dcmitype/StillImage" />
      </cc:Work>
    </rdf:RDF>
  </metadata>
  <defs
     id="defs252" />
  <sodipodi:namedview
     pagecolor="#ffffff"
     bordercolor="#666666"
     borderopacity="1"
     objecttolerance="10"
     gridtolerance="10"
     guidetolerance="10"
     inkscape:pageopacity="0"
     inkscape:pageshadow="2"
     inkscape:window-width="1920"
     inkscape:window-height="1017"
     id="namedview250"
     showgrid="false"
     inkscape:zoom="0.89285714"
     inkscape:cx="-288.62526"
     inkscape:cy="364.77948"
     inkscape:window-x="1672"
     inkscape:window-y="-8"
     inkscape:window-maximized="1"
     inkscape:current-layer="svg248" />
  <path
     d="m 172.936,55.574106 -56.719,1.269064 4.133,426.32901 h 52.586 z"
     fill="#9c5f38"
     id="path2"
     style="stroke-width:1.0082" />
  <path
     d="m 172.936,483.84 h -52.585 c -0.081,-0.008 -0.159,-0.0325 -0.229,-0.0701 -0.071,-0.0386 -0.134,-0.0905 -0.184,-0.15247 -0.05,-0.062 -0.088,-0.13315 -0.11,-0.20939 -0.022,-0.0772 -0.029,-0.15654 -0.02,-0.23582 L 115.675,56.842458 c -0.01,-0.07898 -0.003,-0.159077 0.019,-0.235516 0.022,-0.07654 0.06,-0.147896 0.11,-0.210003 0.051,-0.06221 0.113,-0.113844 0.184,-0.151962 0.071,-0.03822 0.149,-0.06211 0.229,-0.07044 l 56.719,-1.268962 h 0.407 c 0.029,0.154503 0.029,0.312971 0,0.467474 V 482.83776 c 0.135,0.73491 -0.068,1.00224 -0.407,1.00224 z m -51.976,-1.33564 h 51.366 V 56.308201 l -55.499,1.20218 z"
     fill="#5b3618"
     id="path4"
     style="stroke-width:1.0082" />
  <g
     style="mix-blend-mode:multiply"
     opacity="0.6"
     id="g8"
     transform="scale(1,1.0164706)">
    <path
       d="m 172.936,77.9346 v -23.261 l -56.719,1.2485 v 22.9982 c 19.312,-1.7085 38.083,1.577 56.719,-0.9857 z"
       fill="#9c5f38"
       id="path6" />
  </g>
  <g
     style="mix-blend-mode:multiply"
     opacity="0.6"
     id="g12"
     transform="scale(1,1.0164706)">
    <path
       d="m 172.936,191.282 v -77.471 l -9.691,9.265 c -7.647,6.089 -14.66,12.889 -20.939,20.304 -0.1,0.136 -0.232,0.247 -0.386,0.323 -0.153,0.076 -0.323,0.116 -0.495,0.116 -0.172,0 -0.342,-0.04 -0.495,-0.116 -0.153,-0.076 -0.285,-0.187 -0.386,-0.323 -4.743,-5.979 -8.809,-12.681 -13.553,-18.792 -3.148,-4.671 -6.707,-9.068 -10.639,-13.142 l 0.678,69.192 c 10.029,13.141 20.329,26.283 30.223,39.425 8.606,-9.856 17.144,-19.384 25.683,-28.781 z"
       fill="#9c5f38"
       id="path10" />
  </g>
  <g
     style="mix-blend-mode:multiply"
     opacity="0.5"
     id="g18"
     transform="scale(1,1.0164706)">
    <g
       style="mix-blend-mode:multiply"
       opacity="0.5"
       id="g16">
      <path
         d="m 151.386,460.099 -5.489,-258.171 -12.672,140.289 -4.675,0.263 V 175.644 l -4.134,-52.699 V 80.563 l 8.335,-2.6284 13.892,46.7194 -1.626,-43.8939 22.701,-2.8255 4.066,50.9244 1.152,-74.1854 -56.719,1.2485 4.133,419.4209 h 52.586 V 185.566 l -9.623,275.387 z"
         fill="#9C5F38"
         id="path14" />
    </g>
  </g>
  <g
     style="mix-blend-mode:multiply"
     opacity="0.5"
     id="g24"
     transform="scale(1,1.0164706)">
    <g
       style="mix-blend-mode:multiply"
       opacity="0.5"
       id="g22">
      <path
         d="m 171.309,442.16 c -0.949,5.979 -1.694,12.025 -2.439,18.07 0,1.511 -0.339,3.548 -1.559,4.534 -6.167,4.796 -15.044,1.248 -21.752,3.942 -0.814,0 -1.491,-0.525 -1.559,-1.38 -1.288,-30.423 -1.084,-60.912 -2.643,-91.335 -0.542,-10.448 -0.949,-20.896 -1.423,-31.344 0,9.725 -0.474,19.713 -0.881,29.11 -1.22,29.372 -0.61,59.532 -4.811,88.641 0,1.643 -2.44,1.249 -2.44,-0.394 0,-21.815 0.339,-43.631 -0.406,-65.709 -0.678,5.717 -1.423,11.368 -2.101,17.084 -0.949,7.326 -1.492,14.696 -1.626,22.078 0.11,5.594 -0.505,11.18 -1.83,16.625 -0.339,1.183 -2.168,1.445 -2.372,0 -2.033,-16.71 -3.186,-33.51 -3.456,-50.333 0,-4.863 0,-9.725 -0.542,-14.522 l 0.881,87.919 h 52.585 v -42.711 c -0.609,3.22 -1.152,6.439 -1.626,9.725 z"
         fill="#9c5f38"
         id="path20" />
    </g>
  </g>
  <g
     style="mix-blend-mode:multiply"
     id="g28"
     transform="scale(1,1.0164706)">
    <path
       d="m 145.558,185.434 c 0,-0.526 -1.423,0 -1.287,0.591 4.201,10.317 0,22.407 -1.423,32.855 -1.116,12.088 -1.116,24.249 0,36.337 0,1.051 2.643,-0.394 2.71,-1.051 0.543,-13.142 -0.677,-25.693 0.678,-38.572 0.678,-9.725 3.998,-20.567 -0.678,-30.16 z"
       fill="#9c5f38"
       id="path26" />
  </g>
  <g
     style="mix-blend-mode:multiply"
     id="g32"
     transform="scale(1,1.0164706)">
    <path
       d="m 137.698,290.108 c 0,-13.141 1.288,-26.283 0,-39.031 0,-0.46 -1.016,0 -1.084,0.394 -2.101,26.284 -5.557,54.868 0.407,81.283 0,1.051 2.507,-0.46 2.439,-1.117 -0.813,-13.931 -1.965,-27.664 -1.762,-41.529 z"
       fill="#9c5f38"
       id="path30" />
  </g>
  <g
     style="mix-blend-mode:multiply"
     id="g36"
     transform="scale(1,1.0164706)">
    <path
       d="m 158.095,346.553 c 0,0 -0.881,0 -0.881,0.329 -0.813,16.164 0,32.329 -0.881,48.493 -0.881,16.165 -3.862,32.855 -3.049,49.348 0,0.92 2.304,0 2.372,-0.855 2.708,-32.367 3.523,-64.858 2.439,-97.315 z"
       fill="#9c5f38"
       id="path34" />
  </g>
  <g
     style="mix-blend-mode:screen"
     opacity="0.5"
     id="g40"
     transform="scale(1,1.0164706)">
    <path
       d="m 165.617,92.9153 c 0,0 1.152,207.5097 -3.321,262.8367 -7.725,-52.567 -2.507,-223.674 3.321,-262.8367 z"
       fill="#9c5f38"
       id="path38" />
  </g>
  <path
     d="M 263.605,44.686487 33.4762,54.170869 33.544,75.210184 263.74,66.727635 Z"
     fill="#773e2a"
     id="path42"
     style="stroke-width:1.0082" />
  <path
     d="m 33.8826,75.877801 c -0.0635,0.02968 -0.133,0.04503 -0.2033,0.04503 -0.0703,0 -0.1398,-0.01535 -0.2033,-0.04503 -0.0317,-0.074 -0.048,-0.153487 -0.048,-0.233788 0,-0.0803 0.0163,-0.159789 0.048,-0.233788 V 54.170564 c -0.0691,-0.121773 -0.093,-0.263469 -0.0678,-0.400795 l 230.3998,-9.4176 c 0,0 0,0 0.407,0 0.029,0.154504 0.029,0.313073 0,0.467577 v 22.041148 c 0.009,0.07908 0.002,0.159078 -0.02,0.235618 -0.022,0.07644 -0.059,0.147896 -0.11,0.210003 -0.05,0.06211 -0.113,0.113743 -0.184,0.151962 -0.07,0.03812 -0.148,0.06211 -0.228,0.07034 z m 0,-21.039314 V 74.475174 L 262.927,66.126189 V 45.420887 Z"
     fill="#4b2513"
     id="path44"
     style="stroke-width:1.0082" />
  <g
     style="mix-blend-mode:multiply"
     opacity="0.5"
     id="g50"
     transform="scale(1,1.0164706)">
    <g
       style="mix-blend-mode:multiply"
       opacity="0.5"
       id="g48">
      <path
         d="m 263.605,43.9624 -230.1288,9.3307 0.0678,20.6984 13.8917,-0.5257 -0.4743,-0.7228 -3.5916,-5.9795 84.2312,-3.614 -57.3286,-1.1828 0.4744,-4.2054 184.9972,-5.3881 -1.016,4.7967 -55.771,5.9796 51.163,1.8398 -0.203,1.1828 13.823,-0.5257 z"
         fill="#773e2a"
         id="path46" />
    </g>
  </g>
  <path
     d="M 1.15186,5.4793355 V 27.720881 H 9.62244 L 0.609741,30.793265 1.15186,46.556081 14.2304,47.090338 1.15186,49.962376 2.0328,58.845617 295.386,47.557914 c 0.881,0 1.491,-28.052352 1.491,-28.052352 l -17.416,1.335744 16.535,-4.074217 1.423,-15.7627784 c 0,0 -7.251,1.0686592 -21.143,1.7365718 C 262.385,3.4088053 79.7589,5.1453741 58.3452,4.4106692 36.9316,3.6759642 1.15186,5.4793355 1.15186,5.4793355 Z"
     fill="#9c5f38"
     id="path52"
     style="stroke-width:1.0082" />
  <path
     d="M 2.03306,59.514251 C 1.88073,59.488738 1.74022,59.417178 1.63096,59.309432 1.5217,59.201788 1.44909,59.063243 1.42318,58.913111 L 0.610007,50.029869 C 0.567638,49.87933 0.586386,49.718423 0.66228,49.581301 0.738174,49.444179 0.865252,49.341515 1.01659,49.295164 L 9.01283,47.425062 1.15212,47.091049 C 1.07184,47.082714 0.994026,47.058827 0.923194,47.02071 0.852362,46.98249 0.789921,46.930854 0.739493,46.868747 0.689065,46.806641 0.651653,46.735183 0.629425,46.658744 0.607197,46.582204 0.600597,46.502208 0.610007,46.423127 L 1.2462e-4,30.793976 C -0.00242995,30.656245 0.0343354,30.520648 0.106226,30.402534 0.178117,30.28442 0.282239,30.188567 0.406713,30.126054 L 5.62459,28.189067 H 1.49095 c -0.07506,0.03121 -0.15571,0.04737 -0.23718,0.04737 -0.08147,0 -0.16212,-0.01616 -0.23718,-0.04737 -0.040163,-0.153283 -0.040163,-0.314191 0,-0.467475 L 0.610007,5.4800064 C 0.600597,5.400986 0.607197,5.3209084 0.629425,5.244419 0.651653,5.1679296 0.689065,5.096553 0.739493,5.0344162 0.789921,4.9722895 0.852362,4.9206426 0.923194,4.8824843 0.994026,4.8443159 1.07184,4.8203881 1.15212,4.8120937 c 0,0 25.00518,-1.2022407 45.47008,-1.2022407 h 11.7233 c 3.2527,0 10.5713,0 21.5492,0 56.0413,0 184.9293,-1.3358355 196.5173,-1.8701636 13.553,-0.6679126 21.075,-1.73657566 21.143,-1.73657566 0.124,-0.01249824 0.249,0.01281781 0.358,0.07253373 0.109,0.05971592 0.197,0.1509594 0.252,0.26142333 0.068,0.17179776 0.068,0.36253338 0,0.53433114 L 296.674,16.634135 c -0.002,0.128075 -0.042,0.252897 -0.114,0.359424 -0.072,0.106627 -0.174,0.190486 -0.293,0.241716 l -8.674,2.137333 9.352,-0.734705 c 0.075,-0.03121 0.156,-0.04727 0.237,-0.04727 0.082,0 0.162,0.01606 0.237,0.04727 0.04,0.153385 0.04,0.314191 0,0.467577 -0.61,28.720274 -1.355,28.720274 -2.033,28.720274 z m 0,-9.016805 0.47436,7.68096 L 295.047,47.091049 c 0.543,-2.404461 1.017,-17.09856 1.22,-26.716506 l -16.805,1.268962 c 0,0 -0.543,0 -0.543,-0.534257 -0.042,-0.150539 -0.023,-0.311447 0.053,-0.448568 0.076,-0.137122 0.203,-0.239786 0.354,-0.286137 l 16.128,-4.007537 1.355,-14.5605243 c -2.168,0 -9.148,1.0686663 -20.329,1.6029944 -11.181,0.5343281 -140.341,1.8701636 -196.5176,1.8701636 -11.0456,0 -18.2964,0 -21.6169,0 -3.3205,0 -7.2508,0 -11.6555,0 C 27.8514,4.9456783 5.48906,5.9475524 1.76201,6.0811268 L 2.03306,27.05367 H 9.826 c 0.3388,0 0.5421,0 0.6099,0.534257 0.0424,0.150539 0.0236,0.311446 -0.0523,0.448568 -0.0759,0.137122 -0.203,0.239785 -0.3543,0.286137 L 1.15212,31.261451 1.69424,45.888768 H 14.2307 c 0.1618,-0.07085 0.3454,-0.07542 0.5106,-0.01281 0.1653,0.06262 0.2985,0.187336 0.3703,0.34682 0.0719,0.159383 0.0766,0.340416 0.0131,0.503255 -0.0636,0.162838 -0.1901,0.294166 -0.3519,0.365014 0.0199,0.07908 0.0233,0.161213 0.01,0.241615 -0.0133,0.0804 -0.043,0.157248 -0.0874,0.225962 -0.0443,0.06871 -0.1024,0.127872 -0.1706,0.173715 -0.0683,0.04594 -0.1453,0.07776 -0.2263,0.09341 z"
     fill="#5b3618"
     id="path54"
     style="stroke-width:1.0082" />
  <path
     d="m 194.62,39.743593 c -18.741,3.22577 -37.81,4.190197 -56.787,2.872038 -9.351,0 -18.703,-0.734705 -28.054,-0.734705 -7.997,0 -17.7547,2.137333 -25.4121,-0.400794 0,0 -0.6777,0.734705 0,0.868269 7.5455,1.613647 15.3173,1.929973 22.9721,0.935051 10.029,0 20.329,0.534359 30.155,0.935153 19.06,1.78726 38.282,0.819682 57.058,-2.872037 0.203,-0.133565 0.881,-1.736539 0.068,-1.602975 z"
     fill="#5b3618"
     id="path56"
     style="stroke-width:1.0082" />
  <path
     d="m 105.51,24.983932 c -10.5547,1.434139 -21.1949,2.17047 -31.8494,2.204115 -11.9266,0.333911 -23.7176,1.536192 -35.6442,2.872038 0,0 -0.6099,0.801487 0,0.801487 11.1134,-0.400795 22.1591,-1.269064 33.2047,-1.602974 11.3575,0.172088 22.705,-0.745073 33.8819,-2.738474 0.543,-0.133564 1.152,-1.602974 0.407,-1.536192 z"
     fill="#5b3618"
     id="path58"
     style="stroke-width:1.0082" />
  <path
     d="m 191.164,21.042669 c -7.454,0.734705 -14.908,0.467577 -22.362,0.734705 -7.454,0.267129 -15.925,2.404461 -23.921,2.872038 0,0 -0.677,0.868269 -0.339,0.868269 7.251,0 14.434,-1.669756 21.617,-2.204115 8.268,-0.601141 16.467,0 24.667,-0.935051 0.474,-0.06678 1.016,-1.46941 0.338,-1.335846 z"
     fill="#5b3618"
     id="path60"
     style="stroke-width:1.0082" />
  <path
     d="m 257.031,36.470965 c -13.441,-0.893478 -26.943,-0.108051 -40.184,2.337679 0,0 -0.61,0.868371 0,0.801487 13.204,-1.458839 26.495,-2.016779 39.778,-1.669756 0.271,0 0.881,-1.46941 0.406,-1.46941 z"
     fill="#5b3618"
     id="path62"
     style="stroke-width:1.0082" />
  <path
     d="m 267.264,23.647578 c -8.358,1.056926 -16.797,1.347637 -25.209,0.86827 0,0 -0.881,1.001935 -0.406,1.068717 8.359,1.045745 16.827,0.888192 25.14,-0.467577 0.475,0 1.017,-1.46941 0.475,-1.46941 z"
     fill="#5b3618"
     id="path64"
     style="stroke-width:1.0082" />
  <g
     style="mix-blend-mode:multiply"
     opacity="0.5"
     id="g70"
     transform="scale(1,1.0164706)">
    <g
       style="mix-blend-mode:multiply"
       opacity="0.5"
       id="g68">
      <path
         d="m 295.996,16.4954 1.423,-15.507363 c 0,0 -7.251,1.051343 -21.143,1.708433 -7.996,0.39426 -71.22,1.11706 -127.804,1.51131 V 4.79917 L 282.579,3.02502 285.628,11.83 213.323,24.2491 H 276.48 L 274.989,37.3909 44.589,44.4875 41.9462,32.1342 123.264,21.555 11.4521,20.7008 c 0,0 0,-9.1336 0,-15.70451 L 1.15186,5.39055 V 27.2717 H 9.62244 L 0.609741,30.2943 1.15186,45.8017 14.2304,46.3273 1.15186,49.1528 2.0328,57.8921 295.386,46.7873 c 0.881,0 1.491,-27.5978 1.491,-27.5978 l -17.416,1.3141 z"
         fill="#9c5f38"
         id="path66" />
    </g>
  </g>
  <g
     style="mix-blend-mode:screen"
     opacity="0.5"
     id="g74"
     transform="scale(1,1.0164706)">
    <path
       d="m 44.454,7.23157 c 0,0 190.758,-3.41687 223.623,-3.41687 32.866,0 -153.554,13.7989 -223.623,3.41687 z"
       fill="#9c5f38"
       id="path72" />
  </g>
  <g
     style="mix-blend-mode:screen"
     opacity="0.5"
     id="g78"
     transform="scale(1,1.0164706)">
    <path
       d="M 58.1426,68.7353 210.884,64.2671 c 0,0 -93.312,7.1623 -152.7414,4.4682 z"
       fill="#773e2a"
       id="path76" />
  </g>
  <path
     d="M 55.4317,47.090643 28.3258,12.960203 6.03125,37.405914 129.702,194.83302 150.438,171.99089 C 142.17,161.57105 110.253,121.29544 97.8524,106.20085 83.6218,88.83526 55.4317,47.090643 55.4317,47.090643 Z"
     fill="#9c5f38"
     id="path80"
     style="stroke-width:1.0082" />
  <path
     d="m 129.702,195.50084 h -0.406 L 5.625,37.873186 C 5.51484,37.741553 5.45459,37.576275 5.45459,37.405609 c 0,-0.170665 0.06025,-0.335943 0.17041,-0.467576 L 27.7163,12.559206 c 0.0509,-0.05682 0.1134,-0.102359 0.1835,-0.133565 0.0701,-0.0312 0.1462,-0.04737 0.2231,-0.04737 0.0769,0 0.1529,0.01616 0.223,0.04737 0.0701,0.03121 0.1327,0.07674 0.1836,0.133565 l 27.3769,34.531132 c 0,0.467576 28.3256,41.878283 42.3529,58.976332 12.1977,14.89536 43.3017,54.10165 52.5857,65.79005 0.11,0.13112 0.17,0.2968 0.17,0.46757 0,0.17077 -0.06,0.33544 -0.17,0.46758 l -20.736,22.50872 c -0.046,0.064 -0.107,0.11588 -0.178,0.15146 -0.071,0.0346 -0.15,0.0518 -0.229,0.0488 z M 6.777,37.472392 129.77,194.03102 149.625,172.05696 C 139.935,159.8339 109.44,121.49568 97.4461,106.80158 83.3511,89.502878 55.2965,48.092273 55.0254,47.691479 L 27.9196,14.295744 Z"
     fill="#5b3618"
     id="path82"
     style="stroke-width:1.0082" />
  <path
     d="M 47.0287,51.832986 C 43.5718,48.30563 39.4213,45.510234 34.831,43.617668 31.1113,41.395663 26.9524,39.983684 22.6334,39.476567 c 0,0 -0.5421,0.400794 0,0.400794 3.9938,0.771704 7.8078,2.266323 11.2489,4.40823 4.4838,2.039751 8.6393,4.717745 12.3332,7.94819 0,0 1.2198,0 0.8132,-0.400795 z"
     fill="#5b3618"
     id="path84"
     style="stroke-width:1.0082" />
  <path
     d="M 66.2737,75.210692 C 58.3408,66.307223 47.8467,59.994025 36.1862,57.110197 c 0,0 -0.6777,0 0,0.400794 11.1855,3.621786 21.3045,9.881111 29.4776,18.234059 0,0 1.0165,-0.06678 0.6099,-0.534358 z"
     fill="#5b3618"
     id="path86"
     style="stroke-width:1.0082" />
  <path
     d="M 88.8395,103.86398 C 83.6599,94.756405 76.4547,86.923991 67.7647,80.954056 63.7285,78.9758 59.5074,77.387667 55.1604,76.211814 50.1459,74.408493 45.6056,71.269225 40.7266,69.532687 c 0,0 -0.6777,0 -0.4066,0.334012 3.618,2.254329 7.4006,4.241325 11.3167,5.944422 4.2014,1.669756 8.4706,2.872038 12.6042,4.608576 10.3002,3.940653 16.399,15.428804 23.8532,23.844773 0,0.3334 1.0164,0 0.7454,-0.40049 z"
     fill="#5b3618"
     id="path88"
     style="stroke-width:1.0082" />
  <path
     d="m 96.836,132.85067 c -1.6251,-8.06366 -4.3849,-15.86507 -8.1995,-23.17654 0,0 -0.8132,0 -0.6777,0 3.1636,7.50663 5.7681,15.23079 7.793,23.11047 0.0677,0.73389 1.152,0.53365 1.0842,0.0661 z"
     fill="#5b3618"
     id="path90"
     style="stroke-width:1.0082" />
  <path
     d="m 88.6363,124.76973 c -6.5769,-1.85811 -12.4184,-5.65767 -16.7379,-10.88741 0,0 -0.7454,0 -0.6098,0 4.1131,5.616 10.0381,9.69001 16.8056,11.55523 0.5421,0.0671 1.2198,-0.46757 0.5421,-0.66782 z"
     fill="#5b3618"
     id="path92"
     style="stroke-width:1.0082" />
  <path
     d="m 81.3175,106.8026 c 0.6836,-1.31125 0.908,-2.80749 0.6383,-4.258 -0.2696,-1.44938 -1.0182,-2.77049 -2.1291,-3.757076 C 74.8121,92.709538 66.6803,85.028476 59.0907,84.5609 c -1.2875,-0.734705 -3.1849,-1.669756 -4.608,-0.868269 -1.423,0.801487 0.7454,4.408229 1.2875,5.410164 2.8468,4.38292 6.3413,8.322455 10.368,11.688495 2.7978,3.277 6.3537,5.84257 10.368,7.48011 0.8611,0.22565 1.769,0.20736 2.6199,-0.0529 0.8509,-0.26022 1.6103,-0.75015 2.1914,-1.41594 z m -8.4706,-1.60298 c -3.8725,-2.9874 -7.5609,-6.198637 -11.0456,-9.618146 -2.4748,-2.482221 -4.554,-5.319597 -6.1666,-8.415665 -1.6941,-3.339614 1.2198,-2.471243 2.7106,-2.137333 0,0 0.3388,0 0.4744,0 5.1976,1.350076 9.8983,4.130022 13.5529,8.014972 1.7285,1.570143 3.3579,3.24305 4.879,5.009371 0.9825,0.948977 1.8264,2.027961 2.5073,3.205951 0,0.66782 0.4744,1.40273 0.7454,2.07055 -2.7783,3.87377 -5.4211,4.47552 -7.9284,1.8703 z"
     fill="#5b3618"
     id="path94"
     style="stroke-width:1.0082" />
  <path
     d="m 75.2192,100.52477 c 0,-1.803418 -1.9652,-3.406393 -3.0494,-4.341444 -2.0187,-1.412182 -4.1488,-2.66295 -6.3699,-3.740307 0,0 -0.6776,0 -0.4066,0.333911 2.1757,1.095145 4.2804,2.321924 6.3021,3.673525 1.2605,0.897137 2.1697,2.194153 2.5751,3.673525 0.8132,3.07218 -3.5915,0.86827 -4.2692,0.40079 -1.5054,-1.083249 -2.8313,-2.390125 -3.9303,-3.873969 0.8131,-0.667821 1.423,-0.667821 1.9651,0 l 1.7619,1.335846 c 0.8988,0.689675 1.8768,1.272519 2.9139,1.73664 0,0 1.0165,0 0.6776,-0.467577 -1.7172,-1.409235 -3.5283,-2.703405 -5.4211,-3.873871 -0.6777,-0.334012 -2.033,-0.801487 -2.7784,0 -0.7454,0.801487 3.5916,5.476841 4.608,6.144771 1.0165,0.66833 5.489,2.33737 5.4212,-1.00184 z"
     fill="#5b3618"
     id="path96"
     style="stroke-width:1.0082" />
  <path
     d="m 134.581,172.3924 c -2.861,-4.61783 -6.642,-8.61663 -11.113,-11.75549 0,0 -0.746,0 -0.542,0 4.195,3.49361 7.908,7.51274 11.045,11.95573 0,0 0.746,0.13316 0.61,-0.20024 z"
     fill="#5b3618"
     id="path98"
     style="stroke-width:1.0082" />
  <g
     style="mix-blend-mode:multiply"
     opacity="0.6"
     id="g102"
     transform="scale(1,1.0164706)">
    <path
       d="M 150.438,169.204 C 142.17,158.953 110.253,119.33 97.8524,104.48 83.6218,87.3958 55.4317,46.3276 55.4317,46.3276 L 28.3258,12.7502 6.03125,36.7998 45.8769,86.673 10.707,35.7484 18.7032,26.6149 75.3545,94.8209 25.8863,27.4691 31.7141,23.3294 c 0,0 29.2743,35.2858 46.1477,59.6639 16.8734,24.3777 60.9882,76.8137 60.9882,76.8137 l -5.286,5.257 -39.2354,-43.171 38.4904,48.165 -9.148,7.228 -33.205,-34.76 39.236,49.15 z"
       fill="#9c5f38"
       id="path100" />
  </g>
  <g
     style="mix-blend-mode:screen"
     opacity="0.5"
     id="g106"
     transform="scale(1,1.0164706)">
    <path
       d="m 55.9737,57.8271 c 0,0 46.9613,60.7809 64.9183,83.3189 l -2.643,2.891 -30.1549,-30.489 32.7979,45.997 -6.099,4.14 c 0,0 -62.5464,-71.3606 -87.687,-110.7861 l 4.6757,-5.4538 c 0,0 33.0014,37.717 53.7374,60.1239 C 63.7666,77.2113 52.8565,58.9442 52.8565,58.9442 Z"
       fill="#9c5f38"
       id="path104" />
  </g>
  <path
     d="m 223.624,47.692597 29.138,-37.202824 26.7,29.922556 L 147.456,211.9331 122.383,183.81346 c 8.81,-11.35499 42.963,-55.16996 56.177,-71.5331 15.247,-18.902391 45.064,-64.587763 45.064,-64.587763 z"
     fill="#9c5f38"
     id="path108"
     style="stroke-width:1.0082" />
  <path
     d="m 147.456,212.59991 h -0.406 l -25.073,-28.31989 c -0.099,-0.13621 -0.153,-0.29986 -0.153,-0.46758 0,-0.16772 0.054,-0.33137 0.153,-0.46757 9.826,-12.68962 43.03,-55.30312 56.177,-71.53311 15.044,-18.634849 44.657,-64.053093 44.928,-64.720914 L 252.288,9.8211998 h 0.407 c 0.063,-0.029701 0.133,-0.045111 0.203,-0.045111 0.071,0 0.14,0.01541 0.204,0.045111 l 26.767,30.1229432 c 0.096,0.149726 0.147,0.323543 0.147,0.500917 0,0.177374 -0.051,0.351089 -0.147,0.500916 L 147.863,212.39966 c -0.132,0.0457 -0.275,0.0457 -0.407,0 z m -24.259,-28.85354 24.192,27.25056 131.26,-170.585312 -25.886,-28.920621 -28.8,36.668465 c 0,0.400794 -29.885,45.885718 -44.996,64.587458 -12.943,16.02974 -45.47,57.77415 -55.77,70.99945 z"
     fill="#5b3618"
     id="path110"
     style="stroke-width:1.0082" />
  <path
     d="m 233.517,53.770074 c 3.79,-3.823352 8.43,-6.727104 13.553,-8.482548 4.175,-2.233593 8.808,-3.512008 13.553,-3.740307 0,0 0.61,0.467576 0,0.467576 -4.546,0.498782 -8.946,1.883724 -12.943,4.074218 -4.955,1.96687 -9.537,4.744376 -13.553,8.21542 0,0 -1.017,-0.200448 -0.61,-0.534359 z"
     fill="#5b3618"
     id="path112"
     style="stroke-width:1.0082" />
  <path
     d="m 212.849,79.084563 c 8.643,-9.763912 20.402,-16.336207 33.34,-18.634854 0,0 0.813,0.400795 0.339,0.467577 -12.367,3.174031 -23.631,9.590603 -32.595,18.56797 -0.339,0.534358 -1.558,0.06678 -1.084,-0.400693 z"
     fill="#5b3618"
     id="path114"
     style="stroke-width:1.0082" />
  <path
     d="m 188.793,110.27486 c 5.233,-9.97615 12.951,-18.479536 22.43,-24.712432 4.572,-1.959552 9.342,-3.437195 14.23,-4.408229 5.557,-1.602975 10.504,-4.875705 16.06,-6.679127 0,0 0.814,0 0.407,0.467576 -4.009,2.292955 -8.202,4.258707 -12.536,5.87764 -4.676,1.602974 -9.487,2.604808 -14.163,4.274665 -11.249,3.873871 -17.551,16.697457 -25.276,25.781657 -0.204,0.3334 -1.491,-0.0671 -1.152,-0.60175 z"
     fill="#5b3618"
     id="path116"
     style="stroke-width:1.0082" />
  <path
     d="m 181.406,143.13736 c 1.291,-9.04151 3.94,-17.84313 7.861,-26.11517 0,0 1.016,0 0.881,0.33341 -3.104,8.47838 -5.506,17.18953 -7.183,26.04909 -0.407,0.60073 -1.694,0.26733 -1.559,-0.26733 z"
     fill="#5b3618"
     id="path118"
     style="stroke-width:1.0082" />
  <path
     d="m 190.216,134.45466 c 7.295,-1.44237 13.843,-5.36696 18.499,-11.08766 0,0 0.881,0 0.746,0 -4.488,6.09781 -11.186,10.26026 -18.703,11.62131 -0.475,0.33442 -1.017,-0.3334 -0.542,-0.53365 z"
     fill="#5b3618"
     id="path120"
     style="stroke-width:1.0082" />
  <path
     d="m 203.294,116.55462 c 4.46,-1.50743 8.404,-4.21429 11.385,-7.81463 4.437,-3.5607 8.24,-7.82703 11.249,-12.623751 0.542,-1.068717 3.32,-4.809024 1.152,-6.14487 -0.86,-0.356069 -1.797,-0.487804 -2.723,-0.382497 -0.926,0.105306 -1.809,0.444096 -2.563,0.983638 -8.606,0 -17.483,8.081754 -22.837,14.62711 -1.192,1.18114 -1.963,2.71296 -2.195,4.36371 -0.232,1.64973 0.086,3.33098 0.908,4.78656 0.652,0.82944 1.518,1.47083 2.507,1.85811 0.989,0.38728 2.065,0.50722 3.117,0.34662 z m -5.218,-6.21166 c 0,-0.80199 0.475,-1.60297 0.678,-2.40496 0.71,-1.29296 1.625,-2.46495 2.711,-3.47328 1.635,-1.87641 3.377,-3.66082 5.217,-5.342879 4.028,-4.198735 9.289,-7.048309 15.044,-8.148537 0.176,0.05611 0.366,0.05611 0.542,0 1.762,0 5.015,-1.001935 3.253,2.738372 -1.54,3.354556 -3.649,6.426224 -6.234,9.083994 -3.762,3.69284 -7.793,7.10818 -12.062,10.21858 -2.508,3.0057 -5.625,2.07055 -8.945,-2.67129 z"
     fill="#5b3618"
     id="path122"
     style="stroke-width:1.0082" />
  <path
     d="m 204.107,107.60459 c 0,-2.07055 2.033,-3.80668 3.185,-4.80892 2.284,-1.44257 4.687,-2.69375 7.183,-3.740408 0,0 0.678,0 0.407,0.400794 -2.328,1.121274 -4.59,2.369904 -6.777,3.740104 -0.71,0.44521 -1.318,1.0307 -1.785,1.72088 -0.467,0.69019 -0.782,1.46982 -0.925,2.28706 -0.746,3.47328 4.133,1.26856 4.879,0.80098 1.664,-1.11608 3.11,-2.51881 4.269,-4.1411 -0.949,-0.80098 -1.694,-0.93515 -2.304,0 l -1.83,1.40273 c -1.023,0.72169 -2.14,1.30617 -3.32,1.73715 0,0 -1.152,0 -0.746,-0.60175 1.868,-1.50133 3.864,-2.84205 5.964,-4.00693 0.467,-0.32222 1.022,-0.49502 1.592,-0.49502 0.57,0 1.126,0.1728 1.593,0.49502 1.965,2.13662 -3.795,6.01039 -4.879,6.67923 -1.085,0.66782 -6.37,2.33687 -6.506,-1.46982 z"
     fill="#5b3618"
     id="path124"
     style="stroke-width:1.0082" />
  <path
     d="m 140.544,185.61668 c 2.902,-5.19315 7.013,-9.63411 11.995,-12.95695 0,0 0.881,0 0.61,0.3334 -4.59,3.72943 -8.607,8.09415 -11.927,12.95797 0,0 -0.813,0 -0.678,-0.33442 z"
     fill="#5b3618"
     id="path126"
     style="stroke-width:1.0082" />
  <g
     style="mix-blend-mode:multiply"
     opacity="0.6"
     id="g130"
     transform="scale(1,1.0164706)">
    <path
       d="m 122.383,180.835 c 8.81,-11.171 42.963,-54.276 56.177,-70.374 15.247,-18.5961 45.064,-63.5412 45.064,-63.5412 l 29.138,-36.6 26.7,29.4377 -42.285,54.3415 37.135,-55.8528 -10.029,-11.1705 -60.514,74.1203 52.45,-73.7918 -6.777,-5.2567 c 0,0 -31.307,38.3084 -49.197,65.1177 -17.89,26.8098 -65.596,83.9108 -65.596,83.9108 l 6.37,6.571 42.624,-46.654 -41.066,52.568 10.91,9.133 35.848,-37.454 -41.879,53.553 z"
       fill="#9c5f38"
       id="path128" />
  </g>
  <g
     style="mix-blend-mode:screen"
     opacity="0.5"
     id="g134"
     transform="scale(1,1.0164706)">
    <path
       d="m 223.624,59.9303 c 0,0 -49.943,66.4317 -69.188,91.0067 l 3.253,3.483 33.001,-32.855 -34.831,50.268 7.183,5.322 c 0,0 66.816,-77.142 93.515,-120.8387 l -5.624,-6.5709 c 0,0 -35.441,40.871 -57.871,65.0516 23.108,-33.2484 34.424,-53.4868 34.424,-53.4868 z"
       fill="#9c5f38"
       id="path132" />
  </g>
  <g
     style="mix-blend-mode:multiply"
     id="g138"
     transform="scale(1,1.0164706)">
    <path
       d="m 257.506,36.2743 c 0.146,0.6789 0.134,1.381 -0.035,2.055 -0.169,0.674 -0.49,1.303 -0.941,1.8413 -0.451,0.5382 -1.021,0.9722 -1.667,1.2702 -0.645,0.2981 -1.352,0.4528 -2.067,0.4528 -0.715,0 -1.422,-0.1547 -2.068,-0.4528 -0.645,-0.298 -1.215,-0.732 -1.666,-1.2702 -0.451,-0.5383 -0.773,-1.1673 -0.941,-1.8413 -0.169,-0.674 -0.181,-1.3761 -0.035,-2.055 -0.146,-0.679 -0.134,-1.381 0.035,-2.055 0.168,-0.674 0.49,-1.303 0.941,-1.8413 0.451,-0.5383 1.021,-0.9722 1.666,-1.2703 0.646,-0.298 1.353,-0.4527 2.068,-0.4527 0.715,0 1.422,0.1547 2.067,0.4527 0.646,0.2981 1.216,0.732 1.667,1.2703 0.451,0.5383 0.772,1.1673 0.941,1.8413 0.169,0.674 0.181,1.376 0.035,2.055 z"
       fill="#773e2a"
       id="path136" />
  </g>
  <path
     d="m 256.964,35.603102 c 0.146,0.690184 0.134,1.403746 -0.035,2.088847 -0.168,0.685101 -0.49,1.324563 -0.941,1.871627 -0.451,0.547167 -1.021,0.988213 -1.666,1.291223 -0.646,0.30301 -1.353,0.460156 -2.068,0.460156 -0.715,0 -1.421,-0.157146 -2.067,-0.460156 -0.646,-0.30301 -1.215,-0.744056 -1.667,-1.291223 -0.451,-0.547064 -0.772,-1.186526 -0.941,-1.871627 -0.169,-0.685101 -0.181,-1.398663 -0.035,-2.088847 -0.146,-0.690082 -0.134,-1.403644 0.035,-2.088745 0.169,-0.685203 0.49,-1.324563 0.941,-1.871628 0.452,-0.547166 1.021,-0.988314 1.667,-1.291222 0.646,-0.30301 1.352,-0.460156 2.067,-0.460156 0.715,0 1.422,0.157146 2.068,0.460156 0.645,0.302908 1.215,0.744056 1.666,1.291222 0.451,0.547065 0.773,1.186425 0.941,1.871628 0.169,0.685101 0.181,1.398663 0.035,2.088745 z"
     fill="#acab9c"
     id="path140"
     style="stroke-width:1.0082" />
  <path
     d="m 252.22,41.480132 c -1.451,-0.135801 -2.79,-0.828017 -3.728,-1.927432 -0.938,-1.099414 -1.4,-2.518102 -1.287,-3.950208 -0.15,-0.736839 -0.133,-1.497566 0.05,-2.227087 0.184,-0.729622 0.53,-1.409743 1.013,-1.991469 0.483,-0.581726 1.091,-1.050421 1.781,-1.372337 0.689,-0.321815 1.442,-0.488821 2.205,-0.488821 0.762,0 1.516,0.167006 2.205,0.488821 0.689,0.321916 1.297,0.790611 1.78,1.372337 0.483,0.581726 0.829,1.261847 1.013,1.991469 0.184,0.729521 0.201,1.490248 0.05,2.227087 0.113,1.442779 -0.359,2.870716 -1.311,3.971961 -0.952,1.101346 -2.308,1.786447 -3.771,1.905679 z m 0,-11.154139 c -1.289,0.135089 -2.473,0.763675 -3.297,1.750566 -0.824,0.98679 -1.222,2.252905 -1.108,3.525933 -0.142,0.652676 -0.135,1.328527 0.022,1.97795 0.157,0.649423 0.459,1.256053 0.885,1.77547 0.425,0.519314 0.963,0.938304 1.574,1.226066 0.612,0.287763 1.28,0.437184 1.958,0.437184 0.677,0 1.346,-0.149421 1.957,-0.437184 0.611,-0.287762 1.149,-0.706752 1.575,-1.226066 0.425,-0.519417 0.728,-1.126047 0.885,-1.77547 0.156,-0.649423 0.164,-1.325274 0.021,-1.97795 0.113,-1.283497 -0.294,-2.558863 -1.132,-3.547584 -0.838,-0.988619 -2.039,-1.610191 -3.34,-1.728915 z"
     fill="#636263"
     id="path142"
     style="stroke-width:1.0082" />
  <g
     style="mix-blend-mode:screen"
     id="g148"
     transform="scale(1,1.0164706)">
    <g
       style="mix-blend-mode:screen"
       id="g146">
      <path
         d="m 252.695,30.6896 c 0.587,0.0047 1.166,0.137 1.694,0.3871 0.527,0.2502 0.991,0.6119 1.355,1.0585 -0.341,-0.6278 -0.846,-1.1581 -1.464,-1.5385 -0.618,-0.3803 -1.328,-0.5975 -2.06,-0.6299 -1.234,0.1168 -2.373,0.6982 -3.171,1.6195 -0.798,0.9212 -1.192,2.109 -1.098,3.3087 -0.018,1.2934 0.438,2.551 1.288,3.5483 -0.499,-0.8624 -0.756,-1.8367 -0.746,-2.8255 -0.095,-1.1894 0.29,-2.3683 1.074,-3.2878 0.783,-0.9195 1.905,-1.5077 3.128,-1.6404 z"
         fill="#acab9c"
         id="path144" />
    </g>
  </g>
  <g
     style="mix-blend-mode:multiply"
     id="g152"
     transform="scale(1,1.0164706)">
    <path
       d="m 255.202,35.9465 c 0.087,0.3571 0.09,0.7288 0.009,1.0871 -0.082,0.3583 -0.247,0.6941 -0.481,0.982 -0.235,0.2879 -0.534,0.5206 -0.875,0.6805 -0.34,0.16 -0.714,0.2431 -1.092,0.2431 -0.379,0 -0.753,-0.0831 -1.093,-0.2431 -0.341,-0.1599 -0.64,-0.3926 -0.875,-0.6805 -0.234,-0.2879 -0.399,-0.6237 -0.481,-0.982 -0.081,-0.3583 -0.078,-0.73 0.009,-1.0871 -0.087,-0.3571 -0.09,-0.7287 -0.009,-1.0871 0.082,-0.3583 0.247,-0.694 0.481,-0.9819 0.235,-0.288 0.534,-0.5206 0.875,-0.6806 0.34,-0.16 0.714,-0.243 1.093,-0.243 0.378,0 0.752,0.083 1.092,0.243 0.341,0.16 0.64,0.3926 0.875,0.6806 0.234,0.2879 0.399,0.6236 0.481,0.9819 0.081,0.3584 0.078,0.73 -0.009,1.0871 z"
       fill="#acab9c"
       id="path150" />
  </g>
  <path
     d="m 254.66,35.602696 c 0.059,0.344685 0.04,0.697908 -0.053,1.03497 -0.094,0.337163 -0.261,0.650033 -0.49,0.916958 -0.229,0.266925 -0.515,0.4814 -0.836,0.628484 -0.322,0.147185 -0.672,0.22342 -1.027,0.22342 -0.355,0 -0.705,-0.07624 -1.027,-0.22342 -0.321,-0.147084 -0.607,-0.361559 -0.836,-0.628484 -0.229,-0.266925 -0.396,-0.579795 -0.49,-0.916958 -0.094,-0.337062 -0.112,-0.690285 -0.053,-1.03497 -0.059,-0.344787 -0.041,-0.698011 0.053,-1.035072 0.094,-0.337164 0.261,-0.650033 0.49,-0.916959 0.229,-0.266925 0.515,-0.4814 0.836,-0.628483 0.322,-0.147185 0.672,-0.223421 1.027,-0.223421 0.355,0 0.705,0.07624 1.027,0.223421 0.321,0.147083 0.607,0.361558 0.836,0.628483 0.229,0.266926 0.396,0.579795 0.49,0.916959 0.093,0.337061 0.112,0.690285 0.053,1.035072 z"
     fill="#acab9c"
     id="path154"
     style="stroke-width:1.0082" />
  <path
     d="m 252.221,38.74237 c -0.768,-0.08437 -1.472,-0.458632 -1.964,-1.044017 -0.493,-0.585487 -0.737,-1.336456 -0.679,-2.095149 -0.062,-0.381685 -0.039,-0.771908 0.067,-1.144038 0.106,-0.372028 0.293,-0.716917 0.547,-1.010982 0.255,-0.293963 0.571,-0.530089 0.927,-0.692013 0.356,-0.161923 0.743,-0.245782 1.135,-0.245782 0.392,0 0.78,0.08386 1.136,0.245782 0.356,0.161924 0.672,0.39805 0.927,0.692013 0.254,0.294065 0.441,0.638954 0.547,1.010982 0.106,0.37213 0.129,0.762353 0.067,1.144038 0.057,0.769163 -0.196,1.52928 -0.703,2.116596 -0.507,0.587216 -1.228,0.954466 -2.007,1.02257 z m 0,-5.744075 c -0.636,0.0676 -1.22,0.37833 -1.625,0.865524 -0.406,0.487093 -0.601,1.111714 -0.544,1.739385 -0.04,0.624011 0.162,1.239789 0.564,1.723121 0.402,0.483433 0.976,0.798437 1.605,0.881686 0.32,-0.02521 0.633,-0.112726 0.919,-0.257573 0.286,-0.144746 0.541,-0.343974 0.749,-0.586097 0.208,-0.242124 0.365,-0.522365 0.462,-0.824663 0.098,-0.302197 0.134,-0.620555 0.106,-0.936474 0.028,-0.316021 -0.008,-0.634278 -0.106,-0.936576 -0.097,-0.302197 -0.254,-0.582438 -0.462,-0.824561 -0.208,-0.242123 -0.463,-0.441352 -0.749,-0.586199 -0.286,-0.144745 -0.599,-0.232263 -0.919,-0.257573 z"
     fill="#636263"
     id="path156"
     style="stroke-width:1.0082" />
  <g
     style="mix-blend-mode:screen"
     id="g162"
     transform="scale(1,1.0164706)">
    <g
       style="mix-blend-mode:screen"
       id="g160">
      <path
         d="m 252.491,33.1862 c 0.272,0.0043 0.54,0.0651 0.785,0.1785 0.246,0.1134 0.463,0.2766 0.638,0.4786 -0.156,-0.2896 -0.389,-0.5335 -0.675,-0.7067 -0.286,-0.1733 -0.614,-0.2695 -0.951,-0.2789 -0.581,0.0502 -1.119,0.3189 -1.499,0.7486 -0.38,0.4297 -0.572,0.9864 -0.534,1.5512 0.004,0.599 0.219,1.1785 0.61,1.6427 -0.224,-0.4039 -0.34,-0.8556 -0.339,-1.3142 -0.039,-0.5545 0.143,-1.1023 0.509,-1.5303 0.366,-0.4279 0.887,-0.7034 1.456,-0.7695 z"
         fill="#acab9c"
         id="path158" />
    </g>
  </g>
  <g
     style="mix-blend-mode:multiply"
     id="g166"
     transform="scale(1,1.0164706)">
    <path
       d="m 35.1021,36.2742 c 0.1134,1.3393 -0.3202,2.6683 -1.2074,3.7007 -0.8872,1.0324 -2.1571,1.6855 -3.5362,1.8189 -1.3721,-0.1493 -2.6317,-0.8069 -3.5156,-1.8355 -0.884,-1.0285 -1.3239,-2.3485 -1.2279,-3.6841 -0.096,-1.3356 0.3439,-2.6556 1.2279,-3.6841 0.8839,-1.0286 2.1435,-1.6862 3.5156,-1.8355 1.3791,0.1334 2.649,0.7865 3.5362,1.8189 0.8872,1.0324 1.3208,2.3614 1.2074,3.7007 z"
       fill="#773e2a"
       id="path164" />
  </g>
  <path
     d="m 34.4922,35.603102 c 0.1127,1.354244 -0.3229,2.697408 -1.2117,3.736139 -0.8888,1.038732 -2.1585,1.688561 -3.5318,1.807488 -1.3664,-0.135597 -2.6257,-0.790001 -3.511,-1.824768 -0.8854,-1.034767 -1.3275,-2.368579 -1.2325,-3.718859 -0.1135,-1.361461 0.3201,-2.71235 1.2073,-3.761653 0.8873,-1.049404 2.1571,-1.713362 3.5362,-1.848858 0.6863,0.05865 1.354,0.250662 1.9646,0.564954 0.6106,0.314395 1.152,0.744667 1.593,1.266319 0.441,0.521552 0.7728,1.124115 0.9763,1.772725 0.2036,0.64861 0.2748,1.33056 0.2096,2.006513 z"
     fill="#acab9c"
     id="path168"
     style="stroke-width:1.0082" />
  <path
     d="m 29.7486,41.480335 c -1.4509,-0.1358 -2.7896,-0.827915 -3.7276,-1.927431 -0.938,-1.099415 -1.4002,-2.518001 -1.287,-3.950208 -0.114,-1.439323 0.3461,-2.865736 1.2826,-3.975824 0.9365,-1.110189 2.2754,-1.816432 3.732,-1.968598 1.4566,0.152166 2.7955,0.858409 3.732,1.968598 0.9365,1.110088 1.3966,2.536501 1.2826,3.975824 0.1131,1.432207 -0.3491,2.850793 -1.2871,3.950208 -0.938,1.099516 -2.2766,1.791631 -3.7275,1.927431 z m 0,-11.154138 c -1.2893,0.135089 -2.4732,0.763776 -3.297,1.750565 -0.8238,0.98679 -1.2215,2.253007 -1.1077,3.525934 -0.1131,1.26581 0.2867,2.524303 1.112,3.500419 0.8254,0.976219 2.0091,1.590675 3.2927,1.709399 0.6415,-0.05052 1.2666,-0.225657 1.8392,-0.515249 0.5726,-0.289593 1.0814,-0.687947 1.4971,-1.172194 0.4157,-0.484247 0.7301,-1.044728 0.9251,-1.649325 0.195,-0.604495 0.2667,-1.241009 0.2111,-1.87305 0.113,-1.283396 -0.294,-2.558864 -1.132,-3.547483 -0.838,-0.988721 -2.039,-1.610293 -3.3405,-1.729016 z"
     fill="#636263"
     id="path170"
     style="stroke-width:1.0082" />
  <g
     style="mix-blend-mode:screen"
     id="g176"
     transform="scale(1,1.0164706)">
    <g
       style="mix-blend-mode:screen"
       id="g174">
      <path
         d="m 30.2229,30.6896 c 0.5777,0.005 1.1466,0.1378 1.6633,0.3883 0.5167,0.2505 0.9676,0.6122 1.3183,1.0573 -0.3191,-0.6314 -0.8093,-1.1667 -1.4181,-1.5486 -0.6087,-0.382 -1.3132,-0.5962 -2.0379,-0.6198 -1.2349,0.1168 -2.3735,0.6982 -3.1715,1.6195 -0.7981,0.9212 -1.1921,2.109 -1.0976,3.3087 0.0748,1.3362 0.6536,2.599 1.6263,3.5483 -0.5528,-0.8433 -0.8358,-1.8265 -0.8132,-2.8255 -0.1018,-1.1498 0.2457,-2.2947 0.9738,-3.2076 0.728,-0.9128 1.7833,-1.527 2.9566,-1.7206 z"
         fill="#acab9c"
         id="path172" />
    </g>
  </g>
  <g
     style="mix-blend-mode:multiply"
     id="g180"
     transform="scale(1,1.0164706)">
    <path
       d="m 32.6626,35.9463 c 0.0566,0.6871 -0.1673,1.3682 -0.6236,1.8967 -0.4563,0.5285 -1.1085,0.8621 -1.816,0.9288 -0.6952,-0.0826 -1.3304,-0.4229 -1.7726,-0.9496 -0.4421,-0.5268 -0.6569,-1.199 -0.5991,-1.8759 -0.0397,-0.666 0.1833,-1.3216 0.6237,-1.8341 0.4404,-0.5125 1.0653,-0.8434 1.748,-0.9257 0.695,0.0667 1.3366,0.3909 1.7911,0.9051 0.4545,0.5141 0.6868,1.1786 0.6485,1.8547 z"
       fill="#acab9c"
       id="path178" />
  </g>
  <path
     d="m 32.1886,35.602594 c 0.0567,0.698417 -0.1673,1.390735 -0.6236,1.92794 -0.4563,0.537204 -1.1084,0.876197 -1.8159,0.944098 -0.365,-0.01718 -0.723,-0.105104 -1.0535,-0.258794 -0.3304,-0.153589 -0.6269,-0.370097 -0.8724,-0.636819 -0.2455,-0.266823 -0.4352,-0.578676 -0.5582,-0.917873 -0.123,-0.339094 -0.177,-0.698823 -0.1587,-1.058552 -0.0567,-0.698417 0.1673,-1.390735 0.6236,-1.92794 0.4563,-0.537205 1.1084,-0.876299 1.8159,-0.944098 0.368,0.008 0.7305,0.08986 1.0653,0.240497 0.3349,0.150641 0.6351,0.366946 0.8824,0.635599 0.2473,0.268755 0.4365,0.584369 0.556,0.927428 0.1195,0.34316 0.1668,0.706752 0.1391,1.068514 z"
     fill="#acab9c"
     id="path182"
     style="stroke-width:1.0082" />
  <path
     d="m 29.7487,38.741455 c -0.7671,-0.08437 -1.4711,-0.458631 -1.964,-1.044119 -0.4928,-0.585385 -0.7362,-1.336455 -0.6788,-2.095149 -0.0574,-0.758592 0.186,-1.509662 0.6788,-2.095149 0.4929,-0.585385 1.1969,-0.95965 1.964,-1.044017 0.3833,0.03354 0.7561,0.141493 1.0968,0.317749 0.3407,0.176256 0.6426,0.417261 0.8883,0.70909 0.2457,0.291828 0.4303,0.628788 0.5432,0.991364 0.1129,0.362575 0.1519,0.743548 0.1146,1.120963 0.0373,0.377517 -0.0017,0.758491 -0.1146,1.121066 -0.1129,0.362575 -0.2975,0.699535 -0.5432,0.991363 -0.2457,0.291829 -0.5476,0.532834 -0.8883,0.70909 -0.3407,0.176256 -0.7135,0.284206 -1.0968,0.317749 z m 0,-5.744075 c -0.6356,0.06749 -1.219,0.378228 -1.6245,0.865423 -0.4056,0.487194 -0.6009,1.111815 -0.5439,1.739384 -0.057,0.627671 0.1383,1.252292 0.5439,1.739486 0.4055,0.487093 0.9889,0.79793 1.6245,0.865423 0.6411,-0.06759 1.2311,-0.37589 1.6475,-0.86095 0.4164,-0.48506 0.6273,-1.109579 0.5888,-1.743959 0.0278,-0.315919 -0.0081,-0.634176 -0.1055,-0.936474 C 31.782,34.363415 31.6247,34.083174 31.4169,33.84105 31.209,33.598927 30.9546,33.399699 30.6683,33.254953 30.382,33.110106 30.0695,33.022588 29.7487,32.99738 Z"
     fill="#636263"
     id="path184"
     style="stroke-width:1.0082" />
  <g
     style="mix-blend-mode:screen"
     id="g190"
     transform="scale(1,1.0164706)">
    <g
       style="mix-blend-mode:screen"
       id="g188">
      <path
         d="m 30.0198,33.1862 c 0.2704,0.0122 0.5355,0.0766 0.7799,0.1894 0.2444,0.1128 0.463,0.2718 0.6432,0.4677 -0.1774,-0.2864 -0.4247,-0.5261 -0.7201,-0.698 -0.2955,-0.1719 -0.63,-0.2707 -0.974,-0.2876 -0.5692,0.0661 -1.0904,0.3415 -1.4561,0.7695 -0.3657,0.428 -0.5479,0.9758 -0.5091,1.5303 -0.0273,0.604 0.1918,1.1942 0.6099,1.6427 -0.2238,-0.4039 -0.3403,-0.8556 -0.3389,-1.3142 -0.0388,-0.5545 0.1435,-1.1023 0.5092,-1.5303 0.3657,-0.4279 0.8869,-0.7034 1.456,-0.7695 z"
         fill="#acab9c"
         id="path186" />
    </g>
  </g>
  <g
     style="mix-blend-mode:multiply"
     id="g194"
     transform="scale(1,1.0164706)">
    <path
       d="m 150.641,61.1124 c 0.147,0.679 0.135,1.381 -0.034,2.055 -0.169,0.674 -0.49,1.3031 -0.942,1.8413 -0.451,0.5383 -1.02,0.9722 -1.666,1.2703 -0.646,0.298 -1.352,0.4527 -2.067,0.4527 -0.716,0 -1.422,-0.1547 -2.068,-0.4527 -0.646,-0.2981 -1.215,-0.732 -1.666,-1.2703 -0.451,-0.5382 -0.773,-1.1673 -0.942,-1.8413 -0.169,-0.674 -0.18,-1.376 -0.034,-2.055 -0.146,-0.6789 -0.135,-1.381 0.034,-2.055 0.169,-0.674 0.491,-1.303 0.942,-1.8413 0.451,-0.5382 1.02,-0.9722 1.666,-1.2702 0.646,-0.2981 1.352,-0.4527 2.068,-0.4527 0.715,0 1.421,0.1546 2.067,0.4527 0.646,0.298 1.215,0.732 1.666,1.2702 0.452,0.5383 0.773,1.1673 0.942,1.8413 0.169,0.674 0.181,1.3761 0.034,2.055 z"
       fill="#773e2a"
       id="path192" />
  </g>
  <path
     d="m 150.099,60.850097 c 0.117,0.68012 0.082,1.377216 -0.103,2.042699 -0.184,0.665484 -0.514,1.283294 -0.965,1.810334 -0.452,0.52704 -1.015,0.950604 -1.65,1.241111 -0.634,0.290609 -1.326,0.441148 -2.026,0.441148 -0.7,0 -1.391,-0.150539 -2.026,-0.441148 -0.635,-0.290507 -1.198,-0.714071 -1.649,-1.241111 -0.452,-0.52704 -0.782,-1.14485 -0.966,-1.810334 -0.185,-0.665483 -0.219,-1.362579 -0.102,-2.042699 -0.117,-0.680222 -0.083,-1.377318 0.102,-2.042801 0.184,-0.665483 0.514,-1.283294 0.966,-1.810334 0.451,-0.52704 1.014,-0.950603 1.649,-1.241111 0.635,-0.290609 1.326,-0.441046 2.026,-0.441046 0.7,0 1.392,0.150437 2.026,0.441046 0.635,0.290508 1.198,0.714071 1.65,1.241111 0.451,0.52704 0.781,1.144851 0.965,1.810334 0.185,0.665483 0.22,1.362579 0.103,2.042801 z"
     fill="#acab9c"
     id="path196"
     style="stroke-width:1.0082" />
  <path
     d="m 145.356,67.128734 c -1.469,-0.135902 -2.825,-0.835132 -3.776,-1.947151 -0.95,-1.111917 -1.42,-2.547479 -1.307,-3.997271 -0.15,-0.736941 -0.133,-1.497667 0.05,-2.227188 0.184,-0.729521 0.53,-1.409743 1.013,-1.991469 0.483,-0.581727 1.091,-1.050421 1.781,-1.372236 0.689,-0.321916 1.442,-0.48882 2.205,-0.48882 0.762,0 1.516,0.166904 2.205,0.48882 0.689,0.321815 1.297,0.790509 1.78,1.372236 0.483,0.581726 0.829,1.261948 1.013,1.991469 0.184,0.729521 0.201,1.490247 0.05,2.227188 0.114,1.439323 -0.346,2.865736 -1.282,3.975824 -0.937,1.110189 -2.276,1.816432 -3.732,1.968598 z m 0,-11.221022 c -1.302,0.118724 -2.503,0.740296 -3.341,1.729016 -0.838,0.98862 -1.245,2.264087 -1.132,3.547584 -0.142,0.652575 -0.135,1.328426 0.022,1.977849 0.157,0.649525 0.459,1.256154 0.885,1.775469 0.425,0.519417 0.963,0.938304 1.574,1.226067 0.612,0.287864 1.28,0.437184 1.958,0.437184 0.677,0 1.346,-0.14932 1.957,-0.437184 0.611,-0.287763 1.149,-0.70665 1.575,-1.226067 0.425,-0.519315 0.728,-1.125944 0.885,-1.775469 0.156,-0.649423 0.164,-1.325274 0.021,-1.977849 0.105,-0.656233 0.073,-1.326697 -0.095,-1.970123 -0.167,-0.643426 -0.467,-1.246396 -0.879,-1.771708 -0.413,-0.525414 -0.93,-0.962191 -1.519,-1.283497 -0.59,-0.321307 -1.241,-0.520433 -1.911,-0.585183 z"
     fill="#636263"
     id="path198"
     style="stroke-width:1.0082" />
  <g
     style="mix-blend-mode:screen"
     id="g204"
     transform="scale(1,1.0164706)">
    <g
       style="mix-blend-mode:screen"
       id="g202">
      <path
         d="m 145.762,55.5279 c 0.585,0.018 1.159,0.1561 1.685,0.4053 0.526,0.2492 0.991,0.6038 1.365,1.0403 -0.345,-0.6198 -0.853,-1.1404 -1.471,-1.5096 -0.619,-0.3691 -1.327,-0.5737 -2.053,-0.5931 -0.615,0.0496 -1.214,0.2167 -1.762,0.4917 -0.548,0.275 -1.034,0.6524 -1.431,1.1105 -0.397,0.4581 -0.696,0.9879 -0.881,1.5587 -0.185,0.5708 -0.251,1.1715 -0.195,1.7673 -0.008,1.2719 0.448,2.5055 1.287,3.4826 -0.499,-0.8623 -0.756,-1.8366 -0.745,-2.8255 -0.096,-1.1894 0.289,-2.3682 1.073,-3.2877 0.784,-0.9195 1.906,-1.5077 3.128,-1.6405 z"
         fill="#acab9c"
         id="path200" />
    </g>
  </g>
  <g
     style="mix-blend-mode:multiply"
     id="g208"
     transform="scale(1,1.0164706)">
    <path
       d="m 148.269,60.7832 c -0.078,0.4593 -0.29,0.8872 -0.611,1.233 -0.322,0.3457 -0.738,0.5948 -1.201,0.7176 -0.463,0.1228 -0.953,0.1142 -1.411,-0.0248 -0.458,-0.1391 -0.865,-0.4027 -1.173,-0.7596 -0.309,-0.3568 -0.505,-0.7919 -0.565,-1.2536 -0.061,-0.4617 0.017,-0.9306 0.223,-1.3509 0.206,-0.4203 0.532,-0.7745 0.939,-1.0204 0.408,-0.2459 0.88,-0.3732 1.36,-0.3667 0.707,0.0667 1.359,0.4002 1.815,0.9287 0.457,0.5285 0.681,1.2097 0.624,1.8967 z"
       fill="#acab9c"
       id="path206" />
  </g>
  <path
     d="m 147.727,60.849894 c -0.09,0.447755 -0.307,0.86095 -0.627,1.191303 -0.319,0.330455 -0.728,0.564345 -1.177,0.67453 -0.449,0.110084 -0.921,0.09189 -1.361,-0.05245 -0.439,-0.14444 -0.827,-0.409129 -1.12,-0.763064 -0.292,-0.354037 -0.476,-0.782683 -0.53,-1.236029 -0.055,-0.453244 0.023,-0.912384 0.224,-1.323749 0.2,-0.411366 0.516,-0.757982 0.909,-0.999191 0.393,-0.24131 0.847,-0.367352 1.31,-0.363388 0.696,0.08396 1.331,0.429865 1.773,0.965342 0.442,0.535375 0.657,1.218748 0.599,1.906696 z"
     fill="#acab9c"
     id="path210"
     style="stroke-width:1.0082" />
  <path
     d="m 145.355,63.988958 c -0.658,0.123806 -1.339,0.04432 -1.949,-0.227588 -0.61,-0.271906 -1.121,-0.722914 -1.461,-1.291527 -0.341,-0.568512 -0.495,-1.22688 -0.442,-1.885045 0.053,-0.658165 0.311,-1.284107 0.739,-1.792241 0.428,-0.508133 1.005,-0.873656 1.651,-1.04666 0.647,-0.173105 1.331,-0.145152 1.961,0.08 0.63,0.225046 1.174,0.63631 1.558,1.177581 0.383,0.541169 0.588,1.186018 0.586,1.846317 0.057,0.758592 -0.186,1.509662 -0.679,2.095048 -0.493,0.585487 -1.197,0.959751 -1.964,1.044118 z m 0,-5.744075 c -0.321,0.02521 -0.633,0.112828 -0.919,0.257573 -0.287,0.144848 -0.541,0.343974 -0.749,0.586097 -0.208,0.242124 -0.365,0.522365 -0.462,0.824663 -0.098,0.302298 -0.134,0.620555 -0.106,0.936576 -0.038,0.634278 0.172,1.258797 0.589,1.743857 0.416,0.48506 1.006,0.793355 1.647,0.860951 0.636,-0.06749 1.219,-0.378229 1.625,-0.865424 0.405,-0.487194 0.601,-1.111815 0.544,-1.739384 0.057,-0.627671 -0.139,-1.252292 -0.544,-1.739486 -0.406,-0.487093 -0.989,-0.79793 -1.625,-0.865423 z"
     fill="#636263"
     id="path212"
     style="stroke-width:1.0082" />
  <g
     style="mix-blend-mode:screen"
     id="g218"
     transform="scale(1,1.0164706)">
    <g
       style="mix-blend-mode:screen"
       id="g216">
      <path
         d="m 145.558,57.7614 c 0.278,0.0122 0.549,0.0833 0.795,0.2082 0.246,0.1249 0.46,0.3005 0.628,0.5146 -0.158,-0.2936 -0.39,-0.5439 -0.674,-0.7276 -0.284,-0.1838 -0.612,-0.2951 -0.952,-0.3237 -0.581,0.0502 -1.119,0.3189 -1.499,0.7486 -0.38,0.4297 -0.572,0.9864 -0.534,1.5512 0.004,0.5989 0.22,1.1785 0.61,1.6427 -0.101,-0.4104 -0.101,-0.838 0,-1.2485 -0.068,-0.5181 0.059,-1.0426 0.358,-1.4772 0.298,-0.4346 0.749,-0.75 1.268,-0.8883 z"
         fill="#acab9c"
         id="path214" />
    </g>
  </g>
  <g
     style="mix-blend-mode:multiply"
     id="g222"
     transform="scale(1,1.0164706)">
    <path
       d="m 151.793,182.149 c -0.169,1.085 -0.656,2.099 -1.404,2.923 -0.748,0.823 -1.724,1.421 -2.812,1.721 -1.088,0.3 -2.242,0.291 -3.325,-0.028 -1.082,-0.318 -2.048,-0.932 -2.78,-1.768 -0.733,-0.836 -1.202,-1.858 -1.352,-2.946 -0.15,-1.087 0.026,-2.193 0.507,-3.186 0.481,-0.993 1.247,-1.831 2.205,-2.414 0.959,-0.583 2.07,-0.886 3.201,-0.873 1.616,0.238 3.089,1.034 4.147,2.241 1.059,1.208 1.632,2.746 1.613,4.33 z"
       fill="#773e2a"
       id="path220" />
  </g>
  <path
     d="m 151.048,183.54613 c -0.169,1.10287 -0.657,2.13357 -1.404,2.97114 -0.748,0.83656 -1.724,1.44441 -2.812,1.74935 -1.088,0.30494 -2.242,0.29477 -3.325,-0.0285 -1.083,-0.32426 -2.048,-0.94736 -2.781,-1.79712 -0.732,-0.84977 -1.202,-1.88962 -1.351,-2.99453 -0.15,-1.1049 0.026,-2.23013 0.507,-3.23949 0.481,-1.00834 1.246,-1.86014 2.205,-2.45274 0.958,-0.5926 2.069,-0.9006 3.201,-0.88738 1.616,0.24192 3.088,1.05103 4.147,2.27791 1.058,1.2279 1.631,2.79021 1.613,4.40132 z"
     fill="#acab9c"
     id="path224"
     style="stroke-width:1.0082" />
  <path
     d="m 145.288,190.76002 c -1.491,0.2592 -3.027,0.062 -4.4,-0.56719 -1.373,-0.62818 -2.517,-1.65787 -3.277,-2.94878 -0.76,-1.29092 -1.099,-2.78107 -0.971,-4.26816 0.128,-1.4871 0.717,-2.89898 1.686,-4.04556 0.969,-1.14657 2.273,-1.97195 3.733,-2.36431 1.461,-0.39134 3.009,-0.33238 4.434,0.17179 1.426,0.50417 2.659,1.42712 3.535,2.64485 0.875,1.21774 1.349,2.67129 1.358,4.16347 0.151,1.75138 -0.404,3.49056 -1.546,4.84145 -1.142,1.34987 -2.777,2.20269 -4.552,2.37244 z m 0,-13.69288 c -1.365,-0.26021 -2.778,-0.0996 -4.048,0.45843 -1.269,0.55804 -2.334,1.48811 -3.049,2.66315 -0.716,1.17403 -1.047,2.53813 -0.95,3.90427 0.098,1.36715 0.619,2.67128 1.494,3.73654 0.875,1.06425 2.062,1.83778 3.398,2.21591 1.336,0.37813 2.758,0.34153 4.073,-0.1047 1.314,-0.44521 2.458,-1.27872 3.275,-2.38667 0.818,-1.10795 1.27,-2.4375 1.296,-3.8077 0.17,-1.60297 -0.312,-3.20696 -1.342,-4.46027 -1.029,-1.25229 -2.521,-2.05022 -4.147,-2.21896 z"
     fill="#636263"
     id="path226"
     style="stroke-width:1.0082" />
  <g
     style="mix-blend-mode:screen"
     id="g232"
     transform="scale(1,1.0164706)">
    <g
       style="mix-blend-mode:screen"
       id="g230">
      <path
         d="m 145.83,175.315 c 0.708,0.013 1.404,0.178 2.037,0.485 0.633,0.307 1.187,0.748 1.622,1.29 -0.413,-0.762 -1.024,-1.405 -1.773,-1.866 -0.749,-0.461 -1.61,-0.724 -2.496,-0.763 -1.518,0.134 -2.919,0.845 -3.897,1.978 -0.978,1.133 -1.453,2.595 -1.321,4.067 -0.005,1.545 0.519,3.047 1.491,4.272 -0.594,-1.046 -0.897,-2.224 -0.881,-3.417 -0.132,-1.472 0.343,-2.935 1.321,-4.068 0.978,-1.133 2.379,-1.844 3.897,-1.978 z"
         fill="#acab9c"
         id="path228" />
    </g>
  </g>
  <g
     style="mix-blend-mode:multiply"
     id="g236"
     transform="scale(1,1.0164706)">
    <path
       d="m 149.083,181.755 c 0.037,0.414 -0.011,0.832 -0.141,1.228 -0.13,0.397 -0.34,0.764 -0.617,1.082 -0.277,0.317 -0.616,0.579 -0.998,0.769 -0.382,0.189 -0.798,0.304 -1.226,0.337 -0.726,0.122 -1.474,0.024 -2.141,-0.281 -0.666,-0.305 -1.22,-0.801 -1.586,-1.421 -0.366,-0.621 -0.527,-1.335 -0.459,-2.047 0.067,-0.712 0.358,-1.386 0.834,-1.932 0.477,-0.546 1.114,-0.936 1.827,-1.118 0.713,-0.182 1.466,-0.147 2.158,0.1 0.691,0.247 1.288,0.695 1.708,1.282 0.42,0.587 0.644,1.286 0.641,2.001 z"
       fill="#acab9c"
       id="path234" />
  </g>
  <path
     d="m 148.269,183.54613 c 0.058,0.85383 -0.219,1.6975 -0.774,2.35618 -0.554,0.65867 -1.345,1.08254 -2.207,1.18317 -0.87,-0.0844 -1.671,-0.50316 -2.229,-1.16589 -0.558,-0.66274 -0.829,-1.51556 -0.753,-2.37346 -0.037,-0.42184 0.011,-0.84571 0.141,-1.24925 0.13,-0.40252 0.339,-0.77658 0.616,-1.09982 0.277,-0.32222 0.617,-0.58752 0.998,-0.78065 0.382,-0.19313 0.799,-0.31002 1.227,-0.34356 0.856,0.0844 1.646,0.494 2.203,1.14251 0.556,0.64749 0.835,1.48303 0.778,2.33077 z"
     fill="#acab9c"
     id="path238"
     style="stroke-width:1.0082" />
  <path
     d="m 145.288,187.35281 c -0.778,0.13621 -1.58,0.0346 -2.298,-0.29274 -0.717,-0.32629 -1.316,-0.86299 -1.714,-1.53487 -0.399,-0.67291 -0.579,-1.45051 -0.515,-2.22709 0.063,-0.77659 0.367,-1.51454 0.87,-2.11629 0.502,-0.60074 1.18,-1.03477 1.942,-1.24416 0.761,-0.2094 1.569,-0.18398 2.315,0.0732 0.746,0.25819 1.394,0.73491 1.856,1.36716 0.462,0.63224 0.717,1.38849 0.729,2.16711 0.047,0.4564 10e-4,0.91787 -0.134,1.35699 -0.135,0.43911 -0.357,0.84672 -0.653,1.20147 -0.297,0.35373 -0.661,0.64647 -1.072,0.86095 -0.412,0.21447 -0.863,0.3456 -1.326,0.38829 z m 0,-7.01365 c -0.672,-0.12401 -1.366,-0.0396 -1.988,0.23989 -0.621,0.27953 -1.141,0.74101 -1.486,1.32141 -0.346,0.58142 -0.501,1.25331 -0.445,1.92418 0.056,0.67189 0.321,1.30921 0.758,1.8266 0.438,0.51738 1.026,0.88941 1.686,1.06526 0.66,0.17483 1.359,0.14535 2.001,-0.0844 0.642,-0.23074 1.196,-0.65054 1.587,-1.2035 0.391,-0.55194 0.6,-1.2096 0.598,-1.88352 -0.028,-0.71864 -0.317,-1.40476 -0.815,-1.93129 -0.497,-0.52755 -1.17,-0.86095 -1.896,-0.94024 z"
     fill="#636263"
     id="path240"
     style="stroke-width:1.0082" />
  <g
     style="mix-blend-mode:screen"
     id="g246"
     transform="scale(1,1.0164706)">
    <g
       style="mix-blend-mode:screen"
       id="g244">
      <path
         d="m 145.559,178.075 c 0.324,0.005 0.644,0.077 0.936,0.213 0.293,0.137 0.551,0.333 0.758,0.576 -0.186,-0.352 -0.467,-0.649 -0.813,-0.857 -0.346,-0.209 -0.745,-0.321 -1.152,-0.326 -0.708,0.067 -1.36,0.4 -1.816,0.929 -0.457,0.528 -0.681,1.209 -0.624,1.896 -0.005,0.712 0.233,1.405 0.678,1.972 -0.276,-0.483 -0.416,-1.026 -0.407,-1.577 -0.057,-0.687 0.167,-1.369 0.624,-1.897 0.456,-0.529 1.108,-0.862 1.816,-0.929 z"
         fill="#acab9c"
         id="path242" />
    </g>
  </g>
</svg>
