<svg width="299" height="476" viewBox="0 0 299 476" fill="none" xmlns="http://www.w3.org/2000/svg">
<path d="M172.936 54.6736L116.217 55.9221L120.35 475.343H172.936V54.6736Z" fill="#9C5F38"/>
<path d="M172.936 476H120.351C120.27 475.992 120.192 475.968 120.122 475.931C120.051 475.893 119.988 475.842 119.938 475.781C119.888 475.72 119.85 475.65 119.828 475.575C119.806 475.499 119.799 475.421 119.808 475.343L115.675 55.9214C115.665 55.8437 115.672 55.7649 115.694 55.6897C115.716 55.6144 115.754 55.5442 115.804 55.4831C115.855 55.4219 115.917 55.3711 115.988 55.3336C116.059 55.296 116.137 55.2725 116.217 55.2643L172.936 54.0159H173.343C173.372 54.1679 173.372 54.3238 173.343 54.4758V475.014C173.478 475.737 173.275 476 172.936 476ZM120.96 474.686H172.326V55.3958L116.827 56.5785L120.96 474.686Z" fill="#5B3618"/>
<g style="mix-blend-mode:multiply" opacity="0.6">
<path d="M172.936 77.9346V54.6736L116.217 55.9221V78.9203C135.529 77.2118 154.3 80.4973 172.936 77.9346Z" fill="#9C5F38"/>
</g>
<g style="mix-blend-mode:multiply" opacity="0.6">
<path d="M172.936 191.282V113.811L163.245 123.076C155.598 129.165 148.585 135.965 142.306 143.38C142.206 143.516 142.074 143.627 141.92 143.703C141.767 143.779 141.597 143.819 141.425 143.819C141.253 143.819 141.083 143.779 140.93 143.703C140.777 143.627 140.645 143.516 140.544 143.38C135.801 137.401 131.735 130.699 126.991 124.588C123.843 119.917 120.284 115.52 116.352 111.446L117.03 180.638C127.059 193.779 137.359 206.921 147.253 220.063C155.859 210.207 164.397 200.679 172.936 191.282Z" fill="#9C5F38"/>
</g>
<g style="mix-blend-mode:multiply" opacity="0.5">
<g style="mix-blend-mode:multiply" opacity="0.5">
<path d="M151.386 460.099L145.897 201.928L133.225 342.217L128.55 342.48V175.644L124.416 122.945V80.563L132.751 77.9346L146.643 124.654L145.017 80.7601L167.718 77.9346L171.784 128.859L172.936 54.6736L116.217 55.9221L120.35 475.343H172.936V185.566L163.313 460.953L151.386 460.099Z" fill="#9C5F38"/>
</g>
</g>
<g style="mix-blend-mode:multiply" opacity="0.5">
<g style="mix-blend-mode:multiply" opacity="0.5">
<path d="M171.309 442.16C170.36 448.139 169.615 454.185 168.87 460.23C168.87 461.741 168.531 463.778 167.311 464.764C161.144 469.56 152.267 466.012 145.559 468.706C144.745 468.706 144.068 468.181 144 467.326C142.712 436.903 142.916 406.414 141.357 375.991C140.815 365.543 140.408 355.095 139.934 344.647C139.934 354.372 139.46 364.36 139.053 373.757C137.833 403.129 138.443 433.289 134.242 462.398C134.242 464.041 131.802 463.647 131.802 462.004C131.802 440.189 132.141 418.373 131.396 396.295C130.718 402.012 129.973 407.663 129.295 413.379C128.346 420.705 127.803 428.075 127.669 435.457C127.779 441.051 127.164 446.637 125.839 452.082C125.5 453.265 123.671 453.527 123.467 452.082C121.434 435.372 120.281 418.572 120.011 401.749C120.011 396.886 120.011 392.024 119.469 387.227L120.35 475.146H172.935V432.435C172.326 435.655 171.783 438.874 171.309 442.16Z" fill="#9C5F38"/>
</g>
</g>
<g style="mix-blend-mode:multiply">
<path d="M145.558 185.434C145.558 184.908 144.135 185.434 144.271 186.025C148.472 196.342 144.271 208.432 142.848 218.88C141.732 230.968 141.732 243.129 142.848 255.217C142.848 256.268 145.491 254.823 145.558 254.166C146.101 241.024 144.881 228.473 146.236 215.594C146.914 205.869 150.234 195.027 145.558 185.434Z" fill="#9C5F38"/>
</g>
<g style="mix-blend-mode:multiply">
<path d="M137.698 290.108C137.698 276.967 138.986 263.825 137.698 251.077C137.698 250.617 136.682 251.077 136.614 251.471C134.513 277.755 131.057 306.339 137.021 332.754C137.021 333.805 139.528 332.294 139.46 331.637C138.647 317.706 137.495 303.973 137.698 290.108Z" fill="#9C5F38"/>
</g>
<g style="mix-blend-mode:multiply">
<path d="M158.095 346.553C158.095 346.553 157.214 346.553 157.214 346.882C156.401 363.046 157.214 379.211 156.333 395.375C155.452 411.54 152.471 428.23 153.284 444.723C153.284 445.643 155.588 444.723 155.656 443.868C158.364 411.501 159.179 379.01 158.095 346.553Z" fill="#9C5F38"/>
</g>
<g style="mix-blend-mode:screen" opacity="0.5">
<path d="M165.617 92.9153C165.617 92.9153 166.769 300.425 162.296 355.752C154.571 303.185 159.789 132.078 165.617 92.9153Z" fill="#9C5F38"/>
</g>
<path d="M263.605 43.9624L33.4762 53.2931L33.544 73.9915L263.74 65.6464L263.605 43.9624Z" fill="#773E2A"/>
<path d="M33.8826 74.6483C33.8191 74.6775 33.7496 74.6926 33.6793 74.6926C33.609 74.6926 33.5395 74.6775 33.476 74.6483C33.4443 74.5755 33.428 74.4973 33.428 74.4183C33.428 74.3393 33.4443 74.2611 33.476 74.1883V53.2928C33.4069 53.173 33.383 53.0336 33.4082 52.8985L263.808 43.6335C263.808 43.6335 263.808 43.6335 264.215 43.6335C264.244 43.7855 264.244 43.9415 264.215 44.0935V65.7775C264.224 65.8553 264.217 65.934 264.195 66.0093C264.173 66.0845 264.136 66.1548 264.085 66.2159C264.035 66.277 263.972 66.3278 263.901 66.3654C263.831 66.4029 263.753 66.4265 263.673 66.4346L33.8826 74.6483ZM33.8826 53.9499V73.2684L262.927 65.0547V44.6849L33.8826 53.9499Z" fill="#4B2513"/>
<g style="mix-blend-mode:multiply" opacity="0.5">
<g style="mix-blend-mode:multiply" opacity="0.5">
<path d="M263.605 43.9624L33.4762 53.2931L33.544 73.9915L47.4357 73.4658L46.9614 72.743L43.3698 66.7635L127.601 63.1495L70.2724 61.9667L70.7468 57.7613L255.744 52.3732L254.728 57.1699L198.957 63.1495L250.12 64.9893L249.917 66.1721L263.74 65.6464L263.605 43.9624Z" fill="#773E2A"/>
</g>
</g>
<path d="M1.15186 5.39055V27.2717H9.62244L0.609741 30.2943L1.15186 45.8017L14.2304 46.3273L1.15186 49.1528L2.0328 57.8921L295.386 46.7873C296.267 46.7873 296.877 19.1895 296.877 19.1895L279.461 20.5036L295.996 16.4954L297.419 0.988037C297.419 0.988037 290.168 2.03938 276.276 2.69647C262.385 3.35357 79.7589 5.062 58.3452 4.3392C36.9316 3.6164 1.15186 5.39055 1.15186 5.39055Z" fill="#9C5F38"/>
<path d="M2.03306 58.5499C1.88073 58.5248 1.74022 58.4544 1.63096 58.3484C1.5217 58.2425 1.44909 58.1062 1.42318 57.9585L0.610007 49.2192C0.567638 49.0711 0.586386 48.9128 0.66228 48.7779C0.738174 48.643 0.865252 48.542 1.01659 48.4964L9.01283 46.6566L1.15212 46.328C1.07184 46.3198 0.994026 46.2963 0.923194 46.2588C0.852362 46.2212 0.789921 46.1704 0.739493 46.1093C0.689065 46.0482 0.651653 45.9779 0.629425 45.9027C0.607197 45.8274 0.600597 45.7487 0.610007 45.6709L0.00012462 30.295C-0.00242995 30.1595 0.0343354 30.0261 0.106226 29.9099C0.178117 29.7937 0.282239 29.6994 0.406713 29.6379L5.62459 27.7323H1.49095C1.41589 27.763 1.33524 27.7789 1.25377 27.7789C1.1723 27.7789 1.09165 27.763 1.01659 27.7323C0.976427 27.5815 0.976427 27.4232 1.01659 27.2724L0.610007 5.39121C0.600597 5.31347 0.607197 5.23469 0.629425 5.15944C0.651653 5.08419 0.689065 5.01397 0.739493 4.95284C0.789921 4.89172 0.852362 4.84091 0.923194 4.80337C0.994026 4.76582 1.07184 4.74228 1.15212 4.73412C1.15212 4.73412 26.1573 3.55136 46.6222 3.55136H58.3455C61.5982 3.55136 68.9168 3.55136 79.8947 3.55136C135.936 3.55136 264.824 2.23717 276.412 1.7115C289.965 1.05441 297.487 0.00306329 297.555 0.00306329C297.679 -0.00923244 297.804 0.0156734 297.913 0.0744217C298.022 0.13317 298.11 0.222935 298.165 0.331609C298.233 0.500623 298.233 0.688268 298.165 0.857282L296.674 16.3646C296.672 16.4906 296.632 16.6134 296.56 16.7182C296.488 16.8231 296.386 16.9056 296.267 16.956L287.593 19.0587L296.945 18.3359C297.02 18.3052 297.101 18.2894 297.182 18.2894C297.264 18.2894 297.344 18.3052 297.419 18.3359C297.459 18.4868 297.459 18.645 297.419 18.7959C296.809 47.0508 296.064 47.0508 295.386 47.0508L2.03306 58.5499ZM2.03306 49.6792L2.50742 57.2357L295.047 46.328C295.59 43.9625 296.064 29.5065 296.267 20.0444L279.462 21.2928C279.462 21.2928 278.919 21.2928 278.919 20.7672C278.877 20.6191 278.896 20.4608 278.972 20.3259C279.048 20.191 279.175 20.09 279.326 20.0444L295.454 16.1018L296.809 1.77721C294.641 1.77721 287.661 2.82856 276.48 3.35423C265.299 3.8799 136.139 5.19409 79.9624 5.19409C68.9168 5.19409 61.666 5.19409 58.3455 5.19409C55.025 5.19409 51.0947 5.19409 46.69 5.19409C27.8514 4.86554 5.48906 5.85118 1.76201 5.98259L2.03306 26.6153H9.826C10.1648 26.6153 10.3681 26.6153 10.4359 27.1409C10.4783 27.289 10.4595 27.4473 10.3836 27.5822C10.3077 27.7171 10.1806 27.8181 10.0293 27.8637L1.15212 30.7549L1.69424 45.1452H14.2307C14.3925 45.0755 14.5761 45.071 14.7413 45.1326C14.9066 45.1942 15.0398 45.3169 15.1116 45.4738C15.1835 45.6306 15.1882 45.8087 15.1247 45.9689C15.0611 46.1291 14.9346 46.2583 14.7728 46.328C14.7927 46.4058 14.7961 46.4866 14.7828 46.5657C14.7695 46.6448 14.7398 46.7204 14.6954 46.788C14.6511 46.8556 14.593 46.9138 14.5248 46.9589C14.4565 47.0041 14.3795 47.0354 14.2985 47.0508L2.03306 49.6792Z" fill="#5B3618"/>
<path d="M194.62 39.0996C175.879 42.2731 156.81 43.2219 137.833 41.9251C128.482 41.9251 119.13 41.2023 109.779 41.2023C101.782 41.2023 92.0243 43.305 84.3669 40.808C84.3669 40.808 83.6892 41.5308 84.3669 41.6622C91.9124 43.2497 99.6842 43.5609 107.339 42.5821C117.368 42.5821 127.668 43.1078 137.494 43.5021C156.554 45.2604 175.776 44.3085 194.552 40.6766C194.755 40.5452 195.433 38.9682 194.62 39.0996Z" fill="#5B3618"/>
<path d="M105.51 24.5791C94.9553 25.99 84.3151 26.7144 73.6606 26.7475C61.734 27.076 49.943 28.2588 38.0164 29.573C38.0164 29.573 37.4065 30.3615 38.0164 30.3615C49.1298 29.9672 60.1755 29.113 71.2211 28.7845C82.5786 28.9538 93.9261 28.0515 105.103 26.0904C105.646 25.959 106.255 24.5134 105.51 24.5791Z" fill="#5B3618"/>
<path d="M191.164 20.7017C183.71 21.4245 176.256 21.1617 168.802 21.4245C161.348 21.6873 152.877 23.79 144.881 24.25C144.881 24.25 144.204 25.1042 144.542 25.1042C151.793 25.1042 158.976 23.4615 166.159 22.9358C174.427 22.3444 182.626 22.9358 190.826 22.0159C191.3 21.9502 191.842 20.5703 191.164 20.7017Z" fill="#5B3618"/>
<path d="M257.031 35.88C243.59 35.001 230.088 35.7737 216.847 38.1798C216.847 38.1798 216.237 39.0341 216.847 38.9683C230.051 37.5331 243.342 36.9842 256.625 37.3256C256.896 37.3256 257.506 35.88 257.031 35.88Z" fill="#5B3618"/>
<path d="M267.264 23.2644C258.906 24.3042 250.467 24.5902 242.055 24.1186C242.055 24.1186 241.174 25.1043 241.649 25.17C250.008 26.1988 258.476 26.0438 266.789 24.71C267.264 24.71 267.806 23.2644 267.264 23.2644Z" fill="#5B3618"/>
<g style="mix-blend-mode:multiply" opacity="0.5">
<g style="mix-blend-mode:multiply" opacity="0.5">
<path d="M295.996 16.4954L297.419 0.988037C297.419 0.988037 290.168 2.03938 276.276 2.69647C268.28 3.09073 205.056 3.81353 148.472 4.20778V4.79917L282.579 3.02502L285.628 11.83L213.323 24.2491H276.48L274.989 37.3909L44.589 44.4875L41.9462 32.1342L123.264 21.555L11.4521 20.7008C11.4521 20.7008 11.4521 11.5672 11.4521 4.99629L1.15186 5.39055V27.2717H9.62244L0.609741 30.2943L1.15186 45.8017L14.2304 46.3273L1.15186 49.1528L2.0328 57.8921L295.386 46.7873C296.267 46.7873 296.877 19.1895 296.877 19.1895L279.461 20.5036L295.996 16.4954Z" fill="#9C5F38"/>
</g>
</g>
<g style="mix-blend-mode:screen" opacity="0.5">
<path d="M44.454 7.23157C44.454 7.23157 235.212 3.8147 268.077 3.8147C300.943 3.8147 114.523 17.6136 44.454 7.23157Z" fill="#9C5F38"/>
</g>
<g style="mix-blend-mode:screen" opacity="0.5">
<path d="M58.1426 68.7353L210.884 64.2671C210.884 64.2671 117.572 71.4294 58.1426 68.7353Z" fill="#773E2A"/>
</g>
<path d="M55.4317 46.3276L28.3258 12.7502L6.03125 36.7998L129.702 191.676L150.438 169.204C142.17 158.953 110.253 119.33 97.8524 104.48C83.6218 87.3958 55.4317 46.3276 55.4317 46.3276Z" fill="#9C5F38"/>
<path d="M129.702 192.333H129.296L5.625 37.2595C5.51484 37.13 5.45459 36.9674 5.45459 36.7995C5.45459 36.6316 5.51484 36.469 5.625 36.3395L27.7163 12.3557C27.7672 12.2998 27.8297 12.255 27.8998 12.2243C27.9699 12.1936 28.046 12.1777 28.1229 12.1777C28.1998 12.1777 28.2758 12.1936 28.3459 12.2243C28.416 12.255 28.4786 12.2998 28.5295 12.3557L55.9064 46.3273C55.9064 46.7873 84.232 87.527 98.2593 104.348C110.457 119.002 141.561 157.573 150.845 169.072C150.955 169.201 151.015 169.364 151.015 169.532C151.015 169.7 150.955 169.862 150.845 169.992L130.109 192.136C130.063 192.199 130.002 192.25 129.931 192.285C129.86 192.319 129.781 192.336 129.702 192.333ZM6.777 36.8652L129.77 190.887L149.625 169.269C139.935 157.244 109.44 119.527 97.4461 105.071C83.3511 88.0526 55.2965 47.313 55.0254 46.9187L27.9196 14.0641L6.777 36.8652Z" fill="#5B3618"/>
<path d="M47.0287 50.9931C43.5718 47.5229 39.4213 44.7728 34.831 42.9109C31.1113 40.7249 26.9524 39.3358 22.6334 38.8369C22.6334 38.8369 22.0913 39.2312 22.6334 39.2312C26.6272 39.9904 30.4412 41.4608 33.8823 43.568C38.3661 45.5747 42.5216 48.2093 46.2155 51.3874C46.2155 51.3874 47.4353 51.3874 47.0287 50.9931Z" fill="#5B3618"/>
<path d="M66.2737 73.992C58.3408 65.2328 47.8467 59.0219 36.1862 56.1848C36.1862 56.1848 35.5085 56.1848 36.1862 56.5791C47.3717 60.1422 57.4907 66.3001 65.6638 74.5177C65.6638 74.5177 66.6803 74.452 66.2737 73.992Z" fill="#5B3618"/>
<path d="M88.8395 102.181C83.6599 93.221 76.4547 85.5155 67.7647 79.6423C63.7285 77.6961 59.5074 76.1337 55.1604 74.9769C50.1459 73.2028 45.6056 70.1144 40.7266 68.406C40.7266 68.406 40.0489 68.406 40.32 68.7346C43.938 70.9524 47.7206 72.9072 51.6367 74.5827C55.8381 76.2254 60.1073 77.4082 64.2409 79.1166C74.5411 82.9934 80.6399 94.2954 88.0941 102.575C88.0941 102.903 89.1105 102.575 88.8395 102.181Z" fill="#5B3618"/>
<path d="M96.836 130.698C95.2109 122.765 92.4511 115.09 88.6365 107.897C88.6365 107.897 87.8233 107.897 87.9588 107.897C91.1224 115.282 93.7269 122.881 95.7518 130.633C95.8195 131.355 96.9038 131.158 96.836 130.698Z" fill="#5B3618"/>
<path d="M88.6363 122.748C82.0594 120.92 76.2179 117.182 71.8984 112.037C71.8984 112.037 71.153 112.037 71.2886 112.037C75.4017 117.562 81.3267 121.57 88.0942 123.405C88.6363 123.471 89.314 122.945 88.6363 122.748Z" fill="#5B3618"/>
<path d="M81.3175 105.072C82.0011 103.782 82.2255 102.31 81.9558 100.883C81.6862 99.4571 80.9376 98.1574 79.8267 97.1868C74.8121 91.2073 66.6803 83.6507 59.0907 83.1907C57.8032 82.4679 55.9058 81.548 54.4827 82.3365C53.0597 83.125 55.2281 86.6733 55.7702 87.659C58.617 91.9709 62.1115 95.8466 66.1382 99.1581C68.936 102.382 72.4919 104.906 76.5062 106.517C77.3673 106.739 78.2752 106.721 79.1261 106.465C79.977 106.209 80.7364 105.727 81.3175 105.072ZM72.8469 103.495C68.9744 100.556 65.286 97.3968 61.8013 94.0327C59.3265 91.5907 57.2473 88.7993 55.6347 85.7534C53.9406 82.4679 56.8545 83.3222 58.3453 83.6507C58.3453 83.6507 58.6841 83.6507 58.8197 83.6507C64.0173 84.9789 68.718 87.7138 72.3726 91.5358C74.1011 93.0805 75.7305 94.7263 77.2516 96.464C78.2341 97.3976 79.078 98.4591 79.7589 99.618C79.7589 100.275 80.2333 100.998 80.5043 101.655C77.726 105.466 75.0832 106.058 72.5759 103.495H72.8469Z" fill="#5B3618"/>
<path d="M75.2192 98.8959C75.2192 97.1217 73.254 95.5447 72.1698 94.6248C70.1511 93.2355 68.021 92.005 65.7999 90.9451C65.7999 90.9451 65.1223 90.9451 65.3933 91.2736C67.569 92.351 69.6737 93.5579 71.6954 94.8876C72.9559 95.7702 73.8651 97.0462 74.2705 98.5016C75.0837 101.524 70.679 99.3558 70.0013 98.8959C68.4959 97.8302 67.17 96.5445 66.071 95.0847C66.8841 94.4277 67.494 94.4277 68.0361 95.0847L69.798 96.3989C70.6968 97.0774 71.6748 97.6508 72.7119 98.1074C72.7119 98.1074 73.7284 98.1074 73.3895 97.6474C71.6723 96.261 69.8612 94.9878 67.9684 93.8363C67.2907 93.5077 65.9354 93.0478 65.19 93.8363C64.4446 94.6248 68.7816 99.2244 69.798 99.8815C70.8145 100.539 75.287 102.181 75.2192 98.8959Z" fill="#5B3618"/>
<path d="M134.581 169.599C131.72 165.056 127.939 161.122 123.468 158.034C123.468 158.034 122.722 158.034 122.926 158.034C127.121 161.471 130.834 165.425 133.971 169.796C133.971 169.796 134.717 169.927 134.581 169.599Z" fill="#5B3618"/>
<g style="mix-blend-mode:multiply" opacity="0.6">
<path d="M150.438 169.204C142.17 158.953 110.253 119.33 97.8524 104.48C83.6218 87.3958 55.4317 46.3276 55.4317 46.3276L28.3258 12.7502L6.03125 36.7998L45.8769 86.673L10.707 35.7484L18.7032 26.6149L75.3545 94.8209L25.8863 27.4691L31.7141 23.3294C31.7141 23.3294 60.9884 58.6152 77.8618 82.9933C94.7352 107.371 138.85 159.807 138.85 159.807L133.564 165.064L94.3286 121.893L132.819 170.058L123.671 177.286L90.466 142.526L129.702 191.676L150.438 169.204Z" fill="#9C5F38"/>
</g>
<g style="mix-blend-mode:screen" opacity="0.5">
<path d="M55.9737 57.8271C55.9737 57.8271 102.935 118.608 120.892 141.146L118.249 144.037L88.0941 113.548L120.892 159.545L114.793 163.685C114.793 163.685 52.2466 92.3244 27.106 52.8989L31.7817 47.4451C31.7817 47.4451 64.7831 85.1621 85.5191 107.569C63.7666 77.2113 52.8565 58.9442 52.8565 58.9442L55.9737 57.8271Z" fill="#9C5F38"/>
</g>
<path d="M223.624 46.9198L252.762 10.3198L279.462 39.7575L147.456 208.499L122.383 180.835C131.193 169.664 165.346 126.559 178.56 110.461C193.807 91.8649 223.624 46.9198 223.624 46.9198Z" fill="#9C5F38"/>
<path d="M147.456 209.155H147.05L121.977 181.294C121.878 181.16 121.824 180.999 121.824 180.834C121.824 180.669 121.878 180.508 121.977 180.374C131.803 167.89 165.007 125.967 178.154 110C193.198 91.6671 222.811 46.9848 223.082 46.3278L252.288 9.66206H252.695C252.758 9.63284 252.828 9.61768 252.898 9.61768C252.969 9.61768 253.038 9.63284 253.102 9.66206L279.869 39.2969C279.965 39.4442 280.016 39.6152 280.016 39.7897C280.016 39.9642 279.965 40.1351 279.869 40.2825L147.863 208.958C147.731 209.003 147.588 209.003 147.456 208.958V209.155ZM123.197 180.769L147.389 207.578L278.649 39.7568L252.763 11.3048L223.963 47.3791C223.963 47.7734 194.078 92.5213 178.967 110.92C166.024 126.69 133.497 167.758 123.197 180.769Z" fill="#5B3618"/>
<path d="M233.517 52.8988C237.307 49.1374 241.947 46.2807 247.07 44.5537C251.245 42.3563 255.878 41.0986 260.623 40.874C260.623 40.874 261.233 41.334 260.623 41.334C256.077 41.8247 251.677 43.1872 247.68 45.3422C242.725 47.2772 238.143 50.0097 234.127 53.4245C234.127 53.4245 233.11 53.2273 233.517 52.8988Z" fill="#5B3618"/>
<path d="M212.849 77.8031C221.492 68.1974 233.251 61.7316 246.189 59.4702C246.189 59.4702 247.002 59.8645 246.528 59.9302C234.161 63.0528 222.897 69.3654 213.933 78.1973C213.594 78.723 212.375 78.263 212.849 77.8031Z" fill="#5B3618"/>
<path d="M188.793 108.488C194.026 98.6735 201.744 90.3079 211.223 84.176C215.795 82.2482 220.565 80.7945 225.453 79.8392C231.01 78.2622 235.957 75.0425 241.513 73.2683C241.513 73.2683 242.327 73.2683 241.92 73.7283C237.911 75.9841 233.718 77.918 229.384 79.5107C224.708 81.0877 219.897 82.0733 215.221 83.7161C203.972 87.5272 197.67 100.143 189.945 109.08C189.741 109.408 188.454 109.014 188.793 108.488Z" fill="#5B3618"/>
<path d="M181.406 140.818C182.697 131.923 185.346 123.264 189.267 115.126C189.267 115.126 190.283 115.126 190.148 115.454C187.044 123.795 184.642 132.365 182.965 141.081C182.558 141.672 181.271 141.344 181.406 140.818Z" fill="#5B3618"/>
<path d="M190.216 132.276C197.511 130.857 204.059 126.996 208.715 121.368C208.715 121.368 209.596 121.368 209.461 121.368C204.973 127.367 198.275 131.462 190.758 132.801C190.283 133.13 189.741 132.473 190.216 132.276Z" fill="#5B3618"/>
<path d="M203.294 114.666C207.754 113.183 211.698 110.52 214.679 106.978C219.116 103.475 222.919 99.2778 225.928 94.5588C226.47 93.5074 229.248 89.8277 227.08 88.5135C226.22 88.1632 225.283 88.0336 224.357 88.1372C223.431 88.2408 222.548 88.5741 221.794 89.1049C213.188 89.1049 204.311 97.0557 198.957 103.495C197.765 104.657 196.994 106.164 196.762 107.788C196.53 109.411 196.848 111.065 197.67 112.497C198.322 113.313 199.188 113.944 200.177 114.325C201.166 114.706 202.242 114.824 203.294 114.666ZM198.076 108.555C198.076 107.766 198.551 106.978 198.754 106.189C199.464 104.917 200.379 103.764 201.465 102.772C203.1 100.926 204.842 99.1705 206.682 97.5157C210.71 93.385 215.971 90.5816 221.726 89.4992C221.902 89.5544 222.092 89.5544 222.268 89.4992C224.03 89.4992 227.283 88.5135 225.521 92.1932C223.981 95.4934 221.872 98.5153 219.287 101.13C215.525 104.763 211.494 108.123 207.225 111.183C204.717 114.14 201.6 113.22 198.28 108.555H198.076Z" fill="#5B3618"/>
<path d="M204.107 105.861C204.107 103.824 206.14 102.116 207.292 101.13C209.576 99.7108 211.979 98.4799 214.475 97.4502C214.475 97.4502 215.153 97.4502 214.882 97.8445C212.554 98.9476 210.292 100.176 208.105 101.524C207.395 101.962 206.787 102.538 206.32 103.217C205.853 103.896 205.538 104.663 205.395 105.467C204.649 108.884 209.528 106.715 210.274 106.255C211.938 105.157 213.384 103.777 214.543 102.181C213.594 101.393 212.849 101.261 212.239 102.181L210.409 103.561C209.386 104.271 208.269 104.846 207.089 105.27C207.089 105.27 205.937 105.27 206.343 104.678C208.211 103.201 210.207 101.882 212.307 100.736C212.774 100.419 213.329 100.249 213.899 100.249C214.469 100.249 215.025 100.419 215.492 100.736C217.457 102.838 211.697 106.649 210.613 107.307C209.528 107.964 204.243 109.606 204.107 105.861Z" fill="#5B3618"/>
<path d="M140.544 182.609C143.446 177.5 147.557 173.131 152.539 169.862C152.539 169.862 153.42 169.862 153.149 170.19C148.559 173.859 144.542 178.153 141.222 182.938C141.222 182.938 140.409 182.938 140.544 182.609Z" fill="#5B3618"/>
<g style="mix-blend-mode:multiply" opacity="0.6">
<path d="M122.383 180.835C131.193 169.664 165.346 126.559 178.56 110.461C193.807 91.8649 223.624 46.9198 223.624 46.9198L252.762 10.3198L279.462 39.7575L237.177 94.099L274.312 38.2462L264.283 27.0757L203.769 101.196L256.219 27.4042L249.442 22.1475C249.442 22.1475 218.135 60.4559 200.245 87.2652C182.355 114.075 134.649 171.176 134.649 171.176L141.019 177.747L183.643 131.093L142.577 183.661L153.487 192.794L189.335 155.34L147.456 208.893L122.383 180.835Z" fill="#9C5F38"/>
</g>
<g style="mix-blend-mode:screen" opacity="0.5">
<path d="M223.624 59.9303C223.624 59.9303 173.681 126.362 154.436 150.937L157.689 154.42L190.69 121.565L155.859 171.833L163.042 177.155C163.042 177.155 229.858 100.013 256.557 56.3163L250.933 49.7454C250.933 49.7454 215.492 90.6164 193.062 114.797C216.17 81.5486 227.486 61.3102 227.486 61.3102L223.624 59.9303Z" fill="#9C5F38"/>
</g>
<g style="mix-blend-mode:multiply">
<path d="M257.506 36.2743C257.652 36.9532 257.64 37.6553 257.471 38.3293C257.302 39.0033 256.981 39.6323 256.53 40.1706C256.079 40.7088 255.509 41.1428 254.863 41.4408C254.218 41.7389 253.511 41.8936 252.796 41.8936C252.081 41.8936 251.374 41.7389 250.728 41.4408C250.083 41.1428 249.513 40.7088 249.062 40.1706C248.611 39.6323 248.289 39.0033 248.121 38.3293C247.952 37.6553 247.94 36.9532 248.086 36.2743C247.94 35.5953 247.952 34.8933 248.121 34.2193C248.289 33.5453 248.611 32.9163 249.062 32.378C249.513 31.8397 250.083 31.4058 250.728 31.1077C251.374 30.8097 252.081 30.655 252.796 30.655C253.511 30.655 254.218 30.8097 254.863 31.1077C255.509 31.4058 256.079 31.8397 256.53 32.378C256.981 32.9163 257.302 33.5453 257.471 34.2193C257.64 34.8933 257.652 35.5953 257.506 36.2743Z" fill="#773E2A"/>
</g>
<path d="M256.964 35.0262C257.11 35.7052 257.098 36.4072 256.929 37.0812C256.761 37.7552 256.439 38.3843 255.988 38.9225C255.537 39.4608 254.967 39.8947 254.322 40.1928C253.676 40.4909 252.969 40.6455 252.254 40.6455C251.539 40.6455 250.833 40.4909 250.187 40.1928C249.541 39.8947 248.972 39.4608 248.52 38.9225C248.069 38.3843 247.748 37.7552 247.579 37.0812C247.41 36.4072 247.398 35.7052 247.544 35.0262C247.398 34.3473 247.41 33.6453 247.579 32.9713C247.748 32.2972 248.069 31.6682 248.52 31.13C248.972 30.5917 249.541 30.1577 250.187 29.8597C250.833 29.5616 251.539 29.407 252.254 29.407C252.969 29.407 253.676 29.5616 254.322 29.8597C254.967 30.1577 255.537 30.5917 255.988 31.13C256.439 31.6682 256.761 32.2972 256.929 32.9713C257.098 33.6453 257.11 34.3473 256.964 35.0262Z" fill="#ACAB9C"/>
<path d="M252.22 40.808C250.769 40.6744 249.43 39.9934 248.492 38.9118C247.554 37.8302 247.092 36.4345 247.205 35.0256C247.055 34.3007 247.072 33.5523 247.255 32.8346C247.439 32.1168 247.785 31.4477 248.268 30.8754C248.751 30.3031 249.359 29.842 250.049 29.5253C250.738 29.2087 251.491 29.0444 252.254 29.0444C253.016 29.0444 253.77 29.2087 254.459 29.5253C255.148 29.842 255.756 30.3031 256.239 30.8754C256.722 31.4477 257.068 32.1168 257.252 32.8346C257.436 33.5523 257.453 34.3007 257.302 35.0256C257.415 36.445 256.943 37.8498 255.991 38.9332C255.039 40.0167 253.683 40.6907 252.22 40.808ZM252.22 29.8346C250.931 29.9675 249.747 30.5859 248.923 31.5568C248.099 32.5276 247.701 33.7732 247.815 35.0256C247.673 35.6677 247.68 36.3326 247.837 36.9715C247.994 37.6104 248.296 38.2072 248.722 38.7182C249.147 39.2291 249.685 39.6413 250.296 39.9244C250.908 40.2075 251.576 40.3545 252.254 40.3545C252.931 40.3545 253.6 40.2075 254.211 39.9244C254.822 39.6413 255.36 39.2291 255.786 38.7182C256.211 38.2072 256.514 37.6104 256.671 36.9715C256.827 36.3326 256.835 35.6677 256.692 35.0256C256.805 33.7629 256.398 32.5082 255.56 31.5355C254.722 30.5629 253.521 29.9514 252.22 29.8346Z" fill="#636263"/>
<g style="mix-blend-mode:screen">
<g style="mix-blend-mode:screen">
<path d="M252.695 30.6896C253.282 30.6943 253.861 30.8266 254.389 31.0767C254.916 31.3269 255.38 31.6886 255.744 32.1352C255.403 31.5074 254.898 30.9771 254.28 30.5967C253.662 30.2164 252.952 29.9992 252.22 29.9668C250.986 30.0836 249.847 30.665 249.049 31.5863C248.251 32.5075 247.857 33.6953 247.951 34.895C247.933 36.1884 248.389 37.446 249.239 38.4433C248.74 37.5809 248.483 36.6066 248.493 35.6178C248.398 34.4284 248.783 33.2495 249.567 32.33C250.35 31.4105 251.472 30.8223 252.695 30.6896Z" fill="#ACAB9C"/>
</g>
</g>
<g style="mix-blend-mode:multiply">
<path d="M255.202 35.9465C255.289 36.3036 255.292 36.6753 255.211 37.0336C255.129 37.3919 254.964 37.7277 254.73 38.0156C254.495 38.3035 254.196 38.5362 253.855 38.6961C253.515 38.8561 253.141 38.9392 252.763 38.9392C252.384 38.9392 252.01 38.8561 251.67 38.6961C251.329 38.5362 251.03 38.3035 250.795 38.0156C250.561 37.7277 250.396 37.3919 250.314 37.0336C250.233 36.6753 250.236 36.3036 250.323 35.9465C250.236 35.5894 250.233 35.2178 250.314 34.8594C250.396 34.5011 250.561 34.1654 250.795 33.8775C251.03 33.5895 251.329 33.3569 251.67 33.1969C252.01 33.0369 252.384 32.9539 252.763 32.9539C253.141 32.9539 253.515 33.0369 253.855 33.1969C254.196 33.3569 254.495 33.5895 254.73 33.8775C254.964 34.1654 255.129 34.5011 255.211 34.8594C255.292 35.2178 255.289 35.5894 255.202 35.9465Z" fill="#ACAB9C"/>
</g>
<path d="M254.66 35.0258C254.719 35.3649 254.7 35.7124 254.607 36.044C254.513 36.3757 254.346 36.6835 254.117 36.9461C253.888 37.2087 253.602 37.4197 253.281 37.5644C252.959 37.7092 252.609 37.7842 252.254 37.7842C251.899 37.7842 251.549 37.7092 251.227 37.5644C250.906 37.4197 250.62 37.2087 250.391 36.9461C250.162 36.6835 249.995 36.3757 249.901 36.044C249.807 35.7124 249.789 35.3649 249.848 35.0258C249.789 34.6866 249.807 34.3391 249.901 34.0075C249.995 33.6758 250.162 33.368 250.391 33.1054C250.62 32.8428 250.906 32.6318 251.227 32.4871C251.549 32.3423 251.899 32.2673 252.254 32.2673C252.609 32.2673 252.959 32.3423 253.281 32.4871C253.602 32.6318 253.888 32.8428 254.117 33.1054C254.346 33.368 254.513 33.6758 254.607 34.0075C254.7 34.3391 254.719 34.6866 254.66 35.0258Z" fill="#ACAB9C"/>
<path d="M252.221 38.1146C251.453 38.0316 250.749 37.6634 250.257 37.0875C249.764 36.5115 249.52 35.7727 249.578 35.0263C249.516 34.6508 249.539 34.2669 249.645 33.9008C249.751 33.5348 249.938 33.1955 250.192 32.9062C250.447 32.617 250.763 32.3847 251.119 32.2254C251.475 32.0661 251.862 31.9836 252.254 31.9836C252.646 31.9836 253.034 32.0661 253.39 32.2254C253.746 32.3847 254.062 32.617 254.317 32.9062C254.571 33.1955 254.758 33.5348 254.864 33.9008C254.97 34.2669 254.993 34.6508 254.931 35.0263C254.988 35.783 254.735 36.5308 254.228 37.1086C253.721 37.6863 253 38.0476 252.221 38.1146ZM252.221 32.4636C251.585 32.5301 251.001 32.8358 250.596 33.3151C250.19 33.7943 249.995 34.4088 250.052 35.0263C250.012 35.6402 250.214 36.246 250.616 36.7215C251.018 37.1971 251.592 37.507 252.221 37.5889C252.541 37.5641 252.854 37.478 253.14 37.3355C253.426 37.1931 253.681 36.9971 253.889 36.7589C254.097 36.5207 254.254 36.245 254.351 35.9476C254.449 35.6503 254.485 35.3371 254.457 35.0263C254.485 34.7154 254.449 34.4023 254.351 34.1049C254.254 33.8076 254.097 33.5319 253.889 33.2937C253.681 33.0555 253.426 32.8595 253.14 32.717C252.854 32.5746 252.541 32.4885 252.221 32.4636Z" fill="#636263"/>
<g style="mix-blend-mode:screen">
<g style="mix-blend-mode:screen">
<path d="M252.491 33.1862C252.763 33.1905 253.031 33.2513 253.276 33.3647C253.522 33.4781 253.739 33.6413 253.914 33.8433C253.758 33.5537 253.525 33.3098 253.239 33.1366C252.953 32.9633 252.625 32.8671 252.288 32.8577C251.707 32.9079 251.169 33.1766 250.789 33.6063C250.409 34.036 250.217 34.5927 250.255 35.1575C250.259 35.7565 250.474 36.336 250.865 36.8002C250.641 36.3963 250.525 35.9446 250.526 35.486C250.487 34.9315 250.669 34.3837 251.035 33.9557C251.401 33.5278 251.922 33.2523 252.491 33.1862Z" fill="#ACAB9C"/>
</g>
</g>
<g style="mix-blend-mode:multiply">
<path d="M35.1021 36.2742C35.2155 37.6135 34.7819 38.9425 33.8947 39.9749C33.0075 41.0073 31.7376 41.6604 30.3585 41.7938C28.9864 41.6445 27.7268 40.9869 26.8429 39.9583C25.9589 38.9298 25.519 37.6098 25.615 36.2742C25.519 34.9386 25.9589 33.6186 26.8429 32.5901C27.7268 31.5615 28.9864 30.9039 30.3585 30.7546C31.7376 30.888 33.0075 31.5411 33.8947 32.5735C34.7819 33.6059 35.2155 34.9349 35.1021 36.2742Z" fill="#773E2A"/>
</g>
<path d="M34.4922 35.0262C34.6049 36.3585 34.1693 37.6799 33.2805 38.7018C32.3917 39.7237 31.122 40.363 29.7487 40.48C28.3823 40.3466 27.123 39.7028 26.2377 38.6848C25.3523 37.6668 24.9102 36.3546 25.0052 35.0262C24.8917 33.6868 25.3253 32.3578 26.2125 31.3255C27.0998 30.2931 28.3696 29.6399 29.7487 29.5066C30.435 29.5643 31.1027 29.7532 31.7133 30.0624C32.3239 30.3717 32.8653 30.795 33.3063 31.3082C33.7473 31.8213 34.0791 32.4141 34.2826 33.0522C34.4862 33.6903 34.5574 34.3612 34.4922 35.0262Z" fill="#ACAB9C"/>
<path d="M29.7486 40.8082C28.2977 40.6746 26.959 39.9937 26.021 38.912C25.083 37.8304 24.6208 36.4348 24.734 35.0258C24.62 33.6098 25.0801 32.2065 26.0166 31.1144C26.9531 30.0222 28.292 29.3274 29.7486 29.1777C31.2052 29.3274 32.5441 30.0222 33.4806 31.1144C34.4171 32.2065 34.8772 33.6098 34.7632 35.0258C34.8763 36.4348 34.4141 37.8304 33.4761 38.912C32.5381 39.9937 31.1995 40.6746 29.7486 40.8082ZM29.7486 29.8348C28.4593 29.9677 27.2754 30.5862 26.4516 31.557C25.6278 32.5278 25.2301 33.7735 25.3439 35.0258C25.2308 36.2711 25.6306 37.5092 26.4559 38.4695C27.2813 39.4299 28.465 40.0344 29.7486 40.1512C30.3901 40.1015 31.0152 39.9292 31.5878 39.6443C32.1604 39.3594 32.6692 38.9675 33.0849 38.4911C33.5006 38.0147 33.815 37.4633 34.01 36.8685C34.205 36.2738 34.2767 35.6476 34.2211 35.0258C34.3341 33.7632 33.9271 32.5084 33.0891 31.5358C32.2511 30.5631 31.0501 29.9516 29.7486 29.8348Z" fill="#636263"/>
<g style="mix-blend-mode:screen">
<g style="mix-blend-mode:screen">
<path d="M30.2229 30.6896C30.8006 30.6946 31.3695 30.8274 31.8862 31.0779C32.4029 31.3284 32.8538 31.6901 33.2045 32.1352C32.8854 31.5038 32.3952 30.9685 31.7864 30.5866C31.1777 30.2046 30.4732 29.9904 29.7485 29.9668C28.5136 30.0836 27.375 30.665 26.577 31.5863C25.7789 32.5075 25.3849 33.6953 25.4794 34.895C25.5542 36.2312 26.133 37.494 27.1057 38.4433C26.5529 37.6 26.2699 36.6168 26.2925 35.6178C26.1907 34.468 26.5382 33.3231 27.2663 32.4102C27.9943 31.4974 29.0496 30.8832 30.2229 30.6896Z" fill="#ACAB9C"/>
</g>
</g>
<g style="mix-blend-mode:multiply">
<path d="M32.6626 35.9463C32.7192 36.6334 32.4953 37.3145 32.039 37.843C31.5827 38.3715 30.9305 38.7051 30.223 38.7718C29.5278 38.6892 28.8926 38.3489 28.4504 37.8222C28.0083 37.2954 27.7935 36.6232 27.8513 35.9463C27.8116 35.2803 28.0346 34.6247 28.475 34.1122C28.9154 33.5997 29.5403 33.2688 30.223 33.1865C30.918 33.2532 31.5596 33.5774 32.0141 34.0916C32.4686 34.6057 32.7009 35.2702 32.6626 35.9463Z" fill="#ACAB9C"/>
</g>
<path d="M32.1886 35.0257C32.2453 35.7128 32.0213 36.3939 31.565 36.9224C31.1087 37.4509 30.4566 37.7844 29.7491 37.8512C29.3841 37.8343 29.0261 37.7478 28.6956 37.5966C28.3652 37.4455 28.0687 37.2325 27.8232 36.9701C27.5777 36.7076 27.388 36.4008 27.265 36.0671C27.142 35.7335 27.088 35.3796 27.1063 35.0257C27.0496 34.3386 27.2736 33.6575 27.7299 33.129C28.1862 32.6005 28.8383 32.2669 29.5458 32.2002C29.9138 32.2081 30.2763 32.2886 30.6111 32.4368C30.946 32.585 31.2462 32.7978 31.4935 33.0621C31.7408 33.3265 31.93 33.637 32.0495 33.9745C32.169 34.3121 32.2163 34.6698 32.1886 35.0257Z" fill="#ACAB9C"/>
<path d="M29.7487 38.1137C28.9816 38.0307 28.2776 37.6625 27.7847 37.0865C27.2919 36.5106 27.0485 35.7717 27.1059 35.0253C27.0485 34.279 27.2919 33.5401 27.7847 32.9641C28.2776 32.3882 28.9816 32.02 29.7487 31.937C30.132 31.97 30.5048 32.0762 30.8455 32.2496C31.1862 32.423 31.4881 32.6601 31.7338 32.9472C31.9795 33.2343 32.1641 33.5658 32.277 33.9225C32.3899 34.2792 32.4289 34.654 32.3916 35.0253C32.4289 35.3967 32.3899 35.7715 32.277 36.1282C32.1641 36.4849 31.9795 36.8164 31.7338 37.1035C31.4881 37.3906 31.1862 37.6277 30.8455 37.8011C30.5048 37.9745 30.132 38.0807 29.7487 38.1137ZM29.7487 32.4627C29.1131 32.5291 28.5297 32.8348 28.1242 33.3141C27.7186 33.7934 27.5233 34.4079 27.5803 35.0253C27.5233 35.6428 27.7186 36.2573 28.1242 36.7366C28.5297 37.2158 29.1131 37.5216 29.7487 37.588C30.3898 37.5215 30.9798 37.2182 31.3962 36.741C31.8126 36.2638 32.0235 35.6494 31.985 35.0253C32.0128 34.7145 31.9769 34.4014 31.8795 34.104C31.782 33.8066 31.6247 33.5309 31.4169 33.2927C31.209 33.0545 30.9546 32.8585 30.6683 32.7161C30.382 32.5736 30.0695 32.4875 29.7487 32.4627Z" fill="#636263"/>
<g style="mix-blend-mode:screen">
<g style="mix-blend-mode:screen">
<path d="M30.0198 33.1862C30.2902 33.1984 30.5553 33.2628 30.7997 33.3756C31.0441 33.4884 31.2627 33.6474 31.4429 33.8433C31.2655 33.5569 31.0182 33.3172 30.7228 33.1453C30.4273 32.9734 30.0928 32.8746 29.7488 32.8577C29.1796 32.9238 28.6584 33.1992 28.2927 33.6272C27.927 34.0552 27.7448 34.603 27.7836 35.1575C27.7563 35.7615 27.9754 36.3517 28.3935 36.8002C28.1697 36.3963 28.0532 35.9446 28.0546 35.486C28.0158 34.9315 28.1981 34.3837 28.5638 33.9557C28.9295 33.5278 29.4507 33.2523 30.0198 33.1862Z" fill="#ACAB9C"/>
</g>
</g>
<g style="mix-blend-mode:multiply">
<path d="M150.641 61.1124C150.788 61.7914 150.776 62.4934 150.607 63.1674C150.438 63.8414 150.117 64.4705 149.665 65.0087C149.214 65.547 148.645 65.9809 147.999 66.279C147.353 66.577 146.647 66.7317 145.932 66.7317C145.216 66.7317 144.51 66.577 143.864 66.279C143.218 65.9809 142.649 65.547 142.198 65.0087C141.747 64.4705 141.425 63.8414 141.256 63.1674C141.087 62.4934 141.076 61.7914 141.222 61.1124C141.076 60.4335 141.087 59.7314 141.256 59.0574C141.425 58.3834 141.747 57.7544 142.198 57.2161C142.649 56.6779 143.218 56.2439 143.864 55.9459C144.51 55.6478 145.216 55.4932 145.932 55.4932C146.647 55.4932 147.353 55.6478 147.999 55.9459C148.645 56.2439 149.214 56.6779 149.665 57.2161C150.117 57.7544 150.438 58.3834 150.607 59.0574C150.776 59.7314 150.788 60.4335 150.641 61.1124Z" fill="#773E2A"/>
</g>
<path d="M150.099 59.8641C150.216 60.5332 150.181 61.219 149.996 61.8737C149.812 62.5284 149.482 63.1362 149.031 63.6547C148.579 64.1732 148.016 64.5899 147.381 64.8757C146.747 65.1616 146.055 65.3097 145.355 65.3097C144.655 65.3097 143.964 65.1616 143.329 64.8757C142.694 64.5899 142.131 64.1732 141.68 63.6547C141.228 63.1362 140.898 62.5284 140.714 61.8737C140.529 61.219 140.495 60.5332 140.612 59.8641C140.495 59.1949 140.529 58.5091 140.714 57.8544C140.898 57.1997 141.228 56.5919 141.68 56.0734C142.131 55.5549 142.694 55.1382 143.329 54.8524C143.964 54.5665 144.655 54.4185 145.355 54.4185C146.055 54.4185 146.747 54.5665 147.381 54.8524C148.016 55.1382 148.579 55.5549 149.031 56.0734C149.482 56.5919 149.812 57.1997 149.996 57.8544C150.181 58.5091 150.216 59.1949 150.099 59.8641Z" fill="#ACAB9C"/>
<path d="M145.356 66.041C143.887 65.9073 142.531 65.2194 141.58 64.1254C140.63 63.0315 140.16 61.6192 140.273 60.1929C140.123 59.4679 140.14 58.7195 140.323 58.0018C140.507 57.2841 140.853 56.6149 141.336 56.0426C141.819 55.4703 142.427 55.0092 143.117 54.6926C143.806 54.3759 144.559 54.2117 145.322 54.2117C146.084 54.2117 146.838 54.3759 147.527 54.6926C148.216 55.0092 148.824 55.4703 149.307 56.0426C149.79 56.6149 150.136 57.2841 150.32 58.0018C150.504 58.7195 150.521 59.4679 150.37 60.1929C150.484 61.6089 150.024 63.0122 149.088 64.1043C148.151 65.1965 146.812 65.8913 145.356 66.041ZM145.356 55.0018C144.054 55.1186 142.853 55.7301 142.015 56.7028C141.177 57.6754 140.77 58.9302 140.883 60.1929C140.741 60.8349 140.748 61.4998 140.905 62.1387C141.062 62.7777 141.364 63.3745 141.79 63.8854C142.215 64.3964 142.753 64.8085 143.364 65.0916C143.976 65.3748 144.644 65.5217 145.322 65.5217C145.999 65.5217 146.668 65.3748 147.279 65.0916C147.89 64.8085 148.428 64.3964 148.854 63.8854C149.279 63.3745 149.582 62.7777 149.739 62.1387C149.895 61.4998 149.903 60.8349 149.76 60.1929C149.865 59.5473 149.833 58.8877 149.665 58.2547C149.498 57.6217 149.198 57.0285 148.786 56.5117C148.373 55.9948 147.856 55.5651 147.267 55.249C146.677 54.9329 146.026 54.737 145.356 54.6733V55.0018Z" fill="#636263"/>
<g style="mix-blend-mode:screen">
<g style="mix-blend-mode:screen">
<path d="M145.762 55.5279C146.347 55.5459 146.921 55.684 147.447 55.9332C147.973 56.1824 148.438 56.537 148.812 56.9735C148.467 56.3537 147.959 55.8331 147.341 55.4639C146.722 55.0948 146.014 54.8902 145.288 54.8708C144.673 54.9204 144.074 55.0875 143.526 55.3625C142.978 55.6375 142.492 56.0149 142.095 56.473C141.698 56.9311 141.399 57.4609 141.214 58.0317C141.029 58.6025 140.963 59.2032 141.019 59.799C141.011 61.0709 141.467 62.3045 142.306 63.2816C141.807 62.4193 141.55 61.445 141.561 60.4561C141.465 59.2667 141.85 58.0879 142.634 57.1684C143.418 56.2489 144.54 55.6607 145.762 55.5279Z" fill="#ACAB9C"/>
</g>
</g>
<g style="mix-blend-mode:multiply">
<path d="M148.269 60.7832C148.191 61.2425 147.979 61.6704 147.658 62.0162C147.336 62.3619 146.92 62.611 146.457 62.7338C145.994 62.8566 145.504 62.848 145.046 62.709C144.588 62.5699 144.181 62.3063 143.873 61.9494C143.564 61.5926 143.368 61.1575 143.308 60.6958C143.247 60.2341 143.325 59.7652 143.531 59.3449C143.737 58.9246 144.063 58.5704 144.47 58.3245C144.878 58.0786 145.35 57.9513 145.83 57.9578C146.537 58.0245 147.189 58.358 147.645 58.8865C148.102 59.415 148.326 60.0962 148.269 60.7832Z" fill="#ACAB9C"/>
</g>
<path d="M147.727 59.8639C147.637 60.3044 147.42 60.7109 147.1 61.0359C146.781 61.361 146.372 61.5911 145.923 61.6995C145.474 61.8078 145.002 61.7899 144.562 61.6479C144.123 61.5058 143.735 61.2454 143.442 60.8972C143.15 60.5489 142.966 60.1272 142.912 59.6812C142.857 59.2353 142.935 58.7836 143.136 58.3789C143.336 57.9742 143.652 57.6332 144.045 57.3959C144.438 57.1585 144.892 57.0345 145.355 57.0384C146.051 57.121 146.686 57.4613 147.128 57.9881C147.57 58.5148 147.785 59.1871 147.727 59.8639Z" fill="#ACAB9C"/>
<path d="M145.355 62.9521C144.697 63.0739 144.016 62.9957 143.406 62.7282C142.796 62.4607 142.285 62.017 141.945 61.4576C141.604 60.8983 141.45 60.2506 141.503 59.6031C141.556 58.9556 141.814 58.3398 142.242 57.8399C142.67 57.34 143.247 56.9804 143.893 56.8102C144.54 56.6399 145.224 56.6674 145.854 56.8889C146.484 57.1103 147.028 57.5149 147.412 58.0474C147.795 58.5798 148 59.2142 147.998 59.8638C148.055 60.6101 147.812 61.349 147.319 61.9249C146.826 62.5009 146.122 62.8691 145.355 62.9521ZM145.355 57.3011C145.034 57.3259 144.722 57.4121 144.436 57.5545C144.149 57.697 143.895 57.8929 143.687 58.1311C143.479 58.3693 143.322 58.645 143.225 58.9424C143.127 59.2398 143.091 59.5529 143.119 59.8638C143.081 60.4878 143.291 61.1022 143.708 61.5794C144.124 62.0566 144.714 62.3599 145.355 62.4264C145.991 62.36 146.574 62.0543 146.98 61.575C147.385 61.0957 147.581 60.4812 147.524 59.8638C147.581 59.2463 147.385 58.6318 146.98 58.1525C146.574 57.6733 145.991 57.3675 145.355 57.3011Z" fill="#636263"/>
<g style="mix-blend-mode:screen">
<g style="mix-blend-mode:screen">
<path d="M145.558 57.7614C145.836 57.7736 146.107 57.8447 146.353 57.9696C146.599 58.0945 146.813 58.2701 146.981 58.4842C146.823 58.1906 146.591 57.9403 146.307 57.7566C146.023 57.5728 145.695 57.4615 145.355 57.4329C144.774 57.4831 144.236 57.7518 143.856 58.1815C143.476 58.6112 143.284 59.1679 143.322 59.7327C143.326 60.3316 143.542 60.9112 143.932 61.3754C143.831 60.965 143.831 60.5374 143.932 60.1269C143.864 59.6088 143.991 59.0843 144.29 58.6497C144.588 58.2151 145.039 57.8997 145.558 57.7614Z" fill="#ACAB9C"/>
</g>
</g>
<g style="mix-blend-mode:multiply">
<path d="M151.793 182.149C151.624 183.234 151.137 184.248 150.389 185.072C149.641 185.895 148.665 186.493 147.577 186.793C146.489 187.093 145.335 187.084 144.252 186.765C143.17 186.447 142.204 185.833 141.472 184.997C140.739 184.161 140.27 183.139 140.12 182.051C139.97 180.964 140.146 179.858 140.627 178.865C141.108 177.872 141.874 177.034 142.832 176.451C143.791 175.868 144.902 175.565 146.033 175.578C147.649 175.816 149.122 176.612 150.18 177.819C151.239 179.027 151.812 180.565 151.793 182.149Z" fill="#773E2A"/>
</g>
<path d="M151.048 180.572C150.879 181.657 150.391 182.671 149.644 183.495C148.896 184.318 147.92 184.916 146.832 185.216C145.744 185.516 144.59 185.506 143.507 185.188C142.424 184.869 141.459 184.256 140.726 183.42C139.994 182.584 139.524 181.561 139.375 180.474C139.225 179.387 139.401 178.28 139.882 177.287C140.363 176.295 141.128 175.457 142.087 174.874C143.045 174.291 144.156 173.988 145.288 174.001C146.904 174.239 148.376 175.035 149.435 176.242C150.493 177.45 151.066 178.987 151.048 180.572Z" fill="#ACAB9C"/>
<path d="M145.288 187.669C143.797 187.924 142.261 187.73 140.888 187.111C139.515 186.493 138.371 185.48 137.611 184.21C136.851 182.94 136.512 181.474 136.64 180.011C136.768 178.548 137.357 177.159 138.326 176.031C139.295 174.903 140.599 174.091 142.059 173.705C143.52 173.32 145.068 173.378 146.493 173.874C147.919 174.37 149.152 175.278 150.028 176.476C150.903 177.674 151.377 179.104 151.386 180.572C151.537 182.295 150.982 184.006 149.84 185.335C148.698 186.663 147.063 187.502 145.288 187.669ZM145.288 174.198C143.923 173.942 142.51 174.1 141.24 174.649C139.971 175.198 138.906 176.113 138.191 177.269C137.475 178.424 137.144 179.766 137.241 181.11C137.339 182.455 137.86 183.738 138.735 184.786C139.61 185.833 140.797 186.594 142.133 186.966C143.469 187.338 144.891 187.302 146.206 186.863C147.52 186.425 148.664 185.605 149.481 184.515C150.299 183.425 150.751 182.117 150.777 180.769C150.947 179.192 150.465 177.614 149.435 176.381C148.406 175.149 146.914 174.364 145.288 174.198Z" fill="#636263"/>
<g style="mix-blend-mode:screen">
<g style="mix-blend-mode:screen">
<path d="M145.83 175.315C146.538 175.328 147.234 175.493 147.867 175.8C148.5 176.107 149.054 176.548 149.489 177.09C149.076 176.328 148.465 175.685 147.716 175.224C146.967 174.763 146.106 174.5 145.22 174.461C143.702 174.595 142.301 175.306 141.323 176.439C140.345 177.572 139.87 179.034 140.002 180.506C139.997 182.051 140.521 183.553 141.493 184.778C140.899 183.732 140.596 182.554 140.612 181.361C140.48 179.889 140.955 178.426 141.933 177.293C142.911 176.16 144.312 175.449 145.83 175.315Z" fill="#ACAB9C"/>
</g>
</g>
<g style="mix-blend-mode:multiply">
<path d="M149.083 181.755C149.12 182.169 149.072 182.587 148.942 182.983C148.812 183.38 148.602 183.747 148.325 184.065C148.048 184.382 147.709 184.644 147.327 184.834C146.945 185.023 146.529 185.138 146.101 185.171C145.375 185.293 144.627 185.195 143.96 184.89C143.294 184.585 142.74 184.089 142.374 183.469C142.008 182.848 141.847 182.134 141.915 181.422C141.982 180.71 142.273 180.036 142.749 179.49C143.226 178.944 143.863 178.554 144.576 178.372C145.289 178.19 146.042 178.225 146.734 178.472C147.425 178.719 148.022 179.167 148.442 179.754C148.862 180.341 149.086 181.04 149.083 181.755Z" fill="#ACAB9C"/>
</g>
<path d="M148.269 180.572C148.327 181.412 148.05 182.242 147.495 182.89C146.941 183.538 146.15 183.955 145.288 184.054C144.418 183.971 143.617 183.559 143.059 182.907C142.501 182.255 142.23 181.416 142.306 180.572C142.269 180.157 142.317 179.74 142.447 179.343C142.577 178.947 142.786 178.579 143.063 178.261C143.34 177.944 143.68 177.683 144.061 177.493C144.443 177.303 144.86 177.188 145.288 177.155C146.144 177.238 146.934 177.641 147.491 178.279C148.047 178.916 148.326 179.738 148.269 180.572Z" fill="#ACAB9C"/>
<path d="M145.288 184.317C144.51 184.451 143.708 184.351 142.99 184.029C142.273 183.708 141.674 183.18 141.276 182.519C140.877 181.857 140.697 181.092 140.761 180.328C140.824 179.564 141.128 178.838 141.631 178.246C142.133 177.655 142.811 177.228 143.573 177.022C144.334 176.816 145.142 176.841 145.888 177.094C146.634 177.348 147.282 177.817 147.744 178.439C148.206 179.061 148.461 179.805 148.473 180.571C148.52 181.02 148.474 181.474 148.339 181.906C148.204 182.338 147.982 182.739 147.686 183.088C147.389 183.436 147.025 183.724 146.614 183.935C146.202 184.146 145.751 184.275 145.288 184.317ZM145.288 177.417C144.616 177.295 143.922 177.378 143.3 177.653C142.679 177.928 142.159 178.382 141.814 178.953C141.468 179.525 141.313 180.186 141.369 180.846C141.425 181.507 141.69 182.134 142.127 182.643C142.565 183.152 143.153 183.518 143.813 183.691C144.473 183.863 145.172 183.834 145.814 183.608C146.456 183.381 147.01 182.968 147.401 182.424C147.792 181.881 148.001 181.234 147.999 180.571C147.971 179.864 147.682 179.189 147.184 178.671C146.687 178.152 146.014 177.824 145.288 177.746V177.417Z" fill="#636263"/>
<g style="mix-blend-mode:screen">
<g style="mix-blend-mode:screen">
<path d="M145.559 178.075C145.883 178.08 146.203 178.152 146.495 178.288C146.788 178.425 147.046 178.621 147.253 178.864C147.067 178.512 146.786 178.215 146.44 178.007C146.094 177.798 145.695 177.686 145.288 177.681C144.58 177.748 143.928 178.081 143.472 178.61C143.015 179.138 142.791 179.819 142.848 180.506C142.843 181.218 143.081 181.911 143.526 182.478C143.25 181.995 143.11 181.452 143.119 180.901C143.062 180.214 143.286 179.532 143.743 179.004C144.199 178.475 144.851 178.142 145.559 178.075Z" fill="#ACAB9C"/>
</g>
</g>
</svg>
