<svg width="1920" height="250" viewBox="0 0 1920 250" fill="none" xmlns="http://www.w3.org/2000/svg">
<g clip-path="url(#clip0)">
<path d="M693.557 14.9497C667.352 14.2188 640.9 18.1165 614.695 17.8729C587.006 17.6293 559.071 16.8985 531.383 18.1165C520.505 18.6037 509.875 22.0141 498.997 23.963C485.895 26.399 473.039 22.9885 460.184 21.0397C432.99 16.8985 406.538 19.3345 379.344 20.5525C351.409 21.7705 323.473 21.5269 295.538 21.5269C269.58 21.5269 243.87 24.4502 218.159 19.0909C208.518 17.1421 188.493 13.488 187.504 13.488C173.166 13.9752 158.827 14.2188 144.488 14.9497C129.655 16.1677 115.811 20.0653 101.473 21.0397C87.6286 22.0141 73.5373 19.0909 59.6931 17.6293C45.3546 16.4113 30.7688 17.6293 16.183 17.6293C8.76649 17.6293 1.10278 17.6293 -6.31372 17.3857C-17.6857 20.5525 -29.0577 23.7194 -40.4296 27.3734C-52.5432 31.5146 -68.6123 35.8995 -75.5344 48.0796C-80.2315 56.6057 -82.2093 66.1062 -86.1647 74.8759C-90.3674 84.3764 -95.8062 87.7869 -103.717 93.8769C-116.82 104.108 -109.65 117.506 -112.122 131.392C-113.606 138.943 -116.82 145.521 -120.281 152.098C-120.033 153.316 -120.033 154.29 -120.033 155.508C-119.539 165.74 -123.742 174.022 -120.528 184.497C-118.303 191.318 -112.617 195.216 -108.167 198.382C-100.998 203.498 -93.8284 206.909 -87.648 214.217C-82.9509 219.82 -82.4565 227.371 -82.7037 235.41C-78.2538 239.308 -73.8039 243.205 -69.6012 247.103C71.5595 242.475 212.72 249.783 354.128 249.295C389.727 249.295 425.327 247.834 460.926 247.347C497.019 246.859 533.36 248.321 569.454 248.077C626.808 247.59 1914.15 243.693 1971.5 247.347L2001.5 23.963L741.517 16.4113C726.189 22.5013 709.873 15.4369 693.557 14.9497Z" fill="#603813"/>
<path d="M-117.914 141.291C-120.816 139.661 -123.517 137.669 -124.777 134.812C-127.996 127.769 -123.786 122.201 -124.282 115.323C-124.282 113.871 -123.991 112.354 -123.112 111.198C-120.208 107.376 -117.639 103.486 -116.358 99.1097C-113.882 89.7748 -121.063 80.7675 -107.94 73.8892C-100.017 69.7949 -94.5693 67.5021 -90.3601 61.1151C-86.3984 55.2194 -84.4176 48.8324 -79.7131 43.1004C-72.7803 34.912 -56.6861 31.9641 -44.5535 29.18C-33.6399 26.8262 -22.7262 24.773 -11.8126 22.7325C-10.8629 22.5549 -9.89752 22.4768 -8.93161 22.4954C-1.95858 22.6292 5.20273 22.6292 12.1476 22.6292C26.7562 22.6292 41.3648 21.8104 55.7257 22.6292C69.5915 23.6118 83.7049 25.5771 97.5707 24.922C111.932 24.2669 125.797 21.6466 140.654 20.8278C155.015 20.3364 169.376 20.1727 183.737 19.8451C184.727 19.8451 204.783 22.3017 214.439 23.6118C240.19 27.2148 265.941 25.2495 291.939 25.2495C319.918 25.2495 347.897 25.4133 375.877 24.5945C403.113 23.7756 429.606 22.1379 456.843 24.922C469.718 26.2322 482.593 28.5249 495.716 26.8872C506.611 25.5771 517.258 23.2843 528.152 22.9568C555.884 22.1379 583.863 22.6292 611.595 22.793C637.841 22.9568 664.334 20.3364 690.58 20.8278C706.262 20.9849 721.945 25.3651 736.752 22.0998C737.994 21.826 739.243 21.6538 740.514 21.6697C747.695 21.7595 773.698 22.1086 791.859 22.6632C824.382 23.6563 841.42 18.3877 873.369 17.6993C922.837 16.6335 950.778 21.8672 999.885 22.6632C1053.11 23.5259 1082.04 17.7735 1134.4 20.6776C1176.25 22.9986 1197.94 21.9167 1239.91 22.6632C1289.8 23.5502 1318.35 27.3502 1366.93 20.6776C1446.44 9.75705 1494.45 20.6776 1588.46 25.9724C1608.48 27.0999 1615.22 18.2726 1637.96 16.7064C1652.77 15.6865 1662.7 19.0024 1680.47 21.6704C1728.65 28.9051 1758.88 28.5049 1808.98 25.9724C1829.01 24.9604 1840.19 19.4541 1859.99 21.6704C1872.72 23.0957 1878.08 29.4228 1890.99 29.2816C1899.04 29.1936 1903.31 27.5626 1911 25.9724C1917.96 24.5324 1928.5 21.6704 1928.5 21.6704L1936.25 32.6048C1938.63 35.9549 1939.42 40.1795 1938.4 44.1598L1932.5 67.3378L1922.53 66.0684C1920.53 65.8145 1918.61 65.1337 1916.9 64.0724L1899.7 53.3859C1896.68 51.5067 1893.05 50.8508 1889.56 51.5517L1851.88 59.1172C1850.95 59.3024 1850.07 59.3942 1849.13 59.3913C1838.12 59.3571 1764.15 59.1371 1761.48 59.3956C1727.47 59.3956 1661 55.9013 1593.46 52.7629C1570.45 51.694 1557.41 49.8934 1534.45 51.2889C1500.63 53.3441 1484.88 66.609 1450.94 67.3378C1414.39 68.1226 1396.32 50.3748 1359.93 52.7629C1333.99 54.4651 1322.63 64.4782 1296.92 67.3378C1246.71 72.9241 1218.83 48.088 1168.41 52.7629C1143.59 55.0638 1176.41 59.1167 1106.9 64.8818C1037.39 70.6469 983.023 38.6025 906.874 51.2889C842.835 61.9578 824.996 61.0823 822.262 60.8318C821.993 60.8073 821.744 60.7761 821.476 60.7502L780.239 56.7752C763.984 55.2083 757.108 60.3006 740.853 58.7337C719.851 56.7752 716.331 58.9861 704.693 61.4427C685.38 65.7007 667.553 66.6833 647.497 64.8818C611.842 61.7702 576.683 61.1151 540.78 60.7876C522.457 60.6238 504.383 60.1325 486.307 59.1499C465.756 58.0035 446.691 54.5643 426.883 51.2889C414.75 49.3237 405.341 48.8324 393.952 52.2716C386.276 54.7281 379.591 57.676 371.42 59.805C362.258 62.0977 352.354 63.0804 342.698 63.5717C307.043 65.0456 270.893 56.5296 235.733 53.5817C224.839 52.5991 215.677 54.5643 206.021 57.8397C189.184 63.4079 172.099 67.0108 153.529 69.6311C138.425 71.7602 123.074 72.9065 108.218 75.1993C103.761 75.8544 98.5611 77.1646 95.0946 79.1298C87.1713 83.8791 80.2384 84.8617 69.5915 84.8617C55.7257 84.8617 42.3552 82.7327 28.737 83.7153C20.8137 84.3704 12.1476 84.2066 5.95752 87.8096C-0.727768 91.7401 -0.975365 99.601 -4.68941 104.678C-10.1367 112.048 -27.2213 113.03 -37.373 115.814C-51.2388 119.581 -64.3618 124.985 -77.2371 130.062C-84.6652 132.846 -92.3409 135.467 -100.017 137.923C-103.731 139.233 -107.445 140.543 -111.159 141.69C-113.399 142.431 -115.857 142.446 -117.914 141.291Z" fill="#6B5948"/>
<path d="M-16.296 81.9965C-1.68919 73.0885 13.1652 62.4485 28.7623 55.52C40.8933 50.0763 54.7574 53.7879 67.3836 54.5303C84.7137 55.52 102.044 55.0252 119.374 54.0354C155.52 52.0558 192.408 53.5405 227.316 42.9004C243.408 37.9515 259.5 32.5078 276.583 31.7654C293.665 31.0231 309.51 33.745 326.345 35.972C363.233 40.426 400.369 40.9209 437.505 39.6836C454.587 39.1888 471.918 33.745 489 36.7143C496.675 37.9515 503.854 40.6734 511.529 42.1581C520.937 43.8902 530.592 44.1376 540 44.1376C576.146 44.1376 612.044 37.9515 648.189 37.7041C716.014 14.7065 1037 17.9009 1084.5 29.9505C1132 42 1231.5 19 1250 24.5L1247 13C1255.5 9.5 920.046 7.49592 885 4.50015C849.954 1.50438 743.01 12.7123 743.01 12.7123C727.66 18.8984 711.32 11.7225 694.981 11.475C668.738 10.7327 642.248 14.6918 616.005 14.4444C588.277 14.1969 560.301 13.4546 532.573 14.6918C521.68 15.1867 511.034 18.6509 500.141 20.6305C487.02 23.1049 474.146 19.6407 461.272 17.6611C434.039 13.4546 407.549 15.929 380.316 17.1662C352.34 18.4035 324.364 18.156 296.388 18.156C270.393 18.156 244.646 21.1253 218.898 15.6816C209.243 13.702 189.189 9.99038 188.199 9.99038C173.84 10.4853 159.481 10.7327 145.121 11.475C130.02 12.4648 116.155 16.4239 101.796 17.4137C87.9322 18.4035 73.8205 15.4341 59.9565 13.9495C45.5972 12.7123 30.9904 13.9495 16.3836 13.9495C8.95645 13.9495 1.28169 13.9495 -6.14549 13.702C-17.5338 16.9188 -28.9222 20.1356 -40.3105 23.8472C-52.4416 28.0538 -68.5338 32.5078 -75.4659 44.88C-80.1698 53.5405 -82.1503 63.1907 -86.1115 72.0987C-90.3202 81.749 -95.7668 85.2132 -103.689 91.3993C-116.811 101.792 -109.631 115.401 -112.107 129.506C-113.592 137.176 -116.811 143.857 -120.277 150.538C-120.029 151.776 -120.029 152.765 -120.029 154.003C-119.534 164.395 -123.743 172.808 -120.524 183.449C-118.296 190.377 -112.602 194.336 -108.145 197.553C-100.966 202.749 -93.7863 206.213 -87.5969 213.637C-86.6067 214.874 -85.8639 215.864 -85.3688 217.101C-83.3882 221.06 -82.6455 225.514 -82.6455 230.215V230.463C-82.6455 231.947 -82.6455 233.432 -82.6455 235.164C-78.1892 239.123 -73.7329 243.082 -69.5241 247.042C-60.3639 246.794 -51.2037 246.547 -42.0435 246.299C-38.8251 246.299 -35.8542 246.299 -32.6358 246.052C-26.4465 246.052 -20.5047 245.804 -14.3154 245.804C-10.8494 245.804 -7.38336 245.804 -3.91734 245.804C1.77683 245.804 7.47101 245.804 13.4128 245.557C16.8788 245.557 20.5924 245.557 24.0584 245.557C29.7526 245.557 35.4467 245.557 41.1409 245.557C44.6069 245.557 48.073 245.557 51.2914 245.557C57.2331 245.557 63.1749 245.557 69.1166 245.557C72.3351 245.557 75.306 245.557 78.5244 245.557C84.7137 245.557 91.1506 245.557 97.3399 245.804C100.063 245.804 102.787 245.804 105.51 245.804C112.442 245.804 119.374 246.052 126.306 246.052C128.287 246.052 130.267 246.052 132.495 246.052C140.665 246.299 148.835 246.299 156.757 246.547C222.859 247.784 288.714 249.269 354.816 249.021C390.466 249.021 426.117 247.536 461.767 247.042C497.913 246.547 534.306 248.031 570.452 247.784C627.888 247.289 685.325 245.804 742.762 249.516V223.287C730.631 222.545 718.252 222.545 706.121 222.05C688.544 221.307 670.719 221.307 653.141 221.802C617.49 222.545 582.335 222.792 546.685 220.565C472.413 216.111 398.141 220.812 323.869 219.823C285.743 219.328 247.864 215.864 209.986 214.379C173.84 212.894 137.447 212.894 101.301 213.637C73.573 214.132 45.8448 214.874 18.1166 214.874C11.9273 209.43 5.49043 207.203 -2.92705 206.213C-5.89792 205.966 -9.85908 205.966 -12.3348 204.481C-21.9902 198.543 -21.7426 184.438 -24.4659 174.788C-30.6552 152.023 -60.6115 128.763 -44.7668 104.019C-38.33 94.1212 -25.9513 87.9351 -16.296 81.9965Z" fill="#754C24"/>
<path d="M2006.3 81.9965C1991.7 73.0885 1976.84 62.4485 1961.25 55.5201C1949.12 50.0763 1935.25 53.788 1922.63 54.5303C1905.3 55.5201 1887.96 55.0252 1870.63 54.0354C1834.49 52.0559 1797.6 53.5405 1762.69 42.9004C1746.6 37.9516 1730.51 32.5078 1713.43 31.7654C1696.34 31.0231 1680.5 33.745 1663.66 35.972C1626.78 40.426 1589.64 40.9209 1552.5 39.6837C1535.42 39.1888 1518.09 33.745 1501.01 36.7143C1493.33 37.9516 1486.15 40.6734 1478.48 42.1581C1469.07 43.8902 1459.42 44.1376 1450.01 44.1376C1413.86 44.1376 1377.97 37.9516 1341.82 37.7041C1309.39 37.4567 1278.44 30.7757 1247 23.8473V12.7123C1262.35 18.8984 1278.69 11.7225 1295.03 11.4751C1321.27 10.7327 1345.76 2.74744 1372 2.5C1399.73 2.25256 1431.27 -1.23704 1459 0.000173777C1469.89 0.495061 1485.11 2.02045 1496 4C1509.12 6.47444 1517.63 5.97955 1530.5 4C1557.73 -0.206543 1582.27 5.26278 1609.5 6.5C1637.48 7.73722 1637.52 0.000173777 1665.5 0.000173777C1691.49 0.000173777 1745.36 21.1254 1771.11 15.6816C1780.77 13.7021 1800.82 9.99041 1801.81 9.99041C1816.17 10.4853 1845.64 6.25767 1860 7C1875.1 7.98977 1873.85 16.4239 1888.21 17.4137C1902.08 18.4035 1916.19 15.4342 1930.05 13.9495C1944.41 12.7123 1959.02 13.9495 1973.63 13.9495C1981.05 13.9495 1988.73 13.9495 1996.15 13.7021C2007.54 16.9188 2018.93 20.1356 2030.32 23.8473C2042.45 28.0538 2058.54 32.5078 2065.47 44.88C2070.18 53.5405 2072.16 63.1908 2076.12 72.0988C2080.33 81.7491 2085.78 85.2133 2093.7 91.3994C2106.82 101.792 2099.64 115.401 2102.12 129.506C2103.6 137.177 2106.82 143.857 2110.29 150.538C2110.04 151.776 2110.04 152.765 2110.04 154.003C2109.54 164.395 2113.75 172.808 2110.53 183.448C2108.3 190.377 2102.61 194.336 2098.15 197.553C2090.97 202.749 2083.8 206.213 2077.61 213.637C2076.62 214.874 2075.87 215.864 2075.38 217.101C2073.4 221.06 2072.65 225.514 2072.65 230.215V230.463C2072.65 231.947 2072.65 233.432 2072.65 235.164C2068.2 239.123 2063.74 243.082 2059.53 247.042C2050.37 246.794 2041.21 246.547 2032.05 246.299C2028.83 246.299 2025.86 246.299 2022.64 246.052C2016.46 246.052 2010.51 245.804 2004.32 245.804C2000.86 245.804 1997.39 245.804 1993.93 245.804C1988.23 245.804 1982.54 245.804 1976.6 245.557C1973.13 245.557 1969.42 245.557 1965.95 245.557C1960.26 245.557 1954.56 245.557 1948.87 245.557C1945.4 245.557 1941.94 245.557 1938.72 245.557C1932.78 245.557 1926.83 245.557 1920.89 245.557C1917.67 245.557 1914.7 245.557 1911.48 245.557C1905.3 245.557 1898.86 245.557 1892.67 245.804C1889.95 245.804 1887.22 245.804 1884.5 245.804C1877.57 245.804 1870.63 246.052 1863.7 246.052C1861.72 246.052 1859.74 246.052 1857.51 246.052C1849.34 246.299 1841.17 246.299 1833.25 246.547C1767.15 247.784 1701.3 249.269 1635.19 249.021C1599.54 249.021 1563.89 247.536 1528.24 247.042C1492.1 246.547 1455.7 248.031 1419.56 247.784C1362.12 247.289 1304.68 245.804 1247.25 249.516L740.499 242.001C740.499 242.001 736.426 241.642 732.999 237.001C721.228 221.057 683.999 223.501 683.999 223.501C698.999 221.001 1271.76 222.545 1283.89 222.05C1301.47 221.307 1319.29 221.307 1336.87 221.802C1372.52 222.545 1407.67 222.792 1443.32 220.565C1517.6 216.111 1591.87 220.812 1666.14 219.823C1704.27 219.328 1742.14 215.864 1780.02 214.379C1816.17 212.894 1852.56 212.894 1888.71 213.637C1916.44 214.132 1944.16 214.874 1971.89 214.874C1978.08 209.43 1984.52 207.203 1992.94 206.213C1995.91 205.966 1999.87 205.966 2002.34 204.481C2012 198.543 2011.75 184.438 2014.47 174.788C2020.66 152.023 2050.62 128.763 2034.78 104.019C2028.34 94.1213 2015.96 87.9352 2006.3 81.9965Z" fill="#754C24"/>
<g opacity="0.4">
<path d="M675.422 19.3933C676.66 19.8882 676.908 22.1152 675.918 23.105C661.605 35.9555 642.062 34.076 624.278 32.3655L623.185 32.2604C620.461 32.013 620.214 28.5488 622.689 27.8064C628.136 25.5794 633.83 23.8473 639.277 22.3627C649.922 16.424 664.529 14.4445 675.422 19.3933Z" fill="#241100"/>
<path d="M509.549 27.8064C524.651 20.1357 541.238 19.3933 557.825 19.3933C578.869 16.6715 601.151 16.6715 621.452 20.1357C623.927 20.6306 623.432 23.8473 621.452 24.5897C610.558 28.3013 599.417 29.5385 588.277 31.5181C577.879 33.2502 567.976 36.467 557.578 38.1991C541.981 40.9209 523.66 38.9414 509.549 31.7655C508.063 31.0232 508.063 28.5488 509.549 27.8064Z" fill="#241100"/>
<path d="M377.592 27.559C382.791 24.0948 388.733 23.8473 394.922 23.5999C399.131 23.3524 403.34 23.105 407.301 22.6101C419.185 19.6408 432.058 19.3933 443.694 22.8576C445.18 23.3524 446.17 25.5794 444.685 26.8167C437.505 33.2502 427.85 33.9925 418.442 33.9925C404.825 33.9925 391.209 35.4772 378.087 31.5181C376.107 31.0232 375.859 28.5488 377.592 27.559Z" fill="#241100"/>
<path d="M114.422 29.0436C127.049 23.8473 140.418 18.4036 154.034 17.4138C157.995 17.1663 161.956 17.1663 165.67 17.6612C183.495 14.4445 205.529 16.6715 220.631 25.5794C222.364 26.5692 221.869 29.2911 220.136 29.786C198.597 36.9618 177.306 43.3954 154.529 44.1377C140.913 44.6326 122.84 44.88 113.432 33.2502C112.194 31.5181 112.689 29.786 114.422 29.0436Z" fill="#241100"/>
<path d="M53.7671 37.9516C54.7574 35.7246 56.2428 34.7348 57.9759 33.9925C62.1846 29.786 66.8885 24.8371 72.5827 23.8473C77.2865 22.8575 85.2089 27.559 89.17 29.786C90.4079 30.5283 90.6555 32.2604 89.6652 33.4976C81.9904 41.1684 65.403 42.9005 55.2526 41.4158C53.5195 41.1684 53.272 39.1888 53.7671 37.9516Z" fill="#241100"/>
<path d="M96.8448 37.2093C99.073 35.7246 102.044 33.9925 104.767 34.4874C107.738 34.9823 109.471 37.4567 109.966 40.1786C110.214 41.1684 109.966 42.4056 108.976 42.9005C105.262 44.88 101.796 44.88 98.0827 42.9005C97.5875 42.653 97.0924 41.9107 97.0924 41.4158C95.6069 40.426 95.1118 38.1991 96.8448 37.2093Z" fill="#241100"/>
<path d="M-19.762 43.3954C-15.0581 36.4669 -4.66006 31.5181 2.76713 28.0539C9.20403 25.0846 21.3351 18.651 28.5147 22.8576C36.437 27.559 31.238 35.4772 25.2962 38.9414C12.1749 46.1173 -2.4319 51.0661 -17.5338 49.0866C-19.2669 48.8391 -20.2571 47.6019 -19.5144 45.8698C-20.2571 45.3749 -20.5047 44.3852 -19.762 43.3954Z" fill="#241100"/>
<path d="M-15.5533 216.606C-15.0581 215.369 -14.0678 214.874 -12.83 215.121C-11.0969 213.884 -9.36394 212.894 -7.8785 211.657C-7.13578 211.162 -6.14549 211.162 -5.65034 211.657C2.27199 216.606 11.6797 220.813 17.6215 228.236C18.8594 229.72 18.3642 231.453 16.6312 232.195C9.20403 234.917 -1.4416 238.628 -9.61151 236.649C-18.5241 234.422 -18.2766 223.782 -15.5533 216.606Z" fill="#241100"/>
<path d="M502.864 233.68C512.024 224.524 524.651 222.297 537.029 223.287H537.524C546.437 224.029 556.34 224.524 564.262 229.473C565.5 230.215 565.748 231.947 564.757 233.185C550.151 247.289 521.68 240.855 503.854 237.886C502.121 237.391 501.874 234.917 502.864 233.68Z" fill="#241100"/>
<path d="M574.165 236.649C574.908 235.907 575.898 235.412 576.641 234.917C576.888 234.174 577.136 233.432 578.126 233.185C591.495 227.741 614.767 222.545 627.146 234.174C628.136 235.164 627.888 237.144 626.651 237.886C618.991 241.838 610.344 242.092 601.942 242.339L601.893 242.34C592.733 242.588 584.068 243.082 575.155 240.855C573.422 240.113 572.68 237.639 574.165 236.649Z" fill="#241100"/>
<path d="M645.466 230.215C645.714 229.968 646.209 229.72 646.456 229.72C647.694 227.988 649.675 226.999 651.408 226.256C653.883 225.267 656.607 225.019 658.835 226.751C660.816 228.236 662.054 231.205 661.063 233.432C659.33 237.886 653.388 239.123 648.932 238.628C646.951 238.381 644.476 237.886 643.486 235.907C642.99 233.68 643.733 231.7 645.466 230.215Z" fill="#241100"/>
<path d="M713.796 228.236C701.913 224.772 686.316 229.226 676.165 233.927C674.185 234.917 675.175 237.639 676.908 238.134C686.563 241.845 697.952 241.35 708.102 241.598C712.806 241.598 725.68 244.072 728.651 238.381C729.219 237.321 729.451 236.365 729.408 235.503C725.878 232.757 721.186 230.389 714.509 228.307C714.27 228.281 714.032 228.258 713.796 228.236Z" fill="#241100"/>
<path d="M1313.84 233.927C1303.69 229.226 1288.1 224.772 1276.21 228.236C1268.29 228.978 1257.65 231.453 1261.36 238.381C1264.33 244.072 1277.2 241.598 1281.91 241.598C1292.06 241.35 1303.45 241.845 1313.1 238.134C1314.83 237.639 1315.82 234.917 1313.84 233.927Z" fill="#241100"/>
<path d="M1415.84 236.649C1415.1 235.907 1414.11 235.412 1413.37 234.917C1413.12 234.175 1412.87 233.432 1411.88 233.185C1398.51 227.741 1375.24 222.545 1362.86 234.174C1361.87 235.164 1362.12 237.144 1363.36 237.886C1371.02 241.838 1379.67 242.092 1388.07 242.339L1388.12 242.34C1397.28 242.588 1405.94 243.082 1414.85 240.855C1416.59 240.113 1417.33 237.639 1415.84 236.649Z" fill="#241100"/>
<path d="M1487.15 233.68C1477.99 224.524 1465.36 222.297 1452.98 223.287H1452.49C1443.57 224.029 1433.67 224.524 1425.75 229.473C1424.51 230.215 1424.26 231.948 1425.25 233.185C1439.86 247.289 1468.33 240.855 1486.15 237.886C1487.89 237.391 1488.14 234.917 1487.15 233.68Z" fill="#241100"/>
<path d="M1344.54 230.215C1344.3 229.968 1343.8 229.721 1343.55 229.721C1342.32 227.988 1340.33 226.999 1338.6 226.256C1336.13 225.267 1333.4 225.019 1331.17 226.751C1329.19 228.236 1327.96 231.205 1328.95 233.432C1330.68 237.886 1336.62 239.123 1341.08 238.628C1343.06 238.381 1345.53 237.886 1346.52 235.907C1347.02 233.68 1346.28 231.7 1344.54 230.215Z" fill="#241100"/>
<path d="M1480.46 27.8064C1465.36 20.1357 1448.77 19.3934 1432.18 19.3934C1411.14 16.6715 1388.86 16.6715 1368.56 20.1357C1366.08 20.6306 1366.58 23.8473 1368.56 24.5897C1379.45 28.3013 1390.59 29.5385 1401.73 31.5181C1412.13 33.2502 1422.03 36.467 1432.43 38.1991C1448.03 40.921 1466.35 38.9414 1480.46 31.7655C1481.95 31.0232 1481.95 28.5488 1480.46 27.8064Z" fill="#241100"/>
<path d="M1314.59 19.3934C1313.35 19.8882 1313.1 22.1152 1314.09 23.105C1328.4 35.9556 1347.95 34.076 1365.73 32.3655L1366.82 32.2604C1369.55 32.013 1369.8 28.5488 1367.32 27.8064C1361.87 25.5794 1356.18 23.8473 1350.73 22.3627C1340.09 16.424 1325.48 14.4445 1314.59 19.3934Z" fill="#241100"/>
<path d="M1612.42 27.559C1607.22 24.0948 1601.28 23.8473 1595.09 23.5999C1590.88 23.3525 1586.67 23.105 1582.71 22.6101C1570.82 19.6408 1557.95 19.3934 1546.32 22.8576C1544.83 23.3525 1543.84 25.5794 1545.32 26.8167C1552.5 33.2502 1562.16 33.9925 1571.57 33.9925C1585.18 33.9925 1598.8 35.4772 1611.92 31.5181C1613.9 31.0232 1614.15 28.5488 1612.42 27.559Z" fill="#241100"/>
<path d="M1875.59 29.0437C1862.96 23.8473 1849.59 18.4036 1835.98 17.4138C1832.01 17.1664 1828.05 17.1664 1824.34 17.6612C1806.51 14.4445 1784.48 16.6715 1769.38 25.5794C1767.65 26.5692 1768.14 29.2911 1769.87 29.786C1791.41 36.9619 1812.7 43.3954 1835.48 44.1377C1849.1 44.6326 1867.17 44.8801 1876.58 33.2502C1877.82 31.5181 1877.32 29.786 1875.59 29.0437Z" fill="#241100"/>
<path d="M1936.24 37.9516C1935.25 35.7246 1933.77 34.7349 1932.03 33.9925C1927.82 29.786 1923.12 24.8371 1917.43 23.8473C1912.72 22.8576 1904.8 27.559 1900.84 29.786C1899.6 30.5283 1899.35 32.2604 1900.34 33.4976C1908.02 41.1684 1924.61 42.9005 1934.76 41.4158C1936.49 41.1684 1936.74 39.1889 1936.24 37.9516Z" fill="#241100"/>
<path d="M1893.16 37.2093C1890.94 35.7246 1887.97 33.9925 1885.24 34.4874C1882.27 34.9823 1880.54 37.4567 1880.04 40.1786C1879.8 41.1684 1880.04 42.4056 1881.03 42.9005C1884.75 44.8801 1888.21 44.8801 1891.93 42.9005C1892.42 42.6531 1892.92 41.9107 1892.92 41.4158C1894.4 40.4261 1894.9 38.1991 1893.16 37.2093Z" fill="#241100"/>
</g>
<path opacity="0.4" d="M16.8788 26.3216C16.3837 26.569 15.8886 26.8165 15.3934 27.0639C10.1944 29.5384 5.24292 32.0128 0.291466 34.7347C-3.42212 36.7142 -6.14542 39.4361 -9.36386 42.158C-9.85901 42.6529 -11.0969 45.3748 -9.36386 45.1273C-2.43183 43.6426 4.5002 41.4157 10.9371 38.1989C14.6507 36.4668 20.84 33.0026 22.3254 28.796C23.5633 24.8369 19.3546 25.0844 16.8788 26.3216Z" fill="#AC8E73"/>
<path opacity="0.4" d="M72.5826 25.5791C69.1166 25.5791 65.8981 29.2907 63.4224 31.5177C61.4418 32.755 59.2136 34.2396 57.7282 36.2192C57.2331 36.9615 56.4903 39.1885 58.2233 38.941C64.6602 38.4462 71.8399 37.9513 74.068 30.7754C74.5632 29.2907 75.3059 25.8265 72.5826 25.5791Z" fill="#AC8E73"/>
<path opacity="0.4" d="M162.699 21.6201C158.738 21.1252 155.024 21.6201 151.311 22.3624C148.092 22.3624 145.122 22.8573 142.398 23.5997C135.961 25.3318 128.534 26.569 123.088 30.2806C122.097 30.7755 120.364 33.0025 122.097 33.9923C129.524 37.4565 134.971 37.7039 142.398 34.2397C148.588 31.2704 156.015 29.2909 161.461 25.3318C161.709 25.3318 161.709 25.3318 161.709 25.0843C161.957 25.0843 161.957 24.8369 162.204 24.8369C162.699 24.342 164.185 21.6201 162.699 21.6201Z" fill="#AC8E73"/>
<path d="M1719.89 140.452C1721.19 138.985 1722.69 136.897 1724.64 136.651C1726.48 138.413 1728.07 140.437 1729.86 142.355C1730.02 142.917 1730.24 143.324 1730.45 143.731C1731.49 146.436 1732.39 150.12 1731.94 153.215C1731.89 153.371 1731.79 153.681 1731.85 154.04C1730.14 155.721 1728.42 157.403 1726.65 158.725C1724 157.391 1720.67 153.294 1719.88 152.539C1718.41 151.232 1716.01 149.636 1715.86 147.376C1715.6 144.399 1718.08 142.444 1719.89 140.452Z" fill="#A59B87"/>
<path d="M417.48 91.9997C414.355 94.6749 411.023 97.5557 408.107 100.642C406.649 102.289 404.982 103.935 403.316 105.581C402.483 107.845 403.316 109.902 405.607 111.754C409.148 115.047 414.356 110.931 417.688 109.491C420.813 108.256 425.812 107.227 427.686 103.935C429.145 101.26 432.061 96.3211 430.603 93.2344C426.437 92.4113 421.854 92.4113 417.48 91.9997Z" fill="#A59B87"/>
<path d="M1719.89 140.452C1720.89 139.403 1722.04 137.887 1723.47 137.138C1720.47 141.314 1714.63 144.779 1719.31 149.979C1721.58 152.555 1723.82 156.315 1726.5 158.677C1723.84 157.343 1720.52 153.246 1719.73 152.491C1718.26 151.184 1715.86 149.588 1715.71 147.328C1715.6 144.398 1718.08 142.444 1719.89 140.452Z" fill="#E3DBCB"/>
<path d="M404 111.238C404.422 111.661 404.844 112.084 405.266 112.719C408.852 116.105 414.125 111.872 417.5 110.391C420.664 109.121 425.727 108.063 427.625 104.677C428.891 102.56 430.789 98.9627 431 95.9998C424.672 103.83 413.703 113.989 404 111.238Z" fill="#E3DBCB"/>
<path d="M1726.85 169.28C1729.45 173.453 1732.2 177.935 1734.41 182.507C1735.56 184.675 1736.79 187.389 1738.09 189.867C1738.23 192.76 1736.55 194.83 1733.29 196.149C1728.1 198.683 1723.65 192.122 1720.38 189.294C1717.28 186.776 1711.97 183.833 1711.01 179.391C1710.31 175.806 1708.76 169.106 1711.52 166.075C1716.54 166.597 1721.58 167.902 1726.85 169.28Z" fill="#A59B87"/>
<path d="M1735.22 194.936C1734.6 195.262 1733.98 195.587 1733.29 196.15C1728.1 198.684 1723.65 192.123 1720.38 189.294C1717.28 186.776 1711.97 183.833 1711.01 179.392C1710.33 176.588 1709.45 171.91 1710.24 168.528C1714.31 179.637 1723.16 194.559 1735.22 194.936Z" fill="#E3DBCB"/>
<path d="M272.317 78.668C277.113 82.9885 280.93 88.6496 284.667 93.2937C287.957 97.6115 294.745 103.522 298.276 109.386C297.539 112.273 296.802 115.16 296.065 118.047C286.169 121.65 275.867 124.683 265.527 126.455C264.103 125.965 262.72 125.23 261.42 124.007C251.055 115.487 241.057 106.276 231.018 97.3092C230.779 94.2578 230.539 91.2064 230.341 87.9109C241.667 80.2827 259.257 75.7164 272.317 78.668Z" fill="#A59B87"/>
<path d="M1269.14 99.1979C1268.45 99.1214 1267.75 99.0449 1267.05 98.9685C1263.96 98.2764 1254.61 98.4809 1252.86 95.1202C1251.28 91.9527 1248.21 71.8959 1256.41 74.2052C1258.61 74.9756 1260.62 75.9008 1262.82 76.6712C1265.18 77.6347 1268.62 78.365 1271.1 79.8695C1272.15 86.3231 1271.11 92.5473 1269.14 99.1979Z" fill="#A59B87"/>
<path d="M1264.31 183.738C1262.12 181.705 1258.99 179.359 1258.67 176.384C1261.41 173.642 1264.54 171.291 1267.51 168.626C1268.37 168.39 1269 168.077 1269.62 167.763C1273.77 166.272 1279.4 165.014 1284.1 165.793C1284.33 165.871 1284.8 166.027 1285.35 165.948C1287.86 168.607 1290.36 171.267 1292.32 174.005C1290.21 177.999 1283.88 182.937 1282.7 184.113C1280.67 186.307 1278.17 189.91 1274.72 190.07C1270.19 190.387 1267.29 186.554 1264.31 183.738Z" fill="#A59B87"/>
<path d="M267.922 77.9287C253.308 79.734 225.912 82.9001 240.786 97.4488C247.694 104.132 256.633 113.667 266.358 115.555C274.617 117.197 287.353 119.09 296.311 116.583C296.229 117.071 296.147 117.559 296.065 118.048C286.169 121.651 275.867 124.684 265.526 126.456C264.103 125.965 262.72 125.231 261.42 124.008C251.054 115.488 241.057 106.277 231.018 97.3098C230.778 94.2583 230.539 91.2069 230.341 87.9115C240.526 81.0949 255.592 76.6056 267.922 77.9287Z" fill="#E3DBCB"/>
<path d="M1253.55 82.5185C1253.9 85.7262 1254.25 88.934 1256.03 91.9467C1257.81 94.9594 1260.94 96.8883 1264.31 98.3144C1260.13 97.8556 1254.37 97.3987 1252.9 94.7721C1251.74 92.5317 1249.84 81.0542 1251.96 76.1815C1252.62 78.1906 1253.09 80.3545 1253.55 82.5185Z" fill="#E3DBCB"/>
<path d="M1264.31 183.738C1262.75 182.174 1260.48 180.375 1259.38 178.184C1265.64 182.876 1270.73 191.874 1278.79 184.899C1282.78 181.529 1288.57 178.236 1292.24 174.24C1290.13 178.234 1283.8 183.172 1282.62 184.347C1280.59 186.541 1278.09 190.145 1274.65 190.304C1270.19 190.387 1267.29 186.553 1264.31 183.738Z" fill="#E3DBCB"/>
<path d="M1382.06 210.359C1381.65 209.789 1381.25 209.219 1380.84 208.648C1379.3 205.879 1372.92 199.034 1374.27 195.497C1375.58 192.204 1388.5 176.565 1392.24 184.219C1393.13 186.377 1393.78 188.494 1394.67 190.651C1395.52 193.053 1397.26 196.107 1397.79 198.955C1393.67 204.033 1388.05 207.603 1382.06 210.359Z" fill="#A59B87"/>
<path d="M1460.01 156.9C1459.33 157.09 1458.66 157.28 1457.98 157.471C1454.86 157.99 1446.26 161.69 1443.39 159.229C1440.73 156.889 1430.36 139.45 1438.82 138.514C1441.15 138.401 1443.36 138.504 1445.7 138.39C1448.24 138.398 1451.71 137.784 1454.57 138.249C1457.96 143.838 1459.43 150.334 1460.01 156.9Z" fill="#A59B87"/>
<path d="M1539.19 89.5303C1539.63 88.9807 1540.06 88.4311 1540.49 87.8815C1542.72 85.6252 1547.5 77.5837 1551.28 77.8875C1554.8 78.2201 1573.44 86.2473 1567.14 91.9747C1565.31 93.4355 1563.46 94.6504 1561.64 96.1112C1559.58 97.6009 1557.13 100.132 1554.55 101.434C1548.52 98.9025 1543.52 94.5056 1539.19 89.5303Z" fill="#A59B87"/>
<path d="M1576.35 184.125C1578.02 181.647 1579.86 178.192 1582.75 177.424C1585.88 179.708 1588.68 182.438 1591.77 184.966C1592.14 185.78 1592.55 186.35 1592.95 186.92C1595.06 190.789 1597.17 196.162 1597.12 200.922C1597.08 201.166 1597 201.654 1597.16 202.183C1594.92 205.067 1592.67 207.952 1590.27 210.307C1586 208.835 1580.15 203.333 1578.8 202.354C1576.32 200.682 1572.38 198.763 1571.69 195.386C1570.44 190.909 1574.02 187.498 1576.35 184.125Z" fill="#A59B87"/>
<path d="M1529.35 161.126C1531.02 158.647 1532.86 155.193 1535.75 154.425C1538.88 156.708 1541.68 159.439 1544.77 161.966C1545.14 162.781 1545.55 163.351 1545.95 163.921C1548.06 167.789 1550.17 173.163 1550.12 177.922C1550.08 178.166 1550 178.654 1550.16 179.183C1547.92 182.068 1545.67 184.952 1543.27 187.308C1539 185.836 1533.15 180.334 1531.8 179.355C1529.32 177.683 1525.38 175.764 1524.69 172.386C1523.44 167.909 1527.02 164.498 1529.35 161.126Z" fill="#A59B87"/>
<path d="M1353.76 131.886C1358.6 132.723 1363.78 133.645 1368.67 135.034C1371.05 135.623 1373.89 136.507 1376.61 137.18C1378.86 139 1379.29 141.63 1378.11 144.943C1376.55 150.507 1368.7 149.464 1364.41 150.026C1360.46 150.672 1354.74 152.68 1350.78 150.44C1347.64 148.58 1341.6 145.284 1341.17 141.211C1344.9 137.806 1349.23 134.91 1353.76 131.886Z" fill="#A59B87"/>
<path d="M1151.03 73.7702C1154.48 73.069 1158.18 72.3354 1161.8 71.9912C1163.54 71.765 1165.67 71.6146 1167.66 71.3561C1169.64 71.9844 1170.61 73.6288 1170.69 76.1489C1171.09 80.2698 1165.58 81.619 1162.86 83.1101C1160.39 84.5689 1157.09 87.4009 1153.87 86.9342C1151.29 86.511 1146.4 85.8812 1145.05 83.274C1146.65 80.0301 1148.79 76.9704 1151.03 73.7702Z" fill="#A59B87"/>
<path d="M1383.89 187.581C1381.73 189.978 1379.57 192.374 1378.5 195.708C1377.44 199.042 1378.08 202.664 1379.26 206.123C1376.82 202.702 1373.33 198.099 1374.31 195.253C1375.21 192.895 1382.51 183.836 1387.56 182.177C1386.5 184.006 1385.4 186.079 1383.89 187.581Z" fill="#E3DBCB"/>
<path d="M1439.17 147.507C1440.7 150.349 1442.23 153.191 1445.01 155.315C1447.79 157.439 1451.42 158.052 1455.07 158.111C1451.03 159.253 1445.52 160.991 1443.17 159.108C1441.25 157.468 1435.18 147.543 1435.32 142.23C1436.69 143.845 1438.27 145.581 1439.17 147.507Z" fill="#E3DBCB"/>
<path d="M1561.57 84.902C1558.66 83.4991 1555.76 82.0962 1552.26 82.0094C1548.76 81.9226 1545.47 83.5569 1542.47 85.654C1545.08 82.3565 1548.52 77.7139 1551.52 77.8585C1554.04 78.061 1564.78 82.5301 1567.79 86.9124C1565.73 86.4062 1563.43 85.9289 1561.57 84.902Z" fill="#E3DBCB"/>
<path d="M1576.35 184.126C1577.65 182.338 1579.08 179.818 1581.08 178.398C1577.41 185.307 1569.3 191.721 1577.43 198.61C1581.37 202.034 1585.51 207.248 1590.02 210.266C1585.75 208.794 1579.9 203.292 1578.56 202.314C1576.08 200.641 1572.13 198.723 1571.45 195.345C1570.44 190.909 1574.02 187.498 1576.35 184.126Z" fill="#E3DBCB"/>
<path d="M1529.35 161.127C1530.65 159.339 1532.08 156.819 1534.08 155.399C1530.41 162.308 1522.3 168.721 1530.43 175.611C1534.37 179.035 1538.51 184.249 1543.02 187.267C1538.75 185.795 1532.9 180.293 1531.56 179.314C1529.08 177.642 1525.13 175.723 1524.45 172.346C1523.44 167.91 1527.02 164.499 1529.35 161.127Z" fill="#E3DBCB"/>
<path d="M1378.49 142.693C1378.32 143.373 1378.15 144.052 1378.11 144.944C1376.55 150.507 1368.7 149.465 1364.41 150.027C1360.46 150.673 1354.74 152.681 1350.78 150.441C1348.23 149.089 1344.15 146.637 1342.15 143.798C1353.16 148.143 1370.19 151.456 1378.49 142.693Z" fill="#E3DBCB"/>
<path d="M1170.35 74.5485C1170.42 75.046 1170.48 75.5435 1170.69 76.1493C1171.09 80.2703 1165.58 81.6194 1162.86 83.1105C1160.39 84.5694 1157.09 87.4013 1153.87 86.9346C1151.82 86.6956 1148.45 86.1207 1146.38 84.746C1154.86 84.7828 1167.09 82.5611 1170.35 74.5485Z" fill="#E3DBCB"/>
<path d="M1463.99 72.5125C1467.28 75.3251 1469.88 79.2756 1472.36 82.4529C1474.64 85.3452 1479.23 89.3805 1481.58 93.2899C1481.25 95.2419 1480.68 97.1529 1480.11 99.0639C1473.43 101.452 1466.55 103.556 1459.34 104.601C1458.41 104.193 1457.47 103.784 1456.62 102.888C1449.59 96.9362 1442.84 90.7818 1436.05 84.8714C1435.89 82.8371 1435.73 80.8028 1435.61 78.5245C1443.44 73.8192 1455.29 70.5447 1463.99 72.5125Z" fill="#A59B87"/>
<path d="M1635.16 136.267C1635.12 140.597 1633.77 145.129 1632.93 149.07C1632.18 152.672 1632.05 158.784 1630.57 163.102C1628.87 164.107 1627.03 164.898 1625.2 165.689C1619.08 162.114 1613.04 158.2 1607.6 153.357C1607.31 152.378 1607.02 151.4 1607.16 150.17C1607.19 140.957 1607.56 131.833 1607.72 122.834C1609.17 121.403 1610.63 119.971 1612.29 118.415C1620.93 121.374 1631.06 128.337 1635.16 136.267Z" fill="#A59B87"/>
<path d="M1792.31 112.118C1796.42 113.505 1800.3 116.206 1803.78 118.235C1806.97 120.074 1812.73 122.112 1816.37 124.865C1816.79 126.8 1816.97 128.787 1817.15 130.774C1811.84 135.474 1806.23 139.986 1799.93 143.635C1798.91 143.604 1797.89 143.572 1796.76 143.058C1788.02 140.147 1779.47 136.943 1770.97 133.98C1770.07 132.151 1769.16 130.322 1768.21 128.251C1773.72 120.975 1783.5 113.529 1792.31 112.118Z" fill="#A59B87"/>
<path d="M1863.28 179.54C1862.81 182.385 1863.19 185.509 1863.29 188.189C1863.38 190.636 1862.78 194.661 1863.26 197.66C1864.26 198.511 1865.38 199.236 1866.49 199.962C1870.91 198.308 1875.31 196.421 1879.42 193.857C1879.72 193.248 1880.02 192.639 1880.07 191.816C1881.09 185.77 1881.88 179.743 1882.79 173.823C1882 172.72 1881.2 171.617 1880.29 170.408C1874.29 171.375 1866.86 174.8 1863.28 179.54Z" fill="#A59B87"/>
<path d="M1879.74 111.022C1878.75 107.679 1878.73 103.874 1878.45 100.643C1878.19 97.6929 1876.86 92.955 1876.98 89.284C1878.06 88.1111 1879.29 87.0729 1880.51 86.0348C1886.07 87.3533 1891.63 88.9533 1896.95 91.4095C1897.41 92.0955 1897.86 92.7815 1898.04 93.7608C1900.17 100.862 1902.03 107.975 1904.01 114.941C1903.23 116.384 1902.44 117.826 1901.52 119.416C1894.18 119.159 1884.75 116.17 1879.74 111.022Z" fill="#A59B87"/>
<path d="M1708.15 91.4826C1710.09 95.3524 1710.96 100.002 1712.01 103.891C1712.98 107.44 1715.65 112.941 1716.3 117.458C1715.24 119.129 1713.97 120.668 1712.7 122.207C1705.62 121.817 1698.46 121.086 1691.41 119.253C1690.71 118.514 1690.01 117.774 1689.57 116.617C1685.4 108.403 1681.57 100.113 1677.6 92.0323C1678.25 90.0955 1678.89 88.1586 1679.66 86.0128C1688.7 84.7111 1700.89 86.2907 1708.15 91.4826Z" fill="#A59B87"/>
<path d="M1332.45 95.4092C1332.25 95.1241 1331.84 94.5538 1331.64 94.2687C1330.7 92.3551 1326.48 87.6289 1327.34 85.515C1328.24 83.1571 1337 72.8396 1339.44 77.7661C1340.21 79.1506 1340.45 80.6969 1340.98 82.0402C1341.46 83.6276 1342.84 85.8674 1343.04 87.6577C1340.23 90.9479 1336.56 93.3416 1332.45 95.4092Z" fill="#A59B87"/>
<path d="M1604.69 95.719C1604.78 95.3801 1604.96 94.7022 1605.04 94.3633C1605.91 92.4177 1606.81 86.142 1608.98 85.4385C1611.36 84.6094 1624.9 84.6807 1622.69 89.7142C1622.13 91.1954 1621.1 92.3755 1620.41 93.6434C1619.51 95.0368 1618.69 97.5346 1617.44 98.8403C1613.12 98.8039 1608.92 97.5376 1604.69 95.719Z" fill="#A59B87"/>
<path d="M1391.62 86.3208C1392.64 84.736 1394.06 82.2163 1395.9 81.772C1398.13 83.4031 1399.84 85.196 1402.07 86.8271C1402.24 87.3562 1402.64 87.9264 1402.85 88.2116C1404.39 90.9805 1405.56 94.4403 1405.52 97.6947C1405.48 97.9387 1405.44 98.1827 1405.39 98.4267C1403.8 100.417 1402.5 102.205 1400.7 103.91C1397.86 102.929 1393.96 99.2611 1392.82 98.5676C1390.99 97.5067 1388.47 96.0785 1388.1 93.7591C1387.82 90.9517 1389.98 88.5553 1391.62 86.3208Z" fill="#A59B87"/>
<path d="M1649.72 135.159C1651.59 134.919 1654.44 134.392 1655.96 135.508C1656.15 138.269 1655.88 140.729 1656.07 143.49C1655.77 143.955 1655.59 144.633 1655.5 144.971C1654.38 147.934 1652.48 151.06 1649.96 153.119C1649.75 153.244 1649.54 153.37 1649.32 153.495C1646.78 153.559 1644.57 153.71 1642.11 153.435C1641.03 150.624 1641.32 145.277 1641.12 143.959C1640.76 141.876 1640.23 139.027 1641.77 137.257C1643.74 135.236 1646.96 135.348 1649.72 135.159Z" fill="#A59B87"/>
<path d="M1795.82 97.9352C1796.17 96.0849 1796.56 93.2147 1798.1 92.121C1800.78 92.8037 1803.03 93.8335 1805.71 94.5163C1806.06 94.9472 1806.65 95.3256 1806.94 95.5147C1809.41 97.5117 1811.78 100.287 1812.95 103.325C1813 103.566 1813.06 103.808 1813.11 104.05C1812.37 106.489 1811.83 108.634 1810.79 110.884C1807.79 111.032 1802.8 109.078 1801.49 108.857C1799.39 108.553 1796.52 108.164 1795.32 106.146C1794.02 103.644 1795.13 100.616 1795.82 97.9352Z" fill="#A59B87"/>
<path d="M1305.41 83.7864C1307.48 86.3935 1309.8 89.0417 1311.58 91.8518C1312.6 93.2773 1313.61 94.7029 1314.59 96.3725C1314.99 98.4479 1314.01 99.7886 1312.06 100.965C1308.68 103.156 1305.35 99.082 1302.82 97.6538C1300.55 96.2667 1296.81 94.633 1295.79 91.7023C1294.94 89.3007 1293.4 85.0266 1295.03 82.792C1298.29 82.8384 1301.95 83.4549 1305.41 83.7864Z" fill="#A59B87"/>
<path d="M1601.14 106.307C1600.48 109.57 1599.94 113.047 1598.94 116.223C1598.5 117.917 1598.07 119.611 1597.41 121.432C1596.09 123.076 1594.43 123.19 1592.27 122.45C1588.42 121.271 1589.39 116.1 1588.86 113.251C1588.46 110.616 1587.3 106.7 1588.89 104.039C1590.18 101.842 1592.47 97.913 1595.23 97.7239C1597.29 100.246 1599.17 103.446 1601.14 106.307Z" fill="#A59B87"/>
<path d="M1461.06 72.0194C1451.33 73.1415 1432.61 75.5092 1442.77 85.2493C1447.52 89.8138 1453.5 96.0889 1460.05 97.4427C1465.62 98.6321 1474.21 99.8267 1480.27 98.088C1480.23 98.332 1480.15 98.82 1480.11 99.064C1473.43 101.453 1466.55 103.556 1459.34 104.601C1458.41 104.193 1457.47 103.784 1456.62 102.888C1449.59 96.9364 1442.84 90.782 1436.05 84.8716C1435.89 82.8373 1435.73 80.803 1435.62 78.5247C1442.62 74.1841 1452.64 71.3539 1461.06 72.0194Z" fill="#E3DBCB"/>
<path d="M1633.65 133.708C1626.53 126.983 1612.67 114.173 1611.75 128.217C1611.31 134.794 1610.36 143.404 1613.53 149.289C1616.21 154.321 1620.82 161.662 1626.06 165.187C1625.84 165.313 1625.42 165.564 1625.2 165.689C1619.08 162.114 1613.04 158.2 1607.6 153.357C1607.31 152.379 1607.02 151.4 1607.16 150.17C1607.19 140.957 1607.56 131.833 1607.72 122.834C1609.17 121.403 1610.63 119.972 1612.29 118.415C1620.13 120.985 1628.74 126.831 1633.65 133.708Z" fill="#E3DBCB"/>
<path d="M1789.41 112.75C1780.8 117.409 1764.29 126.57 1777.35 131.834C1783.46 134.303 1791.34 137.908 1797.92 136.729C1803.54 135.76 1811.95 133.677 1816.94 129.807C1816.99 130.049 1817.09 130.532 1817.15 130.774C1811.84 135.475 1806.23 139.986 1799.93 143.635C1798.91 143.604 1797.89 143.573 1796.76 143.058C1788.02 140.148 1779.47 136.943 1770.97 133.98C1770.07 132.151 1769.16 130.322 1768.21 128.251C1773.1 121.616 1781.34 115.265 1789.41 112.75Z" fill="#E3DBCB"/>
<path d="M1864.55 178.031C1869.98 174.423 1880.52 167.583 1879.54 176.899C1879.08 181.262 1878.74 187.018 1875.99 190.52C1873.67 193.519 1869.82 197.814 1865.99 199.536C1866.11 199.643 1866.36 199.856 1866.49 199.962C1870.91 198.308 1875.31 196.421 1879.42 193.858C1879.72 193.248 1880.02 192.639 1880.07 191.816C1881.09 185.77 1881.88 179.743 1882.79 173.823C1882 172.72 1881.21 171.617 1880.29 170.408C1874.86 171.211 1868.55 174.075 1864.55 178.031Z" fill="#E3DBCB"/>
<path d="M1881.5 112.64C1888.56 116.152 1902.23 122.77 1899.65 111.74C1898.44 106.574 1897.16 99.719 1893.34 95.9314C1890.1 92.6833 1884.83 88.1101 1879.97 86.6214C1880.11 86.4748 1880.38 86.1816 1880.51 86.0349C1886.07 87.3535 1891.63 88.9534 1896.95 91.4096C1897.41 92.0957 1897.86 92.7817 1898.04 93.761C1900.17 100.862 1902.03 107.975 1904.01 114.941C1903.23 116.384 1902.44 117.826 1901.52 119.416C1894.89 119.27 1886.89 116.785 1881.5 112.64Z" fill="#E3DBCB"/>
<path d="M1705.64 89.8914C1696.24 87.1506 1678.06 82.0668 1683.65 94.9861C1686.26 101.038 1689.33 109.139 1694.84 112.928C1699.52 116.187 1706.97 120.62 1713.23 121.371C1713.1 121.58 1712.83 121.998 1712.7 122.207C1705.62 121.817 1698.46 121.086 1691.41 119.253C1690.71 118.514 1690.01 117.774 1689.57 116.617C1685.4 108.403 1681.57 100.113 1677.6 92.0324C1678.25 90.0955 1678.89 88.1587 1679.66 86.0129C1687.81 84.7313 1698.14 86.0094 1705.64 89.8914Z" fill="#E3DBCB"/>
<path d="M1333.78 80.075C1332.23 81.8215 1330.96 83.3652 1330.11 85.479C1329.49 87.634 1329.81 90.1974 1330.66 92.599C1329.04 90.3181 1326.56 87.1408 1327.38 85.2709C1327.91 83.6039 1332.93 77.6734 1336.39 76.4996C1335.45 77.5964 1334.71 78.9782 1333.78 80.075Z" fill="#E3DBCB"/>
<path d="M1617.29 86.8669C1614.95 86.8049 1612.96 86.8305 1610.79 87.534C1608.74 88.4509 1606.99 90.3465 1605.7 92.5433C1606.4 89.8321 1607.23 85.8909 1609.19 85.313C1610.81 84.6473 1618.58 84.6701 1621.7 86.5643C1620.26 86.5522 1618.73 86.879 1617.29 86.8669Z" fill="#E3DBCB"/>
<path d="M1391.62 86.321C1392.59 84.9803 1393.37 83.3544 1394.8 82.3399C1392.22 87.1764 1387.01 91.3167 1392.25 95.9633C1394.89 98.1646 1397.53 101.871 1400.75 103.667C1397.9 102.685 1394 99.0174 1392.86 98.3238C1391.03 97.263 1388.51 95.8348 1388.14 93.5154C1387.82 90.952 1389.98 88.5556 1391.62 86.321Z" fill="#E3DBCB"/>
<path d="M1649.72 135.159C1651.38 135.045 1653.12 134.593 1654.82 135.032C1649.46 136.175 1642.93 134.847 1642.75 141.85C1642.77 145.289 1641.63 149.695 1642.32 153.309C1641.24 150.498 1641.54 145.152 1641.33 143.834C1640.97 141.751 1640.44 138.902 1641.98 137.132C1643.74 135.236 1646.96 135.348 1649.72 135.159Z" fill="#E3DBCB"/>
<path d="M1795.82 97.9357C1796.23 96.3271 1796.34 94.5293 1797.29 93.0573C1796.7 98.5032 1793.4 104.286 1799.99 106.65C1803.26 107.711 1807.09 110.17 1810.74 110.643C1807.73 110.791 1802.75 108.836 1801.43 108.616C1799.34 108.311 1796.47 107.923 1795.27 105.905C1794.02 103.645 1795.13 100.617 1795.82 97.9357Z" fill="#E3DBCB"/>
<path d="M1313.44 100.194C1313.12 100.641 1312.59 100.803 1312.26 101.25C1308.88 103.441 1305.55 99.367 1303.03 97.9388C1300.75 96.5518 1297.01 94.9181 1296 91.9873C1295.31 90.1149 1294.29 87.1841 1294.46 84.7029C1298.03 91.8282 1305.26 101.075 1313.44 100.194Z" fill="#E3DBCB"/>
<path d="M1593.75 123.014C1593.2 123.052 1592.74 122.751 1592.18 122.789C1588.33 121.61 1589.3 116.439 1588.78 113.59C1588.37 110.954 1587.21 107.039 1588.81 104.378C1589.8 102.645 1591.39 99.9842 1593.39 98.5152C1590.24 105.833 1587.81 117.318 1593.75 123.014Z" fill="#E3DBCB"/>
<path d="M242.014 168.034C238.463 170.329 235.396 173.607 232.491 176.23C229.909 178.689 224.905 181.804 222 185.246C222.161 187.214 222.323 189.181 222.484 191.148C228.456 194.59 234.751 197.705 241.207 200C242.175 199.836 243.144 199.508 244.112 198.852C251.698 194.426 259.123 189.509 266.547 184.755C267.032 182.787 267.516 180.82 268 178.689C261.544 172.46 250.891 167.542 242.014 168.034Z" fill="#A59B87"/>
<path d="M266.147 154C266.479 153.66 266.812 153.319 267.144 152.979C268.475 151.276 273.464 147.36 272.965 144.807C272.466 142.423 265.648 130.336 262.322 135.103C261.49 136.465 260.825 137.827 259.993 139.189C259.162 140.721 257.665 142.594 257 144.466C259.162 148.382 262.488 151.276 266.147 154Z" fill="#A59B87"/>
<path d="M220.798 143.167C219.966 141.333 219.135 138.833 217.306 138C214.978 139.167 212.816 140.667 210.488 142C210.155 142.5 209.823 142.833 209.49 143.167C207.661 145.5 205.665 148.833 205.166 152C205.166 152.167 205.166 152.5 205 152.833C206.164 155 207.328 157.167 208.658 159C211.652 158.5 216.142 155.5 217.139 155C218.969 154.167 221.796 153.333 222.627 151.167C223.791 148.333 221.962 145.667 220.798 143.167Z" fill="#A59B87"/>
<path d="M283.377 182C280.922 184.038 278.304 186.233 276.012 188.585C274.867 189.839 273.557 191.093 272.248 192.348C271.593 194.072 272.248 195.64 274.048 197.051C276.831 199.56 280.922 196.424 283.541 195.327C285.996 194.386 289.924 193.602 291.396 191.093C292.542 189.055 294.833 185.292 293.688 182.941C290.415 182.314 286.814 182.314 283.377 182Z" fill="#A59B87"/>
<path d="M245.181 168C254.277 170.79 271.351 175.877 260.34 183.754C255.234 187.364 248.532 192.615 242.149 192.779C236.723 192.943 228.426 192.779 223 190.154C223 190.482 223 190.81 223 191.138C228.904 194.585 235.128 197.702 241.511 200C242.468 199.836 243.426 199.508 244.383 198.851C251.883 194.42 259.223 189.497 266.564 184.738C267.043 182.769 267.521 180.8 268 178.667C262.255 173.087 253.16 168.492 245.181 168Z" fill="#E3DBCB"/>
<path d="M267.744 138.802C268.853 140.545 269.963 142.287 270.28 144.505C270.597 146.723 269.804 148.941 268.695 151C270.597 149.099 273.291 146.564 272.974 144.663C272.657 143.079 269.012 136.584 266 135C266.317 136.267 266.951 137.535 267.744 138.802Z" fill="#E3DBCB"/>
<path d="M220.758 142.512C220.105 141.124 219.452 139.215 218.309 138C219.942 143.207 224.514 148.587 218.472 152.405C215.532 154.314 212.266 157.438 209 159C211.94 158.479 216.349 155.355 217.329 154.835C219.125 153.967 221.901 153.099 222.718 150.843C223.698 147.893 221.901 145.116 220.758 142.512Z" fill="#E3DBCB"/>
<path d="M273 196.005C273.328 196.311 273.656 196.616 273.984 197.075C276.773 199.52 280.875 196.464 283.5 195.394C285.961 194.476 289.898 193.712 291.375 191.267C292.359 189.738 293.836 187.14 294 185C289.078 190.655 280.547 197.992 273 196.005Z" fill="#E3DBCB"/>
<path d="M88.8617 183C89.2566 182.592 89.6516 182.183 90.0466 181.774C91.6264 179.731 97.551 175.033 96.9585 171.968C96.3661 169.108 88.2692 154.603 84.3195 160.323C83.3321 161.958 82.5422 163.592 81.5547 165.226C80.5673 167.065 78.7899 169.312 78 171.56C80.5673 176.258 84.517 179.936 88.8617 183Z" fill="#A59B87"/>
<path d="M54.2359 168.151C53.2235 165.968 52.2111 162.992 49.9838 162C47.149 163.389 44.5167 165.175 41.6819 166.762C41.277 167.357 40.872 167.754 40.467 168.151C38.2397 170.929 35.8099 174.897 35.2025 178.667C35.2025 178.865 35.2025 179.262 35 179.659C36.4174 182.238 37.8348 184.818 39.4546 187C43.0993 186.405 48.5664 182.833 49.7813 182.238C52.0086 181.246 55.4508 180.254 56.4632 177.675C58.0831 174.302 55.6533 171.127 54.2359 168.151Z" fill="#A59B87"/>
<path d="M149.963 186C146.95 188.548 143.736 191.291 140.924 194.231C139.518 195.603 137.911 197.367 136.305 198.934C135.501 201.09 136.304 203.05 138.514 204.814C141.929 207.95 146.95 204.03 150.164 202.658C153.177 201.482 157.997 200.502 159.805 197.367C161.211 194.819 164.023 190.115 162.617 187.176C158.6 186.392 154.382 186.196 149.963 186Z" fill="#A59B87"/>
<path d="M90.2418 163.99C91.6683 166.277 93.0949 168.564 93.5025 171.475C93.9101 174.386 92.8911 177.297 91.4645 180C93.9101 177.505 97.3747 174.178 96.9671 171.683C96.5595 169.604 91.8721 161.079 88 159C88.6114 160.663 89.2228 162.535 90.2418 163.99Z" fill="#E3DBCB"/>
<path d="M54.049 168.157C53.2129 166.57 52.3769 164.388 50.9138 163C53.0039 168.95 58.8563 175.099 51.1228 179.463C47.3605 181.645 43.1803 185.215 39 187C42.7622 186.405 48.4056 182.835 49.6597 182.24C51.9588 181.248 55.5121 180.256 56.5571 177.678C58.0202 174.306 55.5121 171.132 54.049 168.157Z" fill="#E3DBCB"/>
<path d="M138 203.545C138.391 203.921 138.781 204.297 139.172 204.861C142.492 207.871 147.375 204.109 150.5 202.792C153.43 201.663 158.117 200.723 159.875 197.713C161.047 195.832 162.805 192.634 163 190C157.141 197.148 146.984 205.99 138 203.545Z" fill="#E3DBCB"/>
<path d="M130.409 94.0282C127.301 95.9499 124.606 98.9393 122.119 101.288C119.839 103.423 115.487 106.199 113 109.188C113 110.897 113.207 112.605 113.415 114.313C118.596 117.302 123.984 120.078 129.788 122C130.617 121.786 131.446 121.573 132.275 120.932C138.907 116.875 145.332 112.605 151.756 108.548C152.171 106.84 152.585 105.132 153 103.21C147.197 98.0852 138.078 93.6012 130.409 94.0282Z" fill="#A59B87"/>
<path d="M203.922 99C204.109 98.8103 204.484 98.4309 204.671 98.2411C205.606 96.9131 209.348 93.8777 208.974 92.1703C208.6 90.2732 203.361 81.3566 200.929 84.7714C200.181 85.72 199.806 86.8583 199.245 87.8069C198.684 88.9451 197.374 90.4629 197 91.7909C198.684 94.6366 201.116 96.9131 203.922 99Z" fill="#A59B87"/>
<path d="M90.5966 119.197C89.8539 117.465 88.8636 114.743 87.1306 114C84.6549 115.238 82.6743 116.722 80.1986 117.96C79.951 118.454 79.4558 118.949 79.2083 119.197C77.2277 121.671 75.4947 124.888 74.9995 128.105C74.9995 128.352 74.9995 128.6 74.9995 128.847C76.2374 131.074 77.2277 133.054 78.7131 135.033C81.684 134.538 86.1403 131.569 87.3782 131.074C89.3587 130.332 92.0821 129.342 92.8248 127.115C93.5675 124.393 91.8345 121.671 90.5966 119.197Z" fill="#A59B87"/>
<path d="M172.785 107C170.666 108.981 168.334 110.963 166.426 113.165C165.366 114.265 164.306 115.366 163.246 116.687C162.61 118.448 163.246 119.769 164.73 121.09C167.274 123.512 170.666 120.43 172.997 119.549C175.117 118.669 178.509 117.788 179.781 115.366C180.841 113.385 182.749 109.862 181.689 107.66C178.933 107.22 175.753 107.22 172.785 107Z" fill="#A59B87"/>
<path d="M132.686 94.0001C140.644 96.3513 155.932 101.054 146.089 107.893C141.482 111.099 135.618 115.588 129.963 115.802C125.147 116.015 117.817 115.802 113 113.45C113 113.664 113 114.092 113 114.305C118.236 117.298 123.681 120.076 129.545 122C130.382 121.786 131.22 121.573 132.058 120.931C138.759 116.87 145.251 112.596 151.743 108.534C152.162 106.825 152.581 105.115 153 103.191C147.764 98.4887 139.806 94.6413 132.686 94.0001Z" fill="#E3DBCB"/>
<path d="M204.588 87.8236C205.581 89.2354 206.375 90.4707 206.772 92.0589C206.971 93.6472 206.375 95.4119 205.382 97.0001C206.971 95.5883 209.353 93.6472 208.956 92.2354C208.758 91.0001 205.581 86.2354 203 85.0001C203.596 85.8825 203.993 86.9413 204.588 87.8236Z" fill="#E3DBCB"/>
<path d="M90.5964 119.197C89.8537 117.712 89.3585 115.98 88.1207 114.743C89.8537 119.939 94.31 124.888 88.3682 128.6C85.3974 130.332 82.1789 133.549 78.7129 134.786C81.6838 134.291 86.1401 131.322 87.3779 130.827C89.3585 130.084 92.0818 129.095 92.8246 126.868C93.5673 124.393 91.8343 121.671 90.5964 119.197Z" fill="#E3DBCB"/>
<path d="M164 119.958C164.209 120.405 164.628 120.629 164.837 121.076C167.349 123.536 170.698 120.405 173 119.511C175.093 118.616 178.442 117.722 179.698 115.262C180.535 113.696 181.791 111.236 182 109C177.814 114.815 170.488 121.971 164 119.958Z" fill="#E3DBCB"/>
</g>
<defs>
<clipPath id="clip0">
<rect width="1920" height="250" fill="white"/>
</clipPath>
</defs>
</svg>
