<svg width="1920" height="17" viewBox="0 0 1920 17" fill="none" xmlns="http://www.w3.org/2000/svg">
<path d="M2471 1.48745H1825V7.64995H2471V1.48745Z" fill="#2C515E"/>
<path d="M2471 1.48745H1825V2.97495H2471V1.48745Z" fill="#25444F"/>
<path d="M2471 0H1825V1.7H2471V0Z" fill="#8AA9B5"/>
<path d="M1844.55 7.86245H1830.1V16.9999H1844.55V7.86245Z" fill="#335E6E"/>
<path d="M1844.76 7.86245H1830.1L1831.37 10.8374C1831.8 11.6874 1832.65 12.3249 1833.71 12.3249H1841.15C1842.21 12.3249 1843.06 11.6874 1843.49 10.8374L1844.76 7.86245Z" fill="#8AA9B5"/>
<path d="M1840.09 8.28739H1834.77V9.98739H1840.09V8.28739Z" fill="#2C515E"/>
<path d="M1838.81 6.79995H1835.84V8.28745H1838.81V6.79995Z" fill="#3F7487"/>
<path d="M1881.1 7.86245H1866.65V16.9999H1881.1V7.86245Z" fill="#335E6E"/>
<path d="M1881.1 7.86245H1866.65L1867.92 11.0499C1868.35 11.8999 1869.2 12.5374 1870.26 12.5374H1877.7C1878.76 12.5374 1879.61 11.8999 1880.04 11.0499L1881.1 7.86245Z" fill="#8AA9B5"/>
<path d="M1876.64 8.28739H1871.32V9.98739H1876.64V8.28739Z" fill="#2C515E"/>
<path d="M1875.36 6.79995H1872.39V8.28745H1875.36V6.79995Z" fill="#3F7487"/>
<path d="M1917.65 7.86245H1903.2V16.9999H1917.65V7.86245Z" fill="#335E6E"/>
<path d="M1917.65 7.86245H1903.2L1904.47 11.0499C1904.9 11.8999 1905.75 12.5374 1906.81 12.5374H1914.25C1915.31 12.5374 1916.16 11.8999 1916.59 11.0499L1917.65 7.86245Z" fill="#8AA9B5"/>
<path d="M1912.97 8.28739H1907.66V9.98739H1912.97V8.28739Z" fill="#2C515E"/>
<path d="M1911.91 6.79995H1908.94V8.28745H1911.91V6.79995Z" fill="#3F7487"/>
<path d="M1825 1.48745H1179V7.64995H1825V1.48745Z" fill="#2C515E"/>
<path d="M1825 1.48745H1179V2.97495H1825V1.48745Z" fill="#25444F"/>
<path d="M1825 0H1179V1.7H1825V0Z" fill="#8AA9B5"/>
<path d="M1198.55 7.86245H1184.1V16.9999H1198.55V7.86245Z" fill="#335E6E"/>
<path d="M1198.76 7.86245H1184.1L1185.38 10.8374C1185.8 11.6874 1186.65 12.3249 1187.71 12.3249H1195.15C1196.21 12.3249 1197.06 11.6874 1197.49 10.8374L1198.76 7.86245Z" fill="#8AA9B5"/>
<path d="M1194.09 8.28739H1188.77V9.98739H1194.09V8.28739Z" fill="#2C515E"/>
<path d="M1192.81 6.79995H1189.84V8.28745H1192.81V6.79995Z" fill="#3F7487"/>
<path d="M1235.1 7.86245H1220.65V16.9999H1235.1V7.86245Z" fill="#335E6E"/>
<path d="M1235.1 7.86245H1220.65L1221.92 11.0499C1222.35 11.8999 1223.2 12.5374 1224.26 12.5374H1231.7C1232.76 12.5374 1233.61 11.8999 1234.04 11.0499L1235.1 7.86245Z" fill="#8AA9B5"/>
<path d="M1230.64 8.28739H1225.32V9.98739H1230.64V8.28739Z" fill="#2C515E"/>
<path d="M1229.36 6.79995H1226.39V8.28745H1229.36V6.79995Z" fill="#3F7487"/>
<path d="M1271.65 7.86245H1257.2V16.9999H1271.65V7.86245Z" fill="#335E6E"/>
<path d="M1271.65 7.86245H1257.2L1258.48 11.0499C1258.9 11.8999 1259.75 12.5374 1260.81 12.5374H1268.25C1269.31 12.5374 1270.16 11.8999 1270.59 11.0499L1271.65 7.86245Z" fill="#8AA9B5"/>
<path d="M1266.98 8.28739H1261.66V9.98739H1266.98V8.28739Z" fill="#2C515E"/>
<path d="M1265.91 6.79995H1262.94V8.28745H1265.91V6.79995Z" fill="#3F7487"/>
<path d="M1307.99 7.86245H1293.54V16.9999H1307.99V7.86245Z" fill="#335E6E"/>
<path d="M1308.2 7.86245H1293.75L1295.02 11.0499C1295.45 11.8999 1296.3 12.5374 1297.36 12.5374H1304.8C1305.86 12.5374 1306.71 11.8999 1307.14 11.0499L1308.2 7.86245Z" fill="#8AA9B5"/>
<path d="M1303.52 8.28739H1298.21V9.98739H1303.52V8.28739Z" fill="#2C515E"/>
<path d="M1302.25 6.79995H1299.27V8.28745H1302.25V6.79995Z" fill="#3F7487"/>
<path d="M1344.54 7.86245H1330.09V16.9999H1344.54V7.86245Z" fill="#335E6E"/>
<path d="M1344.54 7.86245H1330.09L1331.36 11.0499C1331.79 11.8999 1332.64 12.5374 1333.7 12.5374H1341.14C1342.2 12.5374 1343.05 11.8999 1343.47 11.0499L1344.54 7.86245Z" fill="#8AA9B5"/>
<path d="M1340.07 8.28739H1334.76V9.98739H1340.07V8.28739Z" fill="#2C515E"/>
<path d="M1338.8 6.79995H1335.82V8.28745H1338.8V6.79995Z" fill="#3F7487"/>
<path d="M1381.09 7.86245H1366.64V16.9999H1381.09V7.86245Z" fill="#335E6E"/>
<path d="M1381.09 7.86245H1366.64L1367.91 11.0499C1368.34 11.8999 1369.19 12.5374 1370.25 12.5374H1377.69C1378.75 12.5374 1379.6 11.8999 1380.03 11.0499L1381.09 7.86245Z" fill="#8AA9B5"/>
<path d="M1376.62 8.28739H1371.31V9.98739H1376.62V8.28739Z" fill="#2C515E"/>
<path d="M1375.35 6.79995H1372.38V8.28745H1375.35V6.79995Z" fill="#3F7487"/>
<path d="M1417.43 7.86245H1402.98V16.9999H1417.43V7.86245Z" fill="#335E6E"/>
<path d="M1417.64 7.86245H1403.19L1404.46 11.0499C1404.89 11.8999 1405.74 12.5374 1406.8 12.5374H1414.24C1415.3 12.5374 1416.15 11.8999 1416.58 11.0499L1417.64 7.86245Z" fill="#8AA9B5"/>
<path d="M1412.96 8.28739H1407.65V9.98739H1412.96V8.28739Z" fill="#2C515E"/>
<path d="M1411.9 6.79995H1408.93V8.28745H1411.9V6.79995Z" fill="#3F7487"/>
<path d="M1453.97 7.86245H1439.52V16.9999H1453.97V7.86245Z" fill="#335E6E"/>
<path d="M1453.97 7.86245H1439.52L1440.8 11.0499C1441.22 11.8999 1442.07 12.5374 1443.14 12.5374H1450.57C1451.64 12.5374 1452.49 11.8999 1452.91 11.0499L1453.97 7.86245Z" fill="#8AA9B5"/>
<path d="M1449.51 8.28739H1444.2V9.98739H1449.51V8.28739Z" fill="#2C515E"/>
<path d="M1448.24 6.79995H1445.26V8.28745H1448.24V6.79995Z" fill="#3F7487"/>
<path d="M1490.53 7.86245H1476.08V16.9999H1490.53V7.86245Z" fill="#335E6E"/>
<path d="M1490.53 7.86245H1476.08L1477.35 11.0499C1477.78 11.8999 1478.63 12.5374 1479.69 12.5374H1487.13C1488.19 12.5374 1489.04 11.8999 1489.46 11.0499L1490.53 7.86245Z" fill="#8AA9B5"/>
<path d="M1486.06 8.28739H1480.75V9.98739H1486.06V8.28739Z" fill="#2C515E"/>
<path d="M1484.79 6.79995H1481.81V8.28745H1484.79V6.79995Z" fill="#3F7487"/>
<path d="M1526.86 7.86245H1512.41V16.9999H1526.86V7.86245Z" fill="#335E6E"/>
<path d="M1527.08 7.86245H1512.62L1513.9 11.0499C1514.33 11.8999 1515.17 12.5374 1516.24 12.5374H1523.67C1524.74 12.5374 1525.59 11.8999 1526.01 11.0499L1527.08 7.86245Z" fill="#8AA9B5"/>
<path d="M1522.4 8.28739H1517.09V9.98739H1522.4V8.28739Z" fill="#2C515E"/>
<path d="M1521.34 6.79995H1518.36V8.28745H1521.34V6.79995Z" fill="#3F7487"/>
<path d="M1563.41 7.86245H1548.96V16.9999H1563.41V7.86245Z" fill="#335E6E"/>
<path d="M1563.62 7.86245H1549.17L1550.45 11.0499C1550.87 11.8999 1551.72 12.5374 1552.79 12.5374H1560.22C1561.29 12.5374 1562.14 11.8999 1562.56 11.0499L1563.62 7.86245Z" fill="#8AA9B5"/>
<path d="M1558.95 8.28739H1553.64V9.98739H1558.95V8.28739Z" fill="#2C515E"/>
<path d="M1557.67 6.79995H1554.7V8.28745H1557.67V6.79995Z" fill="#3F7487"/>
<path d="M1599.96 7.86245H1585.51V16.9999H1599.96V7.86245Z" fill="#335E6E"/>
<path d="M1599.96 7.86245H1585.51L1586.79 11.0499C1587.21 11.8999 1588.06 12.5374 1589.13 12.5374H1596.56C1597.63 12.5374 1598.48 11.8999 1598.9 11.0499L1599.96 7.86245Z" fill="#8AA9B5"/>
<path d="M1595.5 8.28739H1590.19V9.98739H1595.5V8.28739Z" fill="#2C515E"/>
<path d="M1594.22 6.79995H1591.25V8.28745H1594.22V6.79995Z" fill="#3F7487"/>
<path d="M1636.3 7.86245H1621.85V16.9999H1636.3V7.86245Z" fill="#335E6E"/>
<path d="M1636.51 7.86245H1622.06L1623.34 11.0499C1623.76 11.8999 1624.61 12.5374 1625.67 12.5374H1633.11C1634.17 12.5374 1635.03 11.8999 1635.45 11.0499L1636.51 7.86245Z" fill="#8AA9B5"/>
<path d="M1631.84 8.28739H1626.53V9.98739H1631.84V8.28739Z" fill="#2C515E"/>
<path d="M1630.78 6.79995H1627.8V8.28745H1630.78V6.79995Z" fill="#3F7487"/>
<path d="M1672.85 7.86245H1658.4V16.9999H1672.85V7.86245Z" fill="#335E6E"/>
<path d="M1673.06 7.86245H1658.61L1659.89 11.0499C1660.31 11.8999 1661.16 12.5374 1662.22 12.5374H1669.66C1670.72 12.5374 1671.57 11.8999 1672 11.0499L1673.06 7.86245Z" fill="#8AA9B5"/>
<path d="M1668.39 8.28739H1663.08V9.98739H1668.39V8.28739Z" fill="#2C515E"/>
<path d="M1667.11 6.79995H1664.14V8.28745H1667.11V6.79995Z" fill="#3F7487"/>
<path d="M1709.4 7.86245H1694.95V16.9999H1709.4V7.86245Z" fill="#335E6E"/>
<path d="M1709.4 7.86245H1694.95L1696.23 11.0499C1696.65 11.8999 1697.5 12.5374 1698.56 12.5374H1706C1707.06 12.5374 1707.91 11.8999 1708.34 11.0499L1709.4 7.86245Z" fill="#8AA9B5"/>
<path d="M1704.94 8.28739H1699.63V9.98739H1704.94V8.28739Z" fill="#2C515E"/>
<path d="M1703.66 6.79995H1700.69V8.28745H1703.66V6.79995Z" fill="#3F7487"/>
<path d="M1745.95 7.86245H1731.5V16.9999H1745.95V7.86245Z" fill="#335E6E"/>
<path d="M1745.95 7.86245H1731.5L1732.78 11.0499C1733.2 11.8999 1734.05 12.5374 1735.11 12.5374H1742.55C1743.61 12.5374 1744.46 11.8999 1744.89 11.0499L1745.95 7.86245Z" fill="#8AA9B5"/>
<path d="M1741.27 8.28739H1735.96V9.98739H1741.27V8.28739Z" fill="#2C515E"/>
<path d="M1740.21 6.79995H1737.24V8.28745H1740.21V6.79995Z" fill="#3F7487"/>
<path d="M1782.29 7.86245H1767.84V16.9999H1782.29V7.86245Z" fill="#335E6E"/>
<path d="M1782.5 7.86245H1768.05L1769.33 11.0499C1769.75 11.8999 1770.6 12.5374 1771.66 12.5374H1779.1C1780.16 12.5374 1781.01 11.8999 1781.44 11.0499L1782.5 7.86245Z" fill="#8AA9B5"/>
<path d="M1777.83 8.28739H1772.51V9.98739H1777.83V8.28739Z" fill="#2C515E"/>
<path d="M1776.55 6.79995H1773.58V8.28745H1776.55V6.79995Z" fill="#3F7487"/>
<path d="M1818.84 7.86245H1804.39V16.9999H1818.84V7.86245Z" fill="#335E6E"/>
<path d="M1818.84 7.86245H1804.39L1805.66 11.0499C1806.09 11.8999 1806.94 12.5374 1808 12.5374H1815.44C1816.5 12.5374 1817.35 11.8999 1817.78 11.0499L1818.84 7.86245Z" fill="#8AA9B5"/>
<path d="M1814.38 8.28739H1809.06V9.98739H1814.38V8.28739Z" fill="#2C515E"/>
<path d="M1813.1 6.79995H1810.12V8.28745H1813.1V6.79995Z" fill="#3F7487"/>
<path d="M1179 1.48745H533V7.64995H1179V1.48745Z" fill="#2C515E"/>
<path d="M1179 1.48745H533V2.97495H1179V1.48745Z" fill="#25444F"/>
<path d="M1179 0H533V1.7H1179V0Z" fill="#8AA9B5"/>
<path d="M552.55 7.86245H538.1V16.9999H552.55V7.86245Z" fill="#335E6E"/>
<path d="M552.763 7.86245H538.1L539.375 10.8374C539.8 11.6874 540.65 12.3249 541.713 12.3249H549.15C550.213 12.3249 551.063 11.6874 551.488 10.8374L552.763 7.86245Z" fill="#8AA9B5"/>
<path d="M548.087 8.28739H542.775V9.98739H548.087V8.28739Z" fill="#2C515E"/>
<path d="M546.812 6.79995H543.837V8.28745H546.812V6.79995Z" fill="#3F7487"/>
<path d="M589.1 7.86245H574.65V16.9999H589.1V7.86245Z" fill="#335E6E"/>
<path d="M589.1 7.86245H574.65L575.925 11.0499C576.35 11.8999 577.2 12.5374 578.262 12.5374H585.7C586.762 12.5374 587.612 11.8999 588.037 11.0499L589.1 7.86245Z" fill="#8AA9B5"/>
<path d="M584.637 8.28739H579.325V9.98739H584.637V8.28739Z" fill="#2C515E"/>
<path d="M583.362 6.79995H580.387V8.28745H583.362V6.79995Z" fill="#3F7487"/>
<path d="M625.65 7.86245H611.2V16.9999H625.65V7.86245Z" fill="#335E6E"/>
<path d="M625.65 7.86245H611.2L612.475 11.0499C612.9 11.8999 613.75 12.5374 614.813 12.5374H622.25C623.313 12.5374 624.163 11.8999 624.588 11.0499L625.65 7.86245Z" fill="#8AA9B5"/>
<path d="M620.975 8.28739H615.663V9.98739H620.975V8.28739Z" fill="#2C515E"/>
<path d="M619.913 6.79995H616.938V8.28745H619.913V6.79995Z" fill="#3F7487"/>
<path d="M661.988 7.86245H647.538V16.9999H661.988V7.86245Z" fill="#335E6E"/>
<path d="M662.2 7.86245H647.75L649.025 11.0499C649.45 11.8999 650.3 12.5374 651.363 12.5374H658.8C659.863 12.5374 660.713 11.8999 661.138 11.0499L662.2 7.86245Z" fill="#8AA9B5"/>
<path d="M657.525 8.28739H652.212V9.98739H657.525V8.28739Z" fill="#2C515E"/>
<path d="M656.25 6.79995H653.275V8.28745H656.25V6.79995Z" fill="#3F7487"/>
<path d="M698.537 7.86245H684.087V16.9999H698.537V7.86245Z" fill="#335E6E"/>
<path d="M698.537 7.86245H684.087L685.362 11.0499C685.787 11.8999 686.637 12.5374 687.7 12.5374H695.137C696.2 12.5374 697.05 11.8999 697.475 11.0499L698.537 7.86245Z" fill="#8AA9B5"/>
<path d="M694.075 8.28739H688.762V9.98739H694.075V8.28739Z" fill="#2C515E"/>
<path d="M692.8 6.79995H689.825V8.28745H692.8V6.79995Z" fill="#3F7487"/>
<path d="M735.088 7.86245H720.638V16.9999H735.088V7.86245Z" fill="#335E6E"/>
<path d="M735.088 7.86245H720.638L721.913 11.0499C722.338 11.8999 723.188 12.5374 724.25 12.5374H731.688C732.75 12.5374 733.6 11.8999 734.025 11.0499L735.088 7.86245Z" fill="#8AA9B5"/>
<path d="M730.625 8.28739H725.312V9.98739H730.625V8.28739Z" fill="#2C515E"/>
<path d="M729.35 6.79995H726.375V8.28745H729.35V6.79995Z" fill="#3F7487"/>
<path d="M771.425 7.86245H756.975V16.9999H771.425V7.86245Z" fill="#335E6E"/>
<path d="M771.638 7.86245H757.188L758.462 11.0499C758.887 11.8999 759.737 12.5374 760.8 12.5374H768.237C769.3 12.5374 770.15 11.8999 770.575 11.0499L771.638 7.86245Z" fill="#8AA9B5"/>
<path d="M766.962 8.28739H761.65V9.98739H766.962V8.28739Z" fill="#2C515E"/>
<path d="M765.9 6.79995H762.925V8.28745H765.9V6.79995Z" fill="#3F7487"/>
<path d="M807.975 7.86245H793.525V16.9999H807.975V7.86245Z" fill="#335E6E"/>
<path d="M807.975 7.86245H793.525L794.8 11.0499C795.225 11.8999 796.075 12.5374 797.137 12.5374H804.575C805.637 12.5374 806.487 11.8999 806.912 11.0499L807.975 7.86245Z" fill="#8AA9B5"/>
<path d="M803.512 8.28739H798.2V9.98739H803.512V8.28739Z" fill="#2C515E"/>
<path d="M802.237 6.79995H799.262V8.28745H802.237V6.79995Z" fill="#3F7487"/>
<path d="M844.525 7.86245H830.075V16.9999H844.525V7.86245Z" fill="#335E6E"/>
<path d="M844.525 7.86245H830.075L831.35 11.0499C831.775 11.8999 832.625 12.5374 833.688 12.5374H841.125C842.188 12.5374 843.038 11.8999 843.463 11.0499L844.525 7.86245Z" fill="#8AA9B5"/>
<path d="M840.062 8.28739H834.75V9.98739H840.062V8.28739Z" fill="#2C515E"/>
<path d="M838.787 6.79995H835.812V8.28745H838.787V6.79995Z" fill="#3F7487"/>
<path d="M880.863 7.86245H866.413V16.9999H880.863V7.86245Z" fill="#335E6E"/>
<path d="M881.075 7.86245H866.625L867.9 11.0499C868.325 11.8999 869.175 12.5374 870.237 12.5374H877.675C878.737 12.5374 879.588 11.8999 880.013 11.0499L881.075 7.86245Z" fill="#8AA9B5"/>
<path d="M876.4 8.28739H871.087V9.98739H876.4V8.28739Z" fill="#2C515E"/>
<path d="M875.338 6.79995H872.363V8.28745H875.338V6.79995Z" fill="#3F7487"/>
<path d="M917.412 7.86245H902.962V16.9999H917.412V7.86245Z" fill="#335E6E"/>
<path d="M917.625 7.86245H903.175L904.45 11.0499C904.875 11.8999 905.725 12.5374 906.787 12.5374H914.225C915.287 12.5374 916.137 11.8999 916.562 11.0499L917.625 7.86245Z" fill="#8AA9B5"/>
<path d="M912.95 8.28739H907.637V9.98739H912.95V8.28739Z" fill="#2C515E"/>
<path d="M911.675 6.79995H908.7V8.28745H911.675V6.79995Z" fill="#3F7487"/>
<path d="M953.963 7.86245H939.513V16.9999H953.963V7.86245Z" fill="#335E6E"/>
<path d="M953.963 7.86245H939.513L940.788 11.0499C941.213 11.8999 942.063 12.5374 943.125 12.5374H950.563C951.625 12.5374 952.475 11.8999 952.9 11.0499L953.963 7.86245Z" fill="#8AA9B5"/>
<path d="M949.5 8.28739H944.188V9.98739H949.5V8.28739Z" fill="#2C515E"/>
<path d="M948.225 6.79995H945.25V8.28745H948.225V6.79995Z" fill="#3F7487"/>
<path d="M990.3 7.86245H975.85V16.9999H990.3V7.86245Z" fill="#335E6E"/>
<path d="M990.513 7.86245H976.062L977.338 11.0499C977.763 11.8999 978.612 12.5374 979.675 12.5374H987.112C988.175 12.5374 989.025 11.8999 989.45 11.0499L990.513 7.86245Z" fill="#8AA9B5"/>
<path d="M985.838 8.28739H980.525V9.98739H985.838V8.28739Z" fill="#2C515E"/>
<path d="M984.775 6.79995H981.8V8.28745H984.775V6.79995Z" fill="#3F7487"/>
<path d="M1026.85 7.86245H1012.4V16.9999H1026.85V7.86245Z" fill="#335E6E"/>
<path d="M1027.06 7.86245H1012.61L1013.89 11.0499C1014.31 11.8999 1015.16 12.5374 1016.22 12.5374H1023.66C1024.72 12.5374 1025.57 11.8999 1026 11.0499L1027.06 7.86245Z" fill="#8AA9B5"/>
<path d="M1022.39 8.28739H1017.08V9.98739H1022.39V8.28739Z" fill="#2C515E"/>
<path d="M1021.11 6.79995H1018.14V8.28745H1021.11V6.79995Z" fill="#3F7487"/>
<path d="M1063.4 7.86245H1048.95V16.9999H1063.4V7.86245Z" fill="#335E6E"/>
<path d="M1063.4 7.86245H1048.95L1050.23 11.0499C1050.65 11.8999 1051.5 12.5374 1052.56 12.5374H1060C1061.06 12.5374 1061.91 11.8999 1062.34 11.0499L1063.4 7.86245Z" fill="#8AA9B5"/>
<path d="M1058.94 8.28739H1053.63V9.98739H1058.94V8.28739Z" fill="#2C515E"/>
<path d="M1057.66 6.79995H1054.69V8.28745H1057.66V6.79995Z" fill="#3F7487"/>
<path d="M1099.95 7.86245H1085.5V16.9999H1099.95V7.86245Z" fill="#335E6E"/>
<path d="M1099.95 7.86245H1085.5L1086.78 11.0499C1087.2 11.8999 1088.05 12.5374 1089.11 12.5374H1096.55C1097.61 12.5374 1098.46 11.8999 1098.89 11.0499L1099.95 7.86245Z" fill="#8AA9B5"/>
<path d="M1095.27 8.28739H1089.96V9.98739H1095.27V8.28739Z" fill="#2C515E"/>
<path d="M1094.21 6.79995H1091.24V8.28745H1094.21V6.79995Z" fill="#3F7487"/>
<path d="M1136.29 7.86245H1121.84V16.9999H1136.29V7.86245Z" fill="#335E6E"/>
<path d="M1136.5 7.86245H1122.05L1123.33 11.0499C1123.75 11.8999 1124.6 12.5374 1125.66 12.5374H1133.1C1134.16 12.5374 1135.01 11.8999 1135.44 11.0499L1136.5 7.86245Z" fill="#8AA9B5"/>
<path d="M1131.83 8.28739H1126.51V9.98739H1131.83V8.28739Z" fill="#2C515E"/>
<path d="M1130.55 6.79995H1127.58V8.28745H1130.55V6.79995Z" fill="#3F7487"/>
<path d="M1172.84 7.86245H1158.39V16.9999H1172.84V7.86245Z" fill="#335E6E"/>
<path d="M1172.84 7.86245H1158.39L1159.66 11.0499C1160.09 11.8999 1160.94 12.5374 1162 12.5374H1169.44C1170.5 12.5374 1171.35 11.8999 1171.78 11.0499L1172.84 7.86245Z" fill="#8AA9B5"/>
<path d="M1168.38 8.28739H1163.06V9.98739H1168.38V8.28739Z" fill="#2C515E"/>
<path d="M1167.1 6.79995H1164.13V8.28745H1167.1V6.79995Z" fill="#3F7487"/>
<path d="M533 1.48745H-113V7.64995H533V1.48745Z" fill="#2C515E"/>
<path d="M533 1.48745H-113V2.97495H533V1.48745Z" fill="#25444F"/>
<path d="M533 0H-113V1.7H533V0Z" fill="#8AA9B5"/>
<path d="M15.9876 7.86245H1.5376V16.9999H15.9876V7.86245Z" fill="#335E6E"/>
<path d="M16.2 7.86245H1.75L3.025 11.0499C3.45 11.8999 4.3 12.5374 5.3625 12.5374H12.8C13.8625 12.5374 14.7125 11.8999 15.1375 11.0499L16.2 7.86245Z" fill="#8AA9B5"/>
<path d="M11.5249 8.28739H6.2124V9.98739H11.5249V8.28739Z" fill="#2C515E"/>
<path d="M10.2499 6.79995H7.2749V8.28745H10.2499V6.79995Z" fill="#3F7487"/>
<path d="M52.5374 7.86245H38.0874V16.9999H52.5374V7.86245Z" fill="#335E6E"/>
<path d="M52.5374 7.86245H38.0874L39.3624 11.0499C39.7874 11.8999 40.6374 12.5374 41.6999 12.5374H49.1374C50.1999 12.5374 51.0499 11.8999 51.4749 11.0499L52.5374 7.86245Z" fill="#8AA9B5"/>
<path d="M48.0747 8.28739H42.7622V9.98739H48.0747V8.28739Z" fill="#2C515E"/>
<path d="M46.7997 6.79995H43.8247V8.28745H46.7997V6.79995Z" fill="#3F7487"/>
<path d="M89.0877 7.86245H74.6377V16.9999H89.0877V7.86245Z" fill="#335E6E"/>
<path d="M89.0877 7.86245H74.6377L75.9127 11.0499C76.3377 11.8999 77.1877 12.5374 78.2502 12.5374H85.6877C86.7502 12.5374 87.6002 11.8999 88.0252 11.0499L89.0877 7.86245Z" fill="#8AA9B5"/>
<path d="M84.625 8.28739H79.3125V9.98739H84.625V8.28739Z" fill="#2C515E"/>
<path d="M83.35 6.79995H80.375V8.28745H83.35V6.79995Z" fill="#3F7487"/>
<path d="M125.425 7.86245H110.975V16.9999H125.425V7.86245Z" fill="#335E6E"/>
<path d="M125.638 7.86245H111.188L112.462 11.0499C112.887 11.8999 113.737 12.5374 114.8 12.5374H122.237C123.3 12.5374 124.15 11.8999 124.575 11.0499L125.638 7.86245Z" fill="#8AA9B5"/>
<path d="M120.962 8.28739H115.65V9.98739H120.962V8.28739Z" fill="#2C515E"/>
<path d="M119.9 6.79995H116.925V8.28745H119.9V6.79995Z" fill="#3F7487"/>
<path d="M161.975 7.86245H147.525V16.9999H161.975V7.86245Z" fill="#335E6E"/>
<path d="M161.975 7.86245H147.525L148.8 11.0499C149.225 11.8999 150.075 12.5374 151.137 12.5374H158.575C159.637 12.5374 160.487 11.8999 160.912 11.0499L161.975 7.86245Z" fill="#8AA9B5"/>
<path d="M157.512 8.28739H152.2V9.98739H157.512V8.28739Z" fill="#2C515E"/>
<path d="M156.237 6.79995H153.262V8.28745H156.237V6.79995Z" fill="#3F7487"/>
<path d="M198.525 7.86245H184.075V16.9999H198.525V7.86245Z" fill="#335E6E"/>
<path d="M198.525 7.86245H184.075L185.35 11.0499C185.775 11.8999 186.625 12.5374 187.688 12.5374H195.125C196.188 12.5374 197.038 11.8999 197.463 11.0499L198.525 7.86245Z" fill="#8AA9B5"/>
<path d="M194.062 8.28739H188.75V9.98739H194.062V8.28739Z" fill="#2C515E"/>
<path d="M192.787 6.79995H189.812V8.28745H192.787V6.79995Z" fill="#3F7487"/>
<path d="M234.863 7.86245H220.413V16.9999H234.863V7.86245Z" fill="#335E6E"/>
<path d="M235.075 7.86245H220.625L221.9 11.0499C222.325 11.8999 223.175 12.5374 224.237 12.5374H231.675C232.737 12.5374 233.588 11.8999 234.013 11.0499L235.075 7.86245Z" fill="#8AA9B5"/>
<path d="M230.4 8.28739H225.088V9.98739H230.4V8.28739Z" fill="#2C515E"/>
<path d="M229.338 6.79995H226.363V8.28745H229.338V6.79995Z" fill="#3F7487"/>
<path d="M271.413 7.86245H256.963V16.9999H271.413V7.86245Z" fill="#335E6E"/>
<path d="M271.625 7.86245H257.175L258.45 11.0499C258.875 11.8999 259.725 12.5374 260.788 12.5374H268.225C269.288 12.5374 270.138 11.8999 270.563 11.0499L271.625 7.86245Z" fill="#8AA9B5"/>
<path d="M266.95 8.28739H261.638V9.98739H266.95V8.28739Z" fill="#2C515E"/>
<path d="M265.675 6.79995H262.7V8.28745H265.675V6.79995Z" fill="#3F7487"/>
<path d="M307.963 7.86245H293.513V16.9999H307.963V7.86245Z" fill="#335E6E"/>
<path d="M307.963 7.86245H293.513L294.788 11.0499C295.213 11.8999 296.063 12.5374 297.125 12.5374H304.563C305.625 12.5374 306.475 11.8999 306.9 11.0499L307.963 7.86245Z" fill="#8AA9B5"/>
<path d="M303.5 8.28739H298.188V9.98739H303.5V8.28739Z" fill="#2C515E"/>
<path d="M302.225 6.79995H299.25V8.28745H302.225V6.79995Z" fill="#3F7487"/>
<path d="M344.3 7.86245H329.85V16.9999H344.3V7.86245Z" fill="#335E6E"/>
<path d="M344.513 7.86245H330.062L331.338 11.0499C331.763 11.8999 332.612 12.5374 333.675 12.5374H341.112C342.175 12.5374 343.025 11.8999 343.45 11.0499L344.513 7.86245Z" fill="#8AA9B5"/>
<path d="M339.838 8.28739H334.525V9.98739H339.838V8.28739Z" fill="#2C515E"/>
<path d="M338.775 6.79995H335.8V8.28745H338.775V6.79995Z" fill="#3F7487"/>
<path d="M380.85 7.86245H366.4V16.9999H380.85V7.86245Z" fill="#335E6E"/>
<path d="M381.063 7.86245H366.613L367.888 11.0499C368.313 11.8999 369.163 12.5374 370.225 12.5374H377.663C378.725 12.5374 379.575 11.8999 380 11.0499L381.063 7.86245Z" fill="#8AA9B5"/>
<path d="M376.388 8.28739H371.075V9.98739H376.388V8.28739Z" fill="#2C515E"/>
<path d="M375.113 6.79995H372.138V8.28745H375.113V6.79995Z" fill="#3F7487"/>
<path d="M417.4 7.86245H402.95V16.9999H417.4V7.86245Z" fill="#335E6E"/>
<path d="M417.4 7.86245H402.95L404.225 11.0499C404.65 11.8999 405.5 12.5374 406.563 12.5374H414C415.063 12.5374 415.913 11.8999 416.338 11.0499L417.4 7.86245Z" fill="#8AA9B5"/>
<path d="M412.938 8.28739H407.625V9.98739H412.938V8.28739Z" fill="#2C515E"/>
<path d="M411.662 6.79995H408.688V8.28745H411.662V6.79995Z" fill="#3F7487"/>
<path d="M453.95 7.86245H439.5V16.9999H453.95V7.86245Z" fill="#335E6E"/>
<path d="M453.95 7.86245H439.5L440.775 11.0499C441.2 11.8999 442.05 12.5374 443.113 12.5374H450.55C451.613 12.5374 452.462 11.8999 452.887 11.0499L453.95 7.86245Z" fill="#8AA9B5"/>
<path d="M449.275 8.28739H443.962V9.98739H449.275V8.28739Z" fill="#2C515E"/>
<path d="M448.212 6.79995H445.237V8.28745H448.212V6.79995Z" fill="#3F7487"/>
<path d="M490.288 7.86245H475.838V16.9999H490.288V7.86245Z" fill="#335E6E"/>
<path d="M490.5 7.86245H476.05L477.325 11.0499C477.75 11.8999 478.6 12.5374 479.663 12.5374H487.1C488.163 12.5374 489.013 11.8999 489.438 11.0499L490.5 7.86245Z" fill="#8AA9B5"/>
<path d="M485.825 8.28739H480.513V9.98739H485.825V8.28739Z" fill="#2C515E"/>
<path d="M484.55 6.79995H481.575V8.28745H484.55V6.79995Z" fill="#3F7487"/>
<path d="M526.838 7.86245H512.388V16.9999H526.838V7.86245Z" fill="#335E6E"/>
<path d="M526.838 7.86245H512.388L513.663 11.0499C514.088 11.8999 514.938 12.5374 516 12.5374H523.438C524.5 12.5374 525.35 11.8999 525.775 11.0499L526.838 7.86245Z" fill="#8AA9B5"/>
<path d="M522.375 8.28739H517.062V9.98739H522.375V8.28739Z" fill="#2C515E"/>
<path d="M521.1 6.79995H518.125V8.28745H521.1V6.79995Z" fill="#3F7487"/>
</svg>
