<svg width="206" height="214" viewBox="0 0 206 214" fill="none" xmlns="http://www.w3.org/2000/svg">
<path opacity="0.87" d="M196.161 117.164C196.317 117.008 196.395 116.852 196.551 116.696C196.706 116.54 196.784 116.384 196.94 116.228C197.096 116.072 197.174 115.916 197.252 115.76C197.329 115.604 197.485 115.37 197.563 115.214C197.641 115.058 197.797 114.824 197.875 114.668C197.953 114.512 198.031 114.278 198.186 114.122C198.264 113.888 198.342 113.732 198.498 113.498C198.576 113.342 198.654 113.108 198.732 112.952C198.809 112.718 198.887 112.562 198.965 112.328C199.043 112.172 199.121 111.938 199.121 111.782C199.199 111.547 199.277 111.313 199.355 111.079C199.433 110.923 199.433 110.767 199.51 110.533C199.588 110.299 199.666 109.987 199.744 109.753C199.744 109.597 199.822 109.519 199.822 109.363C201.847 100.236 199.588 87.9107 199.121 80.4998C198.42 68.9545 200.523 55.3808 199.277 44.0695C199.199 43.5234 199.121 42.8993 199.043 42.3533C198.965 41.9632 198.887 41.4952 198.809 41.1052C198.809 41.0271 198.732 40.8711 198.732 40.7931C198.654 40.4811 198.576 40.169 198.498 39.857C198.498 39.779 198.42 39.623 198.42 39.545C198.264 39.1549 198.186 38.7649 198.031 38.3748C198.031 38.2968 197.953 38.2188 197.953 38.1408C197.797 37.8288 197.719 37.5167 197.563 37.2047C197.485 37.1267 197.485 36.9706 197.407 36.8926C197.252 36.5806 197.096 36.1906 196.94 35.8785C196.94 35.8005 196.862 35.8005 196.862 35.7225C196.628 35.3325 196.473 34.9424 196.239 34.6304C196.161 34.5524 196.161 34.4744 196.083 34.3183C196.005 34.1623 195.927 34.0063 195.85 33.8503C195.772 33.6943 195.694 33.5382 195.538 33.3822C195.46 33.3042 195.46 33.2262 195.382 33.1482C195.148 32.7582 194.915 32.4461 194.681 32.1341C194.681 32.1341 194.681 32.1341 194.681 32.0561C194.681 32.0561 194.681 32.0561 194.681 31.9781C194.447 31.666 194.136 31.276 193.902 30.964C193.824 30.8859 193.746 30.8079 193.746 30.7299C193.669 30.6519 193.591 30.4959 193.513 30.4179C193.357 30.1839 193.201 30.0278 193.045 29.7938L192.968 29.7158C192.656 29.3257 192.344 29.0137 192.033 28.6237L191.955 28.5456C191.643 28.2336 191.41 27.9216 191.098 27.6096C191.02 27.5316 191.02 27.5315 190.942 27.4535C190.319 26.7515 189.618 26.1273 188.917 25.4253L188.839 25.3473C188.528 25.0352 188.138 24.7232 187.827 24.4112C184.789 21.6808 181.673 19.1846 178.869 16.9223C172.092 11.5396 165.238 6.079 157.215 2.88062C151.841 0.774373 145.765 -0.239766 140.079 0.618335C137.353 1.00838 134.626 1.86647 132.134 3.19263C128.473 5.22087 125.513 8.18523 122.631 11.1496C107.832 26.4394 96.6931 40.7151 82.0494 52.6505C81.8936 52.7285 81.7379 52.8065 81.5821 52.8845C81.66 52.8845 81.7379 52.8845 81.8157 52.8845C74.416 58.8913 66.1595 64.1959 56.0335 68.7984C48.1664 72.3089 40.0657 75.1952 31.6533 76.9894C24.9546 78.4716 15.4518 78.3155 11.5572 85.1023C9.6878 88.3787 9.29835 92.2792 9.29835 96.0236C9.22046 102.498 10.3109 108.115 12.0246 113.342C12.2582 114.122 12.4919 114.824 12.8035 115.604C13.3487 117.086 13.894 118.568 14.4392 120.051C16.1528 124.497 18.178 129.022 19.8917 134.092C20.5148 135.808 21.06 137.603 21.6053 139.397C22.1505 141.191 22.6179 142.985 23.1631 144.779C23.4747 145.95 23.7862 147.042 24.0978 148.212C24.1757 148.524 24.2536 148.836 24.3315 149.148C24.3315 149.226 24.4094 149.304 24.4094 149.46C24.5652 149.928 24.6431 150.396 24.721 150.864C26.6683 158.587 28.3819 166.388 30.7186 173.877C30.7186 173.955 30.7965 174.033 30.7965 174.111C31.0302 174.813 31.2639 175.515 31.4975 176.217C31.5754 176.373 31.5755 176.529 31.6533 176.685C31.7312 176.997 31.887 177.231 31.9649 177.543C32.1207 177.855 32.1986 178.245 32.3544 178.557C32.4323 178.792 32.5101 178.948 32.588 179.182C32.8217 179.806 33.0554 180.43 33.2891 180.976C33.367 181.21 33.4449 181.366 33.5227 181.6C33.5227 181.6 33.5227 181.6 33.5227 181.678C33.8343 182.458 34.1459 183.238 34.5353 184.018C35.47 186.202 36.5605 188.387 38.3521 189.869C38.5857 190.103 38.8973 190.259 39.131 190.415C39.2089 190.415 39.2089 190.493 39.2867 190.493C41.5456 191.897 44.2718 192.209 46.998 192.287C47.6991 192.287 48.4001 192.287 49.179 192.287C81.1147 192.131 140.78 196.656 155.19 159.523C156.592 155.857 157.371 151.956 158.851 148.368C159.162 147.666 159.474 147.042 159.786 146.34C162.122 141.659 165.627 137.681 169.288 133.936C171.08 132.142 173.027 130.348 175.052 128.71C178.48 125.901 182.218 123.561 186.269 122.079C186.269 122.079 186.269 122.079 186.347 122.079C187.515 121.689 188.683 121.299 189.93 120.987C190.397 120.909 190.864 120.753 191.332 120.597C191.488 120.519 191.643 120.519 191.799 120.441C192.111 120.363 192.344 120.207 192.656 120.129C192.812 120.051 192.968 119.973 193.123 119.895C193.357 119.816 193.591 119.66 193.824 119.504C193.98 119.426 194.136 119.27 194.292 119.192C194.525 119.036 194.681 118.958 194.915 118.802C195.071 118.724 195.226 118.568 195.382 118.49C195.538 118.334 195.694 118.178 195.927 118.022C196.083 117.866 196.239 117.788 196.317 117.632C195.85 117.476 196.005 117.32 196.161 117.164Z" fill="#444235"/>
<path d="M15.1916 162.374C19.0153 176.443 21.426 190.929 27.2447 204.249C28.2422 206.58 29.406 208.911 31.3178 210.493C34.3935 213.073 38.7991 213.157 42.7891 213.157C76.8703 212.99 140.544 217.819 155.922 178.192C157.418 174.279 158.25 170.116 159.829 166.287C162.24 160.376 166.479 155.381 170.968 150.886C177.202 144.642 184.434 138.981 192.996 137.149C209.953 133.486 204.051 106.846 203.303 93.9426C202.472 80.9556 204.966 65.6376 203.303 53.2333C201.724 41.828 189.92 32.837 181.441 26.0938C174.21 20.3495 166.895 14.522 158.333 11.1088C149.771 7.69551 139.713 7.02948 131.65 11.4417C127.743 13.6062 124.584 16.7697 121.508 19.9333C97.6515 44.6585 82.689 66.803 50.3534 81.3718C41.9578 85.1181 33.3128 88.1983 24.3353 90.1131C17.1866 91.6948 7.04534 91.5283 2.88909 98.7711C0.894095 102.268 0.478475 106.43 0.478475 110.426C0.312225 126.327 6.79598 136.816 11.7835 151.052C13.0303 154.715 14.1941 158.545 15.1916 162.374Z" fill="#B0B297"/>
<path d="M201.301 44.8066C201.384 44.6401 201.384 44.4736 201.467 44.2239C197.144 36.3983 188.749 29.9881 182.265 24.8266C175.033 19.0823 167.718 13.2548 159.156 9.84155C150.594 6.4283 140.536 5.76226 132.473 10.1745C128.566 12.339 125.407 15.5025 122.332 18.666C98.475 43.3913 83.5125 65.5359 51.1769 80.1046C42.7813 83.8509 34.1363 86.9312 25.1588 88.8459C18.0101 90.4277 7.86883 90.2612 3.71258 97.504C1.71758 101 1.30196 105.163 1.30196 109.159C1.13571 125.06 7.61946 135.549 12.607 149.785C13.937 153.531 15.1007 157.361 16.0982 161.19C19.1738 172.512 21.4182 184.084 25.1588 195.073C26.9045 194.157 28.4838 193.075 29.8138 191.66C30.8945 190.494 31.8919 189.162 32.1413 187.581C32.8063 183.585 29.0657 183.834 27.6526 181.17C26.4057 178.756 27.1538 176.175 27.8188 173.678C29.1488 168.6 32.3907 163.688 29.4813 158.443C25.9069 152.116 22.0832 146.705 24.1613 139.129C24.8263 136.715 26.9044 133.301 25.3251 130.887C24.0782 128.972 20.9195 130.221 20.1713 126.974C19.7557 125.143 20.7532 122.979 22.4988 122.229C23.9119 121.563 25.7407 121.73 26.9876 120.814C28.6501 119.565 28.567 117.068 28.567 114.986C28.567 111.157 30.4788 97.4207 37.3782 102.249C38.1263 102.749 38.7082 103.581 39.5394 103.831C41.0357 104.33 42.4488 102.832 43.0307 101.333C43.6126 99.8349 43.7788 98.1699 44.8594 97.0044C47.3532 94.3404 52.0913 96.6715 55.4994 95.173C58.3257 93.9242 60.5701 91.7597 63.4794 90.6774C66.1394 89.6784 68.7994 89.9282 71.1269 88.0134C75.4494 84.4337 79.19 78.3564 83.2632 74.2771C85.0919 72.4456 86.9207 70.6141 89.165 69.4486C93.3213 67.2009 98.3919 67.4506 103.047 66.3684C112.357 64.2039 119.921 55.8789 121.334 46.4716C121.999 41.7264 121.833 35.7323 126.156 33.5678C127.319 32.9851 128.566 32.8186 129.73 32.2358C132.057 31.0703 133.387 28.7393 134.967 26.7413C139.206 21.7463 146.189 19.2488 152.589 20.4976C155.249 20.9971 158.159 22.4955 158.907 25.1595C159.239 26.3251 159.073 27.5738 159.322 28.8226C159.987 32.4856 163.977 34.8166 167.718 35.1496C170.378 35.3993 173.287 34.8166 176.031 34.8166C178.441 34.8166 180.769 35.3161 182.764 37.3141C186.172 40.7274 186.587 46.8879 190.827 49.2189C194.567 51.3001 199.638 48.7194 201.301 44.8066Z" fill="#A9AA91"/>
<path opacity="0.7" d="M204.21 51.966C202.631 40.5608 190.827 31.5698 182.348 24.8265C179.688 22.7453 177.028 20.5808 174.285 18.5828C175.947 24.0773 180.021 29.8215 182.514 32.8185C186.006 36.981 187.668 41.8928 189.746 46.971C192.406 53.3813 193.736 60.2911 193.487 67.2008C193.321 73.2781 190.494 80.1046 191.076 86.0154C191.326 88.9291 192.739 92.0093 193.321 94.9231C193.819 97.2541 193.819 99.5019 192.323 101.417C191.492 102.499 190.162 103.248 189.247 104.33C184.925 109.409 190.162 119.315 184.593 122.978C178.192 127.224 171.126 125.309 165.141 131.636C161.65 135.383 158.574 139.795 153.919 142.043C152.091 142.958 150.012 143.458 148.433 144.707C146.022 146.621 144.942 149.785 144.194 152.782C142.697 158.776 143.446 165.353 138.874 169.932C136.879 172.013 133.72 173.095 133.055 176.258C132.723 177.757 133.138 179.339 132.806 180.921C132.307 183.085 130.478 184.584 128.733 185.916C124.493 189.246 120.171 192.659 115.266 194.99C110.362 197.321 104.793 198.486 99.4725 197.321C97.3944 196.821 95.3994 195.989 93.3213 195.656C88.4169 194.74 85.84 197.487 81.6838 198.903C76.6963 200.651 69.3813 199.735 64.3107 198.736C61.9001 198.32 59.4894 197.654 57.0788 197.987C54.585 198.32 52.3407 199.569 49.93 200.401C45.7738 201.816 37.3782 203.148 33.2219 201.567C29.315 200.151 27.8188 195.156 26.4057 191.577C24.9926 188.08 23.2469 184.75 21.0857 181.67C22.9976 188.996 25.0757 196.239 28.0682 203.148C29.0657 205.479 30.2294 207.81 32.1413 209.392C35.2169 211.973 39.6225 212.056 43.6125 212.056C77.6938 211.89 141.368 216.718 156.746 177.091C158.242 173.178 159.073 169.016 160.652 165.186C163.063 159.275 167.302 154.28 171.791 149.785C178.026 143.541 185.257 137.88 193.819 136.049C210.777 132.386 204.875 105.746 204.127 92.8419C203.379 79.7716 205.872 64.4536 204.21 51.966Z" fill="#D3CEBA"/>
<path d="M204.21 92.7587C203.379 79.7717 205.872 64.4536 204.21 52.0493C203.129 44.1406 197.144 37.3973 190.744 31.7363C193.487 46.2219 196.396 59.7084 195.897 74.7767C195.399 89.9282 198.391 104.83 193.071 119.149C188.001 132.802 174.701 137.631 162.648 143.958C149.929 150.618 147.519 161.773 142.614 174.177C138.458 184.584 132.307 193.575 122.083 198.736C108.866 205.396 84.0113 201.65 69.4644 201.983C54.0032 202.316 43.9451 208.393 29.232 202.982C28.7332 202.815 28.3176 202.649 27.8188 202.399C27.902 202.649 28.0682 202.982 28.1514 203.232C29.1489 205.563 30.3126 207.894 32.2245 209.475C35.3001 212.056 39.7057 212.139 43.6957 212.139C77.7769 211.973 141.451 216.801 156.829 177.174C158.325 173.262 159.156 169.099 160.736 165.27C163.146 159.359 167.386 154.364 171.874 149.868C178.109 143.625 185.341 137.963 193.902 136.132C210.943 132.302 205.041 105.746 204.21 92.7587Z" fill="#99957F"/>
<path d="M203.462 116.651C196.978 102.832 198.391 83.6012 199.721 68.7826C200.22 63.1216 201.799 58.4596 204.543 54.9631C204.459 53.9641 204.376 53.0483 204.21 52.0493C203.129 44.1406 197.144 37.3973 190.744 31.7363C193.487 46.2219 196.396 59.7084 195.897 74.7767C195.399 89.9282 198.391 104.83 193.071 119.149C188.001 132.802 174.701 137.631 162.648 143.958C149.929 150.618 147.519 161.773 142.614 174.177C138.458 184.584 132.307 193.575 122.083 198.736C108.866 205.396 84.0113 201.65 69.4644 201.983C54.0032 202.316 43.9451 208.393 29.232 202.982C28.7332 202.815 28.3176 202.649 27.8188 202.399C27.902 202.649 28.0682 202.982 28.1514 203.232C28.4839 204.064 28.8995 204.897 29.3982 205.729C29.9801 205.896 30.6451 206.145 31.227 206.478C44.7763 213.638 62.6482 204.231 77.112 205.146C84.1776 205.646 89.9132 208.643 96.3969 210.891C106.206 209.892 115.848 208.143 124.576 205.146C130.561 196.405 139.04 191.077 144.111 181.42C148.599 172.845 150.844 163.272 156.496 155.28C161.899 147.62 169.796 141.46 178.774 138.546C182.598 137.298 186.421 136.964 190.162 137.131C191.409 136.715 192.656 136.299 193.986 135.966C201.882 134.301 204.875 127.557 205.623 119.565C204.792 118.899 204.044 117.9 203.462 116.651Z" fill="#847F66"/>
<path d="M60.2377 182.502C61.6508 182.252 62.9808 181.836 64.3939 181.253C68.5501 179.422 72.6233 176.841 77.1952 176.675C82.6814 176.342 88.3339 179.588 93.5708 177.674C95.2333 177.091 96.7295 175.925 98.392 175.176C108.035 170.847 117.261 180.587 126.738 175.426C131.559 172.845 133.969 167.184 134.634 161.69C136.38 147.537 130.312 123.062 139.456 110.907C142.282 107.161 147.436 105.246 149.181 100.917C151.343 95.2561 148.018 89.7616 146.604 84.3503C144.36 75.7756 151.093 67.8668 155 60.7073C157.494 56.1285 160.071 51.1335 159.073 46.0553C158.907 45.1395 158.242 43.974 157.328 44.2238C156.995 44.307 156.746 44.5568 156.496 44.8065C155.083 46.3883 154.086 48.303 153.005 50.2178C149.514 56.2118 144.776 60.957 139.373 65.2028C134.053 69.2821 131.143 77.1908 128.733 83.4345C124.41 94.7566 121.75 106.661 118.675 118.4C115.765 129.472 112.357 140.794 104.709 149.369C97.8101 157.111 88.417 161.523 79.6889 166.851C70.1295 172.679 58.7414 177.507 47.4364 177.091C40.8695 176.841 48.3508 181.836 51.0108 182.419C54.0033 182.918 57.162 183.085 60.2377 182.502Z" fill="#C0C1A8"/>
<path d="M69.3813 103.498C68.3838 106.911 68.3838 110.824 68.55 114.404C68.7994 120.481 68.4669 126.558 64.0613 131.303C61.5675 133.967 58.2425 135.799 56.1644 138.713C54.4188 141.127 53.5044 144.207 53.7538 147.204C54.0032 149.952 55.0007 153.032 53.1719 155.03C49.3482 159.359 42.7813 159.109 39.8719 165.186C39.3732 166.269 39.0407 167.434 39.1238 168.683C39.2901 173.178 43.8619 176.508 48.3507 176.841C55.7488 177.424 64.7263 173.511 70.9607 169.848C78.0263 165.686 85.84 162.606 93.0719 158.693C101.966 153.864 110.611 148.12 115.349 138.879C118.841 132.219 120.586 124.727 122.249 117.401C126.821 97.8369 128.566 76.7746 142.864 61.2901C147.602 56.2118 153.337 51.3833 154.917 44.6401C155.166 43.7243 155.249 42.6421 154.584 41.8928C153.919 41.1436 152.839 41.0603 151.841 41.1436C140.453 41.9761 127.236 56.7946 121.417 65.7024C119.173 69.1156 117.012 72.9451 113.271 74.6934C110.279 76.0254 106.871 75.7756 103.629 76.0254C100.387 76.2751 96.7294 77.2741 95.15 80.1046C94.0694 82.0194 94.1525 84.3504 93.4875 86.3484C90.5781 94.6734 79.5225 93.2581 73.3713 97.5872C71.2932 99.0857 70.1294 101.167 69.3813 103.498Z" fill="#A9AA91"/>
<path d="M93.8203 122.562C93.2384 123.145 92.5734 123.644 91.8252 124.144C87.5859 126.974 82.2659 128.639 79.689 132.968C77.1953 137.131 77.9434 142.376 76.1978 146.871C72.7065 156.445 60.0715 159.525 55.084 168.433C54.2528 169.848 52.424 171.264 52.8397 172.845C55.1671 180.921 81.684 166.185 85.5078 163.605C99.1403 154.447 115.183 148.786 118.924 131.303C121.833 117.65 125.075 104.081 128.068 90.5942C130.561 79.3554 135.383 68.4496 143.861 60.4576C145.025 59.3754 147.602 57.3773 147.27 55.7956C147.02 54.4636 145.524 53.5479 144.194 53.5479C142.781 53.5479 141.534 54.1306 140.287 54.8798C132.64 59.3753 129.231 66.1186 126.073 74.0274C123.163 81.2701 119.34 88.4296 113.188 93.2581C111.193 94.8399 109.032 96.0886 107.203 97.8369C99.4727 104.747 100.803 115.985 93.8203 122.562Z" fill="#9E9D85"/>
<path opacity="0.8" d="M204.209 51.9661C202.63 40.5608 190.826 31.5698 182.347 24.8266C175.115 19.0823 167.8 13.2548 159.238 9.84155C150.677 6.4283 140.618 5.76226 132.555 10.1745C128.648 12.339 125.49 15.5025 122.414 18.666C98.5573 43.3913 83.5948 65.5359 51.2592 80.1046C42.8636 83.8509 34.2186 86.9312 25.2411 88.8459C18.0924 90.4277 7.9511 90.2612 3.79485 97.5039C1.79986 101 1.38424 105.163 1.38424 109.159C1.21799 125.06 7.70174 135.549 12.6892 149.785C14.0192 153.531 15.183 157.361 16.1805 161.19C20.0042 175.26 22.4148 189.745 28.2336 203.065C29.2311 205.396 30.3948 207.727 32.3067 209.309C33.4705 210.225 34.8005 210.891 36.2136 211.224C22.2486 195.906 25.158 166.768 22.498 157.611C20.503 150.618 17.843 144.124 16.4299 137.131C13.6867 130.721 12.0242 122.812 13.188 116.069C13.1049 110.158 14.6842 104.663 19.9211 100.751C29.7298 93.5079 43.2792 93.4247 53.9192 87.7637C68.9648 79.7716 83.9273 71.1969 95.3154 58.2931C103.711 48.8858 110.361 37.9801 119.339 28.9891C126.654 21.6631 136.213 12.2558 153.17 14.0873C160.236 14.8365 166.886 18.1665 172.788 22.2458C179.438 26.0753 185.755 31.0703 190.743 35.3161C196.312 40.0613 201.133 45.6391 204.209 52.0493C204.209 52.2158 204.209 52.0494 204.209 51.9661Z" fill="#C9C9B1"/>
<path opacity="0.65" d="M148.516 133.052C148.017 133.052 147.436 133.052 146.937 132.969C145.441 132.885 143.861 132.802 142.531 132.136C139.206 130.554 138.541 126.975 140.536 124.144C144.111 119.066 157.411 116.652 158.741 125.143C159.156 127.724 157.161 130.055 154.917 131.387C152.922 132.719 150.761 133.052 148.516 133.052Z" fill="#FEFBEB"/>
<path d="M149.431 131.636C144.277 132.635 139.539 130.721 138.791 127.224C138.126 123.728 141.7 120.148 146.854 119.066C152.007 118.067 156.745 119.981 157.494 123.478C158.159 126.891 154.584 130.554 149.431 131.636Z" fill="#77745F"/>
<path d="M151.091 122.396C153.751 123.062 155.913 124.976 156.578 127.391C157.409 126.142 157.825 124.81 157.575 123.478C156.91 119.981 152.172 118.067 146.935 119.066C141.781 120.065 138.124 123.728 138.872 127.224C138.955 127.724 139.205 128.223 139.454 128.723C141.116 124.227 145.938 121.147 151.091 122.396Z" fill="#4C4A38"/>
<path opacity="0.65" d="M31.6428 134.217C30.5622 129.056 32.7235 122.229 35.2172 118.15C36.8797 115.403 41.3684 112.239 44.5272 111.906C47.1872 111.573 50.1797 112.905 51.0941 115.403C51.5097 116.402 51.5097 117.567 51.5928 118.649C51.6759 124.477 50.9278 129.222 46.8547 133.551C43.7791 136.881 38.2928 141.793 33.6378 138.047C33.056 137.63 32.7235 136.964 32.391 136.382C32.0585 135.799 31.8091 135.05 31.6428 134.217Z" fill="#FEFBEB"/>
<path d="M48.7656 127.64C44.9418 134.633 38.4581 138.463 34.2187 136.298C29.9793 134.134 29.6468 126.725 33.4706 119.732C37.2943 112.739 43.7781 108.909 48.0174 111.074C52.2568 113.321 52.5893 120.647 48.7656 127.64Z" fill="#77745F"/>
<path d="M47.6027 115.403C48.9327 115.569 50.1796 115.985 51.2602 116.568C50.9277 114.071 49.8471 112.073 47.9352 111.074C43.6958 108.909 37.2121 112.739 33.3884 119.732C30.5621 124.81 29.9802 130.221 31.5596 133.551C32.3077 125.143 38.3758 114.154 47.6027 115.403Z" fill="#4C4A38"/>
<path opacity="0.65" d="M187.585 98.3364C184.593 98.5862 182.431 96.5882 180.603 94.3404C178.441 91.7596 179.854 86.5148 183.678 86.598C186.172 86.598 188.416 88.7626 189.746 90.6773C190.744 92.0926 191.326 93.7576 190.993 95.5059C190.827 96.5049 190.245 97.5039 189.331 98.0034C188.998 98.1699 188.666 98.2532 188.333 98.3364C188.084 98.3364 187.834 98.3364 187.585 98.3364Z" fill="#FEFAE5"/>
<path d="M181.018 94.6732C178.608 91.926 178.109 88.4295 179.938 86.8478C181.766 85.266 185.174 86.0985 187.585 88.8457C189.996 91.593 190.494 95.0895 188.666 96.6713C186.837 98.3363 183.429 97.4205 181.018 94.6732Z" fill="#77745F"/>
<path d="M180.187 92.6754C180.602 89.6783 183.429 88.0133 186.255 88.8458C187.003 89.0955 187.751 89.5118 188.416 90.0113C188.167 89.5951 187.917 89.262 187.585 88.8458C185.174 86.0985 181.766 85.266 179.937 86.8478C178.358 88.263 178.524 91.0103 180.104 93.5079C180.187 93.2581 180.187 92.9251 180.187 92.6754Z" fill="#4C4A38"/>
<path opacity="0.45" d="M101.8 181.337C105.458 179.672 109.364 180.421 110.445 182.835C111.526 185.333 109.448 188.579 105.79 190.244C102.133 191.909 98.2257 191.16 97.1451 188.746C96.0645 186.248 98.1426 182.918 101.8 181.337Z" fill="#605D4A"/>
<path opacity="0.45" d="M158.575 88.0133C158.491 90.4276 157.078 92.3424 155.416 92.2591C153.836 92.1759 152.59 90.1778 152.673 87.7636C152.756 85.3494 154.169 83.4346 155.831 83.5179C157.411 83.6011 158.658 85.5991 158.575 88.0133Z" fill="#605D4A"/>
<path opacity="0.45" d="M42.1163 187.581C44.1945 188.829 45.192 190.994 44.3607 192.326C43.5295 193.741 41.202 193.824 39.1239 192.576C37.0457 191.327 36.0483 189.162 36.8795 187.83C37.7108 186.498 40.0382 186.332 42.1163 187.581Z" fill="#605D4A"/>
<path opacity="0.54" d="M136.629 31.9029C139.206 30.7374 141.95 31.2368 142.781 33.0684C143.612 34.8999 142.199 37.3142 139.705 38.5629C137.128 39.7285 134.385 39.2289 133.554 37.3974C132.723 35.5659 134.136 33.0684 136.629 31.9029Z" fill="#4C4A38"/>
<path d="M200.386 58.0432C193.487 59.0422 176.197 62.0392 174.119 63.3713C173.121 64.0373 171.21 69.1155 170.295 70.6973C170.628 70.1145 169.63 59.4584 170.378 58.2929C170.877 57.5437 190.993 55.3792 200.386 58.0432Z" fill="#EAE6D3"/>
<path d="M200.386 58.0433C193.82 57.7935 174.451 58.626 172.124 59.625C170.378 60.3743 171.126 69.1156 170.295 70.6973C170.628 70.1146 168.882 58.1265 169.63 57.0442C170.212 56.2117 190.993 55.3792 200.386 58.0433Z" fill="#5B5845"/>
<path d="M114.186 165.436C113.77 160.274 112.44 154.197 111.526 149.119C105.956 151.7 101.717 156.362 96.3971 159.692C85.6739 166.352 75.2833 171.763 62.8977 174.593C67.8021 170.597 74.2027 166.851 79.4396 163.271C87.7521 157.61 97.3114 153.448 104.793 146.538C105.208 146.205 105.541 145.789 105.956 145.456C117.677 133.801 119.34 118.982 123.246 103.498C124.743 97.6704 125.574 91.5931 127.818 86.0154C131.143 77.5239 133.471 69.8649 140.62 63.6211C138.375 68.7826 135.466 73.4446 133.554 78.8559C131.476 84.7666 126.821 107.993 125.491 114.154C124.909 116.735 122.831 129.056 119.589 136.298C116.347 142.958 115.266 156.778 114.186 165.436Z" fill="#EAE8D6"/>
<path opacity="0.7" d="M10.0302 128.473C12.524 136.798 16.4308 144.624 18.6752 152.949C20.2546 158.943 21.0027 165.103 21.7509 171.264C22.499 177.258 23.4134 183.085 24.8265 188.913C25.5746 191.993 26.5721 195.073 27.9021 197.987C28.1515 198.653 28.5671 199.402 29.3152 199.485C29.4815 198.903 29.3983 198.237 29.2321 197.571C28.0683 193.658 26.1565 182.752 24.9096 168.6C24.8265 167.351 23.829 157.944 23.6627 156.695C22.2496 146.455 18.4259 136.632 16.3477 126.475C15.4334 122.146 14.8515 117.734 15.5165 113.405C16.0984 109.076 18.0102 104.747 21.4184 101.999C26.489 97.837 33.3052 97.4208 39.3733 95.5892C45.8571 93.5912 52.5071 91.843 58.6583 88.7627C61.2352 87.514 63.7289 86.0154 66.0564 84.2672C67.5527 83.1017 69.1321 81.6032 69.0489 79.6884C67.8852 79.4387 66.7214 80.1879 65.7239 80.7707C59.4896 84.3504 52.1746 86.5982 45.109 88.0135C37.7108 89.5952 30.1465 90.178 22.9977 92.7587C22.9146 92.7587 22.8315 92.842 22.8315 92.842C17.7608 94.6735 13.0227 97.7537 10.0302 102.166C4.71024 109.825 7.61961 120.398 10.0302 128.473Z" fill="#E5E3CF"/>
<path opacity="0.7" d="M108.284 47.6372C111.11 43.5579 113.937 39.6451 117.095 35.8156C118.259 34.4004 119.09 32.8186 120.42 31.5699C126.322 25.8256 133.72 19.0824 142.033 17.3341C144.194 16.9179 146.355 16.8346 148.516 16.8346C155.748 16.8346 163.23 18.5829 169.131 22.8286C173.205 25.7424 177.776 27.4906 182.016 29.9049C182.431 30.1546 182.93 30.3211 183.18 29.9049C183.346 29.5719 183.013 29.1556 182.764 28.9059C177.278 24.3271 171.043 20.6641 164.726 17.2508C160.653 15.0031 156.746 13.1716 152.091 12.3391C142.365 10.5909 132.058 12.6721 124.41 19.0824C115.682 26.4084 110.861 37.1476 104.211 46.1387C100.637 50.9672 96.8128 55.5459 92.6565 59.9582C90.5784 62.2059 88.4172 64.3705 86.1728 66.4517C85.009 67.534 83.9284 68.7827 82.5984 69.6985C82.2659 69.9482 79.5228 71.3635 80.6865 71.9462C80.8528 72.0295 81.019 72.0294 81.1853 72.0294C84.5934 71.6964 87.8353 67.7837 90.4953 65.869C97.3947 60.9572 103.463 54.7134 108.284 47.6372Z" fill="#E5E3CF"/>
<path d="M11.3602 127.224C12.3577 131.137 14.2696 134.883 16.0152 138.546C16.1815 138.796 16.3477 139.129 16.6802 139.046C16.6802 137.214 16.0983 135.383 15.5996 133.551C14.4358 129.555 13.1058 125.642 12.4408 121.563C11.6927 116.984 11.5264 111.656 13.6877 107.327C18.4258 97.6704 30.3127 95.5891 39.7889 93.1749C40.1214 93.0916 40.537 92.7586 40.3708 92.5089C39.7889 91.5931 34.552 92.9252 33.6377 93.0917C31.227 93.5079 28.8995 94.0907 26.5721 94.7567C22.9146 95.8389 18.9246 96.3384 15.7658 98.7527C13.6046 100.418 11.7758 102.582 10.529 104.996C8.78333 108.493 8.20145 112.572 8.7002 116.485C8.86645 117.817 9.19895 119.149 9.53145 120.481C9.94707 122.229 10.4458 123.977 10.9446 125.726C11.0277 126.142 11.194 126.641 11.3602 127.224Z" fill="#F7F3E8"/>
<path d="M132.889 19.1655C138.292 15.669 144.111 15.5026 150.345 15.1696C151.841 15.0863 153.67 15.3361 155.083 15.7523C156.33 16.0853 157.411 16.3351 158.741 16.5016C159.572 14.5036 146.937 13.0883 145.441 13.1716C141.534 13.2548 137.71 13.7543 134.219 15.3361C128.068 18.0833 123.163 22.2458 119.09 27.5738C115.35 32.5688 111.027 37.4806 108.035 42.9751C107.868 43.2248 107.785 43.4746 107.868 43.8076C108.035 43.8908 108.284 43.7244 108.45 43.5579C111.526 39.8949 114.518 36.2318 117.677 32.6521C120.088 29.9048 122.665 27.3241 125.491 24.993C127.735 23.0783 130.146 20.9138 132.889 19.1655Z" fill="#EFEBDC"/>
<path d="M83.3465 109.409C81.5177 111.49 79.5227 113.405 77.4446 115.07C80.4371 108.576 85.3415 103.082 86.5883 95.8389C87.2533 91.9262 86.5883 87.8469 87.3365 83.9342C88.0015 80.2711 89.9965 76.8579 90.6615 73.1949C91.0771 71.1136 90.994 68.9491 89.9965 67.1176C88.0015 63.5379 82.0165 63.7043 78.4421 63.2881C84.0946 60.7073 89.3315 61.7063 95.4827 61.7063C95.8152 61.7063 96.1477 61.7063 96.3971 61.9561C96.5633 62.2058 96.5634 62.5388 96.5634 62.7886C96.3971 68.4496 95.8984 74.3604 92.989 79.1889C89.4977 84.9331 90.994 89.8449 89.9133 96.0887C89.1652 101 86.5883 105.496 83.3465 109.409Z" fill="#EAE8D6"/>
<path d="M87.4195 79.0223C87.5858 78.4395 87.6689 77.94 87.8352 77.3573C88.5833 73.944 88.3339 71.0303 87.9183 67.617C87.9183 67.284 87.8352 66.9511 87.5858 66.7013C87.4195 66.5348 87.1701 66.4515 86.9208 66.3683C84.8426 65.7023 79.9383 65.286 78.3589 63.8708C78.6914 63.2048 79.6058 63.1216 80.437 63.1216C84.3439 63.1216 87.752 62.7885 91.6589 63.288C92.0745 63.3713 92.4902 63.4545 92.8227 63.7043C93.3214 64.2038 93.2383 65.0363 93.1552 65.7023C92.5733 68.9491 92.9058 72.3623 91.9914 75.4426C90.9939 78.6893 89.1652 81.603 88.6664 84.933C88.3339 87.0143 88.5833 89.1788 88.5001 91.26C88.2508 98.6693 84.0114 105.496 79.6058 111.407C82.0164 106.578 84.6764 101.417 85.1751 96.0053C85.4245 93.2581 85.1752 90.594 85.5077 87.8468C85.6739 84.7665 86.5883 81.936 87.4195 79.0223Z" fill="#5B5845"/>
<path d="M114.539 103.875C108.812 103.875 104.215 107.38 104.215 112.88C104.215 117.929 108.322 121.207 113.296 121.207C115.782 121.207 117.742 120.529 119.211 119.286C118.797 123.28 116.31 125.39 112.58 125.39C110.884 125.39 109.226 125.088 107.719 124.033L105.007 129.383C106.928 130.627 109.792 131.305 112.731 131.305C121.095 131.305 126.784 126.068 126.784 116.874C126.784 108.321 121.962 103.875 114.539 103.875ZM115.067 115.857C112.919 115.857 111.449 114.576 111.449 112.541C111.449 110.469 112.919 109.188 115.029 109.188C117.29 109.188 118.721 110.544 118.721 112.504C118.721 114.501 117.214 115.857 115.067 115.857Z" fill="#494739"/>
</svg>
