<svg width="118" height="231" viewBox="0 0 118 231" fill="none" xmlns="http://www.w3.org/2000/svg">
<path opacity="0.87" d="M113.488 15.414C113.588 15.2102 113.787 14.9045 113.887 14.7007C113.887 14.5989 113.987 14.497 113.987 14.497C113.987 14.3951 114.087 14.3951 114.087 14.2932C114.186 14.0894 114.286 13.8857 114.386 13.6819L114.486 13.58V13.4781C114.586 13.2743 114.685 13.0706 114.785 12.8668C114.785 12.7649 114.885 12.7649 114.885 12.663C114.985 12.4592 115.085 12.2555 115.284 11.9498C115.284 11.8479 115.384 11.8479 115.384 11.746C115.384 11.746 115.384 11.6441 115.484 11.6441C115.484 11.5423 115.584 11.4404 115.584 11.4404C115.584 11.3385 115.684 11.2366 115.684 11.1347C115.684 11.0328 115.783 11.0328 115.783 10.9309C115.783 10.829 115.883 10.829 115.883 10.7271C115.983 10.6253 115.983 10.5234 115.983 10.4215C115.983 10.3196 116.083 10.2177 116.083 10.2177V10.1159C116.083 10.014 116.183 9.91209 116.183 9.8102C116.183 9.70832 116.282 9.60638 116.282 9.50449C116.282 9.40261 116.382 9.40266 116.382 9.30077C116.382 9.19888 116.482 9.09695 116.482 8.99506C116.482 8.89317 116.582 8.7913 116.582 8.68941C116.582 8.68941 116.582 8.58755 116.682 8.58755C116.782 8.38378 116.782 8.28187 116.881 8.17998C116.881 8.07809 116.981 7.97622 116.981 7.87433C116.981 7.87433 116.981 7.87436 116.981 7.77247C117.081 7.5687 117.081 7.36489 117.181 7.16111C117.181 7.05923 117.181 7.05922 117.281 6.95733C117.38 6.75356 117.38 6.54981 117.38 6.34603V6.24417C117.38 6.24417 117.38 6.24414 117.38 6.14225C117.38 6.04036 117.38 5.93846 117.38 5.93846C117.38 5.83658 117.38 5.7347 117.48 5.63282V5.53095V5.42903C117.48 5.32714 117.48 5.22527 117.48 5.12338C117.48 5.0215 117.48 5.02148 117.48 4.9196V4.81774C117.48 4.71585 117.48 4.71584 117.48 4.61395C117.48 4.51206 117.48 4.41019 117.48 4.3083C117.48 4.20642 117.48 4.00262 117.48 3.90073C117.48 3.79884 117.48 3.69697 117.48 3.59508V3.49322C117.48 3.39134 117.48 3.28946 117.38 3.18757C117.38 3.08569 117.38 3.08568 117.38 2.98379C117.281 2.78002 117.281 2.57621 117.181 2.37243C115.584 -1.09171 108.597 -0.0728213 102.608 1.2517C102.608 1.2517 102.608 1.2517 102.508 1.2517C102.009 1.35359 101.61 1.45547 101.211 1.55735C100.213 1.76112 99.3143 2.0668 98.5158 2.27057C98.2164 2.37246 97.9169 2.37247 97.7173 2.47436C97.6175 2.47436 97.6175 2.47436 97.5177 2.47436C97.2183 2.57624 97.0186 2.57625 96.7192 2.67814C96.6194 2.67814 96.6194 2.67814 96.5196 2.67814C96.2201 2.78003 96.0205 2.77998 95.8209 2.88187C95.7211 2.88187 95.7211 2.88187 95.6213 2.88187C95.4216 2.88187 95.1222 2.98379 94.9226 2.98379C94.5233 3.08568 94.1241 3.08569 93.7248 3.18757C93.4254 3.28946 93.0261 3.39131 92.7267 3.59508C92.3274 3.79886 92.028 4.1045 91.7286 4.41016C91.6288 4.61394 91.4291 4.81775 91.3293 5.02152C91.3293 5.02152 91.3293 5.12338 91.2295 5.12338C91.2295 5.22527 91.1297 5.32717 91.1297 5.32717C91.0299 5.53094 90.9301 5.63283 90.8303 5.8366C90.8303 5.93849 90.7304 6.04036 90.7304 6.14225C90.6306 6.34602 90.5308 6.44791 90.5308 6.65168C90.5308 6.75357 90.431 6.85544 90.431 6.95733C90.3312 7.1611 90.3312 7.36491 90.2314 7.56869C90.2314 7.67057 90.1316 7.77245 90.1316 7.87433C90.0318 8.07811 90.0318 8.28185 89.9319 8.48563C89.9319 8.58751 89.8321 8.68945 89.8321 8.79134C89.7323 8.99511 89.7323 9.30072 89.6325 9.50449C89.6325 9.60638 89.6325 9.70832 89.5327 9.8102C89.4329 10.1159 89.4329 10.3196 89.3331 10.6253C89.3331 10.7272 89.3331 10.7272 89.3331 10.8291C89.2333 11.1347 89.2333 11.4404 89.1334 11.746V11.8479C87.8359 19.897 88.9338 30.7988 89.1334 36.4026C89.1334 36.8101 89.1334 37.3196 89.1334 37.9309C89.1334 38.2365 89.1334 38.5422 89.1334 38.8479C89.1334 40.7837 89.0336 43.0252 89.3331 45.1648C89.3331 45.4705 89.4329 45.7762 89.4329 45.9799C89.4329 46.0818 89.5327 46.1837 89.5327 46.3875C89.5327 46.5912 89.6325 46.6931 89.6325 46.8969C89.6325 46.9988 89.7323 47.1007 89.7323 47.3045C89.7323 47.5082 89.8321 47.6101 89.8321 47.712C89.8321 47.8139 89.9319 47.9158 89.9319 48.0177C90.0318 48.1196 90.0318 48.3233 90.1316 48.4252C90.1316 48.5271 90.2314 48.6289 90.3312 48.7308C90.431 48.8327 90.5308 48.9346 90.5308 49.1384C90.6306 49.2403 90.6306 49.3422 90.7304 49.3422C90.8303 49.4441 90.9301 49.5459 91.0299 49.6478C91.1297 49.6478 91.1297 49.7497 91.2295 49.7497C91.4291 49.8516 91.6288 49.9535 91.8284 50.0554H91.9282C92.1278 50.1573 92.3274 50.1573 92.5271 50.1573H92.6269C92.7267 50.1573 92.7267 50.1573 92.8265 50.1573C92.9263 50.1573 93.1259 50.1573 93.2258 50.1573C93.3256 50.1573 93.3256 50.1573 93.4254 50.1573H93.5252C93.625 50.1573 93.7248 50.1573 93.8246 50.0554C93.9244 50.0554 93.9244 50.0554 94.0243 50.0554C94.1241 50.0554 94.1241 50.0554 94.2239 50.0554C94.3237 50.0554 94.3237 50.0554 94.4235 49.9535C94.5233 49.9535 94.5233 49.9535 94.6231 49.8516H94.7229C94.8228 49.8516 94.9226 49.7497 94.9226 49.7497C95.0224 49.7497 95.0224 49.6478 95.1222 49.6478C95.222 49.6478 95.222 49.546 95.3218 49.546C95.4216 49.546 95.4216 49.444 95.5214 49.444C95.6213 49.3422 95.7211 49.3422 95.8209 49.2403C95.8209 49.2403 95.8209 49.2403 95.9207 49.2403C96.0205 49.2403 96.0205 49.1384 96.1203 49.1384C96.2201 49.1384 96.2201 49.0365 96.3199 48.9346C96.4198 48.8327 96.5196 48.7309 96.7192 48.629C96.819 48.629 96.819 48.5271 96.9188 48.5271C97.0186 48.5271 97.0186 48.4252 97.1184 48.4252C97.3181 48.3233 97.4179 48.2214 97.6175 48.0177C97.7173 48.0177 97.7173 47.9158 97.8171 47.9158C97.8171 47.9158 97.8171 47.9158 97.9169 47.8139C98.1166 47.6101 98.416 47.4063 98.6156 47.2025L98.7154 47.1007C98.9151 46.8969 99.1147 46.6931 99.3143 46.4894L99.4141 46.3875C99.5139 46.2856 99.5139 46.2856 99.6138 46.1837C99.7136 45.9799 99.9132 45.878 100.013 45.6742C100.013 45.5723 100.113 45.5724 100.113 45.4705L100.213 45.3686C100.213 45.3686 100.213 45.3686 100.312 45.2667C100.412 45.063 100.612 44.9611 100.712 44.7573C100.712 44.7573 100.712 44.6554 100.812 44.6554C100.911 44.5535 100.911 44.4516 101.011 44.3497C101.011 44.2478 101.111 44.2478 101.111 44.1459C101.311 43.8403 101.51 43.6365 101.71 43.3309L101.81 43.229C102.109 42.8214 102.409 42.4139 102.608 42.0063C102.608 42.0063 102.608 42.0064 102.608 41.9045C102.708 41.7007 102.908 41.4969 103.007 41.1913C103.007 41.1913 103.007 41.0893 103.107 41.0893C103.506 40.3761 103.906 39.7648 104.305 39.0516C105.603 36.6063 106.501 34.3648 106.8 33.1422C107.299 30.7988 107.299 28.3535 107.898 26.0101C108.397 23.5649 110.693 19.9988 112.889 16.3309C112.889 16.3309 112.889 16.3309 112.889 16.229C113.088 15.9234 113.188 15.7196 113.388 15.414C113.388 15.5159 113.488 15.414 113.488 15.414Z" fill="#444235"/>
<path opacity="0.87" d="M91.7131 147.078L91.791 147L91.8689 146.922C91.8689 146.844 91.9468 146.844 91.9468 146.766C91.9468 146.766 91.9468 146.688 92.0247 146.688C92.0247 146.61 92.1026 146.532 92.1026 146.532C92.1026 146.454 92.1805 146.454 92.1805 146.376C92.1805 146.298 92.2584 146.298 92.2584 146.22C92.2584 146.142 92.2584 146.142 92.3363 146.064C92.3363 145.986 92.4142 145.908 92.4142 145.83V145.752C92.4142 145.674 92.4142 145.674 92.4142 145.596C92.4142 145.518 92.4142 145.44 92.4921 145.362C92.4921 145.284 92.5699 145.128 92.5699 145.05C92.5699 144.972 92.5699 144.972 92.5699 144.894C92.5699 144.816 92.5699 144.816 92.5699 144.738C92.5699 144.582 92.6478 144.426 92.6478 144.27C92.6478 144.192 92.6478 144.192 92.6478 144.114V144.036C92.6478 143.802 92.7257 143.568 92.7257 143.334V143.256C92.7257 143.022 92.7257 142.866 92.7257 142.631V142.553C92.7257 142.475 92.7257 142.397 92.7257 142.397C92.7257 142.241 92.7257 142.085 92.7257 141.929C92.7257 141.851 92.7257 141.851 92.7257 141.773V141.695V141.617C92.7257 141.461 92.7257 141.305 92.7257 141.071V140.993C92.7257 140.915 92.7257 140.837 92.7257 140.681C92.7257 140.603 92.7257 140.603 92.7257 140.525C92.7257 140.291 92.6478 139.979 92.6478 139.745C92.6478 139.667 92.6478 139.667 92.6478 139.589C92.57 139.199 92.57 138.809 92.4921 138.419C92.4921 138.419 92.4921 138.419 92.4921 138.341C92.4921 138.107 92.4142 137.951 92.4142 137.717V137.639C92.3363 137.015 92.1805 136.469 92.1026 135.845C91.6352 133.738 91.09 132.022 90.6227 131.164C89.6879 129.604 88.5196 128.122 87.6628 126.484C86.7281 124.845 86.2607 121.647 85.7155 118.293C85.6376 118.059 85.6376 117.824 85.5597 117.59C85.5597 117.512 85.5597 117.434 85.5597 117.356C85.5597 117.122 85.4818 116.966 85.4818 116.732C85.4818 116.654 85.4818 116.576 85.4039 116.498C85.4039 116.42 85.4039 116.42 85.4039 116.342C85.4039 116.186 85.326 116.03 85.326 115.796C85.326 115.718 85.326 115.718 85.326 115.64V115.562C85.2481 115.328 85.2481 115.172 85.1702 115.016C85.1702 114.938 85.1702 114.938 85.1702 114.86C85.0923 114.704 85.0923 114.47 85.0144 114.314C85.0144 114.236 85.0144 114.236 85.0144 114.158V114.08C85.0144 114.002 85.0144 113.924 84.9365 113.846C84.9365 113.768 84.9365 113.69 84.8587 113.612C84.8587 113.534 84.8586 113.534 84.7808 113.456C84.7808 113.378 84.7808 113.378 84.7029 113.3C84.7029 113.222 84.625 113.144 84.625 113.066V112.988C84.625 112.91 84.625 112.832 84.5471 112.832C84.5471 112.754 84.4692 112.676 84.4692 112.598C84.4692 112.52 84.3913 112.442 84.3913 112.364V112.286V112.208C84.3913 112.13 84.3134 112.052 84.3134 111.974C84.3134 111.896 84.2355 111.818 84.2355 111.74V111.662C84.1576 111.506 84.1576 111.428 84.0797 111.272C84.0797 111.194 84.0018 111.116 84.0018 111.116C84.0018 111.116 84.0018 111.116 84.0018 111.038C83.9239 110.882 83.8461 110.726 83.7682 110.57V110.492C83.6903 110.336 83.6124 110.18 83.5345 110.024C83.5345 110.024 83.5345 110.024 83.5345 109.946C83.5345 109.868 83.4566 109.868 83.4566 109.79C83.4566 109.712 83.3787 109.712 83.3787 109.634L83.3008 109.556C83.3008 109.556 83.3008 109.478 83.2229 109.478C83.145 109.4 83.145 109.321 83.0671 109.321L82.9892 109.243C82.9892 109.243 82.9892 109.165 82.9114 109.165C82.9114 109.087 82.8335 109.087 82.8335 109.087C82.7556 109.009 82.7556 109.009 82.6777 108.931L82.5998 108.853C82.5219 108.775 82.5219 108.775 82.444 108.697C82.3661 108.619 82.3661 108.619 82.2882 108.541C82.2103 108.463 82.1324 108.385 82.0545 108.307C81.9766 108.307 81.9766 108.229 81.8988 108.229C81.743 108.151 81.5872 108.073 81.5093 107.995C78.861 106.825 75.2001 110.96 72.3959 114.782C72.3959 114.782 72.3959 114.782 72.3959 114.86C72.1623 115.172 72.0065 115.406 71.7728 115.718C71.3055 116.342 70.8381 116.966 70.4486 117.59C70.3708 117.746 70.215 117.903 70.1371 118.059C70.1371 118.059 70.1371 118.059 70.1371 118.137C70.1371 118.137 70.1371 118.215 70.0592 118.215C69.9034 118.371 69.8255 118.527 69.6697 118.761L69.5918 118.839C69.436 118.995 69.3582 119.151 69.2024 119.307C69.2024 119.385 69.1245 119.385 69.1245 119.385C69.0466 119.541 68.8908 119.697 68.8129 119.775C68.6571 119.931 68.5792 120.087 68.4234 120.243C68.3456 120.321 68.3456 120.399 68.2677 120.399C68.1898 120.555 68.034 120.711 67.9561 120.867C67.7224 121.257 67.5666 121.725 67.6445 122.193C67.6445 122.349 67.6445 122.583 67.7224 122.739V122.817C67.7224 122.895 67.7224 122.973 67.8003 123.051C67.8003 123.207 67.8782 123.363 67.8782 123.519C67.8782 123.597 67.9561 123.675 67.9561 123.753C67.9561 123.909 68.034 124.065 68.1119 124.143C68.1119 124.221 68.1898 124.299 68.1898 124.377C68.2677 124.533 68.2677 124.689 68.3456 124.845C68.3456 124.923 68.4234 125.001 68.4234 125.079C68.5013 125.235 68.5792 125.391 68.5792 125.547C68.5792 125.625 68.6571 125.703 68.6571 125.781C68.735 125.937 68.8129 126.094 68.8908 126.25C68.8908 126.328 68.9687 126.406 68.9687 126.406C69.0466 126.562 69.1245 126.796 69.2803 126.952C69.2803 127.03 69.3582 127.03 69.3582 127.108C69.5139 127.342 69.5918 127.498 69.7476 127.732C69.7476 127.732 69.7476 127.732 69.7476 127.81C73.0191 133.114 79.1725 138.809 82.1324 142.007C82.5998 142.475 83.145 143.178 83.7682 143.958C84.625 144.972 85.5597 146.064 86.5723 146.922C86.7281 147.078 86.8838 147.156 87.0396 147.312C87.1175 147.39 87.1954 147.39 87.2733 147.468C87.3512 147.546 87.507 147.624 87.5849 147.702C87.6628 147.78 87.7407 147.78 87.8185 147.858C87.8964 147.936 88.0522 148.014 88.1301 148.014C88.208 148.092 88.2859 148.092 88.3638 148.17C88.4417 148.248 88.5975 148.248 88.6754 148.326C88.7532 148.326 88.8311 148.404 88.909 148.404C88.9869 148.404 89.1427 148.482 89.2206 148.482C89.2985 148.482 89.3764 148.482 89.4543 148.56C89.5322 148.56 89.6879 148.56 89.7658 148.56C89.8437 148.56 89.8437 148.56 89.9216 148.56C90.0774 148.56 90.2332 148.482 90.389 148.482H90.4669C90.6227 148.404 90.7784 148.326 90.9342 148.248C90.9342 148.248 91.0121 148.248 91.0121 148.17L91.09 148.092C91.1679 148.014 91.2458 147.936 91.3237 147.936L91.4016 147.858L91.4795 147.78C91.5574 147.702 91.5574 147.624 91.6352 147.546C91.6352 147.156 91.6352 147.078 91.7131 147.078Z" fill="#444235"/>
<path opacity="0.87" d="M90.7789 84.0464C90.701 83.8124 90.6231 83.5004 90.5452 83.2663C90.4674 83.0323 90.3895 82.7203 90.2337 82.4862C89.4548 80.614 88.2085 78.6638 87.6632 76.7916C87.2738 75.4654 87.1959 74.1393 87.118 72.8131C87.118 72.3451 87.0401 71.877 87.0401 71.4089C85.4823 65.5582 84.5476 60.0196 82.6003 54.1689C80.5751 47.9282 82.3666 39.8152 82.7561 33.3404C82.8339 32.3263 82.8339 31.3902 82.8339 30.3761C82.8339 27.3337 82.6003 24.3693 81.354 21.639C81.1203 21.171 80.9645 20.7029 80.653 20.3129C80.2635 19.6108 79.8741 18.9867 79.4067 18.3626C79.173 18.0506 78.9393 17.7386 78.7836 17.4265C78.3162 16.7245 77.771 16.0224 77.3036 15.3203C76.4468 14.0721 75.6679 12.824 75.0447 11.3418C74.6553 10.4057 74.4216 9.46959 74.11 8.53347C73.9543 8.06542 73.7985 7.59734 73.6427 7.05128C73.5648 6.89526 73.5648 6.66127 73.4869 6.50525C73.409 6.34923 73.409 6.19319 73.3311 6.03717C73.2532 5.80314 73.1753 5.56912 73.0974 5.4131C73.0196 5.25709 73.0196 5.17908 72.9417 5.02306C72.7859 4.71102 72.6301 4.39899 72.4743 4.00895C72.1627 3.46288 71.7733 2.91682 71.3059 2.44876C71.228 2.29274 71.0723 2.21473 70.9944 2.05872C70.4491 1.51265 69.7481 1.04459 69.0471 0.732549C68.8134 0.65454 68.6576 0.57654 68.4239 0.498531C68.2681 0.420521 68.1124 0.420493 67.9566 0.420493C67.4113 0.342484 66.8661 0.342512 66.3208 0.498531C66.243 0.498531 66.243 0.498512 66.1651 0.576521C66.0872 0.576521 65.9314 0.654559 65.8535 0.654559C65.7756 0.654559 65.6977 0.732549 65.6198 0.732549C65.5419 0.732549 65.464 0.810539 65.3861 0.810539C65.3083 0.810539 65.2304 0.888558 65.1525 0.966567C65.0746 0.966567 64.9967 1.0446 64.9967 1.0446C64.9188 1.12261 64.8409 1.12258 64.763 1.20059C64.6851 1.20059 64.6851 1.27862 64.6072 1.27862C64.5293 1.35663 64.4514 1.43465 64.3735 1.43465L64.2957 1.51264C64.2178 1.59065 64.062 1.66865 63.9841 1.74666C63.8283 1.82467 63.7504 1.98071 63.5946 2.05872C63.4388 2.13672 63.361 2.29271 63.2052 2.37072C62.2705 3.15082 61.3358 3.93091 60.4789 4.711C59.3106 5.72512 58.2201 6.66127 57.0517 7.67539C56.9738 7.7534 56.818 7.8314 56.7401 7.90941C54.4034 9.93765 51.9887 12.0439 50.8203 14.8522C49.5741 17.8166 48.7952 21.171 48.172 24.5254C48.172 24.6814 48.0941 24.8374 48.0941 24.9934C47.7047 27.0997 47.3152 29.2839 46.9257 31.3902C46.9257 31.5462 46.8479 31.7022 46.8479 31.8583C46.77 32.0923 46.77 32.4043 46.6921 32.6384C46.6142 32.9504 46.6142 33.2624 46.5363 33.5744C46.4584 33.8085 46.4584 34.0425 46.3805 34.2765C46.3026 34.5886 46.2247 34.9786 46.1468 35.2906C46.1468 35.4467 46.0689 35.6807 46.0689 35.8367C45.991 36.3828 45.8353 36.8509 45.7574 37.3189C45.7574 37.3189 45.7574 37.3189 45.7574 37.3969C45.7574 37.5529 45.6795 37.6309 45.6795 37.7869C45.6016 38.645 45.8353 39.4251 46.2247 40.2052C46.3805 40.5173 46.4584 40.8293 46.6142 41.1413C47.7826 43.8717 48.172 46.68 48.2499 49.5663C48.2499 50.5024 48.2499 51.4386 48.172 52.4527C48.0941 53.4668 48.0162 54.5589 47.9383 55.5731C47.7826 56.8992 47.7047 58.2254 47.5489 59.5516C47.5489 59.7076 47.5489 59.8636 47.471 60.0196C47.3152 61.4238 47.2373 62.7499 47.2373 64.0761C47.0815 70.9409 47.3931 77.8837 48.2499 84.7485C48.5615 87.0108 48.873 89.2731 49.2625 91.5353C49.4183 92.2374 49.4962 92.9395 49.652 93.7196C50.2751 96.762 51.054 100.194 52.3782 103.237V103.315C52.534 103.705 52.6898 104.017 52.9234 104.329C53.0013 104.407 53.0013 104.485 53.0792 104.563C53.235 104.875 53.3908 105.109 53.5466 105.343C53.6245 105.421 53.7023 105.577 53.7802 105.655C53.936 105.889 54.0918 106.123 54.2476 106.357C54.3255 106.435 54.4034 106.591 54.4813 106.669C54.6371 106.903 54.8707 107.137 55.0265 107.293C55.1044 107.371 55.1823 107.449 55.2602 107.605C55.5718 107.917 55.8054 108.151 56.117 108.463C58.6095 110.57 61.6473 110.882 64.6851 110.258C67.0998 109.79 69.5144 108.697 71.6954 107.605C72.4743 107.215 73.2532 106.747 74.0322 106.357C74.4216 106.123 74.7332 105.967 75.1226 105.733C75.4342 105.577 75.7458 105.343 75.9795 105.187L76.0573 105.109C76.291 104.953 76.5247 104.797 76.6805 104.641C76.7584 104.641 76.7584 104.563 76.8363 104.563C76.8363 104.563 76.9142 104.563 76.9142 104.485C77.1478 104.251 77.3815 104.017 77.6152 103.783C77.6931 103.705 77.6931 103.705 77.771 103.627C77.8489 103.549 77.9268 103.471 77.9268 103.393C78.0825 103.237 78.1604 103.003 78.3162 102.847C78.3941 102.691 78.472 102.535 78.5499 102.379C78.6278 102.223 78.7057 102.067 78.7836 101.989C78.7836 101.911 78.8615 101.911 78.8615 101.833C79.6404 100.116 80.8088 97.152 80.9645 95.4358C81.1203 94.8897 81.354 94.4217 81.5877 93.9536C81.8213 93.5636 82.055 93.1735 82.2887 92.8615C82.7561 92.2374 83.2234 91.6913 83.9244 91.2233C85.0149 90.4432 86.3391 90.0531 87.5854 89.3511C87.7411 89.273 87.8969 89.1171 88.0527 89.039C89.6884 87.9469 90.4674 86.7768 90.701 85.6066C90.7789 85.3726 90.7789 85.0605 90.7789 84.8265C90.9347 84.8265 90.8568 84.4365 90.7789 84.0464Z" fill="#444235"/>
<path opacity="0.87" d="M101.502 221.261C101.658 221.105 101.891 220.871 102.047 220.715C102.047 220.715 102.047 220.715 102.047 220.637C102.047 220.637 102.047 220.637 102.125 220.559C102.125 220.559 102.125 220.559 102.125 220.481C102.203 220.403 102.203 220.325 102.281 220.247C102.437 220.013 102.67 219.779 102.826 219.545C102.904 219.389 102.982 219.233 103.06 219.155C103.216 218.921 103.371 218.687 103.527 218.374C103.605 218.218 103.683 218.062 103.761 217.906C103.917 217.672 103.994 217.36 104.15 217.126C104.228 216.97 104.306 216.814 104.306 216.658C104.384 216.346 104.54 216.034 104.618 215.722C104.695 215.566 104.695 215.41 104.773 215.254C104.851 214.942 105.007 214.552 105.085 214.24C105.085 214.084 105.163 214.006 105.163 213.85C105.241 213.46 105.319 213.07 105.396 212.68C105.396 212.602 105.396 212.524 105.474 212.446C105.552 211.978 105.63 211.51 105.708 211.042V210.964C107.032 199.262 102.047 183.348 99.7104 175.235C98.542 171.257 97.3736 167.122 95.5042 163.456C94.6474 161.74 93.7127 160.18 92.4664 158.697C89.896 155.421 86.4688 152.847 83.1194 150.35C82.7299 150.116 82.4184 149.804 82.0289 149.57C74.2397 143.876 64.1917 138.337 55.0783 138.493C53.9878 138.493 52.9752 138.649 51.9626 138.805H51.8847C51.4953 138.883 51.1058 138.961 50.6385 139.039C50.5606 139.039 50.4827 139.039 50.4048 139.117C50.0153 139.195 49.7038 139.351 49.3143 139.429C49.2364 139.429 49.0806 139.507 49.0027 139.507C48.6912 139.585 48.3796 139.741 48.068 139.897C47.9122 139.975 47.8343 139.975 47.6786 140.053C47.367 140.209 47.1333 140.365 46.8218 140.443C46.666 140.521 46.5881 140.599 46.4323 140.677C46.3544 140.677 46.2765 140.755 46.2765 140.755C46.0428 140.911 45.8092 140.989 45.6534 141.145C45.4976 141.223 45.3418 141.301 45.2639 141.379C44.9523 141.535 44.7187 141.769 44.4071 142.003C44.2513 142.081 44.1734 142.159 44.0176 142.237C44.0176 142.237 43.9397 142.237 43.9397 142.315C43.5503 142.627 43.2387 142.94 42.8493 143.252C42.4598 143.642 42.0703 144.032 41.6809 144.422C40.5125 145.67 39.422 147.074 38.4094 148.79C38.0979 149.258 37.8642 149.726 37.6305 150.272C37.5526 150.35 37.5526 150.428 37.4747 150.506C37.3968 150.584 37.3968 150.662 37.3189 150.74C37.0853 151.286 36.7737 151.833 36.54 152.379C36.4621 152.457 36.4621 152.613 36.3842 152.769C36.1506 153.315 35.9169 153.861 35.6832 154.407C35.6832 154.485 35.6053 154.563 35.6053 154.563C35.3716 155.109 35.2159 155.577 35.0601 156.123C34.9822 156.279 34.9822 156.435 34.9043 156.591C34.7485 157.059 34.5927 157.605 34.359 158.151C34.2811 158.385 34.2033 158.619 34.1254 158.853C34.0475 159.165 33.9696 159.477 33.8138 159.712C33.3464 161.272 32.8791 162.754 32.4117 164.314C32.1002 165.406 31.7886 166.42 31.3991 167.512C28.6729 175.625 24.6225 183.27 19.4038 190.135C18.0017 191.929 16.5997 193.646 15.0418 195.362C12.9388 197.702 10.602 199.886 8.57681 202.305C7.33054 203.787 6.24005 205.269 5.30535 206.907C3.12437 210.808 2.26756 215.722 3.90329 219.701C3.90329 219.779 3.98118 219.779 3.98118 219.857C4.05907 220.091 4.13697 220.247 4.29275 220.481C4.44853 220.715 4.60432 221.027 4.7601 221.261C4.91589 221.417 4.99378 221.651 5.14956 221.807C5.22745 221.885 5.30535 221.963 5.30535 222.041C5.38324 222.119 5.46113 222.275 5.61691 222.353C5.61691 222.353 5.61691 222.353 5.69481 222.431C5.7727 222.509 5.85059 222.587 5.92848 222.665C6.00637 222.743 6.08426 222.821 6.16216 222.899C6.24005 222.977 6.39583 223.133 6.55162 223.211C6.62951 223.289 6.7074 223.289 6.78529 223.367C6.94108 223.445 7.09686 223.601 7.25264 223.679C7.33054 223.679 7.33054 223.757 7.40843 223.757C7.56421 223.913 7.79789 223.991 7.95367 224.147C7.95367 224.147 8.03156 224.147 8.03156 224.225C14.1071 227.814 26.1025 228.828 38.8768 228.828C54.0657 228.828 70.3451 227.346 79.3806 226.878C79.4585 226.878 79.5364 226.878 79.6143 226.878C79.8479 226.878 80.0816 226.878 80.3153 226.878C80.3932 226.878 80.549 226.878 80.6269 226.878C80.7826 226.878 81.0163 226.878 81.1721 226.878C81.3279 226.878 81.4058 226.878 81.5616 226.878C81.7173 226.878 81.8731 226.878 82.0289 226.878C82.1847 226.878 82.3405 226.878 82.4963 226.878C82.5742 226.878 82.652 226.878 82.8078 226.878C83.0415 226.878 83.2752 226.878 83.5089 226.878C84.7551 226.878 86.0014 226.8 87.2477 226.721C90.597 226.487 93.8685 226.019 96.8284 224.771C96.8284 224.771 96.9063 224.771 96.9063 224.693C97.1399 224.615 97.4515 224.459 97.6852 224.303C97.7631 224.225 97.841 224.225 97.9189 224.147C98.1525 224.069 98.3862 223.913 98.542 223.835H98.6199C98.6199 223.835 98.6978 223.835 98.6978 223.757C98.7757 223.679 98.8536 223.679 98.9315 223.601C99.0872 223.523 99.243 223.367 99.4767 223.289C99.6325 223.211 99.7104 223.133 99.7883 223.055C99.8662 222.977 99.9441 222.899 100.022 222.821C100.1 222.743 100.178 222.665 100.256 222.665C100.567 222.431 100.801 222.197 101.112 221.963C101.268 221.495 101.424 221.417 101.502 221.261Z" fill="#444235"/>
<path d="M39.7591 145.362C51.365 134.753 68.4234 143.802 79.9514 152.383C83.3007 154.879 86.728 157.453 89.2984 160.73C93.0372 165.488 94.8287 171.495 96.5424 177.268C99.7359 188.345 107.992 214.166 97.9444 223.605C93.4267 227.896 86.4943 228.364 80.2629 228.52C66.6319 228.754 9.92651 235.697 1.74785 223.215C-1.05626 219.003 -0.199448 213.23 2.29309 208.861C4.78564 204.415 8.60234 200.983 12.0296 197.316C19.3514 189.359 24.9597 179.764 28.3869 169.545C30.49 163.226 31.8141 156.595 35.2414 150.901C36.7213 148.638 38.2013 146.766 39.7591 145.362Z" fill="#C4C1A9"/>
<path opacity="0.9" d="M80.3409 228.598C86.5722 228.442 93.5046 228.052 98.0224 223.683C103.397 218.534 103.475 208.705 101.917 198.954C101.45 199.89 100.826 200.904 100.125 201.762C96.2308 206.599 89.2206 210.031 83.6124 212.138C75.3558 215.258 73.2527 212.918 65.3856 212.606C53.4682 212.138 41.7065 223.995 29.789 215.648C25.8165 212.918 24.3366 208.393 26.2839 203.947C28.6985 198.33 32.9047 200.514 37.033 197.394C39.2139 195.678 40.616 192.947 40.616 190.139C40.616 183.118 37.1888 180.7 43.0306 175.863C49.8072 170.247 47.5484 165.02 49.6515 157.063C51.0535 151.914 53.9355 147.78 58.1417 144.504C59.3101 143.645 60.4784 142.865 61.6468 142.163C53.9355 139.589 46.0684 139.589 39.8371 145.284C38.2792 146.766 36.7214 148.56 35.3972 150.822C31.97 156.517 30.6458 163.148 28.5427 169.467C25.1155 179.764 19.5073 189.281 12.1854 197.238C8.75819 200.982 4.94149 204.415 2.44894 208.783C-0.0435976 213.23 -0.822517 218.924 1.9037 223.137C10.0045 235.774 66.7098 228.832 80.3409 228.598Z" fill="#D3CEBA"/>
<path d="M61.18 171.182C62.9716 175.863 62.1926 178.827 66.9441 181.948C69.7482 183.742 73.5649 183.898 76.6027 185.302C82.9119 188.266 86.4949 192.947 86.7286 200.124C86.9623 208.861 82.2109 215.258 75.6679 220.484C71.6955 223.683 66.243 226.101 62.5821 229.689C70.3713 229.143 76.8363 228.675 80.4194 228.597C86.6507 228.441 93.5831 228.051 98.1008 223.683C108.071 214.166 99.8145 188.344 96.6988 177.345C95.063 171.494 93.1936 165.566 89.4548 160.807C86.8844 157.531 83.4571 154.956 80.1078 152.46C68.5019 143.801 51.5214 134.752 39.9155 145.439C38.3577 146.922 36.7999 148.716 35.4757 150.978C32.5937 155.737 31.1916 161.119 29.5559 166.424C41.006 160.183 55.7276 156.829 61.18 171.182Z" fill="#B8B59B"/>
<path d="M80.3409 228.597C86.5722 228.441 93.5046 228.051 98.0224 223.683C100.749 221.03 102.151 217.208 102.618 212.683C92.1805 217.598 56.506 225.555 29.5553 222.513C19.6631 221.42 14.8338 211.903 18.261 203.088C22.8566 191.231 34.3068 183.508 39.2918 171.963C44.199 160.651 41.7844 148.95 49.1062 140.837C45.8348 141.383 42.6412 142.787 39.8371 145.361C38.2792 146.844 36.7214 148.638 35.3972 150.9C31.97 156.595 30.6458 163.226 28.5427 169.544C25.1155 179.842 19.5073 189.359 12.1854 197.316C8.75819 201.06 4.94149 204.492 2.44894 208.861C-0.0435976 213.308 -0.822517 219.002 1.9037 223.215C10.0045 235.774 66.7098 228.831 80.3409 228.597Z" fill="#9E9B83"/>
<path d="M41.2397 226.959C49.2626 227.115 57.2075 225.789 65.1525 225.165C65.2304 225.165 65.3862 225.087 65.4641 225.087C72.7859 223.995 80.2635 224.307 86.4949 228.207C90.779 227.739 94.9072 226.569 97.945 223.683C100.671 221.03 102.073 217.208 102.541 212.683C92.1031 217.598 56.4286 225.555 29.478 222.513C19.5857 221.42 14.7564 211.903 18.1837 203.088C22.7793 191.231 34.2294 183.508 39.2145 171.963C44.1217 160.651 41.707 148.95 49.0289 140.837C46.6921 141.227 44.3554 142.085 42.2523 143.489C38.9029 151.68 40.7723 160.729 36.0209 168.53C30.7243 177.189 23.714 184.678 18.5731 193.649C15.2238 199.656 13.8217 207.691 8.29138 212.293C5.87673 214.322 3.07262 215.57 0.112728 216.506C0.0348356 218.924 0.502187 221.342 1.82635 223.293C3.69576 226.179 8.1356 227.973 14.0554 229.143C16.8595 227.895 19.8973 227.115 23.4024 226.725C29.3222 226.101 35.242 226.803 41.2397 226.959Z" fill="#898468"/>
<path opacity="0.6" d="M53.702 153.474C75.6676 156.127 90.7786 177.345 94.9069 191.699C98.4899 204.102 98.3341 217.754 90.7007 227.505C93.4269 226.803 95.9195 225.633 97.9447 223.683C107.915 214.165 99.6583 188.344 96.5426 177.345C94.9069 171.494 93.0375 165.566 89.2986 160.807C86.7282 157.531 83.301 154.956 79.9516 152.46C68.3457 143.801 51.3653 134.752 39.7594 145.439C38.2015 146.922 36.6437 148.716 35.3195 150.978C34.0733 153.084 33.0607 155.268 32.2817 157.531C32.9049 157.063 33.6059 156.673 34.3069 156.361C40.0709 153.474 47.3928 152.694 53.702 153.474Z" fill="#DDD9C7"/>
<path opacity="0.54" d="M56.5833 161.51C59.3096 162.68 60.7895 165.098 60.0106 166.892C59.2317 168.686 56.4276 169.232 53.7013 167.984C50.9751 166.814 49.4952 164.396 50.2741 162.602C51.1309 160.807 53.935 160.339 56.5833 161.51Z" fill="#4C4A38"/>
<path d="M44.1211 210.578C45.1337 213.386 44.4327 216.117 42.5633 216.819C40.6939 217.521 38.435 215.805 37.4224 212.996C36.4098 210.266 37.1109 207.458 38.9803 206.755C40.7718 206.053 43.1085 207.77 44.1211 210.578Z" fill="#A49E85"/>
<path opacity="0.65" d="M58.22 194.819C58.4537 194.273 58.6874 193.727 58.999 193.259C59.9337 191.465 60.8684 189.593 62.3483 188.189C63.7504 186.706 65.6977 185.692 67.7229 185.77C74.4216 185.926 72.6301 194.585 71.3059 198.642C69.826 203.01 68.7355 208.393 65.6977 212.059C62.8157 215.492 56.3506 217.052 55.6496 211.201C54.9486 205.975 56.117 199.5 58.22 194.819Z" fill="#E2DFD7"/>
<path d="M59.5443 196.926C61.8031 189.437 66.243 184.054 69.4365 185.068C72.6301 186.004 73.409 192.947 71.1502 200.436C68.8913 208.003 64.4514 213.308 61.2579 212.293C58.0643 211.357 57.2854 204.415 59.5443 196.926Z" fill="#A49E85"/>
<path opacity="0.55" d="M64.0619 190.607C67.5671 190.373 68.8913 194.039 68.8913 197.004C68.8134 202.308 65.6198 208.549 61.1021 212.215C61.1799 212.215 61.1799 212.293 61.2578 212.293C64.4514 213.23 68.8912 207.925 71.1501 200.436C73.409 192.869 72.6301 186.004 69.4365 185.068C67.0997 184.366 64.1398 187.018 61.8031 191.387C62.5041 190.997 63.283 190.685 64.0619 190.607Z" fill="#51493C"/>
<path opacity="0.7" d="M78.7832 171.183C79.2506 171.651 79.64 172.197 80.0295 172.666C88.5976 183.041 90.8565 196.848 93.9721 209.564C94.1279 210.266 94.3616 210.968 94.829 211.436C95.7637 212.216 97.2436 211.748 98.0225 210.812C98.7235 209.876 98.8793 208.55 99.0351 207.38C100.593 186.785 90.3891 165.801 73.3308 154.255C66.2426 149.497 53.6241 145.596 46.6138 152.617C46.3023 152.929 45.9128 153.319 45.8349 153.787C45.6012 154.723 46.2244 155.659 47.0812 156.049C47.938 156.44 48.8727 156.518 49.8074 156.596C60.8681 157.376 71.3835 162.914 78.7832 171.183Z" fill="#EAE6D3"/>
<path d="M77.1476 165.566C78.316 165.878 79.718 165.488 80.2633 164.474C80.7306 163.538 80.4191 162.29 79.6401 161.51C76.9139 158.467 73.3309 156.361 69.5921 154.801C65.8533 153.241 61.725 151.603 57.6746 151.134C56.3504 150.978 54.9484 150.9 53.6242 151.368C53.0011 151.603 52.3001 152.227 52.6116 152.851C52.6895 153.007 52.9232 153.163 53.079 153.241C56.1947 155.269 60.1671 155.503 63.6723 156.673C67.4111 157.921 70.7605 160.34 73.6425 163.148C74.5772 164.084 75.5119 165.098 76.7581 165.488C76.9139 165.488 76.9918 165.566 77.1476 165.566Z" fill="#EFEBDC"/>
<path d="M90.7009 186.707C91.324 188.969 91.9472 191.31 92.6482 193.572C92.9598 194.742 93.8945 200.125 95.7639 199.578C99.1911 198.642 94.9849 186.239 94.1281 184.289C93.5829 183.041 92.4924 180.778 90.8567 181.87C89.5325 182.885 90.3893 185.381 90.7009 186.707Z" fill="#EFEBDC"/>
<path d="M86.9052 51.1971H87.0058C92.7387 53.111 100.785 38.6062 101.589 34.6778C102.092 32.361 102.092 29.9436 102.696 27.6268C104.003 21.9861 115.067 9.69727 112.452 4.15724C110.038 -1.18135 94.4485 4.15719 90.0231 4.86228C88.8162 5.06374 87.5087 5.36595 86.8046 6.2725C81.8764 12.8198 83.9885 30.145 84.1896 37.8003C84.2902 41.0236 83.385 49.8877 86.9052 51.1971Z" fill="#A5ADA6"/>
<path opacity="0.7" d="M96.7612 29.4399C96.6607 26.5188 98.0687 23.5977 100.281 21.7846C102.293 20.0722 106.316 20.2736 105.511 16.8489C105.21 15.4387 104.204 14.3307 103.098 13.5249C101.388 12.4169 99.0745 12.0139 97.2641 13.0212C95.856 13.7263 95.6549 15.2372 95.152 16.5467C94.5486 18.1584 93.4422 19.4678 92.8388 21.0795C92.2353 22.7918 91.5313 24.6049 92.0341 26.418C92.1347 26.9217 92.3359 27.3246 92.6376 27.8283C92.9393 28.4326 93.4422 28.9362 93.4422 29.6413C93.2411 31.7566 94.448 33.7712 95.9566 35.1814C96.0572 35.2821 96.2584 35.4836 96.4595 35.4836C96.8618 35.4836 96.9624 34.9799 96.9624 34.6777C96.9624 32.8646 96.7612 31.1523 96.7612 29.4399Z" fill="#B3BAB3"/>
<path d="M94.6497 10.9059C96.259 10.1001 98.3711 9.49576 100.181 10.1001C102.394 10.9059 102.294 12.6184 103.5 14.23C104.506 15.5395 106.317 15.9424 107.423 17.554C107.524 17.7555 107.624 17.9569 107.725 18.1583C110.843 13.0212 113.96 7.48122 112.452 4.25793C110.038 -1.08065 94.4486 4.25794 90.0232 4.96303C88.8163 5.16449 87.5088 5.46663 86.8048 6.37318C84.1898 9.89866 83.4857 16.446 83.5863 22.9933C85.4973 17.6547 89.118 13.4241 94.6497 10.9059Z" fill="#979E98"/>
<path opacity="0.45" d="M99.0747 40.52C98.8736 40.52 98.6724 40.4193 98.3707 40.4193C92.6378 38.9084 94.3476 34.6778 91.2298 31.1523C90.8274 30.6486 90.3246 30.2457 90.0228 29.6414C88.9165 27.7275 90.1234 24.3028 90.8274 22.3889C91.6321 20.4751 92.839 18.662 92.839 16.5467C92.839 15.5394 92.4367 14.4314 92.839 13.4241C93.3419 12.2154 94.6494 11.8125 95.6551 10.9059C97.7672 9.09279 97.3649 5.16442 99.1753 2.74695C95.3534 3.55277 91.7326 4.56003 90.0228 4.86221C88.8159 5.06367 87.5084 5.36588 86.8044 6.27243C81.8761 12.8198 83.9882 30.145 84.1894 37.8003C84.29 41.1243 83.3848 49.8877 86.905 51.1971H87.0055C91.0286 52.5066 96.158 45.9593 99.0747 40.52Z" fill="#D7DDDB"/>
<path opacity="0.54" d="M97.9684 42.4337C97.5661 42.2323 97.0632 42.0308 96.6609 41.7286C90.7269 38.6061 88.6148 32.2602 89.2182 25.8136C89.9223 18.5612 90.5257 9.39495 95.3534 3.55273C93.0401 4.05637 91.1292 4.56003 90.0228 4.76148C88.8159 4.96294 87.5084 5.26514 86.8044 6.1717C81.8761 12.719 83.9882 30.0442 84.1894 37.6995C84.29 41.0235 83.3848 49.7868 86.905 51.0963H87.0055C90.5257 52.4058 94.9511 47.3694 97.9684 42.4337Z" fill="#657065"/>
<path opacity="0.54" d="M97.9684 42.4337C97.5661 42.2323 97.0633 42.0308 96.661 41.7286C90.7269 38.6061 88.6148 32.2602 89.2183 25.8136C89.9223 18.5612 90.5258 9.39495 95.3535 3.55273C93.0402 4.05637 91.1293 4.56003 90.0229 4.76148C88.816 4.96294 87.5085 5.26514 86.8045 6.1717C86.201 6.87679 85.7987 7.78332 85.3964 8.7906C85.8993 8.99205 86.4022 9.39494 86.8045 9.89858C90.3246 15.1364 89.8218 20.6765 87.9108 26.2165C87.8102 29.3391 87.5085 32.3609 87.4079 35.4835C87.3073 38.9082 86.8045 42.0308 85.2958 45.0526C85.0947 45.5563 84.6924 45.9591 84.3906 46.1606C84.6924 48.4773 85.3964 50.4919 86.905 51.0963H87.0056C90.5258 52.4058 94.9512 47.3694 97.9684 42.4337Z" fill="#657065"/>
<path d="M106.116 9.49582C107.926 11.4097 108.731 13.5249 109.032 15.8417C111.647 11.4096 113.759 6.97763 112.452 4.15724C110.038 -1.18135 94.4487 4.15719 90.0233 4.86229C88.8164 5.06374 87.5089 5.36595 86.8049 6.27251C86.7043 6.47396 86.6037 6.67539 86.4026 6.87685C93.2418 5.2652 100.785 3.95577 106.116 9.49582Z" fill="#C4CEC6"/>
<path opacity="0.5" d="M106.115 11.7117C106.417 12.3161 106.518 13.1219 107.021 13.6255C107.423 14.2299 108.328 14.5321 108.931 14.1292C109.736 13.5248 110.742 11.4096 110.742 10.503C110.641 9.59645 110.34 8.79061 109.937 8.08551C109.233 6.67533 108.328 5.1644 106.92 4.35858C105.612 3.65348 104.003 3.55277 102.394 3.55277C100.282 3.55277 98.0692 3.45203 95.9571 4.35858C95.3536 4.66076 94.6496 5.26515 94.9513 5.76879C95.1525 6.07097 95.4542 6.1717 95.7559 6.27243C98.5721 7.38043 105.21 7.8841 106.115 11.7117Z" fill="#F0F2F0"/>
<path d="M108.328 10.2009C108.731 10.1002 108.932 9.69726 108.932 9.19362C108.932 8.68999 108.63 8.28706 108.429 7.78342C106.82 5.26525 103.702 3.95582 101.59 5.46672C102.092 6.17181 107.725 10.3016 108.328 10.2009Z" fill="#EFEFEF"/>
<path d="M99.2754 20.173C96.1575 20.4752 92.5367 27.6269 92.8385 30.3465C93.0396 31.8574 94.146 33.3683 95.6546 33.469C100.482 33.7712 103.701 26.0152 101.79 22.0869C101.186 20.5759 100.281 20.0723 99.2754 20.173Z" fill="#979E98"/>
<path d="M96.6612 13.2227C96.0577 14.7336 98.5721 18.1584 99.9802 18.7627C100.785 19.0649 101.791 18.8634 102.193 18.1583C103.5 15.9423 100.584 12.6183 98.1698 12.5176C97.2647 12.5176 96.8624 12.719 96.6612 13.2227Z" fill="#979E98"/>
<path d="M89.3761 152.773H89.454C93.8159 150.901 91.0897 138.419 89.5319 135.689C88.5972 134.129 87.4288 132.647 86.572 131.008C84.391 127.03 84.7026 114.236 80.3406 112.286C76.2124 110.414 69.8252 121.491 67.5664 124.144C66.9432 124.846 66.3201 125.704 66.398 126.64C66.8653 132.959 76.9134 142.008 80.8859 146.376C82.6774 148.248 86.6499 153.787 89.3761 152.773Z" fill="#A5ADA6"/>
<path opacity="0.7" d="M84.0014 135.143C82.4436 133.505 81.8204 131.086 82.2099 128.824C82.5215 126.874 84.9361 124.924 82.833 123.285C81.9762 122.661 80.8078 122.427 79.7173 122.583C78.1595 122.739 76.6017 123.754 75.9785 125.236C75.5112 126.406 76.1343 127.342 76.5238 128.356C76.9911 129.604 76.9911 130.93 77.4585 132.179C77.9258 133.505 78.549 134.909 79.7173 135.689C80.0289 135.923 80.4184 136.079 80.7299 136.235C81.1973 136.391 81.8204 136.469 82.0541 136.859C82.9888 138.185 84.7024 138.731 86.3382 138.809C86.4939 138.809 86.6497 138.809 86.7276 138.731C86.9613 138.575 86.8055 138.185 86.5718 137.951C85.9487 137.015 84.9361 136.079 84.0014 135.143Z" fill="#B3BAB3"/>
<path d="M73.3304 125.314C73.8756 124.066 74.7324 122.583 76.1345 122.037C77.7702 121.335 78.627 122.427 80.1849 122.739C81.509 122.973 82.7553 122.349 84.1573 122.661C84.3131 122.739 84.4689 122.739 84.6247 122.817C83.8458 118.215 82.9111 113.456 80.3406 112.286C76.2124 110.414 69.8252 121.491 67.5664 124.144C66.9432 124.846 66.3201 125.704 66.398 126.64C66.6316 129.994 69.5915 134.207 72.9409 137.951C71.461 133.973 71.461 129.604 73.3304 125.314Z" fill="#979E98"/>
<path opacity="0.45" d="M91.0118 140.292C90.856 140.37 90.7003 140.448 90.5445 140.526C86.4162 142.554 85.2478 139.278 81.6648 138.731C81.1974 138.653 80.6522 138.653 80.1849 138.497C78.627 137.951 77.5365 135.377 76.9913 133.817C76.446 132.257 76.2903 130.54 75.1998 129.37C74.6545 128.746 73.8756 128.278 73.6419 127.576C73.3304 126.64 73.8756 125.704 73.9535 124.69C74.1872 122.584 72.0062 120.477 71.8504 118.137C70.0589 120.555 68.4232 122.974 67.5664 124.066C66.9432 124.768 66.3201 125.626 66.398 126.562C66.8653 132.881 76.9134 141.93 80.8859 146.298C82.5995 148.171 86.572 153.709 89.2982 152.773H89.3761C92.4139 151.447 92.0244 145.05 91.0118 140.292Z" fill="#D7DDDB"/>
<path opacity="0.54" d="M91.3234 142.008C90.9339 142.086 90.6224 142.242 90.2329 142.242C85.1699 143.49 80.7301 140.838 77.7702 136.781C74.4208 132.179 70.2147 126.562 70.0589 120.633C69.0463 122.115 68.1116 123.363 67.5664 124.066C66.9432 124.768 66.3201 125.626 66.398 126.562C66.8653 132.881 76.9134 141.93 80.8859 146.298C82.5995 148.17 86.572 153.709 89.2982 152.773H89.3761C92.1023 151.603 92.1023 146.454 91.3234 142.008Z" fill="#657065"/>
<path opacity="0.54" d="M91.3234 142.008C90.9339 142.086 90.6224 142.242 90.2329 142.242C85.1699 143.49 80.7301 140.838 77.7702 136.781C74.4208 132.179 70.2147 126.562 70.0589 120.633C69.0463 122.115 68.1116 123.363 67.5664 124.066C66.9432 124.768 66.3201 125.626 66.398 126.562C66.4759 127.264 66.6317 128.044 66.9432 128.824C67.3327 128.668 67.8 128.668 68.3453 128.824C73.0188 130.072 75.5892 133.583 77.225 137.795C78.7049 139.667 80.107 141.54 81.6648 143.412C83.3005 145.44 84.6247 147.546 85.3257 150.043C85.4815 150.511 85.4036 150.823 85.3257 151.135C86.7278 152.305 88.1298 153.163 89.2982 152.695H89.3761C92.1023 151.603 92.1023 146.454 91.3234 142.008Z" fill="#657065"/>
<path d="M79.328 118.605C81.3532 118.761 82.9111 119.619 84.2352 120.867C83.4563 116.967 82.4437 113.3 80.3406 112.286C76.2124 110.414 69.8252 121.491 67.5664 124.144C66.9432 124.846 66.3201 125.704 66.398 126.64C66.398 126.796 66.4759 127.03 66.4759 127.186C69.6694 122.739 73.4083 118.137 79.328 118.605Z" fill="#C4CEC6"/>
<path opacity="0.5" d="M80.4965 119.931C80.9639 120.165 81.4312 120.477 81.9765 120.633C82.5217 120.711 83.2228 120.477 83.3007 119.931C83.4564 119.151 82.9891 117.435 82.4438 116.889C81.9765 116.421 81.3533 116.109 80.7302 115.875C79.5618 115.407 78.3156 115.016 77.0693 115.25C75.9009 115.485 74.9662 116.343 74.0315 117.123C72.7852 118.215 71.4611 119.307 70.6821 120.867C70.4485 121.335 70.3706 122.037 70.8379 122.193C71.0716 122.271 71.3053 122.193 71.539 122.115C73.8757 121.257 78.004 118.137 80.4965 119.931Z" fill="#F0F2F0"/>
<path d="M81.0417 117.903C81.2753 117.669 81.1196 117.279 80.8859 116.967C80.6522 116.733 80.2627 116.577 79.8733 116.421C77.6923 115.797 75.1998 116.655 74.7324 118.527C75.3556 118.761 80.7301 118.293 81.0417 117.903Z" fill="#EFEFEF"/>
<path d="M80.808 128.356C79.1722 130.15 80.6522 136.157 82.21 137.639C83.0668 138.419 84.5468 138.731 85.4815 138.029C88.4414 135.689 86.4162 129.604 83.3005 128.2C82.1321 127.654 81.3532 127.81 80.808 128.356Z" fill="#979E98"/>
<path d="M75.7449 125.704C76.2123 126.874 79.4059 127.576 80.4963 127.186C81.1195 126.952 81.5868 126.328 81.4311 125.704C81.0416 123.754 77.6143 123.285 76.2123 124.456C75.7449 124.846 75.5892 125.314 75.7449 125.704Z" fill="#979E98"/>
<path d="M61.3353 116.966C64.6068 116.264 67.9562 114.548 70.6824 113.066C72.3181 112.13 74.0317 111.194 74.9664 109.555C77.1474 105.889 76.7579 100.506 80.4968 97.8539C81.743 96.9958 83.3009 96.5278 84.625 95.6697C90.389 91.6912 85.404 87.3227 84.1577 82.9542C83.6903 81.238 83.6124 79.3657 83.5345 77.5715C81.9767 71.7208 81.042 66.1822 79.0947 60.3315C77.0695 54.0907 78.861 45.9778 79.2505 39.503C79.4842 35.5245 79.4842 31.39 77.9263 27.7236C76.2906 24.0571 73.1749 21.1708 71.695 17.4264C70.7603 15.0861 70.3708 12.4337 69.1245 10.1715C67.8783 7.90919 65.3857 6.03697 62.8932 6.66104C61.6469 6.97308 60.6343 7.83118 59.6996 8.61128C57.5186 10.4835 55.3377 12.3557 53.2346 14.228C50.8978 16.2562 48.4832 18.3625 47.3148 21.1708C44.5107 27.9576 43.9654 36.5386 42.2518 43.7935C41.9403 45.0417 42.5634 46.2898 43.1086 47.5379C46.2243 54.7928 43.8875 62.9838 43.7318 70.6287C43.576 79.8338 44.1212 89.0389 45.757 98.088C46.7696 103.627 48.1716 111.272 52.7672 115.094C55.2598 117.278 58.2976 117.59 61.3353 116.966Z" fill="#AAAAAA"/>
<path d="M53.5461 14.072C54.4808 13.2919 60.0112 16.7244 60.868 17.2704C63.6721 18.9866 66.2425 21.0929 67.7225 24.0572C68.2677 25.0714 68.6572 26.2415 68.5014 27.4116C68.4235 28.1917 68.0341 28.8938 67.9562 29.7519C67.8783 31.3901 69.0467 32.5602 69.6698 33.8864C70.4487 35.5246 70.3708 36.9287 70.1371 38.6449C69.514 42.3114 67.6446 46.1339 68.9688 49.8003C69.2803 50.6584 69.7477 51.5165 70.1371 52.3746C71.7729 56.3531 70.6045 60.7996 69.6698 64.9341C69.3582 66.1822 69.0467 67.5084 69.2803 68.8345C69.7477 72.657 73.7202 74.9973 75.6675 78.2737C77.6148 81.472 77.3811 84.9824 75.6675 88.1808C73.7202 91.8472 72.3181 96.7619 71.695 100.896C70.994 105.577 70.2929 110.257 68.3456 114.236C69.1245 113.846 69.9035 113.378 70.6824 112.988C72.3181 112.052 74.0317 111.116 74.9664 109.477C77.1474 105.811 76.758 100.428 80.4968 97.776C81.743 96.9179 83.3009 96.4498 84.625 95.5917C90.3891 91.6132 85.404 87.2447 84.1577 82.8762C83.6903 81.16 83.6125 79.2878 83.5346 77.4936C81.9767 71.6429 81.042 66.1042 79.0947 60.2535C77.0695 54.0128 78.861 45.8998 79.2505 39.425C79.4842 35.4466 79.4842 31.3121 77.9263 27.6457C76.2906 23.9792 73.1749 21.0929 71.695 17.3484C70.7603 15.0082 70.3708 12.3558 69.1245 10.0936C67.8783 7.83131 65.3857 5.95909 62.8932 6.58316C61.6469 6.8952 60.6343 7.7533 59.6996 8.53339C57.6744 10.5616 55.5713 12.3558 53.5461 14.072Z" fill="#9C9C9C"/>
<path opacity="0.7" d="M58.0638 59.0054C58.4533 60.0975 59.3101 60.9556 59.8553 61.9698C61.4132 64.7781 60.9458 68.2105 60.4006 71.4089C58.9206 79.3658 51.6767 90.6772 57.9081 98.01C58.7649 99.0242 59.9332 99.9603 61.2574 100.116C62.7374 100.35 64.2952 99.5702 65.0741 98.2441C65.853 96.9179 65.6972 95.2017 64.7625 94.0315C64.0615 93.1734 63.0489 92.6274 62.27 91.7693C57.9859 87.0887 63.9057 79.2098 64.6847 74.2172C65.3078 70.2387 65.6972 66.1823 65.5415 62.1258C65.4636 58.7714 63.9057 55.0269 64.451 51.7506C64.9183 48.7082 68.1119 46.4459 68.2677 43.4036C68.4235 40.7512 66.7098 38.4109 66.3204 35.9146C65.9309 33.2623 66.5541 31.0001 66.8656 28.2697C66.9435 27.6457 67.0214 27.0216 66.7877 26.4755C66.3983 25.3054 64.9962 24.6813 63.7499 24.8374C62.5037 24.9934 61.4132 25.6954 60.5564 26.5535C51.9883 34.0424 54.325 49.4883 58.0638 59.0054Z" fill="#B8B8B8"/>
<path opacity="0.45" d="M61.3354 116.966C64.6068 116.264 67.9562 114.548 70.6824 113.066C72.3181 112.13 74.0318 111.194 74.9665 109.555C75.7454 108.229 78.5495 101.754 77.2253 100.818C76.1348 101.364 74.9665 101.676 73.876 102.067C72.1624 102.769 71.695 103.237 69.8256 102.925C68.2678 102.691 66.8657 102.066 65.3858 102.925C64.6068 103.315 63.9837 104.095 63.1269 104.485C57.3629 107.527 53.1567 95.8258 52.8451 91.9253C52.5336 87.4788 53.7799 82.9542 54.4809 78.5857C55.104 74.5292 57.0513 70.7067 55.805 66.4943C55.4935 65.4801 54.9482 64.466 54.7146 63.3739C54.0135 60.3315 55.7271 57.1331 55.1819 54.0128C54.7146 51.1264 52.4557 48.7862 51.7547 45.8998C50.6642 41.3753 53.4683 37.0068 54.6367 32.4822C55.4156 29.5179 55.5714 26.2415 57.5187 23.9012C58.1418 23.1991 58.8428 22.653 59.3881 21.8729C60.0112 21.0148 60.3228 20.0007 60.868 19.0646C62.8153 15.7102 67.0994 15.2422 70.6045 14.6961C70.1372 13.1359 69.7477 11.6538 68.9688 10.2496C67.7225 7.98732 65.23 6.11509 62.7374 6.73917C61.4912 7.05121 60.4786 7.90931 59.5439 8.6894C57.3629 10.5616 55.1819 12.4339 53.0788 14.3061C50.7421 16.3343 48.3274 18.4405 47.159 21.2489C44.3549 28.0357 43.8097 36.6167 42.0961 43.8716C41.7845 45.1197 42.4076 46.3679 42.9529 47.616C46.0685 54.8709 43.7318 63.0619 43.576 70.7068C43.4202 79.9119 43.9655 89.117 45.6012 98.166C46.6138 103.705 48.0158 111.35 52.6115 115.172C55.2598 117.278 58.2976 117.59 61.3354 116.966Z" fill="#DBDBDB"/>
<path opacity="0.54" d="M61.3353 116.966C64.6068 116.264 67.9562 114.548 70.6824 113.066C72.3181 112.13 74.0317 111.193 74.9664 109.555C76.5243 106.903 76.758 103.315 78.2379 100.584C74.4991 102.768 70.6824 104.797 66.7099 105.577C64.6847 107.059 62.1922 107.449 59.5438 106.045C55.3377 103.783 53.3125 98.2439 52.222 93.8754C50.742 87.7127 51.8325 81.7059 53.0788 75.7772C53.0788 73.593 53.1567 71.4087 53.3125 69.1465C53.624 64.8559 53.2346 61.0335 52.5336 57.289C51.2094 52.6085 49.6516 47.9279 49.5737 43.0914C49.0284 37.8647 50.3526 33.1842 52.923 29.1277C54.7924 24.0571 57.5965 19.3766 61.3353 16.4902C63.5942 14.774 66.7099 12.6678 69.8256 11.9657C69.5919 11.4196 69.3582 10.8735 69.1245 10.3275C67.8783 8.0652 65.3857 6.19297 62.8932 6.81705C61.6469 7.12909 60.6343 7.98719 59.6996 8.76728C57.5186 10.6395 55.3377 12.5117 53.2346 14.384C50.8978 16.4122 48.4832 18.5185 47.3148 21.3268C44.5107 28.1136 43.9654 36.6946 42.2518 43.9495C41.9403 45.1976 42.5634 46.4458 43.1086 47.6939C46.2243 54.9488 43.8875 63.1397 43.7318 70.7846C43.576 79.9897 44.1212 89.1948 45.757 98.2439C46.7696 103.783 48.1716 111.427 52.7672 115.25C55.2598 117.278 58.2976 117.59 61.3353 116.966Z" fill="#6C6C6C"/>
<path opacity="0.54" d="M47.4707 105.967C48.5612 109.555 50.1191 112.988 52.7674 115.25C55.2599 117.356 58.2977 117.668 61.3355 117.044C64.607 116.342 67.9563 114.626 70.6825 113.144C72.3183 112.208 74.0319 111.272 74.9666 109.633C76.5244 106.981 76.7581 103.393 78.238 100.662C74.4992 102.847 70.6825 104.875 66.71 105.655C64.6848 107.137 62.1923 107.527 59.544 106.123C55.3378 103.861 53.3126 98.322 52.2221 93.9535C50.7422 87.7907 51.8327 81.784 53.0789 75.8553C53.0789 73.6711 53.1568 71.4868 53.3126 69.2245C53.6242 64.934 53.2347 61.1116 52.5337 57.3671C51.2095 52.6866 49.6517 48.0061 49.5738 43.1695C49.0286 37.9429 50.3527 33.2623 52.9232 29.2058C54.7926 24.1352 57.5967 19.4546 61.3355 16.5683C63.5944 14.8521 66.71 12.7458 69.8257 12.0438C69.592 11.4977 69.3584 10.9517 69.1247 10.4056C67.8784 8.14332 65.3859 6.2711 62.8933 6.89517C61.6471 7.20721 60.7124 8.06531 59.7777 8.84541C60.0113 9.23545 60.1671 9.7035 60.245 10.2496C60.7124 13.2919 58.6093 16.0222 56.3504 18.2845C54.0136 23.5111 50.1969 27.6456 44.9003 29.7519C43.8877 34.5104 43.2646 39.503 42.252 43.9496C42.1741 44.1836 42.1741 44.4176 42.1741 44.5736C50.898 49.5662 51.1316 61.3456 50.7422 70.3947C50.5085 75.1532 49.8854 79.9118 49.1065 84.5924C49.2622 91.6912 49.5738 99.4141 47.4707 105.967Z" fill="#6C6C6C"/>
<path d="M74.9664 109.555C77.1474 105.889 76.7579 100.506 80.4968 97.8539C81.743 96.9958 83.3009 96.5277 84.625 95.6696C90.389 91.6912 85.4039 87.3227 84.1577 82.9541C83.6903 81.2379 83.6124 79.3657 83.5345 77.5715C81.9767 71.7208 81.042 66.1822 79.0947 60.3315C77.0695 54.0907 78.861 45.9777 79.2505 39.503C79.4842 35.5245 79.4842 31.39 77.9263 27.7235C76.2906 24.0571 73.1749 21.1708 71.695 17.4264C70.7603 15.0861 70.3708 12.4337 69.1245 10.1715C67.8783 7.90919 65.3857 6.03697 62.8932 6.66104C61.6469 6.97308 60.6343 7.83118 59.6996 8.61127C58.7649 9.39137 57.8302 10.1715 56.9734 10.9516C59.3101 11.4976 61.1796 13.0578 62.7374 15.1641C72.1623 21.4048 74.0317 33.0282 72.396 43.6375C72.6297 47.85 72.5518 52.0624 72.0065 56.1969C72.1623 57.8351 72.3181 59.4733 72.5518 60.8775C74.3433 72.3448 83.3009 79.9898 77.3811 91.0671C75.6675 94.2655 74.2654 96.2937 74.2654 100.116C74.2654 102.69 74.4991 105.109 73.7202 107.605C73.2528 109.243 72.5518 110.803 71.7729 112.286C73.0191 111.74 74.1875 110.803 74.9664 109.555Z" fill="#CBCBCB"/>
<path opacity="0.6" d="M56.2724 35.9927C57.9861 36.2267 59.8555 37.6309 60.8681 38.801C61.5691 39.5811 62.0364 41.3753 61.8028 42.3895C61.647 43.2476 60.8681 44.0276 60.0112 44.1056C59.6218 44.1056 59.3102 44.0276 58.9208 43.8716C57.0514 43.2475 55.7272 42.5455 54.7925 40.8293C54.0915 39.5031 53.1568 37.3188 54.7925 36.2267C55.0262 36.0707 55.1819 36.0707 55.4156 35.9927C55.8051 35.9927 56.0388 35.9927 56.2724 35.9927Z" fill="#EFEFEF"/>
<path d="M56.506 42.0773C54.7923 40.127 54.2471 37.7087 55.4155 36.6166C56.506 35.5245 58.8427 36.2266 60.6342 38.1768C62.3479 40.127 62.8931 42.5453 61.7247 43.6374C60.5563 44.7296 58.2975 44.0275 56.506 42.0773Z" fill="#8F8F8F"/>
<path d="M60.4007 43.0136C60.167 43.4037 59.9334 43.7157 59.6218 44.0277C60.4007 44.1838 61.1796 44.1058 61.647 43.5597C62.7375 42.4676 62.2701 40.0492 60.5565 38.099C59.2323 36.6948 57.6745 35.9147 56.4282 36.0707C59.0765 37.2409 61.8028 40.2833 60.4007 43.0136Z" fill="#636363"/>
<path opacity="0.6" d="M59.2322 80.302C59.4658 80.068 59.6216 79.8339 59.8553 79.5219C61.8026 77.3377 63.9057 76.7916 66.0866 77.8057C68.735 78.9758 68.1897 83.8124 66.3982 86.3867C65.4635 87.7909 64.373 89.117 63.2825 90.3652C61.491 92.3934 58.9985 94.1096 56.9733 92.3934C56.1165 91.6133 55.727 90.2091 55.8049 88.883C55.8828 87.4788 56.2723 86.0747 56.8175 84.7485C57.3627 83.1103 58.2196 81.5501 59.2322 80.302Z" fill="#EFEFEF"/>
<path d="M59.4657 81.784C61.8024 78.1176 65.2297 76.4014 67.0991 77.9616C68.9685 79.5217 68.5011 83.7342 66.1644 87.4007C63.8276 91.0671 60.4004 92.7833 58.5309 91.2231C56.6615 89.6629 57.051 85.4505 59.4657 81.784Z" fill="#8F8F8F"/>
<path d="M65.4635 83.8905C65.4635 87.0889 62.5815 90.4433 59.7773 91.7694C61.6468 92.0034 64.1393 90.3653 66.0087 87.4789C68.3455 83.8125 68.8128 79.6 66.9434 78.0398C65.3856 76.7137 62.6593 77.7278 60.4005 80.3801C63.0488 79.756 65.5414 80.4581 65.4635 83.8905Z" fill="#636363"/>
<path d="M60.4785 57.9133C60.7121 56.2751 61.8026 55.105 62.8931 55.261C63.9836 55.417 64.6846 56.8992 64.3731 58.5374C64.1394 60.1756 63.0489 61.3458 61.9584 61.1897C60.9458 60.9557 60.2448 59.4735 60.4785 57.9133Z" fill="#707070"/>
<path d="M64.9963 28.4258C63.4385 27.9577 60.2449 30.61 59.7776 31.9362C59.5439 32.7163 59.7776 33.6524 60.4786 34.0424C62.7375 35.2126 65.8531 32.1702 65.7753 29.8299C65.7753 28.9718 65.4637 28.5818 64.9963 28.4258Z" fill="#8E8E8E"/>
<path opacity="0.5" d="M67.8783 23.9012C70.5266 27.7237 71.6171 32.4822 71.8508 37.0847C72.0844 41.7653 71.5392 46.3679 71.1497 51.0484C70.9939 52.9206 70.9161 54.8709 71.1497 56.7431C71.3055 58.3033 71.695 59.7854 72.0844 61.2676C72.5518 63.0618 73.0191 64.934 73.4865 66.7283C74.1096 69.3026 74.8107 71.9549 76.2127 74.2172C77.1474 75.7774 78.5495 77.1815 78.9389 78.9757C79.4842 81.082 78.7053 83.1882 78.0042 85.2165C76.3685 89.741 74.7328 94.2656 73.097 98.7901C72.9412 99.1801 72.8634 99.5702 73.097 99.8822C73.4086 100.272 74.0317 100.194 74.4991 99.9602C76.3685 99.1021 77.6927 97.2299 78.3937 95.2797C79.0947 93.3294 79.3284 91.2232 79.7957 89.195C80.6526 85.0605 82.2883 80.8479 81.5094 76.6354C81.1199 74.2952 79.9515 72.1889 78.9389 70.0827C76.2906 64.622 74.1096 58.7713 74.1096 52.6866C74.1875 46.5239 76.5243 40.4392 76.2906 34.2764C76.0569 28.4257 73.2528 22.185 68.813 18.3625C67.6446 17.3484 63.5163 13.916 63.5163 16.7243C63.4384 19.2986 66.5541 22.029 67.8783 23.9012Z" fill="#F1F1F1"/>
<path d="M82.6775 79.7557C80.5744 77.8835 78.5492 75.8553 76.524 73.8271C73.7199 71.0187 71.461 67.8983 68.9685 64.778C70.5263 70.0046 73.642 75.5433 77.6145 79.2877C79.7176 81.2379 82.0543 82.9541 84.469 84.5143C84.5469 84.5143 84.6248 84.5143 84.7027 84.5143C84.0795 82.9541 83.3785 81.3939 82.6775 79.7557Z" fill="#636363"/>
<path d="M84.547 84.0464C82.0545 82.1741 79.8735 79.9119 77.8483 77.6496C73.9537 73.2811 70.6823 68.2885 68.0339 63.0619C69.7476 71.1749 74.7326 77.5716 80.5745 83.2663C81.0419 83.6563 81.4314 84.1244 81.8987 84.5144C82.8334 84.5925 83.7681 84.5924 84.7028 84.5924C84.7028 84.4364 84.6249 84.2804 84.547 84.0464Z" fill="#EFEFEF"/>
</svg>
