<svg width="103" height="105" viewBox="0 0 103 105" fill="none" xmlns="http://www.w3.org/2000/svg">
<path fill-rule="evenodd" clip-rule="evenodd" d="M55.7659 10.6688C54.7592 10.8447 53.7717 11.1139 52.8148 11.3828L52.8246 11.3967L52.651 11.446L52.611 11.4574C49.8004 12.283 46.5946 13.0008 43.2424 13.7514C31.4546 16.391 17.857 19.4358 13.2702 28.9947C13.1474 29.2507 13.031 29.5114 12.9212 29.7769C12.4458 30.9274 12.0956 32.1679 11.8876 33.5079C11.6202 35.2305 11.5878 37.1176 11.8264 39.1894C12.1062 41.6647 13.0516 43.8529 14.4211 45.8363C17.1227 49.7522 21.4738 52.8752 25.6151 55.8476C28.0837 57.6195 30.4779 59.3378 32.4035 61.1387C38.7679 67.0508 43.0654 73.5693 47.7347 80.6518L47.7347 80.6519L47.7348 80.652L47.7373 80.6558C48.4408 81.7229 49.1527 82.8027 49.8814 83.8953C56.2912 93.5445 62.3073 95.8641 72.4473 92.3662C72.3461 92.3773 72.2401 92.3879 72.1297 92.3979C72.3262 92.3343 72.5249 92.2686 72.726 92.2011C73.6449 91.8666 74.5873 91.4592 75.3959 90.9071L75.4491 90.8486C78.4398 89.1742 80.8468 86.6014 81.9412 83.3056C83.8646 77.5326 81.727 71.0641 79.6535 64.7893C78.9621 62.6971 78.2778 60.6263 77.7536 58.6101C77.6147 58.0838 77.4781 57.2312 77.3171 56.2255C76.8538 53.3334 76.1878 49.1756 74.6817 47.8724C74.4756 47.6825 74.2637 47.5459 74.0331 47.4673C73.2783 47.2911 72.4021 47.3523 71.6832 47.4852C71.6777 47.4919 71.672 47.4988 71.6659 47.5058C71.6601 47.5125 71.654 47.5194 71.6477 47.5263L71.5981 47.5357C71.558 47.5434 71.5183 47.5511 71.479 47.5588C72.2544 45.9881 73.325 44.7609 74.6041 43.5866C74.1978 42.1007 73.7277 40.5543 73.2489 38.9792L73.2489 38.9792L73.2489 38.9791L73.2488 38.9789C71.8964 34.5299 70.4745 29.8519 70.2236 25.6613C69.5252 22.6589 68.5049 19.2962 66.8956 16.4944L66.9034 16.4978C66.4501 15.7087 65.9459 14.9599 65.3865 14.2749L65.4101 14.2723C64.6725 13.3852 63.8597 12.6151 62.9463 11.9996C62.5439 11.7264 62.1218 11.4839 61.6788 11.2759C61.2192 11.0596 60.7376 10.8808 60.233 10.7443C58.7043 10.3373 57.2166 10.4056 55.7659 10.6688Z" fill="#494739"/>
<path d="M54.5058 13.0064C56.937 12.3146 59.4703 11.5857 62.1279 12.2933C68.0956 13.9218 70.737 21.2708 72.1185 27.2101C72.4582 32.8844 74.945 39.4522 76.4989 45.1354C75.2199 46.3097 74.1493 47.5369 73.3739 49.1076C74.1438 48.9562 75.0945 48.8034 75.9555 49.0697C78.511 49.8145 79.0592 57.9254 79.6485 60.1589C81.7448 68.2216 86.4008 77.1564 83.8361 84.8544C82.4248 89.1046 78.8306 92.1524 74.6167 93.6219C64.3511 97.2299 58.2329 94.9475 51.7955 85.2439C46.2289 76.8983 41.6421 69.2912 34.3177 62.4874C27.5052 56.3347 14.8824 51.0086 13.7214 40.7372C11.2007 18.8493 38.9252 17.5828 54.5058 13.0064Z" fill="#C4C1A9"/>
<path d="M51.8002 85.373C46.2336 77.0274 41.6467 69.4203 34.3223 62.6165C27.5057 56.3364 14.8829 51.0104 13.7219 40.7389C11.2012 18.851 38.9257 17.5846 54.5063 13.0081C56.9375 12.3164 59.4708 11.5875 62.1283 12.295C64.2395 12.8794 65.9077 14.1404 67.3056 15.8219C63.0075 16.2913 59.0779 18.5592 56.3874 21.6001C54.8421 23.3223 54.5704 25.2894 51.7362 24.7105C50.333 24.4483 48.7944 23.2045 47.3083 22.7792C44.6232 22.0172 42.0457 22.1824 39.6421 22.9285C34.788 24.5667 30.4722 28.4569 28.3737 33.0217C26.5181 37.1116 26.7667 42.3681 31.4955 45.6073C34.1628 47.4065 37.5668 48.0356 40.4313 47.9592C42.5217 47.9069 46.8446 45.8179 47.823 48.103C48.9435 50.7874 44.5835 54.1139 43.9627 56.4659C43.3419 58.8178 43.8608 61.2702 45.3815 63.5512C47.6901 67.0271 51.3577 67.818 54.1837 70.5257C57.4071 73.5398 56.6609 78.3854 58.3058 82.1029C61.3431 88.9212 68.8425 89.9922 74.8294 89.0368C78.2982 88.4827 81.4 86.9671 83.8048 84.6744C83.7814 84.7474 83.7814 84.7473 83.7579 84.8203C82.3466 89.0705 78.7524 92.1183 74.5385 93.5878C64.277 97.3232 58.2375 95.0766 51.8002 85.373Z" fill="#B8B59B"/>
<path opacity="0.5" d="M60.3174 93.9309C64.1754 93.4285 69.8574 93.4216 72.5327 90.7083C76.1338 87.0782 79.0175 84.418 78.141 77.3285C77.8621 75.1108 76.5747 73.6468 75.9385 71.5592C75.3023 69.4716 75.7823 67.5574 75.3269 65.4684C74.6934 62.6712 72.8623 60.3743 70.6545 58.4079C68.9227 56.7835 66.1299 55.0944 65.128 52.8822C63.7632 49.8358 65.3071 47.2767 66.0217 44.633C66.8301 41.6974 67.0645 38.5842 66.1358 35.4435C65.8708 34.4448 65.0359 33.3958 65.0028 32.3771C64.9655 31.2311 66.032 29.8765 66.1478 28.6748C66.414 25.7433 65.0257 22.7699 62.6799 20.5315C61.6409 19.5569 60.5398 19.0558 59.3752 18.1913C57.4157 16.7142 56.8403 15.6997 55.4107 13.8364C55.1941 13.5288 54.9264 13.2397 54.7097 12.932C57.0388 12.2774 59.5487 11.6215 62.0765 12.3119C68.0443 13.9404 70.6856 21.2893 72.0671 27.2287C72.4069 32.903 74.8936 39.4707 76.4476 45.154C75.1686 46.3282 74.0979 47.5555 73.3225 49.1262C74.0925 48.9747 75.0431 48.8219 75.9042 49.0883C78.4596 49.8331 79.0078 57.944 79.5971 60.1775C81.6935 68.2402 86.3494 77.175 83.7848 84.8729C82.3735 89.1232 78.7792 92.171 74.5653 93.6405C68.773 95.8134 64.3093 95.9566 60.3174 93.9309Z" fill="#D8D4C0"/>
<path d="M68.4189 95.2342C73.8538 93.1913 81.5335 87.1102 81.6049 80.5776C81.6379 76.8291 77.5681 63.6868 76.057 60.1138C74.0133 55.253 70.7156 57.0977 70.2712 54.5537C68.9655 46.9763 73.4303 42.9029 69.8435 29.5203C67.9335 22.4205 64.5651 17.3333 59.4084 12.0596C60.3122 12.0527 61.1925 12.1188 62.077 12.3122C68.0448 13.9407 70.6861 21.2897 72.0676 27.229C72.4074 32.9033 74.8941 39.4711 76.4481 45.1543C75.1691 46.3286 74.0984 47.5558 73.323 49.1265C74.093 48.9751 75.0436 48.8223 75.9047 49.0887C78.4601 49.8334 79.0083 57.9443 79.5976 60.1778C81.694 68.2406 86.3499 77.1754 83.7853 84.8733C82.3739 89.1235 78.7797 92.1713 74.5658 93.6408C72.3471 94.5129 70.2968 95.0016 68.4189 95.2342Z" fill="#A3A086"/>
<path d="M74.621 93.7496C72.3471 94.513 70.3754 95.0374 68.4699 95.2157C73.9049 93.1728 81.5846 87.0917 81.656 80.5591C81.6889 76.8106 77.6191 63.6683 76.108 60.0953C74.0643 55.2346 70.7666 57.0792 70.3222 54.5352C69.0165 46.9578 73.4813 42.8844 69.8945 29.5018C67.9845 22.402 64.6161 17.3148 59.4595 12.0411C60.3632 12.0342 61.2436 12.1003 62.128 12.2937C65.9846 13.3378 68.474 16.8124 70.0996 20.7302C69.8954 20.8045 69.7423 20.8603 69.5381 20.9346C69.1807 21.0647 68.7447 21.159 68.4977 21.5066C68.2784 21.9085 68.3736 22.4537 68.5709 22.9616C68.9422 24.0505 69.3644 25.1208 69.7591 26.1368C70.6589 28.3861 71.5586 30.6355 72.2073 33.1051C73.2713 37.2273 73.2812 40.7025 72.9185 44.6354C72.833 45.182 70.529 51.3677 73.3037 49.3269C73.3782 49.2353 73.5038 49.1252 73.5783 49.0337C74.2971 48.9008 75.1733 48.8396 75.9281 49.0158C76.2937 49.1404 76.6125 49.4109 76.9354 49.8087C75.8109 51.7642 75.6386 54.4038 76.7743 56.7605C77.0779 57.3586 77.4601 57.9926 77.7127 58.6093C78.64 60.913 79.2501 63.7832 79.9222 66.1799C80.8827 69.5023 81.5603 72.8632 82.3167 76.26C83.7023 82.3267 81.2562 88.1132 77.2909 92.4556C76.4823 93.0077 75.5399 93.4151 74.621 93.7496Z" fill="#969074"/>
<path opacity="0.65" d="M62.2775 32.7266C62.3713 32.4347 62.4141 32.1615 62.5079 31.8696C62.5851 31.0685 62.505 30.1957 62.04 29.3986C61.5749 28.6016 60.7291 28.0076 59.8764 27.9959C58.7132 27.9684 57.7832 28.7578 57.3486 29.6891C56.9099 30.493 56.7858 31.4401 56.87 32.4402C57.008 32.7121 56.9418 33.0583 57.0287 33.3488C57.1157 33.6392 57.3047 33.8925 57.4938 34.1458C57.549 34.2546 57.5766 34.309 57.6828 34.3991C57.738 34.5079 57.8167 34.5437 57.9229 34.6338C58.163 34.8685 58.4266 35.0303 58.7136 35.1191C59.4725 35.4226 60.2617 35.0709 60.8702 34.7206C61.4745 34.2429 62.0195 33.5291 62.2775 32.7266Z" fill="#F7F3ED"/>
<path d="M61.4005 32.787C61.9358 30.9816 61.3589 29.1301 60.0495 28.576C58.7911 28.0033 57.2995 28.9972 56.7367 30.7483C56.2014 32.5537 56.7782 34.4052 58.0877 34.9593C59.3972 35.5134 60.8377 34.538 61.4005 32.787Z" fill="#A49E85"/>
<path opacity="0.55" d="M58.3359 33.0653C58.7582 34.1356 59.4192 34.6036 60.1932 34.5795C59.5378 35.0758 58.7955 35.2816 58.0877 34.9595C56.8292 34.3868 56.2248 32.4809 56.7366 30.7485C56.9904 29.8186 57.563 29.1592 58.1439 28.7545C57.9714 29.0105 57.7204 31.6143 58.3359 33.0653Z" fill="#595347"/>
<path opacity="0.65" d="M56.5726 66.1759C56.8182 64.9913 56.883 63.8082 56.7394 62.572C56.6317 61.6448 56.3944 60.7005 55.7251 59.9778C55.5361 59.7245 55.2449 59.5084 54.9579 59.4196C54.486 59.2048 54.0224 59.2447 53.614 59.3934C51.8272 60.0439 50.9387 62.1067 50.5842 63.9107C50.3855 64.9494 50.3676 65.9866 50.4008 67.0053C50.4574 67.951 50.4437 69.1156 50.728 69.914C51.5132 71.8186 53.5912 71.3842 54.4852 70.2857C55.5835 69.1129 56.2609 67.7067 56.5726 66.1759Z" fill="#F7F3ED"/>
<path d="M55.5524 66.5482C56.325 63.3036 55.7342 60.2331 54.244 59.6804C52.7538 59.1277 50.9381 61.2703 50.2166 64.4964C49.4441 67.741 50.0348 70.8115 51.525 71.3642C52.9642 71.9355 54.7799 69.7928 55.5524 66.5482Z" fill="#A49E85"/>
<path opacity="0.55" d="M51.9869 68.1033C52.4299 69.8103 53.1736 70.4414 54.065 70.0525C53.273 71.1139 52.3624 71.7031 51.5248 71.3637C50.0346 70.811 49.4949 67.722 50.2164 64.4959C50.6027 62.8736 51.2801 61.4674 52.0527 60.6063C51.814 61.2086 51.3148 65.7066 51.9869 68.1033Z" fill="#595347"/>
<path d="M72.9007 80.5887C73.2801 79.5487 72.9323 78.3868 72.1968 78.0103C71.4103 77.6524 70.4997 78.2416 70.1203 79.2816C69.7409 80.3216 70.0887 81.4835 70.8241 81.86C71.583 82.1635 72.5213 81.6287 72.9007 80.5887Z" fill="#A49E85"/>
<path opacity="0.6" d="M43.9011 18.0905C36.0556 21.4617 23.8595 22.1005 19.1368 29.3599C7.72394 46.9143 29.2284 48.1698 35.8504 53.2322C39.8478 56.2222 38.8519 62.125 41.2599 66.2734C43.7189 70.4032 49.6012 72.5782 50.9605 77.0439C54.746 89.3878 59.2417 94.1935 67.5054 94.1488C69.3129 94.135 72.5665 94.1102 74.3423 93.9148C64.2023 97.4127 58.1862 95.0931 51.7765 85.4439C46.2099 77.0982 41.623 69.4912 34.2986 62.6873C27.5054 56.3343 14.8826 51.0083 13.7217 40.7368C11.201 18.8489 38.9254 17.5825 54.506 13.006C56.9372 12.3143 59.4705 11.5854 62.1281 12.2929C65.0726 13.0893 67.2377 15.329 68.7984 18.0464C60.7525 14.4686 52.3315 14.4418 43.9011 18.0905Z" fill="#EAE6D6"/>
<path opacity="0.7" d="M32.966 20.9765C38.5459 18.6232 44.3631 17.2142 50.2506 15.5864C53.3731 14.7075 56.9633 13.9159 60.0473 15.8211C46.7116 18.7429 33.0281 20.5029 22.8538 29.2959C20.0405 31.7373 18.4153 34.9702 19.609 39.1097C20.6289 42.6682 23.5101 45.4847 26.7238 47.4071C29.6463 49.1134 33.4257 50.9587 36.609 51.1528C37.0491 51.1859 37.5403 51.2003 37.9805 51.2334C38.578 51.338 39.203 51.497 39.7812 51.8019C39.8364 51.9107 39.8916 52.0194 39.9192 52.0738C39.2127 52.5886 38.3131 52.7228 37.5239 53.0746C34.7988 54.2598 36.0685 59.1447 36.7682 61.5957C35.1965 59.3333 35.0432 57.0054 34.1669 54.6831C33.4051 52.7056 31.1919 52.1584 29.4657 51.4984C27.4525 50.7495 25.4393 50.0006 23.4689 48.9785C20.4208 47.3823 17.9218 45.1997 16.3998 42.0817C15.7926 40.8855 15.2599 39.5977 15.0377 38.3257C13.3745 28.4947 26.2672 23.8659 32.966 20.9765Z" fill="#F2EEDF"/>
<path opacity="0.7" d="M43.9892 67.6C45.772 69.2058 48.0019 70.2623 49.6867 72.0326C52.0643 74.4527 52.9227 77.8123 54.2088 80.8229C56.501 86.173 60.4475 91.5652 66.1683 93.5413C65.3295 94.7486 63.2777 94.4003 61.7005 93.5571C56.8669 91.0648 53.2777 85.5426 51.6976 80.6419C50.8364 77.9919 50.2457 74.9214 47.893 73.2654C47.2045 72.743 46.4456 72.4394 45.6825 72.0086C42.8386 70.3381 41.1634 67.2758 39.622 64.3581C39.0976 63.325 38.2709 60.1471 39.9846 60.4252C41.3921 60.8148 42.7377 66.445 43.9892 67.6Z" fill="#F2EEDF"/>
<path d="M18.2002 35.4995C17.9367 37.7214 18.326 40.1566 19.4492 42.1313C20.2413 43.4535 21.3397 44.6642 22.583 45.5645C23.1653 45.9968 24.0346 46.5178 24.6914 46.8585C25.242 47.1091 25.816 47.2866 26.3155 47.5558C26.8426 47.8793 27.3228 48.3487 27.418 48.8938C26.0355 49.2683 23.8994 47.9199 22.6838 47.074C20.4926 45.6168 18.7208 43.5561 17.6127 41.2537C15.925 37.8095 16.3912 34.6763 17.7929 31.718C19.2181 28.6868 23.2967 26.2357 26.3005 24.8846C26.5557 24.7917 26.8896 24.7346 26.9766 25.025C27.0318 25.1338 26.9573 25.2253 26.9338 25.2983C26.5889 25.8104 26.0825 26.1235 25.5527 26.5097C23.1229 28.0384 20.7015 29.8218 19.2597 32.3437C18.6678 33.2034 18.316 34.2978 18.2002 35.4995Z" fill="#F7F3E8"/>
<path d="M55.6462 15.491C55.6738 15.5453 55.7014 15.5997 55.6503 15.6183C54.512 16.3548 53.0425 16.4388 51.711 16.7946C50.305 17.242 48.8204 17.6536 47.3868 18.0466C46.1574 18.3653 44.9556 18.7383 43.7262 19.057C43.3688 19.1871 42.3754 19.6132 41.9545 19.3798C40.7196 18.7342 43.1314 18.2428 43.4378 18.1313C44.8438 17.6839 46.3284 17.2723 47.7344 16.8249C49.9062 16.0987 52.4271 14.9878 54.8597 15.1331C55.1425 15.0945 55.5358 15.2735 55.6462 15.491Z" fill="#F7F3E8"/>
<path d="M41.0865 63.3103C41.2204 63.4548 41.4094 63.7081 41.575 64.0344C42.2774 65.7757 43.0626 67.6803 44.6481 68.7781C45.4939 69.3721 46.5909 69.7459 47.1622 70.6331C47.1898 70.6874 47.245 70.7962 47.2215 70.8692C47.2257 70.9965 47.1236 71.0337 47.0215 71.0708C46.6641 71.2009 46.1412 71.0047 45.799 70.8072C44.1431 69.9282 42.5687 68.3754 41.4344 66.8557C40.8949 66.1502 40.2449 65.2272 40.2159 64.3358C40.1124 63.536 40.5553 62.8594 41.0865 63.3103Z" fill="#F7F3E8"/>
<path d="M58.7376 89.0306C59.8125 90.3143 61.013 91.4878 62.4136 92.4597C62.7047 92.6758 63.0235 92.9463 62.9296 93.2382C62.6565 94.3683 59.0757 91.4844 58.5403 90.9062C57.1784 89.5337 55.9848 87.7779 55.0271 86.1294C54.2074 84.7528 53.4112 83.3033 52.8468 81.8337C52.4245 80.7634 51.3564 78.8975 51.5785 77.7859C51.9675 75.4539 53.5642 80.8639 53.8443 81.535C54.377 82.8228 55.3499 84.1437 56.1378 85.3385C56.9299 86.6608 57.7965 87.8915 58.7376 89.0306Z" fill="#F7F3E8"/>
<path d="M40.5095 51.9253C38.8399 52.211 37.2683 52.3321 36.6503 53.9744C36.0557 55.5437 35.8157 57.6926 36.0821 59.5283C36.1456 59.8917 36.2367 60.3095 36.3788 60.7087C36.6438 61.7074 36.9088 62.7061 37.2013 63.7592C37.1943 61.9579 37.2343 60.0108 37.5929 58.3341C37.8578 56.9492 38.382 55.5988 39.3078 54.6819C40.2847 53.7466 41.612 53.2634 42.9159 52.8531C44.5262 52.3314 46.3254 52.063 47.3685 50.7814C48.4861 49.4082 49.5526 48.0536 50.6701 46.6805C49.7595 47.2697 48.9551 47.949 48.1783 48.6827C47.7782 49.0861 47.3781 49.4894 46.8993 49.857C45.8396 50.6293 44.555 50.8392 43.2746 51.1764C42.3239 51.3293 41.5112 51.7539 40.5095 51.9253Z" fill="#F4F1E4"/>
<path d="M35.2256 55.4576C35.3015 56.2031 35.4009 56.8755 35.5279 57.6024C35.5872 57.8385 36.7037 62.7791 37.0943 63.6677C36.9314 62.6318 36.8472 61.6317 36.8416 60.6674C36.8346 58.8661 36.9849 57.1364 37.1076 55.3523C37.2303 53.5683 37.9175 53.2537 39.3704 52.6604C41.153 51.8826 43.0972 51.3038 45.1006 50.961C45.5366 50.8667 46.0513 50.8082 46.4321 50.6052C46.8129 50.4021 47.1386 50.0903 47.4131 49.7971C48.7391 48.4769 50.0374 47.1024 51.2847 45.7465C49.5337 46.7059 47.9443 47.8644 46.461 49.1129C45.9077 49.572 45.331 50.1041 44.6673 50.3457C43.4421 50.7917 41.8622 50.6581 40.55 50.8137C39.0571 50.9706 37.6428 51.1634 36.3196 51.7739C35.7345 52.0513 35.0433 52.2385 34.9108 52.9309C34.7508 53.569 35.0986 54.7308 35.2256 55.4576Z" fill="#726E59"/>
<path d="M40.0625 25.5435C40.1646 25.5064 40.2667 25.4692 40.4198 25.4134C41.3898 25.0603 42.6827 25.1051 43.6389 25.9166C44.3551 26.4934 44.7732 27.4364 45.4383 28.0317C46.8196 29.2039 49.0273 28.7868 50.3616 30.1049C51.1095 30.8634 51.3 31.9537 51.0972 32.865C50.8944 33.7763 50.2708 34.4542 49.5919 35.0235C48.2853 36.1433 46.6089 37.0113 44.7586 37.2983C43.1911 37.5468 42.2004 37.2632 41.2318 38.4532C40.3612 39.4788 39.9391 40.7921 39.281 41.998C38.5953 43.1495 37.5439 44.1764 36.0703 44.1331C34.8284 44.0698 33.6914 43.2596 32.731 42.3208C32.2232 41.797 31.7665 41.2546 31.5139 40.6379C31.1193 39.622 31.42 38.5462 31.9098 37.7236C33.3557 35.3291 34.8389 34.0805 35.2582 31.0933C35.5879 28.5252 37.7693 26.5071 40.0625 25.5435Z" fill="#B8B59B"/>
<path d="M63.3417 51.1497C64.9615 49.336 64.6357 47.2642 64.5293 44.7905C64.4202 43.0264 65.001 40.2381 62.2413 39.5677C59.8197 38.9675 57.8192 43.3678 56.5485 44.7967C55.5523 45.9324 55.5621 47.024 56.1306 48.6209C57.4334 52.1408 61.0003 53.8058 63.3417 51.1497Z" fill="#B8B59B"/>
<path d="M48.167 36.2936V42.0583H53.0651V62.6681H60.5253V36.2936H48.167Z" fill="#494739"/>
</svg>
