<svg width="61" height="51" viewBox="0 0 61 51" fill="none" xmlns="http://www.w3.org/2000/svg">
<path opacity="0.87" d="M16.4153 17.2822C16.1891 17.2643 15.8314 17.1911 15.6052 17.1732C15.5105 17.2107 15.379 17.1553 15.379 17.1553C15.2843 17.1928 15.2475 17.1 15.1528 17.1375C14.9266 17.1196 14.7004 17.1017 14.4742 17.0839L14.3427 17.0285L14.248 17.066C14.0218 17.0481 13.7956 17.0303 13.5694 17.0124C13.4747 17.0499 13.438 16.9571 13.3432 16.9945C13.117 16.9767 12.8908 16.9588 12.5331 16.8856C12.4384 16.9231 12.4017 16.8303 12.3069 16.8677C12.3069 16.8677 12.2122 16.9052 12.1755 16.8124C12.0808 16.8499 11.9493 16.7945 11.9493 16.7945C11.8545 16.832 11.7231 16.7766 11.6284 16.8141C11.5336 16.8516 11.4969 16.7588 11.4021 16.7963C11.3074 16.8337 11.2707 16.7409 11.1759 16.7784C11.0445 16.7231 10.9497 16.7605 10.855 16.798C10.7602 16.8355 10.6288 16.7801 10.6288 16.7801L10.5341 16.8176C10.4393 16.8551 10.3079 16.7997 10.2131 16.8372C10.1184 16.8747 9.98688 16.8194 9.89214 16.8568C9.79739 16.8943 9.76072 16.8015 9.66598 16.8389C9.57124 16.8764 9.43973 16.8211 9.34499 16.8586C9.25024 16.896 9.1188 16.8407 9.02406 16.8782C9.02406 16.8782 8.92933 16.9156 8.89262 16.8228C8.66642 16.8049 8.57165 16.8424 8.4402 16.7871C8.34545 16.8246 8.21401 16.7692 8.11926 16.8067C8.11926 16.8067 8.11928 16.8067 8.02454 16.8441C7.79834 16.8263 7.60882 16.9012 7.38261 16.8834C7.28787 16.9208 7.28786 16.9209 7.15641 16.8655C6.9302 16.8477 6.74074 16.9226 6.55125 16.9975L6.45653 17.035C6.45653 17.035 6.45649 17.035 6.36175 17.0725C6.267 17.11 6.17224 17.1474 6.17224 17.1474C6.0775 17.1849 5.98276 17.2224 5.85131 17.167L5.75659 17.2045L5.66181 17.242C5.56706 17.2795 5.47233 17.3169 5.37758 17.3544C5.28284 17.3919 5.28283 17.3919 5.18808 17.4294L5.09336 17.4668C4.99862 17.5043 4.99861 17.5043 4.90386 17.5418C4.80912 17.5792 4.71438 17.6167 4.61964 17.6542C4.52489 17.6917 4.33538 17.7666 4.24063 17.8041C4.14589 17.8416 4.05116 17.879 3.95641 17.9165L3.86169 17.954C3.76695 17.9915 3.67221 18.0289 3.61418 18.1592C3.51944 18.1967 3.51943 18.1967 3.42468 18.2342C3.2719 18.4019 3.08238 18.4769 2.9296 18.6447C0.295655 21.4038 3.81291 27.5262 7.24727 32.608C7.24727 32.608 7.24727 32.608 7.28398 32.7008C7.56228 33.1274 7.80386 33.4612 8.04545 33.795C8.60205 34.6482 9.2167 35.3712 9.69988 36.0387C9.90476 36.2797 10.0149 36.5582 10.1831 36.7063C10.2198 36.7991 10.2198 36.7991 10.2565 36.8919C10.4614 37.1329 10.5348 37.3185 10.7397 37.5595C10.7764 37.6523 10.7764 37.6523 10.8131 37.7452C11.018 37.9861 11.0914 38.1718 11.2595 38.3199C11.2962 38.4128 11.2962 38.4128 11.3329 38.5056C11.4064 38.6912 11.6113 38.9322 11.6847 39.1178C11.9263 39.4516 12.0732 39.8228 12.3147 40.1566C12.5196 40.3976 12.7612 40.7314 13.0608 40.9349C13.3971 41.2312 13.7915 41.3973 14.1859 41.5633C14.4121 41.5812 14.675 41.6918 14.9012 41.7097C14.9012 41.7097 14.9959 41.6722 15.0326 41.765C15.1274 41.7276 15.2589 41.7829 15.2589 41.7829C15.4851 41.8008 15.6165 41.8561 15.8427 41.874C15.9375 41.8365 16.0689 41.8919 16.1636 41.8544C16.3898 41.8723 16.5213 41.9276 16.7108 41.8527C16.8055 41.8152 16.937 41.8705 17.0317 41.833C17.2579 41.8509 17.4474 41.776 17.6736 41.7938C17.7684 41.7563 17.8998 41.8117 17.9946 41.7742C18.2208 41.7921 18.4102 41.7171 18.6365 41.735C18.7312 41.6975 18.8627 41.7529 18.9574 41.7154C19.1836 41.7333 19.4678 41.6209 19.694 41.6387C19.7888 41.6013 19.8836 41.5638 20.015 41.6191C20.336 41.5995 20.5254 41.5245 20.8464 41.5049C20.9411 41.4675 20.9411 41.4675 21.0359 41.43C21.3568 41.4104 21.641 41.298 21.962 41.2784L22.0568 41.2409C30.0188 39.487 39.7527 34.4564 44.8902 32.2096C45.2692 32.0598 45.7429 31.8724 46.3114 31.6475C46.5956 31.5351 46.8799 31.4227 47.1641 31.3103C48.9643 30.5983 51.0853 29.8667 52.9648 28.8012C53.2491 28.6888 53.4966 28.4836 53.6861 28.4086C53.7809 28.3712 53.8389 28.2409 54.0284 28.1659C54.2179 28.091 54.2759 27.9607 54.4654 27.8857C54.5601 27.8483 54.6182 27.718 54.8077 27.643C54.9972 27.5681 55.0552 27.4378 55.1499 27.4003C55.2446 27.3628 55.3027 27.2325 55.3975 27.1951C55.4555 27.0648 55.645 26.9898 55.703 26.8596C55.7977 26.8221 55.8558 26.6918 55.9138 26.5615C55.9718 26.4312 56.0299 26.3009 56.2194 26.226C56.2774 26.0957 56.3722 26.0582 56.3355 25.9654C56.3935 25.8351 56.4515 25.7048 56.5095 25.5745C56.4728 25.4817 56.5676 25.4442 56.5308 25.3514C56.5522 25.1283 56.5735 24.9052 56.5949 24.6821L56.5581 24.5893C56.5795 24.3662 56.506 24.1805 56.4326 23.9949L56.3959 23.9021C56.3592 23.8093 56.3592 23.8093 56.3225 23.7164C56.2857 23.6236 56.2123 23.438 56.1756 23.3452C56.1389 23.2524 56.1389 23.2524 56.1022 23.1596L56.0655 23.0667C56.0288 22.9739 55.9921 22.8811 55.8606 22.8258C55.8239 22.7329 55.8239 22.7329 55.7872 22.6401C55.7505 22.5473 55.7505 22.5473 55.7138 22.4545C55.6771 22.3617 55.677 22.3617 55.5456 22.3063C55.5089 22.2135 55.5089 22.2135 55.3774 22.1582L55.3407 22.0654C55.304 21.9725 55.1725 21.9172 55.1725 21.9172C55.1358 21.8244 55.0411 21.8619 55.0044 21.7691C54.9677 21.6762 54.8729 21.7137 54.8362 21.6209C54.7995 21.5281 54.7047 21.5656 54.668 21.4727C54.5366 21.4174 54.4999 21.3246 54.3684 21.2692C54.3684 21.2692 54.3684 21.2692 54.3317 21.1764C54.295 21.0836 54.2003 21.1211 54.1635 21.0283C54.1268 20.9354 54.0321 20.9729 53.9006 20.9176C53.7692 20.8622 53.6377 20.8069 53.4696 20.6587C53.4328 20.5659 53.3381 20.6034 53.3014 20.5106C53.2647 20.4177 53.1699 20.4552 53.1332 20.3624C52.965 20.2143 52.8336 20.1589 52.5707 20.0482C52.534 19.9554 52.4392 19.9929 52.4025 19.9001C52.4025 19.9001 52.4025 19.9001 52.2711 19.8447C52.0082 19.734 51.7085 19.5306 51.4456 19.4199L51.3142 19.3645C51.0512 19.2538 50.7884 19.1431 50.5254 19.0325L50.394 18.9771C50.2625 18.9218 50.2625 18.9218 50.131 18.8665C49.9048 18.8486 49.7367 18.7004 49.5105 18.6826C49.4157 18.72 49.3791 18.6272 49.2843 18.6647L49.1528 18.6093C49.1528 18.6093 49.1528 18.6093 49.0214 18.554C48.7952 18.5361 48.627 18.388 48.4008 18.3701C48.4008 18.3701 48.306 18.4076 48.2693 18.3148C48.1379 18.2594 48.0431 18.2969 47.9117 18.2416C47.8169 18.279 47.7802 18.1862 47.6855 18.2237C47.3278 18.1505 47.0649 18.0398 46.7073 17.9666L46.5758 17.9112C46.0867 17.7827 45.5976 17.6541 45.1452 17.6184C45.1452 17.6184 45.1452 17.6184 45.0505 17.6559C44.8243 17.638 44.5613 17.5273 44.2404 17.5469C44.2404 17.5469 44.1456 17.5844 44.1089 17.4916C43.2988 17.3826 42.5835 17.2362 41.7735 17.1273C39.0223 16.8201 36.6076 16.8091 35.3605 16.9804C32.9978 17.3782 30.7239 18.2776 28.3245 18.5826C25.8671 19.0179 21.7067 18.1947 17.4882 17.5018C17.4882 17.5018 17.4883 17.5018 17.3935 17.5393C17.0358 17.4661 16.8097 17.4482 16.452 17.375C16.5467 17.3375 16.4153 17.2822 16.4153 17.2822Z" fill="#444235"/>
<path d="M59.4674 28.8406L59.4304 28.747C59.1015 22.7121 42.6541 20.5649 38.7051 21.2615C36.3658 21.646 34.1178 22.5351 31.7415 22.8261C26.0152 23.6849 10.5187 17.9168 6.32877 22.3862C2.25222 26.5943 12.9503 39.1274 15.2337 42.9833C15.8649 44.0315 16.6268 45.1362 17.7288 45.4574C25.6298 47.6321 40.9637 39.2958 48.0084 36.2931C50.9688 35.0141 59.5445 32.5956 59.4674 28.8406Z" fill="#A5ADA6"/>
<path opacity="0.7" d="M35.61 27.6775C32.9307 28.8455 29.6964 28.6105 27.1966 27.2197C24.8644 25.979 23.572 22.1639 20.6833 24.1717C19.4829 24.971 18.8225 26.3138 18.4801 27.6389C18.0786 29.6364 18.5547 31.9357 20.1573 33.2487C21.3308 34.2988 22.8098 33.9301 24.2125 33.9161C25.9331 33.8845 27.5577 34.4317 29.2783 34.4001C31.0926 34.3314 33.0376 34.3192 34.5386 33.1847C34.97 32.906 35.2707 32.5707 35.628 32.1049C36.0791 31.602 36.3624 30.9492 37.0181 30.6898C39.0591 30.0989 40.4885 28.2356 41.245 26.314C41.3017 26.1834 41.415 25.9223 41.341 25.7352C41.1931 25.3611 40.6878 25.4529 40.4067 25.564C38.7207 26.2309 37.2024 27.0477 35.61 27.6775Z" fill="#B3BAB3"/>
<path d="M19.1508 36.4583C17.8095 35.2582 16.4707 33.5164 16.3669 31.6107C16.3024 29.2567 17.9317 28.7204 18.9865 27.0053C19.8343 25.5884 19.543 23.7568 20.6348 22.1352C20.7852 21.9676 20.9355 21.8 21.0858 21.6324C15.162 20.6225 8.86358 19.7608 6.42112 22.3492C2.34457 26.5574 13.0427 39.0904 15.3261 42.9463C15.9573 43.9945 16.7192 45.0992 17.8211 45.4205C22.0613 46.5555 28.4086 44.8021 34.46 42.3004C28.7927 42.487 23.527 40.676 19.1508 36.4583Z" fill="#979E98"/>
<path opacity="0.45" d="M45.0625 21.4509C45.1365 21.6379 45.1168 21.862 45.2278 22.1426C45.9314 28.0293 41.3684 27.9954 39.2368 32.1914C38.9165 32.7507 38.7268 33.3666 38.2757 33.8694C36.903 35.6021 33.2744 35.7395 31.2357 35.7887C29.1601 35.7444 27.0302 35.2889 25.0632 36.0669C24.1265 36.4374 23.2441 37.2191 22.1595 37.2154C20.8505 37.1924 19.9949 36.1247 18.782 35.5229C16.3191 34.2257 12.8141 36.0447 9.90021 35.2503C12.0553 38.508 14.3236 41.5044 15.2335 42.9832C15.8647 44.0315 16.6267 45.1362 17.7286 45.4574C25.6296 47.6321 40.9636 39.2958 48.0083 36.2931C51.0624 34.977 59.5443 32.5956 59.4673 28.8405L59.4303 28.747C59.1683 24.5243 51.1933 22.1625 45.0625 21.4509Z" fill="#D7DDDB"/>
<path opacity="0.54" d="M47.249 21.7758C47.2096 22.224 47.2072 22.7658 47.0742 23.251C46.3531 29.9176 41.2289 34.2156 35.0122 36.0255C28.0092 38.0383 19.2635 40.8485 12.0552 38.508C13.3743 40.4739 14.5455 42.0656 15.1398 43.0203C15.771 44.0686 16.533 45.1733 17.6349 45.4945C25.5359 47.6692 40.8698 39.3329 47.9145 36.3302C50.9686 35.0141 59.4505 32.6327 59.3735 28.8776L59.3365 28.7841C59.2594 25.0291 52.9484 22.7663 47.249 21.7758Z" fill="#657065"/>
<path opacity="0.54" d="M47.2491 21.7758C47.2097 22.224 47.2073 22.7658 47.0743 23.251C46.3531 29.9176 41.2289 34.2156 35.0123 36.0255C28.0093 38.0383 19.2636 40.8485 12.0553 38.508C13.3744 40.4739 14.5456 42.0656 15.1399 43.0203C15.7711 44.0685 16.533 45.1732 17.635 45.4945C18.5126 45.7963 19.5035 45.837 20.5882 45.8406C20.5906 45.2989 20.7802 44.6831 21.1006 44.1237C24.6766 38.9238 30.0133 37.3538 35.8678 37.0932C38.8085 36.0382 41.7295 35.2074 44.6702 34.1524C47.8919 32.9863 50.9805 32.3055 54.3454 32.5969C54.8877 32.5987 55.4103 32.8247 55.7086 33.0311C57.752 31.8985 59.3664 30.5028 59.3736 28.8776L59.3366 28.7841C59.2595 25.029 52.9485 22.7663 47.2491 21.7758Z" fill="#657065"/>
<path d="M13.6233 26.3144C14.7372 23.927 16.4082 22.4008 18.4516 21.2681C13.3684 20.4665 8.47026 20.1325 6.32846 22.3857C2.2519 26.5939 12.95 39.127 15.2333 42.9828C15.8646 44.031 16.6265 45.1357 17.7285 45.457C17.9528 45.4764 18.1771 45.4959 18.4384 45.6088C14.4243 39.8418 10.4322 33.3089 13.6233 26.3144Z" fill="#C4CEC6"/>
<path opacity="0.5" d="M15.684 25.4996C16.1351 24.9967 16.8474 24.6068 17.1308 23.9539C17.5448 23.3575 17.4929 22.4047 16.8962 21.9917C16.0383 21.4658 13.7014 21.3085 12.8584 21.6419C12.0524 22.0689 11.414 22.6458 10.9063 23.2793C9.85389 24.4526 8.7818 25.8501 8.55036 27.4559C8.37559 28.931 8.87381 30.4645 9.46568 31.9609C10.2425 33.925 10.9627 36.0196 12.5825 37.6503C13.0855 38.1003 13.9064 38.5327 14.2638 38.0669C14.4708 37.7687 14.4535 37.451 14.4362 37.1334C14.4308 34.1071 12.4576 27.7491 15.684 25.4996Z" fill="#F0F2F0"/>
<path d="M13.4652 23.9975C13.2235 23.6604 12.7749 23.6215 12.3066 23.8068C11.8382 23.992 11.5745 24.4208 11.1802 24.7931C9.43039 27.2157 9.3595 30.5966 11.5413 32.005C12.012 31.278 13.7808 24.5216 13.4652 23.9975Z" fill="#EFEFEF"/>
<path d="M26.0679 28.748C27.4957 31.5362 35.4778 32.2728 37.8958 30.9919C39.2268 30.2491 40.2249 28.6646 39.7637 27.2247C38.269 22.6243 29.873 22.4841 26.9228 25.706C25.7398 26.8228 25.6043 27.8498 26.0679 28.748Z" fill="#979E98"/>
<path d="M20.5665 33.7352C22.1934 33.7406 24.4533 30.1428 24.4974 28.6112C24.4825 27.7518 23.9252 26.8907 23.1216 26.7759C20.58 26.3751 18.5618 30.3099 19.3559 32.5916C19.6888 33.4334 20.0242 33.7334 20.5665 33.7352Z" fill="#979E98"/>
</svg>
