<svg width="42" height="39" viewBox="0 0 42 39" fill="none" xmlns="http://www.w3.org/2000/svg">
<path opacity="0.87" d="M31.9827 11.0559C31.3043 10.5548 30.6259 10.0537 29.8743 9.57904C27.8923 8.22232 25.7903 6.99197 23.6416 5.86148C23.442 5.76779 23.3423 5.72094 23.2159 5.60074C22.5174 5.27282 21.8189 4.9449 21.0535 4.89005C20.9802 4.91656 20.8805 4.8697 20.8072 4.89621C19.8221 4.92088 18.9029 5.58538 18.1567 6.27023C17.1441 7.13446 16.1177 8.41848 15.0978 9.94905C14.3378 11.0537 13.7042 12.2785 13.0706 13.5033C10.5426 18.6492 9.00519 24.9299 10.425 29.3108C10.8232 30.4111 11.3413 31.385 12.1259 32.1796C12.4051 32.4933 12.7576 32.7806 13.1833 33.0413C13.4094 33.2083 13.609 33.302 13.8351 33.4691C14.0347 33.5628 14.2343 33.6565 14.4338 33.7502L14.5336 33.797C15.8574 34.4794 17.2216 34.8153 18.5793 34.9047C20.6026 35.002 22.7129 34.6531 24.6639 33.8641C25.0301 33.7316 25.4695 33.5725 25.8092 33.3666C26.5883 33.0017 27.2677 32.5899 28.0202 32.1516L28.0935 32.1251C28.4332 31.9192 28.7728 31.7134 29.086 31.4341L29.1592 31.4076C29.4989 31.2017 29.812 30.9225 30.1517 30.7166L30.2249 30.6901C30.538 30.4109 30.8045 30.2315 31.1176 29.9522C31.1908 29.9257 31.2375 29.8259 31.2375 29.8259C31.5506 29.5466 31.7905 29.2939 32.0569 29.1145L32.1302 29.088C32.3234 28.9351 32.5165 28.7823 32.6099 28.5825C32.6099 28.5825 32.6099 28.5825 32.6832 28.556C32.7299 28.4562 32.8031 28.4297 32.8498 28.3298C32.923 28.3033 32.8965 28.2299 32.9697 28.2034C33.0164 28.1036 33.1629 28.0506 33.2096 27.9507C33.2829 27.9242 33.3296 27.8243 33.4028 27.7978C33.5228 27.6715 33.5695 27.5716 33.6894 27.4452C33.7626 27.4187 33.7361 27.3454 33.8093 27.3189C33.8826 27.2924 33.9293 27.1925 33.9293 27.1925C34.0959 26.9663 34.2625 26.74 34.4557 26.5872C35.6954 24.9771 37.0285 23.1672 37.4699 21.1824C37.5367 20.9093 37.6036 20.6362 37.5706 20.3163C37.9874 16.4323 35.0221 13.2744 31.9827 11.0559Z" fill="#444235"/>
<path d="M12.1144 10.8631C7.51451 17.8373 4.15398 29.8384 10.1267 33.9819C17.3298 39.0074 26.987 33.1896 31.4925 27.328C32.9721 25.4652 34.4718 23.4292 34.6074 21.0572C34.9042 17.2995 31.8923 14.2415 28.9261 11.9965C26.1861 9.91862 23.2061 8.09345 20.1593 6.54135C19.4343 6.14007 18.6359 5.76528 17.7506 5.8368C16.7655 5.86146 15.8463 6.52597 15.1001 7.21082C14.1873 8.12189 13.1344 9.33256 12.1144 10.8631Z" fill="#9BA39C"/>
<path d="M31.5925 27.3748C33.0721 25.512 34.5718 23.476 34.7074 21.104C35.0042 17.3463 31.9923 14.2883 29.0261 12.0433C26.286 9.96544 23.3061 8.14024 20.2593 6.58814C19.5342 6.18686 18.7359 5.81209 17.8506 5.88361C16.8655 5.90828 15.9463 6.57278 15.2001 7.25763C14.1875 8.12186 13.1611 9.40588 12.1411 10.9365C11.8344 11.4623 11.4545 12.0146 11.1477 12.5404C12.6052 12.6766 14.1094 12.7129 15.274 12.9552C15.8196 13.0895 16.3918 13.2973 16.5044 13.8373C16.5904 14.3039 16.2306 14.683 15.9706 15.1089C15.1905 16.3868 16.0803 18.3877 17.5909 18.6706C20.5389 19.2629 23.7532 19.6759 23.949 23.4212C24.1246 27.3398 21.3714 31.4057 19.3315 34.4669C19.0714 34.8928 18.8114 35.3188 18.5514 35.7447C23.6042 34.8287 28.6333 31.1005 31.5925 27.3748Z" fill="#8A938C"/>
<path opacity="0.54" d="M15.6225 35.8921C7.93424 30.2125 11.5414 11.5683 20.6849 6.84892C20.4853 6.75522 20.3856 6.70837 20.2592 6.58817C19.5341 6.1869 18.7358 5.81213 17.8505 5.88364C16.8654 5.90831 15.9462 6.57282 15.2 7.25767C14.1874 8.1219 13.161 9.40592 12.1411 10.9365C7.54113 17.9107 4.18059 29.9118 10.1533 34.0553C11.8826 35.1716 13.7457 35.7417 15.6225 35.8921Z" fill="#657065"/>
<path opacity="0.54" d="M18.9619 5.9792C18.1469 8.76295 14.5104 11.0746 12.4768 14.3823C7.24968 22.8279 10.2725 28.2049 12.648 35.2265C13.6193 35.6216 14.6841 35.817 15.6957 35.8657C8.0074 30.1861 11.6145 11.5418 20.7581 6.82242C20.5585 6.72873 20.4587 6.68188 20.3324 6.56168C19.8335 6.32745 19.361 6.16659 18.9619 5.9792Z" fill="#657065"/>
<path d="M26.2973 18.0085C26.6955 19.1088 23.2524 14.6305 23.2112 15.8898C23.2367 16.8761 26.8042 23.3004 26.6037 24.1196C25.1862 30.274 20.157 34.0021 14.4111 35.7497C20.8728 36.8956 27.9464 32.1786 31.5922 27.3749C33.0718 25.512 34.5715 23.476 34.7071 21.104C35.004 17.3463 31.992 14.2883 29.0258 12.0433C26.2858 9.96543 23.3058 8.14023 20.259 6.58812C19.5605 6.26019 18.862 5.93228 18.0966 5.87742C21.9078 8.3973 25.0176 13.328 26.2973 18.0085Z" fill="#C4CEC6"/>
<path d="M15.8075 30.6815C17.9434 31.3188 19.0916 28.0826 17.8219 26.634C15.1889 23.9366 12.9997 29.7895 15.8075 30.6815Z" fill="#8A938C"/>
<path opacity="0.5" d="M29.708 15.5297C28.246 13.3211 26.1449 11.1779 24.01 9.62759C23.2318 9.0796 22.58 8.6518 21.7552 8.20367C21.7286 8.13032 21.6554 8.15682 21.5821 8.18333C21.5089 8.20984 21.4622 8.3097 21.4155 8.40956C21.442 8.48292 21.4686 8.55626 21.4951 8.62961C21.8805 9.23678 22.3126 9.7441 22.698 10.3513C23.7884 11.5329 24.7386 13.0142 25.4426 14.5016C25.6486 14.8418 25.7813 15.2086 25.914 15.5754C26.8038 17.5763 27.527 19.8034 27.4848 21.9756C27.4893 24.048 26.5947 26.6117 25.5811 28.3889C24.541 30.0926 22.9681 32.1552 21.2697 33.1846C20.6636 33.5699 19.1988 34.1 18.9451 34.7726C19.098 34.9661 19.4175 34.9334 19.7371 34.9008C20.616 34.5827 21.2953 34.1709 22.1211 33.7061C25.3777 31.9468 28.0631 29.0669 29.8036 25.8652C30.6972 24.2144 31.5048 22.097 31.407 20.2243C31.4885 18.6186 30.5053 16.8174 29.708 15.5297Z" fill="#F0F2F0"/>
<path d="M29.1008 16.8279C28.9745 16.7077 28.4023 16.5 28.0076 18.385C27.6734 19.7504 27.958 21.2236 28.8021 22.4115C29.4933 23.4058 30.2596 22.5477 30.4867 21.8018C31.0544 19.9371 30.7368 18.144 29.1008 16.8279Z" fill="#F0F2F0"/>
</svg>
