<svg width="189" height="167" viewBox="0 0 189 167" fill="none" xmlns="http://www.w3.org/2000/svg">
<path opacity="0.87" d="M29.8064 39.6045C29.6838 39.6045 29.6392 39.7383 29.5053 39.7829C29.2935 39.9947 29.0258 40.0839 28.814 40.2958C28.6801 40.2958 28.6021 40.5076 28.4683 40.5522C28.3344 40.5968 27.9888 40.8533 27.8215 40.9871C27.6542 41.1209 27.5985 41.1989 27.4758 41.2435C27.3531 41.2881 27.0855 41.5891 26.9071 41.7118C26.7286 41.8344 26.606 41.8902 26.5168 42.0574L26.0038 42.4477C25.8254 42.5815 25.7362 42.7487 25.5689 42.8825C25.3929 42.9879 25.2439 43.133 25.134 43.3062C24.9556 43.44 24.8775 43.6073 24.6991 43.7411C24.5207 43.8749 24.4426 44.0421 24.2642 44.1648C24.0858 44.2874 24.0077 44.4658 23.7847 44.6888C23.5616 44.9118 23.5282 44.9898 23.3609 45.1125C23.1936 45.2351 23.0487 45.5027 22.8814 45.6365C22.7141 45.7703 22.6138 45.9376 22.5803 46.0156C22.4465 46.2832 22.2681 46.4059 22.1454 46.6623C22.0227 46.9188 22.0116 46.9299 21.8778 46.9634C21.6145 47.3052 21.3971 47.6801 21.231 48.0783L20.5285 49.4609C20.5285 49.539 20.4504 49.6282 20.4058 49.7174C19.1937 52.5819 18.394 55.6039 18.0305 58.693C17.8521 59.8971 17.6291 61.1905 17.5399 62.4393C15.4122 77.6911 11.6742 92.6746 6.38847 107.139C6.04278 108.042 5.69708 108.956 5.34023 109.859C4.22509 112.658 3.03189 115.289 2.11748 117.753C1.98366 118.01 1.93905 118.311 1.76063 118.657L1.68257 118.824C1.54876 119.08 1.54875 119.303 1.41494 119.56L1.28112 119.816C1.20306 119.995 1.15846 120.296 1.06925 120.463C1.04654 120.51 1.03474 120.561 1.03474 120.613C1.03474 120.666 1.04654 120.717 1.06925 120.764C0.980034 120.942 0.980034 121.154 0.846217 121.411C0.82351 121.458 0.811717 121.509 0.811717 121.561C0.811717 121.613 0.82351 121.665 0.846217 121.712C0.757005 121.89 0.757006 122.102 0.667794 122.28C0.578583 122.459 0.667794 122.492 0.667794 122.581C0.602199 122.775 0.571979 122.979 0.578581 123.183C0.578581 123.273 0.578581 123.395 0.578581 123.484C0.578581 123.574 0.489372 123.875 0.489372 124.087C0.489372 124.298 0.489372 124.31 0.489372 124.388C0.489372 124.466 0.400158 124.778 0.400158 125.001C0.400158 125.224 0.400158 125.213 0.400158 125.302C0.400158 125.391 0.400158 125.815 0.400158 126.038C0.384473 126.054 0.375732 126.076 0.375732 126.099C0.375732 126.122 0.384473 126.144 0.400158 126.16C0.400158 126.461 0.400158 126.718 0.400158 127.03C0.400158 127.108 0.400158 127.153 0.400158 127.242C0.389848 127.475 0.416188 127.708 0.478218 127.933C0.478218 128.056 0.478218 128.145 0.478218 128.279C0.478218 128.413 0.478218 128.625 0.478218 128.836C0.478218 129.048 0.556278 129.104 0.478218 129.182C0.400158 129.26 0.47822 129.528 0.567431 129.661C0.614964 129.789 0.655907 129.92 0.690098 130.052C0.715922 130.233 0.77651 130.407 0.86852 130.565C0.902711 130.697 0.943654 130.827 0.991186 130.955C1.07989 131.117 1.13666 131.295 1.15845 131.479L1.29227 131.869C1.29227 131.992 1.45954 132.17 1.50415 132.293C1.5491 132.449 1.62079 132.596 1.71603 132.728C1.84984 132.906 1.8833 133.029 2.01711 133.207C2.15093 133.385 2.15093 133.374 2.18439 133.508C2.20085 133.527 2.20994 133.55 2.20994 133.575C2.20994 133.6 2.20085 133.624 2.18439 133.642C2.30602 133.783 2.40736 133.941 2.48548 134.11C2.48548 134.244 2.61929 134.289 2.65274 134.411C2.6692 134.43 2.6783 134.453 2.6783 134.478C2.6783 134.503 2.6692 134.527 2.65274 134.545L3.04305 135.069C3.04305 135.192 3.16571 135.236 3.29953 135.415H3.38874C3.5294 135.613 3.68604 135.799 3.8571 135.972C3.8571 136.106 4.06898 136.195 4.11358 136.318H4.20279C4.41467 136.541 4.54848 136.708 4.76036 136.92C4.84957 136.92 4.88303 137.098 5.06145 137.188C5.23987 137.277 5.70823 137.834 6.00932 138.091C6.94604 139.005 7.8493 139.785 8.70796 140.655C9.09826 140.956 9.35474 141.302 9.74504 141.603L9.91232 141.692C10.3543 142.145 10.8275 142.566 11.3285 142.952H11.4178C39.1848 167.348 60.6847 173.77 83.3555 148.527C93.6817 137.076 102.971 125.112 112.126 113.171C113.687 111.153 115.204 109.213 116.676 107.139L119.542 103.392C120.412 102.278 121.192 101.163 122.062 100.126C136.213 81.7284 150.743 63.8553 168.898 48.2456C171.452 45.9599 174.262 43.5961 176.704 41.1432C176.96 40.8421 177.184 40.6303 177.44 40.3292C177.696 40.0282 177.741 39.939 177.919 39.8163C178.098 39.6937 178.221 39.4261 178.432 39.2031C178.644 38.9801 178.789 38.7348 179.001 38.5229C179.213 38.3111 179.347 38.0435 179.603 37.7425C179.693 37.5752 179.871 37.4414 179.96 37.2742C180.216 36.9272 180.433 36.5533 180.607 36.1592L180.785 35.8136C180.953 35.4679 181.086 35.2115 181.265 34.8658C181.31 34.7826 181.351 34.697 181.388 34.6094C181.601 34.2433 181.762 33.8493 181.867 33.4386L182.046 33.1042C182.232 32.6843 182.378 32.2474 182.48 31.7996L182.57 31.6324C182.659 31.2421 182.703 30.9411 182.793 30.5174V30.4393C182.793 30.3501 182.793 30.2163 182.793 30.1271C182.793 30.0379 182.882 29.7481 182.882 29.5251C182.906 29.4565 182.906 29.3818 182.882 29.3132C182.882 29.1014 182.882 29.0122 182.882 28.7892C182.882 28.5662 182.882 28.5773 182.882 28.4881V28.4101C182.882 28.3209 182.882 28.1871 182.882 28.109C182.882 27.7634 182.882 27.3285 182.793 26.9941C182.783 26.5986 182.727 26.2056 182.625 25.8233V25.7341V25.6115L182.536 25.355C182.536 25.132 182.402 24.9648 182.414 24.7418C182.425 24.5188 182.414 24.6192 182.414 24.53L182.324 24.2735V24.1397L182.202 23.7495C182.202 23.6268 182.112 23.493 182.023 23.4484C182.004 23.361 181.978 23.2753 181.945 23.192L181.811 22.8017C181.769 22.6447 181.697 22.4971 181.599 22.3669C181.51 22.3669 181.599 22.2331 181.477 22.1996C181.354 22.1662 181.343 22.0212 181.298 21.8874C181.182 21.7172 181.096 21.5288 181.042 21.33V21.1962C180.964 21.1962 181.042 21.0735 180.919 21.0289C180.769 20.8465 180.652 20.6389 180.574 20.4157C180.484 20.4157 180.574 20.293 180.451 20.2484C180.328 20.2038 180.451 20.1146 180.317 20.07C180.153 19.7967 179.95 19.5488 179.715 19.3341H179.626C174.05 12.7446 162.754 10.5927 154.78 9.48886L153.788 9.31046C141.198 7.71604 127.85 1.19342 114.992 0.769727C114.276 0.702897 113.556 0.702897 112.84 0.769727C112.751 0.769727 112.706 0.769727 112.628 0.769727C111.803 0.756914 110.979 0.81285 110.164 0.936968C109.606 0.936968 109.048 1.10422 108.435 1.14882C108.312 1.14882 108.089 1.14881 107.967 1.22686C107.487 1.31605 107.141 1.36066 106.662 1.43871L106.272 1.5725C106.149 1.5725 105.926 1.57251 105.803 1.65055C105.65 1.71016 105.488 1.74042 105.324 1.73975C105.201 1.73975 104.978 1.73976 104.855 1.82896L104.599 1.907C100.272 3.07207 96.0817 4.6942 92.0982 6.74601L86.5448 9.89026C69.985 18.5091 53.4697 27.2617 36.8987 35.8916C34.8246 37.0066 32.6612 38.1216 30.7209 39.3703H30.587C30.4482 39.3296 30.3006 39.3301 30.162 39.3716C30.0234 39.4132 29.8999 39.4941 29.8064 39.6045Z" fill="#494739"/>
<path d="M11.4735 140.276C0.388957 129.918 7.32514 121.734 11.7857 109.268C17.0701 94.8077 20.8081 79.828 22.9371 64.5801C23.6062 59.6073 24.2307 54.5452 26.6282 50.208C30.0629 44.2651 36.33 40.831 42.4744 37.6533C59.0342 29.0233 75.5606 20.2707 92.1205 11.6519C99.6477 7.66031 107.387 3.66868 115.884 2.87705C130.18 1.53907 145.279 9.48888 159.598 11.3063C170.035 12.6777 187.588 15.7662 188.591 29.146C189.327 37.9543 181.187 44.6665 174.518 50.3306C140.295 79.7884 119.029 117.229 88.9869 150.612C64.688 177.628 41.8499 168.697 11.4735 140.276Z" fill="#A5ADA6"/>
<path d="M176.793 28.3321C174.407 42.0575 164.103 40.5969 155.996 49.2046C147.889 57.8122 144.387 68.5606 132.845 73.6561C124.114 77.4693 111.858 77.1237 107.197 86.5676C104.454 91.9975 104.131 97.9961 100.183 102.824C95.7224 108.332 90.4812 110.261 88.9312 118.032C86.7009 128.903 81.1921 141.28 73.3192 149.252C68.591 154.113 58.8224 157.625 53.637 151.482C51.9643 149.452 50.548 147.111 48.1839 146.029C45.8198 144.948 43.478 145.494 41.1028 145.483C24.2753 145.483 16.5697 118.289 13.2912 105.154C12.8005 106.537 12.321 107.908 11.8415 109.291C7.30286 121.712 0.400136 129.806 11.5292 140.298C41.9057 168.719 64.8218 177.684 88.9758 150.824C119.085 117.374 140.272 80.0895 174.418 50.4756C181.109 44.6666 189.227 38.0436 188.491 29.2353C188.045 23.2813 184.265 19.4234 179.313 16.8144C180.797 20.1816 177.551 24.0618 176.793 28.3321Z" fill="#979E98"/>
<path opacity="0.45" d="M11.4735 140.265C14.1387 142.696 16.6254 145.037 19.1234 147.156C17.6083 135.867 19.4587 124.383 24.4426 114.141C28.9032 105.054 34.3562 98.1634 33.7986 87.493C33.4083 79.6881 33.386 73.1098 36.8764 65.9962C41.8134 55.8692 50.137 47.7873 60.4059 43.1502C63.0418 40.8305 66.0603 38.9858 69.327 37.698C75.1592 35.1224 80.9579 31.3426 87.0132 29.4248C94.2727 27.0276 101.242 31.4095 108.58 29.0569C114.156 27.3063 118.839 23.7384 124.66 22.4673C131.139 20.9733 136.57 22.4116 142.503 24.9872C147.108 26.983 149.784 27.8973 155.137 27.1391C157.813 26.76 160.189 26.1245 162.943 26.3029C166.955 26.4383 170.836 27.7593 174.097 30.099C177.358 32.4387 179.852 35.6922 181.265 39.4485C181.697 40.7457 182.036 42.0722 182.28 43.4178C186.183 39.3258 189.049 34.721 188.647 29.3245C187.532 16.0227 170.035 12.9008 159.653 11.4848C145.469 9.63389 130.359 1.68409 115.94 3.05551C107.443 3.84715 99.7035 7.83879 92.1763 11.8304C75.6053 20.4492 59.09 29.213 42.5302 37.8318C36.5196 40.9649 30.1187 44.4436 26.6729 50.3865C24.1527 54.746 23.6174 59.8749 22.9929 64.7586C20.8652 80.0068 17.1272 94.9866 11.8415 109.447C7.24711 121.689 0.299782 129.873 11.4735 140.265Z" fill="#C4C7BA"/>
<path opacity="0.54" d="M11.4737 140.265C13.3248 141.96 15.1648 143.61 16.9713 145.204C16.1015 136.441 17.7854 126.908 19.2908 119.225C22.6362 102.746 29.3271 86.9578 32.3714 70.4337C34.0887 61.2463 34.8582 54.5899 42.6865 48.4909C53.7361 39.9284 65.8326 32.8094 78.6832 27.3063C85.5079 24.4854 92.8901 23.7718 100.016 22.0659C106.495 20.583 112.082 17.015 118.427 15.376C129.701 12.5216 139.168 19.6687 149.896 21.5195C160.624 23.3704 177.474 20.8394 185.413 29.7146C186.507 30.9319 187.416 32.3031 188.112 33.7843C188.505 32.2749 188.674 30.7158 188.614 29.1572C187.989 22.0324 182.659 17.829 176.347 15.2645C163.3 27.1837 134.463 11.5405 122.631 4.59414C121.925 4.16295 121.336 3.56583 120.914 2.85477C119.273 2.80758 117.632 2.84852 115.996 2.97742C111.102 3.54771 106.332 4.89913 101.867 6.9802C97.9975 15.0861 90.1692 19.468 80.0549 23.2366C68.0336 27.5404 54.7635 40.1955 41.4821 38.2554C35.728 41.2993 29.9404 44.6442 26.673 50.2526C26.1636 51.1114 25.7415 52.0191 25.4129 52.962C27.0529 57.6491 27.963 62.5602 28.1116 67.5236C27.9889 75.8971 25.268 84.9173 22.8593 92.9006C20.8855 99.5905 18.2983 110.495 10.7823 112.112C6.28827 122.938 1.20322 130.654 11.4737 140.265Z" fill="#222622"/>
<path d="M11.4735 140.276C41.8499 168.697 70.5851 165.887 94.739 139.028C134.772 117.572 121.951 129.347 174.362 50.4532C181.053 44.6442 189.171 38.0212 188.435 29.2128C188.305 27.4061 187.819 25.643 187.005 24.0244C186.192 22.4057 185.068 20.9634 183.696 19.7801C183.631 22.8547 183.078 25.8995 182.057 28.8003C179.826 34.8435 175.734 43.295 169.422 45.9041C167.73 47.3808 165.954 48.7583 164.103 50.0295C157.412 54.4894 147.03 66.5089 141.477 72.1507C129.991 83.9918 117.624 90.5145 107.041 103.125C96.6702 115.523 93.5367 132.014 82.9986 144.323C76.4862 151.861 72.9623 159.365 54.674 157.837C41.8165 156.722 26.2379 148.237 16.6143 139.484C12.0199 135.326 7.54817 132.204 5.63013 125.937C5.57051 125.785 5.54025 125.622 5.54091 125.458C4.82722 130.531 5.97582 135.114 11.4735 140.276Z" fill="#C4CEC6"/>
<path opacity="0.65" d="M76.2521 127.744C74.4232 130.074 71.5239 131.747 68.8921 133.118C60.194 137.712 49.4218 136.385 43.3219 128.324C40.6679 124.823 41.1586 121.288 43.3219 117.531C43.9428 116.499 44.6881 115.548 45.5411 114.698C48.6635 111.944 55.1424 110.239 59.235 110.685C65.056 111.354 78.7611 114.598 78.2593 122.671C78.1366 124.53 77.4347 126.304 76.2521 127.744Z" fill="#DFE0D3"/>
<path d="M62.2126 112.547C72.2488 113.394 79.8652 119.515 79.408 126.205C78.9508 132.895 70.2639 137.701 60.2276 136.853C50.1913 136.006 42.5638 129.885 43.021 123.195C43.4782 116.505 52.154 111.688 62.2126 112.547Z" fill="#879389"/>
<path d="M43.7234 126.685C43.563 126.603 43.4396 126.463 43.3777 126.294C44.95 131.747 51.7412 136.251 60.1048 136.931C70.1411 137.79 78.7277 133.018 79.3187 126.283C79.3905 124.773 79.1158 123.267 78.5158 121.879C75.4938 132.661 52.4215 134.233 43.7234 126.685Z" fill="#3B443C"/>
<path d="M31.7022 132.538C31.1112 130.074 31.8472 127.755 33.4976 127.287C35.148 126.818 36.9769 128.502 37.6236 130.877C38.2704 133.252 37.4675 135.671 35.8283 136.14C34.189 136.608 32.349 135.025 31.7022 132.538Z" fill="#3E433F"/>
<path d="M41.6828 99.2671C44.2365 99.3563 46.2549 100.705 46.2437 102.434C46.2326 104.162 44.1584 105.489 41.6159 105.399C39.0734 105.31 37.0438 103.95 37.055 102.222C37.0661 100.494 39.1403 99.1667 41.6828 99.2671Z" fill="#3B443C"/>
<path d="M91.4515 35.6575C93.2246 33.8401 95.6444 33.3383 96.8934 34.5425C98.1423 35.7467 97.6517 38.1662 95.8786 39.9725C94.1055 41.7787 91.6857 42.2916 90.4367 41.0874C89.1878 39.8833 89.645 37.4638 91.4515 35.6575Z" fill="#3B443C"/>
<path d="M168.437 51.7579C167.651 52.7134 166.876 53.7675 166.161 54.7915C165.246 56.0807 164.447 57.5754 163.532 58.8646C161.698 61.4308 159.856 63.8929 158.006 66.251C157.888 66.4174 157.712 66.605 157.67 66.8403C157.649 66.9695 157.653 67.1027 157.683 67.218C157.712 67.3333 157.765 67.424 157.832 67.4752C157.852 67.4929 157.876 67.4966 157.899 67.4856C157.922 67.4745 157.942 67.4496 157.956 67.4157C159.939 66.4103 161.488 63.9125 163.009 61.4919L166.647 55.7661C167.464 54.4768 168.281 53.1786 169.135 51.9282C170.292 50.2757 171.517 48.7762 172.798 47.4448C173.419 46.7842 174.039 46.1235 174.681 45.394C175.151 44.8612 175.988 44.4241 176.215 43.4528C175.616 43.9383 175.011 44.432 174.414 45.0594C174.237 45.247 173.265 46.3892 173.07 46.2739C171.743 47.6849 170.487 49.1731 169.273 50.7095C168.952 51.123 168.701 51.5075 168.437 51.7579Z" fill="#939593"/>
<path d="M96.4989 111.551C92.1824 102.927 95.9417 96.7694 98.8791 87.1352C102.337 75.9633 105.125 64.318 107.198 52.394C107.863 48.5042 108.513 44.5422 109.922 41.2254C111.92 36.687 115.031 34.2437 118.067 31.9972C126.255 25.891 134.437 19.6868 142.624 13.5894C146.351 10.7596 137.374 7.42348 141.313 7.15535C147.941 6.69942 167.066 14.1096 173.476 16.1406C178.146 17.6578 185.942 20.8255 185.435 31.4087C185.136 38.3792 180.932 43.3268 177.477 47.5102C159.716 69.2865 147.299 97.8946 131.165 122.938C120.119 137.196 108.326 135.214 96.4989 111.551Z" fill="#A5ADA6"/>
<path opacity="0.65" d="M126.998 104.388C125.994 106.148 124.549 107.344 123.248 108.314C118.942 111.569 114.117 110.073 111.912 103.467C110.952 100.598 111.431 97.8336 112.69 94.9638C113.049 94.1773 113.458 93.4591 113.909 92.8254C115.534 90.7863 118.617 89.7134 120.454 90.236C123.065 91.0067 129.093 94.1364 128.281 100.475C128.091 101.935 127.642 103.303 126.998 104.388Z" fill="#DFE0D3"/>
<path d="M121.68 91.8275C126.204 92.9151 129.242 98.0564 128.551 103.308C127.859 108.559 123.544 111.982 119.02 110.894C114.496 109.807 111.453 104.665 112.144 99.4135C112.836 94.162 117.147 90.7302 121.68 91.8275Z" fill="#879389"/>
<path d="M112.213 102.193C112.146 102.121 112.1 102.006 112.083 101.871C112.408 106.232 115.186 110.065 118.958 110.951C123.481 112.047 127.748 108.647 128.504 103.366C128.646 102.179 128.629 100.981 128.455 99.8624C126.296 108.23 115.642 108.504 112.213 102.193Z" fill="#3B443C"/>
<path d="M106.299 106.301C106.207 104.335 106.71 102.539 107.498 102.239C108.286 101.939 109 103.342 109.124 105.24C109.248 107.138 108.707 109.011 107.924 109.311C107.142 109.612 106.415 108.287 106.299 106.301Z" fill="#979E98"/>
<path d="M113.259 80.5063C114.42 80.6835 115.244 81.8308 115.115 83.1919C114.985 84.553 113.941 85.5116 112.786 85.3349C111.631 85.1583 110.802 84.0016 110.932 82.6405C111.062 81.2794 112.105 80.3209 113.259 80.5063Z" fill="#3B443C"/>
<path d="M140.587 32.4742C141.528 31.1165 142.669 30.8225 143.153 31.8234C143.637 32.8244 143.238 34.7101 142.298 36.059C141.357 37.4078 140.215 37.7107 139.731 36.7097C139.247 35.7087 139.631 33.8217 140.587 32.4742Z" fill="#3B443C"/>
<path d="M138.105 63.0463C133.248 61.8928 137.096 53.3074 139.981 50.5333C141.822 48.7177 144.459 47.7457 145.899 50.1896C148.013 53.9264 143.419 59.8303 141.17 61.7768C140.175 62.5981 139.077 63.3125 138.105 63.0463Z" fill="#494D4A"/>
<path opacity="0.65" d="M164.369 36.4329C163.803 39.9243 161.731 43.7561 160.094 45.6967C159.019 46.9978 156.812 47.8763 155.634 47.2812C155.124 47.0683 154.684 46.575 154.379 45.8731C154.074 45.1713 153.919 44.2975 153.936 43.3788C154.004 42.6084 154.164 41.854 154.406 41.163C155.474 37.4164 156.629 34.6167 158.878 32.9448C160.608 31.6683 163.458 29.8919 164.396 33.4502C164.503 33.8643 164.547 34.3273 164.524 34.7995C164.526 35.3455 164.473 35.8977 164.369 36.4329Z" fill="#DFE0D3"/>
<path d="M157.074 36.2696C159.698 32.8516 162.777 32.0529 163.859 34.4905C164.94 36.9281 163.677 41.6843 161.026 45.1707C158.374 48.6571 155.318 49.3782 154.237 46.9406C153.155 44.503 154.444 39.6871 157.074 36.2696Z" fill="#879389"/>
<path d="M155.183 44.29C154.761 43.8564 154.397 43.2856 154.11 42.6061C153.921 43.3208 153.836 44.0868 153.863 44.8336C153.889 45.5805 154.027 46.2845 154.263 46.8809C155.349 49.3189 158.364 48.5497 161.053 45.1022C163.02 42.5807 164.201 39.3317 164.279 36.8054C162.476 42.0171 158.221 47.4649 155.183 44.29Z" fill="#3B443C"/>
<path d="M133.09 84.422C133.879 82.8201 133.16 78.0506 132.4 76.98C132.2 76.6664 131.936 76.4901 131.651 76.4801C131.366 76.4702 131.078 76.6271 130.833 76.9251C129.418 79.0896 130.437 83.8867 131.921 84.7932C132.475 85.0831 132.845 84.9133 133.09 84.422Z" fill="#979E98"/>
<path d="M149.248 78.1337C149.51 77.8565 149.777 77.571 150.066 77.2166C151.934 75.3414 154.794 73.2825 155.963 69.935C155.318 70.3026 154.689 70.77 154.084 71.3307C152.825 72.4468 151.541 73.6224 150.283 74.7385C149.564 75.3493 148.871 76.0624 148.213 76.8696C147.629 77.6312 147.113 78.6114 146.504 79.3706C145.816 80.1874 145.165 81.1001 144.559 82.0979C143.801 83.366 143.049 84.617 142.365 85.9716C141.981 86.6894 140.747 88.3834 140.968 89.3869C141.345 91.2728 144.251 85.3471 144.673 84.6683C146.071 82.2368 147.605 80.0458 149.248 78.1337Z" fill="#939593"/>
<path d="M147.181 44.6113C147.353 46.3806 147.586 48.1204 147.88 49.8219C148.179 51.5806 148.572 53.2738 149.056 54.8812C149.659 56.708 150.109 58.6892 150.684 60.6021C150.93 61.5607 151.222 62.4761 151.559 63.3396C151.915 63.9386 152.24 64.5904 152.531 65.2888C152.649 64.3774 152.618 63.4542 152.441 62.6231C152.314 61.6548 152.103 60.7054 151.938 59.7602C151.622 58.2165 149.969 51.9177 149.792 50.0412L149.758 49.737L149.864 49.4721C149.966 49.2068 150.084 49.0404 150.189 48.7844C150.019 49.07 149.277 48.7628 149.104 48.685C148.746 48.3878 148.453 47.9198 148.257 47.3318C147.834 46.3627 147.452 45.3393 147.115 44.2686C147.148 44.3736 147.171 44.4894 147.181 44.6113Z" fill="#EFEFEF"/>
<path d="M147.271 45.5406C147.23 48.1146 147.761 50.9004 148.115 52.8639C148.633 55.5688 151.632 64.9495 152.686 65.4978C151.301 58.9134 148.97 53.1194 147.271 45.5406Z" fill="#636363"/>
<path opacity="0.54" d="M11.4736 140.265C13.3248 141.96 15.1648 143.61 16.9713 145.204C16.1015 136.441 17.7853 126.907 19.2908 119.225C22.6362 102.746 29.3271 86.9577 32.3714 70.4337C34.0887 61.2463 34.8582 54.5898 42.6864 48.4909C53.7361 39.9284 65.8326 32.8094 78.6832 27.3063C85.5079 24.4854 92.8901 23.7718 100.016 22.0659C106.495 20.5829 112.082 17.015 118.427 15.376C129.701 12.5216 139.168 19.6687 149.896 21.5195C160.624 23.3704 177.474 20.8394 185.413 29.7146C186.507 30.9319 187.416 32.303 188.112 33.7843C188.505 32.2749 188.674 30.7158 188.614 29.1571C187.499 15.8554 170.002 12.7335 159.62 11.3175C145.436 9.45544 130.325 1.50563 115.907 2.88821C107.409 3.67984 99.6702 7.67147 92.143 11.6631C75.572 20.2819 59.0567 29.0345 42.4969 37.6645C36.4863 40.7975 30.0854 44.2651 26.6507 50.2191C24.1193 54.5676 23.5841 59.7076 22.9596 64.5801C20.8319 79.8319 17.0939 94.8154 11.8082 109.28C7.24727 121.689 0.299933 129.873 11.4736 140.265Z" fill="#798277"/>
<path d="M92.1428 74.4254C81.3705 73.5334 88.0167 62.2832 93.7263 58.4589C97.3616 55.9613 102.893 54.4338 106.506 57.3439C111.836 61.8038 103.038 69.7648 98.5437 72.4742C96.5476 73.6226 94.3061 74.6484 92.1428 74.4254Z" fill="#979E98"/>
<path opacity="0.65" d="M97.9173 133.038C95.2307 132.647 92.9906 131.41 91.1037 130.242C84.8064 126.401 84.0135 119.498 90.8642 113.353C93.8386 110.682 97.4645 109.897 101.642 110.052C102.794 110.111 103.89 110.27 104.906 110.525C108.27 111.566 111.248 114.952 111.607 117.556C112.083 121.272 111.538 130.531 103.378 132.697C101.497 133.191 99.5877 133.311 97.9173 133.038Z" fill="#DFE0D3"/>
<path d="M110.333 119.922C111.46 126.234 106.845 132.7 100.074 134.471C93.3039 136.241 86.7973 132.471 85.6703 126.159C84.5434 119.846 89.1564 113.373 95.9268 111.603C102.697 109.833 109.213 113.592 110.333 119.922Z" fill="#879389"/>
<path d="M92.5797 113.094C92.6299 112.972 92.7448 112.855 92.9014 112.766C87.766 115.382 84.6029 120.856 85.568 126.108C86.6838 132.424 93.1374 136.144 99.9786 134.44C101.501 134.022 102.951 133.395 104.219 132.609C92.8579 134.084 86.7519 120.649 92.5797 113.094Z" fill="#3B443C"/>
<path d="M70.9125 99.7343C72.8618 98.9475 75.1078 98.7355 77.268 98.3792C83.47 97.2961 89.6953 93.929 91.685 87.781C92.2371 86.0836 92.4224 84.2742 93.021 82.5791C95.0823 76.8546 100.615 74.2916 105.791 72.3168C112.438 69.8106 122.706 62.9652 122.022 54.4424C121.818 52.0536 120.769 51.627 121.918 49.1672C122.864 47.0701 125.262 45.6999 126.963 44.2942C129.587 42.1427 131.908 39.556 133.78 36.62C138.691 28.8953 122.412 30.351 118.927 31.1062C110.881 32.7482 103.546 37.7844 99.6296 45.1866C96.8977 50.364 96.1778 52.6126 90.9374 55.8433C85.36 59.2901 79.8685 62.8811 74.4209 66.521C70.1749 69.4294 65.5051 73.3421 65.9733 78.7758C66.0975 79.9947 66.4538 81.2254 66.4851 82.4396C66.604 86.503 63.1523 89.3586 59.9266 91.4328C56.701 93.507 53.0824 95.9809 52.5999 99.9671C52.2837 102.516 53.5373 105.331 55.6468 106.885C57.8027 108.44 60.68 108.634 62.8388 107.391C65.4787 105.847 66.6712 102.55 69.1395 100.717C69.6253 100.322 70.248 99.9802 70.9125 99.7343Z" fill="#B3B9AF"/>
<path d="M102.412 71.5916C104.183 70.3482 105.238 68.5397 105.238 66.279C105.238 61.6069 100.942 58.5927 94.7255 58.5927C88.5087 58.5927 84.2134 61.6069 84.2134 66.279C84.2134 68.5397 85.2684 70.3482 87.0393 71.5916C84.6656 72.948 83.2715 75.0202 83.2715 77.733C83.2715 82.7819 87.9059 86.0222 94.7255 86.0222C101.545 86.0222 106.18 82.7819 106.18 77.733C106.18 75.0202 104.786 72.948 102.412 71.5916ZM94.7255 63.8299C96.5718 63.8299 97.8905 64.8472 97.8905 66.6181C97.8905 68.3513 96.6094 69.3686 94.7255 69.3686C92.8416 69.3686 91.5983 68.3513 91.5983 66.6181C91.5983 64.8472 92.8793 63.8299 94.7255 63.8299ZM94.7255 80.7849C92.3518 80.7849 90.7694 79.5416 90.7694 77.507C90.7694 75.4724 92.3518 74.229 94.7255 74.229C97.0992 74.229 98.6817 75.4724 98.6817 77.507C98.6817 79.5416 97.0992 80.7849 94.7255 80.7849Z" fill="#494739"/>
<path d="M112.575 115.901C113.04 116.607 114.059 117.234 114.498 118.005C114.86 118.596 114.816 119.361 114.972 120.094C115.323 121.65 116.504 122.901 117.935 123.617C121.454 125.459 124.913 125.674 127.624 122.423C128.331 121.585 129.101 120.399 130.066 119.662C130.94 118.965 132.183 118.749 132.747 117.705C133.261 116.79 133.78 115.766 133.508 114.763C133.222 113.606 132.075 112.928 131.031 112.365C128.749 111.162 125.964 109.91 123.655 111.12C122.523 111.715 121.643 112.895 120.394 113.22C119.57 113.416 118.746 113.238 117.96 113.15C116.652 112.968 114.424 112.756 113.292 113.724C112.251 114.654 112.213 115.31 112.575 115.901Z" fill="#B3B9AF"/>
</svg>
