<svg width="61" height="67" viewBox="0 0 61 67" fill="none" xmlns="http://www.w3.org/2000/svg">
<path opacity="0.87" d="M13.8496 44.4443C14.0437 44.6627 14.2708 44.9439 14.5265 45.1299C15.3975 46.0339 16.3632 46.9682 17.2958 47.8397C17.7786 48.3069 18.2284 48.7113 18.7728 49.1459C19.7671 49.9849 20.6997 50.8565 21.6608 51.6327C21.9164 51.8187 22.1105 52.0371 22.3662 52.223C22.8159 52.6274 23.3273 52.9993 23.7439 53.341C25.1216 54.4589 26.3384 55.4211 27.3657 56.3229C28.2321 57.0689 29.1932 57.8452 30.1497 58.4635C30.4054 58.6494 30.6279 58.7726 30.8505 58.8958L30.8836 58.9586C30.9783 58.9888 31.0115 59.0515 31.1062 59.0817C31.2009 59.112 31.2956 59.1422 31.3619 59.2677C31.3619 59.2677 31.395 59.3304 31.4566 59.2979C31.6792 59.4211 31.8686 59.4816 32.0912 59.6048C32.0912 59.6048 32.0912 59.6047 32.1859 59.635C32.2806 59.6652 32.3754 59.6954 32.4701 59.7257L32.5649 59.7559C32.7543 59.8163 32.9769 59.9395 33.1663 60C33.261 60.0302 33.2611 60.0302 33.3558 60.0604C33.4505 60.0907 33.5452 60.1209 33.5452 60.1209L33.64 60.1511C33.8294 60.2116 34.0189 60.272 34.2369 60.2372C34.3316 60.2674 34.3932 60.2349 34.4263 60.2977C34.5827 60.2954 34.6774 60.3256 34.8337 60.3233C34.8954 60.2908 34.9285 60.3535 34.9901 60.321C35.0517 60.2885 35.1464 60.3187 35.1464 60.3187C35.3028 60.3164 35.4591 60.3141 35.6155 60.3118C35.6771 60.2793 35.7102 60.3421 35.7718 60.3096L35.8334 60.277C36.0514 60.2422 36.2694 60.2074 36.5489 60.1401C36.7053 60.1378 36.8902 60.0403 37.0134 59.9752L37.075 59.9427C37.1366 59.9102 37.1366 59.9102 37.1982 59.8777L37.2598 59.8452L37.3215 59.8126L37.3831 59.7801C37.4447 59.7476 37.5063 59.7151 37.5063 59.7151C37.5679 59.6826 37.568 59.6826 37.6296 59.6501C37.6912 59.6175 37.7528 59.585 37.7528 59.585C37.8144 59.5525 37.876 59.52 37.9377 59.4875L37.9993 59.455C38.0609 59.4224 38.0609 59.4224 38.1225 59.3899C38.2457 59.3249 38.369 59.2599 38.4591 59.1321C38.5207 59.0996 38.5207 59.0996 38.5823 59.067C38.644 59.0345 38.644 59.0345 38.7056 59.002C38.8288 58.937 38.8573 58.8417 38.9806 58.7767L39.0422 58.7442C39.1654 58.6791 39.1939 58.5839 39.3171 58.5188C39.3788 58.4863 39.4404 58.4538 39.4689 58.3585C39.6207 58.1982 39.7724 58.038 39.9241 57.8777C40.5927 57.204 41.1666 56.5 41.8021 55.7636C43.1015 54.1955 44.3679 52.5646 45.6674 50.9964C45.7575 50.8687 45.8476 50.7409 45.9378 50.6131C46.2697 50.1973 46.6018 49.7814 46.9338 49.3656C47.6263 48.4386 48.3187 47.5117 48.8834 46.4917C49.0305 46.1734 49.1777 45.8551 49.3248 45.5368C49.3864 45.5043 49.3533 45.4416 49.4149 45.4091C49.4435 45.3138 49.5051 45.2813 49.472 45.2185C49.5575 44.9328 49.7046 44.6144 49.7901 44.3287C49.8472 44.1381 49.9327 43.8524 49.9566 43.5991C50.2278 42.1725 50.3096 40.6854 50.1735 39.2332C50.1358 39.0124 50.1597 38.7592 50.122 38.5384C50.075 38.0017 50.0281 37.4649 49.9196 36.9607C49.3087 31.0262 47.5749 25.2029 44.8837 19.8047C44.1222 18.3616 43.3275 16.8558 42.3811 15.5102C42.0877 15.1035 41.8275 14.7596 41.5672 14.4156L41.5341 14.3529C41.2738 14.009 41.0135 13.665 40.6916 13.3536C40.6585 13.2909 40.6254 13.2281 40.5307 13.1979C40.3035 12.9167 40.0147 12.668 39.7259 12.4193C39.6928 12.3566 39.5981 12.3264 39.5318 12.2009C39.2099 11.8894 38.888 11.578 38.5045 11.2991C36.5492 9.68383 34.1718 8.61217 31.7226 8.30029C31.7226 8.30029 31.661 8.33282 31.6279 8.27008C31.2821 8.21191 30.9694 8.21649 30.6567 8.22107C30.344 8.22565 30.0313 8.23022 29.7186 8.2348C29.657 8.26731 29.5623 8.2371 29.5007 8.26962C29.188 8.2742 28.9084 8.34153 28.5957 8.34611C28.3777 8.38092 28.0981 8.44825 27.8802 8.48306C27.8185 8.51558 27.7238 8.48531 27.6006 8.55035C27.539 8.58286 27.539 8.58287 27.4773 8.61539L27.4157 8.64789C27.3541 8.68041 27.2925 8.71295 27.1362 8.71524C27.0129 8.78028 26.9513 8.81281 26.795 8.8151C26.6717 8.88013 26.6101 8.91263 26.4537 8.91492C23.2073 10.2271 20.6037 13.2053 18.6587 16.2372C17.4917 18.0563 15.7369 20.1053 13.9252 22.3448C13.5932 22.7607 13.2613 23.1766 12.9293 23.5924C12.5973 24.0083 12.2653 24.4241 11.9949 24.8074C11.4541 25.5741 10.9419 26.2455 10.4959 27.0424C10.197 27.521 9.89808 27.9996 9.66081 28.4456C9.39504 28.987 9.06767 29.5608 8.86351 30.0696C8.68786 30.4832 8.54075 30.8015 8.42672 31.1825C8.42672 31.1825 8.42668 31.1825 8.39818 31.2778C7.94206 32.802 7.70394 34.2913 8.09117 35.7715C9.23996 38.6948 11.2652 41.6369 13.8496 44.4443Z" fill="#444235"/>
<path d="M27.1951 52.9474C29.8321 55.2265 33.07 57.5875 36.4238 56.6954C38.744 56.1094 40.497 54.1469 42.0008 52.316C43.4129 50.6132 44.825 48.9104 46.2042 47.1452C47.7997 45.1861 49.4575 43.194 50.1592 40.749C50.6846 38.8758 50.6713 36.8878 50.5957 34.9327C50.1348 28.4729 48.3509 22.0728 45.4782 16.3271C43.8936 13.1734 41.8692 10.0922 39.1076 7.87886C36.346 5.66549 32.6896 4.32329 29.1417 4.99859C24.8718 5.81553 21.6078 9.29359 19.2305 12.9421C15.7857 18.1913 7.03641 25.9206 8.47928 32.5804C10.1634 40.1503 21.76 48.2347 27.1951 52.9474Z" fill="#C4C1A9"/>
<path d="M29.2037 4.96558C24.9338 5.78252 21.6699 9.26056 19.2926 12.909C15.8478 18.1583 7.09847 25.8876 8.54135 32.5474C10.1631 40.1502 21.8221 48.2016 27.2572 52.9143C29.8941 55.1935 33.132 57.5545 36.4858 56.6624C38.1169 56.2805 39.4479 55.1791 40.6178 53.9233C38.9209 54.1804 37.0558 53.9677 35.6197 53.2093C33.4181 52.057 32.7674 49.7671 30.3787 48.7135C28.2136 47.7813 26.8247 47.7162 25.2027 45.6995C23.2219 43.1539 22.6077 41.084 20.1283 38.8015C17.4219 36.2398 17.9944 35.0599 17.6928 31.4686C17.3475 27.3416 15.1103 24.6121 18.085 20.8878C19.0644 19.573 20.4978 18.8165 21.7665 17.748C22.9435 16.8077 23.6701 15.4667 24.8141 14.4639C26.3286 13.1061 27.0907 13.3423 28.9452 13.0819C30.862 12.7885 31.9402 11.661 33.7547 11.0226C35.7267 10.3809 38.0353 10.6788 39.9993 11.0788C41.0765 11.3083 42.0621 11.666 43.0182 12.119C41.9419 10.5324 40.6493 9.13976 39.1403 7.94113C36.3457 5.66534 32.6893 4.32317 29.2037 4.96558Z" fill="#B8B59B"/>
<path opacity="0.5" d="M29.2037 4.96546C27.6644 5.21921 26.2604 5.88034 24.9881 6.79114C26.2888 7.14211 27.4978 7.6213 28.6445 8.13335C31.48 9.42993 34.4509 11.1339 36.6774 13.3902C39.9696 16.76 40.3914 21.4849 42.7487 25.348C44.5167 28.2453 46.3693 30.699 44.4212 33.8018C44.179 34.2488 43.2923 34.0784 43.0795 34.4301C42.1954 35.7744 43.0259 37.6503 43.1532 39.0993C43.2653 41.2745 43.2456 43.2 42.2181 45.1786C41.066 47.223 38.947 48.3412 37.2162 49.893C35.61 51.379 34.3591 53.2361 32.46 54.3181C31.6498 54.7456 30.8984 54.9826 30.0811 55.0947C32.0664 56.441 34.261 57.2778 36.5188 56.7247C38.8389 56.1387 40.592 54.1762 42.0958 52.3452C43.5079 50.6425 44.92 48.9397 46.2991 47.1745C47.8946 45.2154 49.5525 43.2233 50.2541 40.7783C50.7795 38.9051 50.7662 36.9171 50.6907 34.962C50.2298 28.5022 48.4459 22.1021 45.5732 16.3564C43.9886 13.2027 41.9642 10.1215 39.2026 7.90812C36.3457 5.66522 32.6893 4.32305 29.2037 4.96546Z" fill="#D8D4C0"/>
<path d="M29.2039 4.96532C27.5399 5.28485 26.0735 5.97887 24.6766 6.95545C26.5747 7.23056 28.2235 7.6372 28.7951 7.81437C33.7486 9.34981 40.5077 12.6457 42.2666 17.9417C42.8773 19.8538 43.2057 21.835 43.9081 23.6189C45.2763 26.9666 48.151 29.9981 47.4742 33.5472C47.3085 34.5922 46.6701 35.6473 45.6694 36.0157C45.1405 37.7312 44.9633 39.6602 45.1929 41.4542C45.2365 41.9897 45.3424 42.4924 45.2284 43.0314C44.7841 44.3032 42.7711 45.9241 41.9128 47.0154C40.6253 48.6524 39.272 50.1646 37.6952 51.5553C35.3447 53.5936 32.8848 54.9716 30.4658 55.3704C32.3194 56.467 34.2575 57.1199 36.3284 56.6655C38.6485 56.0795 40.4016 54.117 41.9054 52.286C43.3175 50.5833 44.7296 48.8805 46.1088 47.1153C47.7043 45.1561 49.3621 43.1641 50.0637 40.7191C50.5891 38.8459 50.5758 36.8579 50.5003 34.9028C50.0394 28.443 48.2555 22.0429 45.3828 16.2972C43.7982 13.1435 41.7738 10.0623 39.0122 7.84897C36.3458 5.66512 32.6894 4.32291 29.2039 4.96532Z" fill="#A3A086"/>
<path d="M41.1359 9.76065C40.5207 9.0479 39.8138 8.46333 39.107 7.87878C36.3454 5.6654 32.6889 4.32321 29.1411 4.99851C27.4771 5.31803 26.0107 6.01206 24.6138 6.98864C26.5119 7.26375 28.1607 7.67041 28.7323 7.84758C33.6858 9.38302 40.4449 12.6789 42.2038 17.9749C42.8145 19.887 43.1429 21.8682 43.8453 23.6521C45.2135 26.9998 48.0882 30.0313 47.4114 33.5804C47.2458 34.6254 46.6073 35.6805 45.6066 36.049C45.0777 37.7645 44.9005 39.6934 45.1301 41.4874C45.1737 42.0229 45.2796 42.5256 45.1657 43.0646C44.7213 44.3364 42.7083 45.9573 41.85 47.0487C40.5625 48.6857 39.2092 50.1978 37.6324 51.5885C35.2819 53.6269 32.822 55.0048 30.403 55.4036C32.2566 56.5002 34.1947 57.1531 36.2656 56.6987C37.5521 56.4188 38.608 55.702 39.5651 54.7979C39.4663 54.6107 39.3675 54.4234 39.2357 54.1737C38.4239 51.7294 41.4528 49.0138 42.9237 47.1204C44.6109 45.0331 46.6533 43.3169 49.0723 42.9181C49.4356 42.2476 49.7659 41.5147 50.001 40.7523C50.5263 38.8791 50.5131 36.8911 50.4375 34.936C50.3939 34.4005 50.3503 33.8649 50.2443 33.3622C47.9048 30.2877 46.5152 25.9937 44.6894 21.9299C43.1787 17.8594 41.0413 13.9601 41.1359 9.76065Z" fill="#969074"/>
<path d="M50.5342 39.1942C48.783 38.4426 47.1529 37.4675 45.765 36.0453C45.2361 37.7608 45.0259 39.6273 45.2884 41.4837C45.332 42.0193 45.438 42.522 45.324 43.0609C45.2946 43.1562 45.2946 43.1562 45.2652 43.2515C46.6693 42.5904 48.66 41.3802 49.9572 41.5735C50.0454 41.2875 50.1664 41.0641 50.2546 40.7781C50.3721 40.3969 50.4273 40.0486 50.4826 39.7003C50.479 39.5425 50.5378 39.3519 50.5342 39.1942Z" fill="#7C745C"/>
<path opacity="0.6" d="M24.685 46.5312C20.8551 41.6896 13.6323 36.0052 13.703 29.3446C13.8146 21.7048 21.6549 14.2158 27.5578 10.3028C30.5716 8.31339 33.8194 6.9186 37.1216 6.53258C34.7258 5.1635 31.9045 4.4978 29.141 4.99857C24.8711 5.81551 21.6071 9.29357 19.2298 12.9421C15.785 18.1913 7.03566 25.9206 8.47853 32.5804C10.1003 40.1832 21.7593 48.2347 27.1944 52.9474C29.8314 55.2265 33.0693 57.5875 36.4231 56.6955C37.8966 56.3169 39.1065 55.439 40.1847 54.3114C33.8475 55.7405 29.2911 52.2399 24.685 46.5312Z" fill="#EAE6D6"/>
<path d="M31.2846 16.1563C30.3239 16.9027 29.5386 18.4343 28.4827 19.1511C27.676 19.7364 26.573 19.7599 25.5393 20.066C23.3474 20.7439 21.686 22.5782 20.8196 24.7112C18.5732 29.9664 18.654 34.9511 23.6208 38.4745C24.9028 39.3939 26.6905 40.3657 27.8549 41.6664C28.9535 42.8422 29.403 44.6 30.9637 45.2925C32.3338 45.9261 33.8615 46.5562 35.2691 46.0528C36.8966 45.5131 37.7407 43.7909 38.4307 42.2298C39.899 38.8216 41.3824 34.6873 39.3874 31.5107C38.4063 29.9537 36.6151 28.8242 36.008 27.0698C35.635 25.9101 35.7971 24.7074 35.8346 23.5704C35.9495 21.6744 36.003 18.4542 34.4869 16.9401C33.0367 15.5509 32.0912 15.5711 31.2846 16.1563Z" fill="#CCC9B4"/>
<path opacity="0.7" d="M29.8039 52.6075C30.793 53.1229 31.8445 53.6054 33.0428 53.6114C32.6653 53.651 31.2409 52.0087 30.8563 51.7329C30.0542 51.1188 29.252 50.5047 28.4793 49.7954C26.8092 48.4424 25.4506 46.9249 23.9968 45.378C21.3163 42.5632 18.7675 39.9982 16.6149 36.825C15.1469 34.6472 13.6023 31.8713 13.9817 29.1175C14.5561 25.2235 16.5488 21.2992 19.1637 18.403C20.7628 16.6016 22.4607 14.9874 24.2538 13.4027C25.1192 12.6269 26.0175 11.9134 26.8829 11.1375C27.5943 10.5227 28.4045 10.0952 29.2112 9.5099C29.1417 9.22734 28.7972 9.32937 28.5773 9.36562C25.7292 10.31 22.7483 12.3618 20.6836 14.4888C19.6936 15.3305 15.2045 20.4126 14.1734 22.2335C13.0177 24.1201 12.1372 25.6222 11.6812 27.778C11.4203 28.7934 11.2547 29.8385 11.2466 30.8801C11.2964 33.0882 12.4127 35.0526 13.5585 36.9218C15.4876 39.9734 18.0329 42.3808 20.644 44.913C23.4198 47.7572 26.2321 50.8216 29.8039 52.6075Z" fill="#F2EEDF"/>
<path d="M20.4397 44.2229C21.0843 44.8403 21.7582 45.3625 22.3404 46.0128C22.8897 46.6007 23.6001 47.343 24.3952 47.6416C24.4904 47.6711 24.648 47.6678 24.6774 47.5725C24.8608 47.3161 23.9563 46.357 23.7622 46.1402C23.3412 45.6443 22.8577 45.1812 22.3743 44.7181C20.2395 42.3336 17.6426 40.4323 15.7535 37.7585C14.2525 35.5182 13.1843 32.89 13.2815 30.2054C13.3457 27.4583 14.4542 24.8784 15.7569 22.5152C16.2118 21.7165 16.7621 20.9473 17.1548 20.1815C17.2465 20.0534 17.21 19.8332 17.1147 19.8037C17.0524 19.8366 17.0524 19.8366 16.9901 19.8695C16.0917 20.5829 15.4792 21.385 14.742 22.2528C14.0377 23.1831 13.3664 24.1757 12.8855 25.2274C11.5277 27.939 11.3717 30.8142 12.2566 33.6988C12.7355 35.3612 13.6542 36.9511 14.7563 38.2847C15.2104 38.8431 15.6644 39.4015 16.1478 39.8646C17.631 41.3162 19.0518 42.8008 20.4397 44.2229Z" fill="#F7F3E8"/>
<path d="M20.2903 16.6118C21.0934 15.8688 21.8965 15.1258 22.6372 14.4157C23.378 13.7056 24.1517 13.0579 24.669 12.2263C23.6977 12.4995 22.9569 13.2096 22.2455 13.8244C21.5342 14.4392 20.8557 15.1164 20.2067 15.6983C19.9903 15.8923 19.4624 16.2507 19.4695 16.5662C19.546 17.1642 20.074 16.8057 20.2903 16.6118Z" fill="#F7F3E8"/>
<path d="M28.1786 25.2167C28.1456 25.1543 28.175 25.059 28.1421 24.9966C28.0326 24.3362 27.6409 23.7449 26.9741 23.5382C26.4978 23.3906 25.9333 23.5289 25.457 23.3812C24.4421 23.1188 24.0362 21.8967 23.0542 21.6967C22.4532 21.6149 21.8923 21.9108 21.5549 22.3283C21.2174 22.7458 21.0411 23.3176 20.9601 23.9189C20.8274 25.0263 20.9146 26.0975 21.317 27.162C21.6205 28.0392 22.038 28.3774 21.7771 29.3929C21.575 30.2177 21.0541 30.8915 20.6615 31.6573C20.2688 32.4231 20.1326 33.3728 20.5572 34.0265C20.9489 34.6178 21.6487 34.8869 22.4401 35.0278C22.7882 35.0835 23.1987 35.1063 23.6055 34.9714C24.2323 34.8002 24.6614 34.2546 24.8378 33.6828C25.5278 32.1216 25.7193 30.8236 27.0468 29.5645C28.0956 28.5322 28.4011 26.6952 28.1786 25.2167Z" fill="#B8B59B"/>
<path d="M37.3255 40.7384C38.5336 42.5747 38.1293 44.2244 37.8897 46.1862C37.7018 47.6419 37.975 49.9715 35.7689 50.0185C33.8449 49.9964 32.4954 46.0803 31.5803 44.6481C30.8921 43.4951 30.9367 42.6736 31.4762 41.4313C32.6765 38.7231 35.594 38.0613 37.3255 40.7384Z" fill="#B8B59B"/>
<path opacity="0.65" d="M30.2898 18.1974C30.3263 18.4176 30.3957 18.7001 30.3699 18.9531C30.4171 19.6464 30.3067 20.3431 29.8775 20.8888C29.4484 21.4344 28.7628 21.7962 28.096 21.5895C27.1763 21.3567 26.5282 20.5815 26.1624 19.7372C25.8624 19.0177 25.8116 18.1667 25.9515 17.3747C26.0725 17.1512 26.0654 16.8358 26.1242 16.6452C26.2453 16.4217 26.3993 16.2606 26.5204 16.0371C26.5828 16.0042 26.6121 15.9089 26.6744 15.876C26.7368 15.8431 26.7991 15.8102 26.8614 15.7774C27.0484 15.6787 27.2977 15.5472 27.5176 15.5109C28.115 15.435 28.723 15.8324 29.1735 16.233C29.7851 16.7881 30.1474 17.4746 30.2898 18.1974Z" fill="#F7F3ED"/>
<path d="M29.6229 17.9907C29.9736 19.5612 29.3752 20.9941 28.3086 21.2378C27.3043 21.4486 26.1764 20.3681 25.8257 18.7976C25.475 17.2271 26.0733 15.7942 27.1399 15.5505C28.1442 15.3397 29.2722 16.4203 29.6229 17.9907Z" fill="#A49E85"/>
<path opacity="0.55" d="M27.2087 17.19C27.6013 16.4242 28.1623 16.1282 28.7338 16.3054C28.2798 15.747 27.6424 15.445 27.0779 15.5833C26.0736 15.7941 25.4753 17.227 25.7637 18.8304C25.939 19.6156 26.3013 20.3022 26.7847 20.7653C26.6824 20.4203 26.6656 18.2746 27.2087 17.19Z" fill="#595347"/>
<path opacity="0.65" d="M41.0745 35.0093C40.9712 36.0214 40.7726 37.004 40.3506 37.8651C40.0497 38.5028 39.6241 39.2061 39.0008 39.535C38.8139 39.6337 38.5316 39.7028 38.3117 39.7391C37.9013 39.7163 37.5826 39.5653 37.3556 39.2861C36.1947 38.1431 36.0568 36.2209 36.1788 34.6403C36.2857 33.786 36.4878 32.9612 36.7852 32.1658C37.0203 31.4034 37.2847 30.5456 37.7139 29.9999C38.7592 28.8099 40.107 29.8542 40.5752 31.0435C41.0141 32.3281 41.266 33.7113 41.0745 35.0093Z" fill="#F7F3ED"/>
<path d="M40.492 34.3592C40.3031 37.172 39.1545 39.3741 37.9232 39.3057C36.7543 39.2044 35.913 36.8554 36.1019 34.0426C36.2908 31.2297 37.4394 29.0276 38.6084 29.1289C39.8396 29.1973 40.6808 31.5464 40.492 34.3592Z" fill="#A49E85"/>
<path opacity="0.55" d="M38.1957 31.8204C38.9258 30.6371 39.6149 30.433 40.1642 31.0209C39.8865 29.8907 39.3336 29.1451 38.6374 29.0337C37.4685 28.9324 36.3199 31.1345 36.131 33.9473C36.0054 35.3702 36.2244 36.6909 36.5609 37.6306C36.4879 37.1903 37.1611 33.4835 38.1957 31.8204Z" fill="#595347"/>
<path d="M29.4382 41.9481C29.6794 42.8582 29.3526 43.7488 28.7258 43.92C28.099 44.0912 27.4216 43.4113 27.1803 42.5012C26.9391 41.5912 27.2659 40.7005 27.8927 40.5294C28.5524 40.4206 29.197 41.038 29.4382 41.9481Z" fill="#A49E85"/>
</svg>
