<svg width="223" height="227" viewBox="0 0 223 227" fill="none" xmlns="http://www.w3.org/2000/svg">
<path d="M80.1352 201.566C82.6134 199.115 89.0703 181.561 88.443 178.148C88.0401 175.789 96.9063 174.301 95.1985 172.659C93.6112 171.118 79.9621 178.943 78.31 177.43C76.4815 175.686 72.1509 178.609 69.7681 177.719C67.9417 177.049 65.9588 176.907 64.0038 176.829C57.5277 176.784 51.0078 178.063 45.0552 180.478C41.7874 181.811 38.5574 183.589 36.1351 186.169C33.7127 188.749 32.089 192.289 32.485 195.879C32.9659 200.2 36.1783 203.726 39.6299 206.381C44.594 210.225 51.6161 219.551 58.3683 218.633C66.0467 217.546 75.0123 206.616 80.1352 201.566Z" fill="#B8B59B"/>
<path d="M32.4565 195.815C32.9374 200.136 36.1498 203.662 39.6014 206.317C44.5655 210.161 51.5876 219.488 58.3398 218.569C66.0461 217.547 74.9838 206.552 80.1066 201.502C82.5848 199.051 84.374 190.642 83.7467 187.229C83.4933 185.573 83.3169 189.525 82.1563 188.261C82.2801 189.973 81.9223 191.816 81.0541 193.188C79.7333 195.293 77.3995 195.763 76.1625 198.062C75.064 200.147 74.8907 201.527 72.7534 202.987C70.0608 204.762 67.9493 205.213 65.48 207.507C62.7147 210.005 61.5832 209.342 57.9792 209.362C53.8379 209.384 50.942 211.401 47.4614 208.144C46.2271 207.065 45.585 205.577 44.6189 204.229C43.7734 202.982 42.4932 202.153 41.5829 200.934C40.3476 199.318 40.6426 198.576 40.5278 196.707C40.3851 194.773 39.3452 193.61 38.8506 191.752C38.3649 189.735 38.8423 187.457 39.3944 185.53C39.7074 184.474 40.141 183.52 40.6673 182.602C39.0015 183.551 37.5121 184.731 36.1993 186.142C33.7121 188.75 32.0884 192.29 32.4565 195.815Z" fill="#B8B59B"/>
<path opacity="0.6" d="M73.5423 203.568C68.4163 207.007 62.1849 213.764 55.5502 213.173C47.9425 212.465 41.089 204.064 37.649 197.873C35.9012 194.713 34.7644 191.366 34.6375 188.044C33.0854 190.326 24.8146 184.285 25.0979 187.079C25.5788 191.4 36.178 203.727 39.6296 206.382C44.5937 210.226 51.6158 219.553 58.368 218.635C66.0743 217.612 75.012 206.617 80.1349 201.567C82.6131 199.116 84.4498 190.642 83.8224 187.229C83.5601 185.73 83.5495 189.886 82.5096 188.723C83.4392 195.153 79.5934 199.421 73.5423 203.568Z" fill="#99957F"/>
<path d="M43.776 194.615C44.445 195.631 45.9105 196.534 46.5427 197.643C47.0631 198.492 47.0004 199.594 47.2248 200.648C47.7294 202.887 49.4284 204.686 51.4871 205.717C56.5508 208.367 61.5265 208.676 65.4272 203.999C66.444 202.793 67.5525 201.087 68.9401 200.027C70.1982 199.024 71.9857 198.713 72.798 197.211C73.5367 195.895 74.2843 194.421 73.8924 192.979C73.4815 191.314 71.8305 190.338 70.328 189.528C67.045 187.798 63.0391 185.996 59.7165 187.737C58.0875 188.593 56.8216 190.291 55.0251 190.759C53.8398 191.04 52.6534 190.785 51.5229 190.658C49.6416 190.396 46.4354 190.091 44.8075 191.484C43.3092 192.821 43.2555 193.765 43.776 194.615Z" fill="#CCC9B4"/>
<path opacity="0.7" d="M80 198.939C80.5911 197.993 81.1543 196.983 81.2539 195.788C81.2639 196.168 79.5154 197.46 79.2104 197.821C78.5355 198.573 77.8606 199.325 77.093 200.04C75.6137 201.599 73.9948 202.835 72.3389 204.163C69.3234 206.616 66.5671 208.956 63.2354 210.855C60.9495 212.148 58.0615 213.471 55.3458 212.878C51.5085 212.001 47.7519 209.708 45.0689 206.874C43.3979 205.139 41.9213 203.321 40.4815 201.409C39.7756 200.486 39.1345 199.534 38.4286 198.611C37.8713 197.854 37.5083 197.013 36.9879 196.163C36.7008 196.21 36.7756 196.561 36.7945 196.784C37.5135 199.697 39.3262 202.829 41.2854 205.053C42.0471 206.106 46.763 210.979 48.4978 212.149C50.2884 213.448 51.717 214.443 53.8306 215.066C54.8226 215.406 55.8515 215.653 56.8893 215.742C59.0945 215.865 61.1402 214.905 63.0931 213.909C66.2862 212.224 68.885 209.875 71.6134 207.47C74.6659 204.925 77.9406 202.36 80 198.939Z" fill="#F2EEDF"/>
<path d="M70.9094 207.62C71.5753 207.025 72.1485 206.394 72.8423 205.864C73.4713 205.363 74.2668 204.713 74.6266 203.943C74.6635 203.851 74.6725 203.693 74.5798 203.656C74.3385 203.454 73.3117 204.28 73.0804 204.457C72.5531 204.838 72.0536 205.284 71.5542 205.73C69.0102 207.672 66.9118 210.112 64.0986 211.786C61.7479 213.108 59.0443 213.967 56.3755 213.661C53.6418 213.382 51.1564 212.075 48.9022 210.592C48.1415 210.076 47.4176 209.468 46.6849 209.016C46.5642 208.915 46.3419 208.934 46.305 209.027C46.333 209.091 46.3329 209.091 46.3609 209.156C47.002 210.107 47.7537 210.781 48.5613 211.583C49.4337 212.358 50.3709 213.105 51.3818 213.667C53.979 215.232 56.8332 215.612 59.7781 214.955C61.4729 214.608 63.1297 213.816 64.5453 212.822C65.1374 212.413 65.7296 212.004 66.2291 211.558C67.7921 210.193 69.3832 208.892 70.9094 207.62Z" fill="#F7F3E8"/>
<path d="M43.3711 205.612C42.6931 204.753 42.0151 203.894 41.3651 203.1C40.715 202.306 40.1297 201.484 39.3411 200.904C39.5376 201.893 40.1876 202.687 40.745 203.445C41.3023 204.202 41.9245 204.931 42.4539 205.624C42.6304 205.854 42.9465 206.409 43.2615 206.426C43.8637 206.397 43.5476 205.842 43.3711 205.612Z" fill="#F7F3E8"/>
<path d="M52.566 198.42C52.5012 198.448 52.4085 198.411 52.3437 198.439C51.6768 198.496 51.0567 198.841 50.7985 199.489C50.6141 199.953 50.7079 200.526 50.5235 200.989C50.1827 201.981 48.9325 202.29 48.6565 203.253C48.5279 203.846 48.7792 204.428 49.169 204.797C49.5588 205.166 50.1151 205.387 50.7083 205.515C51.8019 205.733 52.8767 205.73 53.9693 205.412C54.8675 205.178 55.2373 204.788 56.2293 205.128C57.0358 205.394 57.6669 205.966 58.3997 206.417C59.1325 206.868 60.0686 207.078 60.7535 206.706C61.3736 206.362 61.6965 205.685 61.8988 204.907C61.9815 204.564 62.0364 204.157 61.9336 203.741C61.812 203.103 61.3015 202.632 60.7452 202.412C59.2428 201.602 57.9637 201.309 56.8121 199.888C55.8649 198.761 54.0574 198.313 52.566 198.42Z" fill="#B8B59B"/>
<path d="M68.7547 190.513C70.6797 189.453 72.2928 189.984 74.2299 190.377C75.6665 190.678 78.0103 190.587 77.8848 192.79C77.7125 194.707 73.7029 195.746 72.2036 196.547C71.0003 197.143 70.1848 197.034 68.9885 196.399C66.3824 194.991 65.9505 192.03 68.7547 190.513Z" fill="#B8B59B"/>
<path opacity="0.65" d="M45.7332 195.766C45.9555 195.747 46.2426 195.7 46.4929 195.746C47.1877 195.753 47.8737 195.917 48.3841 196.388C48.8946 196.858 49.2017 197.57 48.9436 198.219C48.6396 199.117 47.8161 199.703 46.9458 200.002C46.2051 200.244 45.3527 200.228 44.5741 200.027C44.3608 199.889 44.0457 199.871 43.8603 199.798C43.6469 199.66 43.4984 199.494 43.285 199.355C43.2571 199.291 43.1644 199.254 43.1364 199.189C43.1085 199.125 43.0806 199.06 43.0527 198.995C42.9689 198.801 42.8573 198.542 42.8383 198.32C42.8094 197.719 43.253 197.144 43.6876 196.726C44.2887 196.159 45.0015 195.852 45.7332 195.766Z" fill="#F7F3ED"/>
<path d="M45.475 196.415C47.0681 196.188 48.4499 196.897 48.6095 197.979C48.7412 198.997 47.5759 200.037 45.9828 200.264C44.3897 200.491 43.0079 199.782 42.8483 198.7C42.7166 197.682 43.882 196.642 45.475 196.415Z" fill="#A49E85"/>
<path opacity="0.55" d="M44.4882 198.759C43.7554 198.308 43.5041 197.726 43.7254 197.17C43.1333 197.579 42.7824 198.191 42.8761 198.764C43.0078 199.782 44.3896 200.49 46.0106 200.328C46.8072 200.215 47.5199 199.907 48.0194 199.461C47.6675 199.537 45.527 199.386 44.4882 198.759Z" fill="#595347"/>
<path opacity="0.65" d="M63.3359 186.328C64.3369 186.51 65.3009 186.785 66.1264 187.273C66.7386 187.623 67.4065 188.102 67.6857 188.749C67.7695 188.943 67.8164 189.23 67.8354 189.452C67.7806 189.859 67.6051 190.165 67.309 190.37C66.0789 191.438 64.1518 191.425 62.5856 191.18C61.7422 191.007 60.9357 190.741 60.166 190.382C59.4243 190.088 58.5898 189.757 58.0793 189.287C56.9746 188.152 58.121 186.89 59.3432 186.516C60.6581 186.179 62.0568 186.036 63.3359 186.328Z" fill="#F7F3ED"/>
<path d="M62.6423 186.858C65.4318 187.266 67.5374 188.583 67.373 189.805C67.1807 190.963 64.7731 191.618 61.9837 191.21C59.1942 190.802 57.0886 189.485 57.2809 188.327C57.4453 187.105 59.8528 186.45 62.6423 186.858Z" fill="#A49E85"/>
<path opacity="0.55" d="M59.9321 188.949C58.8095 188.128 58.6599 187.426 59.2889 186.924C58.1404 187.112 57.3539 187.605 57.1884 188.291C56.9961 189.448 59.1018 190.765 61.8912 191.173C63.2999 191.41 64.6338 191.295 65.5968 191.033C65.1522 191.071 61.5093 190.11 59.9321 188.949Z" fill="#595347"/>
<path d="M69.3446 198.471C70.2707 198.302 71.1331 198.697 71.2548 199.335C71.3765 199.974 70.6458 200.596 69.7197 200.765C68.7935 200.935 67.9312 200.539 67.8095 199.901C67.7526 199.235 68.4185 198.64 69.3446 198.471Z" fill="#A49E85"/>
<path opacity="0.87" d="M219.674 42.6547C219.677 42.5855 219.75 42.5199 219.754 42.4507C221.358 38.0943 222.239 33.0076 220.517 28.8284C220.273 28.1918 219.956 27.6209 219.571 27.0465C219.251 26.5448 218.927 26.1123 218.531 25.7453C216.434 23.4888 213.464 22.0892 210.476 21.0354C209.663 20.7166 208.846 20.467 208.029 20.2173C203.677 18.8166 199.041 17.5403 194.554 16.0634C192.583 15.4082 190.612 14.753 188.782 14.0356C188.103 13.793 187.359 13.4777 186.68 13.2351C186.408 13.1519 186.139 12.9995 185.936 12.9198C185.867 12.9162 185.802 12.8436 185.733 12.8401C185.529 12.7604 185.326 12.6806 185.126 12.5318C184.923 12.4521 184.788 12.3759 184.585 12.2962C184.516 12.2927 184.516 12.2927 184.451 12.22C184.182 12.0676 183.979 11.9879 183.71 11.8355C183.441 11.6831 183.104 11.5272 182.835 11.3748C182.701 11.2986 182.632 11.2951 182.497 11.2189C182.229 11.0665 182.025 10.9868 181.756 10.8345C181.622 10.7583 181.553 10.7547 181.419 10.6786C181.147 10.5953 180.947 10.4465 180.674 10.3633C180.606 10.3597 180.471 10.2835 180.402 10.28C180.199 10.2003 180.065 10.1241 179.861 10.0444C179.792 10.0409 179.796 9.97175 179.727 9.96824C179.593 9.89204 179.389 9.81233 179.251 9.8053C179.117 9.72911 178.914 9.64941 178.776 9.64238C178.707 9.63887 178.572 9.56268 178.503 9.55917C178.435 9.55566 178.435 9.55566 178.366 9.55214C178.231 9.47595 178.093 9.46892 177.89 9.38921C177.821 9.3857 177.687 9.30951 177.618 9.306C177.549 9.30248 177.48 9.29897 177.414 9.22629L177.346 9.22278C177.277 9.21926 177.142 9.14308 177.073 9.13956C177.004 9.13605 176.935 9.13253 176.87 9.05985C176.732 9.05283 176.529 8.97312 176.322 8.96258C176.322 8.96258 176.322 8.96258 176.253 8.95907C176.184 8.95555 176.184 8.95555 176.115 8.95204C176.046 8.94853 175.977 8.94501 175.908 8.9415C175.632 8.92745 175.429 8.84775 175.153 8.8337L175.084 8.83018C174.947 8.82316 174.74 8.81262 174.602 8.80559C174.533 8.80208 174.395 8.79505 174.326 8.79154C174.257 8.78803 174.188 8.78451 174.188 8.78451C173.981 8.77398 173.771 8.8326 173.495 8.81854C173.426 8.81503 173.426 8.81503 173.357 8.81152C173.288 8.808 173.219 8.80449 173.219 8.80449C172.94 8.85961 172.664 8.84556 172.316 8.89716C172.037 8.95228 171.757 9.00739 171.406 9.12816C171.337 9.12464 171.268 9.12113 171.264 9.1903C170.985 9.24542 170.633 9.36618 170.35 9.49047C170.281 9.48695 170.209 9.5526 170.14 9.54909C169.788 9.66985 169.505 9.79414 169.154 9.91491C168.66 10.0978 168.233 10.3534 167.736 10.6055C164.97 11.9901 162.454 13.873 159.874 15.6832C158.58 16.6575 157.22 17.5591 155.865 18.3915C153.795 19.6729 151.553 20.2522 149.253 20.6204C148.626 20.7271 147.929 20.8303 147.305 20.8679C146.609 20.9711 145.985 21.0086 145.288 21.1118C144.94 21.1634 144.592 21.215 144.316 21.201C142.996 21.3417 141.603 21.5481 140.275 21.8272C136.22 22.7301 132.274 24.1934 128.587 26.0166C126.317 27.1491 124.182 28.3579 122.105 29.7777C121.891 29.9055 121.677 30.0333 121.532 30.1646C121.029 30.555 120.459 30.8727 120.025 31.2667C119.88 31.398 119.669 31.4566 119.524 31.5879C116.157 33.9128 113.725 35.5225 110.594 35.9178C108.715 36.1687 106.581 35.9907 103.783 35.2933C97.71 33.7356 92.0785 38.4416 87.2407 42.4946C86.4436 43.2168 85.5775 43.9354 84.7149 44.5849C79.5907 48.8313 74.1218 53.0602 68.354 56.3723C67.426 56.9491 66.4326 57.4533 65.4391 57.9574C60.1892 60.6025 55.4234 61.8852 51.0275 65.4059C50.6686 65.665 50.3788 65.9276 50.0164 66.2559C49.8715 66.3872 49.799 66.4529 49.6541 66.5842C49.5091 66.7155 49.4367 66.7811 49.2917 66.9124C49.0019 67.1751 48.7809 67.4412 48.491 67.7038C48.1906 68.1739 47.8901 68.644 47.5897 69.1142C47.5137 69.249 47.4377 69.3838 47.3652 69.4495C47.1373 69.8539 46.9058 70.3275 46.6778 70.732C46.6742 70.8012 46.6053 70.7977 46.6018 70.8668C46.3703 71.3404 46.1388 71.8141 45.9073 72.2877C45.8313 72.4225 45.7553 72.5573 45.6757 72.7613C45.5167 73.1693 45.3612 73.5081 45.2022 73.9161C45.1262 74.0509 45.0502 74.1857 45.0396 74.3932C44.8841 74.732 44.7975 75.0743 44.642 75.4131C44.6385 75.4823 44.566 75.548 44.5625 75.6171C44.4795 75.8903 44.3999 76.0943 44.3169 76.3674C44.2374 76.5714 44.1579 76.7754 44.1508 76.9137C43.6667 78.276 43.2515 79.6418 42.7638 81.0732C42.2655 82.7121 41.6983 84.3475 41.0657 85.9102C40.9031 86.3874 40.7406 86.8645 40.7159 87.3487C40.2956 90.1704 41.7032 92.3919 40.6694 95.0437C40.5899 95.2477 40.5104 95.4517 40.3619 95.6522C40.2824 95.8562 40.1375 95.9875 40.058 96.1915C39.685 96.7272 39.2502 97.1211 38.674 97.5772C38.6051 97.5737 38.6015 97.6429 38.5326 97.6393C38.2462 97.8328 37.9564 98.0954 37.6011 98.2853C37.5286 98.351 37.4561 98.4167 37.3147 98.4788C36.9594 98.6687 36.6731 98.8622 36.3142 99.1213C36.1728 99.1834 36.1003 99.2491 35.9589 99.3112C35.6726 99.5047 35.3898 99.6289 35.1034 99.8224C34.8171 100.016 34.5342 100.14 34.2479 100.334C33.3923 100.845 32.6747 101.363 32.0189 102.023C31.874 102.154 31.7255 102.355 31.5806 102.486C31.1387 103.018 30.7658 103.554 30.324 104.086C28.3215 106.758 26.4428 109.714 24.7744 112.611C24.0905 113.824 23.479 114.972 22.933 116.192C19.1529 123.905 14.0292 130.856 9.77706 138.337C7.80476 141.773 6.1047 145.292 4.74233 148.967C4.49673 149.718 4.25113 150.468 4.00552 151.218C3.76345 151.899 3.58679 152.653 3.4826 153.341C3.38898 153.822 3.36432 154.306 3.33965 154.79C3.37335 155.486 3.47599 156.184 3.789 156.824C4.6007 158.53 6.41992 159.455 7.95279 160.573C8.28694 160.798 8.55215 161.02 8.8863 161.245C9.15151 161.466 9.41671 161.688 9.6784 161.979C10.7357 162.934 11.6481 164.021 12.4915 165.104C12.7496 165.464 13.0078 165.824 13.266 166.183C13.7823 166.903 14.2296 167.62 14.6735 168.405C16.4524 171.477 17.945 174.743 19.5825 177.878C20.212 179.089 20.9794 180.307 21.8123 181.598C22.2632 182.245 22.7176 182.823 23.172 183.401C24.0189 184.415 24.8659 185.429 25.8578 186.311C25.8578 186.311 25.8578 186.311 25.9267 186.315L25.9921 186.388C26.1919 186.536 26.3882 186.754 26.588 186.903C26.6569 186.907 26.6534 186.976 26.7223 186.98C27.1219 187.277 27.4525 187.571 27.8521 187.869C27.9175 187.942 27.9829 188.015 28.0519 188.018C28.1863 188.094 28.3206 188.171 28.455 188.247C28.5893 188.323 28.7891 188.472 28.9235 188.548C28.9925 188.551 28.9889 188.621 29.0579 188.624C29.1233 188.697 29.1922 188.7 29.2577 188.773C29.392 188.849 29.5264 188.925 29.6608 189.002C29.6608 189.002 29.7297 189.005 29.7262 189.074C29.7262 189.074 29.7262 189.074 29.7951 189.078C29.9295 189.154 29.9949 189.227 30.1328 189.234C30.3361 189.313 30.4705 189.39 30.6738 189.469C30.7427 189.473 30.8081 189.545 30.8771 189.549C30.946 189.553 31.0115 189.625 31.0804 189.629C31.4216 189.715 31.6903 189.868 32.0315 189.955C32.3038 190.038 32.576 190.121 32.7829 190.132C32.8518 190.135 32.9208 190.139 32.9897 190.142C33.0587 190.146 33.1276 190.149 33.1965 190.153L33.2655 190.156C33.4034 190.163 33.4723 190.167 33.6102 190.174C33.6792 190.177 33.7481 190.181 33.8171 190.184C34.0239 190.195 34.1618 190.202 34.3686 190.212L34.4376 190.216L34.5065 190.219C34.5754 190.223 34.5754 190.223 34.6444 190.226C34.8512 190.237 34.9891 190.244 35.1959 190.254C35.2649 190.258 35.3338 190.262 35.4028 190.265C35.4717 190.269 35.4717 190.269 35.5407 190.272C35.6786 190.279 35.82 190.217 35.9579 190.224C36.0268 190.227 36.0958 190.231 36.1647 190.234C36.3026 190.242 36.3751 190.176 36.513 190.183C36.5819 190.186 36.5819 190.186 36.6508 190.19C36.7198 190.193 36.7198 190.193 36.7887 190.197C36.8577 190.2 36.9301 190.135 36.9991 190.138C37.1405 190.076 37.2784 190.083 37.4198 190.021C37.4888 190.025 37.4888 190.025 37.5612 189.959L37.6302 189.962C37.7716 189.9 37.913 189.838 38.1198 189.849C38.1888 189.852 38.1923 189.783 38.2613 189.787C38.3302 189.79 38.4027 189.724 38.4716 189.728C38.5406 189.731 38.5441 189.662 38.613 189.666C38.682 189.669 38.7544 189.604 38.8234 189.607C38.8923 189.611 38.9648 189.545 39.0337 189.549C39.1751 189.486 39.3166 189.424 39.458 189.362L39.5269 189.366C39.5959 189.369 39.5994 189.3 39.6683 189.303C39.8787 189.245 40.0236 189.114 40.234 189.055L40.3065 188.989L40.3789 188.924C40.3789 188.924 40.4479 188.927 40.4514 188.858C40.5239 188.792 40.5928 188.796 40.6653 188.73C40.8792 188.602 41.0931 188.475 41.3069 188.347C41.3069 188.347 41.3759 188.35 41.3794 188.281C42.09 187.901 42.8041 187.452 43.5182 187.003C43.8771 186.744 44.3013 186.558 44.6601 186.299C45.0154 186.109 45.4432 185.853 45.7985 185.663C46.2952 185.411 46.723 185.155 47.2886 184.907C47.6439 184.717 47.9957 184.596 48.4199 184.41C56.8872 181.027 66.4287 185.05 75.5309 184.127C78.796 183.808 81.886 182.856 84.9211 181.623C85.4143 181.441 85.9075 181.258 86.4042 181.006C91.6295 178.845 96.669 176.258 102.19 175.083C104.145 174.698 106.162 174.454 108.113 174.137C110.065 173.82 112.024 173.365 113.797 172.485C115.784 171.477 117.033 170.015 117.88 168.324C119.269 165.482 119.586 161.962 120.645 158.826C120.966 157.941 121.219 157.052 121.541 156.167C121.862 155.282 122.184 154.397 122.574 153.515C124.32 149.097 126.338 144.761 128.356 140.426C128.747 139.544 129.134 138.732 129.524 137.85C133.488 129.245 138.131 120.883 144.23 113.774C144.966 112.91 145.77 112.049 146.502 111.254C147.378 110.328 148.327 109.336 149.339 108.486C150.791 107.104 152.306 105.864 153.959 104.63C154.68 104.043 155.467 103.528 156.253 103.014C159.403 100.886 162.615 98.8996 165.961 96.9897C167.244 96.2229 168.597 95.4597 169.949 94.6964C175.003 91.8333 180.056 88.9703 185.052 85.8962C185.693 85.5128 186.266 85.1259 186.908 84.7425C188.408 83.7788 189.909 82.8151 191.341 81.8478C192.631 80.9427 193.921 80.0376 195.215 79.0634C196.437 78.1548 197.658 77.2462 198.814 76.2649C199.753 75.4805 200.691 74.6962 201.63 73.9119C202.137 73.4523 202.644 72.9927 203.152 72.5332C204.097 71.6105 205.112 70.6913 205.989 69.7652C206.427 69.3021 206.938 68.7733 207.376 68.3103C207.814 67.8472 208.253 67.3841 208.622 66.9175C213.631 60.8622 215.645 53.8915 218.232 46.534C218.315 46.2608 218.471 45.922 218.554 45.6488C218.951 44.6289 219.345 43.6781 219.674 42.6547Z" fill="#444235"/>
<path d="M155.887 107.921C143.293 116.414 135.384 129.229 129.164 142.822C126.055 149.584 122.657 156.608 120.293 163.685C118.657 168.654 118.834 174.683 113.448 177.315C109.835 179.069 105.685 179.134 101.773 179.973C92.5524 181.925 84.4338 188.017 75.1281 188.927C66.098 189.851 56.4907 185.832 48.0267 189.207C41.821 191.659 38.4558 196.677 31.71 194.811C26.2597 193.288 21.7855 187.524 19.2643 182.759C15.9864 176.571 13.3745 169.517 7.7062 165.491C6.17378 164.375 4.35512 163.452 3.54356 161.75C2.732 160.048 3.18211 157.995 3.75952 156.155C7.80136 143.282 16.8167 133.153 22.6772 121.203C24.991 116.476 28.0011 111.647 31.3206 107.525C33.46 104.866 38.4961 103.67 40.0258 100.772C41.7868 97.4014 39.2944 94.7831 40.7285 91.0499C43.1921 84.7395 44.3427 78.4314 48.1461 72.9505C53.19 67.5328 58.7775 66.3642 65.0184 63.222C72.8213 59.2598 80.1677 53.4058 86.742 47.7892C91.5088 43.7415 97.2032 39.1182 103.277 40.6041C111.805 42.7687 114.502 39.9996 121.662 35.1049C127.173 31.3719 133.323 28.6404 139.825 27.1723C145.209 25.9242 150.629 26.6848 155.408 23.7449C159.902 20.9981 163.82 17.3224 168.623 15.2834C175.898 12.1939 179.854 15.9248 186.013 18.4532C192.713 21.2167 200.42 23.2011 207.424 25.4265C211.775 26.8247 216.46 28.4475 218.962 32.2427C221.979 36.7563 221.05 42.7989 219.066 47.8189C215.483 57.1172 213.792 65.8892 206.847 73.3553C192.299 89.0153 172.63 96.6636 155.887 107.921Z" fill="#B8B59B"/>
<path opacity="0.7" d="M43.1994 191.729C38.6359 189.074 34.3108 185.809 31.0758 181.492C27.0046 175.956 27.5223 168.508 21.6718 163.989C19.0099 161.984 15.6237 160.635 14.1173 157.652C10.7916 151.047 17.536 147.515 22.1193 144.358C29.996 138.946 29.2865 128.46 36.5197 122.116C39.8448 119.24 44.1137 116.828 45.2967 112.597C45.7151 111.166 45.7306 109.505 46.5556 108.233C47.2286 107.229 48.3011 106.522 49.2357 105.809C52.4743 103.275 54.9527 99.3872 55.7151 95.2738C56.384 91.6401 54.2024 88.3455 55.1435 84.7949C56.088 81.1752 62.6503 77.1498 65.7567 75.8548C70.911 73.6953 77.6828 73.6943 82.2731 70.3988C85.5701 68.0755 87.0906 64.0007 89.0654 60.5027C91.0402 57.0048 94.397 53.508 98.4493 53.9913C102.915 54.4957 105.775 58.0324 110.559 57.7225C116.173 57.3857 120.995 53.6176 124.917 49.8728C129.564 45.4729 134.035 40.4413 140.137 38.6761C146.238 36.9109 153.343 38.5185 158.636 34.9821C162.716 32.2142 164.717 26.849 169.117 24.5819C172.168 23.0073 175.68 23.2554 178.91 22.2435C182.143 21.1626 184.774 19.705 188.259 19.1213C187.58 18.8791 186.836 18.5644 186.158 18.3222C180.002 15.7248 176.043 12.0629 168.768 15.1524C163.965 17.1914 160.046 20.8672 155.553 23.614C150.774 26.5538 145.354 25.7932 139.969 27.0413C133.468 28.5094 127.317 31.2409 121.807 34.974C114.647 39.8686 111.949 42.6377 103.422 40.4731C97.3516 38.9181 91.7225 43.614 86.8868 47.6582C80.2436 53.2713 72.8972 59.1253 65.1632 63.091C58.9224 66.2332 53.3348 67.4018 48.2909 72.8195C44.4875 78.3004 43.3369 84.6085 40.8733 90.9189C39.4393 94.6521 41.9316 97.2704 40.1706 100.641C38.641 103.539 33.6048 104.735 31.4654 107.394C28.1459 111.516 25.1359 116.345 22.8221 121.072C16.9616 133.022 7.94971 143.082 3.90435 156.024C3.32695 157.864 2.87683 159.917 3.68839 161.619C4.49995 163.321 6.31861 164.244 7.85103 165.36C13.5883 169.39 16.2002 176.443 19.4092 182.628C21.9303 187.393 26.3356 193.153 31.8548 194.68C36.4852 196.023 39.6338 193.9 43.1994 191.729Z" fill="#D3CEBA"/>
<path d="M7.78209 165.358C13.5193 169.387 16.1312 176.441 19.3402 182.625C21.8614 187.39 26.2666 193.151 31.7859 194.678C35.2622 195.616 37.8615 194.78 40.3511 193.384C33.0195 188.097 26.866 180.033 23.4179 171.76C21.1422 166.246 19.064 166.348 14.9175 163.645C11.911 161.624 10.6396 158.099 11.2395 154.461C12.2804 147.594 19.0811 142.958 23.0082 137.76C23.1531 137.629 23.2326 137.426 23.3085 137.291C23.7713 136.346 24.303 135.404 24.9001 134.535C26.8482 130.205 27.522 125.118 29.8077 120.944C33.1637 114.748 39.2443 113.397 43.6327 108.638C43.7087 108.504 43.85 108.442 43.9225 108.376C44.6715 107.238 45.4859 106.172 46.1624 105.099C46.9114 103.961 47.5915 102.819 48.2716 101.677C48.9193 98.4579 49.2984 95.0862 49.6951 91.3694C50.4934 82.4828 56.5255 78.0151 63.8564 73.8212C72.1804 69.1243 78.7561 62.1238 86.6982 56.7845C90.133 54.4682 93.6156 52.5695 97.7931 51.9519C101.55 51.4513 105.454 52.1347 109.218 51.496C111.893 50.5251 114.568 49.5541 117.171 48.6487C123.781 45.0409 129.735 39.3928 136.703 36.9104C145.569 33.7636 152.935 32.9625 161.077 27.7718C164.432 25.6591 172.088 20.5129 178.345 18.4095C179.896 17.7966 181.441 17.3216 183.051 16.9192C178.397 14.6752 174.636 12.5458 168.633 15.0773C163.831 17.1164 159.912 20.7921 155.419 23.5389C150.639 26.4788 145.219 25.7182 139.835 26.9663C133.334 28.4343 127.183 31.1659 121.672 34.8989C114.513 39.7936 111.815 42.5627 103.288 40.3981C97.2173 38.8431 91.5882 43.5389 86.7524 47.5832C80.1093 53.1962 72.7628 59.0502 65.0289 63.016C58.788 66.1582 53.2005 67.3267 48.1565 72.7444C44.3532 78.2254 43.2026 84.5335 40.7389 90.8439C39.3049 94.577 41.7973 97.1954 40.0363 100.566C38.5066 103.464 33.4705 104.66 31.3311 107.319C28.0116 111.441 25.0015 116.27 22.6877 120.997C16.8272 132.947 7.81537 143.007 3.77001 155.949C3.1926 157.788 2.74249 159.842 3.55405 161.544C4.4275 163.388 6.24615 164.311 7.78209 165.358Z" fill="#99957F"/>
<path d="M7.78192 165.357C8.38111 165.803 8.98029 166.248 9.50704 166.76C15.6551 166.796 19.3584 171.414 22.6856 176.635C26.9691 183.428 31.8392 189.558 37.8029 194.568C38.7165 194.269 39.5647 193.897 40.4198 193.386C33.0883 188.099 26.9347 180.035 23.4866 171.763C21.2109 166.249 19.1327 166.35 14.9863 163.648C11.9798 161.626 10.7083 158.101 11.3082 154.464C12.3492 147.597 19.1499 142.96 23.077 137.763C23.2219 137.632 23.3013 137.428 23.3773 137.293C23.8401 136.348 24.3717 135.406 24.9688 134.537C26.9169 130.207 27.5907 125.121 29.8764 120.947C33.2325 114.751 39.313 113.4 43.7015 108.641C43.7774 108.506 43.9188 108.444 43.9912 108.379C44.7402 107.24 45.5546 106.175 46.2312 105.102C46.9802 103.963 47.6603 102.822 48.3404 101.68C48.9881 98.4603 49.3672 95.0886 49.7639 91.3718C50.5622 82.4852 56.5942 78.0175 63.9252 73.8236C72.2492 69.1267 78.8248 62.1261 86.767 56.7869C90.2018 54.4706 93.6844 52.5719 97.8619 51.9543C101.619 51.4537 105.523 52.1371 109.287 51.4984C111.962 50.5275 114.637 49.5565 117.24 48.6511C123.85 45.0433 129.804 39.3952 136.771 36.9128C145.638 33.766 153.004 32.9649 161.145 27.7742C164.501 25.6615 172.157 20.5152 178.414 18.4119C179.965 17.7989 181.51 17.324 183.119 16.9216C180.219 15.5282 177.663 14.1523 174.703 13.9322C166.975 19.144 160.403 26.0755 151.711 29.854C143.019 33.6326 133.486 34.9461 125.289 39.8571C120.796 42.6039 116.075 45.7544 110.619 45.684C106.06 45.6593 102.244 43.2503 99.0076 40.3173C95.9399 40.853 93.0122 42.7107 90.2806 44.7861C89.4436 54.432 77.6265 61.2346 70.3876 66.3329C63.7212 71.0451 57.2202 72.5131 50.6882 70.5194C49.826 71.1675 49.0256 71.9572 48.2218 72.8158C45.3883 76.8929 44.0499 81.4614 42.5012 86.0883C44.8881 90.7774 46.7679 95.925 44.767 101.29C42.4447 107.539 31.475 111.27 25.2826 124.311C20.406 134.582 14.1686 144.437 5.44228 151.604C4.88597 153.029 4.32967 154.454 3.83877 155.952C3.26136 157.791 2.81124 159.844 3.6228 161.546C4.42733 163.387 6.24598 164.31 7.78192 165.357Z" fill="#847F66"/>
<path opacity="0.8" d="M31.7829 194.746C38.4598 196.609 41.8939 191.593 48.0996 189.141C56.5635 185.766 60.5673 212.331 69.6663 211.41C79.0444 210.435 92.6978 181.794 101.846 179.908C105.758 179.069 109.908 179.004 113.521 177.25C118.907 174.618 118.73 168.588 120.365 163.62C122.73 156.543 126.128 149.519 129.237 142.757C135.454 129.233 143.366 116.349 155.96 107.856C172.703 96.5982 192.372 88.9499 207.062 73.2279C213.934 65.8273 215.697 56.9898 219.281 47.6915C221.195 42.668 222.125 36.6254 219.176 32.1153C216.606 28.3165 211.92 26.6937 207.638 25.2991C200.703 23.0772 192.927 21.0893 186.227 18.3258C181.491 16.3543 178.033 13.6868 173.387 14.0037C179.278 16.38 184.798 20.6059 189.546 25.0692C195.208 27.8491 200.336 31.6397 205.695 34.9578C215.211 40.7713 208.12 45.6696 205.473 52.8703C204.592 55.2475 204.734 57.8845 204.263 60.3518C203.278 66.1147 199.296 71.0329 194.492 74.4559C188.971 78.396 182.714 80.4993 177.258 84.512C170.294 89.6243 162.041 92.9407 154.95 97.8389C149.077 101.899 143.466 106.25 137.985 110.746C136.214 117.023 132.672 122.794 128.683 127.85C126.392 130.778 123.44 133.119 121.152 135.978C119.985 138.548 118.679 141.112 117.312 143.533C114.948 150.61 112.123 155.864 111.127 163.218C110.352 168.922 105.477 171.027 100.589 172.024C95.9083 173.031 92.1289 175.33 87.5646 176.758C83.1417 178.124 79.2491 179.933 74.5857 180.595C68.1817 181.514 61.6307 181.249 55.1008 180.571C47.5765 181.779 41.4798 182.091 34.8415 186.251C31.5586 188.298 28.4417 189.801 24.4725 189.045C24.2003 188.962 23.8592 188.875 23.587 188.792C25.7967 191.534 28.5823 193.822 31.7829 194.746Z" fill="#99957F"/>
<path d="M57.2806 158.121C60.1731 156.954 63.506 156.639 66.7115 156.111C75.9145 154.503 85.1521 149.507 88.1045 140.384C88.9239 137.865 89.1989 135.18 90.0871 132.665C93.1457 124.17 101.355 120.367 109.036 117.437C118.9 113.718 134.136 103.56 133.122 90.9135C132.818 87.3686 131.261 86.7357 132.968 83.0856C134.37 79.9737 137.929 77.9405 140.453 75.8546C144.347 72.6621 147.791 68.8237 150.569 64.467C157.856 53.0045 133.699 55.1646 128.529 56.2852C116.589 58.7218 105.705 66.1948 99.8934 77.1789C95.8397 84.8616 94.7714 88.1981 86.9952 92.9922C78.7191 98.1068 70.5702 103.435 62.4867 108.837C56.186 113.152 49.2566 118.958 49.9514 127.021C50.1356 128.83 50.6645 130.656 50.7109 132.458C50.8873 138.488 45.7653 142.725 40.9788 145.803C36.1923 148.881 30.8228 152.552 30.1068 158.467C29.6377 162.249 31.4978 166.427 34.628 168.732C37.8272 171.04 42.0968 171.327 45.3002 169.483C49.2174 167.191 50.9869 162.299 54.6496 159.579C55.3705 158.993 56.2946 158.486 57.2806 158.121Z" fill="#C0C1A8"/>
<path opacity="0.7" d="M180.179 17.6716C179.364 20.1214 181.87 22.4636 184.381 23.3528C190.279 25.591 192.883 30.0836 198.618 32.7979C202.597 34.7307 207.512 37.2649 206.752 42.6933C206.349 45.1641 204.996 47.3097 203.981 49.6108C201.324 55.6346 200.619 61.3426 197.28 67.1932C193.787 73.3819 187.845 77.439 181.669 80.6537C173.29 85.071 164.399 88.701 156.591 94.1163C152.225 97.0772 148.244 100.611 144.663 104.443C144.08 105.036 143.487 105.836 143.793 106.613C144.27 108.09 146.525 107.237 147.684 106.188C157.673 97.2856 169.94 92.5127 181.835 86.8905C190.827 82.6428 202.243 76.927 206.399 67.2426C209.214 60.8117 209.589 54.8101 213.624 48.8565C216.609 44.5104 218.395 40.6568 214.612 36.2426C210.444 31.2552 204.167 29.6896 198.566 27.0513C192.286 24.1708 186.159 21.0213 180.179 17.6716Z" fill="#E5E3CF"/>
<g opacity="0.7">
<path opacity="0.7" d="M204.082 31.3462C201.099 30.2253 198.133 28.7594 195.302 27.3694C195.167 27.2934 194.895 27.2103 194.816 27.4139C195.108 28.4668 196.037 29.2062 197.046 29.742C200.005 31.3461 202.826 32.9431 205.481 35.0853C206.872 36.2634 208.256 37.5796 208.999 39.2783C210.546 42.8173 207.896 46.0041 206.628 49.1921C206.151 50.4134 205.169 53.4084 206.429 54.4414C207.82 55.6196 209.765 51.3588 210.3 50.3481C211.975 47.3192 214.077 44.0353 213.226 40.3934C212.393 36.4063 208.787 33.9389 205.429 32.0377C205.022 31.8785 204.554 31.5779 204.082 31.3462Z" fill="#F7F3E8"/>
<path opacity="0.7" d="M180.501 83.2239C174.971 85.9871 169.251 88.3946 163.721 91.1577C158.19 93.9209 153.796 97.434 149.098 101.485C148.953 101.616 148.736 101.813 148.656 102.016C148.577 102.22 148.697 102.572 148.904 102.583C149.042 102.59 149.252 102.531 149.397 102.4C153.708 99.1596 158.212 96.2057 162.839 93.535C167.184 90.9882 172.024 89.5739 176.434 87.0997C178.783 85.7661 181.516 85.0057 183.999 83.7481C187.119 82.177 190.105 80.5299 192.971 78.5306C196.054 76.3348 198.948 73.7833 201.247 70.717C202.43 69.1856 203.414 67.5057 204.264 65.7497C205.034 64.1972 205.118 62.5406 205.482 60.8291C205.669 59.8697 205.671 58.4857 204.647 58.226C203.896 58.0493 203.168 58.7735 202.788 59.4461C201.96 60.788 201.466 62.3545 200.771 63.7724C198.271 69.4581 194.068 74.6418 188.984 78.1198C186.329 80.0606 183.481 81.7148 180.501 83.2239Z" fill="#F7F3E8"/>
<path opacity="0.7" d="M112.401 153.11C113.152 150.588 113.968 148.138 114.921 145.695C115.485 144.132 116.117 142.573 116.883 141.089C117.574 139.741 118.526 138.682 119.348 137.478C121.215 134.736 123.547 132.363 125.883 129.922C128.515 127.08 131.064 124.511 132.967 121.079C133.115 120.879 133.495 120.206 133.746 120.703C133.873 120.917 133.79 121.19 133.711 121.393C132.567 124.864 130.482 127.803 128.063 130.517C126.814 131.976 125.431 133.359 124.382 134.966C123.184 136.774 121.986 138.581 120.789 140.389C120.188 141.327 119.649 142.407 119.114 143.418C118.731 144.159 118.348 144.901 117.964 145.643C117.581 146.384 117.198 147.126 116.88 147.94C115.94 150.107 115.342 152.36 114.812 154.617C114.47 155.914 114.189 157.353 113.306 158.416C113.085 158.681 112.867 158.878 112.585 159.002C111.178 159.484 111.635 157.292 111.671 156.602C111.799 155.432 112.066 154.269 112.401 153.11Z" fill="#F7F3E8"/>
<path opacity="0.7" d="M109.224 166.65C107.915 169.283 104.791 170.923 102.192 171.759C100.575 172.3 98.8962 172.699 97.2793 173.239C95.8728 173.721 94.2011 173.982 92.9873 174.75C92.9148 174.816 92.8424 174.881 92.8389 174.951C92.8318 175.089 92.9697 175.096 93.1075 175.103C95.5851 175.298 98.1085 174.596 100.559 173.96C102.731 173.378 104.968 172.87 107.023 171.867C110.071 170.361 113.483 167.144 113.187 163.461C113.142 162.975 113.026 162.554 112.768 162.194C112.51 161.835 111.969 161.6 111.545 161.786C110.486 162.217 109.902 164.194 109.711 165.222C109.614 165.771 109.452 166.247 109.224 166.65Z" fill="#F7F3E8"/>
</g>
<path d="M130.872 103.878C128.511 101.405 127.047 97.5936 124.688 95.0513C125.626 98.3516 127.659 101.846 129.303 104.837C131.907 109.329 133.438 111.829 136.889 114.635C137.884 115.447 139.978 116.384 141.249 117.21C141.583 117.434 142.589 118.039 143.794 118.793C144.895 117.534 145.992 116.344 147.158 115.158C141.979 111.019 135.468 108.611 130.872 103.878Z" fill="#EAE8D6"/>
<path d="M138.876 109.546C134.747 106.498 130.192 102.321 127.012 98.2838C129.42 102.559 133.59 108.861 137.302 111.957C139.423 113.726 140.271 113.354 142.692 114.654C143.767 115.262 144.918 115.736 145.996 116.275C146.944 115.286 147.893 114.296 148.907 113.379C145.005 111.311 139.076 109.694 138.876 109.546Z" fill="#5B5845"/>
<path opacity="0.65" d="M27.1503 148.697C27.5673 148.649 27.9119 148.666 28.329 148.619C29.4352 148.606 30.6139 148.527 31.6301 148.925C34.1415 149.814 34.9074 152.414 33.6196 154.632C31.4134 158.603 21.8095 161.297 20.1892 155.124C19.7293 153.301 20.9994 151.428 22.579 150.263C23.9413 149.295 25.4821 148.889 27.1503 148.697Z" fill="#FEFBEB"/>
<path d="M26.6077 149.846C30.3273 148.72 33.9309 149.873 34.6348 152.331C35.4077 154.792 32.9786 157.713 29.2589 158.839C25.5393 159.964 21.9358 158.812 21.2318 156.354C20.4589 153.892 22.8881 150.971 26.6077 149.846Z" fill="#77745F"/>
<path d="M25.9802 156.734C23.9921 156.425 22.2564 155.229 21.6551 153.469C21.1235 154.41 20.9329 155.439 21.2282 156.423C22.0011 158.884 25.6047 160.037 29.2554 158.908C32.975 157.782 35.3352 154.858 34.6313 152.4C34.511 152.048 34.3218 151.692 34.0602 151.402C33.2022 154.68 29.8222 157.276 25.9802 156.734Z" fill="#4C4A38"/>
<path opacity="0.65" d="M148.371 73.6975C149.378 77.0014 148.384 81.5874 147.065 84.4267C146.139 86.3173 143.393 88.6687 141.367 89.1191C139.619 89.5144 137.652 88.7914 136.833 87.2272C136.52 86.5884 136.421 85.8221 136.319 85.1249C135.892 81.2969 136.119 78.1943 138.49 75.0625C140.336 72.7345 143.558 69.1617 146.837 71.2664C147.24 71.4946 147.494 71.9228 147.752 72.2819C148.007 72.7101 148.189 73.2038 148.371 73.6975Z" fill="#FEFBEB"/>
<path d="M137.596 79.0308C139.638 74.2214 143.725 71.3154 146.567 72.4983C149.477 73.6847 150.131 78.493 148.02 83.299C145.978 88.1084 141.892 91.0144 139.05 89.8315C136.139 88.6451 135.486 83.8368 137.596 79.0308Z" fill="#77745F"/>
<path d="M139.057 86.9944C138.161 86.9488 137.341 86.7686 136.597 86.4539C136.929 88.0625 137.834 89.2851 139.05 89.8315C141.961 91.0178 145.982 88.0394 148.021 83.2989C149.513 79.7764 149.554 76.2491 148.347 74.1807C148.483 79.6547 145.194 87.238 139.057 86.9944Z" fill="#4C4A38"/>
<path opacity="0.65" d="M97.7904 125.238C99.9516 124.863 101.68 126.197 103.192 127.727C104.899 129.475 104.285 133.389 101.511 133.593C99.7046 133.778 97.9141 132.303 96.7333 131.066C95.8831 130.123 95.3915 128.922 95.4583 127.61C95.497 126.851 95.8803 126.109 96.5217 125.727C96.7355 125.599 96.9493 125.472 97.2285 125.417C97.4423 125.289 97.5836 125.227 97.7904 125.238Z" fill="#FEFAE5"/>
<path d="M102.861 127.434C104.841 129.264 105.403 131.784 104.161 133.105C102.919 134.426 100.383 134.02 98.4037 132.189C96.424 130.358 95.8614 127.838 97.1034 126.517C98.3454 125.197 100.881 125.603 102.861 127.434Z" fill="#77745F"/>
<path d="M103.549 128.853C103.436 131.062 101.498 132.485 99.3789 132.031C98.7621 131.931 98.2213 131.695 97.684 131.391C97.8767 131.678 98.1418 131.899 98.4035 132.189C100.383 134.02 102.919 134.426 104.161 133.105C105.186 131.981 104.874 129.958 103.58 128.232C103.57 128.439 103.559 128.646 103.549 128.853Z" fill="#4C4A38"/>
<path opacity="0.45" d="M97.1532 73.9943C94.5912 75.4555 91.7 75.2389 90.7542 73.4606C89.8048 71.7514 91.11 69.1881 93.6721 67.727C96.2341 66.2659 99.1253 66.4824 100.071 68.2607C101.021 69.97 99.7153 72.5332 97.1532 73.9943Z" fill="#605D4A"/>
<path d="M109.981 100.253C109.218 104.367 106.303 107.332 103.568 106.778C100.832 106.223 99.1574 102.47 99.9888 98.3601C100.751 94.2468 103.666 91.2811 106.402 91.8357C109.141 92.3213 110.816 96.0745 109.981 100.253Z" fill="#A9AA91"/>
<path d="M51.2028 163.486C48.0247 160.764 46.9122 156.832 48.6824 154.638C50.5179 152.517 54.5737 152.932 57.7518 155.654C60.9298 158.376 62.0424 162.309 60.2722 164.502C58.502 166.696 54.4498 166.212 51.2028 163.486Z" fill="#A9AA91"/>
<path d="M178.233 50.4441C174.675 48.3943 173.684 43.4303 176.039 39.2597C178.393 35.089 183.182 33.3261 186.74 35.3759C190.298 37.4257 191.289 42.3896 188.934 46.5603C186.579 50.7309 181.791 52.4939 178.233 50.4441Z" fill="#A9AA91"/>
<path opacity="0.45" d="M66.94 87.8873C66.8936 86.0856 67.7291 84.6057 68.9731 84.5999C70.1518 84.5216 71.1842 85.9582 71.3031 87.6944C71.3495 89.4961 70.514 90.976 69.2699 90.9818C68.0223 91.0566 66.9864 89.689 66.94 87.8873Z" fill="#605D4A"/>
<path opacity="0.45" d="M52.7393 130.624C52.6929 128.822 53.5284 127.342 54.7725 127.336C55.9511 127.258 56.9835 128.695 57.1024 130.431C57.1488 132.232 56.3133 133.712 55.0692 133.718C53.8905 133.797 52.8546 132.429 52.7393 130.624Z" fill="#605D4A"/>
<path opacity="0.45" d="M177.511 68.6772C175.892 67.9026 175.07 66.4075 175.54 65.3241C176.079 64.2443 177.75 63.9835 179.369 64.758C180.988 65.5325 181.81 67.0277 181.341 68.111C180.867 69.2634 179.13 69.4517 177.511 68.6772Z" fill="#605D4A"/>
<path opacity="0.54" d="M88.3361 162.956C86.5568 163.973 84.4927 163.799 83.7289 162.514C82.9652 161.229 83.8218 159.335 85.6011 158.319C87.3804 157.302 89.4445 157.477 90.2082 158.761C90.972 160.046 90.1154 161.94 88.3361 162.956Z" fill="#4C4A38"/>
<path d="M141.584 49.6148C147.74 48.1292 163.297 43.87 165.094 42.5083C165.96 41.7912 167.309 37.0156 167.937 35.5252C167.699 36.1358 169.561 45.7116 168.953 46.7879C168.497 47.5951 150.346 51.2377 141.584 49.6148Z" fill="#EAE6D3"/>
<path d="M141.584 49.6155C147.615 49.2308 165.152 46.8026 167.138 45.7965C168.7 44.9765 167.236 37.0819 167.865 35.5914C167.627 36.2021 170.263 46.8554 169.651 48.0007C169.272 48.6734 150.346 51.2385 141.584 49.6155Z" fill="#5B5845"/>
<path d="M58.3525 111.325C59.8906 113.687 62.1073 116.291 63.9315 118.46C65.9366 115.725 66.7981 112.378 68.4727 109.349C71.8906 103.295 75.4767 98.0107 80.7576 93.3663C79.4207 96.5508 77.3734 100.114 75.7643 103.216C73.2331 108.139 69.6858 112.664 67.8952 117.97C67.8122 118.243 67.7292 118.516 67.6462 118.788C64.9906 127.511 68.1292 135.076 70.3226 143.561C71.1257 146.785 72.3459 149.962 72.7319 153.234C73.3747 158.249 74.1939 162.512 72.4245 167.405C72.1657 164.347 72.3204 161.31 71.8549 158.241C71.2656 154.889 67.4772 142.447 66.4744 139.074C66.0623 137.669 63.8358 131.189 63.5749 126.816C63.1621 122.712 60.0607 115.772 58.3525 111.325Z" fill="#EAE8D6"/>
<path d="M68.9046 132.07C68.4974 129.212 68.0284 126.212 68.4518 123.327C68.8646 120.649 69.9596 118.145 71.0547 115.64C74.0218 108.94 76.9236 102.168 79.8908 95.4675C74.1527 102.303 70.3022 110.065 67.1163 118.346C64.0823 126.357 66.422 133.328 68.8468 141.341C70.856 148.017 72.4446 154.811 73.4749 161.715C74.4159 151.382 70.4039 141.973 68.9046 132.07Z" fill="#5B5845"/>
<path d="M112.023 96.0057V100.678L102.717 122.38H94.5785L103.47 101.921H96.5377V105.99H90.1702V96.0057H112.023Z" fill="#494739"/>
</svg>
