<svg width="136" height="161" viewBox="0 0 136 161" fill="none" xmlns="http://www.w3.org/2000/svg">
<path opacity="0.87" d="M43.309 145.236C43.5434 145.298 43.7203 145.261 43.8972 145.224C43.9753 145.245 43.9959 145.167 43.9959 145.167C44.1728 145.13 44.2923 144.995 44.4692 144.958C44.7655 144.786 45.0618 144.614 45.4362 144.463C46.0082 144.197 46.6008 143.853 47.2509 143.608C47.3497 143.55 47.5266 143.514 47.6254 143.456C49.2425 142.716 50.9585 141.917 52.5963 141.099C52.9914 140.869 53.3658 140.718 53.7609 140.489C55.44 139.514 57.0616 138.44 58.2763 137.009C58.754 136.468 59.1742 135.827 59.5737 135.265C60.0351 134.469 60.2415 133.689 60.4479 132.909C60.5099 132.675 60.5924 132.363 60.6543 132.129C60.6956 131.973 60.7163 131.895 60.7575 131.739C61.0834 130.823 61.4873 129.929 62.2244 129.038C63.7355 127.435 65.8465 126.408 67.4932 124.923C69.9345 122.648 72.6588 121.198 75.3875 119.416C75.7826 119.187 76.1983 118.879 76.5934 118.65C77.0091 118.343 77.4248 118.035 77.8405 117.728C85.7599 111.81 93.3712 105.476 100.654 98.8056C102.638 96.9934 104.68 95.2798 106.742 93.4883C107.179 93.1029 107.594 92.7955 108.031 92.4102C108.566 91.9674 109.122 91.4467 109.735 91.0247C109.854 90.8893 109.953 90.832 110.072 90.6966C110.509 90.3113 110.945 89.9259 111.48 89.4831C111.6 89.3478 111.797 89.2331 111.917 89.0978C112.472 88.577 113.008 88.1343 113.563 87.6136C113.662 87.5562 113.761 87.4989 113.802 87.3429C114.119 87.0929 114.358 86.8222 114.696 86.4941C114.815 86.3588 115.033 86.1661 115.153 86.0307C115.272 85.8954 115.391 85.76 115.589 85.6453C116.145 85.1246 116.602 84.6612 117.079 84.1198C117.079 84.1198 117.079 84.1198 117.1 84.0418C117.121 83.9638 117.219 83.9064 117.219 83.9064C117.676 83.4431 118.133 82.9797 118.611 82.4383C118.73 82.3029 118.85 82.1676 118.969 82.0322C119.089 81.8969 119.208 81.7615 119.327 81.6262C119.348 81.5481 119.426 81.5688 119.447 81.4908C119.784 81.1628 120.065 80.7361 120.402 80.408C120.641 80.1373 120.781 79.9239 121.02 79.6532C121.041 79.5752 121.139 79.5179 121.16 79.4399C121.16 79.4399 121.16 79.4399 121.181 79.3619C121.201 79.2839 121.3 79.2265 121.321 79.1485C121.341 79.0705 121.44 79.0132 121.44 79.0132L121.461 78.9351C121.481 78.8571 121.601 78.7218 121.621 78.6438C121.642 78.5658 121.761 78.4304 121.782 78.3524C121.803 78.2744 121.803 78.2744 121.823 78.1964L121.844 78.1184C121.865 78.0403 121.885 77.9623 121.984 77.905C122.025 77.749 122.145 77.6136 122.186 77.4576C122.207 77.3796 122.248 77.2236 122.347 77.1662L122.367 77.0882L122.388 77.0102C122.388 77.0102 122.388 77.0102 122.409 76.9322C122.429 76.8542 122.45 76.7762 122.471 76.6982C122.491 76.6201 122.512 76.5421 122.553 76.3861C122.574 76.3081 122.574 76.3081 122.594 76.2301C122.615 76.1521 122.636 76.0741 122.656 75.9961C122.677 75.918 122.677 75.918 122.698 75.84C122.718 75.762 122.718 75.762 122.739 75.684C122.78 75.528 122.821 75.372 122.883 75.1379C122.904 75.0599 122.904 75.0599 122.925 74.9819C122.945 74.9039 122.945 74.9039 122.966 74.8259L122.987 74.7479C123.069 74.4358 123.053 74.1811 123.136 73.8691L123.156 73.791C123.177 73.713 123.177 73.7131 123.197 73.635C123.181 73.3803 123.223 73.2243 123.206 72.9696L123.227 72.8916C123.248 72.8136 123.248 72.8136 123.19 72.7149C123.153 72.5382 123.174 72.4602 123.137 72.2835C123.158 72.2055 123.158 72.2055 123.1 72.1068C123.043 72.0081 123.084 71.8521 123.027 71.7534C123.047 71.6754 122.969 71.6547 122.99 71.5767C123.01 71.4987 122.932 71.478 122.953 71.4C122.916 71.2233 122.879 71.0466 122.842 70.8699C122.842 70.8699 122.863 70.7919 122.785 70.7712C122.785 70.7712 122.805 70.6932 122.727 70.6726C122.69 70.4959 122.654 70.3192 122.596 70.2205C122.596 70.2205 122.617 70.1425 122.539 70.1218C122.481 70.0231 122.424 69.9244 122.465 69.7684L122.407 69.6697C122.35 69.5711 122.35 69.571 122.292 69.4724C122.104 68.9216 121.837 68.3502 121.55 67.8568C121.55 67.8568 121.57 67.7787 121.492 67.7581C121.32 67.462 121.147 67.166 120.975 66.8699C120.552 66.2571 120.149 65.5663 119.648 64.9329C118.531 63.4686 117.179 61.9424 115.749 60.3954C109.372 53.5328 107.997 37.5596 101.42 29.5588C99.9741 27.7572 98.2479 26.3822 96.1222 25.5694C95.8097 25.4867 95.5178 25.326 95.2053 25.2433C94.6584 25.0986 94.0909 25.0319 93.5233 24.9652C91.7794 24.9211 90.0266 25.5425 88.352 26.1846C72.1612 32.0843 55.8096 38.2754 38.9953 42.4242C36.5762 43.0363 34.1778 43.5703 31.7012 44.0836C31.2693 44.1363 30.8167 44.2669 30.4629 44.3403C29.9322 44.4503 29.4796 44.581 28.9696 44.6129C28.6158 44.6863 28.3607 44.7023 28.0851 44.7963C27.9863 44.8536 27.9082 44.8329 27.8094 44.8903C27.6325 44.9269 27.4556 44.9636 27.2581 45.0783C27.1593 45.1356 27.0812 45.115 26.9824 45.1723C26.8055 45.209 26.7067 45.2663 26.5298 45.303C26.4311 45.3603 26.3323 45.4176 26.2542 45.397C26.1554 45.4543 25.9785 45.491 25.8797 45.5483C25.7809 45.6056 25.6822 45.663 25.6041 45.6423C25.5053 45.6997 25.4065 45.757 25.3078 45.8143C25.209 45.8717 25.1102 45.929 25.0896 46.007C24.9908 46.0644 24.892 46.1217 24.7726 46.2571C24.752 46.3351 24.6738 46.3144 24.5751 46.3718C24.4557 46.5071 24.3362 46.6424 24.2168 46.7778C24.1962 46.8558 24.0974 46.9131 24.0768 46.9912C24.0561 47.0692 23.9574 47.1265 23.9367 47.2045C23.9161 47.2825 23.8173 47.3399 23.776 47.4959C23.7554 47.5739 23.6566 47.6312 23.636 47.7093C23.6153 47.7873 23.4959 47.9226 23.4753 48.0006C23.4547 48.0786 23.434 48.1566 23.3352 48.214C23.3146 48.292 23.2939 48.37 23.2733 48.448L23.2527 48.526C23.232 48.6041 23.2114 48.6821 23.1907 48.7601C23.1701 48.8381 23.1288 48.9941 23.0875 49.1501C23.0669 49.2281 23.0463 49.3061 23.0256 49.3842C22.9843 49.5402 22.9637 49.6182 22.9224 49.7742C22.7528 50.731 22.5626 51.7659 22.508 52.92C22.4785 53.6635 22.3709 54.3862 22.3414 55.1297C22.3207 55.2077 22.3001 55.2857 22.3576 55.3844C22.3163 55.5404 22.3738 55.6391 22.3325 55.7951C22.3443 56.3826 22.356 56.97 22.3472 57.6354C22.3265 57.7134 22.3059 57.7915 22.384 57.8121C22.3634 57.8901 22.4209 57.9888 22.4002 58.0668C22.4488 58.8309 22.5181 59.5171 22.5667 60.2812C22.6036 60.4579 22.6404 60.6346 22.5991 60.7906C22.689 61.3987 22.7008 61.9861 22.8113 62.5162C22.8482 62.6929 22.885 62.8696 22.9219 63.0463C23.0693 63.7531 23.1385 64.4392 23.2859 65.146C23.3227 65.3227 23.3802 65.4213 23.339 65.5774C23.4289 66.1855 23.5969 66.8142 23.7074 67.3443C23.7443 67.521 23.7811 67.6977 23.818 67.8744C23.9653 68.5812 24.1909 69.3086 24.3383 70.0154C24.3383 70.0154 24.3176 70.0934 24.3957 70.1141C24.5431 70.8209 24.7893 71.4703 25.0148 72.1978C25.0517 72.3745 25.0885 72.5512 25.1253 72.7279C25.3715 73.3773 25.5189 74.0841 25.765 74.7335L25.8225 74.8322C26.048 75.5597 26.3517 76.3078 26.5566 77.1133C26.614 77.2119 26.5934 77.29 26.6509 77.3887C26.9339 78.2148 27.2169 79.0409 27.4999 79.867C28.7425 83.7017 30.0838 87.479 30.9725 91.387C32.4229 97.2799 33.3631 103.205 34.2828 109.208C34.3564 109.561 34.4301 109.915 34.5038 110.268C34.999 112.82 35.6874 115.59 35.4588 118.033C35.4086 118.855 35.301 119.577 35.214 120.222C35.0813 121.356 35.0473 122.432 35.4202 123.866C36.2397 127.088 36.9811 130.289 37.8006 133.511C38.0054 134.317 38.1897 135.2 38.4727 136.026C38.8662 137.382 39.2023 138.64 39.6946 139.939C39.9407 140.588 40.1869 141.238 40.4537 141.809C40.893 142.677 41.3322 143.544 41.8909 144.276C42.0059 144.474 42.1415 144.593 42.3346 144.811C42.9183 145.132 43.0746 145.174 43.309 145.236Z" fill="#444235"/>
<path d="M69.5803 115.868C72.7749 112.957 76.4824 111.266 80.0058 108.693C87.9251 102.775 95.5364 96.4415 102.819 89.7706C109.328 83.8132 116.967 78.322 122.625 71.4717C128.781 64.0021 124.411 58.0877 118.284 51.5418C111.907 44.6792 110.533 28.706 103.955 20.7052C102.316 18.6855 100.298 17.1499 97.7405 16.3897C95.4954 15.7122 93.1132 16.5009 90.8872 17.331C71.4664 24.3795 51.8438 31.8754 31.5048 35.7593C26.1403 36.7607 25.4798 39.257 25.002 44.2225C23.7631 57.7512 30.4229 69.864 33.5446 82.7101C34.9949 88.603 35.9352 94.528 36.8548 100.531C37.2881 103.317 38.2064 106.481 37.9527 109.336C37.7079 111.525 37.2789 112.83 37.836 115.148C38.6555 118.37 39.3969 121.571 40.2164 124.793C41.1464 128.545 42.1133 132.473 44.3642 135.657C44.6148 135.973 44.8654 136.29 45.256 136.393C45.6467 136.497 46.1199 136.288 46.5149 136.059C51.334 133.327 58.7889 131.376 61.562 126.267C62.7281 124.071 62.4997 122.091 64.2909 120.061C65.8226 118.379 67.9911 117.451 69.5803 115.868Z" fill="#B7B5A7"/>
<path opacity="0.9" d="M30.8506 48.0244C34.3533 45.5288 38.4102 44.0981 42.672 43.4728C47.522 42.8361 53.6573 44.2926 57.9206 42.0817C61.6901 40.1575 63.3177 37.1657 67.7932 36.6805C70.5617 36.3278 73.193 37.4414 75.8627 37.1461C78.9437 36.8762 81.5943 35.0733 84.6753 34.8034C88.3444 34.5221 95.8463 34.9211 97.5208 38.703C98.1856 40.298 97.9452 42.1543 98.0793 43.8592C98.3726 46.8583 100.118 49.7408 102.724 51.2652C104.455 52.3074 106.429 52.7462 108.159 53.7884C113.7 57.1744 111.754 62.0018 111.256 67.0452C110.84 71.7766 112.595 81.2561 108.195 84.9332C113.25 80.6781 118.482 76.3862 122.567 71.3736C128.723 63.9039 124.352 57.9896 118.226 51.4437C111.849 44.5811 110.475 28.6079 103.897 20.6071C102.258 18.5874 100.24 17.0518 97.6824 16.2916C95.4373 15.6141 93.0551 16.4028 90.8291 17.2328C71.4084 24.2813 51.7857 31.7772 31.4467 35.6612C26.0822 36.6625 25.4217 39.1589 24.9439 44.1243C24.6651 47.3895 24.8183 50.602 25.2472 53.7205C26.7052 51.6855 28.5538 49.754 30.8506 48.0244Z" fill="#AAA797"/>
<path d="M53.6471 84.7741C53.9388 89.3589 54.5062 93.8496 57.5015 97.0628C58.0233 97.6183 58.5658 98.0957 59.269 98.2817C61.4566 98.8606 63.2522 96.4976 64.2208 94.4166C70.6088 81.3321 81.5767 74.6347 94.3623 68.3348C98.1318 66.4106 103.822 64.4939 103.362 59.2804C103.11 56.1252 100.715 53.488 97.8906 52.1564C92.3199 49.5138 86.0356 48.9362 79.8736 49.4761C77.4796 49.6774 75.1224 50.0554 72.7166 49.6692C70.9565 49.3705 69.2215 48.661 67.4201 48.5182C63.6816 48.1134 60.1672 50.0216 56.8503 51.8151C53.9285 53.3792 50.9654 55.0994 48.9516 57.6551C46.9171 60.2888 46.0045 64.054 47.6716 66.9158C48.304 68.0014 49.2327 68.9148 50.0626 69.8857C53.3409 73.9251 53.3068 79.4253 53.6471 84.7741Z" fill="#BFBEAF"/>
<path opacity="0.7" d="M46.5149 136.059C51.334 133.328 58.7888 131.377 61.5619 126.268C62.728 124.072 62.4996 122.092 64.2908 120.061C65.8018 118.458 67.9129 117.43 69.5595 115.946C72.7541 113.035 76.4617 111.345 79.985 108.771C87.9044 102.853 95.5157 96.5199 102.798 89.8491C109.307 83.8917 116.946 78.4004 122.604 71.5502C127.644 65.4547 125.556 60.3946 121.353 55.1089C120.672 57.6833 119.678 60.175 118.273 62.6414C112.048 73.8489 101.401 75.5395 91.4741 82.0949C86.7081 85.2579 81.9922 87.5995 77.0168 90.2897C70.7987 93.5694 70.2885 98.0254 67.194 103.718C64.3015 108.962 57.4303 115.658 51.4263 110.23C45.7717 105.061 50.0176 95.333 50.8257 89.1194C51.7827 82.027 49.0837 78.6417 44.7985 73.6681C42.0375 70.5169 39.5611 66.6062 40.0714 62.1502C40.3073 60.6266 41.2832 59.4658 41.5766 58.0409C42.1679 54.8585 42.3004 58.149 41.1198 54.0803C39.8286 49.4816 38.4092 45.6836 39.0433 40.7595C39.4119 38.1024 40.2081 35.7254 41.4317 33.6285C38.1281 34.4238 34.7464 35.1985 31.3853 35.8952C26.0208 36.8965 25.3603 39.3929 24.8825 44.3583C23.6436 57.887 30.3034 69.9998 33.4251 82.8459C34.8754 88.7389 35.8157 94.6638 36.7353 100.667C37.1686 103.453 38.0869 106.617 37.8332 109.472C37.5884 111.661 37.1594 112.966 37.7165 115.284C38.536 118.506 39.2774 121.707 40.0969 124.929C41.0269 128.681 41.9938 132.609 44.2447 135.792C44.4953 136.109 44.7459 136.426 45.1365 136.529C45.7247 136.518 46.1198 136.289 46.5149 136.059Z" fill="#D8D4C0"/>
<path opacity="0.54" d="M46.5151 136.059C51.3342 133.328 58.789 131.377 61.5621 126.267C62.7282 124.072 62.4998 122.092 64.291 120.061C65.802 118.458 67.9131 117.43 69.5598 115.946C72.7543 113.035 76.4619 111.345 79.9852 108.771C87.9046 102.853 95.5159 96.5199 102.798 89.8491C109.307 83.8917 116.946 78.4004 122.604 71.5502C126.051 67.3703 126.199 63.6531 124.561 60.0478C119.697 70.5306 110.016 77.7354 100.604 83.9261C93.4052 88.6993 85.7306 92.4283 79.3414 98.2503C78.1311 99.3491 76.9989 100.469 76.0598 101.806C75.2608 102.93 74.733 104.293 73.7777 105.376C70.2322 109.613 63.289 109.946 59.3573 113.747C57.4511 115.58 57.8977 117.368 56.9247 119.782C55.8071 122.741 53.4602 125.292 50.7934 126.841C50.102 127.242 49.2544 127.602 48.4524 127.473C47.0255 127.179 46.3607 125.584 45.9671 124.228C43.9552 116.35 44.6337 108.099 44.6045 99.9942C44.6535 91.9103 43.8269 83.3442 39.4489 76.5097C36.7219 72.2823 34.8013 67.8509 33.8683 62.8461C33.8315 62.6694 33.8728 62.5134 33.8359 62.3367C31.8742 53.6372 31.0535 43.1529 34.1009 35.1111C33.2164 35.2944 32.2331 35.5351 31.3486 35.7184C25.9842 36.7198 25.3236 39.2161 24.8458 44.1816C23.607 57.7103 30.2667 69.823 33.3884 82.6691C34.8388 88.5621 35.779 94.4871 36.6987 100.49C37.1319 103.276 38.0502 106.44 37.7965 109.295C37.5518 111.484 37.1227 112.789 37.6799 115.107C38.4993 118.329 39.2407 121.53 40.0602 124.752C40.9902 128.504 41.9571 132.432 44.208 135.616C44.4586 135.932 44.7092 136.249 45.0999 136.353C45.7249 136.518 46.12 136.289 46.5151 136.059Z" fill="#72756B"/>
<path opacity="0.54" d="M46.5153 136.059C49.1615 134.589 52.5108 133.305 55.552 131.605C55.6714 131.47 55.7127 131.314 55.8321 131.179C58.0936 127.687 57.8299 123.944 59.5445 120.308C62.3721 114.044 70.0451 111.901 76.2573 110.54C76.7098 110.409 77.1211 110.434 77.553 110.382C78.3639 109.845 79.1747 109.308 80.0061 108.693C80.7388 108.136 81.5702 107.521 82.3235 106.886C85.0304 97.9192 92.0992 91.1083 100.782 86.7279C105.141 83.2068 112.346 76.5153 118.648 75.7621C120.019 74.3719 121.39 72.9817 122.547 71.4515C125.994 67.2717 126.141 63.5544 124.504 59.9491C119.698 70.5306 110.017 77.7355 100.604 83.9261C93.4054 88.6993 85.7309 92.4283 79.3417 98.2504C78.1314 99.3492 76.9992 100.469 76.0601 101.806C75.261 102.93 74.7333 104.293 73.778 105.376C70.2325 109.613 63.2892 109.946 59.3575 113.747C57.4514 115.58 57.8979 117.368 56.9249 119.782C55.8074 122.741 53.4604 125.292 50.7936 126.841C50.1023 127.242 49.2546 127.602 48.4527 127.473C47.0257 127.179 46.3609 125.584 45.9674 124.228C43.9555 116.35 44.6339 108.099 44.6048 99.9942C44.6537 91.9103 43.8271 83.3443 39.4491 76.5098C36.7221 72.2823 34.8015 67.8509 33.8686 62.8461C33.8317 62.6694 33.873 62.5134 33.8362 62.3367C31.8744 53.6373 31.0537 43.153 34.1011 35.1111C33.2166 35.2945 32.2334 35.5351 31.3489 35.7185C25.9844 36.7198 25.3239 39.2162 24.8461 44.1816C24.0143 53.6444 26.9755 62.3578 29.916 71.1493C37.0021 76.2796 41.7294 83.3735 42.2375 93.7752C42.6043 101.552 43.2215 114.069 39.5652 122.2C39.7701 123.006 39.975 123.811 40.1592 124.695C41.0893 128.447 42.0561 132.375 44.307 135.558C44.5576 135.875 44.8082 136.192 45.1989 136.295C45.7251 136.518 46.1202 136.289 46.5153 136.059Z" fill="#72756B"/>
<path opacity="0.7" d="M122.625 71.4718C128.781 64.0021 124.411 58.0877 118.284 51.5419C111.907 44.6792 110.533 28.706 103.955 20.7052C102.316 18.6855 100.298 17.1499 97.7405 16.3897C95.4954 15.7122 93.1132 16.5009 90.8872 17.331C71.4664 24.3795 51.8438 31.8754 31.5048 35.7594C26.8479 36.614 25.7437 38.5756 25.2423 42.3662C29.3878 38.7051 35.7149 37.5411 41.8797 38.2541C46.6265 38.0075 51.326 39.8353 56.518 38.5379C65.7212 36.2985 76.5639 27.2308 86.1223 27.7565C91.724 28.07 98.2824 30.1392 101.412 35.0574C102.927 37.5452 103.377 40.5857 104.892 43.0734C106.617 46.0339 109.09 48.6918 111.309 51.3656C116.419 57.6427 121.464 64.4866 122.365 71.8205C122.386 71.7425 122.505 71.6071 122.625 71.4718Z" fill="#D1D3C1"/>
<path opacity="0.7" d="M68.9671 30.9809C63.9387 33.2398 58.8779 34.9892 53.4397 35.6372C47.3353 36.2757 40.9478 36.0882 35.1911 38.5717C36.7906 39.1619 38.4608 38.8525 40.1679 38.7199C50.0609 37.6647 58.2953 41.9303 67.9409 37.3872C76.2449 33.4909 87.1362 25.1872 96.1784 32.0872C99.6514 34.7591 101.14 39.2432 102.93 43.2225C105.786 49.4876 112.747 52.2476 115.509 58.2373C115.985 59.2814 116.79 60.663 117.835 60.1883C117.407 52.6458 109.868 47.6461 108.029 40.0642C106.82 35.1534 106.085 30.0339 103.597 25.5358C95.9595 11.7454 77.3493 27.1052 68.9671 30.9809Z" fill="#EAE6D3"/>
<path d="M103.752 38.8492C103.982 39.2439 104.212 39.6387 104.541 39.9761C104.791 40.2928 105.12 40.6302 105.495 40.4788C105.791 40.3068 105.816 39.8961 105.82 39.5634C105.589 36.3302 104.416 33.1817 103.123 30.1685C102.532 28.927 101.941 27.6854 101.152 26.5586C99.5545 24.3828 97.302 22.7852 94.7031 22.181C91.3023 21.4481 87.9279 23.1429 84.9692 24.5304C83.8253 25.0624 82.7801 25.5371 81.6361 26.0692C80.3934 26.6586 79.1507 27.248 77.8873 27.9154C76.9202 28.4108 75.99 29.0828 75.6229 30.1543C75.8779 30.1383 76.0548 30.1016 76.2317 30.065C80.4567 29.263 84.3293 26.9488 88.628 26.5002C93.7698 26.0242 98.2099 28.2007 100.797 32.6415C101.868 34.5945 102.602 36.8755 103.752 38.8492Z" fill="#F7F3E8"/>
<path d="M52.1631 37.3027C52.1425 37.3807 52.2206 37.4014 52.2 37.4794C52.2574 37.5781 52.4137 37.6194 52.57 37.6608C55.617 38.467 59.2906 37.853 62.261 37.053C63.8738 36.645 65.5646 36.2576 67.1818 35.5169C68.0501 35.0788 68.8609 34.5421 69.6717 34.0054C70.1862 33.6407 71.3508 33.0306 71.5366 32.3285C71.5779 32.1725 71.541 31.9958 71.3848 31.9545C71.3066 31.9338 71.3066 31.9338 71.2079 31.9911C70.2246 32.2318 69.4182 32.4358 68.4718 32.8532C67.5047 33.3486 66.5008 33.6672 65.4763 34.0639C63.0321 35.0867 60.4155 35.8134 57.8401 36.3841C56.0711 36.7507 54.2859 36.8627 52.4019 37.032C52.3238 37.0113 52.3238 37.0113 52.225 37.0686C52.2044 37.1467 52.1838 37.2247 52.1631 37.3027Z" fill="#F7F3E8"/>
<path d="M107.476 46.2618C108.322 47.4874 109.189 48.6349 110.175 49.6471C110.697 50.2026 111.218 50.758 111.74 51.3134C112.147 51.6715 112.71 52.0709 112.469 51.0888C111.87 48.9271 110.144 47.5521 108.953 45.7345C108.665 45.2411 108.033 44.1555 107.284 44.4582C106.535 44.7609 107.188 45.7684 107.476 46.2618Z" fill="#F7F3E8"/>
<path d="M76.7553 76.1136C74.8891 74.952 72.8047 73.9831 70.7158 73.347C69.3302 72.8968 67.9813 72.6234 66.575 72.2513C63.8405 71.5278 60.9497 70.7629 58.6398 69.0666C56.2724 67.2716 55.9909 64.8599 55.5576 62.0741C55.1656 59.1323 55.0286 56.1745 55.3029 53.242C55.4814 51.6198 55.5611 50.0548 55.5832 48.3913C55.5641 46.8837 55.2325 45.2934 55.3903 43.7492C54.8831 45.034 54.6679 46.4796 54.317 47.8058C54.0073 48.976 53.8378 49.9328 53.8613 51.1076C53.8436 52.4385 53.5502 53.8634 53.4336 55.2516C53.3171 56.6398 53.18 58.106 52.9853 59.4736C52.7081 61.1532 52.8584 63.1128 52.4249 64.7511C51.9134 66.3686 50.7399 67.6441 49.6077 68.7636C49.1507 69.227 48.673 69.7684 48.0804 70.1124C47.5866 70.3991 47.1133 70.6078 46.5826 70.7178C45.48 71.0938 44.3773 71.4699 43.3734 71.7886C44.7959 72.4154 45.9679 72.7254 47.5555 72.7282C48.9869 72.6895 50.4021 72.3962 51.8173 72.1029C53.6851 71.6788 54.9484 71.0114 56.8604 71.6843C63.0237 73.9828 69.8962 74.5491 75.8162 77.4511C78.1144 78.56 80.2105 80.1163 82.3274 81.5946C80.8489 79.2835 78.9709 77.5345 76.7553 76.1136Z" fill="#EAE6D3"/>
<path d="M52.8593 70.3753C56.2823 69.4446 58.98 69.9914 62.2157 71.3484C66.9727 73.2748 72.7631 74.1391 77.3181 76.513C76.5044 75.7968 75.7114 75.0027 74.9183 74.2086C73.9322 73.1964 70.8601 72.8009 69.4744 72.3508C67.4637 71.7353 65.4736 71.0418 63.5823 70.2909C59.5078 68.6285 57.5841 67.3683 56.6423 63.0289C55.2215 56.3925 56.861 49.5641 55.3208 43.0631C54.6321 49.1413 54.1778 55.2816 53.9004 61.3852C53.8621 62.7941 54.0743 64.5197 53.7234 65.8459C53.2486 67.6402 53.4344 66.9381 51.9115 67.9542C50.6069 68.7776 46.2271 72.3767 44.5863 71.9426C47.4771 72.7075 50.1646 71.0813 52.8593 70.3753Z" fill="#5B5845"/>
<path opacity="0.65" d="M60.6705 96.1482C60.7324 95.9142 60.815 95.6021 60.8769 95.3681C61.6155 92.8924 63.2209 91.5642 65.8125 91.2483C68.8566 90.8016 70.8068 94.4896 70.4175 97.2247C70.2022 98.6702 69.9088 100.095 69.5373 101.499C68.8605 103.741 67.4556 106.207 64.696 105.895C63.4828 105.74 62.4347 104.962 61.7817 103.955C61.1287 102.947 60.8501 101.788 60.6703 100.572C60.4168 99.0027 60.3771 97.5731 60.6705 96.1482Z" fill="#FEFBEB"/>
<path d="M61.5988 97.0617C61.9807 93.4065 64.2333 90.5801 66.7585 90.8309C69.2056 91.061 70.9465 94.2762 70.6426 97.9521C70.2607 101.607 68.0081 104.434 65.4829 104.183C62.937 104.01 61.2743 100.816 61.5988 97.0617Z" fill="#999684"/>
<path d="M68.3002 95.7464C69.8775 98.0001 68.8867 101.745 66.9555 103.988C68.8277 103.232 70.2901 100.864 70.6426 97.9521C71.0245 94.2969 69.2837 91.0817 66.7585 90.8309C64.6446 90.6054 62.6765 92.6724 61.9128 95.5588C63.9339 93.9233 66.5299 93.2746 68.3002 95.7464Z" fill="#706E5E"/>
<path d="M105.886 58.2783C108.57 59.8233 109.826 62.6598 108.701 64.6994C107.576 66.739 104.475 67.087 101.77 65.62C99.0852 64.075 97.8293 61.2385 98.9542 59.1989C100.079 57.1593 103.181 56.8114 105.886 58.2783Z" fill="#8E8975"/>
<path d="M66.8886 50.2138C66.1795 51.9461 64.5785 52.9415 63.2916 52.4341C61.9266 51.9059 61.4018 50.0976 62.1316 48.2874C62.8407 46.5551 64.4417 45.5597 65.7286 46.0671C66.9949 46.6526 67.5196 48.4609 66.8886 50.2138Z" fill="#8E8975"/>
<path d="M39.2929 63.1964C41.0708 62.1643 43.1272 62.2911 43.8952 63.4959C44.5851 64.6802 43.6784 66.5271 41.9005 67.5592C40.1227 68.5913 38.0662 68.4645 37.3764 67.2803C36.5878 66.1535 37.4944 64.3065 39.2929 63.1964Z" fill="#706E5E"/>
<path opacity="0.9" d="M78.792 40.9261C78.2613 41.0361 77.71 41.2241 77.4299 41.6508C77.1704 41.9995 77.0466 42.4676 77.079 42.977C76.7235 49.06 89.6837 62.0051 90.8118 52.3702C91.4179 46.604 84.3747 39.7321 78.792 40.9261Z" fill="#AAA797"/>
<path d="M104.986 47.7733C98.5819 51.7551 89.97 50.812 82.7673 51.4939C86.4955 49.7257 90.2428 49.4651 94.0402 48.3831C97.9158 47.3217 101.66 45.8082 104.945 43.5053C107.32 41.7965 109.699 39.7549 111.531 37.5686C111.692 41.7013 108.266 45.8031 104.986 47.7733Z" fill="#EAE6D3"/>
<path d="M88.0056 49.7079C92.7641 50.0487 97.5979 49.1574 101.898 47.1232C103.812 46.2105 106.042 45.0477 107.668 43.6415C109.273 42.3134 110.226 39.9777 111.075 38.0321C111.116 37.876 107.407 41.1518 107.168 41.4225C105.147 43.058 102.954 44.3975 100.567 45.5189C96.5837 47.3031 92.2349 48.5732 88.0056 49.7079Z" fill="#5B5845"/>
<path d="M76.2745 61.9288L81.7378 56.0511V51.379H62.6728V57.1437H73.0719L68.3622 62.2302V66.94H71.4894C74.3529 66.94 75.5209 67.9196 75.5209 69.5021C75.5209 71.2729 73.8631 72.2525 71.3387 72.2525C68.852 72.2525 66.1392 71.499 64.0292 70.0672L61.3164 75.6812C64.0292 77.3767 67.91 78.281 71.5648 78.281C79.5148 78.281 83.0565 73.9857 83.0565 69.5021C83.0565 65.7343 80.7205 62.8708 76.2745 61.9288Z" fill="#494739"/>
</svg>
