<svg width="176" height="201" viewBox="0 0 176 201" fill="none" xmlns="http://www.w3.org/2000/svg">
<path opacity="0.87" d="M154.534 37.6659C154.602 37.6992 154.67 37.7325 154.738 37.7658C154.873 37.8324 154.941 37.8657 155.077 37.9324C155.213 37.999 155.28 38.0323 155.416 38.0989C155.552 38.1656 155.687 38.2322 155.891 38.3321C156.027 38.3987 156.162 38.4654 156.265 38.5997C156.4 38.6663 156.536 38.7329 156.638 38.8673C156.706 38.9006 156.774 38.9339 156.809 39.035C156.944 39.1016 157.114 39.2693 157.25 39.3359C157.318 39.3692 157.42 39.5035 157.488 39.5369C157.556 39.5702 157.624 39.6035 157.658 39.7045C157.726 39.7378 157.829 39.8722 157.896 39.9055C158.032 39.9721 158.067 40.0732 158.202 40.1398C158.27 40.1731 158.373 40.3074 158.44 40.3408C158.508 40.3741 158.508 40.3741 158.543 40.4751L158.611 40.5084C158.746 40.5751 158.781 40.6761 158.917 40.7427C159.019 40.8771 159.155 40.9437 159.257 41.078C159.325 41.1114 159.359 41.2124 159.427 41.2457C159.495 41.279 159.53 41.3801 159.53 41.3801C159.734 41.6488 159.972 41.8498 160.177 42.1185C160.45 42.4205 160.689 42.7902 160.861 43.1266C160.895 43.2277 160.998 43.3621 161.032 43.4631C161.169 43.6985 161.306 43.9339 161.41 44.237C161.512 44.3713 161.514 44.5401 161.616 44.6745C161.753 44.9099 161.789 45.1797 161.926 45.4151C161.995 45.6171 162.03 45.7182 162.031 45.8869C162.135 46.1901 162.171 46.4599 162.274 46.763C162.276 46.9318 162.378 47.0661 162.379 47.2349C162.483 47.538 162.486 47.8755 162.589 48.1787C162.591 48.3474 162.625 48.4485 162.626 48.6173C162.697 48.9881 162.666 49.3934 162.737 49.7642C162.771 49.8653 162.738 49.933 162.773 50.034C163.234 57.3222 160.538 66.9264 157.864 74.944L157.898 75.0451L157.83 75.0117C156.345 79.5785 154.823 83.7066 153.933 86.5479C150.045 99.2654 144.87 111.688 137.319 122.606C136.718 123.488 136.015 124.404 135.414 125.285C134.11 127.083 132.704 128.746 131.197 130.444C130.46 131.259 129.723 132.074 128.885 132.923C128.047 133.772 127.175 134.69 126.269 135.506C117.379 143.665 106.339 149.003 94.9498 152.993C89.2553 154.988 83.3894 156.647 77.691 158.136C77.5221 158.137 77.3877 158.239 77.2188 158.24C77.1177 158.275 77.1177 158.275 77.0166 158.309C76.9155 158.343 76.8144 158.378 76.7133 158.412C76.6122 158.447 76.6122 158.447 76.5111 158.481C76.41 158.515 76.309 158.55 76.2079 158.584C76.1068 158.619 76.0389 158.585 76.0057 158.653C75.9046 158.688 75.8035 158.722 75.7024 158.756C75.6013 158.791 75.5002 158.825 75.5002 158.825C75.3991 158.86 75.298 158.894 75.0958 158.963C74.9947 158.997 74.8936 159.032 74.7926 159.066C74.6915 159.101 74.5904 159.135 74.3882 159.204C74.2871 159.238 74.186 159.273 74.0849 159.307C73.9838 159.341 73.7816 159.41 73.6806 159.445C73.5795 159.479 73.4783 159.514 73.3772 159.548C73.2761 159.582 73.074 159.651 72.9729 159.686C72.8718 159.72 72.7707 159.754 72.6696 159.789C72.4674 159.858 72.3663 159.892 72.1642 159.961C72.0631 159.995 72.0631 159.995 71.962 160.03C71.7598 160.099 71.5576 160.167 71.3554 160.236C71.3554 160.236 71.3554 160.236 71.2543 160.271C70.7156 160.511 70.1423 160.649 69.6036 160.889L69.5025 160.923C69.3003 160.992 69.0648 161.129 68.7948 161.164C68.7948 161.164 68.7948 161.164 68.6937 161.199C67.6828 161.543 66.7397 161.92 65.6277 162.299C65.5266 162.333 65.5266 162.333 65.4255 162.368C65.2233 162.437 65.0211 162.506 64.819 162.574C64.7179 162.609 64.6168 162.643 64.5157 162.678C64.3135 162.746 64.1792 162.849 64.0102 162.85C63.9091 162.884 63.808 162.919 63.7069 162.953C63.5047 163.022 63.4036 163.056 63.2015 163.125C63.1004 163.159 62.9993 163.194 62.7971 163.263C62.5949 163.332 62.4938 163.366 62.2916 163.435C62.1906 163.469 62.0894 163.504 61.8873 163.572C61.6851 163.641 61.584 163.676 61.3818 163.745C61.2807 163.779 61.1118 163.78 60.9775 163.882C60.7753 163.951 60.6742 163.985 60.472 164.054C60.3709 164.089 60.202 164.09 60.0676 164.192C59.8654 164.261 59.6965 164.262 59.5621 164.364C59.4611 164.398 59.2921 164.4 59.1578 164.502C58.9556 164.571 58.7866 164.572 58.6523 164.674C58.5512 164.708 58.3823 164.709 58.2479 164.811C58.0458 164.88 57.8768 164.881 57.7425 164.984C57.6414 165.018 57.4725 165.019 57.3381 165.121C57.1359 165.19 56.967 165.191 56.8326 165.293C56.7315 165.328 56.5626 165.329 56.4616 165.363C56.2594 165.432 56.0904 165.433 55.8882 165.502C55.7871 165.536 55.6861 165.571 55.5171 165.572C55.315 165.641 55.146 165.642 54.9438 165.711C54.8427 165.745 54.7417 165.78 54.6406 165.814C54.4384 165.883 54.2695 165.884 54.0673 165.953C53.9662 165.987 53.8983 165.954 53.7972 165.988C53.1228 166.161 52.3806 166.301 51.6717 166.373C51.5706 166.408 51.4695 166.442 51.4017 166.409C51.2328 166.41 51.0306 166.479 50.8617 166.48C50.7606 166.514 50.5916 166.516 50.4905 166.55C50.3216 166.551 50.1194 166.62 49.9505 166.621C49.8494 166.655 49.6805 166.657 49.5794 166.691C49.4105 166.692 49.2416 166.693 49.0394 166.762C48.9383 166.796 48.7693 166.798 48.6683 166.832C48.4993 166.833 48.3304 166.834 48.2293 166.869C48.1282 166.903 47.9593 166.904 47.8582 166.939C47.6893 166.94 47.5203 166.941 47.4193 166.975C47.3182 167.01 47.1493 167.011 47.0814 166.977C46.9125 166.978 46.7436 166.98 46.6425 167.014C46.5414 167.048 46.3725 167.05 46.3046 167.016C46.1357 167.017 45.9668 167.018 45.8657 167.053C45.7646 167.087 45.629 167.021 45.5279 167.055C45.3589 167.056 45.19 167.057 45.0889 167.092C44.9878 167.126 44.8522 167.059 44.7511 167.094C44.5821 167.095 44.4132 167.096 44.3454 167.063C44.2443 167.097 44.1086 167.031 44.0075 167.065C43.8386 167.066 43.7029 166.999 43.6019 167.034C43.5008 167.068 43.3651 167.002 43.2973 166.968C43.1284 166.969 42.9927 166.903 42.8916 166.937C42.8238 166.904 42.7227 166.938 42.6549 166.905C42.6549 166.905 42.6548 166.905 42.587 166.872C42.4181 166.873 42.2824 166.806 42.1813 166.841C42.1135 166.807 41.9446 166.808 41.8768 166.775C41.7411 166.708 41.5722 166.71 41.4365 166.643C41.3687 166.61 41.3008 166.576 41.1998 166.611C41.1319 166.577 41.0641 166.544 40.963 166.579C40.8274 166.512 40.6584 166.513 40.5227 166.446C40.4549 166.413 40.4549 166.413 40.3871 166.38C40.2515 166.313 40.1158 166.247 39.9468 166.248C39.879 166.214 39.879 166.214 39.8112 166.181C39.8112 166.181 39.8112 166.181 39.7434 166.148C39.6755 166.114 39.6077 166.081 39.5399 166.048C39.4042 165.981 39.3364 165.948 39.2007 165.881C39.1329 165.848 38.9972 165.781 38.9294 165.748C38.7937 165.681 38.7259 165.648 38.5902 165.581C38.5224 165.548 38.4546 165.515 38.4546 165.515C38.3867 165.481 38.3868 165.481 38.3189 165.448C38.2511 165.415 38.1833 165.382 38.0476 165.315C37.9798 165.282 37.9119 165.248 37.9119 165.248C37.8441 165.215 37.7763 165.182 37.7084 165.148C37.6406 165.115 37.5728 165.082 37.5382 164.981C37.4704 164.947 37.4026 164.914 37.4358 164.846C37.368 164.813 37.3334 164.712 37.1977 164.645C37.0621 164.579 37.0275 164.478 36.8918 164.411C36.824 164.378 36.7894 164.277 36.7216 164.243C36.7216 164.243 36.6538 164.21 36.6871 164.142C36.6192 164.109 36.5846 164.008 36.449 163.941C36.3812 163.908 36.4144 163.84 36.3466 163.807C36.2787 163.774 36.312 163.706 36.2442 163.673C36.2096 163.572 36.1418 163.538 36.1072 163.437C36.0394 163.404 36.0727 163.336 36.0048 163.303C35.937 163.27 35.9024 163.169 35.8678 163.068L35.8 163.034C35.7655 162.933 35.6976 162.9 35.6631 162.799C35.6285 162.698 35.5607 162.664 35.5261 162.563C35.4915 162.462 35.4237 162.429 35.3891 162.328C35.3545 162.227 35.2867 162.194 35.2522 162.093C35.1843 162.059 35.2176 161.992 35.1497 161.958C35.1152 161.857 35.0806 161.756 35.0128 161.723C34.9782 161.622 34.9437 161.521 34.8758 161.488C34.8758 161.488 34.8758 161.488 34.8413 161.386C34.8067 161.285 34.7043 161.151 34.703 160.982C34.6684 160.881 34.6684 160.881 34.6338 160.78L34.5993 160.679C34.5647 160.578 34.5647 160.578 34.5301 160.477C34.4956 160.376 34.4264 160.174 34.3918 160.073L34.3573 159.972C34.3573 159.972 34.3227 159.871 34.356 159.803C34.356 159.803 34.356 159.803 34.3893 159.735C34.3547 159.634 34.2855 159.432 34.2842 159.264C34.2497 159.162 34.2497 159.162 34.2151 159.061C34.2151 159.061 34.2151 159.061 34.1805 158.96C34.1805 158.96 34.2138 158.893 34.1459 158.859C34.1446 158.691 34.0755 158.489 34.0742 158.32C34.0396 158.219 34.0396 158.219 34.0051 158.118C33.9692 157.848 33.9333 157.578 33.9307 157.24C33.964 157.173 33.8961 157.139 33.9294 157.072C33.8935 156.802 33.9255 156.565 33.8896 156.296C33.855 156.195 33.8883 156.127 33.887 155.958C33.9189 155.722 33.8498 155.519 33.8818 155.283C33.8472 155.182 33.8804 155.114 33.8791 154.945C33.8765 154.608 33.8739 154.27 33.9046 153.865C34.0232 151.738 34.6154 149.675 35.1398 147.578C35.4339 146.294 35.6947 145.077 35.7521 143.76C36.0723 137.108 30.5401 129.516 27.0722 122.348C24.7717 117.604 23.4183 112.988 25.2797 109.027C25.6123 108.349 26.0127 107.705 26.481 107.095C32.0351 100.071 40.2373 94.6839 47.0124 88.2598C48.5888 86.7643 50.0973 85.2354 51.4702 83.6399C52.0063 83.0625 52.5078 82.3841 53.044 81.8068C59.1023 74.4422 64.3146 66.9144 71.7707 61.1609C73.6516 59.7309 75.6683 58.3675 77.8551 57.1717C79.2013 56.4878 80.5474 55.8039 81.9282 55.221C83.6454 54.4672 85.3973 53.8144 87.1491 53.1616C88.9009 52.5087 90.7206 51.8892 92.507 51.3375C100.359 48.7207 114.361 41.8105 128.016 38.1769C128.42 38.0392 128.859 38.0026 129.264 37.8649C130.107 37.6906 130.882 37.483 131.726 37.3087C132.097 37.2388 132.569 37.1344 132.94 37.0645C136.212 36.4017 139.385 35.9421 142.458 35.8545C143.235 35.8157 143.979 35.8446 144.722 35.8735C145.229 35.8702 145.635 35.9013 146.108 35.9657L146.176 35.999C146.582 36.0301 146.92 36.0279 147.292 36.1267C147.36 36.16 147.393 36.0923 147.461 36.1256C147.867 36.1567 148.171 36.2222 148.577 36.2533C148.645 36.2866 148.645 36.2866 148.746 36.2522C148.814 36.2855 148.915 36.2511 148.983 36.2844C149.152 36.2833 149.287 36.3499 149.456 36.3488L149.524 36.3822C149.761 36.4144 150.065 36.4799 150.302 36.5121L150.37 36.5454C150.607 36.5776 150.878 36.7109 151.115 36.7431L151.183 36.7764C151.419 36.8086 151.691 36.9418 151.927 36.974C151.995 37.0074 152.063 37.0407 152.131 37.074C152.199 37.1073 152.266 37.1406 152.402 37.2072C152.673 37.3405 152.978 37.406 153.182 37.506C153.249 37.5393 153.317 37.5726 153.385 37.6059L153.453 37.6392C153.521 37.6725 153.589 37.7058 153.656 37.7391C153.724 37.7725 153.86 37.8391 153.928 37.8724C154.399 37.5992 154.466 37.6326 154.534 37.6659Z" fill="#444235"/>
<path d="M77.0901 58.7288C75.7094 59.3117 74.3632 59.9956 73.017 60.6795C61.2753 67.1024 55.0038 77.4726 46.6321 87.1477C39.1983 95.7702 28.5021 101.95 21.6429 110.602C13.5452 120.748 31.4983 135.45 30.8808 147.336C30.7048 150.78 29.2093 153.996 29.0665 157.373C27.7742 182.462 62.6373 164.445 72.8542 161.812C91.197 157.034 110.542 150.73 124.083 136.701C136.551 123.826 143.924 107.271 149.131 90.3255C152.229 80.2461 162.949 55.3318 155.342 45.9638C141.355 28.6711 102.901 49.7161 87.77 54.8108C84.0961 55.9488 80.5246 57.2211 77.0901 58.7288Z" fill="#B8B59B"/>
<path opacity="0.9" d="M29.0857 159.905L29.1535 159.938C29.4581 160.004 29.7294 160.137 30.0686 160.304C34.3406 162.234 39.2538 164.058 43.8988 161.8C44.9085 161.287 45.9167 160.605 46.9968 160.463C48.009 160.288 49.0584 160.551 50.1065 160.645C56.2263 161.213 61.4967 156.824 66.8801 153.92C71.4892 151.391 77.9513 148.176 83.3288 148.884C84.6137 149.01 85.9344 149.407 87.2193 149.533C94.1171 150.231 98.5391 145.341 104.434 143.108C105.276 142.765 106.118 142.422 106.518 141.61C106.984 140.83 106.74 139.785 106.868 138.839C107.415 135.325 111.834 134.385 114.964 132.812C116.31 132.128 118.092 131.07 118.926 129.714C119.594 128.697 119.315 127.551 120.354 126.464C122.566 124.188 125.969 122.917 127.196 119.905C127.362 119.566 127.426 119.093 127.355 118.722C127.25 118.25 126.741 117.916 126.434 117.513C125.922 116.841 125.813 115.863 126.179 115.118C126.312 114.847 126.412 114.644 126.444 114.407C126.406 113.969 125.932 113.736 125.526 113.704C125.12 113.673 124.717 113.98 124.381 114.151C122.263 115.549 119.842 117.05 117.307 116.897C119.574 112.967 123.737 109.632 127.675 107.614C129.122 106.896 130.774 106.446 132.015 105.291C133.323 103.999 133.814 101.971 135.361 101.049C136.202 100.537 137.249 100.463 138.123 99.8836C138.996 99.304 139.428 98.2547 139.758 97.2399C140.851 94.4986 141.91 91.6562 143.004 88.9148C143.534 87.4936 145.162 84.0061 144.037 82.697C143.457 81.992 142.375 81.7965 142.03 80.9549C141.79 80.4163 141.953 79.7402 142.287 79.2316C143.652 76.6235 147.022 75.4201 148.115 72.6787C148.911 70.7157 148.353 68.424 148.844 66.3954C149.204 64.9753 150.04 63.7884 150.435 62.4694C150.993 60.3053 150.368 58.1491 149.743 55.9928C147.87 49.6928 143.054 43.0407 137.249 39.433C144.612 39.1823 151.011 40.8958 155.275 46.1C162.882 55.4681 152.162 80.3823 149.064 90.4617C143.857 107.407 136.485 123.962 124.016 136.837C110.475 150.866 91.1301 157.17 72.7873 161.949C63.008 164.375 30.2639 181.163 29.0857 159.905Z" fill="#D3CEBA"/>
<path opacity="0.7" d="M107.11 74.0601C107.785 73.8869 108.391 73.6804 109.066 73.5072C114.323 71.7175 118.44 66.7623 123.148 63.8623C127.956 60.9279 134.091 59.0649 139.311 61.2924C139.583 61.4257 139.922 61.5922 140.025 61.8953C140.129 62.1985 140.064 62.5027 139.898 62.8413C139.067 64.7033 137.321 66.0312 135.641 67.2236C132.684 69.3021 129.323 71.6869 128.813 75.6397C128.495 78.1734 129.177 79.0129 130.276 81.2335C131.407 83.3865 130.38 85.9924 129.112 88.0598C125.776 93.4825 120.944 97.8348 115.77 101.514C111.434 104.513 105.409 107.354 105.661 113.699C105.79 117.377 109.891 118.971 108.101 123.472C105.648 129.496 98.5458 132.986 93.9458 136.695C84.4771 144.318 76.8893 150.512 64.6166 149.444C60.2552 149.068 55.8117 146.801 54.0232 142.729C53.4728 141.449 53.1577 140.034 52.3385 138.959C51.3478 137.548 49.6866 136.816 48.0932 136.118C43.8545 134.12 39.8153 131.716 36.0435 128.939C35.2282 128.37 34.3438 127.6 34.3014 126.486C34.1885 125.002 35.6664 123.878 36.8769 123.127C47.3005 116.646 58.3078 111.375 69.73 107.318C71.9873 106.493 74.7155 105.395 75.3383 102.926C69.2518 102.291 61.7194 102.543 55.9271 100.623C56.0803 98.5966 58.4041 97.6362 60.2584 97.1178C64.9445 95.8044 69.5602 94.1202 74.0722 92.1329C78.0787 90.3176 80.1527 87.6374 82.9996 84.412C85.7121 81.2887 89.3422 78.8683 93.2503 77.425C97.6625 75.6409 102.491 75.238 107.11 74.0601Z" fill="#C9C4AB"/>
<path d="M29.2002 161.558C31.3773 163.468 33.754 164.971 36.7998 165.626C44.8547 167.397 52.1575 163.669 59.2274 160.416C73.5017 153.808 89.8168 153.33 103.884 146.116C117.176 139.278 126.502 126.288 133.901 113.109C134.833 111.381 126.092 112.553 126.991 110.893C127.89 109.233 138.397 104.81 139.196 103.184C143.19 95.3942 147.862 87.9374 150.398 79.5157C152.375 72.9204 157.148 47.9438 143.704 39.6604C148.305 40.4066 152.307 42.3721 155.173 45.9652C162.78 55.3332 152.06 80.2474 148.962 90.3268C143.755 107.272 136.382 123.827 123.914 136.702C110.373 150.732 91.028 157.035 72.6852 161.814C63.2784 164.339 32.048 180.274 29.2002 161.558Z" fill="#9E9B83"/>
<path d="M62.6541 162.182C51.3064 167.117 41.3568 169.376 30.0343 164.488C29.69 163.647 29.4121 162.67 29.2686 161.59C31.4457 163.5 33.8224 165.004 36.8683 165.659C44.9231 167.429 52.2259 163.702 59.2959 160.449C73.5701 153.841 89.8852 153.363 103.952 146.148C116 139.96 124.832 128.661 131.936 116.767C131.154 120.417 123.626 134.374 112.111 143.934C109.862 145.772 102.031 151.089 101.431 152.139C98.8049 153.372 96.11 154.402 93.415 155.432C83.8216 151.309 71.2072 158.481 62.6541 162.182Z" fill="#898468"/>
<path d="M148.417 41.7217C155.787 46.6019 156.764 59.3551 154.133 68.6551C152.193 75.5201 151.985 83.6566 145.589 91.0234C147.52 87.2639 149.213 83.4722 150.432 79.4473C152.408 72.8521 157.182 47.8755 143.738 39.592C144.753 39.7541 145.802 40.0173 146.751 40.3149C147.127 40.92 147.704 41.2876 148.417 41.7217Z" fill="#898468"/>
<path d="M127.027 111.162L127.128 111.128C128.209 111.154 129.221 110.979 130.335 110.769C131.65 110.49 134.678 108.783 136.032 109.111C137.555 109.439 138.661 112.672 139.919 113.711C139.72 114.117 139.487 114.591 139.287 114.997C137.556 113.895 135.792 113.029 134.1 112.702C133.586 111.693 127.407 112.273 127.027 111.162Z" fill="#847F66"/>
<path opacity="0.54" d="M113.093 65.6488C114.549 66.1119 115.999 65.7311 116.261 64.6829C116.558 63.7358 115.636 62.5267 114.18 62.0636C112.724 61.6006 111.342 62.0147 111.012 63.0295C110.682 64.0443 111.636 65.1858 113.093 65.6488Z" fill="#4C4A38"/>
<path opacity="0.65" d="M67.9694 146.216C70.4648 145.593 72.919 144.024 74.0486 141.552C74.2482 141.146 74.4132 140.638 74.1392 140.168C73.6259 139.327 72.4767 139.267 71.5962 139.003C70.0387 138.574 67.9451 138.723 66.1587 139.275C64.9789 139.62 63.8349 140.235 62.792 140.816C61.8502 141.362 60.6385 141.944 60.0026 142.724C58.8651 144.183 59.8891 145.527 61.4466 145.955C63.7157 146.649 65.6762 146.772 67.9694 146.216Z" fill="#E2DFD7"/>
<path d="M66.8137 145.312C70.6911 144.274 73.478 142.028 73.0259 140.377C72.5739 138.726 69.0226 138.243 65.1452 139.281C61.2678 140.319 58.4809 142.565 58.933 144.216C59.4195 145.968 62.903 146.418 66.8137 145.312Z" fill="#A49E85"/>
<path opacity="0.55" d="M62.7064 142.875C61.1966 144.236 61.1366 145.215 62.1553 145.883C60.4648 145.726 59.2784 145.227 59.0006 144.25C58.5485 142.599 61.3354 140.353 65.2128 139.315C67.236 138.795 69.0928 138.614 70.5479 138.908C69.7711 138.947 64.7191 141.006 62.7064 142.875Z" fill="#51493C"/>
<path opacity="0.65" d="M91.3142 115.481C92.3624 115.575 93.4078 115.332 94.3842 114.887C94.9229 114.647 95.9645 113.897 95.9926 113.155C95.9899 112.817 95.7506 112.447 95.4447 112.213C94.2557 111.377 92.7315 110.881 91.1779 110.958C90.4011 110.997 89.7267 111.17 89.019 111.411C88.4125 111.618 87.5692 111.792 87.1328 112.166C85.454 113.527 88.2671 114.657 89.2832 114.988C89.8937 115.287 90.5707 115.452 91.3142 115.481Z" fill="#E2DFD7"/>
<path d="M90.8008 114.64C93.199 114.556 95.185 113.598 95.1093 112.552C95.0336 111.506 93.0346 110.777 90.6364 110.86C88.2382 110.943 86.2522 111.901 86.3279 112.947C86.3357 113.96 88.3348 114.689 90.8008 114.64Z" fill="#A49E85"/>
<path opacity="0.55" d="M88.6907 112.594C87.6478 113.175 87.4495 113.75 87.9602 114.253C87.0119 113.955 86.3323 113.453 86.3616 112.879C86.286 111.833 88.2387 110.943 90.6701 110.792C91.9537 110.75 93.0363 110.945 93.8835 111.277C93.3768 111.281 90.1034 111.775 88.6907 112.594Z" fill="#51493C"/>
<path d="M112.382 122.296C110.626 122.443 109.212 123.093 109.252 123.869C109.292 124.646 110.816 125.142 112.572 124.995C114.328 124.849 115.742 124.198 115.702 123.422C115.629 122.714 114.105 122.218 112.382 122.296Z" fill="#A49E85"/>
<path d="M86.321 94.4487C84.7341 94.5941 83.1166 95.1448 81.7718 95.9974C81.2676 96.3383 80.7302 96.7469 80.1915 96.9867C79.0808 97.5341 77.7294 97.5429 76.5111 97.2808C78.7312 96.0173 80.9526 94.9226 83.0025 93.4915C84.1784 92.6399 85.7215 91.2121 87.1727 91C89.8063 90.7803 91.5922 94.5155 93.0244 96.2277C93.6388 97.0338 96.3306 99.9529 97.1472 100.69C99.8017 103.171 103.191 104.499 106.412 105.997C109.905 107.628 113.397 109.259 116.855 110.789C113.005 110.916 109.278 109.59 105.687 108.331C103.823 107.668 101.892 106.971 100.361 105.631C99.4091 104.827 98.7256 103.819 97.8744 102.981C96.1734 101.473 93.8365 100.746 92.0012 99.3399C90.7776 98.4027 89.8892 97.1258 89.0687 95.8822C88.6924 95.2771 88.3161 94.6719 87.6045 94.4065C87.2321 94.3077 86.8943 94.3099 86.5564 94.3121C86.4899 94.4476 86.3888 94.482 86.321 94.4487Z" fill="#EAE6D3"/>
<path opacity="0.6" d="M138.035 44.8619C127.522 44.1543 117.609 51.139 108.074 54.6107C98.0008 58.3221 86.9034 60.6901 77.3114 65.4786C69.1666 69.5488 64.6032 77.9838 57.2098 83.0955C53.5131 85.6514 49.6129 88.1073 46.8365 91.7035C43.3577 96.2158 43.2279 101.28 38.0507 104.622C31.663 108.714 27.3409 113.401 29.2285 121.557C31.1494 129.646 37.3481 136.053 36.2003 144.904C35.3095 152.033 32.6949 159.071 36.3291 165.899C37.357 167.749 38.6191 169.294 40.1153 170.533C33.3903 170.341 28.5332 167.031 29.0666 157.373C29.2427 153.929 30.7381 150.712 30.8809 147.336C31.4984 135.45 13.5121 120.816 21.6431 110.603C28.5023 101.95 39.2663 95.8037 46.6323 87.1478C54.9361 77.4394 61.2076 67.0692 73.0172 60.6797C74.3633 59.9958 75.7095 59.3118 77.0902 58.729C80.5247 57.2213 84.1308 56.05 87.7023 54.7777C102.866 49.6152 141.356 28.6712 155.274 45.9306C157.423 48.5832 158.096 52.5282 157.927 56.9851C153.651 50.0931 146.317 45.4828 138.035 44.8619Z" fill="#DDD9C7"/>
<path d="M43.904 105.731C45.2248 106.127 46.5468 106.692 47.7345 107.36C48.5152 107.827 49.1948 108.329 49.9423 108.864C51.5383 109.9 53.2686 110.834 54.9976 111.599C56.2185 112.199 56.9725 113.578 57.1519 114.927C57.33 116.107 58.0135 117.115 58.4949 118.192C58.3233 117.856 57.4748 117.355 57.2354 116.985C56.5186 116.045 55.8684 114.969 55.1848 113.961C55.0825 113.826 54.98 113.692 54.8776 113.558C54.7074 113.39 54.5039 113.29 54.2326 113.157C50.6362 111.223 47.4378 108.307 43.6751 106.711C42.2174 106.079 40.6267 105.718 39.0359 105.358C40.6893 105.077 42.3798 105.234 43.904 105.731Z" fill="#EAE6D3"/>
<path d="M72.1363 112.702C71.458 112.369 70.7452 111.935 69.9671 111.805C69.2901 111.641 68.6144 111.645 67.8376 111.684C64.6959 111.738 61.4863 111.759 58.3831 112.421C58.1809 112.49 58.012 112.491 57.9122 112.694C57.8457 112.829 57.847 112.998 57.7805 113.134C57.787 113.977 57.8601 114.686 58.0355 115.529C58.106 115.899 58.1432 116.338 58.3147 116.674C58.3493 116.776 58.7934 117.414 58.7934 117.414C58.8228 116.84 58.8854 116.198 58.9147 115.624C58.9786 115.151 58.9747 114.645 59.1743 114.238C59.6399 113.29 60.5191 113.386 61.3638 113.38C63.3908 113.367 65.4857 113.387 67.5128 113.374C68.7631 113.399 69.9456 113.392 71.1972 113.586C71.9753 113.716 72.6868 113.981 73.4317 114.179C74.2443 114.41 75.0237 114.709 75.8018 114.839C74.9839 113.933 73.324 113.37 72.1363 112.702Z" fill="#EAE6D3"/>
<path d="M56.4732 114.425C55.444 112.406 54.0847 111.403 52.1176 110.437C49.2687 109.037 46.4798 106.659 43.4301 105.498C44.1403 105.594 44.816 105.59 45.5263 105.686C49.2237 107.586 52.6576 110.365 56.8181 110.98C60.0316 111.465 63.3357 110.566 66.5811 110.814C69.9276 111.029 72.5039 112.126 75.4539 113.491C75.7252 113.624 75.9966 113.757 76.3011 113.823C76.5072 114.26 76.7479 114.799 76.954 115.236C76.6827 115.103 76.3781 115.037 76.1746 114.937C74.8193 114.44 69.4926 111.572 69.2278 112.282C67.2673 112.16 65.1404 112.377 63.1812 112.423C62.6744 112.427 62.1676 112.43 61.6609 112.433C60.3427 112.374 59.0246 112.315 57.9804 112.727C58.165 114.751 58.5544 117.044 59.2791 118.997C57.6153 117.928 57.2963 116.006 56.4732 114.425Z" fill="#4F4C3F"/>
<path opacity="0.7" d="M137.773 45.9099C136.455 45.8511 135.07 45.9276 133.788 46.1385C128.795 47.0488 124.529 50.2498 119.983 52.3048C102.34 60.1165 82.7526 61.2572 67.9573 74.755C65.5415 76.9311 64.3148 79.9434 61.8977 81.9508C61.3655 83.0344 58.0321 84.5077 57.0583 85.2905C55.1109 86.856 53.1966 88.3537 51.2491 89.9192C50.443 90.5321 49.1634 91.0805 48.6501 90.24C50.7175 86.7159 53.2265 83.4927 56.1438 80.6382C59.7981 76.9687 61.818 71.6558 65.846 68.2539C70.0416 64.6822 75.1667 63.3322 80.2892 61.6447C86.7604 59.6108 93.1612 57.206 99.425 54.5659C100.705 54.0174 101.984 53.4689 103.127 52.6851C104.001 52.1055 104.705 51.3583 105.579 50.7788C109.174 48.2573 113.905 48.3952 117.913 46.7487C121.719 45.171 125.009 42.4153 129.159 41.6793C135.028 40.527 145.236 41.0003 148.46 47.2915C148.632 47.628 148.771 48.2009 148.435 48.3719C148.233 48.4407 147.996 48.4085 147.759 48.3763C144.104 47.5901 141.626 46.121 137.773 45.9099Z" fill="#EAE6D3"/>
<path opacity="0.7" d="M35.0322 107.51C32.6869 110.057 30.1048 112.572 30.1335 116.285C30.1186 118.716 30.9815 121.073 31.9109 123.295C31.5451 124.04 34.0503 129.053 34.3294 130.199C34.679 131.715 35.2321 133.332 34.9739 134.887C31.4095 132.716 28.3219 126.66 25.7286 123.369C24.6368 121.992 23.5782 120.547 23.2606 118.794C22.7674 116.198 24.0992 113.658 25.5347 111.421C27.1365 108.845 28.9751 106.301 31.428 104.564C34.7882 102.179 39.3426 101.305 41.6481 97.9818C42.0486 97.3379 42.4823 96.6262 43.1912 96.554C45.4524 96.2354 41.5451 102.134 41.1433 102.61C40.3744 103.661 39.4698 104.646 38.395 105.463C37.3534 106.213 36.0379 106.491 35.0322 107.51Z" fill="#EAE6D3"/>
<path opacity="0.7" d="M36.4172 151.148C36.0566 152.568 35.5602 153.922 35.4696 155.306C35.3855 157.535 36.6568 160.26 35.6589 162.292C33.4922 161.733 30.9453 160.062 30.5891 157.701C30.3765 156.42 30.8396 155.134 31.3704 153.881C32.2672 151.884 33.4007 149.919 33.7215 147.723C33.88 146.371 33.8017 144.988 34.0959 143.703C34.4578 142.452 35.2267 141.4 36.3361 140.684C37.4756 143.85 37.237 147.936 36.4172 151.148Z" fill="#EAE6D3"/>
<path d="M34.7383 156.795C34.7089 157.37 34.6463 158.011 34.6848 158.619C34.6874 158.956 34.7233 159.226 34.5225 159.464C34.3894 159.735 33.985 159.872 33.7137 159.739C33.578 159.672 33.5435 159.571 33.5089 159.47C32.5834 157.755 33.0438 156.131 33.334 154.341C33.5936 152.955 33.921 151.602 34.4519 150.35C34.6514 149.944 35.0505 149.131 35.5599 149.465C36.1039 149.9 35.6089 151.423 35.545 151.896C35.0846 153.519 34.8609 155.174 34.7383 156.795Z" fill="#EFEBDC"/>
<path d="M33.7145 107.451C33.648 107.587 33.5482 107.79 33.4138 107.892C32.1088 109.521 30.4685 111.49 29.8763 113.553C29.2841 115.616 29.5046 117.909 30.2971 119.896C30.6415 120.738 30.9526 121.647 30.6213 122.493C30.5548 122.628 30.455 122.832 30.3539 122.866C29.9162 123.071 29.4734 122.602 29.234 122.232C28.6183 121.257 28.0691 120.147 27.6889 119.035C26.6838 115.768 27.7736 112.52 29.7132 109.942C30.3824 109.094 31.1872 108.312 31.9242 107.497C32.1251 107.259 33.0988 106.477 33.4366 106.474C33.9102 106.539 33.9141 107.045 33.7145 107.451Z" fill="#EFEBDC"/>
<path d="M75.5527 65.2871C77.5054 64.3967 79.4595 63.675 81.4481 63.0544C82.459 62.7103 83.3342 62.2995 84.3452 61.9553C84.7495 61.8176 87.2116 61.2614 85.9026 62.3839C83.6199 64.2892 80.55 64.8831 77.9242 66.1155C74.4564 67.6909 71.3662 70.0402 68.8892 73.0269C67.8848 74.2149 66.9828 75.5373 65.7749 76.6254C65.3053 77.0673 64.2944 77.4114 64.0524 76.7041C63.9487 76.401 64.0818 76.1301 64.2148 75.8592C66.8106 70.7451 70.3344 67.6841 75.5527 65.2871Z" fill="#EFEBDC"/>
<path d="M105.588 56.4162C110.038 55.2394 114.758 53.8583 118.864 51.8399C122.937 49.8892 126.905 47.4666 131.118 46.0888C131.623 45.9168 132.23 45.7103 132.463 45.2362C129.958 44.6787 127.433 45.8767 125.145 47.1068C121.41 49.0553 118.009 50.4953 114.066 51.8375C110.326 53.1109 106.585 54.3844 102.88 55.7588C101.06 56.3783 99.2429 57.3354 97.3541 57.7528C97.1851 57.7539 93.3436 59.0617 94.2254 59.4948C94.9715 59.8612 95.7803 59.5859 96.5558 59.3783C99.5886 58.3458 102.554 57.28 105.588 56.4162Z" fill="#EFEBDC"/>
<path d="M150.792 77.8586C150.317 77.6254 149.875 77.3244 149.366 76.9902C147.499 75.821 145.531 74.8549 143.599 73.9899C141.7 73.0572 139.702 72.4964 137.703 71.7669C140.641 71.6127 143.957 72.2323 146.569 73.5992C148.503 74.633 150.372 75.971 151.937 77.4122C152.345 77.7809 152.788 78.2506 153.029 78.7891C152.823 78.3516 151.877 78.3915 151.47 78.1917C151.199 78.0584 150.995 77.9585 150.792 77.8586Z" fill="#EAE6D3"/>
<path d="M151.958 75.8254C151.615 75.1525 151.106 74.8183 150.495 74.5185C146.156 72.5553 141.346 71.034 136.587 71.639C139.665 72.0577 142.745 72.8139 145.694 74.0098C148.338 75.1402 151.288 76.5049 152.995 78.8566C152.753 78.1494 152.512 77.4421 152.27 76.7348C152.199 76.3639 152.095 76.0608 151.958 75.8254Z" fill="#5B5845"/>
<path d="M91.6766 100.782H89.9058L90.2449 96.9393H100.87V91.1746H84.0657L82.747 106.585H89.9058C93.9373 106.585 95.03 107.64 95.03 109.26C95.03 111.031 93.3345 112.048 90.8101 112.048C88.2856 112.048 85.6482 111.295 83.5006 109.863L80.8254 115.477C83.5006 117.172 87.3814 118.077 91.0361 118.077C98.9861 118.077 102.528 113.781 102.528 109.072C102.528 104.399 99.476 100.782 91.6766 100.782Z" fill="#494739"/>
</svg>
