<svg width="170" height="267" viewBox="0 0 170 267" fill="none" xmlns="http://www.w3.org/2000/svg">
<path opacity="0.87" d="M168.045 240.563C168.746 227.848 171.083 215.132 167.033 202.963C165.397 198.048 163.761 193.289 161.892 188.765C161.269 187.283 160.568 185.723 159.867 184.24C159.633 183.694 159.322 183.07 159.088 182.524C155.427 175.035 150.753 168.092 144.288 161.774C144.133 161.618 144.055 161.54 143.899 161.384C143.743 161.228 143.665 161.15 143.587 160.994C143.354 160.76 143.198 160.447 143.12 160.135C142.964 159.589 143.12 159.043 143.198 158.575C143.587 156.781 144.133 154.987 144.444 153.193C144.522 152.569 144.6 151.944 144.678 151.32C144.756 149.058 144.444 146.64 143.899 144.144C143.665 143.363 143.432 142.505 143.198 141.647C142.964 140.789 142.653 139.931 142.341 139.073C141.952 137.981 141.484 136.811 141.095 135.719C140.394 134.08 139.693 132.442 138.992 130.882C137.59 127.84 136.266 124.953 135.175 122.457C130.891 112.55 126.062 102.721 122.868 92.3454C120.064 83.2183 117.805 73.9352 116.092 64.4961C116.014 63.872 115.858 63.2479 115.702 62.6238C113.677 53.8088 109.626 49.7523 103.239 42.4974C101.915 40.9372 100.669 39.377 99.4226 37.7388C95.7617 32.9023 92.646 27.5976 90.1535 22.137C88.5956 18.7826 87.2715 15.2722 84.701 12.6198C82.9095 10.6696 80.5728 9.26544 78.3139 7.93929C76.1329 6.61313 73.8741 5.36498 71.6152 4.11683C69.8237 3.10271 68.1101 2.16659 66.3185 1.23048C65.228 0.684416 64.0597 0.0603457 62.8134 0.138355C62.7355 0.138355 62.6576 0.138355 62.6576 0.138355C61.4892 0.294374 60.5545 0.996462 59.6198 1.77656C59.0746 2.24461 58.6072 2.71268 58.062 3.10272C57.9841 3.18073 57.9062 3.25873 57.7504 3.33674C57.6725 3.41475 57.5167 3.57077 57.4389 3.64877C57.1273 3.96081 56.8157 4.19484 56.582 4.50688C56.4263 4.6629 56.2705 4.81892 56.1147 4.97494C56.0368 5.05295 55.9589 5.13095 55.881 5.20896L55.8031 5.28697C55.7252 5.36498 55.7252 5.36499 55.6473 5.443C55.5694 5.52101 55.4916 5.59901 55.4916 5.67702C55.3358 5.83304 55.18 5.98906 55.0242 6.14508C54.9463 6.3011 54.7905 6.37911 54.7126 6.53513C54.479 6.76916 54.3232 7.00317 54.1674 7.15919C54.1674 7.15919 54.1674 7.23721 54.0895 7.23721C54.0895 7.31522 54.0116 7.31523 54.0116 7.39324C53.5443 7.86129 53.1548 8.40736 52.6874 8.95342C52.4538 9.26546 52.2201 9.49947 51.9864 9.81151C51.5191 10.3576 51.1296 10.9036 50.6623 11.5277C50.6623 11.6057 50.5844 11.6057 50.5844 11.6837C50.1949 12.2298 49.8054 12.7759 49.416 13.4C49.416 13.4 49.416 13.3999 49.416 13.478C48.715 14.4141 48.0918 15.4282 47.4687 16.4423C45.7551 19.1726 44.1972 22.059 42.7952 24.9453C41.0037 28.6118 39.0564 32.1222 37.0312 35.4766C36.7975 35.8666 36.5638 36.2567 36.3301 36.6467C33.9155 40.7032 31.4229 44.6036 29.0862 48.6601C25.581 54.7449 22.4654 60.9076 20.4402 68.0065C18.415 75.1833 16.1561 80.722 16.6235 88.1329C16.6235 88.5229 16.7014 88.9129 16.7014 89.225C16.8571 91.0192 17.0908 92.8134 16.935 94.5296C16.8571 94.9977 16.8571 95.4658 16.7014 95.9338C16.6235 96.0898 16.6235 96.2458 16.5456 96.4018V96.4799C16.3898 96.9479 16.0782 97.338 15.8445 97.65C15.8445 97.65 15.8446 97.65 15.9224 97.65C15.0656 98.5861 13.8973 98.9762 13.0404 99.6782C12.8847 99.8343 12.7289 99.9123 12.5731 100.068C12.4173 100.224 12.3394 100.38 12.1836 100.536C11.4047 101.784 11.0153 103.267 10.7037 104.749C10.47 105.763 10.3142 106.777 10.0805 107.791C9.45741 110.678 8.91217 113.564 8.36693 116.45C7.82168 119.337 7.35433 122.223 6.96487 125.109C5.32914 136.733 4.55022 148.512 5.40703 160.213C5.7186 164.192 6.57541 167.78 7.6659 171.213C9.14584 175.971 10.9374 180.574 11.9499 185.879C14.1309 196.956 15.6109 208.345 17.4024 219.501C17.7918 221.997 18.1813 224.493 19.3497 226.677C20.9075 229.72 23.6338 231.982 25.7368 234.634C25.8926 234.79 26.0484 235.024 26.1263 235.18C26.5936 235.805 26.9831 236.429 27.3726 237.053C28.8525 239.783 29.242 242.903 29.6314 246.024C29.7872 247.038 29.8651 248.13 30.0209 249.144C31.1893 256.633 35.3175 261.002 41.0815 263.42C42.7173 264.122 44.4309 264.59 46.2224 264.98C46.6119 265.058 46.9234 265.136 47.3129 265.214C50.6623 265.76 54.2453 265.916 57.9841 265.838C58.4515 265.838 58.8409 265.838 59.3083 265.76C71.6931 265.058 85.0126 261.392 92.5681 259.285C99.6563 257.335 106.9 255.385 114.144 255.151C114.222 255.151 114.3 255.151 114.378 255.151C116.091 255.073 117.727 255.151 119.441 255.307C121.778 255.541 124.27 256.087 126.763 256.711C127.775 256.945 128.788 257.257 129.8 257.491C130.657 257.725 131.436 257.959 132.293 258.193C136.499 259.441 140.861 260.689 145.067 261.392H145.145C146.158 261.548 147.092 261.704 148.105 261.782C148.105 261.782 148.105 261.782 148.183 261.782C148.65 261.782 149.04 261.86 149.507 261.86C149.585 261.86 149.663 261.86 149.741 261.86C150.676 261.86 151.61 261.86 152.467 261.86C152.545 261.86 152.623 261.86 152.701 261.86C153.012 261.86 153.324 261.782 153.635 261.782H153.713C153.713 261.782 153.713 261.782 153.791 261.782C153.869 261.782 153.947 261.782 154.025 261.782C154.336 261.782 154.648 261.704 154.882 261.626C154.96 261.626 155.037 261.626 155.115 261.626C155.193 261.626 155.271 261.626 155.349 261.548C155.505 261.548 155.583 261.47 155.739 261.47C155.816 261.47 155.972 261.392 156.05 261.392C156.206 261.392 156.362 261.314 156.517 261.314H156.595C156.673 261.314 156.751 261.314 156.829 261.236C156.907 261.236 156.985 261.158 157.063 261.158C157.218 261.08 157.452 261.079 157.608 261.001C157.686 261.001 157.842 260.923 157.919 260.923C157.997 260.923 157.997 260.923 158.075 260.845C158.153 260.845 158.231 260.767 158.231 260.767C158.309 260.767 158.387 260.689 158.543 260.689C158.698 260.611 158.854 260.533 159.01 260.533C159.166 260.455 159.322 260.455 159.477 260.377C159.477 260.377 159.477 260.377 159.555 260.377C159.633 260.377 159.633 260.299 159.711 260.299C159.945 260.221 160.178 260.065 160.412 259.987C160.49 259.909 160.646 259.909 160.724 259.831C160.801 259.831 160.879 259.753 160.879 259.753C160.957 259.753 160.957 259.675 161.035 259.675C161.113 259.597 161.191 259.597 161.269 259.519C161.425 259.441 161.503 259.363 161.658 259.285C161.814 259.207 161.97 259.129 162.126 258.973C162.126 258.973 162.204 258.973 162.204 258.895C162.204 258.895 162.281 258.895 162.281 258.817C162.359 258.739 162.437 258.661 162.593 258.583C162.749 258.427 162.982 258.349 163.138 258.193C163.216 258.115 163.372 258.037 163.45 257.959L163.528 257.881L163.606 257.803C163.761 257.725 163.839 257.569 163.995 257.491C164.073 257.413 164.229 257.335 164.307 257.179C164.385 257.101 164.54 256.945 164.618 256.867L164.696 256.789C164.774 256.711 164.774 256.711 164.852 256.633C164.93 256.555 165.008 256.477 165.086 256.399C165.397 256.165 165.631 255.853 165.942 255.541L166.02 255.463C166.643 254.839 167.267 254.137 167.578 253.357C167.734 253.045 167.812 252.733 167.89 252.342C168.123 251.25 168.123 250.158 168.045 248.988C168.045 248.364 168.045 247.662 168.045 247.038V246.96C168.045 246.57 168.045 246.102 168.045 245.712C168.045 245.556 168.045 245.322 168.045 245.166C168.045 243.917 168.123 242.747 168.201 241.577C167.968 241.343 168.045 240.953 168.045 240.563Z" fill="#444235"/>
<path d="M8.60116 99.8348C9.92533 98.8206 11.7947 98.5086 12.34 96.1683C12.8852 93.9841 12.5737 91.6438 12.34 89.3815C11.5611 81.3465 13.8978 75.6519 16.0788 68.085C20.6744 51.9371 31.034 40.0797 38.3559 25.0239C42.5621 16.3648 47.9366 8.09587 55.3363 1.93314C56.1932 1.15305 57.2057 0.450958 58.3741 0.294939C59.6204 0.138921 60.8667 0.76299 62.035 1.38706C66.0854 3.57132 70.0579 5.75559 74.0304 8.09587C76.2893 9.42202 78.626 10.8262 80.4175 12.7764C82.9101 15.4287 84.3121 19.0171 85.87 22.2935C89.2193 29.6264 93.6592 36.4913 98.9558 42.654C105.732 50.4549 109.939 54.5114 111.73 64.6526C113.444 74.0917 115.703 83.3748 118.507 92.5019C121.622 102.877 126.452 112.706 130.814 122.613C134.319 130.57 140.784 142.584 140.316 151.477C140.161 153.973 139.382 156.313 138.836 158.732C138.759 159.278 138.603 159.824 138.759 160.292C138.914 160.916 139.46 161.462 139.927 161.93C151.922 173.632 157.531 187.205 162.749 203.041C167.657 217.941 163.061 233.543 163.606 249.223C163.684 250.705 163.684 252.187 163.061 253.513C162.671 254.371 162.048 255.073 161.347 255.775C148.261 269.427 129.957 257.101 114.846 255.541C105.732 254.605 96.697 257.101 87.8952 259.52C71.6936 263.966 29.4762 275.98 25.4258 249.457C24.8027 245.322 24.7248 241.032 22.7775 237.365C20.6744 233.543 16.7798 230.89 14.7546 226.99C13.6641 224.728 13.1968 222.231 12.8073 219.813C11.0158 208.658 9.53587 197.346 7.3549 186.191C5.56338 177.142 1.513 170.043 0.811971 160.526C-0.0448408 148.825 0.656187 137.045 2.36981 125.422C3.22662 119.571 4.31711 113.798 5.56338 108.104C6.10862 105.607 6.42019 102.955 7.66646 100.849C7.97803 100.381 8.2896 100.147 8.60116 99.8348Z" fill="#B7B5A7"/>
<path opacity="0.9" d="M91.7898 95.4662C93.4255 90.1615 95.217 84.9349 93.1139 80.0203C92.1792 77.9141 90.6214 76.0419 89.9204 73.8576C88.9857 70.9713 89.6867 67.7729 89.3751 64.7305C88.9857 59.6599 85.9479 55.2134 83.0659 51.0009C74.4978 38.4414 64.5276 11.6842 44.8209 16.9889C43.8862 17.2229 43.0294 17.5349 42.1726 17.8469C45.7556 11.9182 49.9618 6.37961 55.2585 1.93308C56.1153 1.15298 57.1279 0.450897 58.2962 0.294878C59.5425 0.13886 60.7888 0.762929 61.9572 1.387C66.0075 3.57126 69.98 5.75553 73.9525 8.0958C76.2114 9.42196 78.5481 10.8261 80.3397 12.7764C82.8322 15.4287 84.2343 19.0171 85.7921 22.2935C89.1415 29.6263 93.5813 36.4912 98.8779 42.6539C105.655 50.4548 109.861 54.5113 111.652 64.6525C113.366 74.0916 115.625 83.3747 118.429 92.5018C121.545 102.877 126.374 112.706 130.736 122.613C134.241 130.57 140.706 142.584 140.239 151.477C140.083 153.973 139.304 156.313 138.759 158.732C138.681 159.278 138.525 159.824 138.681 160.292C138.837 160.916 139.382 161.462 139.849 161.93C151.844 173.631 157.453 187.205 162.671 203.041C167.579 217.941 162.983 233.543 163.528 249.222C163.606 250.705 163.606 252.187 162.983 253.513C162.594 254.371 161.97 255.073 161.269 255.775C151.767 265.76 139.382 261.86 127.542 258.428C135.721 253.357 142.186 246.414 142.264 235.571C142.342 226.756 136.811 221.529 132.761 214.352C131.67 212.48 130.892 210.53 130.268 208.424C130.658 200.857 132.605 195.006 128.866 188.141C124.972 180.964 117.884 176.284 113.6 169.497C106.2 157.952 111.652 141.726 105.187 129.712C100.747 121.521 91.1666 115.905 89.9983 106.622C89.6867 102.877 90.6993 99.1326 91.7898 95.4662Z" fill="#AAA797"/>
<path d="M105.577 212.558C103.863 215.913 101.137 218.877 97.8655 220.749C94.2824 222.855 90.1542 222.543 86.5711 224.26C80.7292 227.068 78.2367 232.529 70.6812 232.06C48.3262 230.578 54.246 193.134 51.9092 179.092C49.1051 162.32 29.3985 150.073 31.9689 133.223C33.6825 122.379 44.2758 115.047 47.4694 104.593C48.9493 99.6788 48.7157 94.5301 49.1051 89.3815C49.4946 84.3109 50.7408 78.9283 54.4797 75.4179C58.2185 71.9075 64.9951 71.4394 68.0328 75.4959C69.5128 77.4461 69.8244 80.0205 70.1359 82.4387C71.7717 96.1684 71.538 111.926 78.0809 124.408C82.5987 132.989 90.0763 139.62 95.9182 147.42C101.682 155.221 105.81 165.597 102.15 174.568C101.293 176.674 100.046 178.624 99.5791 180.886C98.177 187.673 104.408 193.368 106.667 199.921C108.225 204.133 107.602 208.658 105.577 212.558Z" fill="#BFBEAF"/>
<path opacity="0.7" d="M58.3741 0.294878C59.6204 0.13886 60.8667 0.762929 62.035 1.387C66.0854 3.57126 70.0579 5.75553 74.0304 8.0958C75.5882 9.03192 77.0682 9.96802 78.4702 11.0601C70.2916 15.0386 63.7487 21.7474 58.1404 28.8463C52.7659 35.6331 46.8461 39.7676 43.7304 48.5046C41.2379 55.6815 39.9137 63.3264 36.3307 70.0352C35.7076 71.1273 35.0844 72.2974 34.8507 73.5456C34.1497 77.7581 38.5896 80.9565 40.0695 85.0129C41.5494 89.1474 39.6021 93.75 36.8759 97.2604C34.1497 100.693 30.6446 103.579 28.3078 107.324C25.8153 111.302 24.8027 116.217 25.5037 120.897C25.7374 122.457 26.1268 123.94 25.8932 125.5C25.27 128.854 21.6091 130.648 19.6618 133.457C17.5587 136.343 17.403 140.243 18.3377 143.754C19.2724 147.186 21.0639 150.307 22.7775 153.427C26.049 159.356 30.5667 168.327 28.5415 175.348C27.6068 178.624 25.6595 180.808 25.4258 184.553C25.1142 188.531 25.8932 192.588 26.5942 196.41C27.1394 199.14 27.6068 201.871 28.7752 204.367C33.6045 214.976 47.5471 223.479 44.4315 236.819C43.4968 240.719 41.3158 245.088 43.4967 248.442C44.9767 250.627 47.8587 251.407 50.507 251.251C53.1553 251.095 55.6479 250.081 58.2962 249.613C66.2412 248.13 75.4324 250.627 81.6638 245.478C85.7921 242.124 87.4278 236.117 92.1013 233.621C95.1391 232.06 98.8 232.294 101.994 233.465C104.33 234.323 106.433 236.507 108.77 237.053C111.107 237.599 113.989 236.195 116.482 236.351C118.429 236.429 120.376 236.975 122.246 237.521C125.439 238.379 128.711 238.769 131.826 239.627C135.02 240.485 137.98 241.89 141.173 242.748C145.146 243.84 149.43 243.918 153.48 243.138C154.025 243.06 163.918 239.939 163.84 240.953C163.684 243.84 163.606 246.648 163.684 249.534C163.762 251.017 163.762 252.499 163.139 253.825C162.749 254.683 162.126 255.385 161.425 256.087C148.339 269.739 130.035 257.413 114.924 255.853C105.81 254.917 96.7748 257.413 87.9731 259.832C71.7715 264.278 29.5541 276.292 25.5037 249.769C24.8806 245.634 24.8027 241.344 22.8554 237.677C20.7523 233.855 16.8577 231.202 14.8325 227.302C13.742 225.04 13.2747 222.543 12.8852 220.125C11.0937 208.97 9.61375 197.658 7.43278 186.503C5.64126 177.454 1.59088 170.355 0.889851 160.838C0.03304 149.137 0.734068 137.357 2.44769 125.734C3.3045 119.883 4.39499 114.11 5.64127 108.416C6.18651 105.919 6.49807 103.267 7.74435 101.161C7.97802 100.771 8.2117 100.537 8.52327 100.303C9.84743 99.2886 11.7168 98.9766 12.2621 96.6363C12.8073 94.452 12.4958 92.1118 12.2621 89.8495C11.4832 81.8146 13.8199 76.1199 16.0009 68.553C20.5965 52.405 30.9561 40.5477 38.278 25.4919C42.4842 16.8329 47.8587 8.56385 55.2584 2.40111C56.271 1.15297 57.2057 0.372887 58.3741 0.294878Z" fill="#D8D4C0"/>
<path opacity="0.54" d="M58.3741 0.294939C59.6204 0.138921 60.8667 0.76299 62.0351 1.38706C65.5402 3.25929 69.0453 5.20952 72.5505 7.23776C64.6055 12.0743 58.2962 20.7334 53.1554 27.8322C46.5346 36.9593 40.7706 46.7885 35.8634 56.9297C34.2276 60.3621 32.514 63.8725 31.5014 67.5389C29.3983 75.1058 33.0592 85.169 29.7099 92.1118C28.0742 95.5442 24.1796 97.8845 21.9986 101.083C19.6618 104.671 17.9482 108.962 16.7019 113.018C14.2094 121.131 13.5863 129.634 14.1315 138.059C14.8325 149.527 17.7145 160.838 19.4282 172.149C21.0639 183.305 21.6091 194.772 24.1017 205.693C26.1269 214.82 30.0215 220.983 36.8759 226.99C43.341 232.685 35.8634 237.833 38.7454 244.932C45.1325 260.456 67.2538 253.825 78.8597 249.925C88.8299 246.648 98.3327 240.563 108.926 239.237C116.326 238.301 123.414 241.188 130.346 243.216C141.952 246.57 153.87 248.286 163.606 241.656C163.45 244.152 163.45 246.648 163.528 249.144C163.606 250.627 163.606 252.109 162.983 253.435C162.594 254.293 161.97 254.995 161.269 255.697C148.184 269.349 129.879 257.023 114.768 255.463C105.655 254.527 96.6191 257.023 87.8173 259.442C71.6158 263.888 29.3983 275.902 25.3479 249.378C24.7248 245.244 24.6469 240.953 22.6996 237.287C20.5965 233.465 16.7019 230.812 14.6767 226.912C13.5863 224.65 13.1189 222.153 12.7294 219.735C10.9379 208.58 9.45799 197.268 7.27701 186.113C5.4855 177.064 1.43512 169.965 0.73409 160.448C-0.122722 148.747 0.578306 136.967 2.29193 125.344C3.14874 119.493 4.23923 113.72 5.4855 108.026C6.03074 105.529 6.34231 102.877 7.58858 100.771C7.82226 100.381 8.05594 100.147 8.3675 99.9127C9.69167 98.8986 11.5611 98.5866 12.1063 96.2463C12.6516 94.062 12.34 91.7218 12.1063 89.4595C11.3274 81.4246 13.6641 75.7299 15.8451 68.163C20.4407 52.015 30.8004 40.1577 38.1222 25.1019C42.3284 16.4429 47.7029 8.17386 55.1027 2.01113C56.2711 1.15303 57.2058 0.372948 58.3741 0.294939Z" fill="#72756B"/>
<path opacity="0.54" d="M34.2275 49.8308C40.8483 40.7817 50.7406 30.7186 45.4439 18.4711C44.9766 17.301 44.3535 16.2869 43.8082 15.3508C47.0018 10.3582 50.8185 5.7556 55.3362 1.85514C56.193 1.07504 57.2056 0.372955 58.374 0.216936C59.6203 0.0609176 60.8666 0.684987 62.0349 1.30906C65.5401 3.18128 69.0452 5.13152 72.5503 7.15976C64.6054 11.9963 58.2961 20.6554 53.1553 27.7542C46.5344 36.8813 40.7704 46.7104 35.8632 56.8516C34.2275 60.284 32.5139 63.7945 31.5013 67.4609C29.3982 75.0278 33.0591 85.091 29.7098 92.0339C28.074 95.4663 24.1795 97.8065 21.9985 101.005C19.6617 104.593 17.9481 108.884 16.7018 112.94C14.2093 121.053 13.5861 129.556 14.1314 137.981C14.8324 149.449 17.7144 160.76 19.428 172.071C21.0638 183.227 21.609 194.694 24.1016 205.615C26.1267 214.742 30.0213 220.905 36.8758 226.912C43.3409 232.607 35.8632 237.755 38.7452 244.854C45.1324 260.378 67.2537 253.747 78.8596 249.847C88.8298 246.57 98.3326 240.485 108.926 239.159C116.326 238.223 123.414 241.11 130.346 243.138C141.952 246.492 153.87 248.208 163.606 241.578C163.45 244.074 163.45 246.57 163.528 249.066C163.606 250.549 163.606 252.031 162.983 253.357C162.593 254.215 161.97 254.917 161.269 255.619C154.571 262.562 146.548 262.796 138.291 261.08C138.291 260.846 138.369 260.612 138.291 260.3C136.11 229.096 85.091 249.223 50.9743 265.839C39.2905 265.839 29.0087 262.562 25.971 251.953C30.4887 243.528 28.853 234.323 25.4257 225.352C21.1417 214.04 15.7671 204.601 14.6766 192.276C12.1062 164.27 12.1841 136.733 5.25171 108.65C5.3296 108.416 5.3296 108.104 5.40749 107.87C5.95273 105.373 6.2643 102.721 7.51057 100.615C7.74425 100.225 7.97792 99.9908 8.28949 99.7567C9.61365 98.7426 11.4831 98.4306 12.0283 96.0903C12.5735 93.9061 12.262 91.5658 12.0283 89.3035C11.8725 87.8994 11.8725 86.5732 11.9504 85.247C26.1267 77.5241 25.5036 61.6882 34.2275 49.8308Z" fill="#72756B"/>
<path opacity="0.7" d="M78.4701 31.1085C74.1082 21.5134 68.2663 12.0743 60.1655 7.93978C57.3614 6.53561 54.4794 5.75553 51.5974 5.44349C52.7658 4.19535 54.0121 3.02521 55.3362 1.93308C56.193 1.15298 57.2056 0.450897 58.374 0.294878C59.6203 0.138859 60.8666 0.762929 62.0349 1.387C66.0853 3.57126 70.0578 5.75553 74.0303 8.09581C76.2892 9.42196 78.6259 10.8261 80.4174 12.7764C82.91 15.4287 84.312 19.0171 85.8699 22.2935C89.2192 29.6264 93.6591 36.4912 98.9557 42.6539C105.732 50.4549 109.938 54.5113 111.73 64.6525C113.444 74.0916 115.702 83.3747 118.507 92.5018C121.622 102.877 126.452 112.706 130.814 122.613C134.319 130.57 140.784 142.584 140.316 151.477C140.161 153.973 139.382 156.313 138.836 158.732C138.758 159.278 138.603 159.824 138.759 160.292C138.914 160.916 139.46 161.462 139.927 161.93C151.922 173.631 157.53 187.205 162.749 203.041C167.656 217.941 163.061 233.543 163.606 249.222C163.684 250.705 163.684 252.187 163.061 253.513C162.671 254.371 162.048 255.073 161.347 255.775C153.091 264.356 142.809 262.64 132.527 259.832C137.356 257.335 141.329 254.137 143.51 250.003C143.588 249.925 143.744 249.847 143.821 249.769C152.545 242.358 149.975 228.862 149.04 218.799C147.95 206.005 146.08 194.304 138.836 183.383C134.942 177.532 128.165 172.071 125.751 165.363C124.504 161.93 125.517 158.576 125.828 154.987C127.153 139.619 121.311 131.506 112.587 119.805C103.785 108.026 103.318 94.6861 101.916 80.6444C100.436 66.2127 95.3727 55.9155 87.2719 44.1361C84.4678 39.9236 81.6637 35.399 78.4701 31.1085Z" fill="#D1D3C1"/>
<path opacity="0.7" d="M149.741 240.876C149.586 241.11 149.43 241.344 149.196 241.422C148.495 241.11 148.417 240.173 148.339 239.393C148.261 234.869 148.573 230.734 147.872 226.288C147.171 221.763 146.158 217.239 145.457 212.714C144.289 204.913 143.276 197.736 139.615 190.482C135.954 183.227 128.866 178.234 126.296 170.199C125.984 169.263 126.062 168.093 126.919 167.625C127.308 167.391 127.776 167.391 128.165 167.469C134.007 167.781 138.914 172.071 142.575 176.596C153.48 190.013 156.83 206.005 155.895 222.855C155.505 229.174 152.623 234.791 149.975 240.407C149.975 240.564 149.897 240.72 149.741 240.876Z" fill="#EAE6D3"/>
<path opacity="0.7" d="M106.745 117.387C104.174 113.252 101.292 109.196 99.8125 104.515C96.4632 94.062 100.747 82.6726 99.1115 71.8293C97.7094 62.3122 92.0233 54.2772 86.6488 46.7103C83.7668 42.6539 80.8069 38.5974 78.3143 34.2289C77.3018 32.4347 76.5228 30.6404 75.7439 28.7682C74.965 26.896 74.0303 25.1018 73.1735 23.3076C72.6282 22.2154 72.1609 21.0453 71.9272 19.8752C71.8493 19.5632 71.8493 19.1731 72.083 19.0171C72.3946 18.861 72.784 19.0951 73.0177 19.4071C74.1082 20.5773 74.8871 21.9814 75.8997 23.2296C76.9123 24.5557 77.9249 25.8819 78.9375 27.208C80.729 29.6263 82.4426 32.1226 84.1562 34.6189C84.6236 35.243 85.0909 35.8671 85.4804 36.5691C89.2192 41.9518 94.5938 46.1643 98.4105 51.4689C104.486 59.8159 108.147 69.6451 109.471 79.9423C110.406 87.1191 110.172 94.452 112.042 101.473C113.366 106.309 115.625 110.756 118.117 115.124C121.389 120.975 124.894 126.67 128.633 132.13C129.801 133.847 131.047 135.563 131.826 137.513C133.851 142.194 132.994 156.001 125.205 154.753C118.662 153.661 118.584 141.726 116.637 136.967C113.833 130.024 110.562 123.549 106.745 117.387Z" fill="#EAE6D3"/>
<path d="M140.083 187.283C137.434 183.695 134.397 180.34 132.605 176.284C132.371 175.816 132.216 175.192 132.527 174.802C132.995 174.256 133.774 174.568 134.397 174.958C138.058 177.454 141.485 181.51 143.822 185.255C147.093 190.481 149.196 196.722 150.676 202.651C151.689 206.629 152.078 210.842 151.767 214.976C151.689 215.678 151.455 220.515 150.598 220.437C149.508 220.359 149.663 216.302 149.586 215.6C148.573 205.927 146.003 195.318 140.083 187.283Z" fill="#F7F3E8"/>
<path d="M118.039 122.145C116.793 120.351 115.625 118.635 114.534 116.997C112.665 114.032 110.795 110.99 109.627 107.636C106.433 98.5866 106.044 89.2255 105.343 79.7864C105.187 77.9922 104.875 75.8079 103.162 75.0278C102.617 80.8785 102.539 87.1973 102.539 93.048C102.383 106.856 111.185 115.827 116.949 127.684C119.909 133.769 120.532 140.322 122.946 146.562C123.258 147.42 123.647 148.279 124.348 148.747C128.399 151.711 128.788 143.364 128.477 141.492C127.308 135.017 122.323 128.23 118.039 122.145Z" fill="#F7F3E8"/>
<path d="M89.9983 48.2705C89.3752 47.1783 88.83 46.0862 88.4405 44.9161C88.3626 44.76 88.3626 44.526 88.4405 44.37C88.5963 44.058 89.1415 44.136 89.4531 44.37C92.7245 46.4762 95.0613 50.5328 97.4759 53.5751C98.7222 55.0573 99.8906 56.7735 100.67 58.5677C100.981 59.2698 101.526 60.4399 101.215 61.22C100.67 62.4682 99.4232 61.7661 98.8001 61.064C96.5412 58.6457 94.6718 55.8374 93.0361 53.029C92.1014 51.4689 91.0109 49.9086 89.9983 48.2705Z" fill="#F7F3E8"/>
<path d="M134.007 160.994C135.098 160.526 136.188 160.214 136.655 160.604C133.618 158.42 129.256 159.512 125.673 160.604C120.532 162.242 116.559 166.533 113.21 170.589C108.614 176.206 98.7221 192.042 99.501 202.885C99.8904 201.715 100.358 200.701 100.514 200.311C104.798 191.652 109.549 181.588 115.78 174.177C118.585 170.823 122.012 168.639 125.283 165.909C126.841 164.582 128.555 163.724 130.424 162.788C131.047 162.476 132.527 161.618 134.007 160.994Z" fill="#F4F1E4"/>
<path d="M119.13 171.525C112.976 178.546 105.499 192.666 100.513 200.545C103.006 193.056 106.355 185.723 110.484 178.936C113.599 173.865 117.182 169.029 121.856 165.44C126.218 162.164 132.449 159.668 137.979 160.526C130.502 165.44 124.972 164.738 119.13 171.525Z" fill="#5B5845"/>
<path d="M34.7727 91.8777C33.9159 91.1756 33.0591 90.5516 32.1244 90.1615C30.5665 89.6155 28.9308 89.6935 27.2951 89.7715C21.3753 90.1615 16.546 92.1118 12.4956 96.4803C13.0408 95.8562 16.6239 95.7782 17.4807 95.6222C19.5838 95.3101 21.7647 95.1541 23.8678 94.9981C25.3478 94.9201 26.9056 94.8421 28.3856 95.1541C30.4886 95.5442 32.4359 96.4803 34.1496 97.7284C41.3156 103.033 52.3763 113.408 60.0876 122.379C59.3086 120.585 57.4392 117.309 55.8035 114.968C53.8562 112.16 51.7531 109.118 49.5722 106.543C45.2102 101.317 40.303 96.4803 35.0843 92.1117C34.9285 92.0337 34.8506 91.9557 34.7727 91.8777Z" fill="#F4F1E4"/>
<path d="M29.1646 86.9632C29.3983 86.9632 29.632 86.8851 29.9435 86.8851C30.333 86.8851 30.8004 86.8852 31.1898 86.9632C32.2803 87.2752 33.2929 88.6013 34.0718 89.3814C41.7052 97.1044 49.1829 105.061 55.2584 114.11C48.0924 106.153 40.1474 98.9766 31.5793 92.5799C31.1898 92.2678 30.7225 91.9558 30.2551 91.7998C29.632 91.5657 29.0088 91.6437 28.3857 91.7217C22.3101 92.4238 17.5587 94.14 12.2621 97.2604C12.1063 97.3384 11.7947 97.5724 11.4832 97.8065C11.8726 97.3384 12.1842 96.8704 12.4179 96.0903C12.5736 95.6222 12.5736 95.1542 12.6515 94.6081C17.2472 90.8636 23.1669 87.6653 29.1646 86.9632Z" fill="#5B5845"/>
<path opacity="0.65" d="M57.4394 224.259C57.9067 228.862 60.2435 233.465 64.216 235.961C64.917 236.429 65.7738 236.819 66.5527 236.429C68.1106 235.727 68.5779 233.699 69.1232 232.294C70.2915 229.642 70.4473 225.976 69.9021 222.621C69.5126 220.437 68.8116 218.331 67.9548 216.381C67.1759 214.586 66.3969 212.324 65.2286 211.076C62.8918 208.658 60.3214 210.218 59.153 212.87C57.5952 216.693 57.0499 220.203 57.4394 224.259Z" fill="#FEFBEB"/>
<path d="M59.1528 222.465C60.1654 229.564 63.359 234.947 66.3968 234.557C69.4346 234.167 71.0703 228.082 70.0577 220.983C69.0451 213.884 65.8516 208.502 62.8138 208.892C59.8539 209.282 58.2181 215.367 59.1528 222.465Z" fill="#999684"/>
<path d="M64.5273 215.757C62.5022 212.87 60.7106 212.402 59.3865 214.04C60.0096 211.076 61.2559 209.126 62.8916 208.892C65.9294 208.502 69.123 213.884 70.1356 220.983C70.6029 224.65 70.4472 228.004 69.7461 230.422C69.7461 229.096 67.3315 219.813 64.5273 215.757Z" fill="#706E5E"/>
<path opacity="0.65" d="M89.4529 155.143C88.674 156.859 88.2067 158.732 88.2846 160.604C88.3624 161.696 88.8298 163.88 90.0761 164.348C90.6992 164.582 91.4002 164.426 91.9455 164.114C94.2044 162.71 95.9959 160.604 96.8527 158.029C97.32 156.781 97.4758 155.455 97.6316 154.129C97.7095 152.959 97.9432 151.477 97.7095 150.541C96.619 146.796 92.8802 150.697 91.556 152.101C90.6992 153.037 89.9982 154.051 89.4529 155.143Z" fill="#FEFBEB"/>
<path d="M91.2445 154.909C89.7645 158.966 89.9203 162.788 91.7118 163.412C93.4255 164.036 96.0738 161.306 97.5537 157.249C99.0337 153.193 98.8779 149.371 97.0864 148.746C95.3727 148.044 92.7244 150.853 91.2445 154.909Z" fill="#999684"/>
<path d="M95.9959 152.803C95.7623 150.697 94.9054 149.917 93.7371 150.463C94.9054 149.058 96.1517 148.356 97.0864 148.746C98.8 149.371 99.0337 153.193 97.5538 157.249C96.7749 159.356 95.7623 161.072 94.6718 162.164C94.9833 161.384 96.3854 155.767 95.9959 152.803Z" fill="#706E5E"/>
<path d="M83.2995 115.827C78.0029 112.706 72.5504 112.082 71.1484 114.501C69.7463 116.919 72.9399 121.365 78.2365 124.486C83.5332 127.606 88.9857 128.23 90.3877 125.812C91.7119 123.394 88.5962 118.947 83.2995 115.827Z" fill="#AAA797"/>
<path opacity="0.65" d="M57.673 53.3411C57.5951 53.4971 57.5172 53.6532 57.4394 53.8092C55.8036 57.2416 54.4795 61.1421 57.0499 64.4965C57.7509 65.3546 58.9972 66.1347 60.0098 66.5247C61.1782 67.0708 62.5023 66.9928 63.7486 66.7588C66.5527 66.1347 68.8116 64.1065 70.2915 61.7662C71.2262 60.206 71.7715 58.4117 72.0831 56.6175C72.3946 54.9793 73.0178 53.0291 72.5504 51.3129C71.6936 48.2705 68.8116 46.7103 65.7738 47.4124C64.0602 47.8025 62.5023 48.6606 61.1782 49.6747C59.6982 50.6888 58.5298 51.8589 57.673 53.3411Z" fill="#FEFBEB"/>
<path d="M59.6203 53.0292C56.3489 57.9438 56.3489 63.6385 59.6203 65.8228C62.8918 68.007 68.1885 65.8228 71.4599 60.9082C74.7314 55.9936 74.7314 50.2989 71.4599 48.1146C68.1885 45.9304 62.8918 48.1146 59.6203 53.0292Z" fill="#999684"/>
<path d="M68.8893 53.4192C68.5777 50.1428 67.0977 48.4265 64.761 48.2705C67.0977 47.1004 69.5903 46.8664 71.3818 48.1145C74.6533 50.2988 74.6533 56.0715 71.3818 60.908C69.6682 63.4044 67.4872 65.1986 65.3062 66.0567C66.163 65.3546 69.3566 58.0217 68.8893 53.4192Z" fill="#706E5E"/>
<path d="M80.5734 194.538C80.1839 197.19 81.2744 199.609 83.0659 199.921C84.8574 200.233 86.649 198.282 87.0384 195.63C87.4279 192.978 86.3374 190.559 84.5459 190.247C82.7544 189.935 80.9628 191.886 80.5734 194.538Z" fill="#AAA797"/>
<path d="M64.6054 190.638C59.5424 184.007 47.3134 166.767 46.6123 163.88C46.3008 162.476 48.9491 156.47 49.4943 154.441C49.2607 155.221 39.4463 163.49 39.1347 165.051C38.9789 166.221 54.3236 184.943 64.6054 190.638Z" fill="#5B5845"/>
<path d="M64.6054 190.637C58.7635 185.255 42.9515 168.249 41.7831 165.518C40.9263 163.412 48.9492 156.547 49.4944 154.519C49.2607 155.299 37.7327 164.036 37.4212 165.596C37.3433 166.688 54.3237 184.942 64.6054 190.637Z" fill="#E2DECC"/>
<path d="M152.701 230.968C151.689 230.11 150.598 229.408 149.508 228.628C145.146 225.586 141.095 222.153 137.123 218.721C133.228 215.366 129.957 211.466 126.452 207.721C128.944 214.352 133.54 221.217 139.07 225.664C143.198 228.94 147.95 231.826 152.857 233.855C154.181 234.401 155.505 234.947 156.907 234.947C155.739 234.947 154.804 232.762 154.103 232.06C153.636 231.748 153.169 231.358 152.701 230.968Z" fill="#5B5845"/>
<path d="M149.741 234.635C148.729 234.245 147.794 233.777 146.937 233.231C145.613 232.45 144.445 231.436 143.276 230.422C135.176 223.635 128.009 215.834 125.05 205.459C128.944 212.012 133.696 218.175 139.148 223.401C144.211 228.316 150.131 233.309 157.063 235.025C155.661 234.713 153.947 235.415 152.468 235.259C151.533 235.259 150.598 234.947 149.741 234.635Z" fill="#E2DECC"/>
<path d="M113.521 227.38C112.197 228.316 110.873 228.394 109.705 226.912C108.536 225.43 108.848 223.167 109.627 221.451C110.406 219.735 111.574 218.097 112.042 216.225C113.444 210.452 103.551 203.665 110.328 199.609C115.469 196.488 122.401 202.963 122.557 207.956C122.635 210.53 117.961 224.182 113.521 227.38Z" fill="#AAA797"/>
<path d="M48.4816 142.428C47.3911 141.024 46.5343 139.152 47.2353 137.591C47.7027 136.499 48.7932 136.031 50.1173 135.953C68.0325 134.627 56.0371 151.789 48.4816 142.428Z" fill="#AAA797"/>
<path d="M83.0658 84.2329C85.4025 84.3889 87.3498 83.2968 87.4277 81.7366C87.5835 80.1764 85.792 78.7723 83.4552 78.6163C81.1185 78.4602 79.1712 79.5524 79.0933 81.1126C79.0154 82.6727 80.8069 84.0769 83.0658 84.2329Z" fill="#706E5E"/>
<path d="M39.2127 197.502C40.1474 199.609 42.0947 200.779 43.4967 200.155C44.8988 199.531 45.2882 197.268 44.2756 195.162C43.3409 193.056 41.3936 191.886 39.9916 192.51C38.6674 193.134 38.278 195.396 39.2127 197.502Z" fill="#706E5E"/>
<path d="M53.6082 139.279V145.044H58.5063V165.654H65.9665V139.279H53.6082Z" fill="#494739"/>
<path d="M81.5754 166.181C88.282 166.181 93.1802 161.17 93.1802 152.466C93.1802 143.763 88.282 138.752 81.5754 138.752C74.8311 138.752 69.9329 143.763 69.9329 152.466C69.9329 161.17 74.8311 166.181 81.5754 166.181ZM81.5754 160.077C79.164 160.077 77.4308 158.005 77.4308 152.466C77.4308 146.928 79.164 144.856 81.5754 144.856C83.9491 144.856 85.6823 146.928 85.6823 152.466C85.6823 158.005 83.9491 160.077 81.5754 160.077Z" fill="#494739"/>
</svg>
