<svg width="92" height="80" viewBox="0 0 92 80" fill="none" xmlns="http://www.w3.org/2000/svg">
<path opacity="0.87" d="M87.2125 33.3097C87.2125 32.8417 87.2125 32.3736 87.2125 31.8275C87.2125 31.8275 87.2125 31.8275 87.2125 31.7495C87.2125 31.2815 87.1346 30.8134 87.0567 30.3454C87.0567 30.2674 87.0568 30.1113 86.9789 30.0333C86.901 29.5653 86.8231 29.0972 86.6673 28.6292C86.5894 28.3171 86.5115 28.005 86.4336 27.771C86.4336 27.693 86.3557 27.615 86.3557 27.615C86.2778 27.537 86.2778 27.381 86.2 27.303C86.1221 27.225 86.122 27.0689 86.0442 26.9909C85.9663 26.9129 85.9663 26.7569 85.8884 26.6789C85.8105 26.5229 85.8105 26.4449 85.7326 26.2889V26.2108C85.6547 26.0548 85.5768 25.8988 85.4989 25.7428C83.0064 20.9062 78.255 17.3178 73.4257 14.6655C69.2195 12.4032 63.9229 8.19071 58.4704 4.91432C57.7694 4.52427 57.0683 4.13422 56.4452 3.74418C55.6663 3.27612 54.8095 2.8861 54.0306 2.49605C53.6411 2.34003 53.1737 2.10599 52.7843 1.94998C49.2013 0.467799 45.6962 -0.156275 42.5026 0.779837C35.4923 2.88609 28.6378 10.9991 22.9517 18.878C19.5244 23.6366 16.5645 28.3171 14.1499 31.6715C12.9815 33.2317 11.8131 35.0259 10.8784 36.8201C10.8005 36.9761 10.7226 37.1321 10.6448 37.2882C10.6448 37.3662 10.5669 37.4442 10.5669 37.4442C10.489 37.6002 10.4111 37.7562 10.3332 37.9122C10.3332 37.9902 10.2553 38.0683 10.2553 38.1463V38.2243C10.1774 38.4583 10.0995 38.6924 9.94371 38.9264C9.86581 39.0824 9.86585 39.1604 9.78796 39.3164C9.71007 39.4724 9.71006 39.5505 9.63217 39.7065C9.55428 39.8625 9.55427 40.0965 9.47637 40.2525C9.47637 40.4085 9.3985 40.4865 9.3985 40.6425C9.32061 40.7986 9.3206 41.0326 9.24271 41.1886C9.24271 41.2666 9.24268 41.3447 9.16479 41.5007V41.5787C9.16479 41.8127 9.08691 42.0467 9.08691 42.2808C9.08691 42.3588 9.08691 42.4368 9.08691 42.4368C9.08691 42.5148 9.08691 42.5148 9.08691 42.5928C9.08691 42.6708 9.08691 42.6708 9.08691 42.7488C9.08691 42.9048 9.08691 42.9828 9.08691 43.1389C9.08691 43.2169 9.08691 43.2949 9.08691 43.3729C9.08691 43.5289 9.08691 43.6069 9.08691 43.7629C9.08691 43.8409 9.08691 43.8409 9.08691 43.9189C9.08691 43.997 9.08691 44.075 9.08691 44.231C9.08691 44.231 9.08691 44.231 9.08691 44.309C9.08691 44.543 9.16479 44.7771 9.16479 45.0111C9.16479 45.0891 9.16479 45.0891 9.16479 45.1671C9.16479 45.2451 9.16482 45.3231 9.24271 45.4011C9.3206 45.7132 9.39848 45.9472 9.47637 46.2592C9.55427 46.4932 9.63215 46.7273 9.71004 46.9613V47.0393C9.71004 47.0393 9.71007 47.1174 9.78796 47.1174C9.78796 47.1954 9.86583 47.1953 9.86583 47.2733C9.94373 47.3513 9.94374 47.5074 10.0216 47.5854C10.0216 47.5854 10.0216 47.6634 10.0995 47.6634C10.1774 47.7414 10.1774 47.8194 10.2553 47.8974C10.2553 47.8974 10.2553 47.9754 10.3332 47.9754C10.4111 48.0534 10.4111 48.1314 10.489 48.2095C10.489 48.2875 10.5669 48.2875 10.5669 48.3655C10.5669 48.4435 10.6448 48.5215 10.6448 48.5215C10.7226 48.5995 10.7227 48.6775 10.8005 48.6775C10.8005 48.6775 10.8005 48.6775 10.8005 48.7555C10.9563 48.9896 11.19 49.2236 11.3458 49.4576C11.4237 49.5356 11.5016 49.6136 11.5795 49.7696C11.6574 49.8476 11.6574 49.8477 11.7353 49.9257C11.891 50.0817 12.0468 50.2377 12.2026 50.3937C12.2805 50.4717 12.2805 50.4717 12.3584 50.5497C12.5142 50.7057 12.67 50.8618 12.9036 51.0178L12.9815 51.0958C14.2278 52.1879 15.5519 53.2021 16.954 54.1382C19.7581 56.0884 22.4843 57.9606 25.2884 59.9108L25.3664 59.9889C25.9116 60.3789 26.3789 60.6909 26.9242 61.081C27.7031 61.549 28.4041 62.0951 29.183 62.5632C30.1177 63.1092 30.9745 63.5773 31.9092 64.0453C32.2987 64.2013 32.7661 64.3574 33.1555 64.5134C33.3113 64.5914 33.545 64.6694 33.7008 64.7474C33.7786 64.7474 33.8566 64.8254 33.9345 64.8254C34.0124 64.8254 34.0902 64.8254 34.1681 64.9035C34.5576 64.9815 34.9471 65.1375 35.3365 65.2155C38.2185 65.8395 41.2563 65.5275 44.1383 65.1375C53.8748 63.6553 63.2218 60.1449 71.6341 55.0743C73.7372 53.7481 75.8403 52.3439 77.7097 50.7837C78.255 50.3157 78.8002 49.8477 79.2675 49.3796L79.3455 49.3016C79.8128 48.8335 80.2802 48.4435 80.6696 47.9754C80.7475 47.8974 80.8254 47.8194 80.8254 47.7414C81.2148 47.3514 81.6043 46.8833 81.9938 46.4152C82.0717 46.3372 82.1496 46.1812 82.2275 46.1032C82.6948 45.5571 83.0843 45.0111 83.4737 44.387C85.5768 41.1887 86.9789 37.4442 87.0567 33.6998C87.2125 33.3877 87.2125 33.3097 87.2125 33.3097Z" fill="#444235"/>
<path d="M6.07128 40.1665C2.42461 45.097 -1.22205 51.2143 0.783616 57.0578C2.15112 61.1665 5.88895 63.8143 9.44446 66.2795C12.7265 68.5621 15.9172 70.7534 19.1993 73.036C22.8459 75.5925 26.6749 78.1491 31.0509 79.1534C34.4241 79.8838 37.9796 79.5186 41.3528 79.0621C52.7487 77.3273 63.6887 73.2186 73.5347 67.2839C78.9135 63.9969 84.0188 59.9795 87.5743 54.7752C91.1298 49.5709 92.862 42.9056 91.1298 36.7883C89.033 29.3013 82.3778 24.097 75.6315 20.3535C65.7855 15.0579 50.8341 0.631839 39.3471 4.1014C26.128 8.02747 13.6381 29.8492 6.07128 40.1665Z" fill="#C4C1A9"/>
<path d="M91.1298 36.697C89.033 29.21 82.3778 24.0057 75.6314 20.2622C65.7854 14.9666 50.8341 0.540529 39.3471 4.01009C26.2191 8.02747 13.7292 29.7578 6.16234 40.1665C2.51567 45.0969 -1.13099 51.2143 0.874681 57.0578C1.78635 59.8882 3.97435 62.0795 6.34469 63.9969C5.70652 60.9839 5.7065 57.7882 6.89167 54.9578C8.53267 50.8491 12.544 49.3882 14.0939 45.0056C15.4614 40.9882 15.3702 38.6143 18.7433 35.4187C22.8459 31.5839 26.4925 30.1231 30.1392 25.4666C34.2417 20.2622 36.4297 21.1752 42.7203 20.0796C50.0136 18.8013 54.3896 14.5101 61.5006 19.2579C63.9621 20.9014 65.6031 23.2752 67.6088 25.3752C69.5233 27.2926 71.9848 28.4796 73.8993 30.3057C76.5431 32.8622 76.1784 34.2317 76.9989 37.4274C77.8195 40.7143 79.9163 42.5404 81.2838 45.6448C82.7425 49.023 82.5601 53.1317 82.1043 56.7839C81.8308 58.7926 81.3749 60.6187 80.7368 62.2621C83.3806 60.0708 85.7509 57.6056 87.5743 54.7752C91.0386 49.3882 92.7708 42.723 91.1298 36.697Z" fill="#B8B59B"/>
<path opacity="0.5" d="M91.1299 36.6969C90.4006 34.0491 89.0331 31.5839 87.3009 29.4839C86.8451 31.8578 86.2069 34.0491 85.4776 36.0578C83.5631 41.2621 81.1016 46.7404 77.4549 51.0317C71.9849 57.3317 63.6887 58.7925 57.2159 63.5404C52.384 67.1012 48.3727 70.7534 42.5381 67.7403C41.7176 67.2838 41.8999 65.7316 41.2617 65.4577C38.709 64.0882 35.6094 65.8229 33.0567 66.1881C29.3189 66.736 25.7634 66.9186 22.2079 65.3664C18.3789 63.6317 16.0997 59.9795 13.0912 57.2404C10.265 54.6838 6.80065 52.6751 4.61265 49.4795C3.70098 48.1099 3.15402 46.8317 2.88052 45.4621C0.874847 49.2056 -0.310354 53.223 0.96598 57.1491C2.33348 61.2578 6.07132 63.9055 9.62682 66.3708C12.9088 68.6534 16.0997 70.8447 19.3817 73.1273C23.0283 75.6838 26.8574 78.2403 31.2334 79.2446C34.6065 79.975 38.162 79.6098 41.5352 79.1533C52.931 77.4186 63.8711 73.3098 73.7171 67.3751C79.0959 64.0881 84.2012 60.0708 87.7567 54.8665C91.0387 49.3882 92.7709 42.723 91.1299 36.6969Z" fill="#D8D4C0"/>
<path d="M91.1299 36.6969C90.3094 33.7752 88.8508 31.2186 86.9363 29.0273C86.6628 32.4056 86.2069 35.4187 86.0246 36.423C84.0189 45.4621 79.2783 57.8795 70.0704 61.8056C66.8796 63.1751 63.4152 63.9968 60.2244 65.549C54.572 68.4708 49.5579 74.0403 43.1762 73.4012C41.2617 73.2186 39.3472 72.3055 38.6179 70.5708C35.427 69.8403 32.145 69.8403 28.9542 70.4795C28.0425 70.6621 27.1308 70.936 26.2192 70.7534C23.8488 70.2055 20.7492 66.9186 18.6523 65.549C15.5527 63.5403 12.6353 61.3491 9.99149 58.7925C5.98015 54.9578 3.154 50.7578 2.15117 46.5578C0.510168 49.936 -0.4015 53.5882 0.783668 57.1491C2.15117 61.2578 5.88901 63.9056 9.44451 66.3708C12.7265 68.6534 15.9173 70.8447 19.1993 73.1273C22.846 75.6838 26.675 78.2403 31.051 79.2446C34.4242 79.9751 37.9797 79.6099 41.3529 79.1534C52.7487 77.4186 63.6887 73.3099 73.5348 67.3751C78.9136 64.0882 84.0189 60.0708 87.5744 54.8665C91.0387 49.3882 92.7709 42.723 91.1299 36.6969Z" fill="#A3A086"/>
<path d="M84.4748 58.5186C85.5688 57.3317 86.6628 56.0534 87.5745 54.6838C91.13 49.4795 92.8622 42.8143 91.13 36.6969C90.3095 33.7752 88.8509 31.2186 86.9364 29.0273C86.6629 32.4056 86.207 35.4187 86.0247 36.423C84.019 45.4621 79.2784 57.8795 70.0705 61.8056C66.8797 63.1751 63.4153 63.9968 60.2244 65.549C54.5721 68.4707 49.5579 74.0403 43.1763 73.4012C41.2618 73.2186 39.3473 72.3055 38.6179 70.5707C35.4271 69.8403 32.145 69.8403 28.9542 70.4795C28.0425 70.6621 27.1309 70.936 26.2192 70.6621C23.8489 70.1143 20.7492 66.8273 18.6524 65.4577C15.5527 63.449 12.6353 61.2577 9.9915 58.7012C5.98016 54.8664 3.15401 50.6665 2.15117 46.4665C0.510168 49.8447 -0.401501 53.4969 0.783668 57.0577C1.513 59.249 2.97166 61.0751 4.70383 62.6273C4.97733 62.3534 5.34198 62.1708 5.70665 61.9882C9.90032 60.1621 15.188 65.0925 18.6524 67.4664C22.5725 70.2056 25.8545 73.4925 27.0397 77.6925C28.3161 78.2403 29.6835 78.7882 31.051 79.0621C34.4242 79.7925 37.9798 79.4272 41.3529 78.9707C42.2646 78.7881 43.1763 78.6055 44.0879 78.5142C49.1933 73.949 56.4866 70.8447 63.5065 67.1012C70.4352 63.2664 77.0903 58.9752 84.4748 58.5186Z" fill="#969074"/>
<path d="M33.7859 79.4273C34.7887 76.2317 36.3386 73.2187 38.6178 70.4796C35.4269 69.7492 32.1449 69.7492 28.9541 70.3883C28.0424 70.5709 27.1307 70.8448 26.219 70.5709C26.1279 70.5709 26.0367 70.4796 25.9456 70.4796C27.3131 72.9448 29.6834 76.2317 29.5922 78.6056C30.0481 78.7882 30.5951 78.8795 31.1421 79.0621C31.7803 79.2447 32.4184 79.2447 33.1478 79.336C33.2389 79.4273 33.5124 79.4273 33.7859 79.4273Z" fill="#7C745C"/>
<path opacity="0.6" d="M17.1024 34.7796C25.0339 27.2926 34.0594 13.597 45.8199 12.8666C59.3126 11.9536 73.717 24.7361 81.4662 34.6882C85.3864 39.71 88.3949 45.2795 89.58 51.0317C91.6769 46.5578 92.4062 41.4448 91.1299 36.6969C89.033 29.21 82.3779 24.0057 75.6315 20.2622C65.7855 14.9666 50.8341 0.540531 39.3471 4.01009C26.2191 8.02747 13.7292 29.7578 6.16235 40.1665C2.51567 45.0969 -1.13099 51.2143 0.874681 57.0577C1.69518 59.6143 3.51853 61.623 5.61537 63.3577C2.05986 52.31 7.62102 43.7274 17.1024 34.7796Z" fill="#EAE6D6"/>
<path d="M71.6202 41.9927C70.1615 40.3492 67.4266 39.2536 65.9679 37.4275C64.8739 35.9666 64.6004 34.0492 63.9622 32.4057C62.5036 28.571 58.9481 26.0145 55.0279 24.6449C45.3642 21.3579 36.6122 22.271 31.1422 31.6753C29.7747 34.0492 28.2249 37.3362 26.128 39.5275C24.2135 41.6275 21.1139 42.7231 20.2022 45.5536C19.2905 48.1101 18.4701 50.8492 19.4729 53.3144C20.6581 56.0535 23.8489 57.3318 26.675 58.3361C32.9655 60.4361 40.4412 62.4448 45.7289 58.4274C48.3727 56.4187 50.0137 53.2231 53.0222 51.8535C54.9367 51.0318 57.1247 51.1231 59.2216 51.0318C62.5947 50.9405 68.247 50.5753 70.7085 47.6535C73.0789 45.0057 72.8054 43.2709 71.6202 41.9927Z" fill="#CCC9B4"/>
<path opacity="0.7" d="M7.07417 44.6404C6.34484 46.5578 5.61554 48.4752 5.79787 50.4838C5.7067 49.7534 8.35053 47.0143 8.80636 46.3752C9.8092 44.9143 10.812 43.3622 11.8149 41.9013C13.9117 38.7057 16.3732 36.1491 18.9259 33.3187C23.4842 28.2057 27.6779 23.2753 32.9656 18.984C36.6122 15.9709 41.2617 12.9579 46.1848 13.2318C53.1134 13.597 60.3156 16.6101 65.8768 20.81C69.2499 23.3666 72.4408 26.1057 75.4493 29.0274C76.9079 30.4883 78.3666 31.9492 79.8253 33.41C81.0104 34.597 81.8309 35.9665 83.0161 37.2448C83.3808 37.0622 83.2896 36.423 83.1073 36.0578C81.0105 31.1274 76.908 26.2883 72.8966 22.8187C71.3468 21.1753 61.592 13.9623 58.2188 12.3188C54.6633 10.584 51.9283 9.21445 48.0081 8.66662C46.1848 8.39271 44.2702 8.21011 42.4469 8.39272C38.6179 8.75794 35.1536 11.0405 32.0539 13.4144C26.9486 17.3405 23.0284 22.1796 19.0171 27.2013C14.6411 32.5883 9.71801 38.0665 7.07417 44.6404Z" fill="#F2EEDF"/>
<path d="M20.4755 26.9274C19.4727 28.1143 18.6522 29.3926 17.6494 30.5795C16.7377 31.6752 15.4613 33.0447 15.0055 34.4143C14.9143 34.5969 15.0055 34.7795 15.1878 34.8708C15.7348 35.1447 17.2847 33.41 17.5582 33.0447C18.3787 32.223 19.108 31.3099 19.9285 30.3969C23.8487 26.1969 26.766 21.3578 31.3244 17.6144C35.0622 14.6013 39.5294 12.3187 44.27 12.1361C49.193 11.8622 53.8426 13.4144 58.2186 15.4231C59.6773 16.0622 61.0448 16.9752 62.5946 17.6144C62.8681 17.7057 63.2328 17.7057 63.2328 17.4318C63.2328 17.3405 63.1416 17.2491 63.1416 17.1578C61.7741 15.697 60.2242 14.6927 58.5832 13.597C56.8511 12.4101 54.9366 11.497 53.0221 10.6753C48.0991 8.66659 42.9026 8.8492 37.9796 10.8579C35.0622 12.0448 32.5095 13.7796 30.2304 15.8796C29.3187 16.7013 28.407 17.6144 27.5865 18.6187C25.125 21.4491 22.8458 24.1882 20.4755 26.9274Z" fill="#F7F3E8"/>
<path d="M69.2499 22.5449C70.6174 23.8231 72.076 25.1927 73.4435 26.4709C74.7199 27.6579 76.0874 28.9361 77.6372 29.7579C77.0902 28.1144 75.7227 26.8362 74.4464 25.6492C73.1701 24.5536 71.9849 23.4579 70.7086 22.271C70.3439 21.9057 69.6146 20.9927 69.0676 21.084C68.2471 21.3579 68.8852 22.1796 69.2499 22.5449Z" fill="#F7F3E8"/>
<path d="M55.3014 37.7926C55.3926 37.7926 55.5749 37.7013 55.6661 37.7013C56.7601 37.4274 57.7629 36.6057 58.0364 35.4187C58.2188 34.5057 57.8541 33.5926 58.0364 32.6796C58.4011 30.8535 60.4979 29.9405 60.6802 28.1144C60.7714 27.11 60.1332 26.1057 59.3127 25.4666C58.4922 24.9188 57.4894 24.7361 56.4866 24.6448C54.5721 24.5535 52.5664 24.8275 50.8342 25.6492C49.3756 26.3796 48.7374 27.1101 47.0052 26.8361C45.5465 26.5622 44.2702 25.7405 42.8115 25.1927C41.444 24.6449 39.7119 24.4622 38.6179 25.3753C37.6151 26.1057 37.2504 27.4753 37.1592 28.7535C37.068 29.4839 37.1592 30.2144 37.4327 30.8535C37.8885 31.8578 38.8914 32.5883 39.8942 32.9535C42.8115 33.9579 44.9995 34.1405 47.461 36.2405C49.3755 38.0665 52.6576 38.3405 55.3014 37.7926Z" fill="#B8B59B"/>
<path d="M29.2277 56.2361C26.2192 58.61 23.2107 58.1534 19.6552 57.9708C17.1025 57.8795 12.9089 58.7013 12.5442 54.7752C12.2707 51.3969 19.017 48.4752 21.4785 46.5578C23.3019 45.1882 24.9429 45.0969 27.1309 45.9186C31.9627 47.7447 33.6037 52.8578 29.2277 56.2361Z" fill="#B8B59B"/>
<path opacity="0.65" d="M67.9735 40.5318C67.5177 40.7144 67.153 40.8057 66.6972 40.8057C65.512 40.9883 64.2357 40.8057 63.2329 40.1666C62.2301 39.5274 61.5007 38.3405 61.6831 37.1535C61.9566 35.5101 63.2329 34.1405 64.6915 33.5014C65.9679 32.8622 67.4265 32.6796 68.794 32.7709C69.1587 32.9536 69.7057 32.8622 70.0704 33.0448C70.435 33.2275 70.7996 33.5014 71.1643 33.684C71.2555 33.7753 71.4378 33.8666 71.529 33.9579C71.6202 34.0492 71.7113 34.1405 71.8025 34.2318C72.076 34.597 72.2584 34.9622 72.3495 35.3275C72.623 36.4231 71.9848 37.6101 71.2555 38.3405C70.3438 39.4361 69.1587 40.1666 67.9735 40.5318Z" fill="#F7F3ED"/>
<path d="M68.1559 39.2535C65.4209 40.0753 62.8682 39.2535 62.3212 37.4274C61.7742 35.6013 63.5064 33.5013 66.2414 32.6795C68.9764 31.8578 71.529 32.6795 72.076 34.5056C72.623 36.3318 70.8909 38.4318 68.1559 39.2535Z" fill="#A49E85"/>
<path opacity="0.55" d="M69.341 34.9622C70.7997 35.6013 71.3467 36.5144 71.0732 37.61C71.9849 36.697 72.3495 35.6014 72.076 34.597C71.529 32.771 68.8852 31.9492 66.2414 32.771C64.8739 33.1362 63.6887 33.9579 63.0505 34.7796C63.5064 34.5057 67.2442 34.0492 69.341 34.9622Z" fill="#595347"/>
<path opacity="0.65" d="M39.8032 62.171C38.071 62.171 36.2476 61.8971 34.6066 61.2579C33.4215 60.8014 32.1451 60.2535 31.4158 59.1579C31.1423 58.7926 31.0511 58.4274 30.96 57.9709C30.96 57.3318 31.2335 56.6926 31.6893 56.1448C33.6038 53.9535 36.977 53.4056 39.712 53.4056C41.2618 53.4056 42.8117 53.7708 44.1792 54.1361C45.5467 54.5013 47.1877 54.7752 48.1905 55.5056C50.4697 57.1491 48.8287 59.797 46.7318 60.7101C44.5438 61.6231 42.1735 62.171 39.8032 62.171Z" fill="#F7F3ED"/>
<path d="M40.8972 60.8926C35.883 60.9839 31.7805 59.2491 31.7805 57.1491C31.7805 55.0491 35.7918 53.223 40.806 53.1317C45.8202 53.0404 49.8316 54.7752 49.9227 56.8752C49.9227 59.0665 45.9114 60.8013 40.8972 60.8926Z" fill="#A49E85"/>
<path opacity="0.55" d="M44.9998 56.51C47.1878 57.6057 47.7348 58.7926 46.7319 59.8883C48.7376 59.1579 49.9228 58.0622 49.9228 56.8752C49.9228 54.7752 45.8203 53.0404 40.8061 53.1317C38.2534 53.1317 35.9743 53.6796 34.3333 54.41C35.2449 54.2274 41.9001 54.9578 44.9998 56.51Z" fill="#595347"/>
<path d="M25.7632 42.5405C24.1222 43.0883 22.4812 42.6317 22.1165 41.5361C21.7518 40.4405 22.7547 39.1623 24.3957 38.6144C26.0367 38.0666 27.6777 38.5232 28.0424 39.6188C28.4071 40.6231 27.4042 41.9927 25.7632 42.5405Z" fill="#A49E85"/>
</svg>
