<svg width="171" height="138" viewBox="0 0 171 138" fill="none" xmlns="http://www.w3.org/2000/svg">
<path opacity="0.87" d="M79.2807 17.1097C78.6509 17.4125 78.0211 17.7152 77.4632 17.9727C76.6897 18.3661 75.8615 18.7 75.088 19.0933C74.8004 19.2744 74.3863 19.4413 74.0988 19.6224C56.4683 28.4734 41.6217 39.9795 25.7944 50.79C25.0036 51.288 24.1955 51.8906 23.4047 52.3886C22.3983 53.0224 21.4464 53.7155 20.5119 54.304C19.146 55.1641 17.7628 56.1289 16.4889 57.2124C15.2869 58.2507 14.1942 59.4077 13.4639 60.7117C12.9291 61.6112 12.6473 62.5389 12.5467 63.5401C12.2161 65.1551 12.3198 66.8718 12.5672 68.498C12.6449 69.1994 12.7944 69.8555 12.8721 70.5568C12.8923 70.8255 12.9671 71.1536 13.0591 71.377C13.1339 71.705 13.1914 72.1377 13.2662 72.4658C13.3957 72.8532 13.4705 73.1813 13.5999 73.5687C13.6919 73.7921 13.7121 74.0608 13.8588 74.3436C13.9882 74.731 14.1723 75.1778 14.3017 75.5653C14.3391 75.7293 14.4311 75.9527 14.4685 76.1167C14.6526 76.5635 14.8367 77.0103 15.0207 77.4572C15.0581 77.6212 15.1128 77.6806 15.1502 77.8446C15.3342 78.2914 15.573 78.7976 15.8289 79.1992C15.8836 79.2585 15.8663 79.3632 15.921 79.4226C16.1597 79.9288 16.4703 80.3897 16.6544 80.8365L16.709 80.8959C20.4421 87.1736 26.329 91.7199 33.4495 94.6454C42.1459 98.1729 52.8466 99.3128 63.9813 98.2099C65.7499 98.0341 67.3747 97.9489 69.1806 97.9371C81.1724 97.8889 93.0465 101.291 105.053 103.11C106.626 103.338 108.271 103.522 109.916 103.705C115.644 104.131 121.582 103.674 126.097 101.3C126.241 101.209 126.385 101.119 126.529 101.028C126.6 100.983 126.744 100.893 126.816 100.847C126.888 100.802 127.032 100.711 127.104 100.666C127.319 100.53 127.535 100.395 127.679 100.304C127.823 100.213 127.966 100.123 128.182 99.9871C128.487 99.7014 128.846 99.4751 129.223 99.1441C130.514 97.9559 131.46 96.5161 132.28 95.0622C132.564 94.5078 132.921 93.9081 133.151 93.2943C133.223 93.2491 133.168 93.1897 133.24 93.1444C133.24 93.1444 133.312 93.0992 133.257 93.0398C133.542 92.4854 133.7 91.9169 133.93 91.3031C133.947 91.1984 134.036 91.0485 134.054 90.9439C134.212 90.3754 134.442 89.7616 134.6 89.1931C134.617 89.0884 134.706 88.9385 134.669 88.7745C134.827 88.206 134.931 87.5781 135.089 87.0095C135.106 86.9049 135.14 86.6956 135.158 86.591C135.244 86.0677 135.347 85.4398 135.434 84.9166C135.468 84.7073 135.485 84.6026 135.52 84.3933C135.606 83.8701 135.638 83.2875 135.669 82.7049C135.704 82.4956 135.738 82.2863 135.718 82.0176C135.75 81.435 135.781 80.8524 135.741 80.315C135.721 80.0463 135.773 79.7324 135.752 79.4637C135.712 78.9263 135.744 78.3437 135.703 77.8064C135.683 77.5377 135.68 77.1644 135.66 76.8957C135.657 76.5224 135.6 76.0897 135.542 75.657C135.401 73.7762 135.188 71.9408 134.866 69.9865C134.829 69.8225 134.809 69.5538 134.771 69.3898C134.731 68.8525 134.564 68.301 134.469 67.7043C134.449 67.4356 134.302 67.1528 134.282 66.8841C134.19 66.6607 134.17 66.392 134.078 66.1686C134.095 66.064 134.041 66.0046 134.003 65.8406C133.928 65.5125 133.799 65.1251 133.796 64.7518C133.704 64.5284 133.684 64.2597 133.592 64.0363C133.425 63.4848 133.313 62.9927 133.146 62.4413C133.126 62.1726 132.979 61.8898 132.959 61.6211C132.755 60.9056 132.605 60.2495 132.401 59.534C132.309 59.3106 132.289 59.042 132.197 58.8186C132.03 58.2671 131.918 57.775 131.679 57.2688C131.532 56.986 131.512 56.7173 131.366 56.4346C131.161 55.7191 130.885 55.0489 130.681 54.3334C130.589 54.11 130.442 53.8272 130.422 53.5585C130.255 53.007 130.017 52.5008 129.85 51.9494C129.758 51.726 129.611 51.4432 129.591 51.1745C129.315 50.5043 129.039 49.8341 128.78 49.0592C128.688 48.8358 128.596 48.6124 128.449 48.3296C128.21 47.8234 128.043 47.272 127.75 46.7064C127.658 46.483 127.566 46.2596 127.474 46.0362C127.198 45.3659 126.867 44.6363 126.519 44.0114C126.427 43.788 126.335 43.5646 126.243 43.3412C126.004 42.835 125.711 42.2694 125.472 41.7632C125.38 41.5398 125.288 41.3164 125.179 41.1976C124.903 40.5274 124.5 39.8431 124.152 39.2181C124.06 38.9947 123.896 38.8166 123.804 38.5932C123.511 38.0276 123.272 37.5214 122.979 36.9558C122.941 36.7918 122.777 36.6137 122.74 36.4497C122.392 35.8247 121.989 35.1404 121.641 34.5154C121.549 34.292 121.44 34.1733 121.348 33.9499C121.055 33.3843 120.689 32.864 120.451 32.3578C120.341 32.239 120.304 32.075 120.249 32.0156C119.901 31.3907 119.481 30.811 119.133 30.186C119.024 30.0673 118.932 29.8439 118.823 29.7251C118.457 29.2048 118.164 28.6392 117.799 28.1189C117.744 28.0596 117.635 27.9408 117.652 27.8361C117.232 27.2565 116.939 26.6909 116.519 26.1112C116.41 25.9924 116.372 25.8284 116.208 25.6503C115.843 25.13 115.478 24.6097 115.167 24.1488C115.113 24.0894 115.113 24.0894 115.058 24.03C114.693 23.5097 114.328 22.9894 113.89 22.5143C113.781 22.3956 113.672 22.2768 113.563 22.1581C113.197 21.6378 112.815 21.2221 112.504 20.7612C109.933 17.597 106.64 14.5123 102.654 12.8955C102.418 12.7626 102.111 12.6751 101.803 12.5875C101.495 12.4999 101.133 12.3529 100.825 12.2653L100.699 12.2512C100.391 12.1636 100.083 12.076 99.7756 11.9884C99.6491 11.9743 99.6491 11.9743 99.5226 11.9602C99.143 11.9178 98.7087 11.8161 98.3291 11.7738C93.7193 11.2064 89.1441 12.7744 84.9313 14.4894C83.6171 15.0355 82.303 15.5817 80.9888 16.1279C80.4683 16.5494 79.8386 16.8522 79.2807 17.1097Z" fill="#444235"/>
<path d="M29.5538 49.2059C28.5473 49.8397 27.5955 50.5328 26.6609 51.1213C23.9118 52.9462 21.0736 54.921 19.6129 57.5289C18.3132 59.9417 18.3163 62.6597 18.5897 65.3012C21.6596 88.5031 44.6487 97.5676 70.1304 95.0272C83.882 93.6832 97.496 97.8656 111.075 99.9127C119.501 101.172 129.543 101.226 135.191 95.8879C136.482 94.6997 137.428 93.2599 138.247 91.806C149.401 72.215 132.328 34.2899 118.581 17.6238C115.153 13.4049 110.534 9.37303 104.478 8.59111C99.8683 8.02378 95.2931 9.59172 91.0803 11.3067C67.7128 20.9567 49.6226 35.7245 29.5538 49.2059Z" fill="#B7B5A7"/>
<path opacity="0.9" d="M29.5537 49.2059C28.5473 49.8397 27.5955 50.5328 26.6609 51.1213C23.9118 52.9462 21.0736 54.921 19.6129 57.5289C18.3132 59.9417 18.3163 62.6597 18.5897 65.3012C21.6596 88.5031 44.6487 97.5676 70.1303 95.0272C83.882 93.6832 97.4959 97.8657 111.075 99.9128C119.501 101.172 129.543 101.226 135.191 95.8879C136.482 94.6997 137.428 93.2599 138.247 91.806C141.045 86.9493 142.028 80.9843 141.743 74.5049C141.928 79.641 128.415 81.4911 125.2 83.7969C117.602 89.2374 110.195 91.1823 100.802 86.4049C95.2721 83.6035 91.4643 79.3423 84.761 78.9678C79.6479 78.7173 74.8513 79.6744 69.8905 78.1088C64.694 76.4104 61.5534 72.0104 55.5633 72.7812C50.6919 73.4102 47.3993 75.0147 42.1884 73.7942C32.3993 71.4237 29.29 61.7519 30.1522 54.1749C30.4598 51.9179 30.9485 49.7344 31.6903 47.5791C31.2072 48.1647 30.4164 48.6627 29.5537 49.2059Z" fill="#AAA797"/>
<path opacity="0.7" d="M26.7141 51.1785C23.965 53.0034 21.1268 54.9782 19.6661 57.5862C18.3664 59.999 18.3695 62.7169 18.6428 65.3584C19.3708 70.7149 21.1224 75.3329 23.7712 79.1985C23.9465 78.5253 24.0126 77.7334 24.1334 77.0009C24.9295 70.2158 30.0824 63.9698 37.2082 60.6081C37.6223 60.4411 38.0364 60.2742 38.3959 60.0478C46.695 56.6038 55.2875 53.7254 60.2361 46.7639C62.4157 43.7033 63.5083 40.2016 65.5613 37.1269C70.6681 29.5969 80.9687 25.7366 90.677 22.3432C94.7115 20.9281 99.6318 19.6118 103.152 21.7094C105.021 22.877 106.011 24.6925 107.503 26.1911C110.98 29.7227 117.111 30.8327 120.516 34.4095C125.287 39.4709 122.53 47.2096 126.384 52.7548C127.626 54.5985 129.642 56.0488 131.172 57.7115C136.125 62.8463 137.462 69.9759 137.765 76.3506C138.03 82.5613 137.723 89.5075 134.028 95.1168C133.188 96.302 132.348 97.4873 131.454 98.6131C132.857 97.917 134.151 97.1022 135.353 96.0639C136.644 94.8758 137.59 93.436 138.41 91.9821C149.564 72.391 132.491 34.466 118.744 17.7998C115.316 13.5809 110.697 9.54905 104.641 8.76712C100.031 8.19979 95.4556 9.76773 91.2427 11.4827C67.5675 21.0451 49.4773 35.8129 29.535 49.3084C28.6005 49.8969 27.6659 50.4854 26.7141 51.1785Z" fill="#D8D4C0"/>
<path opacity="0.54" d="M29.5519 49.2039C28.5454 49.8377 27.5936 50.5308 26.659 51.1193C23.91 52.9442 21.0717 54.919 19.611 57.527C18.3114 59.9398 18.3145 62.6577 18.5878 65.2992C18.7605 66.5973 19.005 67.8501 19.3041 69.1624C22.5708 66.5426 25.7684 64.3415 27.6721 62.9552C39.2751 54.7109 52.1981 46.6671 61.8024 36.8678C82.2647 15.9169 93.5919 11.6916 110.185 20.4691C125.836 28.7152 135.321 52.4727 141.123 66.9207C138.182 48.7953 127.713 28.6581 118.689 17.7406C115.261 13.5217 110.642 9.4898 104.586 8.70787C99.9757 8.14054 95.4006 9.70851 91.1877 11.4235C67.7109 20.9547 49.6207 35.7225 29.5519 49.2039Z" fill="#72756B"/>
<path opacity="0.54" d="M104.712 8.72214C100.102 8.1548 95.5273 9.72274 91.3145 11.4377C86.4891 13.3508 81.937 15.5607 77.4942 17.8895C68.1918 27.0297 58.9441 36.2294 48.0053 43.9616C46.7659 44.8359 45.1872 46.2051 43.5165 47.3509C41.2534 48.9636 38.8811 50.4575 36.661 50.6362C34.8378 50.7526 33.026 50.0177 31.7894 48.9207C31.4989 48.7284 31.2804 48.4909 31.0618 48.2534C30.5586 48.5703 30.0381 48.9918 29.5349 49.3087C28.5284 49.9425 27.5766 50.6356 26.642 51.2241C23.8929 53.049 21.0547 55.0238 19.594 57.6318C18.2944 60.0446 18.2974 62.7625 18.5708 65.404C18.7434 66.7021 18.9879 67.9549 19.2871 69.2672C22.5538 66.6474 25.7514 64.4463 27.6551 63.06C39.2581 54.8157 52.1811 46.7718 61.7853 36.9725C82.2476 16.0217 93.5748 11.7963 110.168 20.5739C125.819 28.8199 135.304 52.5774 141.106 67.0254C139.4 56.6576 135.232 45.5889 130.317 35.9289C127.803 33.1975 125.2 30.616 122.741 27.9439C118.315 23.1342 113.202 18.1946 113.067 12.3713C110.74 10.46 107.93 9.13426 104.712 8.72214Z" fill="#72756B"/>
<path opacity="0.7" d="M20.3227 65.7069C19.6612 64.2477 19.0716 62.7433 18.6632 61.3123C18.5108 62.6275 18.5943 64.0755 18.767 65.3736C21.8369 88.5756 44.826 97.64 70.3076 95.0996C84.0593 93.7556 97.6732 97.938 111.253 99.9851C119.678 101.244 129.721 101.299 135.368 95.9603C136.659 94.7721 137.605 93.3323 138.425 91.8784C141.579 86.422 142.464 79.487 141.828 72.0093C141.21 73.8054 140.592 75.6014 139.793 77.324C135.339 87.5378 123.42 96.9192 100.816 93.3329C78.2126 89.7467 74.1519 85.4572 62.3211 85.3103C51.9714 85.1686 36.5719 85.9558 29.6352 78.788C29.0341 78.1348 21.9046 69.4002 20.3227 65.7069Z" fill="#D1D3C1"/>
<path d="M52.892 66.3001C49.5676 66.1425 47.0426 64.2624 47.2438 62.26C47.3903 60.1981 50.2141 58.7013 53.5385 58.8589C56.8628 59.0164 59.3878 60.8966 59.1867 62.899C59.0401 64.9608 56.1444 66.5029 52.892 66.3001Z" fill="#8E8975"/>
<path d="M116.381 43.8599C116.206 42.1885 117.35 40.7175 118.903 40.6776C120.401 40.5782 121.802 41.8534 121.977 43.5248C122.153 45.1963 121.009 46.6672 119.456 46.7072C117.831 46.7924 116.557 45.5314 116.381 43.8599Z" fill="#8E8975"/>
<path d="M79.4478 36.9171C78.1596 38.4786 76.1237 39.1041 74.9446 38.4398C73.7108 37.716 73.7509 35.9088 74.9673 34.3925C76.2555 32.831 78.2915 32.2055 79.4706 32.8698C80.7762 33.5483 80.7361 35.3556 79.4478 36.9171Z" fill="#706E5E"/>
<path opacity="0.7" d="M112.695 92.4187C104.246 92.8619 94.9174 91.6085 87.0579 88.8671C79.0172 86.0522 71.0742 81.8627 61.9927 82.2354C58.0932 82.44 54.3088 83.51 50.3892 83.446C40.6894 83.2702 31.4665 77.073 28.4465 69.5959C28.1877 68.8211 27.9288 68.0462 27.2558 67.4383C26.6548 66.7851 25.5505 66.4488 24.6504 66.828C24.1644 67.0403 23.9143 67.3854 23.6641 67.7305C22.9884 69.0938 23.5607 70.703 24.3114 72.0123C29.6091 82.0879 38.9729 87.8212 52.483 87.9423C62.2548 88.0728 72.9726 89.1081 82.3965 90.9583C94.8054 93.461 107.787 99.9175 120.906 96.1584C123.951 95.2724 126.758 93.8802 129.055 92.0583C130.959 90.672 132.753 89.1669 134.202 87.4102C135.473 85.9534 136.687 84.0639 136.854 82.2707C132.879 84.4919 129.196 86.9052 125.075 88.8436C121.351 90.7196 117.173 92.2252 112.695 92.4187Z" fill="#EAE6D3"/>
<path d="M44.3589 86.0238C42.8031 85.6905 41.3364 85.2072 39.887 84.6193C34.7595 82.5022 31.1042 79.2705 28.6509 75.0005C28.4496 74.6583 28.1937 74.2568 28.3173 73.8976C28.3863 73.479 28.763 73.148 29.2145 73.145C29.5394 73.128 29.758 73.3655 29.9766 73.603C33.8533 77.4456 36.8615 81.0848 42.7655 83.1819C44.8304 83.945 47.292 84.6457 49.5869 84.7951C51.1225 84.8597 53.4115 84.2624 54.3261 85.7499C54.4728 86.0326 47.6861 86.5547 47.0535 86.4842C46.1677 86.3854 45.2274 86.2272 44.3589 86.0238Z" fill="#F7F3E8"/>
<path d="M77.6649 88.7782C78.0244 88.5518 78.0387 88.0738 77.7109 87.7176C77.0552 87.005 75.6058 86.4171 74.5734 86.0355C72.0915 85.0661 69.4113 84.1278 66.6103 83.922C62.9782 83.6769 61.8109 86.8504 65.6443 87.4377C69.3512 88.0109 72.8739 88.1374 76.5636 88.8152C76.9978 88.9169 77.3774 88.9592 77.6649 88.7782Z" fill="#F7F3E8"/>
<path d="M130.78 88.627C130.725 88.5676 130.743 88.463 130.688 88.4036C130.415 88.1067 129.874 88.2595 129.532 88.3812C125.894 89.734 123.37 92.5431 119.531 93.5537C113.799 95.0993 107.904 94.1222 102.049 93.6824C101.091 93.6289 100.079 93.5161 99.1589 93.6266C99.5989 94.4749 100.703 94.8112 101.753 95.0882C106.8 96.1305 114.406 96.4992 119.419 95.4062C123.097 94.5908 126.424 92.7771 129.334 90.757C130.07 90.1997 130.806 89.6423 130.872 88.8504C130.817 88.791 130.835 88.6864 130.78 88.627Z" fill="#F7F3E8"/>
<path opacity="0.9" d="M119.62 60.9526C120.963 64.1397 120.972 67.6043 118.772 70.3963C115.552 74.3 103.644 78.1409 108.513 84.1723C111.722 88.1536 120.643 85.6314 124.111 83.3539C127.507 81.1216 129.775 77.911 131.429 74.5252C131.82 73.7162 132.156 72.8479 132.294 72.0107C132.435 69.2022 129.51 67.0111 127.04 65.1903C123.879 62.8663 120.75 59.9597 120.868 56.5092C120.888 54.4333 122.098 52.1704 120.856 50.3267C119.102 47.6799 113.776 47.9386 112.165 45.2013C110.92 42.9843 112.996 40.5515 114.842 38.7325C115.308 38.2516 115.774 37.7707 115.932 37.2022C116.179 36.4837 115.794 35.6948 115.247 35.101C110.347 29.6522 103.086 36.569 102.488 40.9783C101.824 46.1796 106.966 50.1633 111.97 52.6396C115.234 54.3357 118.13 57.4828 119.62 60.9526Z" fill="#AAA797"/>
<path opacity="0.9" d="M84.9339 73.6032C85.3652 73.3316 85.8138 72.9553 85.9547 72.4914C86.0237 72.0728 85.8943 71.6854 85.7648 71.298C83.3057 66.2813 64.7339 60.9066 68.102 69.0086C70.0549 73.9688 80.0454 76.6815 84.9339 73.6032Z" fill="#AAA797"/>
<path d="M83.8188 90.5296C84.4801 89.6442 85.0322 88.64 85.6389 87.6953C87.9939 83.9614 90.7285 80.2699 93.5723 76.6972C96.2724 73.215 99.5362 70.2219 102.708 67.0055C96.6604 69.6881 90.6447 74.1327 87.0705 79.0095C84.4078 82.6557 82.3088 86.7911 80.9315 90.8471C80.5606 91.9247 80.2444 93.0617 80.3796 94.1958C80.2099 93.271 82.1711 92.3174 82.7979 91.6413C83.1746 91.3103 83.4967 90.92 83.8188 90.5296Z" fill="#5B5845"/>
<path d="M79.8854 88.5999C80.1499 87.7768 80.4144 86.9537 80.8601 86.2041C81.4294 85.0953 82.2518 84.0148 83.0023 82.9794C88.437 75.8057 94.9961 69.237 104.595 65.7248C98.8093 69.5556 93.57 73.9803 89.1475 78.9223C85.1016 83.5333 81.0788 88.7863 80.3286 94.5107C80.4464 93.4049 79.5693 92.0815 79.5059 90.9021C79.572 90.1102 79.6381 89.3183 79.8854 88.5999Z" fill="#E2DECC"/>
<path d="M74.7494 52.9113C76.8918 52.0312 78.8874 50.8683 80.6473 49.5725C81.8148 48.7436 82.873 47.7959 83.9858 46.9075C86.1396 45.1761 88.5091 43.3089 91.3733 42.3495C94.3093 41.3447 96.7365 42.2548 99.5432 43.2072C102.531 44.2331 105.286 45.4995 107.791 47.111C109.134 47.9534 110.604 48.81 112.09 49.562C113.451 50.2998 115.188 50.7066 116.476 51.4897C115.602 50.5397 114.331 49.6519 113.313 48.7924C112.404 48.0516 111.659 47.489 110.589 46.9434C109.338 46.3243 108.194 45.4507 107.032 44.6817C105.798 43.958 104.564 43.2343 103.348 42.4059C101.895 41.4447 100.029 40.6504 98.8471 39.6127C97.6105 38.5157 97.1474 37.0253 96.667 35.6396C96.5002 35.0881 96.2787 34.4773 96.3103 33.8947C96.3247 33.4167 96.4656 32.9529 96.6064 32.489C96.8336 31.5019 97.1326 30.4695 97.4143 29.5418C95.9938 30.3425 95.0966 31.095 94.257 32.2803C93.4892 33.4202 92.9745 34.5884 92.5145 35.816C91.8589 37.448 91.7785 38.7179 90.1078 39.8638C84.6096 43.5135 80.1871 48.4555 74.2518 51.6302C71.9139 52.9148 69.3201 53.7979 66.8528 54.695C69.507 54.618 72.193 53.9584 74.7494 52.9113Z" fill="#EAE6D3"/>
<path d="M93.2306 37.3347C92.207 40.4177 90.1797 42.1632 87.1603 44.0645C82.775 46.8259 78.7608 50.8543 74.0476 53.2595C75.1835 53.0131 76.3913 52.7215 77.5272 52.4752C78.9881 52.2118 81.0843 50.0477 82.1972 49.1594C83.8851 47.9089 85.5012 46.7036 87.3531 45.6313C91.0914 43.2773 93.3603 42.4113 97.8494 43.7112C104.674 45.6977 110.144 50.0377 117.002 51.815C111.811 48.5185 106.405 45.3579 100.909 42.3472C99.73 41.6829 97.901 41.0526 96.8829 40.1931C95.537 38.9773 96.0288 39.5117 95.9798 37.8544C95.9509 36.4657 95.0275 31.5138 96.4279 30.4443C94.0757 32.2069 94.0787 34.9248 93.2306 37.3347Z" fill="#5B5845"/>
<path d="M37.5566 70.6117C37.4184 66.7597 36.693 57.0874 35.9251 55.8827C35.5771 55.2578 32.316 53.935 31.3727 53.4035C31.7897 53.6098 38.9244 53.7128 39.56 54.1566C40.0862 54.4817 39.9921 65.608 37.5566 70.6117Z" fill="#5B5845"/>
<path d="M37.5566 70.6117C38.2149 67.0084 39.0712 56.3401 38.5736 55.0591C38.2227 54.0608 32.3159 53.935 31.3727 53.4035C31.7897 53.6099 39.7525 53.3788 40.4427 53.8821C41.0409 54.1619 39.992 65.608 37.5566 70.6117Z" fill="#E2DECC"/>
<path opacity="0.65" d="M121.597 71.2439C121.689 71.4673 121.709 71.736 121.801 71.9594C122.27 74.1964 121.272 75.9501 119.006 77.1894C116.309 78.7004 112.734 76.5433 111.831 74.2046C111.388 72.9829 110.945 71.7612 110.646 70.449C110.214 68.376 110.502 65.8504 113.277 65.0408C114.502 64.6446 115.876 64.9044 116.946 65.45C118.016 65.9956 118.908 66.841 119.601 67.7176C120.512 68.8317 121.226 69.9769 121.597 71.2439Z" fill="#FEFBEB"/>
<path d="M120.185 70.8196C121.546 73.902 120.577 77.0444 118.127 77.8369C115.622 78.57 112.447 76.724 111.087 73.6416C109.726 70.5591 110.695 67.4167 113.145 66.6242C115.722 65.8458 118.825 67.7371 120.185 70.8196Z" fill="#999684"/>
<path d="M114.362 74.4878C111.788 73.2949 110.986 69.955 111.797 67.3811C110.362 68.6598 109.948 71.1714 111.032 73.5836C112.393 76.666 115.55 78.6167 118.072 77.7789C120.18 77.1081 121.209 74.7718 120.556 72.088C119.49 74.2603 117.172 75.8135 114.362 74.4878Z" fill="#706E5E"/>
<path d="M89.8037 64.4809L94.7772 59.8842C98.545 56.4179 99.2609 54.0818 99.2609 51.5198C99.2609 46.6216 95.0786 43.4944 89.0125 43.4944C83.813 43.4944 80.0829 45.6797 78.0859 48.9953L83.6246 52.0849C84.6796 50.3894 86.4127 49.5228 88.3343 49.5228C90.595 49.5228 91.7253 50.5401 91.7253 52.2356C91.7253 53.3283 91.4239 54.534 89.3139 56.4932L79.4423 65.7243V70.3963H99.9767V64.4809H89.8037Z" fill="#494739"/>
</svg>
