<svg width="150" height="169" viewBox="0 0 150 169" fill="none" xmlns="http://www.w3.org/2000/svg">
<path opacity="0.87" d="M141.101 151.173C141.292 150.984 141.387 150.795 141.577 150.606C141.672 150.417 141.863 150.323 141.958 150.134C142.053 149.945 142.243 149.756 142.339 149.567C142.434 149.378 142.529 149.189 142.719 149C142.815 148.811 143.005 148.622 143.1 148.434C143.195 148.245 143.291 148.056 143.481 147.867C143.576 147.678 143.671 147.489 143.862 147.3C143.957 147.111 144.052 146.922 144.147 146.733C144.242 146.545 144.338 146.356 144.433 146.167C144.528 145.978 144.623 145.789 144.718 145.506C144.814 145.317 144.909 145.128 145.004 144.939C145.099 144.75 145.194 144.467 145.29 144.278C145.385 144.089 145.48 143.9 145.48 143.711C145.575 143.522 145.67 143.239 145.766 143.05C145.861 142.861 145.861 142.672 145.956 142.483C146.051 142.2 146.146 142.011 146.241 141.728C146.337 141.539 146.337 141.444 146.432 141.255C146.527 140.972 146.622 140.689 146.717 140.405C146.717 140.311 146.813 140.122 146.813 140.027C146.908 139.744 147.003 139.366 147.098 139.083C147.098 138.989 147.098 138.894 147.193 138.894C148.716 133.038 149.192 126.616 149.192 120.476C149.192 119.532 149.192 118.493 149.097 117.548C149.097 117.076 149.097 116.604 149.002 116.132C148.907 114.243 148.812 112.448 148.716 110.559C147.479 87.5132 144.338 64.3729 138.245 42.1771C138.15 41.7993 138.055 41.516 137.96 41.1382C137.674 40.0048 137.294 38.9658 137.008 37.8324C136.818 37.0768 136.627 36.4157 136.342 35.6601C136.056 34.81 135.866 34.0544 135.58 33.2044C135.485 32.8266 135.295 32.4488 135.199 32.071C134.819 30.8431 134.438 29.7097 134.057 28.4819C133.867 28.1041 133.771 27.6318 133.581 27.254C133.486 27.0651 133.486 26.8762 133.391 26.7818C133.296 26.4984 133.2 26.3095 133.105 26.0261C130.345 18.8479 126.347 11.5753 120.921 6.66386C120.921 6.66386 120.921 6.66387 120.826 6.56942C120.635 6.38052 120.35 6.19161 120.159 5.90826C120.064 5.81381 119.969 5.81381 119.969 5.71936C119.778 5.53046 119.588 5.34156 119.302 5.24711C119.207 5.15266 119.112 5.05821 119.017 4.96376C118.827 4.77486 118.636 4.68041 118.446 4.49151C118.351 4.39706 118.16 4.30262 118.065 4.20817C117.875 4.11372 117.684 3.92481 117.494 3.83036C117.303 3.73591 117.208 3.64146 117.018 3.54701C116.827 3.45256 116.637 3.35812 116.447 3.26367C116.256 3.16922 116.066 3.07476 115.876 2.98031C115.685 2.88586 115.59 2.79141 115.4 2.69696C115.019 2.50806 114.733 2.31916 114.353 2.22471C114.257 2.13026 114.067 2.13026 113.972 2.03581C113.686 1.94136 113.496 1.84691 113.21 1.75246C113.02 1.65801 112.925 1.65801 112.734 1.56356C112.544 1.46911 112.258 1.37466 112.068 1.37466C111.878 1.37466 111.782 1.28021 111.592 1.28021C111.402 1.18576 111.116 1.18576 110.926 1.09131C110.735 1.09131 110.64 0.996854 110.45 0.996854C110.259 0.996854 109.974 0.902413 109.783 0.902413C109.593 0.902413 109.498 0.807957 109.307 0.807957C109.022 0.807957 108.831 0.713501 108.546 0.713501C108.356 0.713501 108.26 0.713501 108.07 0.713501C107.784 0.713501 107.499 0.713501 107.213 0.713501C107.118 0.713501 106.928 0.713501 106.832 0.713501C106.452 0.713501 105.976 0.713507 105.595 0.807957C105.119 0.807957 104.643 0.902404 104.167 0.996854C104.072 0.996854 103.977 0.996854 103.882 0.996854C103.406 1.0913 102.93 1.18576 102.454 1.28021H102.359C101.883 1.37466 101.407 1.56355 100.931 1.658C100.931 1.658 100.931 1.658 100.835 1.658C92.2683 4.58596 85.9857 12.992 78.9416 19.1313C62.2832 33.6766 31.4414 26.7817 26.1107 52.1888C24.0165 62.2006 22.1127 71.8345 19.6378 81.2795C17.1628 90.7245 14.2119 99.9806 10.1187 109.331C9.45235 110.937 8.69083 112.637 8.02449 114.432V114.526C7.9293 114.809 7.83411 115.093 7.73892 115.376C7.73892 115.47 7.73892 115.47 7.64373 115.565C7.54854 115.848 7.45335 116.132 7.35816 116.321C7.35816 116.415 7.35815 116.415 7.26296 116.509C7.16777 116.793 7.07259 116.982 7.07259 117.265C7.07259 117.359 6.9774 117.454 6.9774 117.548C6.88221 117.832 6.8822 118.021 6.78701 118.304C6.78701 118.398 6.69182 118.493 6.69182 118.587C6.59663 118.776 6.59663 119.06 6.50144 119.248C6.50144 119.343 6.40625 119.437 6.40625 119.626C6.31106 119.815 6.31106 120.099 6.21587 120.287C6.21587 120.382 6.12068 120.571 6.12068 120.665C6.12068 120.854 6.02549 121.137 6.02549 121.326C6.02549 121.421 6.02549 121.61 5.9303 121.704C5.9303 121.893 5.8351 122.176 5.8351 122.365C5.8351 122.554 5.8351 122.649 5.73991 122.838C5.73991 122.838 5.73991 122.838 5.73991 122.932C5.73991 123.121 5.64472 123.31 5.64472 123.499C5.64472 123.593 5.64472 123.688 5.64472 123.782C5.64472 123.782 5.64472 123.782 5.64472 123.877C5.64472 123.971 5.64472 123.971 5.64472 124.065C5.64472 124.349 5.54953 124.632 5.54953 124.915C5.54953 125.199 5.54954 125.388 5.45435 125.671C5.45435 125.766 5.45435 125.954 5.45435 126.049C5.45435 126.238 5.45435 126.427 5.45435 126.71C5.45435 126.71 5.45435 126.71 5.45435 126.804C5.45435 126.899 5.45435 126.993 5.45435 127.182C5.45435 127.277 5.45435 127.371 5.45435 127.466C5.45435 127.56 5.45435 127.655 5.45435 127.749C5.45435 127.843 5.45435 127.938 5.45435 128.032C5.45435 128.127 5.45435 128.221 5.45435 128.316C5.45435 128.41 5.45435 128.599 5.45435 128.693C5.45435 128.788 5.45435 128.882 5.45435 128.882C5.45435 128.977 5.45435 129.071 5.45435 129.166C5.45435 129.355 5.45434 129.544 5.54953 129.638C5.54953 129.732 5.54953 129.827 5.54953 129.921V130.016C5.54953 130.205 5.54953 130.299 5.64472 130.488V130.582C5.64472 130.677 5.73991 130.866 5.73991 130.96C5.73991 131.055 5.73991 131.055 5.73991 131.149C5.73991 131.244 5.8351 131.433 5.8351 131.527C5.8351 131.621 5.9303 131.716 5.9303 131.905C5.9303 131.999 5.9303 132.094 6.02549 132.188C6.02549 132.283 6.12068 132.377 6.12068 132.566C6.12068 132.66 6.21587 132.755 6.21587 132.849C6.21587 132.944 6.31106 133.038 6.31106 133.038C6.31106 133.133 6.40625 133.322 6.50144 133.416C6.50144 133.51 6.59663 133.605 6.59663 133.605C6.59663 133.699 6.69182 133.699 6.69182 133.794C6.69182 133.794 6.69182 133.794 6.69182 133.888C6.78701 133.983 6.78702 134.172 6.88221 134.266C6.88221 134.36 6.9774 134.455 6.9774 134.549C6.9774 134.644 7.07259 134.738 7.07259 134.833C7.16778 134.927 7.16777 135.022 7.26296 135.116C7.35815 135.211 7.35816 135.305 7.45335 135.399C7.45335 135.494 7.54854 135.494 7.54854 135.588L7.64373 135.683C7.64373 135.777 7.73892 135.777 7.73892 135.872C7.83411 135.966 7.9293 136.155 8.02449 136.249C8.02449 136.344 8.11968 136.344 8.11968 136.438C8.11968 136.438 8.11968 136.438 8.21487 136.533L8.31007 136.627C8.40526 136.722 8.40526 136.816 8.50045 136.816C8.59564 136.911 8.69083 137.1 8.78602 137.194C8.78602 137.194 8.78601 137.194 8.8812 137.288C8.97639 137.383 9.0716 137.477 9.0716 137.572C9.16679 137.666 9.26197 137.855 9.45235 137.95C9.45235 137.95 9.45236 138.044 9.54755 138.044C9.54755 138.044 9.54754 138.044 9.64273 138.139C9.73792 138.233 9.73792 138.233 9.83311 138.327C9.9283 138.422 10.1187 138.611 10.2139 138.705C10.3091 138.8 10.3091 138.8 10.4043 138.894C10.4995 138.894 10.4994 138.989 10.5946 138.989C10.785 139.083 10.8802 139.272 11.0706 139.366C11.1658 139.461 11.1658 139.461 11.261 139.555C11.261 139.555 11.3562 139.555 11.3562 139.65C11.6417 139.839 11.9273 140.028 12.2129 140.216C12.4985 140.405 12.784 140.5 13.0696 140.689C13.1648 140.783 13.26 140.783 13.4504 140.878C13.5456 140.878 13.5455 140.972 13.6407 140.972C13.6407 140.972 13.6407 140.972 13.7359 140.972H13.8311C13.8311 140.972 13.9263 140.972 13.9263 141.066C14.1167 141.161 14.4023 141.255 14.5926 141.35C14.6878 141.35 14.6878 141.35 14.783 141.444C14.8782 141.444 15.0686 141.539 15.1638 141.539C15.259 141.539 15.3542 141.633 15.4494 141.633C15.7349 141.728 16.1157 141.822 16.4013 141.917C16.4965 141.917 16.5917 141.917 16.6869 142.011H16.782H16.8772C16.8772 142.011 16.8772 142.011 16.9724 142.011C17.4484 142.105 17.9243 142.2 18.4003 142.2C18.4955 142.2 18.5907 142.2 18.781 142.2C19.0666 142.2 19.3522 142.294 19.6378 142.294H19.733C19.9233 142.294 20.1137 142.294 20.3041 142.294C20.3041 142.294 20.3041 142.294 20.3993 142.294C20.4945 142.294 20.4945 142.294 20.5897 142.294C21.0656 142.294 21.5416 142.294 21.9223 142.294C22.0175 142.294 22.1127 142.294 22.3031 142.294C22.7791 142.294 23.3502 142.294 23.8262 142.294C24.0165 142.294 24.1117 142.294 24.3021 142.294C24.7781 142.294 25.254 142.2 25.73 142.2C25.9204 142.2 26.1107 142.2 26.3011 142.2C26.6819 142.2 27.0626 142.105 27.4434 142.105C27.6338 142.105 27.9194 142.105 28.1097 142.011C28.3953 142.011 28.5857 141.917 28.8713 141.917C32.8693 141.539 36.7721 140.972 40.0086 141.255C62.4736 142.955 83.4156 152.589 105.214 157.69C106.261 157.973 107.308 158.162 108.451 158.445C110.069 158.823 111.782 159.106 113.496 159.39C116.352 159.862 119.207 160.051 121.968 160.051C123.11 160.051 124.252 159.956 125.299 159.862C128.631 159.484 131.772 158.634 134.723 157.029C135.104 156.84 135.485 156.556 135.866 156.367C135.961 156.273 136.151 156.178 136.246 156.084C136.532 155.895 136.722 155.706 137.008 155.612C137.198 155.517 137.294 155.423 137.389 155.328C137.579 155.14 137.865 155.045 138.055 154.856C138.245 154.762 138.341 154.573 138.531 154.478C138.721 154.289 138.912 154.195 139.102 154.006C139.293 153.912 139.388 153.723 139.483 153.628C139.673 153.439 139.864 153.251 139.959 153.156L140.054 153.062C140.149 152.967 140.244 152.873 140.34 152.778C140.53 152.589 140.625 152.4 140.816 152.212C140.816 151.55 141.006 151.362 141.101 151.173Z" fill="#444235"/>
<path d="M5.69188 117.712C1.71254 126.821 -2.93002 141.719 7.87105 148.551C15.0718 153.01 27.1993 148.93 35.3474 149.594C58.8445 151.302 80.6361 161.93 103.375 166.864C112.092 168.762 121.756 169.711 129.525 165.346C142.79 157.945 144.495 139.821 143.832 124.639C142.6 94.7485 138.526 64.8585 128.957 36.5816C124.409 23.0125 114.934 7.5456 100.628 8.68427C89.637 9.53827 82.4363 19.8812 74.1934 27.1876C57.6128 41.8005 26.915 34.8736 21.6092 60.3987C17.4404 80.4203 13.9348 99.0185 5.69188 117.712Z" fill="#B8B59B"/>
<path opacity="0.7" d="M105.554 88.296C106.786 86.1136 107.923 83.9312 108.681 81.5589C109.628 78.048 109.249 73.778 106.407 71.5007C105.46 70.7416 104.228 70.1723 103.28 69.4132C91.6267 59.3549 122.135 46.6398 107.355 39.0487C101.291 35.9174 92.6689 41.326 88.3106 45.4063C81.9626 51.3843 79.1202 62.1067 70.8773 65.8074C68.2244 67.0409 65.1925 67.2307 62.3501 68.1796C47.0012 73.2087 38.3794 94.1791 40.369 109.077C40.4638 110.12 40.748 111.259 41.6955 111.828C42.5482 112.303 43.5904 112.113 44.5378 111.923C48.8962 110.974 53.1597 109.931 57.5181 108.982C60.6447 108.318 63.8661 107.558 66.9927 108.318C70.1193 108.982 73.0564 111.544 73.0564 114.77C73.1512 117.617 70.972 120.084 71.1615 122.93C71.351 126.726 75.5198 129.098 79.3097 129.288C83.0995 129.478 86.7946 128.054 90.5845 127.865C94.1848 127.675 98.2589 129.003 100.438 132.135C102.144 134.602 101.386 140.105 104.702 141.149C106.881 141.908 108.965 139.726 110.102 137.733C114.176 130.711 116.734 118.376 111.239 111.259C108.586 107.938 104.417 105.85 102.807 101.865C101.48 98.4491 102.522 94.6536 104.038 91.3325C104.417 90.2887 104.986 89.2449 105.554 88.296Z" fill="#C9C4AB"/>
<path d="M25.6833 130.522C28.3362 123.974 31.5576 117.617 29.6627 110.5C28.2415 105.091 24.0726 99.6827 26.2518 94.5587C28.2415 89.9091 34.779 88.0114 35.8212 82.9823C36.2002 80.9896 35.6317 78.9021 35.4422 76.9094C35.0632 71.5956 38.2846 66.3767 42.5481 63.1505C46.8117 59.9243 52.1175 58.3112 57.4233 57.3623C60.9289 56.6981 64.5293 56.1287 67.6559 54.4207C71.9195 52.0485 74.7618 47.8734 78.078 44.3625C87.0788 34.8736 110.102 23.0125 121.472 34.1145C125.262 37.8152 126.114 43.1289 128.483 47.6836C129.904 50.3405 131.894 52.4281 134.168 54.3258C132.652 48.3478 130.946 42.4647 128.957 36.6765C124.409 23.1074 114.934 7.64051 100.628 8.77918C89.637 9.63318 82.4363 19.9761 74.1934 27.2825C57.6128 41.8954 26.915 34.9685 21.6092 60.4936C17.4404 80.61 13.9348 99.2083 5.69188 117.901C1.71254 127.011 -2.93002 141.908 7.87105 148.74C12.3241 151.492 18.5774 151.018 24.6411 150.353C21.325 142.857 23.2199 136.595 25.6833 130.522Z" fill="#AFAC94"/>
<path opacity="0.9" d="M128.956 36.4866C124.408 22.9175 114.933 7.45063 100.627 8.5893C96.2684 8.96885 92.5733 10.7717 89.0677 13.3337C90.1099 13.5235 91.1521 13.8082 92.1943 14.1877C108.396 19.3117 127.724 40.2822 118.818 58.3111C117.681 60.6833 116.07 62.9606 115.123 65.4277C111.996 74.4422 124.219 81.0844 124.313 90.0988C124.313 93.2301 123.082 96.2666 123.461 99.3979C124.029 104.712 128.956 108.792 129.809 114.106C130.946 120.748 126.303 126.916 127.25 133.558C127.629 136.689 128.766 139.726 128.482 142.857C128.008 149.025 121.566 154.149 115.407 153.01C110.007 152.061 105.554 147.222 100.153 147.317C98.7318 147.317 97.3106 147.696 95.7947 147.601C89.8257 146.937 87.7412 138.397 81.9617 136.594C77.5087 135.171 72.7713 138.397 68.2235 137.353C64.8127 136.499 62.444 133.558 59.4121 131.755C47.1899 124.354 34.1149 137.733 21.5137 133.653C14.2182 131.281 8.15446 127.675 4.83834 119.419C1.0485 128.624 -2.55186 142.193 7.68073 148.645C14.8814 153.105 27.009 149.025 35.1571 149.689C58.6542 151.397 80.4458 162.025 103.185 166.959C111.902 168.857 121.566 169.805 129.335 165.441C142.599 158.039 144.305 139.915 143.641 124.733C142.599 94.7484 138.525 64.7635 128.956 36.4866Z" fill="#D3CEBA"/>
<path d="M128.956 36.4867C124.408 23.0125 115.028 7.54556 100.816 8.58934C104.038 10.8667 106.975 13.4287 109.343 15.8958C116.544 23.2971 121.85 31.4576 123.082 41.8954C124.124 50.72 122.418 59.7345 124.408 68.4642C126.208 76.2451 129.43 83.5516 130.946 91.4274C134.356 108.982 144.589 152.536 117.776 158.324C105.648 160.886 96.9316 152.346 87.2675 146.842C73.7188 139.062 57.5172 137.923 42.2631 138.302C30.7988 138.587 18.7661 140.58 9.38619 132.23C6.63855 129.762 4.64889 126.916 3.32245 123.784C0.385316 132.514 -0.846387 143.142 7.77551 148.645C14.9762 153.105 27.1037 149.025 35.2519 149.689C58.7489 151.397 80.5405 162.025 103.28 166.959C111.996 168.857 121.66 169.806 129.43 165.441C142.694 158.039 144.399 139.916 143.736 124.733C142.599 94.7485 138.525 64.7636 128.956 36.4867Z" fill="#9E9B83"/>
<path d="M138.62 102.055C134.735 89.15 128.766 78.6174 128.198 65.0483C127.913 58.6907 127.629 51.8587 129.903 45.9756C130.282 45.0267 130.756 44.1727 131.229 43.3187C130.566 41.0414 129.808 38.764 129.05 36.3918C124.503 22.9176 115.123 7.45071 100.911 8.49449C104.132 10.7718 107.069 13.3338 109.438 15.8009C116.639 23.2023 121.944 31.3627 123.176 41.8005C124.218 50.6251 122.513 59.6396 124.503 68.3694C126.303 76.1503 129.524 83.4567 131.04 91.3325C134.451 108.887 144.683 152.441 117.87 158.229C105.743 160.791 97.0261 152.251 87.362 146.748C73.8133 138.967 57.6117 137.828 42.3576 138.208C30.8933 138.492 18.8606 140.485 9.48068 132.135C6.73304 129.668 4.74337 126.821 3.41693 123.69C0.479795 132.419 -0.751901 143.047 7.87 148.551C9.85967 149.784 12.3231 150.353 14.8812 150.543C24.4506 136.689 51.2637 142.003 64.6229 145.988C77.6979 149.879 90.2992 156.616 100.153 166.105C101.195 166.39 102.237 166.579 103.374 166.864C112.091 168.762 121.755 169.711 129.524 165.346C142.125 158.324 144.304 141.624 143.925 126.916C141.462 119.989 140.704 109.077 138.62 102.055Z" fill="#898468"/>
<path opacity="0.6" d="M15.166 144.755C10.0497 134.222 17.7241 122.741 19.8085 112.208C23.2194 94.8434 23.5984 71.1211 37.0523 57.2674C45.6742 48.4427 52.9697 48.5376 64.2445 46.0705C77.13 43.3187 88.1205 28.1365 98.2584 20.83C109.059 13.0492 117.397 23.5818 127.251 31.5525C122.229 19.4067 113.418 7.45071 100.817 8.3996C89.826 9.2536 82.6252 19.5965 74.3823 26.9029C57.8018 41.5158 27.104 34.5889 21.7982 60.114C17.6294 80.2305 14.1238 98.8287 5.88085 117.522C1.90151 126.631 -2.74105 141.529 8.06001 148.361C11.3761 150.448 15.7344 150.638 20.2823 150.353C18.1031 149.025 16.3029 147.222 15.166 144.755Z" fill="#DDD9C7"/>
<path opacity="0.7" d="M13.9335 132.324C21.0395 123.974 21.8922 109.741 23.5029 99.3031C24.9241 90.1937 27.0085 81.0844 30.9878 72.6393C33.8302 66.5664 37.8096 60.7782 43.5891 57.552C46.8105 55.7491 50.5056 54.8951 54.0112 53.7564C61.4961 51.2893 68.6021 47.5886 74.8553 42.7493C76.5608 41.4209 78.2662 39.1435 77.0345 37.4355C71.8234 38.4793 67.1809 41.2311 62.1593 43.1289C53.8217 46.2602 44.4418 46.7346 36.8621 51.4791C26.3453 58.0264 22.0817 71.1211 20.092 83.3617C18.7656 91.5222 17.5339 99.7775 15.9232 107.938C15.1652 111.828 14.6915 115.909 13.9335 119.704C13.0808 123.879 11.1859 127.295 11.5649 131.66C11.5649 132.135 11.7544 132.704 12.1334 132.989C12.7018 133.368 13.4598 132.894 13.9335 132.324Z" fill="#EAE6D3"/>
<path d="M34.778 56.698C31.6514 59.1651 29.188 63.6249 27.2931 67.1357C25.2087 71.0262 23.598 75.2962 22.5558 79.4713C21.5136 83.6464 20.8503 88.5806 21.2293 92.8506C21.2293 93.1353 21.3241 93.5149 21.6083 93.6097C21.9873 93.8944 22.5558 93.42 22.6505 92.8506C23.5032 88.3909 24.1664 83.8362 25.4929 79.5662C26.5351 76.1502 28.051 72.8291 29.8512 69.7926C32.3146 65.6175 35.4412 61.822 39.0416 58.6906C44.8211 53.6615 52.7798 51.2893 59.6963 48.2529C60.17 48.0631 60.6437 47.4937 60.2647 47.2091C60.17 47.1142 59.9805 47.1142 59.791 47.1142C50.3164 48.3478 42.263 50.9097 34.778 56.698Z" fill="#EFEBDC"/>
<path d="M16.6822 118.376C15.5453 121.887 14.3136 125.398 13.9346 129.098C14.503 129.288 14.882 128.624 15.0715 128.149C16.1137 125.777 17.2507 123.405 18.1981 121.033C19.0509 118.755 19.7141 116.383 20.1878 114.011C20.6616 111.639 21.0405 109.172 21.23 106.799C21.4195 104.807 22.0827 101.58 21.7038 99.7776C21.609 99.3031 21.1353 98.9236 20.6616 99.0185C20.2826 99.1134 20.0931 99.5878 20.0931 100.062C19.9036 105.945 18.3876 112.682 16.6822 118.376Z" fill="#EFEBDC"/>
<path opacity="0.7" d="M90.3002 21.779C86.2262 25.3848 83.4785 30.0343 79.9729 34.6839C79.5939 35.1583 79.2149 35.6328 79.1202 36.297C79.0254 36.8663 79.2149 37.6254 79.7834 37.8152C81.5836 38.6692 85.5629 34.9686 86.7946 34.0197C89.0685 32.027 91.153 29.8446 93.5216 27.8519C95.985 25.7643 98.6379 23.7717 101.575 22.5381C104.702 21.3046 107.165 21.9688 110.197 21.4943C110.671 21.3995 111.05 21.3046 111.239 20.8301C111.334 20.6403 111.334 20.3557 111.334 20.071C110.671 13.3339 100.059 15.8959 96.2693 17.6988C93.9953 18.8375 92.1004 20.1659 90.3002 21.779Z" fill="#EAE6D3"/>
<path d="M105.553 20.071C106.027 19.9761 106.501 19.8812 106.785 19.5016C107.164 19.0272 106.88 18.2681 106.406 17.8885C105.932 17.509 105.269 17.509 104.606 17.509C102.901 17.6039 101.195 18.0783 99.5845 18.4579C98.0685 18.8374 96.5526 19.3119 95.2261 20.071C93.426 21.1148 92.0048 22.8227 90.6783 24.4359C89.9204 25.2899 83.1934 31.9321 84.4251 32.7861C84.8041 33.0708 85.3725 32.6912 85.7515 32.4065C88.6887 29.5599 91.5311 26.3336 94.8472 23.8665C97.9738 21.3994 101.669 21.1148 105.553 20.071Z" fill="#EFEBDC"/>
<path opacity="0.54" d="M102.996 111.164C103.28 113.631 102.143 115.814 100.438 116.004C98.7321 116.193 97.2162 114.296 96.932 111.829C96.6477 109.361 97.7847 107.179 99.4901 106.989C101.196 106.799 102.806 108.697 102.996 111.164Z" fill="#4C4A38"/>
<path opacity="0.65" d="M59.6967 84.5954C57.8966 88.4858 54.4857 91.807 50.3169 92.8507C49.5589 93.0405 48.7062 93.1354 48.1377 92.5661C47.0008 91.5223 47.1902 89.5296 47.0955 88.2012C46.8113 85.5443 47.8535 82.3181 49.2747 79.5663C50.2221 77.7634 51.5486 76.1503 52.7803 74.727C54.012 73.3985 55.3384 71.5956 56.7596 70.9314C59.5072 69.5081 61.3074 71.6905 61.4969 74.3474C61.8759 77.9532 61.3074 81.1794 59.6967 84.5954Z" fill="#E2DFD7"/>
<path d="M58.7495 82.5079C55.8124 88.391 51.3593 92.1865 48.8012 90.8581C46.243 89.6245 46.622 83.7414 49.5591 77.8583C52.4963 71.9752 56.9493 68.1796 59.5075 69.5081C62.0656 70.8365 61.6867 76.6247 58.7495 82.5079Z" fill="#A49E85"/>
<path opacity="0.55" d="M56.0948 75.1062C58.7477 73.2084 60.4532 73.3033 61.1164 75.1062C61.4006 72.3544 60.9269 70.2668 59.6004 69.5077C57.0423 68.2742 52.684 71.9748 49.6521 77.858C48.1362 80.8944 47.2835 83.836 47.1887 86.3031C47.5677 85.1644 52.3997 77.763 56.0948 75.1062Z" fill="#51493C"/>
<path opacity="0.65" d="M124.693 134.317C124.409 136.025 123.745 137.638 122.798 139.062C122.229 139.916 120.619 141.244 119.482 141.054C118.913 140.959 118.439 140.39 118.155 139.916C117.113 137.733 116.829 135.076 117.492 132.704C117.776 131.471 118.345 130.427 118.913 129.383C119.482 128.434 120.05 127.201 120.713 126.631C123.461 124.354 124.314 129.288 124.598 130.996C124.882 132.04 124.882 133.179 124.693 134.317Z" fill="#E2DFD7"/>
<path d="M123.459 133.179C122.512 137.069 120.427 139.821 118.722 139.441C117.111 139.062 116.543 135.551 117.395 131.66C118.343 127.77 120.427 125.018 122.133 125.398C123.838 125.872 124.407 129.288 123.459 133.179Z" fill="#A49E85"/>
<path opacity="0.55" d="M120.902 129.192C122.229 127.674 123.176 127.579 123.839 128.528C123.65 126.82 123.081 125.681 122.134 125.491C120.523 125.112 118.344 127.863 117.397 131.754C116.923 133.747 116.828 135.644 117.112 137.068C117.302 136.214 119.102 131.185 120.902 129.192Z" fill="#51493C"/>
<path d="M100.058 45.0267C100.816 42.18 102.806 40.2822 104.511 40.7567C106.217 41.2311 106.88 43.888 106.122 46.6398C105.364 49.4864 103.374 51.3842 101.669 50.9098C99.9636 50.4353 99.3004 47.7784 100.058 45.0267Z" fill="#A49E85"/>
<path d="M82.1523 122.077C87.8371 122.456 92.2902 124.828 92.1007 127.295C91.9112 129.857 87.2686 131.66 81.5838 131.281C75.8991 130.901 71.446 128.529 71.6355 126.062C71.7302 123.5 76.4675 121.792 82.1523 122.077Z" fill="#A49E85"/>
<path d="M74.6666 44.2676C74.0034 42.18 73.9086 39.9027 74.2876 37.7203C74.4771 36.8663 74.6666 36.0123 74.6666 35.1583C74.7614 33.4503 74.0981 31.8372 73.1507 30.4138C72.7717 33.8298 72.4875 37.1509 71.7295 40.472C71.2558 42.3698 70.2135 45.0267 70.782 46.9245C71.8242 50.3405 77.4143 50.6251 80.3514 51.4791C81.6778 51.8587 86.6994 53.6616 88.0258 54.3258C92.4789 56.3185 95.8898 59.9242 99.3954 63.1505C103.28 66.5665 107.07 70.0773 110.765 73.6831C108.965 68.8438 105.364 64.8585 101.954 61.0629C100.153 59.0702 98.2584 56.9827 95.8898 55.844C94.3738 55.0849 92.7631 54.8003 91.2472 54.0411C88.4048 52.7127 86.4151 50.1507 83.6675 48.6325C81.8673 47.6836 79.8777 47.2091 77.888 46.8296C76.9405 46.6398 75.9931 46.5449 75.3298 45.7858C75.0456 45.4062 74.8561 44.9318 74.6666 44.4574C74.6666 44.4574 74.6666 44.3625 74.6666 44.2676Z" fill="#EAE6D3"/>
<path d="M72.6777 36.0123C71.6355 40.1874 69.2668 45.1216 66.9929 48.5376C69.2668 49.866 71.825 50.5303 74.4779 51.0996C79.5942 52.2383 85.3737 55.2747 90.2057 57.552C94.1851 59.3549 91.0584 61.7271 91.7217 64.8585C92.6691 63.9096 93.9956 60.8731 95.5115 60.7783C96.459 60.7783 98.0697 62.676 98.8276 63.2454C103.281 66.7563 107.544 70.7416 111.808 74.5372C109.344 70.362 106.028 66.2818 102.238 63.2454C97.8802 59.7345 93.3323 56.0338 88.4056 53.4718C84.2367 51.2894 81.1101 49.1069 76.3728 48.0632C74.9516 47.7785 73.3409 48.0631 72.6777 46.7347C72.1092 45.6909 72.9619 43.6034 72.9619 42.3698C72.6777 40.3772 72.4882 38.2896 72.6777 36.0123Z" fill="#5B5845"/>
<path d="M72.2983 105.566C70.4034 106.704 68.6032 108.223 66.9925 109.836C65.9503 110.88 65.0976 112.018 64.1502 113.157C62.0657 115.529 59.7918 117.617 57.4232 119.704C55.7178 121.128 55.244 123.69 55.4335 125.872C55.623 127.77 55.0545 129.668 54.6755 131.565C54.7703 130.996 55.9072 129.762 56.1915 129.098C56.9495 127.295 57.5179 125.303 58.0864 123.405C58.1812 123.12 58.2759 122.93 58.3706 122.646C58.5601 122.266 58.8444 121.982 59.1286 121.697C64.0554 117.047 67.6558 111.069 73.0563 106.989C75.1407 105.376 77.5094 104.142 79.7833 102.909C77.0356 103.288 74.5722 104.237 72.2983 105.566Z" fill="#EAE6D3"/>
<path d="M30.7996 128.908C31.7471 128.054 32.6946 127.106 33.8315 126.536C34.8737 125.967 36.0107 125.682 37.0529 125.398C42.0744 124.069 47.096 122.836 52.2123 122.551C52.4965 122.551 52.8755 122.551 53.1597 122.741C53.3492 122.93 53.444 123.12 53.444 123.405C53.8229 124.733 54.0124 125.872 54.1072 127.295C54.1072 127.865 54.2967 128.624 54.2019 129.193C54.2019 129.383 53.7282 130.616 53.7282 130.616C53.3492 129.667 53.065 128.719 52.686 127.865C52.4018 127.106 52.1175 126.346 51.6438 125.777C50.5068 124.544 49.1804 125.018 47.7592 125.398C44.5378 126.251 41.3165 127.2 38.0951 128.054C36.2002 128.624 34.2105 129.098 32.4103 129.952C31.2734 130.522 30.1364 131.186 29.0942 131.85C27.9572 132.514 26.8203 133.368 25.6833 133.937C26.8203 131.945 29.189 130.332 30.7996 128.908Z" fill="#EAE6D3"/>
<path d="M56.1917 124.828C56.9496 121.222 58.6551 119.04 61.308 116.668C65.1926 113.157 68.6034 108.317 72.867 105.186C71.8248 105.566 70.7826 105.945 69.6456 106.325C64.7188 110.879 60.3605 116.763 54.202 119.514C49.2752 121.697 43.7799 121.697 38.7584 123.405C33.6421 125.208 30.0417 128.054 25.8729 131.47C25.4939 131.755 25.1149 132.04 24.7359 132.324C24.6412 133.178 24.4517 134.032 24.2622 134.791C24.6412 134.507 25.0202 134.222 25.3992 133.937C27.2941 132.609 34.4948 125.777 35.158 126.726C38.1899 125.682 41.6008 125.113 44.7274 124.354C45.4853 124.164 46.3381 123.879 47.096 123.689C49.0857 123.025 51.1701 122.361 53.065 122.551C53.7283 125.872 54.0125 129.667 53.7283 132.989C55.9074 130.806 55.6232 127.675 56.1917 124.828Z" fill="#4F4C3F"/>
<path d="M133.41 83.5515C132.746 84.1209 132.083 84.6902 131.325 85.2595C128.578 87.5369 126.019 90.004 123.461 92.4711C120.998 94.9382 119.008 97.69 116.829 100.347C118.156 95.7922 120.903 90.9529 124.409 87.6317C127.062 85.2595 130.094 83.0771 133.22 81.464C134.073 80.9895 134.926 80.61 135.873 80.5151C135.115 80.61 134.547 82.0333 134.073 82.6026C133.978 82.9822 133.789 83.2669 133.41 83.5515Z" fill="#EAE6D3"/>
<path d="M130.945 80.5151C129.809 80.7049 128.956 81.1794 128.103 82.0334C122.703 87.6318 117.681 94.1791 116.07 101.96C118.344 97.4054 121.281 93.0405 124.692 89.2449C127.914 85.734 131.609 82.0334 136.156 80.61C134.925 80.61 133.693 80.61 132.461 80.5151C131.988 80.4202 131.514 80.4202 130.945 80.5151Z" fill="#5B5845"/>
<path d="M81.7078 83.345C79.2223 83.423 77.2477 84.1635 75.8191 85.49C76.0693 81.4486 78.5263 79.2605 82.2922 79.1424C83.9869 79.0892 85.6533 79.3385 87.1928 80.3457L89.7365 74.913C87.7769 73.7305 84.8935 73.1424 81.9184 73.2358C73.5957 73.4969 68.0734 78.9099 68.3617 88.0988C68.6299 96.6475 73.5897 100.94 80.9709 100.708C86.7328 100.528 91.2173 96.8812 91.0448 91.383C90.8865 86.3366 86.6789 83.1891 81.7078 83.345ZM80.3524 95.4127C78.0928 95.4836 76.6193 94.1727 76.5578 92.2144C76.4952 90.2185 77.959 88.8155 80.1056 88.7482C82.2522 88.6808 83.7611 89.9152 83.8249 91.9488C83.8899 94.02 82.4613 95.3465 80.3524 95.4127Z" fill="#494739"/>
</svg>
