<svg width="43" height="43" viewBox="0 0 43 43" fill="none" xmlns="http://www.w3.org/2000/svg">
<path opacity="0.87" d="M31.6386 34.5855C31.7394 34.4664 31.95 34.338 32.0508 34.2189C32.1011 34.1593 32.1515 34.0998 32.1515 34.0998C32.2019 34.0402 32.2019 34.0402 32.2522 33.9807C32.353 33.8615 32.4034 33.802 32.5041 33.6829C32.5545 33.6233 32.6049 33.5637 32.6553 33.5042C32.7056 33.4446 32.756 33.385 32.7973 33.2156C32.8981 33.0965 32.9897 32.8675 33.0905 32.7484C33.1409 32.6888 33.1317 32.579 33.2325 32.4599C33.3242 32.2309 33.3655 32.0614 33.5166 31.8827C33.567 31.8232 33.5579 31.7133 33.6083 31.6538C33.6495 31.4843 33.6999 31.4248 33.7412 31.2553C33.7321 31.1455 33.8328 31.0264 33.8238 30.9165C33.8741 30.857 33.865 30.7471 33.865 30.7471C33.8559 30.6372 33.9567 30.5181 33.9476 30.4082C33.9889 30.2388 33.9798 30.1289 34.0211 29.9595C34.0211 29.9595 34.0714 29.9 34.012 29.8497C34.0945 29.5108 34.1267 29.2315 34.2093 28.8927C34.2002 28.7828 34.301 28.6637 34.2919 28.5538C34.3241 28.2745 34.4066 27.9357 34.4388 27.6564C34.6732 25.8113 34.6879 23.9846 34.7572 22.8172C34.7621 22.2083 34.8174 21.5398 34.8223 20.931C34.7909 19.8826 34.6999 18.784 34.348 17.8733C33.9779 16.7429 33.3468 15.8005 32.6058 14.8673C32.4778 14.6568 32.3498 14.4463 32.1714 14.2954C31.1743 12.9413 30.0675 11.5964 28.6583 10.6089C28.4799 10.458 28.242 10.2568 28.0132 10.1654L27.9538 10.1151C27.8943 10.0648 27.8348 10.0145 27.6655 9.97347C27.5466 9.87287 27.4367 9.88211 27.3178 9.78151C27.2583 9.73121 27.2583 9.7312 27.1988 9.6809C26.97 9.58956 26.8511 9.48897 26.6223 9.39762C26.5628 9.34732 26.5628 9.34734 26.453 9.3566C26.2836 9.31555 26.1143 9.2745 25.8855 9.18316C25.8261 9.13285 25.7162 9.14211 25.7162 9.14211C25.5469 9.10107 25.4371 9.11032 25.2677 9.06928C25.2677 9.06928 25.2082 9.01899 25.1579 9.07856C25.048 9.08781 24.9885 9.03751 24.9382 9.09708C24.8283 9.10634 24.7185 9.11559 24.6086 9.12485C24.4988 9.13411 24.4988 9.13411 24.3889 9.14337C24.2791 9.15263 24.2791 9.15261 24.1693 9.16187C24.1693 9.16187 24.1692 9.16189 24.0594 9.17115C24.0594 9.17115 24.0594 9.17113 23.9495 9.18039C23.8397 9.18965 23.8397 9.18967 23.7298 9.19893L23.62 9.20817C23.5102 9.21743 23.4598 9.27699 23.4003 9.22669C23.1302 9.30477 22.9105 9.32331 22.6495 9.51125C22.3794 9.58933 22.1185 9.77726 21.8575 9.96521C21.5965 10.1532 21.3356 10.3411 21.0242 10.5886C20.7632 10.7765 20.5617 11.0148 20.3602 11.253C20.3098 11.3126 20.3098 11.3126 20.2594 11.3722C20.209 11.4317 20.209 11.4317 20.1587 11.4913C20.1083 11.5509 20.1083 11.5509 20.0579 11.6104C19.9068 11.7891 19.7557 11.9678 19.6045 12.1465C19.5541 12.206 19.5541 12.206 19.5038 12.2656C19.4534 12.3251 19.403 12.3847 19.3526 12.4443C19.1511 12.6825 18.9496 12.9208 18.8076 13.2093C18.5557 13.5071 18.3633 13.8552 18.1114 14.153C17.9099 14.3913 17.7678 14.6798 17.5663 14.9181C17.3144 15.2159 17.0626 15.5137 16.861 15.7519C15.249 17.6579 13.2297 19.3216 11.0642 20.5551C11.0138 20.6147 10.9039 20.6239 10.8032 20.7431C10.2217 21.0687 9.53046 21.4035 8.94902 21.7291C8.36759 22.0547 7.73578 22.4398 7.22291 22.9256C6.71004 23.4113 6.20625 24.0069 5.93127 24.6939C5.88999 24.8633 5.78923 24.9824 5.74795 25.1519C5.70667 25.3213 5.66539 25.4907 5.67449 25.6006L5.6836 25.7104C5.69269 25.8203 5.70177 25.9302 5.66048 26.0996C5.6192 26.269 5.68775 26.4292 5.75632 26.5894C5.76541 26.6992 5.834 26.8594 5.89347 26.9097C5.95294 26.96 5.95293 26.96 5.96203 27.0698C6.0215 27.1201 6.0306 27.23 6.09007 27.2803C6.14954 27.3306 6.20902 27.3809 6.20902 27.3809C6.26849 27.4312 6.32796 27.4815 6.38743 27.5318C6.4469 27.5821 6.50637 27.6324 6.62531 27.733C6.68478 27.7833 6.68479 27.7833 6.74426 27.8336L6.80374 27.8839C6.86321 27.9342 6.92267 27.9845 6.98215 28.0348C7.04162 28.0851 7.04163 28.0851 7.1011 28.1354C7.16057 28.1857 7.22003 28.236 7.27951 28.2863C7.33898 28.3366 7.39846 28.3869 7.45793 28.4372L7.51739 28.4875C7.63633 28.5881 7.75527 28.6888 7.92459 28.7298C7.92459 28.7298 7.92459 28.7298 7.98406 28.7801C8.39127 29.0223 8.85796 29.3149 9.37502 29.5479C9.95155 29.8312 10.5281 30.1144 11.155 30.3382C11.7315 30.6215 12.299 30.7949 12.9259 31.0186C13.3834 31.2013 13.8914 31.3244 14.349 31.5071C14.6876 31.5892 14.9759 31.7309 15.3145 31.8129C15.5433 31.9043 15.7721 31.9957 16.0513 32.0274C16.6187 32.2009 17.2456 32.4246 17.8634 32.5384C18.2021 32.6205 18.6002 32.7529 18.9388 32.835C20.1836 33.1726 21.4283 33.5102 22.5037 33.8067C22.7325 33.8981 22.9018 33.9391 23.181 33.9709C23.5196 34.053 23.8582 34.1351 24.087 34.2264C24.2563 34.2675 24.4257 34.3085 24.595 34.3496C24.6544 34.3999 24.7643 34.3906 24.7643 34.3906C24.8742 34.3813 24.9336 34.4316 25.103 34.4727C25.2128 34.4634 25.2723 34.5137 25.3317 34.564C25.3912 34.6143 25.5011 34.6051 25.5011 34.6051C25.6704 34.6461 25.7299 34.6964 25.8992 34.7375C26.8053 34.993 27.7708 35.2988 28.7182 35.3849L28.828 35.3756C28.9378 35.3664 29.1072 35.4074 29.217 35.3981C29.217 35.3981 29.217 35.3981 29.2765 35.4484C29.336 35.4987 29.3864 35.4392 29.4458 35.4895C29.5557 35.4802 29.6655 35.4709 29.7754 35.4617C29.8852 35.4524 29.9356 35.3929 29.9951 35.4432C30.0455 35.3836 30.1049 35.4339 30.1553 35.3743C30.2057 35.3148 30.2652 35.3651 30.3155 35.3055C30.4758 35.2367 30.6954 35.2182 30.9061 35.0898C31.1167 34.9614 31.2769 34.8926 31.4875 34.7642C31.5883 34.6451 31.5883 34.6451 31.6386 34.5855Z" fill="#444235"/>
<path d="M18.9388 5.45464C22.9445 3.73411 26.5855 7.63115 28.8447 10.8702C29.4758 11.8127 30.1664 12.8055 30.5868 13.8763C31.1627 15.4872 31.0794 17.1537 30.9961 18.8202C30.8708 21.9837 30.7203 29.5192 27.2547 31.0835C25.7119 31.8221 23.7899 31.3203 22.1975 30.7908C18.5641 29.6589 3.0824 26.3727 2.08682 22.3634C1.69852 21.0132 2.46819 19.6208 3.49393 18.6493C4.51967 17.6778 5.86093 17.1775 7.07418 16.4668C9.72038 15.0268 12.042 13.0057 13.8374 10.6418C14.987 9.16198 15.9078 7.59087 17.3547 6.3626C17.8263 6.04627 18.4077 5.72067 18.9388 5.45464Z" fill="#C4C1A9"/>
<path opacity="0.9" d="M22.1567 30.9598C23.859 31.4801 25.6711 31.9911 27.2139 31.2526C29.0771 30.3765 30.0259 27.8073 30.4668 25.1151C30.2653 25.3533 30.0043 25.5412 29.7433 25.7292C28.2691 26.6279 26.191 26.9136 24.4838 27.0022C22.0581 27.0961 21.7152 26.2953 19.6561 25.4732C16.5719 24.2949 12.4242 26.304 10.0551 23.0742C9.24563 21.9808 9.30584 20.7035 10.1622 19.691C11.33 18.4309 12.2403 19.4052 13.5816 18.9049C14.2819 18.6799 14.8956 18.0751 15.1615 17.2782C15.7849 15.4556 15.0943 14.4628 17.0261 13.7468C19.2784 12.8932 19.2014 11.2956 20.484 9.41742C21.3222 8.18516 22.4165 7.37378 23.8677 6.86426C24.2476 6.77692 24.6184 6.57975 25.0074 6.60227C23.182 5.26264 21.1319 4.55039 18.9986 5.50462C18.4676 5.77064 17.8861 6.09625 17.3138 6.5317C15.9172 7.7004 14.946 9.33106 13.8468 10.7513C12.0514 13.1152 9.7299 15.1363 7.08371 16.5763C5.87046 17.287 4.52918 17.7872 3.50345 18.7587C2.47771 19.7302 1.70804 21.1227 2.09634 22.4728C3.04155 26.5418 18.5736 29.7683 22.1567 30.9598Z" fill="#D3CEBA"/>
<path d="M22.2618 14.1904C22.3206 15.5683 21.8259 16.2738 22.8138 17.5181C23.4267 18.2409 24.3419 18.6062 25.0052 19.2694C26.3912 20.646 26.9076 22.2067 26.3436 24.0796C25.6467 26.3509 23.8198 27.6665 21.618 28.4606C20.2767 28.9608 18.6289 29.0998 17.3562 29.7602C19.4475 30.303 21.2002 30.7637 22.1657 31.0695C23.868 31.5898 25.6802 32.1008 27.223 31.3623C30.6885 29.798 30.839 22.2625 30.9643 19.099C31.0476 17.4325 31.1218 15.6562 30.5551 14.1551C30.1849 13.0247 29.5538 12.0823 28.8129 11.149C26.5537 7.90997 22.8532 3.96265 18.907 5.73347C18.3759 5.99949 17.7945 6.32508 17.2221 6.76053C16.0866 7.74129 15.1979 9.03314 14.3093 10.325C17.9484 9.52039 22.0765 9.94679 22.2618 14.1904Z" fill="#B8B59B"/>
<path d="M22.1568 30.9596C23.8591 31.4799 25.6712 31.9909 27.214 31.2524C28.1754 30.8395 28.8716 29.8958 29.3894 28.8012C26.2128 29.1796 16.1627 28.0354 9.37239 24.8464C6.89695 23.6721 6.49116 20.7747 8.14452 18.6993C10.4115 16.019 14.1422 14.9855 16.4183 12.4151C18.7538 9.89499 19.0897 6.60307 21.7863 5.10353C20.8893 4.95788 19.9006 5.04122 18.9393 5.45415C18.4082 5.72017 17.8268 6.04577 17.2545 6.48122C15.8579 7.64992 14.8867 9.2806 13.7875 10.7008C11.9921 13.0647 9.67057 15.0858 7.02438 16.5258C5.81113 17.2365 4.46987 17.7368 3.44413 18.7083C2.4184 19.6798 1.6487 21.0722 2.03701 22.4224C3.04169 26.5416 18.5738 29.7681 22.1568 30.9596Z" fill="#9E9B83"/>
<path d="M12.0393 27.0001C14.1488 27.7626 16.3318 28.0765 18.4826 28.6696L18.5924 28.6603C20.6152 29.043 22.5554 29.7645 23.8498 31.3701C25.035 31.6574 26.2021 31.725 27.2642 31.1929C28.2256 30.78 28.9217 29.8363 29.4395 28.7417C26.263 29.1201 16.2129 27.9759 9.42256 24.7868C6.94712 23.6126 6.54134 20.7151 8.1947 18.6398C10.4617 15.9595 14.1924 14.9259 16.4685 12.3555C18.804 9.83544 19.1399 6.54356 21.8365 5.04401C21.2187 4.93015 20.5001 4.9354 19.7997 5.16038C18.238 7.00678 17.8385 9.52966 15.929 11.1841C13.7586 13.0265 11.2635 14.2878 9.10222 16.2401C7.71474 17.5186 6.61063 19.5477 4.72919 20.2041C3.92806 20.5483 3.04924 20.6223 2.21173 20.527C1.98713 21.1544 1.87237 21.7725 2.03678 22.4224C2.27886 23.3424 3.2899 24.1975 4.74031 25.0156C5.61911 24.9415 6.45661 25.0369 7.41306 25.2328C9.00552 25.7624 10.4972 26.411 12.0393 27.0001Z" fill="#898468"/>
<path opacity="0.6" d="M21.8757 8.85751C27.4032 11.4892 29.4727 18.4504 29.26 22.5616C29.1116 26.1143 27.8052 29.7092 24.9162 31.5569C25.6943 31.6019 26.4632 31.5371 27.1545 31.2023C30.62 29.6379 30.7706 22.1024 30.8958 18.9388C30.9791 17.2724 31.0533 15.4961 30.4866 13.995C30.1165 12.8646 29.4854 11.9221 28.7445 10.9889C26.4852 7.74984 22.7847 3.80254 18.8385 5.57337C18.3074 5.83939 17.726 6.165 17.1537 6.60044C16.6408 7.0862 16.1783 7.51236 15.7249 8.04842C15.9446 8.0299 16.1048 7.96109 16.3245 7.94257C18.2927 7.66603 20.2651 8.10824 21.8757 8.85751Z" fill="#DDD9C7"/>
<path opacity="0.54" d="M21.9065 11.2333C22.5012 11.7363 22.7342 12.5464 22.3221 12.913C21.9694 13.3299 21.1823 13.175 20.5876 12.672C19.9929 12.169 19.7599 11.3589 20.172 10.9923C20.5246 10.5754 21.3117 10.7303 21.9065 11.2333Z" fill="#4C4A38"/>
<path d="M14.2477 22.9419C14.261 23.7705 13.8167 24.4164 13.2675 24.4627C12.7182 24.509 12.2746 23.8273 12.2613 22.9987C12.248 22.1701 12.6923 21.5242 13.2416 21.4779C13.7405 21.4912 14.2344 22.1133 14.2477 22.9419Z" fill="#A49E85"/>
<path opacity="0.65" d="M19.3799 20.1308C19.4807 20.0117 19.5814 19.8925 19.6822 19.7734C20.0943 19.4068 20.5064 19.0401 20.978 18.7238C21.5091 18.4578 22.1087 18.3519 22.6258 18.5849C24.3372 19.2151 23.1323 21.3633 22.3766 22.2567C21.6301 23.26 20.801 24.6021 19.6976 25.3036C18.6445 25.9455 16.8093 25.8236 17.1717 24.1889C17.4929 22.7237 18.4137 21.1526 19.3799 20.1308Z" fill="#E2DFD7"/>
<path d="M19.5445 20.7807C20.8361 19.0124 22.4705 18.0449 23.1751 18.5386C23.9391 19.0827 23.485 20.9464 22.2529 22.765C20.9613 24.5333 19.3268 25.5008 18.6222 25.007C17.7987 24.4127 18.2528 22.549 19.5445 20.7807Z" fill="#A49E85"/>
<path opacity="0.55" d="M21.211 19.534C22.1171 19.7895 22.2081 20.8881 21.8827 21.6346C21.3922 23.0588 19.9544 24.397 18.5032 24.9065C18.5032 24.9065 18.5032 24.9065 18.5627 24.9568C19.3267 25.5008 20.9612 24.5333 22.1933 22.7147C23.485 20.9464 23.8796 19.0324 23.1156 18.4884C22.5299 18.0952 21.5686 18.5082 20.5428 19.4797C20.822 19.5114 21.0417 19.4929 21.211 19.534Z" fill="#51493C"/>
<path opacity="0.7" d="M26.87 15.7381C26.9385 15.8982 27.0071 16.0584 27.0757 16.2186C28.4148 19.7011 27.7354 23.5198 27.4268 27.1413C27.3855 27.3107 27.4037 27.5305 27.4722 27.6906C27.6597 27.9514 28.1082 28.0242 28.3692 27.8363C28.6302 27.6483 28.8226 27.3002 28.9647 27.0117C31.2422 21.786 30.376 15.3319 26.9596 10.8075C25.5281 8.88155 22.5909 6.8059 20.1462 8.00763C19.986 8.07645 19.9356 8.13601 19.8348 8.25513C19.6837 8.43382 19.7704 8.81372 19.9488 8.96463C20.1273 9.11553 20.4155 9.25717 20.6443 9.34851C23.3989 10.5545 25.6953 12.9054 26.87 15.7381Z" fill="#EAE6D3"/>
<path d="M26.9028 14.1311C27.1911 14.2728 27.5297 14.3549 27.8411 14.1074C28.0426 13.8691 28.0748 13.5898 27.9377 13.2695C27.5172 12.1987 26.7258 11.325 25.8932 10.6208C25.0606 9.91654 24.1091 9.11175 23.1253 8.58621C22.7776 8.39426 22.439 8.31215 22.0499 8.28963C21.8302 8.30815 21.6197 8.43652 21.6288 8.54638C21.6882 8.59669 21.6378 8.65626 21.6973 8.70656C22.3193 9.53916 23.3443 9.89527 24.1769 10.5995C25.0599 11.2442 25.691 12.1866 26.2123 13.1383C26.3494 13.4587 26.546 13.8293 26.7839 14.0305C26.8434 14.0808 26.9028 14.1311 26.9028 14.1311Z" fill="#EFEBDC"/>
<path d="M28.6245 20.9004C28.5692 21.5689 28.5643 22.1777 28.5091 22.8462C28.5363 23.1758 28.2747 24.6913 28.7735 24.7046C29.7209 24.7906 29.7503 21.1374 29.7048 20.5881C29.6775 20.2585 29.6139 19.4895 29.0737 19.6456C28.6434 19.7925 28.6476 20.5113 28.6245 20.9004Z" fill="#EFEBDC"/>
</svg>
