<svg width="164" height="129" viewBox="0 0 164 129" fill="none" xmlns="http://www.w3.org/2000/svg">
<path opacity="0.87" d="M1.49329 114.146C1.49358 114.224 1.41629 114.38 1.41658 114.458C1.41688 114.536 1.41715 114.614 1.33956 114.692C1.26312 115.083 1.18666 115.473 1.18811 115.863C1.1884 115.941 1.18898 116.097 1.11137 116.175C1.11166 116.253 1.11227 116.409 1.03467 116.488C1.03554 116.722 0.958804 117.034 0.959674 117.268C0.960255 117.424 0.960835 117.58 0.88352 117.736C0.884391 117.97 0.884971 118.126 0.807946 118.361C0.808527 118.517 0.809107 118.673 0.809397 118.751C0.809397 118.751 0.809397 118.751 0.809687 118.829C0.810268 118.985 0.810848 119.141 0.811429 119.297C0.81317 119.765 0.815201 120.311 0.816943 120.779C0.818974 121.325 0.821021 121.871 1.05643 122.338C1.13491 122.494 1.21337 122.65 1.29185 122.805C1.60514 123.272 2.15154 123.582 2.69765 123.814C2.85371 123.892 3.08769 123.969 3.24377 124.046C4.41389 124.51 5.5058 124.896 6.67591 125.36C8.15788 125.9 9.63986 126.441 11.0436 126.904C11.3555 126.98 11.5895 127.058 11.9016 127.212C12.1356 127.29 12.2917 127.367 12.5256 127.444C12.6035 127.444 12.6035 127.444 12.6817 127.522C13.6954 127.83 14.7089 128.06 15.7215 128.056C16.5783 128.053 17.3569 127.972 18.2132 127.813C19.6143 127.574 20.9367 127.101 22.2594 126.706C26.3833 125.52 30.6647 124.802 34.9482 124.63C35.5713 124.628 36.1945 124.626 36.8176 124.623C43.0489 124.6 46.6331 124.899 51.996 121.759C56.97 118.776 62.1009 116.104 67.3888 113.744C73.3766 111.07 79.7573 109.33 86.0593 107.356C87.3041 106.961 88.7826 106.566 90.2608 106.092C90.6499 106.013 91.0388 105.855 91.428 105.776C92.9841 105.302 94.6177 104.75 96.0957 104.198C97.2623 103.726 98.351 103.254 99.4395 102.704C100.139 102.311 100.761 101.997 101.382 101.526C102.004 101.134 102.548 100.664 103.013 100.194C103.246 99.9593 103.556 99.6461 103.789 99.3332C104.487 98.4725 105.106 97.534 105.804 96.5953C106.037 96.3604 106.191 96.0478 106.502 95.8907C106.891 95.7332 107.281 95.7317 107.748 95.808C108.995 95.8814 110.241 95.9547 111.488 95.9501C116.395 95.9319 120.909 95.057 125.422 93.714C128.768 92.6874 132.19 91.3485 135.69 89.9313C136.234 89.6953 136.779 89.4592 137.323 89.2232C143.62 86.0013 148.195 80.4456 153.318 75.4339C153.628 75.1207 154.016 74.8073 154.404 74.4158C154.715 74.1026 155.025 73.8674 155.336 73.5542L155.413 73.4759C156.034 72.9275 156.578 72.4574 157.199 71.9091C157.743 71.517 158.286 71.0469 158.674 70.4994C158.829 70.3428 158.906 70.1865 158.983 69.9522C159.138 69.5616 159.214 69.1712 159.29 68.7029C159.29 68.5469 159.289 68.3908 159.367 68.3125C159.365 67.9225 159.442 67.6102 159.441 67.2981C159.44 67.2201 159.44 67.2201 159.44 67.1421C159.44 67.0641 159.44 66.9861 159.439 66.9081C159.439 66.8301 159.439 66.7521 159.438 66.6741C159.438 66.5181 159.438 66.44 159.437 66.284C159.437 66.206 159.436 66.05 159.436 65.972C159.435 65.816 159.435 65.738 159.434 65.5819L159.434 65.5039C159.434 65.4259 159.434 65.4259 159.433 65.3479L159.433 65.2699C159.433 65.1139 159.354 65.0362 159.354 64.8802C159.354 64.8022 159.354 64.8022 159.353 64.7241C159.353 64.6461 159.352 64.4901 159.274 64.4124C159.274 64.3344 159.274 64.3344 159.274 64.2564C159.273 64.1784 159.273 64.1004 159.195 64.1007C159.195 64.0226 159.117 63.9449 159.116 63.7889C159.116 63.6329 159.037 63.5552 159.037 63.3991C159.036 63.3211 158.958 63.1654 158.958 63.0874C158.957 63.0094 158.879 62.9317 158.879 62.9317C158.879 62.8537 158.801 62.776 158.801 62.6979C158.8 62.6199 158.8 62.6199 158.722 62.5422C158.722 62.4642 158.722 62.4642 158.644 62.3865C158.643 62.3085 158.565 62.2308 158.565 62.1528C158.486 61.997 158.408 61.8413 158.329 61.6856C158.329 61.6856 158.329 61.6076 158.251 61.6079C158.251 61.5298 158.173 61.4521 158.173 61.4521C158.172 61.3741 158.094 61.2964 158.094 61.2184C158.016 61.1407 158.015 60.9846 157.937 60.9069C157.859 60.8292 157.859 60.7512 157.78 60.6735C157.78 60.6735 157.78 60.5955 157.702 60.5958C157.624 60.518 157.624 60.44 157.546 60.3623C157.546 60.3623 157.546 60.3623 157.545 60.2843C157.467 60.2066 157.467 60.1286 157.389 60.1289C157.311 60.0511 157.31 59.9731 157.232 59.8954C157.154 59.7397 156.997 59.5843 156.919 59.4285C156.841 59.3508 156.763 59.2731 156.762 59.1951C156.606 59.0396 156.527 58.8839 156.371 58.7285L156.293 58.6508L156.215 58.573C156.137 58.4953 156.058 58.4176 155.98 58.3399C155.902 58.2622 155.824 58.1844 155.746 58.1067C155.667 58.029 155.667 58.029 155.589 57.9513C155.589 57.9513 155.589 57.8733 155.511 57.8736C155.433 57.7959 155.433 57.7959 155.355 57.7181C155.277 57.6404 155.198 57.5627 155.12 57.485C155.042 57.4073 154.964 57.3295 154.886 57.2518C154.729 57.0964 154.495 56.9412 154.338 56.7078C154.338 56.7078 154.26 56.7081 154.26 56.6301C154.182 56.5523 154.026 56.4749 153.947 56.3192C153.869 56.2415 153.713 56.164 153.635 56.0083C153.635 56.0083 153.635 56.0083 153.557 55.9306C153.4 55.8532 153.322 55.6974 153.166 55.62C153.01 55.5426 152.853 55.3871 152.775 55.3094C152.619 55.154 152.385 54.9988 152.228 54.8434C152.072 54.688 151.916 54.6105 151.76 54.4551C151.603 54.3777 151.447 54.2222 151.291 54.1448C150.901 53.9122 150.51 53.6016 150.12 53.3691C150.12 53.3691 150.042 53.3693 150.042 53.2913C149.182 52.6705 148.246 52.1279 147.309 51.5073C147.153 51.4299 146.996 51.2744 146.762 51.1973C144.654 49.8009 142.546 48.4046 140.826 46.8508C138.716 44.8304 136.993 42.4965 135.582 40.0055C134.249 37.7481 133.072 35.3342 131.973 32.92C130.089 29.0265 127.027 22.4851 123.033 16.8832C122.877 16.6498 122.72 16.4944 122.564 16.2609C122.094 15.6386 121.624 15.0162 121.155 14.4719C120.842 14.083 120.529 13.6941 120.216 13.3053C119.903 12.9164 119.59 12.6055 119.199 12.2169C118.886 11.828 118.495 11.5174 118.183 11.2065C117.636 10.7405 117.167 10.2742 116.62 9.80819C112.401 6.31344 107.566 5.00526 102.437 8.22274C101.66 8.69369 100.884 9.32066 100.029 9.7919C98.9407 10.498 97.8525 11.1262 96.6859 11.5986C96.3746 11.6777 96.0633 11.7569 95.752 11.8361C94.8182 12.0736 93.8056 12.0773 92.7931 12.0811C91.1573 12.0872 89.4431 11.9376 87.8868 12.3334C86.4083 12.7289 85.087 13.514 83.8437 14.2987C78.0152 17.9088 72.2654 21.7527 66.2805 25.2074C63.9487 26.5422 61.6931 27.4087 59.438 28.4312C56.9495 29.5326 54.3832 30.6343 51.9752 32.4375C48.4021 35.1031 45.1417 38.0796 41.9597 41.2119C41.9597 41.2119 41.9597 41.2119 41.8821 41.2902C41.2613 41.9165 40.6405 42.5429 40.02 43.2473C38.7787 44.5781 37.6152 45.9086 36.4518 47.2391C35.2884 48.5696 34.1252 49.9781 33.04 51.3863C31.9547 52.7945 30.8694 54.2028 29.7842 55.611C29.4741 56.0022 29.1639 56.3934 28.9317 56.7843C28.3118 57.6447 27.6918 58.5051 27.384 59.5204C27.307 59.7547 27.3079 59.9887 27.3088 60.2227C27.3893 60.9245 27.6253 61.5477 27.5503 62.3281C27.5509 62.4841 27.4733 62.5624 27.4739 62.7184C27.4741 62.7965 27.3965 62.8748 27.3968 62.9528C27.3971 63.0308 27.3192 63.0311 27.3195 63.1091C27.2422 63.2654 27.1646 63.3437 27.0873 63.5C26.3124 64.595 25.147 65.3794 23.9815 66.1639C20.0195 68.987 18.3183 72.3477 15.7627 76.3357C12.9746 80.6366 11.2776 85.0895 9.73684 89.6978C8.19614 94.3061 6.8894 98.9916 4.88193 103.758C4.41836 104.773 4.03267 105.789 3.64698 106.805C3.49323 107.351 3.26158 107.898 3.10754 108.367C2.95378 108.913 2.72216 109.46 2.5684 110.007C2.41466 110.554 2.2609 111.1 2.10715 111.647C2.03013 111.881 2.03069 112.037 1.95368 112.272C1.72262 112.975 1.56915 113.599 1.49329 114.146Z" fill="#444235"/>
<path d="M30.8722 54.5149C30.9539 55.5287 31.5026 56.4628 30.6504 57.7141C29.8756 58.8092 28.7101 59.5936 27.5446 60.378C23.5826 63.2011 21.8815 66.5619 19.3259 70.5499C13.7493 79.0737 12.4606 88.5957 8.52295 97.9715C6.20623 103.363 4.59199 109.142 4.69165 114.992C4.69426 115.694 4.77506 116.474 5.16654 117.018C5.63622 117.641 6.41658 118.028 7.11848 118.259C9.69267 119.264 12.3444 120.19 14.9962 121.116C16.5561 121.657 18.1157 122.119 19.6738 122.191C21.9329 122.261 24.0331 121.473 26.2117 120.841C30.9582 119.497 35.8627 118.776 40.7699 118.758C47.0012 118.735 50.5854 119.034 55.9482 115.893C60.9223 112.91 66.0532 110.239 71.3411 107.879C77.3289 105.204 83.7096 103.465 90.0116 101.491C95.0687 99.9118 103.085 98.0878 106.965 94.3289C108.052 93.3107 108.826 91.9817 109.679 90.8083C109.911 90.5735 110.066 90.2608 110.377 90.1037C110.766 89.9462 111.155 89.9447 111.623 90.021C121.752 90.8414 130.232 88.0015 139.486 84.0666C148.274 80.3675 153.618 72.0785 160.918 66.0446C161.617 65.496 162.315 64.8693 162.702 64.0878C162.933 63.5408 163.009 62.9945 163.085 62.4481C164.133 51.0548 151.19 47.5145 144.468 41.2207C140.403 37.4133 137.969 32.2737 135.536 27.2902C131.14 18.1014 119.756 -6.03933 106.001 2.59292C103.903 3.9269 101.884 5.6506 99.3936 6.20593C96.8252 6.76156 94.0182 5.99191 91.4504 6.70355C89.972 7.0991 88.6507 7.88411 87.4074 8.66884C81.5789 12.279 75.8291 16.1229 69.8442 19.5775C65.0251 22.3258 60.1215 23.2802 55.5389 26.8077C49.8685 31.0413 44.7466 36.131 40.0931 41.531C37.7665 44.27 35.5178 47.0087 33.4255 49.9028C32.4954 51.1545 31.4093 52.3286 30.9475 53.8126C30.8704 54.0469 30.8713 54.2809 30.8722 54.5149Z" fill="#B7B5A7"/>
<path opacity="0.9" d="M62.0228 94.4961C60.2418 97.3111 58.5392 100.282 55.5052 101.307C54.1828 101.78 52.7029 101.786 51.4586 102.336C49.7476 103.045 48.5853 104.687 47.1095 105.785C44.6236 107.589 41.4315 107.99 38.3173 108.392C29.1299 109.44 12.9511 115.585 7.53483 104.372C7.29913 103.827 7.0637 103.36 6.90588 102.814C5.59653 106.798 4.75512 110.935 4.84869 115.147C4.8513 115.85 4.9321 116.629 5.32358 117.174C5.79326 117.796 6.57362 118.183 7.2755 118.415C9.84969 119.419 12.5015 120.346 15.1533 121.272C16.7131 121.812 18.2727 122.274 19.8308 122.347C22.0899 122.416 24.1901 121.628 26.3688 120.996C31.1152 119.652 36.0198 118.932 40.9269 118.914C47.1582 118.891 50.7424 119.189 56.1053 116.049C61.0793 113.066 66.2103 110.395 71.4982 108.035C77.486 105.36 83.8667 103.62 90.1686 101.646C95.2258 100.067 103.242 98.2433 107.123 94.4844C108.209 93.4662 108.983 92.1372 109.836 90.9639C110.068 90.729 110.223 90.4163 110.534 90.2592C110.923 90.1017 111.312 90.1002 111.78 90.1765C121.909 90.9969 130.389 88.157 139.643 84.2221C148.432 80.523 153.775 72.2341 161.075 66.2001C161.774 65.6515 162.472 65.0248 162.859 64.2433C163.091 63.6963 163.166 63.15 163.242 62.6036C163.99 54.2538 157.276 50.1443 151.029 46.033C151.986 51.8021 151.384 57.5771 146.493 61.8858C142.455 65.4113 137.858 64.9603 132.955 65.9927C131.709 66.2314 130.465 66.7041 129.298 67.1765C125.961 70.3873 124.103 73.5926 119.434 74.6241C114.608 75.6562 109.618 74.3486 104.791 75.0686C96.5393 76.2695 91.3539 85.2599 83.2599 87.0842C77.7343 88.3529 71.3388 86.1144 66.6772 89.3302C64.5785 90.5081 63.2616 92.4633 62.0228 94.4961Z" fill="#AAA797"/>
<path d="M121.07 54.1014C121.919 51.992 122.221 49.5726 121.746 47.312C121.269 44.8175 119.471 43.03 118.839 40.77C117.812 36.9514 119.28 33.6695 116.074 30.405C106.458 20.6895 91.7238 38.3746 84.3409 42.9266C75.5592 48.342 62.0683 44.1796 55.399 52.0834C51.1338 57.1699 52.0196 64.9676 48.5354 70.5973C46.9096 73.2557 44.4243 75.2152 42.2515 77.4075C40.0786 79.5999 38.1415 82.3374 37.9973 85.4584C37.8532 88.5793 40.3579 91.8464 43.3948 91.6011C44.8744 91.5176 46.1954 90.6545 47.3606 89.7921C54.2755 85.0858 61.418 78.7404 69.7448 76.6812C75.5039 75.3336 81.5047 76.1694 87.3448 75.6796C93.1849 75.1898 99.5639 72.9818 102.192 67.6673C102.811 66.4169 103.195 65.0893 104.048 63.994C106.606 60.63 111.671 61.2353 115.56 59.6606C118.283 58.6363 120.067 56.6015 121.07 54.1014Z" fill="#BFBEAF"/>
<path opacity="0.7" d="M5.1666 117.018C5.63628 117.641 6.41664 118.028 7.11854 118.259C9.69273 119.264 12.3445 120.19 14.9963 121.116C16.0101 121.425 17.0241 121.811 18.1152 121.963C16.6931 116.586 17.1396 110.967 18.1321 105.581C19.1256 100.428 18.6417 95.9837 21.4277 91.1368C23.6718 87.1499 26.6959 83.4722 28.3157 79.1756C28.6246 78.4724 28.8554 77.6914 29.3204 77.0656C30.9486 75.0313 34.2232 75.8772 36.6341 74.8541C39.1231 73.9088 40.4369 71.0955 40.9725 68.5192C41.5079 65.8649 41.3419 63.1352 42.1894 60.6357C43.0361 57.9022 44.8965 55.477 47.3056 53.9858C48.0828 53.5149 48.9379 53.0436 49.5584 52.3392C50.8764 50.6961 50.2446 48.3582 50.7044 46.3282C51.1639 44.2202 52.9493 42.5754 54.8931 41.632C56.8369 40.6887 59.0165 40.2905 61.1178 39.8146C65.1649 38.9415 71.0013 37.4376 73.4023 33.7622C74.4864 32.0419 74.7912 30.2466 76.3433 28.6806C78.0505 26.958 80.1489 25.7021 82.2476 24.5241C83.7244 23.6605 85.1232 22.7972 86.7572 22.3231C93.5262 20.2696 102.962 23.2769 107.845 16.5499C109.239 14.5945 110.398 11.8598 112.811 11.4608C114.368 11.221 115.93 12.3073 116.869 13.552C117.808 14.7966 118.437 16.3545 119.221 17.7557C121.652 21.9592 126.493 25.2176 126.667 30.1316C126.757 33.3297 124.666 36.5359 125.378 39.6536C125.853 41.6801 127.417 43.2345 129.212 44.2419C130.539 44.9391 132.331 45.0884 133.503 45.9422C134.674 46.7959 135.226 48.6661 136.243 49.7545C137.103 50.6094 138.04 51.308 139.055 51.9283C140.695 53.0143 142.18 54.413 143.82 55.499C145.46 56.585 147.332 57.4362 148.972 58.5222C151.08 59.9185 152.801 61.8624 154.056 64.042C154.213 64.3534 156.727 70.1168 157.192 69.647C158.434 68.4723 159.754 67.2192 161.074 66.1221C161.773 65.5735 162.472 64.9468 162.858 64.1653C163.09 63.6183 163.166 63.072 163.241 62.5256C164.29 51.1323 151.346 47.592 144.624 41.2982C140.559 37.4909 138.126 32.3513 135.692 27.3677C131.296 18.1789 119.912 -5.96182 106.157 2.67042C104.059 4.0044 102.04 5.72813 99.5498 6.28346C96.9814 6.83909 94.1744 6.06943 91.6066 6.78108C90.1281 7.17663 88.8069 7.96164 87.5635 8.74637C81.735 12.3565 75.9853 16.2004 70.0004 19.6551C65.1813 22.4033 60.2776 23.3577 55.6951 26.8852C50.025 31.1968 44.9027 36.2085 40.2493 41.6085C37.9227 44.3475 35.674 47.0862 33.5816 49.9804C32.6516 51.232 31.5655 52.4062 31.1036 53.8901C31.0266 54.1244 31.0275 54.3584 31.0284 54.5924C31.11 55.6063 31.6587 56.5403 30.8066 57.7917C30.0317 58.8867 28.8663 59.6711 27.7008 60.4556C23.7388 63.2786 22.0376 66.6394 19.482 70.6274C13.9055 79.1512 12.6167 88.6732 8.6791 98.049C6.36237 103.44 4.74813 109.219 4.8478 115.069C4.69433 115.694 4.77512 116.474 5.1666 117.018Z" fill="#D8D4C0"/>
<path opacity="0.54" d="M5.16636 117.018C5.63604 117.641 6.4164 118.028 7.11831 118.259C9.38035 119.109 11.6424 119.959 13.982 120.73C13.0267 115.195 14.4829 108.793 15.71 103.64C17.2431 97.003 19.4776 90.4419 22.1803 84.113C23.1072 82.0033 24.0337 79.8156 25.3506 77.8605C27.9841 73.8722 34.0513 71.5873 35.9047 67.2899C36.8316 65.1802 36.354 62.4516 36.9688 60.187C37.6605 57.6881 38.9754 55.1869 40.2914 52.9978C43.0013 48.6191 46.6486 44.9391 50.6873 41.8037C56.2019 37.5706 62.4996 34.4268 68.4054 30.6604C74.1557 26.9725 79.5921 22.6618 85.5779 19.4411C90.5531 16.7702 94.9123 16.0519 100.446 16.8114C105.667 17.4941 104.946 12.0361 109.38 10.5374C119.026 7.30313 124.838 20.0751 127.668 26.9295C130.104 32.8491 131.142 39.6321 134.745 45.0014C137.252 48.7366 141.388 50.9054 145.136 53.2318C151.304 57.1874 156.852 62.0033 157.735 69.0989C158.822 68.0807 159.909 67.0626 161.074 66.1221C161.773 65.5735 162.471 64.9468 162.858 64.1652C163.089 63.6183 163.165 63.072 163.241 62.5256C164.289 51.1323 151.346 47.592 144.624 41.2982C140.559 37.4908 138.125 32.3512 135.692 27.3677C131.296 18.1789 119.912 -5.96184 106.157 2.67042C104.059 4.00439 102.04 5.72812 99.5496 6.28345C96.9812 6.83907 94.1742 6.06943 91.6064 6.78106C90.1279 7.17661 88.8066 7.96163 87.5633 8.74635C81.7348 12.3565 75.985 16.2003 70.0002 19.655C65.1811 22.4033 60.2774 23.3577 55.6948 26.8852C50.0247 31.1968 44.9025 36.2085 40.249 41.6085C37.9224 44.3475 35.6737 47.0862 33.5814 49.9803C32.6513 51.232 31.5652 52.4061 31.1034 53.8901C31.0264 54.1244 31.0272 54.3584 31.0281 54.5924C31.1098 55.6062 31.6585 56.5403 30.8063 57.7917C30.0315 58.8867 28.866 59.6711 27.7006 60.4555C23.7385 63.2786 22.0374 66.6394 19.4818 70.6274C13.9052 79.1512 12.6165 88.6732 8.67886 98.049C6.36214 103.44 4.7479 109.219 4.84756 115.069C4.69409 115.694 4.77489 116.474 5.16636 117.018Z" fill="#72756B"/>
<path opacity="0.54" d="M18.2157 86.2341C16.7605 92.8703 16.0135 101.454 8.38913 103.901C7.68899 104.137 6.98852 104.296 6.2878 104.377C5.28797 107.813 4.6782 111.404 4.76972 115.07C4.77233 115.772 4.85313 116.552 5.24463 117.096C5.71429 117.719 6.49467 118.106 7.19655 118.337C9.45859 119.187 11.7206 120.037 14.0603 120.808C13.105 115.273 14.5611 108.871 15.7882 103.717C17.3214 97.0808 19.5559 90.5196 22.2586 84.1908C23.1854 82.0811 24.112 79.8933 25.4289 77.9382C28.0624 73.9499 34.1295 71.665 35.9829 67.3676C36.9098 65.2579 36.4323 62.5293 37.047 60.2648C37.7388 57.7659 39.0536 55.2647 40.3696 53.0755C43.0796 48.6969 46.7268 45.0168 50.7656 41.8814C56.2802 37.6484 62.5778 34.5046 68.4836 30.7381C74.2339 27.0503 79.6704 22.7395 85.6561 19.5188C90.6313 16.848 94.9906 16.1297 100.524 16.8892C105.745 17.5718 105.024 12.1138 109.458 10.6152C119.105 7.38087 124.916 20.1529 127.746 27.0072C130.183 32.9269 131.22 39.7099 134.823 45.0791C137.33 48.8143 141.466 50.9832 145.214 53.3095C151.382 57.2651 156.93 62.0811 157.814 69.1767C158.9 68.1585 159.987 67.1403 161.152 66.1999C161.851 65.6512 162.549 65.0245 162.936 64.243C163.168 63.6961 163.244 63.1497 163.319 62.6033C163.843 56.7507 160.713 53.0178 156.651 49.9126C156.574 49.9909 156.419 50.1475 156.341 50.2258C141.194 61.6715 130.095 30.2749 124.092 7.90838C119.476 2.54288 113.855 -0.868649 107.79 1.96227C105.785 7.3524 100.889 10.335 95.4437 12.3055C88.5986 14.8273 82.1385 16.1775 76.0792 20.5686C62.2514 30.5273 49.6739 41.5734 34.0474 49.5886C33.9701 49.7449 33.8146 49.8235 33.7373 49.9798C32.8072 51.2314 31.7211 52.4056 31.2592 53.8895C31.1822 54.1238 31.1831 54.3578 31.184 54.5919C31.2656 55.6057 31.8143 56.5398 30.9622 57.7911C30.1873 58.8861 29.0219 59.6705 27.8564 60.455C27.1571 60.9256 26.536 61.474 25.9928 62.0221C27.6636 71.4551 20.1305 77.4899 18.2157 86.2341Z" fill="#72756B"/>
<path opacity="0.7" d="M27.2766 113.972C21.1299 115.789 14.5132 116.906 9.36453 114.819C7.57041 114.123 6.08671 113.115 4.8358 111.871C4.76168 112.885 4.68784 113.978 4.69162 114.992C4.69423 115.694 4.77503 116.474 5.16652 117.018C5.63618 117.641 6.41655 118.028 7.11845 118.259C9.69264 119.264 12.3444 120.19 14.9962 121.116C16.5561 121.657 18.1157 122.119 19.6738 122.191C21.9329 122.261 24.0331 121.473 26.2117 120.841C30.9581 119.497 35.8627 118.776 40.7699 118.758C47.0012 118.735 50.5853 119.034 55.9482 115.893C60.9223 112.91 66.0532 110.239 71.3411 107.879C77.3289 105.204 83.7096 103.465 90.0116 101.491C95.0687 99.9118 103.085 98.0878 106.965 94.3289C108.052 93.3107 108.826 91.9817 109.679 90.8084C109.911 90.5735 110.066 90.2608 110.377 90.1037C110.766 89.9462 111.155 89.9448 111.623 90.021C121.752 90.8414 130.232 88.0015 139.486 84.0666C148.274 80.3675 153.618 72.0786 160.918 66.0446C161.617 65.496 162.315 64.8693 162.702 64.0878C162.934 63.5408 163.009 62.9945 163.085 62.4481C163.76 55.2687 158.837 51.2305 153.449 47.5841C154.24 50.7796 154.329 53.8996 153.327 56.5557C153.327 56.6337 153.327 56.7117 153.328 56.7897C153.353 63.7325 146.203 67.9716 141.231 71.5786C134.939 76.1265 128.8 79.9719 120.937 81.0152C116.732 81.577 111.51 80.6603 107.466 82.2355C105.366 83.0234 104.282 84.8217 102.73 86.3876C96.2118 93.1207 90.2162 93.6891 81.3389 94.3462C72.4616 95.0033 66.1713 100.097 59.1793 105.038C51.9543 110.136 45.262 111.877 36.6195 112.845C33.739 113.246 30.5472 113.726 27.2766 113.972Z" fill="#D1D3C1"/>
<path opacity="0.7" d="M151.637 63.1149C151.715 62.9586 151.714 62.8026 151.714 62.6466C151.246 62.4923 150.779 62.8061 150.469 63.0412C148.372 64.7653 146.587 66.5661 144.256 68.057C141.925 69.5479 139.437 70.8833 137.106 72.3741C133.065 74.9635 129.413 77.3954 124.588 78.5835C119.764 79.7716 114.696 78.5423 110.03 80.5099C109.485 80.7459 108.942 81.216 109.1 81.8395C109.179 82.0732 109.335 82.3067 109.492 82.4621C111.994 85.0272 115.89 85.5587 119.395 85.4677C129.832 85.1168 138.537 80.2478 145.833 73.1218C148.549 70.4593 150.016 66.8654 151.561 63.4272C151.56 63.2712 151.638 63.1929 151.637 63.1149Z" fill="#EAE6D3"/>
<path opacity="0.7" d="M77.9828 92.5645C75.0247 93.0436 72.0657 93.2886 69.3438 94.4689C63.2781 97.1438 59.7192 103.632 54.1241 107.163C49.2285 110.302 43.3108 110.87 37.6268 111.437C34.5902 111.76 31.5533 112.006 28.5954 112.563C27.4279 112.801 26.261 113.196 25.0941 113.59C23.9272 113.984 22.7597 114.223 21.5928 114.617C20.8926 114.854 20.1921 115.012 19.4926 115.405C19.3371 115.484 19.1819 115.64 19.1825 115.796C19.1833 116.03 19.4949 116.029 19.7289 116.106C20.6636 116.103 21.6756 115.943 22.61 115.861C23.6223 115.78 24.6349 115.776 25.6469 115.616C27.4378 115.453 29.3066 115.29 31.0972 115.05C31.5643 114.97 32.0317 114.968 32.4987 114.889C36.4697 114.484 40.523 115.249 44.4943 114.922C50.7236 114.353 56.6352 112.146 61.9187 108.616C65.5706 106.184 68.8308 103.13 72.7963 101.243C75.5175 99.9066 78.4748 99.1935 81.4324 98.5585C85.4019 97.7636 89.3718 97.0467 93.4204 96.5636C94.6661 96.403 95.9121 96.3203 97.1569 95.9256C100.113 94.9785 106.089 89.1055 102.417 85.9988C99.3693 83.4358 93.7785 88.1372 90.9003 89.1621C86.6224 90.8162 82.3421 91.8462 77.9828 92.5645Z" fill="#EAE6D3"/>
<path d="M123.27 79.9925C120.544 80.2366 117.818 80.1688 115.25 80.9584C114.939 81.0376 114.628 81.1947 114.551 81.5071C114.475 81.8974 114.943 82.2077 115.411 82.284C117.984 82.9765 121.255 82.8863 123.902 82.4864C127.561 81.9267 131.294 80.3526 134.637 78.702C136.892 77.6015 138.912 76.1118 140.696 74.3109C141.007 73.9977 143.102 71.9617 142.711 71.5731C142.242 71.1068 140.457 72.8296 140.069 73.0651C135.174 76.5157 129.266 79.5021 123.27 79.9925Z" fill="#F7F3E8"/>
<path d="M84.6936 95.816C83.37 95.977 82.124 96.0596 80.9565 96.298C78.8546 96.6178 76.753 97.0157 74.7307 97.8033C69.2862 99.9298 64.8594 103.457 60.2766 106.906C59.4224 107.611 58.2564 108.24 57.2423 107.854C59.7253 105.27 62.5201 102.763 65.2373 100.335C71.5259 94.7729 79.0831 95.2128 86.8646 93.1556C90.833 92.0487 94.0961 89.7743 97.9075 88.3559C98.4522 88.1979 98.9968 88.0398 99.4645 88.1161C102.427 88.8072 98.7791 92.3312 97.7686 92.881C94.2713 95.0003 89.2098 95.4092 84.6936 95.816Z" fill="#F7F3E8"/>
<path d="M39.7336 112.443C39.0331 112.602 38.2548 112.761 37.5549 113.075C37.4773 113.154 37.3215 113.154 37.3221 113.31C37.2451 113.545 37.4794 113.7 37.7133 113.777C39.9748 114.471 42.7769 113.914 45.1133 113.827C46.2817 113.823 47.5274 113.662 48.6943 113.268C49.0832 113.111 49.9394 112.951 50.0935 112.483C50.4024 111.78 49.6223 111.47 49.0771 111.472C47.0516 111.402 45.0273 111.643 43.0815 112.041C42.0692 112.123 40.9011 112.205 39.7336 112.443Z" fill="#F7F3E8"/>
<path d="M108.81 87.6912C109.046 88.3924 109.36 89.0153 109.672 89.0922C107.489 88.5542 106.234 86.1406 105.291 84.0378C104.034 81.0001 104.41 77.4883 104.866 74.3662C105.628 69.9948 108.86 59.1394 114.142 55.2193C113.754 55.8448 113.445 56.47 113.368 56.7044C111.129 62.0954 108.426 68.2682 107.513 74.1223C107.134 76.7761 107.454 79.1932 107.542 81.7672C107.546 83.0153 107.862 84.1843 108.178 85.3533C108.335 85.7427 108.495 86.7563 108.81 87.6912Z" fill="#F4F1E4"/>
<path d="M107.678 76.6181C108.437 70.9985 111.908 61.9365 113.524 56.5478C111.046 60.6915 109.038 65.1456 107.575 69.7536C106.497 73.19 105.732 76.7813 105.901 80.3691C106.147 83.7226 107.485 87.5401 110.064 89.7148C109.421 84.3345 106.92 82.0816 107.678 76.6181Z" fill="#5B5845"/>
<path d="M37.6272 69.7029C37.0038 69.6272 36.3801 69.4735 35.7558 69.1638C34.8972 68.6989 34.2709 67.8431 33.6449 67.0654C31.4532 64.1871 30.4296 61.2266 30.8057 57.6367C30.7295 58.1051 32.1379 59.816 32.4513 60.2829C33.1563 61.3725 33.9393 62.4617 34.722 63.4729C35.2699 64.1729 35.8959 64.9507 36.599 65.4942C37.6144 66.2705 38.8627 66.8119 40.1102 67.1193C45.4111 68.2697 54.5282 69.2499 61.7718 69.145C60.6049 69.5394 58.4254 69.9375 56.6347 70.1782C54.6104 70.4198 52.3525 70.6622 50.2494 70.67C46.1214 70.7634 41.992 70.4667 37.8612 69.78C37.783 69.7023 37.7051 69.7026 37.6272 69.7029Z" fill="#F4F1E4"/>
<path d="M33.1852 69.0942C33.2637 69.2499 33.3419 69.3277 33.4203 69.4834C33.577 69.7168 33.7334 69.8723 33.9676 70.0274C34.5143 70.4154 35.5266 70.3336 36.2279 70.409C42.7725 70.8528 49.3942 71.0622 56.012 70.2574C49.5465 70.1255 43.0786 69.3694 36.7641 67.9887C36.4523 67.9119 36.1405 67.8351 35.9062 67.6799C35.5938 67.447 35.3589 67.1359 35.1241 66.8247C33.0097 63.7902 31.9085 60.9079 31.2717 57.2438C31.2711 57.0878 31.2706 56.9318 31.1918 56.6981C31.1151 57.0104 31.0386 57.4007 30.7285 57.7919C30.5736 58.0265 30.3408 58.2614 30.1859 58.496C30.1992 62.0844 31.0708 66.0597 33.1852 69.0942Z" fill="#5B5845"/>
<path opacity="0.65" d="M107.262 27.3954C109.515 25.8268 112.55 25.0354 115.357 25.8051C115.825 25.9593 116.371 26.1913 116.528 26.6588C116.844 27.6718 116.068 28.6888 115.682 29.5483C114.909 31.1894 113.279 32.6776 111.57 33.7761C110.404 34.4826 109.159 34.9552 107.914 35.3499C106.748 35.7443 105.425 36.2953 104.413 36.2211C102.387 36.0726 102.069 34.2795 102.842 32.7165C103.846 30.4505 105.242 28.8071 107.262 27.3954Z" fill="#FEFBEB"/>
<path d="M107.111 28.8782C110.763 26.5243 114.5 25.8083 115.518 27.3647C116.536 28.9211 114.445 32.1273 110.793 34.4812C107.141 36.8351 103.404 37.4731 102.386 35.9947C101.368 34.4382 103.459 31.2321 107.111 28.8782Z" fill="#999684"/>
<path d="M106.195 33.9522C104.093 34.1941 103.156 33.4955 103.385 32.2464C102.3 33.7327 101.838 35.0606 102.386 35.9166C103.404 37.4731 107.141 36.8351 110.793 34.4032C112.657 33.1481 114.132 31.7384 114.984 30.409C114.364 31.1134 109.154 33.7072 106.195 33.9522Z" fill="#706E5E"/>
<path opacity="0.65" d="M88.4127 69.5909C88.8763 68.575 89.5738 67.6363 90.428 66.931C90.9718 66.539 92.1379 65.9105 92.8401 66.22C93.1522 66.3748 93.3873 66.764 93.4667 67.1537C93.7062 68.7131 93.4789 70.4301 92.7052 71.8372C92.3183 72.5407 91.7754 73.1668 91.2322 73.7149C90.7669 74.2627 90.1461 74.8891 89.602 75.2031C87.4248 76.2254 87.7242 72.9478 87.8756 71.7771C87.9506 70.9968 88.1038 70.2941 88.4127 69.5909Z" fill="#FEFBEB"/>
<path d="M88.9616 70.5244C90.1994 68.2575 92.0633 66.7684 93 67.311C94.0147 67.8533 93.7894 70.1164 92.4739 72.4616C91.2361 74.7285 89.3722 76.2176 88.4355 75.675C87.4987 75.1324 87.7237 72.7913 88.9616 70.5244Z" fill="#999684"/>
<path d="M89.9072 73.4857C88.8193 74.1919 88.1959 74.1162 87.8817 73.4153C87.73 74.508 87.889 75.3655 88.4354 75.6755C89.45 76.2178 91.2363 74.807 92.4738 72.4621C93.0926 71.2896 93.4777 70.118 93.5521 69.1816C93.476 69.65 91.4612 72.4658 89.9072 73.4857Z" fill="#706E5E"/>
<path d="M67.9747 82.3824C64.4652 81.2253 61.9643 78.9723 62.5034 77.3321C63.0429 75.7699 66.3131 75.4457 69.9005 76.6025C73.41 77.7596 75.9109 80.0126 75.3718 81.6528C74.7547 83.2933 71.4844 83.6175 67.9747 82.3824Z" fill="#AAA797"/>
<path opacity="0.65" d="M29.1553 95.5546C29.1551 95.4766 29.2327 95.3983 29.31 95.242C30.2368 93.1323 31.475 90.9434 34.0448 90.7778C34.7456 90.6972 35.5256 91.0063 36.1499 91.316C36.8521 91.6255 37.3997 92.2475 37.7138 92.9484C38.5762 94.4274 38.5052 96.2999 38.044 97.9398C37.7365 99.0331 37.1168 99.9715 36.419 100.832C35.7988 101.615 35.1018 102.709 34.1688 103.181C32.4584 104.045 30.5861 103.272 29.6453 101.638C29.0966 100.703 28.9371 99.6899 28.8551 98.5981C28.7734 97.5843 28.7697 96.5702 29.1553 95.5546Z" fill="#FEFBEB"/>
<path d="M29.782 96.5663C30.7039 93.1305 33.3438 90.8584 35.6829 91.4737C38.022 92.0891 39.1249 95.4394 38.1251 98.8756C37.2032 102.311 34.5633 104.584 32.2242 103.968C29.963 103.353 28.86 100.002 29.782 96.5663Z" fill="#999684"/>
<path d="M33.6921 100.686C32.0608 101.862 30.6587 101.868 29.7202 100.857C30.1155 102.416 30.9766 103.583 32.3022 103.968C34.6413 104.583 37.2033 102.311 38.2031 98.8753C38.6638 97.0793 38.6574 95.3631 38.1072 94.039C38.0317 94.6634 35.9449 99.0397 33.6921 100.686Z" fill="#706E5E"/>
<path d="M102.827 49.8007C103.913 48.5485 105.391 48.075 106.251 48.7738C107.11 49.4727 106.96 51.0335 105.875 52.3637C104.789 53.6159 103.311 54.0894 102.451 53.3906C101.669 52.6134 101.819 51.0526 102.827 49.8007Z" fill="#AAA797"/>
<path d="M148.307 68.3539C147.528 68.2008 146.748 67.9697 145.969 67.8165C142.85 67.048 139.655 66.5139 136.459 66.0577C133.342 65.6012 130.304 65.6905 127.188 65.5461C131.233 64.0489 136.216 63.4063 140.425 64.1707C143.543 64.7832 146.818 65.7851 149.705 67.1786C150.486 67.5657 151.266 67.9529 151.813 68.5749C151.344 68.0306 150.021 68.4255 149.398 68.4279C149.009 68.5073 148.619 68.4308 148.307 68.3539Z" fill="#5B5845"/>
<path d="M148.765 65.5439C148.218 65.2339 147.594 65.0021 147.048 64.7701C146.19 64.4613 145.255 64.3088 144.32 64.1562C138.006 63.0876 131.541 62.9556 125.631 65.7079C130.224 64.9107 134.896 64.5813 139.493 65.0323C143.779 65.4064 148.377 66.0914 151.97 68.6523C151.267 68.1869 150.873 67.0962 150.248 66.4745C149.779 66.1642 149.311 65.8539 148.765 65.5439Z" fill="#E2DECC"/>
<path d="M131.032 51.8801C130.95 50.8663 130.403 50.2442 129.313 50.3263C128.144 50.4087 127.291 51.426 126.75 52.4421C126.287 53.536 125.979 54.7073 125.36 55.6457C123.268 58.6178 116.251 56.7717 117.047 61.4493C117.683 65.0354 123.372 65.6383 125.702 63.7574C126.944 62.7387 131.356 55.1553 131.032 51.8801Z" fill="#AAA797"/>
<path d="M66.2403 55.8656C65.1498 55.8697 63.9829 56.264 63.519 57.2019C63.2098 57.8271 63.4461 58.5283 63.9161 59.2287C70.4136 67.9416 73.4834 55.6046 66.2403 55.8656Z" fill="#AAA797"/>
<path d="M53.3776 94.9184C54.394 95.9287 54.6326 97.254 54.012 97.9584C53.3136 98.6631 51.9883 98.356 50.972 97.3456C49.9556 96.3353 49.717 95.01 50.3375 94.3056C51.0362 93.6789 52.4391 93.9077 53.3776 94.9184Z" fill="#706E5E"/>
<path d="M87.719 29.6524C89.0417 29.2574 90.3673 29.6425 90.6045 30.5778C90.8416 31.513 89.9886 32.5303 88.6659 32.9253C87.3432 33.3203 86.0176 32.9351 85.7804 31.9999C85.5436 31.1427 86.3963 30.0474 87.719 29.6524Z" fill="#706E5E"/>
<path d="M96.6665 60.3231H92.748V55.8394H85.7023V60.3231H80.352L91.0902 44.9128H83.3662L71.5354 61.378V66.2385H85.4762V71.2873H92.748V66.2385H96.6665V60.3231Z" fill="#494739"/>
</svg>
